<svg width="24" height="24" viewBox="0 0 24 24" fill="none" xmlns="http://www.w3.org/2000/svg">
  <path d="M16.25 11.75H15V13H16.25V11.75Z" fill="#F9F9F9"/>
  <path d="M12.5 11.75H7.5V13H12.5V11.75Z" fill="#F9F9F9"/>
  <path d="M16.25 9.25H15V10.5H16.25V9.25Z" fill="#F9F9F9"/>
  <path d="M12.5 9.25H7.5V10.5H12.5V9.25Z" fill="#F9F9F9"/>
  <path d="M16.25 6.75H7.5V8H16.25V6.75Z" fill="#F9F9F9"/>
  <path d="M17.5 3H6.25C5.91858 3.00033 5.60083 3.13213 5.36648 3.36648C5.13213 3.60083 5.00033 3.91858 5 4.25V19.875C5 20.0408 5.06585 20.1997 5.18306 20.3169C5.30027 20.4342 5.45924 20.5 5.625 20.5H6.25C6.34704 20.5001 6.44276 20.4775 6.52955 20.4341C6.61635 20.3907 6.69183 20.3277 6.75 20.25L8.125 18.4169L9.5 20.25C9.5607 20.3239 9.63702 20.3834 9.72348 20.4243C9.80993 20.4651 9.90437 20.4863 10 20.4863C10.0956 20.4863 10.1901 20.4651 10.2765 20.4243C10.363 20.3834 10.4393 20.3239 10.5 20.25L11.875 18.4169L13.25 20.25C13.3107 20.3239 13.387 20.3834 13.4735 20.4243C13.5599 20.4651 13.6544 20.4863 13.75 20.4863C13.8456 20.4863 13.9401 20.4651 14.0265 20.4243C14.113 20.3834 14.1893 20.3239 14.25 20.25L15.625 18.4169L17 20.25C17.0582 20.3276 17.1337 20.3907 17.2205 20.4341C17.3073 20.4775 17.403 20.5 17.5 20.5H18.125C18.2908 20.5 18.4497 20.4342 18.5669 20.3169C18.6842 20.1997 18.75 20.0408 18.75 19.875V4.25C18.7496 3.9186 18.6178 3.60087 18.3835 3.36654C18.1491 3.1322 17.8314 3.00038 17.5 3ZM17.5 18.8331L16.125 17C16.0643 16.9261 15.988 16.8666 15.9015 16.8257C15.8151 16.7849 15.7206 16.7637 15.625 16.7637C15.5294 16.7637 15.4349 16.7849 15.3485 16.8257C15.262 16.8666 15.1857 16.9261 15.125 17L13.75 18.8331L12.375 17C12.3143 16.9261 12.238 16.8666 12.1515 16.8257C12.0651 16.7849 11.9706 16.7637 11.875 16.7637C11.7794 16.7637 11.6849 16.7849 11.5985 16.8257C11.512 16.8666 11.4357 16.9261 11.375 17L10 18.8331L8.625 17C8.5643 16.9261 8.48798 16.8666 8.40152 16.8257C8.31507 16.7849 8.22063 16.7637 8.125 16.7637C8.02937 16.7637 7.93493 16.7849 7.84848 16.8257C7.76202 16.8666 7.6857 16.9261 7.625 17L6.25 18.8331V4.25H17.5V18.8331Z" fill="#F9F9F9"/>
</svg>
