<svg width="24" height="24" viewBox="0 0 24 24" fill="none" xmlns="http://www.w3.org/2000/svg">
<path d="M13.6758 2.89857L14.2166 3.71339C14.6695 4.39478 15.4885 4.73405 16.2906 4.57222L17.2502 4.37916C18.6598 4.09525 19.9047 5.33877 19.6208 6.7498L19.4278 7.70942C19.266 8.51146 19.6052 9.33054 20.2866 9.78338L21.1014 10.3242C22.2995 11.1206 22.2995 12.8794 21.1014 13.6758L20.2866 14.2166C19.6052 14.6695 19.266 15.4885 19.4278 16.2906L19.6208 17.2502C19.9047 18.6598 18.6612 19.9047 17.2502 19.6208L16.2906 19.4278C15.4885 19.266 14.6695 19.6052 14.2166 20.2866L13.6758 21.1014C12.8794 22.2995 11.1206 22.2995 10.3242 21.1014L9.78338 20.2866C9.33054 19.6052 8.51146 19.266 7.70942 19.4278L6.7498 19.6208C5.34019 19.9047 4.09525 18.6612 4.37916 17.2502L4.57222 16.2906C4.73405 15.4885 4.39478 14.6695 3.71339 14.2166L2.89857 13.6758C1.70048 12.8794 1.70048 11.1206 2.89857 10.3242L3.71339 9.78338C4.39478 9.33054 4.73405 8.51146 4.57222 7.70942L4.37916 6.7498C4.09525 5.34019 5.33877 4.09525 6.7498 4.37916L7.70942 4.57222C8.51146 4.73405 9.33054 4.39478 9.78338 3.71339L10.3242 2.89857C11.1206 1.70048 12.8794 1.70048 13.6758 2.89857Z" fill="#FF0014"/>
<path d="M15.2111 7.17188H8.77344V8.78164H15.2111V7.17188Z" fill="white"/>
<path d="M15.2111 15.2197H8.77344V16.8295H15.2111V15.2197Z" fill="white"/>
<path d="M15.2111 11.1953H8.77344V12.8051H15.2111V11.1953Z" fill="white"/>
</svg>
