<svg width="24" height="24" viewBox="0 0 24 24" fill="none" xmlns="http://www.w3.org/2000/svg">
<g clip-path="url(#clip0_2723_16903)">
<path d="M12.0001 17.9998C11.8759 17.9998 11.7537 17.9689 11.6445 17.9098L1.89453 12.6598L2.60568 11.3398L12.0001 16.3981L21.3945 11.3398L22.1057 12.6604L12.3557 17.9104C12.2464 17.9692 12.1242 18 12.0001 17.9998Z" fill="#F9F9F9"/>
<path d="M12.0001 22.4998C11.8759 22.4998 11.7537 22.4689 11.6445 22.4098L1.89453 17.1598L2.60568 15.8398L12.0001 20.8981L21.3945 15.8398L22.1057 17.1604L12.3557 22.4104C12.2464 22.4692 12.1242 22.5 12.0001 22.4998Z" fill="#F9F9F9"/>
<path d="M11.9998 13.5004C11.8757 13.5003 11.7535 13.4694 11.6443 13.4104L1.89426 8.16036C1.77506 8.09614 1.67548 8.00085 1.60606 7.8846C1.53665 7.76835 1.5 7.63549 1.5 7.50009C1.5 7.3647 1.53665 7.23183 1.60606 7.11559C1.67548 6.99934 1.77506 6.90405 1.89426 6.83983L11.6443 1.58983C11.7535 1.53087 11.8757 1.5 11.9998 1.5C12.124 1.5 12.2462 1.53087 12.3554 1.58983L22.1054 6.83983C22.2246 6.90405 22.3242 6.99934 22.3936 7.11559C22.463 7.23183 22.4997 7.3647 22.4997 7.50009C22.4997 7.63549 22.463 7.76835 22.3936 7.8846C22.3242 8.00085 22.2246 8.09614 22.1054 8.16036L12.3554 13.4104C12.2462 13.4694 12.124 13.5003 11.9998 13.5004ZM3.83188 7.50036L11.9998 11.8986L20.1678 7.50036L11.9998 3.10221L3.83188 7.50036Z" fill="#F9F9F9"/>
</g>
<defs>
<clipPath id="clip0_2723_16903">
<rect width="24" height="24" fill="white"/>
</clipPath>
</defs>
</svg>
