<svg width="24" height="24" viewBox="0 0 24 24" fill="white" xmlns="http://www.w3.org/2000/svg">
<g clip-path="url(#clip0_2723_16903)">
<path d="M22.5 6H12V7.5H22.5V6Z"/>
<path d="M22.5 16.5H12V18H22.5V16.5Z"/>
<path d="M7.5 10.5H3C2.60218 10.5 2.22064 10.342 1.93934 10.0607C1.65804 9.77936 1.5 9.39782 1.5 9V4.5C1.5 4.10218 1.65804 3.72064 1.93934 3.43934C2.22064 3.15804 2.60218 3 3 3H7.5C7.89782 3 8.27936 3.15804 8.56066 3.43934C8.84196 3.72064 9 4.10218 9 4.5V9C9 9.39782 8.84196 9.77936 8.56066 10.0607C8.27936 10.342 7.89782 10.5 7.5 10.5ZM3 4.5V9H7.5V4.5H3Z"/>
<path d="M7.5 21H3C2.60218 21 2.22064 20.842 1.93934 20.5607C1.65804 20.2794 1.5 19.8978 1.5 19.5V15C1.5 14.6022 1.65804 14.2206 1.93934 13.9393C2.22064 13.658 2.60218 13.5 3 13.5H7.5C7.89782 13.5 8.27936 13.658 8.56066 13.9393C8.84196 14.2206 9 14.6022 9 15V19.5C9 19.8978 8.84196 20.2794 8.56066 20.5607C8.27936 20.842 7.89782 21 7.5 21ZM3 15V19.5H7.5V15H3Z"/>
</g>
<defs>
<clipPath id="clip0_2723_16903">
<rect width="24" height="24"/>
</clipPath>
</defs>
</svg>
