<svg width="25" height="24" viewBox="0 0 25 24" fill="none" xmlns="http://www.w3.org/2000/svg">
<g clip-path="url(#clip0_1962_151)">
<path d="M13.5488 21H10.5488C10.151 21 9.76947 20.842 9.48817 20.5607C9.20686 20.2794 9.04883 19.8978 9.04883 19.5V13.8075L3.49133 8.25C3.20964 7.96999 3.0505 7.58968 3.04883 7.1925V4.5C3.04883 4.10218 3.20686 3.72064 3.48817 3.43934C3.76947 3.15804 4.151 3 4.54883 3H19.5488C19.9467 3 20.3282 3.15804 20.6095 3.43934C20.8908 3.72064 21.0488 4.10218 21.0488 4.5V7.1925C21.0472 7.58968 20.888 7.96999 20.6063 8.25L15.0488 13.8075V19.5C15.0488 19.8978 14.8908 20.2794 14.6095 20.5607C14.3282 20.842 13.9467 21 13.5488 21ZM4.54883 4.5V7.1925L10.5488 13.1925V19.5H13.5488V13.1925L19.5488 7.1925V4.5H4.54883Z" fill="#F9F9F9"/>
</g>
<defs>
<clipPath id="clip0_1962_151">
<rect width="24" height="24" fill="white" transform="translate(0.0488281)"/>
</clipPath>
</defs>
</svg>
