<svg width="80" height="80" viewBox="0 0 80 80" fill="#F9F9F9" xmlns="http://www.w3.org/2000/svg">
<path d="M42.5 52V32H32.5V37H37.5V52H30V57H50V52H42.5Z"/>
<path d="M40 20C39.2583 20 38.5333 20.2199 37.9166 20.632C37.2999 21.044 36.8193 21.6297 36.5355 22.3149C36.2516 23.0002 36.1774 23.7542 36.3221 24.4816C36.4668 25.209 36.8239 25.8772 37.3484 26.4017C37.8728 26.9261 38.541 27.2833 39.2684 27.4279C39.9958 27.5726 40.7498 27.4984 41.4351 27.2145C42.1203 26.9307 42.706 26.4501 43.118 25.8334C43.5301 25.2167 43.75 24.4917 43.75 23.75C43.75 22.7554 43.3549 21.8016 42.6517 21.0983C41.9484 20.3951 40.9946 20 40 20Z"/>
<path d="M40 75C33.0777 75 26.3108 72.9473 20.5551 69.1015C14.7993 65.2556 10.3133 59.7894 7.66423 53.3939C5.01516 46.9985 4.32205 39.9612 5.67253 33.1719C7.02301 26.3825 10.3564 20.1461 15.2513 15.2513C20.1461 10.3564 26.3825 7.02301 33.1719 5.67253C39.9612 4.32205 46.9985 5.01516 53.3939 7.66423C59.7894 10.3133 65.2556 14.7993 69.1015 20.5551C72.9473 26.3108 75 33.0777 75 40C75 49.2826 71.3125 58.185 64.7487 64.7487C58.185 71.3125 49.2826 75 40 75ZM40 10C34.0666 10 28.2664 11.7595 23.3329 15.0559C18.3994 18.3524 14.5543 23.0377 12.2836 28.5195C10.013 34.0013 9.4189 40.0333 10.5765 45.8527C11.734 51.6722 14.5912 57.0176 18.7868 61.2132C22.9824 65.4088 28.3279 68.266 34.1473 69.4236C39.9667 70.5811 45.9987 69.987 51.4805 67.7164C56.9623 65.4458 61.6477 61.6006 64.9441 56.6671C68.2405 51.7336 70 45.9335 70 40C70 32.0435 66.8393 24.4129 61.2132 18.7868C55.5871 13.1607 47.9565 10 40 10Z"/>
</svg>
