<svg width="20" height="20" viewBox="0 0 20 20" fill="none" xmlns="http://www.w3.org/2000/svg">
<g clip-path="url(#clip0_1254_182392)">
<path d="M18.4212 11.9503L14.8003 10.0003L18.4212 8.0503C18.5205 7.99678 18.6035 7.91737 18.6613 7.8205C18.7192 7.72363 18.7497 7.6129 18.7497 7.50008C18.7497 7.38725 18.7192 7.27653 18.6613 7.17965C18.6035 7.08278 18.5205 7.00338 18.4212 6.94986L10.2962 2.57486C10.2051 2.52572 10.1033 2.5 9.99986 2.5C9.89641 2.5 9.79458 2.52572 9.70355 2.57486L1.57855 6.94986C1.47922 7.00338 1.39623 7.08278 1.33839 7.17965C1.28054 7.27653 1.25 7.38725 1.25 7.50008C1.25 7.6129 1.28054 7.72363 1.33839 7.8205C1.39623 7.91737 1.47922 7.99678 1.57855 8.0503L5.19942 10.0003L1.57855 11.9503C1.47922 12.0038 1.39623 12.0832 1.33839 12.1801C1.28054 12.277 1.25 12.3877 1.25 12.5005C1.25 12.6133 1.28054 12.7241 1.33839 12.8209C1.39623 12.9178 1.47922 12.9972 1.57855 13.0507L9.70355 17.4257C9.79461 17.4748 9.89642 17.5005 9.99986 17.5005C10.1033 17.5005 10.2051 17.4748 10.2962 17.4257L18.4212 13.0507C18.5205 12.9972 18.6035 12.9178 18.6613 12.8209C18.7192 12.7241 18.7497 12.6133 18.7497 12.5005C18.7497 12.3877 18.7192 12.277 18.6613 12.1801C18.6035 12.0832 18.5205 12.0038 18.4212 11.9503ZM9.99986 3.83523L16.8065 7.5003L9.99986 11.1655L3.19323 7.5003L9.99986 3.83523ZM9.99986 16.1655L3.19323 12.5003L6.5178 10.7102L9.70355 12.4253C9.79461 12.4744 9.89642 12.5 9.99986 12.5C10.1033 12.5 10.2051 12.4744 10.2962 12.4253L13.4819 10.7099L16.8065 12.5003L9.99986 16.1655Z" fill="#F9F9F9"/>
</g>
<defs>
<clipPath id="clip0_1254_182392">
<rect width="20" height="20" fill="white"/>
</clipPath>
</defs>
</svg>
