<svg width="22" height="20" viewBox="0 0 22 20" fill="white" xmlns="http://www.w3.org/2000/svg">
<path d="M15.3395 2.02344C15.8856 2.02298 16.4262 2.13154 16.9298 2.34275C17.4334 2.55396 17.8897 2.86357 18.272 3.25344C19.0598 4.05322 19.5014 5.13081 19.5014 6.25344C19.5014 7.37607 19.0598 8.45365 18.272 9.25344L10.502 17.1209L2.73203 9.25344C1.94422 8.45365 1.50262 7.37607 1.50262 6.25344C1.50262 5.13081 1.94422 4.05322 2.73203 3.25344C3.1146 2.86385 3.57096 2.5544 4.07446 2.34316C4.57796 2.13192 5.11851 2.02312 5.66453 2.02312C6.21055 2.02312 6.75109 2.13192 7.2546 2.34316C7.7581 2.5544 8.21446 2.86385 8.59703 3.25344L10.502 5.20344L12.3995 3.26844C12.7807 2.87393 13.2375 2.56034 13.7427 2.34642C14.2478 2.1325 14.791 2.02265 15.3395 2.02344V2.02344ZM15.3395 0.52344C14.5937 0.522807 13.8553 0.671081 13.1676 0.959566C12.4799 1.24805 11.8567 1.67094 11.3345 2.20344L10.502 3.04344L9.66953 2.20344C9.14674 1.6719 8.52338 1.24975 7.83577 0.961582C7.14816 0.673418 6.41008 0.525011 5.66453 0.525011C4.91898 0.525011 4.18089 0.673418 3.49329 0.961582C2.80568 1.24975 2.18232 1.6719 1.65953 2.20344C0.595937 3.28616 0 4.74321 0 6.26094C0 7.77867 0.595937 9.23572 1.65953 10.3184L10.502 19.2734L19.3445 10.3184C20.4081 9.23572 21.0041 7.77867 21.0041 6.26094C21.0041 4.74321 20.4081 3.28616 19.3445 2.20344C18.8219 1.67162 18.1986 1.24917 17.511 0.960735C16.8233 0.672299 16.0852 0.523645 15.3395 0.52344V0.52344Z"/>
</svg>
