<svg width="24" height="24" viewBox="0 0 24 24" fill="white" xmlns="http://www.w3.org/2000/svg">
<path d="M8.96148 14.2502C8.22747 14.2503 7.5099 14.0328 6.89954 13.6251C6.28918 13.2174 5.81345 12.6378 5.53253 11.9596C5.2516 11.2815 5.1781 10.5353 5.32133 9.81541C5.46455 9.09551 5.81807 8.43426 6.33715 7.9153L10.1661 4.08707C10.8621 3.39107 11.806 3.00004 12.7903 3C13.7745 2.99996 14.7185 3.39093 15.4145 4.08688C16.1105 4.78284 16.5016 5.72677 16.5016 6.71104C16.5016 7.6953 16.1107 8.63927 15.4147 9.33527L15.0005 9.74972L13.9386 8.69005L14.3569 8.27162C14.7699 7.85651 15.0015 7.2946 15.001 6.70903C15.0004 6.12345 14.7678 5.56198 14.354 5.14765C13.9327 4.74556 13.3726 4.52122 12.7902 4.52122C12.2078 4.52122 11.6478 4.74556 11.2265 5.14765L7.39795 8.97565C7.19258 9.18093 7.02966 9.42466 6.91851 9.69292C6.80735 9.96118 6.75014 10.2487 6.75014 10.5391C6.75014 10.8295 6.80735 11.117 6.91851 11.3853C7.02966 11.6535 7.19258 11.8973 7.39795 12.1025C7.81928 12.5046 8.3793 12.729 8.9617 12.729C9.54411 12.729 10.1041 12.5046 10.5255 12.1025L11.5862 13.1634C11.2422 13.5091 10.8332 13.7831 10.3827 13.9696C9.93213 14.1562 9.44909 14.2515 8.96148 14.2502Z"/>
<path d="M14.9615 12.7498C14.2275 12.75 13.5099 12.5325 12.8995 12.1247C12.2892 11.717 11.8135 11.1374 11.5325 10.4593C11.2516 9.78119 11.1781 9.03498 11.3213 8.31508C11.4646 7.59518 11.8181 6.93392 12.3372 6.41496L12.7516 6.00051L13.8123 7.06146L13.3979 7.47569C13.1926 7.68097 13.0297 7.9247 12.9186 8.19294C12.8074 8.46118 12.7502 8.74868 12.7502 9.03902C12.7502 9.32937 12.8074 9.61687 12.9186 9.88511C13.0297 10.1534 13.1926 10.3971 13.3979 10.6024C13.8192 11.0045 14.3792 11.2288 14.9616 11.2288C15.544 11.2288 16.1041 11.0045 16.5254 10.6024C16.7204 10.4074 20.0724 7.05539 20.3544 6.77399C20.7684 6.35906 21.0009 5.79686 21.0009 5.21072C21.0009 4.62459 20.7684 4.06238 20.3544 3.64746C19.933 3.24537 19.373 3.02103 18.7906 3.02103C18.2082 3.02103 17.6482 3.24537 17.2269 3.64746L16.1661 2.58659C16.8623 1.89164 17.8059 1.50152 18.7896 1.50195C19.7733 1.50239 20.7166 1.89333 21.4122 2.58889C22.1078 3.28445 22.4988 4.2277 22.4992 5.21139C22.4997 6.19508 22.1096 7.13871 21.4147 7.83494C21.1323 8.11694 17.7817 11.467 17.5869 11.6626C17.2428 12.0083 16.8337 12.2825 16.383 12.4691C15.9324 12.6557 15.4492 12.7511 14.9615 12.7498Z"/>
<path d="M18 22.5H3C2.6023 22.4996 2.22101 22.3414 1.9398 22.0602C1.65859 21.779 1.50042 21.3977 1.5 21V6C1.50042 5.6023 1.65859 5.22101 1.9398 4.9398C2.22101 4.65859 2.6023 4.50042 3 4.5H6V6H3V21H18V13.5H19.5V21C19.4996 21.3977 19.3414 21.779 19.0602 22.0602C18.779 22.3414 18.3977 22.4996 18 22.5Z"/>
</svg>
