<svg width="18" height="18" viewBox="0 0 18 18" fill="none" xmlns="http://www.w3.org/2000/svg">
<path d="M9.15 17.1312L0.400002 8.38125C0.27356 8.26399 0.172749 8.12183 0.10391 7.96371C0.0350717 7.8056 -0.000306071 7.63495 1.99476e-06 7.4625V1.25C1.99476e-06 0.91848 0.131698 0.600537 0.366118 0.366117C0.600539 0.131696 0.918481 3.92456e-07 1.25 3.92456e-07H7.4625C7.62745 -0.000130307 7.79079 0.0323854 7.94311 0.0956734C8.09543 0.158961 8.23372 0.25177 8.35 0.36875L17.1313 9.15C17.2475 9.26609 17.3397 9.40395 17.4026 9.5557C17.4655 9.70745 17.4979 9.87011 17.4979 10.0344C17.4979 10.1986 17.4655 10.3613 17.4026 10.5131C17.3397 10.6648 17.2475 10.8027 17.1313 10.9187L10.9188 17.1312C10.8027 17.2475 10.6648 17.3397 10.5131 17.4026C10.3613 17.4655 10.1986 17.4979 10.0344 17.4979C9.87011 17.4979 9.70745 17.4655 9.5557 17.4026C9.40395 17.3397 9.26609 17.2475 9.15 17.1312ZM1.25 1.25V7.4625L10.0375 16.25L16.25 10.0375L7.4625 1.25H1.25Z" fill="#F9F9F9"/>
<path d="M5 7.5C4.50555 7.5 4.0222 7.35338 3.61108 7.07868C3.19995 6.80397 2.87952 6.41353 2.6903 5.95671C2.50108 5.49989 2.45157 4.99723 2.54804 4.51228C2.6445 4.02732 2.8826 3.58187 3.23223 3.23223C3.58187 2.8826 4.02732 2.6445 4.51228 2.54804C4.99723 2.45157 5.49989 2.50108 5.95671 2.6903C6.41353 2.87952 6.80397 3.19995 7.07868 3.61108C7.35338 4.0222 7.5 4.50555 7.5 5C7.5 5.66304 7.23661 6.29893 6.76777 6.76777C6.29893 7.23661 5.66304 7.5 5 7.5ZM5 3.75C4.75277 3.75 4.5111 3.82331 4.30554 3.96066C4.09998 4.09802 3.93976 4.29324 3.84515 4.52165C3.75054 4.75005 3.72579 5.00139 3.77402 5.24386C3.82225 5.48634 3.9413 5.70907 4.11612 5.88388C4.29093 6.0587 4.51366 6.17775 4.75614 6.22598C4.99861 6.27421 5.24995 6.24946 5.47836 6.15485C5.70676 6.06024 5.90199 5.90003 6.03934 5.69446C6.17669 5.4889 6.25 5.24723 6.25 5C6.25 4.66848 6.1183 4.35054 5.88388 4.11612C5.64946 3.8817 5.33152 3.75 5 3.75Z" fill="#F9F9F9"/>
</svg>
