<svg width="24" height="24" viewBox="0 0 24 24" fill="none" xmlns="http://www.w3.org/2000/svg">
<g clip-path="url(#clip0_1906_313427)">
<path d="M22.0597 17.9993L8.99914 4.93868C8.71345 4.66589 8.33362 4.51367 7.9386 4.51367C7.54359 4.51367 7.16376 4.66589 6.87807 4.93868L4.93857 6.87818C4.65772 7.15968 4.5 7.54108 4.5 7.93872C4.5 8.33636 4.65772 8.71776 4.93857 8.99926L17.9984 22.0598C18.2799 22.3406 18.6613 22.4983 19.0589 22.4983C19.4565 22.4983 19.8379 22.3406 20.1195 22.0598L22.0597 20.12C22.199 19.9807 22.3095 19.8154 22.3849 19.6334C22.4603 19.4514 22.4992 19.2564 22.4992 19.0594C22.4992 18.8624 22.4603 18.6674 22.3849 18.4854C22.3095 18.3035 22.199 18.1385 22.0597 17.9993ZM5.99914 7.93868L7.93857 5.99926L11.6886 9.74926L9.74862 11.6894L5.99862 7.93943L5.99914 7.93868ZM19.059 20.9993L10.809 12.75L12.7491 10.8098L20.9991 19.0598L19.059 20.9993Z" fill="#F9F9F9"/>
<path d="M2.99999 10.5L1.5 12L2.99999 13.5L4.49997 12L2.99999 10.5Z" fill="#F9F9F9"/>
<path d="M12 1.50001L10.5 3L12 4.49999L13.5 3L12 1.50001Z" fill="#F9F9F9"/>
<path d="M2.99999 1.50001L1.5 3L2.99999 4.49999L4.49997 3L2.99999 1.50001Z" fill="#F9F9F9"/>
</g>
<defs>
<clipPath id="clip0_1906_313427">
<rect width="24" height="24" fill="white"/>
</clipPath>
</defs>
</svg>
