<svg width="14" height="18" viewBox="0 0 14 18" fill="none" xmlns="http://www.w3.org/2000/svg">
<path d="M11.25 8.75H10V10H11.25V8.75Z" fill="#F9F9F9"/>
<path d="M7.5 8.75H2.5V10H7.5V8.75Z" fill="#F9F9F9"/>
<path d="M11.25 6.25H10V7.5H11.25V6.25Z" fill="#F9F9F9"/>
<path d="M7.5 6.25H2.5V7.5H7.5V6.25Z" fill="#F9F9F9"/>
<path d="M11.25 3.75H2.5V5H11.25V3.75Z" fill="#F9F9F9"/>
<path d="M12.5 0H1.25C0.918581 0.000330923 0.600831 0.132133 0.366482 0.366482C0.132133 0.600831 0.000330923 0.918581 0 1.25V16.875C0 17.0408 0.0658481 17.1997 0.183058 17.3169C0.300269 17.4342 0.45924 17.5 0.625 17.5H1.25C1.34704 17.5001 1.44276 17.4775 1.52955 17.4341C1.61635 17.3907 1.69183 17.3277 1.75 17.25L3.125 15.4169L4.5 17.25C4.5607 17.3239 4.63702 17.3834 4.72348 17.4243C4.80993 17.4651 4.90437 17.4863 5 17.4863C5.09563 17.4863 5.19007 17.4651 5.27652 17.4243C5.36298 17.3834 5.4393 17.3239 5.5 17.25L6.875 15.4169L8.25 17.25C8.3107 17.3239 8.38702 17.3834 8.47348 17.4243C8.55993 17.4651 8.65437 17.4863 8.75 17.4863C8.84563 17.4863 8.94007 17.4651 9.02652 17.4243C9.11298 17.3834 9.1893 17.3239 9.25 17.25L10.625 15.4169L12 17.25C12.0582 17.3276 12.1337 17.3907 12.2205 17.4341C12.3073 17.4775 12.403 17.5 12.5 17.5H13.125C13.2908 17.5 13.4497 17.4342 13.5669 17.3169C13.6842 17.1997 13.75 17.0408 13.75 16.875V1.25C13.7496 0.918596 13.6178 0.600875 13.3835 0.366537C13.1491 0.132199 12.8314 0.000380458 12.5 0V0ZM12.5 15.8331L11.125 14C11.0643 13.9261 10.988 13.8666 10.9015 13.8257C10.8151 13.7849 10.7206 13.7637 10.625 13.7637C10.5294 13.7637 10.4349 13.7849 10.3485 13.8257C10.262 13.8666 10.1857 13.9261 10.125 14L8.75 15.8331L7.375 14C7.3143 13.9261 7.23798 13.8666 7.15152 13.8257C7.06507 13.7849 6.97063 13.7637 6.875 13.7637C6.77937 13.7637 6.68493 13.7849 6.59848 13.8257C6.51202 13.8666 6.4357 13.9261 6.375 14L5 15.8331L3.625 14C3.5643 13.9261 3.48798 13.8666 3.40152 13.8257C3.31507 13.7849 3.22063 13.7637 3.125 13.7637C3.02937 13.7637 2.93493 13.7849 2.84848 13.8257C2.76202 13.8666 2.6857 13.9261 2.625 14L1.25 15.8331V1.25H12.5V15.8331Z" fill="#F9F9F9"/>
</svg>
