<svg width="40" height="40" viewBox="0 0 40 40" fill="none" xmlns="http://www.w3.org/2000/svg">
<g filter="url(#filter0_b_2376_340892)">
<rect width="40" height="40" rx="20" fill="#636363" fill-opacity="0.5"/>
<path d="M14.9078 16.4989C15.2768 16.2706 15.7565 16.2706 16.1623 16.4989L19.0406 18.2494L20.9963 19.3911L23.8745 21.1416C24.2435 21.37 24.7232 21.37 25.1292 21.1416L27.417 19.7717C27.786 19.5434 28.0443 19.1247 28.0443 18.668V15.9662C28.0443 15.5095 27.8229 15.0909 27.417 14.8626L25.1661 13.5307C24.797 13.3023 24.3174 13.3023 23.9114 13.5307L21.6605 14.8626C21.2915 15.0909 21.0332 15.5095 21.0332 15.9662V17.7167L19.0775 16.537V14.7865C19.0775 14.3298 19.2989 13.9112 19.7048 13.6829L23.8745 11.1712C24.2435 10.9429 24.7232 10.9429 25.1292 11.1712L29.3727 13.6829C29.7786 13.9112 30 14.3298 30 14.7865V19.8478C30 20.3044 29.7786 20.723 29.3727 20.9513L25.1292 23.463C24.7601 23.6913 24.2804 23.6913 23.8745 23.463L20.9963 21.7505L19.0406 20.5708L16.1623 18.8583C15.7934 18.63 15.3136 18.63 14.9078 18.8583L12.6568 20.1903C12.2878 20.4186 12.0295 20.8372 12.0295 21.2939V23.9958C12.0295 24.4524 12.2509 24.871 12.6568 25.0993L14.9078 26.4694C15.2768 26.6977 15.7565 26.6977 16.1623 26.4694L18.4133 25.1374C18.7823 24.9091 19.0406 24.4905 19.0406 24.0338V22.2833L20.9963 23.463V25.2135C20.9963 25.6702 20.7749 26.0888 20.369 26.3171L16.1255 28.8288C15.7565 29.0571 15.2768 29.0571 14.8709 28.8288L10.6273 26.3171C10.2583 26.0888 10 25.6702 10 25.2135V20.1522C10 19.6956 10.2214 19.277 10.6273 19.0486L14.9078 16.4989Z" fill="#F9F9F9"/>
</g>
<defs>
<filter id="filter0_b_2376_340892" x="-16" y="-16" width="72" height="72" filterUnits="userSpaceOnUse" color-interpolation-filters="sRGB">
<feFlood flood-opacity="0" result="BackgroundImageFix"/>
<feGaussianBlur in="BackgroundImageFix" stdDeviation="8"/>
<feComposite in2="SourceAlpha" operator="in" result="effect1_backgroundBlur_2376_340892"/>
<feBlend mode="normal" in="SourceGraphic" in2="effect1_backgroundBlur_2376_340892" result="shape"/>
</filter>
</defs>
</svg>
