<svg width="21" height="19" viewBox="0 0 21 19" fill="none" xmlns="http://www.w3.org/2000/svg">
<path d="M15.5922 6.02238C15.2232 5.79405 14.7435 5.79405 14.3377 6.02238L11.4594 7.77288L9.50367 8.91452L6.62546 10.6651C6.25647 10.8934 5.77675 10.8934 5.37085 10.6651L3.08303 9.29511C2.71402 9.06679 2.45572 8.64818 2.45572 8.19149V5.4896C2.45572 5.03295 2.67712 4.61434 3.08303 4.38601L5.33395 3.05409C5.70295 2.82576 6.18263 2.82576 6.58857 3.05409L8.83948 4.38601C9.20847 4.61434 9.46677 5.03295 9.46677 5.4896V7.24013L11.4225 6.06043V4.3099C11.4225 3.85324 11.2011 3.43464 10.7952 3.20631L6.62546 0.694685C6.25647 0.466355 5.77675 0.466355 5.37085 0.694685L1.12731 3.20631C0.721402 3.43464 0.5 3.85324 0.5 4.3099V9.37122C0.5 9.82785 0.721402 10.2465 1.12731 10.4748L5.37085 12.9864C5.73985 13.2148 6.21958 13.2148 6.62546 12.9864L9.50367 11.2739L11.4594 10.0943L14.3377 8.38178C14.7066 8.15346 15.1864 8.15346 15.5922 8.38178L17.8432 9.71372C18.2122 9.94204 18.4705 10.3607 18.4705 10.8173V13.5192C18.4705 13.9758 18.2491 14.3945 17.8432 14.6228L15.5922 15.9928C15.2232 16.2211 14.7435 16.2211 14.3377 15.9928L12.0867 14.6609C11.7177 14.4325 11.4594 14.0139 11.4594 13.5572V11.8067L9.50367 12.9864V14.737C9.50367 15.1936 9.72508 15.6122 10.131 15.8405L14.3745 18.3522C14.7435 18.5805 15.2232 18.5805 15.6291 18.3522L19.8727 15.8405C20.2417 15.6122 20.5 15.1936 20.5 14.737V9.67564C20.5 9.219 20.2786 8.80039 19.8727 8.57207L15.5922 6.02238Z" fill="#F9F9F9"/>
</svg>
