<svg width="40" height="40" viewBox="0 0 40 40" fill="none" xmlns="http://www.w3.org/2000/svg">
<g filter="url(#filter0_b_2352_44822)">
<rect width="40" height="40" rx="20" fill="#636363" fill-opacity="0.5"/>
<path d="M25.0922 16.4989C24.7232 16.2706 24.2435 16.2706 23.8377 16.4989L20.9594 18.2494L19.0037 19.3911L16.1255 21.1416C15.7565 21.37 15.2768 21.37 14.8708 21.1416L12.583 19.7717C12.214 19.5434 11.9557 19.1247 11.9557 18.668V15.9662C11.9557 15.5095 12.1771 15.0909 12.583 14.8626L14.8339 13.5307C15.203 13.3023 15.6826 13.3023 16.0886 13.5307L18.3395 14.8626C18.7085 15.0909 18.9668 15.5095 18.9668 15.9662V17.7167L20.9225 16.537V14.7865C20.9225 14.3298 20.7011 13.9112 20.2952 13.6829L16.1255 11.1712C15.7565 10.9429 15.2768 10.9429 14.8708 11.1712L10.6273 13.6829C10.2214 13.9112 10 14.3298 10 14.7865V19.8478C10 20.3044 10.2214 20.723 10.6273 20.9513L14.8708 23.463C15.2399 23.6913 15.7196 23.6913 16.1255 23.463L19.0037 21.7505L20.9594 20.5708L23.8377 18.8583C24.2066 18.63 24.6864 18.63 25.0922 18.8583L27.3432 20.1903C27.7122 20.4186 27.9705 20.8372 27.9705 21.2939V23.9958C27.9705 24.4524 27.7491 24.871 27.3432 25.0993L25.0922 26.4694C24.7232 26.6977 24.2435 26.6977 23.8377 26.4694L21.5867 25.1374C21.2177 24.9091 20.9594 24.4905 20.9594 24.0338V22.2833L19.0037 23.463V25.2135C19.0037 25.6702 19.2251 26.0888 19.631 26.3171L23.8745 28.8288C24.2435 29.0571 24.7232 29.0571 25.1291 28.8288L29.3727 26.3171C29.7417 26.0888 30 25.6702 30 25.2135V20.1522C30 19.6956 29.7786 19.277 29.3727 19.0486L25.0922 16.4989Z" fill="#F9F9F9"/>
</g>
<defs>
<filter id="filter0_b_2352_44822" x="-16" y="-16" width="72" height="72" filterUnits="userSpaceOnUse" color-interpolation-filters="sRGB">
<feFlood flood-opacity="0" result="BackgroundImageFix"/>
<feGaussianBlur in="BackgroundImageFix" stdDeviation="8"/>
<feComposite in2="SourceAlpha" operator="in" result="effect1_backgroundBlur_2352_44822"/>
<feBlend mode="normal" in="SourceGraphic" in2="effect1_backgroundBlur_2352_44822" result="shape"/>
</filter>
</defs>
</svg>
