<svg width="20" height="18" viewBox="0 0 20 18" fill="white" xmlns="http://www.w3.org/2000/svg">
<path d="M4.90777 5.49894C5.27675 5.27061 5.75647 5.27061 6.16235 5.49894L9.04061 7.24944L10.9963 8.39109L13.8745 10.1416C14.2435 10.37 14.7232 10.37 15.1292 10.1416L17.417 8.77167C17.786 8.54336 18.0443 8.12474 18.0443 7.66805V4.96617C18.0443 4.50951 17.8229 4.09091 17.417 3.86258L15.1661 2.53065C14.797 2.30232 14.3174 2.30232 13.9114 2.53065L11.6605 3.86258C11.2915 4.09091 11.0332 4.50951 11.0332 4.96617V6.71669L9.07751 5.53699V3.78647C9.07751 3.32981 9.29887 2.9112 9.7048 2.68288L13.8745 0.171247C14.2435 -0.0570825 14.7232 -0.0570825 15.1292 0.171247L19.3727 2.68288C19.7786 2.9112 20 3.32981 20 3.78647V8.84778C20 9.30442 19.7786 9.72303 19.3727 9.95135L15.1292 12.463C14.7601 12.6913 14.2804 12.6913 13.8745 12.463L10.9963 10.7505L9.04061 9.57082L6.16235 7.85834C5.79336 7.63002 5.31364 7.63002 4.90777 7.85834L2.65685 9.19029C2.28781 9.4186 2.0295 9.83722 2.0295 10.2939V12.9958C2.0295 13.4524 2.25092 13.871 2.65685 14.0993L4.90777 15.4694C5.27675 15.6977 5.75647 15.6977 6.16235 15.4694L8.41327 14.1374C8.78231 13.9091 9.04061 13.4905 9.04061 13.0338V11.2833L10.9963 12.463V14.2135C10.9963 14.6702 10.7749 15.0888 10.369 15.3171L6.12546 17.8288C5.75647 18.0571 5.27675 18.0571 4.87087 17.8288L0.62729 15.3171C0.258305 15.0888 -7.78931e-07 14.6702 -7.78931e-07 14.2135V9.1522C-7.78931e-07 8.69557 0.221412 8.27696 0.62729 8.04864L4.90777 5.49894Z"/>
</svg>
