<svg width="24" height="24" viewBox="0 0 24 24" fill="none" xmlns="http://www.w3.org/2000/svg">
<g clip-path="url(#clip0_1492_21704)">
<path d="M21.7531 20.6886L16.089 15.0246C17.4501 13.3906 18.1288 11.2948 17.9839 9.17314C17.8391 7.05151 16.8819 5.06738 15.3114 3.63353C13.7409 2.19967 11.6781 1.42648 9.55211 1.47479C7.42609 1.5231 5.40054 2.3892 3.89682 3.89292C2.39311 5.39663 1.52701 7.42218 1.4787 9.54821C1.43039 11.6742 2.20358 13.737 3.63744 15.3075C5.07129 16.878 7.05541 17.8352 9.17705 17.98C11.2987 18.1249 13.3945 17.4462 15.0285 16.0851L20.6925 21.7492L21.7531 20.6886ZM3.00311 9.7492C3.00311 8.41418 3.39899 7.10913 4.14069 5.9991C4.88239 4.88907 5.93659 4.02391 7.16999 3.51301C8.4034 3.00212 9.76059 2.86845 11.07 3.1289C12.3793 3.38935 13.5821 4.03223 14.5261 4.97623C15.4701 5.92023 16.113 7.12297 16.3734 8.43234C16.6339 9.74171 16.5002 11.0989 15.9893 12.3323C15.4784 13.5657 14.6132 14.6199 13.5032 15.3616C12.3932 16.1033 11.0881 16.4992 9.75311 16.4992C7.9635 16.4972 6.24777 15.7854 4.98233 14.52C3.71689 13.2545 3.00509 11.5388 3.00311 9.7492Z" fill="#636363"/>
</g>
<defs>
<clipPath id="clip0_1492_21704">
<rect width="24" height="24" fill="white"/>
</clipPath>
</defs>
</svg>
