<svg width="18" height="15" viewBox="0 0 18 15" fill="none" xmlns="http://www.w3.org/2000/svg">
<path d="M17.1712 9.4503L13.5503 7.5003L17.1712 5.5503C17.2705 5.49678 17.3535 5.41737 17.4113 5.3205C17.4692 5.22363 17.4997 5.1129 17.4997 5.00008C17.4997 4.88725 17.4692 4.77653 17.4113 4.67965C17.3535 4.58278 17.2705 4.50338 17.1712 4.44986L9.04617 0.0748587C8.95514 0.0257247 8.85331 0 8.74986 0C8.64641 0 8.54458 0.0257247 8.45355 0.0748587L0.328547 4.44986C0.229219 4.50338 0.146231 4.58278 0.0883865 4.67965C0.0305424 4.77653 0 4.88725 0 5.00008C0 5.1129 0.0305424 5.22363 0.0883865 5.3205C0.146231 5.41737 0.229219 5.49678 0.328547 5.5503L3.94942 7.5003L0.328547 9.4503C0.229219 9.50381 0.146231 9.58322 0.0883865 9.68009C0.0305424 9.77696 0 9.88769 0 10.0005C0 10.1133 0.0305424 10.2241 0.0883865 10.3209C0.146231 10.4178 0.229219 10.4972 0.328547 10.5507L8.45355 14.9257C8.54461 14.9748 8.64642 15.0005 8.74986 15.0005C8.8533 15.0005 8.95511 14.9748 9.04617 14.9257L17.1712 10.5507C17.2705 10.4972 17.3535 10.4178 17.4113 10.3209C17.4692 10.2241 17.4997 10.1133 17.4997 10.0005C17.4997 9.88769 17.4692 9.77696 17.4113 9.68009C17.3535 9.58322 17.2705 9.50381 17.1712 9.4503ZM8.74986 1.33523L15.5565 5.0003L8.74986 8.66548L1.94323 5.0003L8.74986 1.33523ZM8.74986 13.6655L1.94323 10.0003L5.2678 8.21017L8.45355 9.92529C8.54461 9.97436 8.64642 10 8.74986 10C8.8533 10 8.95511 9.97436 9.04617 9.92529L12.2319 8.20992L15.5565 10.0003L8.74986 13.6655Z" fill="#F9F9F9"/>
</svg>
