<svg width="19" height="19" viewBox="0 0 19 19" fill="white" xmlns="http://www.w3.org/2000/svg">
<path d="M18.09 8.85655L1.58998 0.606553C1.46065 0.541878 1.31539 0.515964 1.17169 0.531931C1.02798 0.547899 0.891948 0.605067 0.779977 0.696553C0.673045 0.786172 0.593231 0.903842 0.549509 1.03634C0.505786 1.16883 0.499888 1.31089 0.532477 1.44655L2.75248 9.52405L0.502477 17.5791C0.471897 17.6923 0.468327 17.8112 0.492055 17.9262C0.515783 18.0411 0.566147 18.1488 0.639096 18.2407C0.712045 18.3327 0.805545 18.4062 0.912077 18.4554C1.01861 18.5046 1.1352 18.5281 1.25248 18.5241C1.36988 18.5233 1.48548 18.4951 1.58998 18.4416L18.09 10.1916C18.2128 10.1286 18.3159 10.033 18.3879 9.91522C18.4599 9.79745 18.498 9.66209 18.498 9.52405C18.498 9.38602 18.4599 9.25066 18.3879 9.13289C18.3159 9.01511 18.2128 8.91949 18.09 8.85655ZM2.41498 16.3566L4.07248 10.2741H11.0025V8.77405H4.07248L2.41498 2.69155L16.0725 9.52405L2.41498 16.3566Z"/>
</svg>
