<svg width="9" height="10" viewBox="0 0 9 10" fill="none" xmlns="http://www.w3.org/2000/svg">
<path d="M0.40909 10C0.300593 10 0.196539 9.9561 0.11982 9.87796C0.0431005 9.79982 1.11376e-09 9.69384 1.11376e-09 9.58333L1.11377e-09 0.416696C-5.24413e-06 0.344287 0.0185164 0.273127 0.0537389 0.21023C0.0889614 0.147333 0.139669 0.0948705 0.200863 0.0580143C0.262057 0.0211581 0.331624 0.00118033 0.402708 5.07178e-05C0.473792 -0.0010789 0.543938 0.0166786 0.606231 0.0515724L8.78803 4.63489C8.85222 4.67084 8.90576 4.72369 8.94304 4.78792C8.98033 4.85214 9 4.92538 9 4.99999C9 5.07461 8.98033 5.14785 8.94304 5.21207C8.90576 5.2763 8.85222 5.32915 8.78803 5.3651L0.606231 9.94842C0.54583 9.98224 0.47802 9.99999 0.40909 10ZM0.81818 1.12124L0.81818 8.87867L7.74195 5.00002L0.81818 1.12124Z"/>
</svg>
