<svg width="24" height="24" viewBox="0 0 24 24" fill="none" xmlns="http://www.w3.org/2000/svg">
<g clip-path="url(#clip0_5091_33961)">
<path d="M2.25 17.25L2.25 6.75003C2.24999 6.61894 2.28435 6.49015 2.34963 6.37648C2.41491 6.26281 2.50885 6.16823 2.62207 6.10218L11.6221 0.852178C11.7368 0.78526 11.8672 0.75 12 0.75C12.1328 0.75 12.2632 0.78526 12.3779 0.852178L21.3779 6.10218C21.4912 6.16823 21.5851 6.26281 21.6504 6.37648C21.7157 6.49015 21.75 6.61894 21.75 6.75003L21.75 17.25C21.75 17.3811 21.7157 17.5099 21.6504 17.6236C21.5851 17.7373 21.4911 17.8318 21.3779 17.8979L12.3779 23.1479C12.2632 23.2148 12.1328 23.2501 12 23.2501C11.8672 23.2501 11.7368 23.2148 11.6221 23.1479L2.62207 17.8979C2.50885 17.8318 2.41491 17.7372 2.34963 17.6236C2.28434 17.5099 2.24999 17.3811 2.25 17.25ZM3.75 7.18068L3.75 16.8194L12 21.6318L20.25 16.8194L20.25 7.18068L12 2.3683L3.75 7.18068Z"/>
</g>
<defs>
<clipPath id="clip0_5091_33961">
<rect width="24" height="24"/>
</clipPath>
</defs>
</svg>
