<svg preserveAspectRatio="xMinYMin meet" viewBox="0 0 82 11" fill="none" xmlns="http://www.w3.org/2000/svg">
<path d="M0 0H2.88653L6.32752 8.48038V0H8.21925V10.8777H5.39796L1.89173 2.21795V10.8777H0V0Z" fill="black"/>
<path d="M21.9866 1.87547H18.8555V0H27.0715V1.87547H23.9403V10.8777H21.9834L21.9866 1.87547Z" fill="black"/>
<path d="M37.7728 0H41.0964L43.4447 8.54562L45.7768 0H49.0547V10.8777H47.1467V1.25575L44.4884 10.8777H42.3358L39.6939 1.25575V10.8777H37.7695L37.7728 0Z" fill="black"/>
<path d="M50.9844 8.67892e-05H57.1814C57.3272 -0.00177071 57.4719 0.0262058 57.6065 0.0822958C57.7411 0.138386 57.8629 0.221405 57.9642 0.326255L58.8612 1.22322C58.9718 1.32789 59.0593 1.45445 59.1183 1.59485C59.1773 1.73524 59.2063 1.88639 59.2036 2.03864V4.58276C59.2048 4.73479 59.175 4.88546 59.1161 5.02563C59.0573 5.16581 58.9705 5.29255 58.8612 5.39818L57.9642 6.29514C57.861 6.40203 57.7366 6.48623 57.599 6.54239C57.4614 6.59855 57.3137 6.62543 57.1651 6.62131H52.9413V10.8778H50.9844V8.67892e-05ZM56.4639 4.76215C56.5067 4.7633 56.5493 4.75515 56.5888 4.73826C56.6282 4.72136 56.6635 4.69613 56.6922 4.6643L57.1488 4.20766C57.1806 4.17893 57.2059 4.14365 57.2228 4.10423C57.2397 4.06482 57.2478 4.02221 57.2467 3.97934V2.65836C57.2478 2.61549 57.2397 2.57289 57.2228 2.53347C57.2059 2.49406 57.1806 2.45877 57.1488 2.43004L56.6922 1.97341C56.6635 1.94157 56.6282 1.91634 56.5888 1.89945C56.5493 1.88256 56.5067 1.87441 56.4639 1.87556H52.9413V4.76541L56.4639 4.76215Z" fill="black"/>
<path d="M64.5801 8.67892e-05H70.7772C70.923 -0.00177071 71.0677 0.0262058 71.2023 0.0822958C71.3369 0.138386 71.4586 0.221405 71.56 0.326255L72.4569 1.22322C72.5675 1.32789 72.6551 1.45445 72.7141 1.59485C72.773 1.73524 72.8021 1.88639 72.7994 2.03864V4.58276C72.8005 4.73479 72.7708 4.88546 72.7119 5.02563C72.653 5.16581 72.5663 5.29255 72.4569 5.39818L71.56 6.29514C71.4555 6.40031 71.3309 6.48339 71.1936 6.53942C71.0563 6.59545 70.9092 6.6233 70.7609 6.62131H70.5L73.5985 10.8778H71.3806L68.4158 6.72242C68.3841 6.68023 68.3416 6.64737 68.2928 6.62728C68.2441 6.60719 68.1908 6.60062 68.1386 6.60826H66.5077V10.8648H64.5508L64.5801 8.67892e-05ZM70.0596 4.76215C70.1025 4.7633 70.1451 4.75515 70.1845 4.73826C70.2239 4.72136 70.2592 4.69613 70.288 4.6643L70.7446 4.20766C70.7764 4.17893 70.8016 4.14365 70.8185 4.10423C70.8354 4.06482 70.8436 4.02221 70.8424 3.97934V2.65836C70.8436 2.61549 70.8354 2.57289 70.8185 2.53347C70.8016 2.49406 70.7764 2.45877 70.7446 2.43004L70.2716 1.9571C70.2429 1.92526 70.2076 1.90003 70.1682 1.88314C70.1288 1.86625 70.0862 1.8581 70.0433 1.85925H66.5371V4.76541L70.0596 4.76215Z" fill="black"/>
<path d="M62.6406 0V10.8777H60.6836V0H62.6406Z" fill="black"/>
<path d="M74.8242 9.00586H81.9998V10.8813H74.8242V9.00586Z" fill="black"/>
<path d="M74.8242 4.50098H81.9998V6.37645H74.8242V4.50098Z" fill="black"/>
<path d="M74.8242 0H81.9998V1.87547H74.8242V0Z" fill="black"/>
<path d="M28.5586 9.00586H35.7504V10.8813H28.5586V9.00586Z" fill="black"/>
<path d="M28.5586 4.50098H35.7504V6.37645H28.5586V4.50098Z" fill="black"/>
<path d="M28.5586 0H35.7504V1.87547H28.5586V0Z" fill="black"/>
<path d="M10.2461 9.00586H17.4216V10.8813H10.2461V9.00586Z" fill="black"/>
<path d="M10.2461 4.50098H17.4216V6.37645H10.2461V4.50098Z" fill="black"/>
<path d="M10.2461 0H17.4216V1.87547H10.2461V0Z" fill="black"/>
</svg>
