<svg width="192" height="20" viewBox="0 0 192 20" fill="none" xmlns="http://www.w3.org/2000/svg">
<path d="M6.91409 1.49858L1.54072 6.65413C0.537763 7.76935 0 8.81538 0 10.4523V19.1624H4.29925V11.497H19.2713C20.9557 11.497 22.0298 10.9753 23.1765 9.99979L25.7913 7.49121V19.1624H30.0892V7.62939e-05H10.8179C9.13484 7.62939e-05 8.05937 0.523086 6.91409 1.49858ZM25.7913 5.15696C25.7913 6.55033 24.5735 7.66555 23.1409 7.66555H4.29925V6.3414C4.29925 4.94803 5.51705 3.83281 6.94964 3.83281H25.7913L25.7913 5.15696Z" fill="#0C0C0C"/>
<path d="M56.5618 9.58053L61.5041 4.84286C62.5797 3.79818 63.0448 2.68296 63.0448 1.04606V3.05176e-05H43.7736C42.0892 3.05176e-05 41.015 0.52304 39.8684 1.49853L34.495 6.65409C33.4921 7.76931 32.9557 8.81533 32.9557 10.4522V19.1624H37.2535V7.45658L40.0832 9.99974C41.1943 11.0098 42.304 11.4969 43.9884 11.4969H56.0952C57.5278 11.4969 58.747 12.6121 58.747 14.0055V19.1624H63.0448V18.1164C63.0448 16.4795 62.5796 15.3642 61.5041 14.3195L56.5618 9.58053ZM39.904 7.66551C38.4358 7.66551 37.2535 6.79382 37.2535 5.74915C37.2535 4.70312 38.4358 3.83276 39.904 3.83276H58.747V5.15692C58.747 6.55029 57.5278 7.66551 56.0952 7.66551H39.904Z" fill="#0C0C0C"/>
<path d="M70.3174 1.49852L64.5855 6.41055C63.4745 7.35143 63.0448 8.22311 63.0448 9.58053C63.0448 10.9393 63.4745 11.7764 64.5855 12.7519L70.3174 17.6639C71.4271 18.6394 72.5381 19.1624 74.2212 19.1624H93.1353V15.3296H69.9945C68.5618 15.3296 67.344 14.2144 67.344 12.8211V6.34134C67.344 4.94799 68.5618 3.83277 69.9945 3.83277H93.1353V3.05176e-05H74.2212C72.5381 3.05176e-05 71.4271 0.55763 70.3174 1.49852Z" fill="#0C0C0C"/>
<path d="M102.913 1.49853L97.5413 6.65409C96.537 7.76931 96.0006 8.81533 96.0006 10.4522V19.1624H100.298V11.4969H115.272C116.956 11.4969 118.03 10.9752 119.177 9.99974L121.792 7.49116V19.1624H126.09V3.05176e-05H106.818C105.134 3.05176e-05 104.06 0.52304 102.913 1.49853ZM121.792 5.15692C121.792 6.55029 120.574 7.66551 119.14 7.66551H100.298V6.34136C100.298 4.94798 101.516 3.83276 102.95 3.83276H121.792V5.15692Z" fill="#0C0C0C"/>
<path d="M157.505 6.41055L151.773 1.49853C150.663 0.557647 149.552 3.05176e-05 147.869 3.05176e-05H128.955V19.1624H147.869C149.552 19.1624 150.663 18.6394 151.773 17.6639L157.505 12.7519C158.616 11.7764 159.045 10.9393 159.045 9.58053C159.045 8.22313 158.616 7.35145 157.505 6.41055ZM154.746 12.8211C154.746 14.2144 153.528 15.3296 152.096 15.3296H133.254V3.83276H152.096C153.528 3.83276 154.746 4.94798 154.746 6.34136V12.8211Z" fill="#0C0C0C"/>
<path d="M168.86 3.83277H192V3.05176e-05H173.087C171.403 3.05176e-05 170.293 0.557632 169.182 1.49852L163.451 6.41055C162.34 7.35143 161.911 8.22311 161.911 9.58053C161.911 10.9393 162.34 11.7764 163.451 12.7519L169.182 17.6639C170.293 18.6394 171.403 19.1624 173.087 19.1624H192V15.3296H168.86C167.428 15.3296 166.209 14.2144 166.209 12.8211V11.4969H192V7.6655H166.209V6.34134C166.209 4.94799 167.428 3.83277 168.86 3.83277Z" fill="#0C0C0C"/>
<path d="M29.4908 0.594897V18.5675H26.3896V6.09053L26.1546 6.316C26.31 5.9491 26.3899 5.55499 26.3896 5.1569V3.23785H6.94963C6.53018 3.23723 6.11436 3.31503 5.72382 3.46718L7.31664 1.93903C8.29413 1.10885 9.2236 0.594897 10.8178 0.594897H29.4908ZM3.93576 5.18284C3.78052 5.54956 3.70069 5.94347 3.70098 6.34136V8.26039H23.1409C23.5604 8.261 23.9764 8.18315 24.3671 8.03092L22.7741 9.55907C21.7962 10.3884 20.8663 10.902 19.2713 10.902H3.70097V18.5675H0.598294V10.4522C0.598294 9.10438 0.971012 8.18477 1.97226 7.06673L3.93576 5.18284ZM30.0891 0H10.8178C9.13479 0 8.05935 0.523053 6.91408 1.49852L1.54068 6.6541C0.537735 7.76929 0 8.8153 0 10.4522V19.1624H4.29927V11.4969H19.2713C20.9557 11.4969 22.0298 10.9752 23.1765 9.99973L25.7913 7.49117V19.1624H30.0891V0ZM4.29927 7.6655V6.34136C4.29927 4.94799 5.517 3.83275 6.94962 3.83275H25.7913V5.15689C25.7913 6.55026 24.5735 7.6655 23.1409 7.6655H4.29927Z" fill="#0C0C0C"/>
<path d="M62.4465 0.594897V1.04605C62.4465 2.50196 62.0523 3.4787 61.089 4.41457L59.1134 6.30824C59.2668 5.94354 59.3456 5.55216 59.3453 5.15688V3.23785H39.9039C39.5117 3.23697 39.1214 3.29257 38.7451 3.40294L40.2709 1.93913C41.2496 1.10889 42.1799 0.594895 43.7736 0.594895H62.4465V0.594897ZM36.6916 5.37329C36.6412 5.63167 36.6433 5.89744 36.6977 6.15502L36.6553 6.11692V18.5675H33.554V10.4522C33.554 9.10326 33.9263 8.18376 34.9265 7.06677L36.6916 5.3733V5.37329ZM57.3126 8.0345L56.1466 9.15226L55.6998 9.58047L56.1465 10.0087L57.3144 11.1286C56.9257 10.9782 56.5122 10.9014 56.0952 10.902H43.9884C42.5304 10.902 41.5487 10.5259 40.4844 9.5584L38.9051 8.13897C39.2318 8.22014 39.5673 8.26092 39.9039 8.26039H56.0952C56.5116 8.26097 56.9244 8.18437 57.3126 8.0345V8.0345ZM59.113 12.8532L61.086 14.7451C62.0523 15.6837 62.4465 16.6605 62.4465 18.1163V18.5675H59.3453V14.0055C59.3455 13.6099 59.2666 13.2182 59.113 12.8532V12.8532ZM63.0448 0H43.7736C42.0892 0 41.015 0.523053 39.8684 1.49852L34.495 6.6541C33.492 7.76929 32.9557 8.8153 32.9557 10.4522V19.1624H37.2536V7.45655L40.0832 9.99973C41.1943 11.0098 42.304 11.4969 43.9884 11.4969H56.0952C57.5278 11.4969 58.747 12.6121 58.747 14.0055V19.1624H63.0448V18.1163C63.0448 16.4795 62.5796 15.3643 61.5042 14.3196L56.5618 9.58051L61.5042 4.84283C62.5796 3.79818 63.0448 2.68294 63.0448 1.04606V0ZM39.9039 7.6655C38.4358 7.6655 37.2536 6.79382 37.2536 5.74912C37.2536 4.70312 38.4358 3.83275 39.9039 3.83275H58.747V5.15689C58.747 6.55026 57.5278 7.6655 56.0952 7.6655H39.9039Z" fill="#0C0C0C"/>
<path d="M92.5371 0.594989V3.23794H69.9945C69.6739 3.23762 69.3548 3.28294 69.0471 3.37253L70.7056 1.95123C71.6657 1.13716 72.631 0.594989 74.2212 0.594989H92.5371ZM67.008 5.11995C66.8349 5.50413 66.7455 5.92041 66.7458 6.34141V12.8211C66.7455 13.2421 66.8349 13.6584 67.008 14.0426L64.9816 12.306C63.9808 11.4273 63.6431 10.7396 63.6431 9.58061C63.6431 8.40635 63.9912 7.69531 64.9761 6.86121L67.008 5.11995V5.11995ZM69.0471 15.79C69.3548 15.8796 69.6739 15.9249 69.9945 15.9246H92.5371V18.5675H74.2212C72.8017 18.5675 71.8183 18.1892 70.708 17.2133L69.0471 15.79V15.79ZM93.1354 9.15527e-05H74.2212C72.5381 9.15527e-05 71.4272 0.557661 70.3174 1.49857L64.5855 6.41058C63.4745 7.35149 63.0448 8.22316 63.0448 9.58061C63.0448 10.9394 63.4745 11.7764 64.5855 12.7519L70.3174 17.664C71.4272 18.6394 72.5382 19.1624 74.2212 19.1624H93.1354V15.3297H69.9945C68.5619 15.3297 67.3441 14.2145 67.3441 12.8211V6.3414C67.3441 4.94803 68.5619 3.83284 69.9945 3.83284H93.1354V9.15527e-05Z" fill="#0C0C0C"/>
<path d="M125.491 0.594897V18.5675H122.39V6.09058L122.155 6.31618C122.31 5.94924 122.39 5.55506 122.39 5.15689V3.23785H102.95C102.53 3.23724 102.114 3.31514 101.723 3.46748L103.315 1.93913C104.294 1.10895 105.225 0.594903 106.818 0.594903H125.491V0.594897ZM99.9343 5.1841C99.7794 5.55047 99.6997 5.94393 99.7 6.34136V8.26039H119.14C119.56 8.26103 119.977 8.183 120.368 8.03038L118.774 9.55912C117.797 10.3885 116.867 10.902 115.272 10.902H99.7V18.5675H96.5987V10.4522C96.5987 9.10273 96.9713 8.18332 97.9725 7.06687L99.9343 5.1841V5.1841ZM126.089 0H106.818C105.134 0 104.06 0.523053 102.913 1.49852L97.5411 6.6541C96.5367 7.76929 96.0004 8.8153 96.0004 10.4522V19.1624H100.298V11.4969H115.272C116.956 11.4969 118.03 10.9752 119.177 9.99973L121.792 7.49117V19.1624H126.089V0ZM100.298 7.6655V6.34136C100.298 4.94799 101.516 3.83275 102.95 3.83275H121.792V5.15689C121.792 6.55026 120.574 7.6655 119.14 7.6655H100.298Z" fill="#0C0C0C"/>
<path d="M147.869 0.594897C149.459 0.594897 150.425 1.13707 151.382 1.94915L153.043 3.37239C152.735 3.28284 152.416 3.23753 152.096 3.23785H132.656V15.9245H152.096C152.416 15.9249 152.736 15.8795 153.043 15.7899L151.377 17.2182C150.272 18.1892 149.289 18.5675 147.869 18.5675H129.553V0.594897H147.869ZM155.082 5.11995L157.117 6.86344C158.099 7.69522 158.447 8.40621 158.447 9.58051C158.447 10.7397 158.11 11.4274 157.114 12.3012L155.082 14.0425C155.255 13.6583 155.345 13.2421 155.345 12.8211V6.34136C155.345 5.92038 155.255 5.50411 155.082 5.11995ZM147.869 0H128.955V19.1624H147.869C149.552 19.1624 150.663 18.6394 151.773 17.6639L157.505 12.7518C158.616 11.7764 159.046 10.9393 159.046 9.58051C159.046 8.22311 158.616 7.35143 157.505 6.41053L151.773 1.49852C150.663 0.557619 149.552 0 147.869 0ZM133.254 15.3296V3.83275H152.096C153.528 3.83275 154.746 4.94798 154.746 6.34135V12.8211C154.746 14.2144 153.528 15.3296 152.096 15.3296H133.254Z" fill="#0C0C0C"/>
<path d="M191.402 0.594989V3.23794H168.86C168.539 3.23762 168.22 3.28302 167.912 3.37277L169.57 1.95147C170.531 1.13726 171.497 0.594989 173.087 0.594989H191.402ZM165.872 5.12106C165.699 5.5049 165.61 5.9208 165.61 6.34139V8.26043H191.402V10.9021H165.61V12.8211C165.61 13.2417 165.699 13.6576 165.872 14.0415L163.848 12.306C162.847 11.4274 162.509 10.7397 162.509 9.5806C162.509 8.4063 162.857 7.69526 163.842 6.86115L165.872 5.12105V5.12106ZM167.912 15.7897C168.22 15.8795 168.539 15.9249 168.86 15.9246H191.402V18.5675H173.087C171.668 18.5675 170.684 18.1892 169.573 17.2134L167.912 15.7898V15.7897ZM192 9.15527e-05H173.087C171.403 9.15527e-05 170.293 0.557661 169.182 1.49857L163.451 6.41058C162.34 7.35149 161.911 8.22316 161.911 9.58061C161.911 10.9394 162.34 11.7764 163.451 12.7519L169.182 17.664C170.293 18.6394 171.403 19.1624 173.087 19.1624H192V15.3297H168.86C167.428 15.3297 166.209 14.2145 166.209 12.8211V11.497H192V7.66554H166.209V6.3414C166.209 4.94803 167.428 3.83284 168.86 3.83284H192V9.15527e-05Z" fill="#0C0C0C"/>
</svg>
