<svg width="24" height="24" viewBox="0 0 24 24" fill="none" xmlns="http://www.w3.org/2000/svg">
<path d="M21 21H3C2.6023 20.9996 2.22101 20.8414 1.9398 20.5602C1.65859 20.279 1.50042 19.8977 1.5 19.5V15.75H3V19.5H21V15.75H22.5V19.5C22.4996 19.8977 22.3414 20.279 22.0602 20.5602C21.779 20.8414 21.3977 20.9996 21 21Z"/>
<path d="M18.75 15.75H5.25V17.25H18.75V15.75Z"/>
<path d="M18.75 12H5.25V13.5H18.75V12Z"/>
<path d="M18.75 8.25H5.25V9.75H18.75V8.25Z"/>
<path d="M18.75 4.5H5.25V6H18.75V4.5Z"/>
</svg>
