<svg width="18" height="16" viewBox="0 0 18 16" fill="none" xmlns="http://www.w3.org/2000/svg">
<path d="M16.5 0.5V2.1275L1.22996 4.9025C0.880519 4.96639 0.565098 5.15223 0.339854 5.42692C0.11461 5.7016 -0.00583794 6.04732 -4.44758e-05 6.4025V9.6575C-0.00583794 10.0127 0.11461 10.3584 0.339854 10.6331C0.565098 10.9078 0.880519 11.0936 1.22996 11.1575L2.99996 11.42V14C2.99996 14.3978 3.15799 14.7794 3.4393 15.0607C3.7206 15.342 4.10213 15.5 4.49996 15.5H10.5C10.8978 15.5 11.2793 15.342 11.5606 15.0607C11.8419 14.7794 12 14.3978 12 14V13.055L16.5 13.8725V15.5H18V0.5H16.5ZM10.5 14H4.49996V11.6975L10.5 12.785V14ZM1.49996 9.6275V6.3725L16.5 3.65V12.35L1.49996 9.6275Z" fill="#F9F9F9"/>
</svg>
