<svg width="24" height="24" viewBox="0 0 24 24" fill="none" xmlns="http://www.w3.org/2000/svg">
<rect width="24" height="24" fill="white" style="mix-blend-mode:multiply"/>
<path d="M11.9999 1.5C10.6359 1.50307 9.30486 1.91931 8.18211 2.69387C7.05936 3.46843 6.19761 4.56497 5.71041 5.839C5.22321 7.11303 5.13342 8.50477 5.45287 9.83084C5.77232 11.1569 6.48602 12.3551 7.49994 13.2675V22.5L11.9999 19.5L16.4999 22.5V13.2675C17.5139 12.3551 18.2276 11.1569 18.547 9.83084C18.8665 8.50477 18.7767 7.11303 18.2895 5.839C17.8023 4.56497 16.9405 3.46843 15.8178 2.69387C14.695 1.91931 13.3639 1.50307 11.9999 1.5ZM14.9999 19.695L12.8324 18.255L11.9999 17.7L11.1674 18.255L8.99994 19.695V14.2875C9.93031 14.7569 10.9579 15.0014 11.9999 15.0014C13.042 15.0014 14.0696 14.7569 14.9999 14.2875V19.695ZM15.6674 12C14.8001 12.8468 13.6664 13.3674 12.4588 13.4733C11.2513 13.5793 10.0443 13.2641 9.04267 12.5813C8.04108 11.8985 7.30664 10.8901 6.96402 9.72731C6.62139 8.56455 6.6917 7.31904 7.163 6.20222C7.6343 5.0854 8.47755 4.16608 9.54961 3.60031C10.6217 3.03454 11.8565 2.85719 13.0445 3.09836C14.2324 3.33954 15.3003 3.98437 16.0669 4.9234C16.8335 5.86244 17.2515 7.03781 17.2499 8.25C17.2491 8.94893 17.1086 9.64066 16.8369 10.2846C16.5651 10.9285 16.1676 11.5117 15.6674 12Z" fill="#FF6647"/>
</svg>
