<svg width="48" height="48" viewBox="0 0 48 48" fill="none" xmlns="http://www.w3.org/2000/svg">
<g clip-path="url(#clip0_888_23991)">
<path d="M10.2106 41.6049C10.1215 41.6026 10.0329 41.6184 9.95005 41.6512C9.86721 41.6841 9.79189 41.7334 9.7286 41.7961C9.66532 41.8589 9.61541 41.9338 9.58184 42.0164C9.54828 42.099 9.53175 42.1875 9.5333 42.2766H10.8541C10.809 41.8307 10.5775 41.6049 10.2106 41.6049Z" fill="white"/>
<path d="M23.1195 43.191C23.1195 43.3998 23.255 43.5522 23.5542 43.5522C23.6654 43.5517 23.7749 43.5241 23.8732 43.4721C23.9715 43.42 24.0557 43.3448 24.1186 43.2531C24.2021 43.1195 24.2452 42.9646 24.2428 42.8072V42.6717C23.9323 42.6796 23.6253 42.7387 23.334 42.8467C23.267 42.8747 23.2102 42.9229 23.1718 42.9846C23.1334 43.0463 23.1151 43.1184 23.1195 43.191Z" fill="white"/>
<path d="M26.6925 41.667C26.2861 41.667 26.0039 42.0057 26.0039 42.5475C26.0039 43.0894 26.2466 43.4788 26.6586 43.4788C27.0707 43.4788 27.2965 43.1628 27.2965 42.5588C27.2965 41.9548 27.0707 41.667 26.6925 41.667Z" fill="white"/>
<path d="M17.2944 43.191C17.2944 43.3998 17.4298 43.5522 17.7233 43.5522C17.8395 43.5574 17.9551 43.5326 18.0589 43.4802C18.1627 43.4278 18.2512 43.3496 18.316 43.2531C18.3994 43.1195 18.4426 42.9646 18.4402 42.8072V42.6717C18.1315 42.6795 17.8263 42.7386 17.5371 42.8467C17.4648 42.8699 17.4019 42.9161 17.3581 42.9782C17.3143 43.0403 17.2919 43.115 17.2944 43.191Z" fill="white"/>
<path d="M0 0.0169067V47.9943H47.9774V0.0169067H0ZM6.91439 44.0433H4.00186V39.9793H6.82406V40.6002H4.75258V41.6274H6.66039V42.2483H4.75258V43.3772H6.90309L6.91439 44.0433ZM8.69236 44.0433C8.52992 44.084 8.36312 44.1048 8.19565 44.1053C8.09193 44.1151 7.98733 44.1014 7.88962 44.0653C7.79191 44.0291 7.70359 43.9714 7.63121 43.8965C7.50787 43.7227 7.45174 43.5102 7.47318 43.2982V41.7516H7.02725V41.1872H7.46753V40.2615H8.12792V41.1872H8.69236V41.7516H8.12792V43.1684C8.12792 43.4619 8.21259 43.5635 8.41579 43.5635C8.51012 43.5616 8.60351 43.5444 8.69236 43.5127V44.0433ZM10.2672 43.5748C10.4084 43.589 10.5501 43.5525 10.667 43.4719C10.7838 43.3912 10.8682 43.2716 10.905 43.1345L11.4694 43.3377C11.3744 43.5847 11.2036 43.7953 10.9816 43.9393C10.7595 44.0833 10.4976 44.1533 10.2333 44.1392C9.32456 44.1392 8.83347 43.5466 8.83347 42.6039C8.814 42.4146 8.83533 42.2233 8.89603 42.0429C8.95673 41.8624 9.05541 41.6971 9.18538 41.5581C9.31536 41.419 9.47361 41.3094 9.6495 41.2367C9.8254 41.1639 10.0148 41.1297 10.2051 41.1364C11.1082 41.1364 11.4807 41.7911 11.4863 42.8297H9.50516C9.50611 42.9285 9.5278 43.0259 9.56879 43.1157C9.60978 43.2056 9.66916 43.2858 9.74311 43.3512C9.81706 43.4167 9.90395 43.4659 9.99811 43.4956C10.0923 43.5254 10.1916 43.535 10.2897 43.524L10.2672 43.5748ZM13.5578 41.8815C13.4592 41.8277 13.3484 41.8005 13.2361 41.8024C13.1261 41.7953 13.0161 41.8171 12.9171 41.8656C12.8181 41.9141 12.7334 41.9877 12.6717 42.079C12.5597 42.2741 12.5087 42.4981 12.5249 42.7225V44.0489H11.8589V41.2267H12.5475V41.667C12.6141 41.5172 12.725 41.3914 12.8653 41.3067C13.0056 41.2219 13.1685 41.1822 13.3321 41.1928C13.416 41.193 13.4995 41.2044 13.5804 41.2267L13.5578 41.8815ZM16.3123 44.0489H15.6463V42.3499C15.6623 42.1761 15.627 42.0015 15.5447 41.8476C15.499 41.7913 15.4399 41.7474 15.3729 41.7198C15.3058 41.6922 15.2329 41.6818 15.1609 41.6895C15.0666 41.6925 14.9742 41.7163 14.8903 41.7592C14.8063 41.8022 14.733 41.8632 14.6754 41.9379C14.5466 42.1369 14.4889 42.3736 14.5117 42.6096V43.9812H13.8457V41.159H14.5061V41.5823C14.6127 41.4325 14.7543 41.311 14.9186 41.2283C15.0829 41.1457 15.2649 41.1044 15.4487 41.1082C15.5852 41.0967 15.7223 41.1215 15.8462 41.18C15.9701 41.2384 16.0763 41.3285 16.1543 41.4412C16.2827 41.6795 16.3377 41.9506 16.3123 42.2201V44.0489ZM18.5193 44.0489C18.4886 43.9323 18.4678 43.8134 18.4572 43.6933C18.3451 43.8283 18.2031 43.9354 18.0424 44.0059C17.8817 44.0765 17.7068 44.1086 17.5315 44.0997C17.4173 44.1093 17.3023 44.0947 17.1942 44.0567C17.086 44.0187 16.9871 43.9583 16.904 43.8794C16.8208 43.8005 16.7553 43.7049 16.7117 43.5989C16.6681 43.4929 16.6474 43.3789 16.651 43.2643C16.6468 43.1004 16.6941 42.9393 16.7862 42.8036C16.8784 42.6679 17.0107 42.5645 17.1646 42.508C17.5765 42.3699 18.0061 42.2919 18.4403 42.2766V42.1185C18.4462 42.0577 18.4398 41.9964 18.4213 41.9382C18.4029 41.88 18.3729 41.8261 18.333 41.7798C18.2225 41.6933 18.0836 41.651 17.9435 41.6613C17.8755 41.6532 17.8065 41.6598 17.7412 41.6807C17.6759 41.7015 17.6158 41.7361 17.565 41.7821C17.5142 41.8281 17.4739 41.8844 17.4467 41.9473C17.4195 42.0102 17.406 42.0782 17.4073 42.1467L16.7695 42.0903C16.8147 41.4751 17.2719 41.1364 17.9944 41.1364C18.3013 41.111 18.6058 41.2084 18.841 41.4073C18.9381 41.5237 19.0094 41.6593 19.0503 41.8052C19.0912 41.9512 19.1006 42.1041 19.0781 42.254V43.2926C19.066 43.5476 19.0945 43.8029 19.1627 44.0489H18.5193ZM22.2559 44.0489H19.6312V39.9793H20.3594V43.3659H22.2559V44.0489ZM24.3443 44.0489C24.3154 43.9322 24.2965 43.8132 24.2878 43.6933C24.1752 43.8291 24.0323 43.9366 23.8705 44.0072C23.7088 44.0778 23.5327 44.1095 23.3565 44.0997C23.2423 44.1093 23.1274 44.0947 23.0192 44.0567C22.911 44.0187 22.8121 43.9583 22.729 43.8794C22.6458 43.8005 22.5803 43.7049 22.5367 43.5989C22.4931 43.4929 22.4724 43.3789 22.476 43.2643C22.4714 43.0995 22.5192 42.9375 22.6125 42.8016C22.7058 42.6657 22.8398 42.5629 22.9953 42.508C23.4069 42.3689 23.8367 42.291 24.2709 42.2766V42.1185C24.2769 42.0577 24.2705 41.9964 24.252 41.9382C24.2336 41.88 24.2035 41.8261 24.1637 41.7798C24.0517 41.6919 23.9105 41.6496 23.7686 41.6613C23.6984 41.6487 23.6263 41.6519 23.5575 41.6706C23.4887 41.6894 23.4249 41.7233 23.3709 41.7698C23.3168 41.8163 23.2738 41.8742 23.245 41.9394C23.2161 42.0046 23.2022 42.0755 23.2041 42.1467L22.5663 42.0903C22.6115 41.4751 23.0687 41.1364 23.7911 41.1364C24.0998 41.1113 24.4059 41.2086 24.6434 41.4073C24.7405 41.5237 24.8119 41.6593 24.8527 41.8052C24.8936 41.9512 24.9031 42.1041 24.8805 42.254V43.2926C24.8671 43.5472 24.8938 43.8025 24.9595 44.0489H24.3443ZM26.8335 44.1053C26.668 44.1135 26.5033 44.0782 26.3558 44.003C26.2082 43.9277 26.083 43.8151 25.9925 43.6764V44.0489H25.3546V39.9793H26.0207V41.5484C26.1228 41.41 26.2565 41.2978 26.4106 41.2213C26.5647 41.1447 26.7348 41.1059 26.9069 41.1082C27.5729 41.1082 28.0019 41.6726 28.0019 42.5814C28.0019 43.4901 27.5334 44.0433 26.8335 44.0433V44.1053ZM32.0037 44.0489C32.0037 41.9475 31.5899 39.8667 30.7857 37.9252C29.9815 35.9838 28.8028 34.2198 27.3169 32.7339C25.831 31.2479 24.067 30.0693 22.1255 29.2651C20.1841 28.4609 18.1033 28.047 16.0019 28.047V20.0037C22.3671 20.0037 28.4715 22.5323 32.9724 27.0332C37.4733 31.5341 40.0019 37.6385 40.0019 44.0037L32.0037 44.0489ZM44.0037 28.047H35.2098C34.73 27.4826 34.2164 26.9181 33.6801 26.3537C31.4025 24.0709 28.7035 22.2518 25.7328 20.9972C24.0222 20.2707 22.2346 19.7404 20.4045 19.4167C23.746 18.4585 26.6849 16.4391 28.7774 13.6633C30.87 10.8875 32.0024 7.50622 32.0037 4.03008H40.0019C40.0083 9.93555 37.8311 15.6349 33.889 20.032H44.0037V28.047Z" fill="white"/>
</g>
<defs>
<clipPath id="clip0_888_23991">
<rect width="48" height="48" fill="white"/>
</clipPath>
</defs>
</svg>
