<svg width="28" height="28" viewBox="0 0 28 28" fill="none" xmlns="http://www.w3.org/2000/svg">
<path d="M28 0H0V28H28V0Z" fill="#00A0F0"/>
<path d="M25.6687 11.669H19.7684C21.9876 9.19302 23.3376 5.9202 23.3376 2.33789H18.6687C18.6687 6.59847 15.8107 10.194 11.9058 11.3134C12.9726 11.5044 14.0064 11.8073 15.0139 12.2353C16.7524 12.9729 18.3131 14.0199 19.6499 15.3633C19.966 15.6794 20.2623 16.002 20.5455 16.3445H25.6753V11.6756L25.6687 11.669Z" fill="white"/>
<path d="M23.3311 25.6689C23.3311 17.938 17.062 11.6689 9.33105 11.6689V16.3378C14.4872 16.3378 18.6622 20.5194 18.6622 25.6689H23.3311Z" fill="white"/>
</svg>
