<svg width="250" height="195" viewBox="0 0 250 195" fill="none" xmlns="http://www.w3.org/2000/svg">
<g clip-path="url(#clip0_4482_142623)">
<path d="M111.233 19.8818V0H91.3363L31.6523 59.6383V139.151H61.4943V69.5757L111.233 19.8818Z" fill="#FF4E28"/>
<path d="M220.649 59.6383L160.965 0H141.075V19.8818L190.807 69.5757V139.151H220.649V79.5201V59.6383Z" fill="#FF4E28"/>
<path d="M141.075 69.5757H111.233V139.151H141.075V69.5757Z" fill="#FF4E28"/>
</g>
<path d="M57.5742 184.953V192.717H60.2344V194H56.209V184.953H57.5742Z" fill="#FF4E28"/>
<path d="M72.8945 184.953V194H71.5293V184.953H72.8945Z" fill="#FF4E28"/>
<path d="M85.5254 184.953L88.0273 191.223L90.5645 184.953H92.0586L87.998 194.68L84.0312 184.953H85.5254Z" fill="#FF4E28"/>
<path d="M108.182 186.236H104.555V188.41H108.076V189.693H104.555V192.717H108.182V194H103.189V184.953H108.182V186.236Z" fill="#FF4E28"/>
<path d="M133.678 194V184.338L140.275 191.24V184.953H141.641V194.551L135.043 187.666V194H133.678Z" fill="#FF4E28"/>
<path d="M153.445 189.436C153.445 188.162 153.912 187.068 154.846 186.154C155.775 185.24 156.893 184.783 158.197 184.783C159.486 184.783 160.592 185.244 161.514 186.166C162.439 187.088 162.902 188.195 162.902 189.488C162.902 190.789 162.438 191.893 161.508 192.799C160.574 193.709 159.447 194.164 158.127 194.164C156.959 194.164 155.91 193.76 154.98 192.951C153.957 192.057 153.445 190.885 153.445 189.436ZM154.822 189.453C154.822 190.453 155.158 191.275 155.83 191.92C156.498 192.564 157.27 192.887 158.145 192.887C159.094 192.887 159.895 192.559 160.547 191.902C161.199 191.238 161.525 190.43 161.525 189.477C161.525 188.512 161.203 187.703 160.559 187.051C159.918 186.395 159.125 186.066 158.18 186.066C157.238 186.066 156.443 186.395 155.795 187.051C155.146 187.699 154.822 188.5 154.822 189.453Z" fill="#FF4E28"/>
<path d="M174.678 184.953L177.033 191L179.494 184.514L181.85 191L184.352 184.953H185.834L181.791 194.574L179.465 188.164L177.039 194.58L173.195 184.953H174.678Z" fill="#FF4E28"/>
<path d="M69.166 161.74H67.0723V174.302H69.166V161.74Z" fill="#FAFAFA"/>
<path d="M213.945 165.451C213.945 164.859 213.81 163.383 212.553 162.478C211.83 161.955 210.937 161.74 209.468 161.74H207.355V174.302H209.22V169.199H209.463L212.767 174.281L212.781 174.302H215.033L211.406 168.956C212.976 168.546 213.945 167.21 213.945 165.451ZM212.152 165.469C212.152 167.201 210.635 167.459 209.728 167.459H209.217V163.592H209.779C211.352 163.592 212.149 164.224 212.149 165.469H212.152Z" fill="#FAFAFA"/>
<path d="M84.5206 161.74C80.9404 161.74 78.2393 164.439 78.2393 168.021C78.2393 171.602 80.9404 174.302 84.5206 174.302C88.1008 174.302 90.802 171.602 90.802 168.021C90.802 164.439 88.1008 161.74 84.5206 161.74ZM88.8746 168.021C88.8746 170.665 87.0845 172.513 84.5206 172.513C81.9567 172.513 80.1666 170.665 80.1666 168.021C80.1666 165.377 81.9567 163.526 84.5206 163.526C87.0845 163.526 88.8746 165.374 88.8746 168.021Z" fill="#FAFAFA"/>
<path d="M55.1928 166.822L54.0069 166.336C53.1692 165.993 52.7604 165.531 52.7604 164.919C52.7604 164.225 53.2613 163.525 54.3782 163.525C54.8935 163.525 55.2648 163.651 55.6218 163.947C55.8607 164.158 56.0248 164.392 56.1399 164.685L56.1601 164.735L57.6972 163.821L57.6771 163.783C57.4525 163.323 57.1273 162.89 56.7617 162.562C56.137 162.018 55.3281 161.74 54.3581 161.74C52.0609 161.74 50.8577 163.359 50.8577 164.957C50.8577 166.336 51.6551 167.346 53.2959 168.046L54.43 168.532C55.2562 168.877 56.1025 169.384 56.1025 170.543C56.1025 171.702 55.3022 172.513 54.1997 172.513C53.5636 172.513 53.0569 172.276 52.6942 171.811C52.3891 171.404 52.2077 170.842 52.2077 170.309V170.25L50.3223 170.669V170.71C50.4029 171.629 50.731 172.405 51.3298 173.078C52.0638 173.913 52.9591 174.302 54.145 174.302C56.4134 174.302 57.9995 172.698 57.9995 170.4C57.9995 168.754 57.1071 167.618 55.19 166.825L55.1928 166.822Z" fill="#FAFAFA"/>
<path d="M6.80963 170.559L2.6259 161.044L0.0829673 174.305L0.0712891 174.364H2.03615L3.27404 167.108L6.7016 175L10.1671 167.126L11.37 174.364H13.3319L11.0342 161.042L6.80963 170.559Z" fill="#FAFAFA"/>
<path d="M24.4991 161.74H22.4053V174.302H24.4991V161.74Z" fill="#FAFAFA"/>
<path d="M38.4428 166.822L37.2569 166.336C36.4192 165.993 36.0104 165.531 36.0104 164.919C36.0104 164.225 36.5113 163.525 37.6282 163.525C38.1435 163.525 38.5148 163.651 38.8718 163.947C39.1107 164.158 39.2748 164.392 39.3899 164.685L39.4101 164.735L40.9472 163.821L40.9271 163.783C40.7025 163.323 40.3773 162.89 40.0117 162.562C39.387 162.018 38.5781 161.74 37.6081 161.74C35.3109 161.74 34.1077 163.359 34.1077 164.957C34.1077 166.336 34.9051 167.346 36.5459 168.046L37.68 168.532C38.5062 168.874 39.3525 169.384 39.3525 170.543C39.3525 171.702 38.5522 172.513 37.4497 172.513C36.8136 172.513 36.3069 172.276 35.9442 171.811C35.6391 171.404 35.4577 170.842 35.4577 170.309V170.25L33.5723 170.669V170.71C33.6529 171.629 33.9839 172.405 34.5798 173.078C35.3138 173.913 36.2091 174.302 37.395 174.302C39.6634 174.302 41.2495 172.698 41.2495 170.4C41.2495 168.754 40.3571 167.618 38.44 166.825L38.4428 166.822Z" fill="#FAFAFA"/>
<path d="M246.319 172.41V161.74H244.346V174.302H249.929V172.41H246.319Z" fill="#FAFAFA"/>
<path d="M156.407 161.74C152.827 161.74 150.126 164.439 150.126 168.021C150.126 171.602 152.827 174.302 156.407 174.302C159.988 174.302 162.689 171.602 162.689 168.021C162.689 164.439 159.988 161.74 156.407 161.74ZM160.761 168.021C160.761 170.665 158.971 172.513 156.407 172.513C153.843 172.513 152.053 170.665 152.053 168.021C152.053 165.377 153.843 163.526 156.407 163.526C158.971 163.526 160.761 165.374 160.761 168.021Z" fill="#FAFAFA"/>
<path d="M180.33 170.279L171.841 161.127L171.761 161.042V174.183H173.66V165.76L182.149 174.914L182.23 175V161.933H180.33V170.279Z" fill="#FAFAFA"/>
<path d="M191.303 163.629H193.888V174.302H195.697V163.629H198.282V161.74H191.303V163.629Z" fill="#FAFAFA"/>
<path d="M109.015 170.279L99.9579 161.127L99.875 161.042V174.183H101.898V165.76L110.956 174.914L111.042 175V161.933H109.015V170.279Z" fill="#FAFAFA"/>
<path d="M229.34 161.74C225.561 161.74 222.71 164.439 222.71 168.021C222.71 171.602 225.561 174.302 229.34 174.302C233.119 174.302 235.971 171.602 235.971 168.021C235.971 164.439 233.119 161.74 229.34 161.74ZM233.936 168.021C233.936 170.665 232.047 172.513 229.34 172.513C226.634 172.513 224.741 170.665 224.741 168.021C224.741 165.377 226.631 163.526 229.34 163.526C232.05 163.526 233.936 165.374 233.936 168.021Z" fill="#FAFAFA"/>
<path d="M137.966 161.742C136.223 161.742 134.905 162.243 133.82 163.323C132.979 164.161 131.979 165.666 131.979 168.06C131.979 169.914 132.582 171.41 133.82 172.633C134.58 173.395 135.904 174.302 137.88 174.302C138.519 174.302 139.776 174.185 141.028 173.395L141.05 173.38V171.064L140.975 171.14C140.348 171.767 139.31 172.513 137.933 172.513C135.582 172.513 133.811 170.599 133.811 168.057C133.811 165.39 135.499 163.528 137.916 163.528C139.046 163.528 140.048 163.962 140.978 164.849L141.053 164.919V162.627L141.033 162.612C140.148 162.018 139.176 161.74 137.969 161.74L137.966 161.742Z" fill="#FAFAFA"/>
<defs>
<clipPath id="clip0_4482_142623">
<rect width="188.997" height="139.151" fill="white" transform="translate(31.6523)"/>
</clipPath>
</defs>
</svg>
