<svg width="183" height="152" viewBox="0 0 183 152" fill="none" xmlns="http://www.w3.org/2000/svg">
<path d="M40.3153 73.987H32.1253L27.5233 86.077C27.2113 86.896 26.7433 88.339 26.1193 90.367L25.1833 93.253H25.0273C23.6233 88.846 23.0383 87.208 22.6093 86.038L17.9683 73.987H9.9343V100H14.8483V85.804C14.8483 84.166 14.8093 83.698 14.5363 78.238H14.6923C15.9013 81.904 16.7203 84.322 17.1493 85.453L22.9213 100H27.4063L33.1393 85.336C33.6853 83.893 33.7633 83.62 35.5183 78.121H35.6743C35.4793 82.099 35.4013 84.673 35.4013 85.804V100H40.3153V73.987ZM51.8892 73.987H46.8972V100H51.8892V73.987ZM77.7228 81.592V80.656C77.7228 78.394 77.2548 76.834 76.2408 75.703C74.9538 74.26 72.8478 73.753 67.9728 73.753C63.1368 73.753 61.1088 74.104 59.5098 75.313C58.1058 76.327 57.4428 78.238 57.4428 81.319C57.4428 84.907 58.2618 86.779 60.3288 87.793C61.6548 88.417 62.5908 88.573 67.0368 88.846C71.3658 89.119 71.3658 89.119 71.9898 89.353C73.0428 89.704 73.4328 90.523 73.4328 92.239C73.4328 94.033 73.1598 95.047 72.4968 95.515C71.7558 96.1 70.9368 96.217 68.0118 96.217C63.9558 96.217 63.3318 96.1 62.7078 95.047C62.2788 94.384 62.1618 93.721 62.1618 91.771H57.3648C57.4038 93.838 57.4428 94.618 57.6768 95.749C57.9498 97.114 58.7688 98.362 59.7438 98.947C61.4598 99.961 63.0588 100.234 67.7778 100.234C73.1988 100.234 75.1878 99.805 76.7478 98.284C77.8788 97.153 78.3468 95.398 78.3468 92.161C78.3468 88.846 77.8008 87.325 76.2018 86.233C74.9538 85.336 73.4718 85.063 69.1038 84.79C65.0478 84.556 64.8138 84.556 64.1508 84.361C62.9028 83.971 62.4348 83.113 62.4348 81.241C62.4348 78.277 63.3708 77.692 68.0898 77.692C72.1068 77.692 72.9258 78.277 72.9258 81.124V81.592H77.7228ZM103.26 81.592V80.656C103.26 78.394 102.792 76.834 101.778 75.703C100.491 74.26 98.3849 73.753 93.5099 73.753C88.6739 73.753 86.6459 74.104 85.0469 75.313C83.6429 76.327 82.9799 78.238 82.9799 81.319C82.9799 84.907 83.7989 86.779 85.8659 87.793C87.1919 88.417 88.1279 88.573 92.5739 88.846C96.9029 89.119 96.9029 89.119 97.5269 89.353C98.5799 89.704 98.9699 90.523 98.9699 92.239C98.9699 94.033 98.6969 95.047 98.0339 95.515C97.2929 96.1 96.4739 96.217 93.5489 96.217C89.4929 96.217 88.8689 96.1 88.2449 95.047C87.8159 94.384 87.6989 93.721 87.6989 91.771H82.9019C82.9409 93.838 82.9799 94.618 83.2139 95.749C83.4869 97.114 84.3059 98.362 85.2809 98.947C86.9969 99.961 88.5959 100.234 93.3149 100.234C98.7359 100.234 100.725 99.805 102.285 98.284C103.416 97.153 103.884 95.398 103.884 92.161C103.884 88.846 103.338 87.325 101.739 86.233C100.491 85.336 99.0089 85.063 94.6409 84.79C90.5849 84.556 90.3509 84.556 89.6879 84.361C88.4399 83.971 87.9719 83.113 87.9719 81.241C87.9719 78.277 88.9079 77.692 93.6269 77.692C97.6439 77.692 98.4629 78.277 98.4629 81.124V81.592H103.26ZM114.333 73.987H109.341V100H114.333V73.987ZM131.859 73.753C129.519 73.753 127.374 73.87 126.36 74.104C124.215 74.533 122.499 75.625 121.524 77.146C120.315 79.057 120.042 80.968 120.042 87.676C120.042 90.913 120.081 92.161 120.276 93.37C120.744 96.256 121.797 97.933 123.864 99.064C125.463 99.922 127.413 100.234 131.274 100.234C133.809 100.234 135.876 100.117 136.929 99.883C139.269 99.415 140.985 98.284 141.921 96.646C143.013 94.696 143.247 92.98 143.247 86.74C143.247 83.269 143.169 81.748 142.974 80.578C142.467 77.536 141.141 75.664 138.801 74.611C137.28 73.987 135.564 73.753 131.859 73.753ZM125.112 83.815C125.151 81.241 125.502 79.876 126.36 79.057C127.179 78.238 128.232 78.043 131.391 78.043C134.316 78.043 135.291 78.121 136.149 78.472C137.124 78.901 137.748 79.876 137.982 81.397C138.177 82.606 138.177 82.723 138.177 86.818C138.177 91.693 138.138 92.356 137.67 93.643C137.007 95.515 135.954 95.944 132.132 95.944C128.154 95.944 126.984 95.749 126.243 94.891C125.307 93.799 125.112 92.629 125.112 88.066V83.815ZM173.092 73.987H168.139V88.963C168.139 91.225 168.139 91.225 168.295 95.671H168.139C167.671 94.657 167.203 93.682 166.735 92.707C165.448 89.977 164.941 88.846 164.083 87.169L157.297 73.987H148.951V100H153.865V85.063C153.865 82.801 153.865 82.801 153.709 78.277H153.865C156.478 84.166 156.556 84.322 157.258 85.726L164.707 100H173.092V73.987ZM18.5202 129.718C18.5592 130.225 18.5592 130.576 18.5592 130.81C18.5592 134.32 17.7012 134.944 12.6312 134.944C7.05424 134.944 6.70324 134.398 6.70324 125.857C6.70324 122.308 6.70324 122.308 6.74224 121.645C6.82024 119.656 7.09324 118.72 7.75624 118.057C8.53624 117.316 9.97924 117.043 13.2942 117.043C17.7402 117.043 18.2082 117.472 18.2862 121.645H23.2392C23.2002 119.851 23.1612 119.071 23.0832 118.447C22.8492 116.536 22.1862 115.171 21.0942 114.235C19.7682 113.104 18.1302 112.753 13.9962 112.753C7.67824 112.753 5.72824 113.182 3.77824 115.054C2.02324 116.731 1.51624 118.72 1.51624 124.141C1.51624 126.52 1.59424 129.718 1.71124 131.2C1.98424 134.905 2.95924 136.855 5.22124 138.064C6.93724 139.039 8.14624 139.234 12.6312 139.234C14.9322 139.234 17.2332 139.117 18.0522 139C19.4952 138.727 20.8602 138.064 21.6792 137.284C23.0832 135.958 23.4732 134.515 23.4732 130.615V129.718H18.5202ZM39.8606 112.753C37.5206 112.753 35.3756 112.87 34.3616 113.104C32.2166 113.533 30.5006 114.625 29.5256 116.146C28.3166 118.057 28.0436 119.968 28.0436 126.676C28.0436 129.913 28.0826 131.161 28.2776 132.37C28.7456 135.256 29.7986 136.933 31.8656 138.064C33.4646 138.922 35.4146 139.234 39.2756 139.234C41.8106 139.234 43.8776 139.117 44.9306 138.883C47.2706 138.415 48.9866 137.284 49.9226 135.646C51.0146 133.696 51.2486 131.98 51.2486 125.74C51.2486 122.269 51.1706 120.748 50.9756 119.578C50.4686 116.536 49.1426 114.664 46.8026 113.611C45.2816 112.987 43.5656 112.753 39.8606 112.753ZM33.1136 122.815C33.1526 120.241 33.5036 118.876 34.3616 118.057C35.1806 117.238 36.2336 117.043 39.3926 117.043C42.3176 117.043 43.2926 117.121 44.1506 117.472C45.1256 117.901 45.7496 118.876 45.9836 120.397C46.1786 121.606 46.1786 121.723 46.1786 125.818C46.1786 130.693 46.1396 131.356 45.6716 132.643C45.0086 134.515 43.9556 134.944 40.1336 134.944C36.1556 134.944 34.9856 134.749 34.2446 133.891C33.3086 132.799 33.1136 131.629 33.1136 127.066V122.815ZM81.0934 112.987H76.1404V127.963C76.1404 130.225 76.1404 130.225 76.2964 134.671H76.1404C75.6724 133.657 75.2044 132.682 74.7364 131.707C73.4494 128.977 72.9424 127.846 72.0844 126.169L65.2984 112.987H56.9524V139H61.8664V124.063C61.8664 121.801 61.8664 121.801 61.7104 117.277H61.8664C64.4794 123.166 64.5574 123.322 65.2594 124.726L72.7084 139H81.0934V112.987ZM98.2345 117.394H105.918V112.987H85.7155V117.355H93.2425V139H98.2345V117.394ZM110.578 139H115.57V130.342H122.59C124.15 130.342 124.852 130.537 125.554 131.161C126.256 131.824 126.49 132.682 126.49 134.32V139H131.521V133.345C131.521 130.069 130.117 128.47 127.114 128.275V128.08C130.897 127.339 131.794 125.935 131.794 120.748C131.794 114.937 129.649 112.987 123.37 112.987H110.578V139ZM115.57 126.091V117.277H122.902C126.1 117.277 126.724 117.979 126.724 121.645C126.724 123.868 126.529 124.648 125.71 125.311C125.125 125.857 124.111 126.091 122.551 126.091H115.57ZM148.522 112.753C146.182 112.753 144.037 112.87 143.023 113.104C140.878 113.533 139.162 114.625 138.187 116.146C136.978 118.057 136.705 119.968 136.705 126.676C136.705 129.913 136.744 131.161 136.939 132.37C137.407 135.256 138.46 136.933 140.527 138.064C142.126 138.922 144.076 139.234 147.937 139.234C150.472 139.234 152.539 139.117 153.592 138.883C155.932 138.415 157.648 137.284 158.584 135.646C159.676 133.696 159.91 131.98 159.91 125.74C159.91 122.269 159.832 120.748 159.637 119.578C159.13 116.536 157.804 114.664 155.464 113.611C153.943 112.987 152.227 112.753 148.522 112.753ZM141.775 122.815C141.814 120.241 142.165 118.876 143.023 118.057C143.842 117.238 144.895 117.043 148.054 117.043C150.979 117.043 151.954 117.121 152.812 117.472C153.787 117.901 154.411 118.876 154.645 120.397C154.84 121.606 154.84 121.723 154.84 125.818C154.84 130.693 154.801 131.356 154.333 132.643C153.67 134.515 152.617 134.944 148.795 134.944C144.817 134.944 143.647 134.749 142.906 133.891C141.97 132.799 141.775 131.629 141.775 127.066V122.815ZM170.606 112.987H165.614V139H182.735V134.632H170.606V112.987Z" fill="#B8ECE9" fill-opacity="0.2"/>
<path d="M40.3153 73.987H41.3153V72.987H40.3153V73.987ZM32.1253 73.987V72.987H31.436L31.1907 73.6313L32.1253 73.987ZM27.5233 86.077L28.4578 86.433L28.4579 86.4327L27.5233 86.077ZM26.1193 90.367L27.0705 90.6755L27.0729 90.6683L27.0751 90.6611L26.1193 90.367ZM25.1833 93.253V94.253H25.9103L26.1345 93.5615L25.1833 93.253ZM25.0273 93.253L24.0745 93.5566L24.2964 94.253H25.0273V93.253ZM22.6093 86.038L23.5482 85.6937L23.5454 85.6862L23.5425 85.6786L22.6093 86.038ZM17.9683 73.987L18.9015 73.6276L18.6548 72.987H17.9683V73.987ZM9.9343 73.987V72.987H8.9343V73.987H9.9343ZM9.9343 100H8.9343V101H9.9343V100ZM14.8483 100V101H15.8483V100H14.8483ZM14.5363 78.238V77.238H13.4851L13.5375 78.2879L14.5363 78.238ZM14.6923 78.238L15.642 77.9248L15.4155 77.238H14.6923V78.238ZM17.1493 85.453L16.2143 85.8077L16.217 85.8148L16.2198 85.8218L17.1493 85.453ZM22.9213 100L21.9918 100.369L22.2422 101H22.9213V100ZM27.4063 100V101H28.0891L28.3377 100.364L27.4063 100ZM33.1393 85.336L34.0707 85.7001L34.0746 85.6899L33.1393 85.336ZM35.5183 78.121V77.121H34.7878L34.5656 77.817L35.5183 78.121ZM35.6743 78.121L36.6731 78.17L36.7245 77.121H35.6743V78.121ZM35.4013 100H34.4013V101H35.4013V100ZM40.3153 100V101H41.3153V100H40.3153ZM40.3153 72.987H32.1253V74.987H40.3153V72.987ZM31.1907 73.6313L26.5887 85.7213L28.4579 86.4327L33.0599 74.3427L31.1907 73.6313ZM26.5888 85.721C26.2634 86.5752 25.7864 88.0487 25.1635 90.0729L27.0751 90.6611C27.7003 88.6293 28.1592 87.2168 28.4578 86.433L26.5888 85.721ZM25.1681 90.0585L24.2321 92.9445L26.1345 93.5615L27.0705 90.6755L25.1681 90.0585ZM25.1833 92.253H25.0273V94.253H25.1833V92.253ZM25.9801 92.9494C24.573 88.5327 23.9834 86.8806 23.5482 85.6937L21.6704 86.3823C22.0932 87.5354 22.6736 89.1593 24.0745 93.5566L25.9801 92.9494ZM23.5425 85.6786L18.9015 73.6276L17.0351 74.3464L21.6761 86.3974L23.5425 85.6786ZM17.9683 72.987H9.9343V74.987H17.9683V72.987ZM8.9343 73.987V100H10.9343V73.987H8.9343ZM9.9343 101H14.8483V99H9.9343V101ZM15.8483 100V85.804H13.8483V100H15.8483ZM15.8483 85.804C15.8483 84.1337 15.8072 83.6305 15.5351 78.1881L13.5375 78.2879C13.8114 83.7655 13.8483 84.1983 13.8483 85.804H15.8483ZM14.5363 79.238H14.6923V77.238H14.5363V79.238ZM13.7426 78.5512C14.9493 82.2103 15.7758 84.6517 16.2143 85.8077L18.0843 85.0983C17.6648 83.9923 16.8533 81.5977 15.642 77.9248L13.7426 78.5512ZM16.2198 85.8218L21.9918 100.369L23.8508 99.6312L18.0788 85.0842L16.2198 85.8218ZM22.9213 101H27.4063V99H22.9213V101ZM28.3377 100.364L34.0707 85.7001L32.208 84.9719L26.4749 99.6359L28.3377 100.364ZM34.0746 85.6899C34.6325 84.2155 34.7206 83.9096 36.471 78.425L34.5656 77.817C32.806 83.3304 32.7381 83.5705 32.204 84.9821L34.0746 85.6899ZM35.5183 79.121H35.6743V77.121H35.5183V79.121ZM34.6755 78.072C34.4805 82.0508 34.4013 84.6463 34.4013 85.804H36.4013C36.4013 84.6997 36.4781 82.1472 36.6731 78.17L34.6755 78.072ZM34.4013 85.804V100H36.4013V85.804H34.4013ZM35.4013 101H40.3153V99H35.4013V101ZM41.3153 100V73.987H39.3153V100H41.3153ZM51.8892 73.987H52.8892V72.987H51.8892V73.987ZM46.8972 73.987V72.987H45.8972V73.987H46.8972ZM46.8972 100H45.8972V101H46.8972V100ZM51.8892 100V101H52.8892V100H51.8892ZM51.8892 72.987H46.8972V74.987H51.8892V72.987ZM45.8972 73.987V100H47.8972V73.987H45.8972ZM46.8972 101H51.8892V99H46.8972V101ZM52.8892 100V73.987H50.8892V100H52.8892ZM77.7228 81.592V82.592H78.7228V81.592H77.7228ZM76.2408 75.703L75.4945 76.3686L75.4962 76.3705L76.2408 75.703ZM59.5098 75.313L60.0953 76.1237L60.1041 76.1173L60.1129 76.1107L59.5098 75.313ZM60.3288 87.793L59.8883 88.6908L59.8956 88.6944L59.903 88.6978L60.3288 87.793ZM67.0368 88.846L67.0997 87.848L67.0981 87.8479L67.0368 88.846ZM71.9898 89.353L71.6386 90.2893L71.656 90.2958L71.6735 90.3017L71.9898 89.353ZM72.4968 95.515L71.9201 94.698L71.8982 94.7135L71.8771 94.7301L72.4968 95.515ZM62.7078 95.047L63.5681 94.5372L63.558 94.5203L63.5473 94.5037L62.7078 95.047ZM62.1618 91.771H63.1618V90.771H62.1618V91.771ZM57.3648 91.771V90.771H56.3457L56.3649 91.7899L57.3648 91.771ZM57.6768 95.749L58.6574 95.5529L58.656 95.5464L57.6768 95.749ZM59.7438 98.947L59.2293 99.8045L59.235 99.8079L59.7438 98.947ZM76.7478 98.284L77.4459 99.0001L77.4549 98.9911L76.7478 98.284ZM76.2018 86.233L75.6181 87.045L75.6279 87.052L75.6378 87.0588L76.2018 86.233ZM69.1038 84.79L69.1661 83.7919L69.1614 83.7917L69.1038 84.79ZM64.1508 84.361L63.8525 85.3155L63.8605 85.318L63.8686 85.3204L64.1508 84.361ZM72.9258 81.592H71.9258V82.592H72.9258V81.592ZM78.7228 81.592V80.656H76.7228V81.592H78.7228ZM78.7228 80.656C78.7228 78.2643 78.2279 76.4214 76.9853 75.0355L75.4962 76.3705C76.2817 77.2466 76.7228 78.5237 76.7228 80.656H78.7228ZM76.9871 75.0374C75.3664 73.2203 72.8009 72.753 67.9728 72.753V74.753C72.8946 74.753 74.5411 75.2997 75.4945 76.3686L76.9871 75.0374ZM67.9728 72.753C63.1633 72.753 60.8054 73.0797 58.9067 74.5153L60.1129 76.1107C61.4122 75.1283 63.1102 74.753 67.9728 74.753V72.753ZM58.9243 74.5023C57.1133 75.8103 56.4428 78.1556 56.4428 81.319H58.4428C58.4428 78.3204 59.0983 76.8437 60.0953 76.1237L58.9243 74.5023ZM56.4428 81.319C56.4428 83.1708 56.651 84.6979 57.1966 85.927C57.7607 87.1977 58.6572 88.0868 59.8883 88.6908L60.7692 86.8952C59.9333 86.4852 59.3868 85.9313 59.0246 85.1155C58.644 84.2581 58.4428 83.0552 58.4428 81.319H56.4428ZM59.903 88.6978C61.4303 89.4166 62.561 89.5731 66.9755 89.8441L67.0981 87.8479C62.6205 87.5729 61.8792 87.4174 60.7546 86.8882L59.903 88.6978ZM66.9738 89.844C69.1521 89.9814 70.2068 90.0481 70.8008 90.1089C71.0923 90.1388 71.236 90.1638 71.3287 90.186C71.416 90.2069 71.4791 90.2295 71.6386 90.2893L72.3409 88.4167C72.1885 88.3595 72.0175 88.2944 71.794 88.2409C71.576 88.1887 71.3321 88.1529 71.0045 88.1193C70.3603 88.0534 69.2504 87.9836 67.0997 87.848L66.9738 89.844ZM71.6735 90.3017C71.982 90.4045 72.1143 90.5345 72.2098 90.7276C72.3358 90.9821 72.4328 91.4295 72.4328 92.239H74.4328C74.4328 91.3325 74.3347 90.5124 74.0024 89.8407C73.6397 89.1074 73.0506 88.6525 72.306 88.4043L71.6735 90.3017ZM72.4328 92.239C72.4328 93.0996 72.3656 93.6959 72.2509 94.103C72.1397 94.4974 72.0066 94.6369 71.9201 94.698L73.0734 96.332C73.6499 95.9251 73.9848 95.3236 74.1759 94.6455C74.3634 93.9801 74.4328 93.1724 74.4328 92.239H72.4328ZM71.8771 94.7301C71.4599 95.0595 71.0323 95.217 68.0118 95.217V97.217C70.8413 97.217 72.0517 97.1405 73.1164 96.2999L71.8771 94.7301ZM68.0118 95.217C65.9438 95.217 64.8974 95.1826 64.2849 95.0496C64.0099 94.9899 63.8944 94.9234 63.8338 94.8774C63.7701 94.8291 63.6926 94.7474 63.5681 94.5372L61.8475 95.5568C62.0349 95.8731 62.2694 96.201 62.625 96.4707C62.9836 96.7428 63.3946 96.9029 63.8606 97.0041C64.7301 97.1929 66.0237 97.217 68.0118 97.217V95.217ZM63.5473 94.5037C63.2952 94.1142 63.1618 93.7293 63.1618 91.771H61.1618C61.1618 93.7127 61.2623 94.6538 61.8682 95.5903L63.5473 94.5037ZM62.1618 90.771H57.3648V92.771H62.1618V90.771ZM56.3649 91.7899C56.404 93.8577 56.4428 94.7207 56.6975 95.9516L58.656 95.5464C58.4427 94.5153 58.4036 93.8183 58.3646 91.7521L56.3649 91.7899ZM56.6962 95.9451C57.0131 97.5295 57.9671 99.0472 59.2293 99.8045L60.2583 98.0895C59.5705 97.6768 58.8865 96.6985 58.6573 95.5529L56.6962 95.9451ZM59.235 99.8079C61.2068 100.973 63.055 101.234 67.7778 101.234V99.234C63.0625 99.234 61.7127 98.9489 60.2525 98.0861L59.235 99.8079ZM67.7778 101.234C73.1598 101.234 75.5597 100.839 77.4459 99L76.0497 97.568C74.8158 98.771 73.2377 99.234 67.7778 99.234V101.234ZM77.4549 98.9911C78.8891 97.5569 79.3468 95.4352 79.3468 92.161H77.3468C77.3468 95.3608 76.8684 96.7491 76.0407 97.5769L77.4549 98.9911ZM79.3468 92.161C79.3468 90.4688 79.2106 89.1202 78.8144 88.0236C78.4013 86.88 77.7251 86.0624 76.7657 85.4072L75.6378 87.0588C76.2774 87.4956 76.6738 87.9845 76.9334 88.7031C77.21 89.4688 77.3468 90.5382 77.3468 92.161H79.3468ZM76.7854 85.421C75.2626 84.3265 73.4705 84.061 69.1661 83.7919L69.0414 85.7881C73.473 86.065 74.6449 86.3455 75.6181 87.045L76.7854 85.421ZM69.1614 83.7917C65.0154 83.5525 64.9527 83.5545 64.4329 83.4016L63.8686 85.3204C64.6748 85.5575 65.0801 85.5595 69.0462 85.7883L69.1614 83.7917ZM64.449 83.4065C64.0107 83.2695 63.8223 83.0957 63.7013 82.8755C63.5502 82.6002 63.4348 82.1213 63.4348 81.241H61.4348C61.4348 82.2327 61.5533 83.1188 61.9482 83.838C62.3733 84.6123 63.0429 85.0625 63.8525 85.3155L64.449 83.4065ZM63.4348 81.241C63.4348 79.795 63.6812 79.4172 64.024 79.2022C64.2614 79.0533 64.6584 78.9137 65.3488 78.8208C66.0322 78.7288 66.9217 78.692 68.0898 78.692V76.692C66.8984 76.692 65.9012 76.7284 65.0819 76.8387C64.2695 76.948 63.5478 77.14 62.9613 77.5078C61.6563 78.3263 61.4348 79.723 61.4348 81.241H63.4348ZM68.0898 78.692C69.0796 78.692 69.8227 78.7287 70.3871 78.8161C70.955 78.904 71.2608 79.0319 71.435 79.1556C71.6978 79.3423 71.9258 79.7105 71.9258 81.124H73.9258C73.9258 79.6905 73.7442 78.3427 72.5932 77.5251C72.0606 77.1467 71.4084 76.9504 70.693 76.8397C69.9741 76.7284 69.1084 76.692 68.0898 76.692V78.692ZM71.9258 81.124V81.592H73.9258V81.124H71.9258ZM72.9258 82.592H77.7228V80.592H72.9258V82.592ZM103.26 81.592V82.592H104.26V81.592H103.26ZM101.778 75.703L101.032 76.3686L101.033 76.3705L101.778 75.703ZM85.0469 75.313L85.6324 76.1237L85.6412 76.1173L85.65 76.1107L85.0469 75.313ZM85.8659 87.793L85.4254 88.6908L85.4327 88.6944L85.4401 88.6978L85.8659 87.793ZM92.5739 88.846L92.6368 87.848L92.6352 87.8479L92.5739 88.846ZM97.5269 89.353L97.1758 90.2893L97.1931 90.2958L97.2106 90.3017L97.5269 89.353ZM98.0339 95.515L97.4572 94.698L97.4353 94.7135L97.4142 94.7301L98.0339 95.515ZM88.2449 95.047L89.1052 94.5372L89.0951 94.5203L89.0844 94.5037L88.2449 95.047ZM87.6989 91.771H88.6989V90.771H87.6989V91.771ZM82.9019 91.771V90.771H81.8828L81.902 91.7899L82.9019 91.771ZM83.2139 95.749L84.1945 95.5529L84.1931 95.5464L83.2139 95.749ZM85.2809 98.947L84.7664 99.8045L84.7721 99.8079L85.2809 98.947ZM102.285 98.284L102.983 99.0001L102.992 98.9911L102.285 98.284ZM101.739 86.233L101.155 87.045L101.165 87.052L101.175 87.0588L101.739 86.233ZM94.6409 84.79L94.7032 83.7919L94.6985 83.7917L94.6409 84.79ZM89.6879 84.361L89.3896 85.3155L89.3976 85.318L89.4057 85.3204L89.6879 84.361ZM98.4629 81.592H97.4629V82.592H98.4629V81.592ZM104.26 81.592V80.656H102.26V81.592H104.26ZM104.26 80.656C104.26 78.2643 103.765 76.4214 102.522 75.0355L101.033 76.3705C101.819 77.2466 102.26 78.5237 102.26 80.656H104.26ZM102.524 75.0374C100.904 73.2203 98.338 72.753 93.5099 72.753V74.753C98.4317 74.753 100.078 75.2997 101.032 76.3686L102.524 75.0374ZM93.5099 72.753C88.7004 72.753 86.3425 73.0797 84.4438 74.5153L85.65 76.1107C86.9493 75.1283 88.6473 74.753 93.5099 74.753V72.753ZM84.4614 74.5023C82.6504 75.8103 81.9799 78.1556 81.9799 81.319H83.9799C83.9799 78.3204 84.6354 76.8437 85.6324 76.1237L84.4614 74.5023ZM81.9799 81.319C81.9799 83.1708 82.1881 84.6979 82.7338 85.927C83.2978 87.1977 84.1943 88.0868 85.4254 88.6908L86.3063 86.8952C85.4705 86.4852 84.9239 85.9313 84.5617 85.1155C84.1811 84.2581 83.9799 83.0552 83.9799 81.319H81.9799ZM85.4401 88.6978C86.9674 89.4166 88.0981 89.5731 92.5126 89.8441L92.6352 87.8479C88.1576 87.5729 87.4164 87.4174 86.2917 86.8882L85.4401 88.6978ZM92.5109 89.844C94.6892 89.9814 95.7439 90.0481 96.3379 90.1089C96.6294 90.1388 96.7731 90.1638 96.8658 90.186C96.9531 90.2069 97.0162 90.2295 97.1758 90.2893L97.878 88.4167C97.7256 88.3595 97.5546 88.2944 97.3311 88.2409C97.1131 88.1887 96.8692 88.1529 96.5416 88.1193C95.8974 88.0534 94.7876 87.9836 92.6368 87.848L92.5109 89.844ZM97.2106 90.3017C97.5191 90.4045 97.6515 90.5345 97.7469 90.7276C97.8729 90.9821 97.9699 91.4295 97.9699 92.239H99.9699C99.9699 91.3325 99.8718 90.5124 99.5396 89.8407C99.1768 89.1074 98.5877 88.6525 97.8431 88.4043L97.2106 90.3017ZM97.9699 92.239C97.9699 93.0996 97.9027 93.6959 97.788 94.103C97.6768 94.4974 97.5438 94.6369 97.4572 94.698L98.6106 96.332C99.187 95.9251 99.5219 95.3236 99.713 94.6455C99.9005 93.9801 99.9699 93.1724 99.9699 92.239H97.9699ZM97.4142 94.7301C96.997 95.0595 96.5694 95.217 93.5489 95.217V97.217C96.3784 97.217 97.5888 97.1405 98.6535 96.2999L97.4142 94.7301ZM93.5489 95.217C91.4809 95.217 90.4345 95.1826 89.822 95.0496C89.547 94.9899 89.4315 94.9234 89.3709 94.8774C89.3072 94.8291 89.2297 94.7474 89.1052 94.5372L87.3846 95.5568C87.572 95.8731 87.8065 96.201 88.1621 96.4707C88.5207 96.7428 88.9318 96.9029 89.3977 97.0041C90.2672 97.1929 91.5609 97.217 93.5489 97.217V95.217ZM89.0844 94.5037C88.8324 94.1142 88.6989 93.7293 88.6989 91.771H86.6989C86.6989 93.7127 86.7994 94.6538 87.4053 95.5903L89.0844 94.5037ZM87.6989 90.771H82.9019V92.771H87.6989V90.771ZM81.902 91.7899C81.9411 93.8577 81.9799 94.7207 82.2346 95.9516L84.1931 95.5464C83.9798 94.5153 83.9407 93.8183 83.9017 91.7521L81.902 91.7899ZM82.2333 95.9451C82.5502 97.5295 83.5042 99.0472 84.7664 99.8045L85.7954 98.0895C85.1076 97.6768 84.4236 96.6985 84.1945 95.5529L82.2333 95.9451ZM84.7721 99.8079C86.7439 100.973 88.5921 101.234 93.3149 101.234V99.234C88.5996 99.234 87.2498 98.9489 85.7896 98.0861L84.7721 99.8079ZM93.3149 101.234C98.6969 101.234 101.097 100.839 102.983 99L101.587 97.568C100.353 98.771 98.7748 99.234 93.3149 99.234V101.234ZM102.992 98.9911C104.426 97.5569 104.884 95.4352 104.884 92.161H102.884C102.884 95.3608 102.406 96.7491 101.578 97.5769L102.992 98.9911ZM104.884 92.161C104.884 90.4688 104.748 89.1202 104.352 88.0236C103.938 86.88 103.262 86.0624 102.303 85.4072L101.175 87.0588C101.815 87.4956 102.211 87.9845 102.47 88.7031C102.747 89.4688 102.884 90.5382 102.884 92.161H104.884ZM102.323 85.421C100.8 84.3265 99.0076 84.061 94.7032 83.7919L94.5785 85.7881C99.0101 86.065 100.182 86.3455 101.155 87.045L102.323 85.421ZM94.6985 83.7917C90.5525 83.5525 90.4898 83.5545 89.97 83.4016L89.4057 85.3204C90.2119 85.5575 90.6173 85.5595 94.5833 85.7883L94.6985 83.7917ZM89.9861 83.4065C89.5478 83.2695 89.3594 83.0957 89.2384 82.8755C89.0873 82.6002 88.9719 82.1213 88.9719 81.241H86.9719C86.9719 82.2327 87.0905 83.1188 87.4853 83.838C87.9104 84.6123 88.58 85.0625 89.3896 85.3155L89.9861 83.4065ZM88.9719 81.241C88.9719 79.795 89.2183 79.4172 89.5611 79.2022C89.7985 79.0533 90.1955 78.9137 90.8859 78.8208C91.5693 78.7288 92.4588 78.692 93.6269 78.692V76.692C92.4355 76.692 91.4383 76.7284 90.619 76.8387C89.8066 76.948 89.0849 77.14 88.4984 77.5078C87.1934 78.3263 86.9719 79.723 86.9719 81.241H88.9719ZM93.6269 78.692C94.6167 78.692 95.3598 78.7287 95.9242 78.8161C96.4921 78.904 96.7979 79.0319 96.9721 79.1556C97.2349 79.3423 97.4629 79.7105 97.4629 81.124H99.4629C99.4629 79.6905 99.2813 78.3427 98.1304 77.5251C97.5977 77.1467 96.9455 76.9504 96.2301 76.8397C95.5112 76.7284 94.6455 76.692 93.6269 76.692V78.692ZM97.4629 81.124V81.592H99.4629V81.124H97.4629ZM98.4629 82.592H103.26V80.592H98.4629V82.592ZM114.333 73.987H115.333V72.987H114.333V73.987ZM109.341 73.987V72.987H108.341V73.987H109.341ZM109.341 100H108.341V101H109.341V100ZM114.333 100V101H115.333V100H114.333ZM114.333 72.987H109.341V74.987H114.333V72.987ZM108.341 73.987V100H110.341V73.987H108.341ZM109.341 101H114.333V99H109.341V101ZM115.333 100V73.987H113.333V100H115.333ZM126.36 74.104L126.556 75.0846L126.571 75.0817L126.585 75.0784L126.36 74.104ZM121.524 77.146L120.682 76.6063L120.679 76.6114L121.524 77.146ZM120.276 93.37L119.289 93.5292L119.289 93.5301L120.276 93.37ZM123.864 99.064L123.384 99.9413L123.391 99.9452L123.864 99.064ZM136.929 99.883L136.733 98.9024L136.723 98.9045L136.712 98.9068L136.929 99.883ZM141.921 96.646L142.789 97.1422L142.794 97.1346L141.921 96.646ZM142.974 80.578L141.988 80.7424V80.7424L142.974 80.578ZM138.801 74.611L139.211 73.6991L139.196 73.6922L139.181 73.6858L138.801 74.611ZM125.112 83.815L124.112 83.7998L124.112 83.8074V83.815H125.112ZM126.36 79.057L127.051 79.7804L127.059 79.7723L127.067 79.7641L126.36 79.057ZM136.149 78.472L136.552 77.5567L136.54 77.5514L136.528 77.5465L136.149 78.472ZM137.982 81.397L136.994 81.5491L136.995 81.5562L137.982 81.397ZM137.67 93.643L136.73 93.3012L136.727 93.3092L137.67 93.643ZM126.243 94.891L125.484 95.5418L125.486 95.5446L126.243 94.891ZM131.859 72.753C129.53 72.753 127.276 72.8664 126.135 73.1296L126.585 75.0784C127.473 74.8736 129.509 74.753 131.859 74.753V72.753ZM126.164 73.1234C123.806 73.5949 121.831 74.8145 120.682 76.6063L122.366 77.6857C123.167 76.4355 124.624 75.4711 126.556 75.0846L126.164 73.1234ZM120.679 76.6114C119.29 78.8075 119.042 81.0232 119.042 87.676H121.042C121.042 80.9128 121.341 79.3065 122.369 77.6806L120.679 76.6114ZM119.042 87.676C119.042 90.8982 119.079 92.2275 119.289 93.5292L121.263 93.2108C121.083 92.0945 121.042 90.9278 121.042 87.676H119.042ZM119.289 93.5301C119.536 95.0552 119.95 96.3366 120.624 97.4079C121.306 98.4915 122.221 99.3049 123.384 99.9413L124.344 98.1867C123.44 97.6921 122.795 97.1015 122.317 96.3423C121.831 95.5709 121.484 94.5708 121.263 93.2099L119.289 93.5301ZM123.391 99.9452C125.224 100.929 127.392 101.234 131.274 101.234V99.234C127.434 99.234 125.702 98.9152 124.337 98.1828L123.391 99.9452ZM131.274 101.234C133.802 101.234 135.972 101.12 137.146 100.859L136.712 98.9068C135.78 99.1139 133.816 99.234 131.274 99.234V101.234ZM137.125 100.864C139.677 100.353 141.677 99.0882 142.789 97.1421L141.053 96.1499C140.293 97.4797 138.861 98.4768 136.733 98.9024L137.125 100.864ZM142.794 97.1346C144.032 94.9234 144.247 92.9445 144.247 86.74H142.247C142.247 93.0155 141.994 94.4686 141.049 96.1574L142.794 97.1346ZM144.247 86.74C144.247 83.2743 144.171 81.6758 143.961 80.4136L141.988 80.7424C142.167 81.8202 142.247 83.2637 142.247 86.74H144.247ZM143.961 80.4136C143.69 78.7883 143.189 77.4079 142.394 76.2743C141.593 75.1324 140.528 74.2915 139.211 73.6991L138.391 75.5229C139.414 75.9835 140.183 76.6051 140.756 77.4229C141.336 78.2491 141.752 79.3257 141.988 80.7424L143.961 80.4136ZM139.181 73.6858C137.468 72.983 135.584 72.753 131.859 72.753V74.753C135.544 74.753 137.093 74.991 138.422 75.5362L139.181 73.6858ZM126.112 83.8301C126.151 81.2568 126.519 80.2879 127.051 79.7804L125.67 78.3336C124.485 79.4641 124.151 81.2252 124.112 83.7998L126.112 83.8301ZM127.067 79.7641C127.547 79.2845 128.148 79.043 131.391 79.043V77.043C128.316 77.043 126.811 77.1915 125.653 78.3499L127.067 79.7641ZM131.391 79.043C134.369 79.043 135.13 79.1354 135.77 79.3975L136.528 77.5465C135.452 77.1065 134.264 77.043 131.391 77.043V79.043ZM135.746 79.3873C136.291 79.627 136.789 80.2157 136.994 81.5491L138.97 81.2449C138.708 79.5363 137.957 78.175 136.552 77.5567L135.746 79.3873ZM136.995 81.5562C137.175 82.67 137.177 82.6998 137.177 86.818H139.177C139.177 82.7462 139.18 82.542 138.969 81.2378L136.995 81.5562ZM137.177 86.818C137.177 91.7534 137.125 92.2156 136.73 93.3013L138.61 93.9847C139.151 92.4964 139.177 91.6326 139.177 86.818H137.177ZM136.727 93.3092C136.456 94.0769 136.182 94.3733 135.703 94.5716C135.087 94.8266 134.06 94.944 132.132 94.944V96.944C134.026 96.944 135.436 96.8469 136.468 96.4194C137.637 95.9352 138.222 95.0811 138.613 93.9768L136.727 93.3092ZM132.132 94.944C130.134 94.944 128.931 94.893 128.148 94.7545C127.417 94.6253 127.177 94.4421 127 94.2374L125.486 95.5446C126.05 96.1979 126.766 96.5412 127.8 96.724C128.781 96.8975 130.152 96.944 132.132 96.944V94.944ZM127.002 94.2402C126.667 93.8484 126.453 93.4572 126.313 92.6165C126.163 91.7107 126.112 90.358 126.112 88.066H124.112C124.112 90.337 124.159 91.8508 124.34 92.9437C124.532 94.1018 124.884 94.8416 125.484 95.5418L127.002 94.2402ZM126.112 88.066V83.815H124.112V88.066H126.112ZM173.092 73.987H174.092V72.987H173.092V73.987ZM168.139 73.987V72.987H167.139V73.987H168.139ZM168.295 95.671V96.671H169.331L169.294 95.6359L168.295 95.671ZM168.139 95.671L167.231 96.0901L167.499 96.671H168.139V95.671ZM166.735 92.707L165.83 93.1334L165.833 93.1397L166.735 92.707ZM164.083 87.169L164.973 86.7135L164.972 86.7113L164.083 87.169ZM157.297 73.987L158.186 73.5293L157.907 72.987H157.297V73.987ZM148.951 73.987V72.987H147.951V73.987H148.951ZM148.951 100H147.951V101H148.951V100ZM153.865 100V101H154.865V100H153.865ZM153.709 78.277V77.277H152.674L152.71 78.3115L153.709 78.277ZM153.865 78.277L154.779 77.8714L154.515 77.277H153.865V78.277ZM157.258 85.726L156.363 86.1732L156.367 86.181L156.371 86.1886L157.258 85.726ZM164.707 100L163.82 100.463L164.101 101H164.707V100ZM173.092 100V101H174.092V100H173.092ZM173.092 72.987H168.139V74.987H173.092V72.987ZM167.139 73.987V88.963H169.139V73.987H167.139ZM167.139 88.963C167.139 91.2431 167.139 91.2572 167.296 95.7061L169.294 95.6359C169.138 91.1928 169.139 91.2069 169.139 88.963H167.139ZM168.295 94.671H168.139V96.671H168.295V94.671ZM169.047 95.2519C168.575 94.23 168.104 93.2483 167.636 92.2743L165.833 93.1397C166.302 94.1157 166.767 95.084 167.231 96.0901L169.047 95.2519ZM167.639 92.2806C166.36 89.5658 165.841 88.4096 164.973 86.7135L163.193 87.6245C164.041 89.2824 164.536 90.3882 165.83 93.1334L167.639 92.2806ZM164.972 86.7113L158.186 73.5293L156.408 74.4447L163.194 87.6267L164.972 86.7113ZM157.297 72.987H148.951V74.987H157.297V72.987ZM147.951 73.987V100H149.951V73.987H147.951ZM148.951 101H153.865V99H148.951V101ZM154.865 100V85.063H152.865V100H154.865ZM154.865 85.063C154.865 82.7831 154.864 82.7691 154.708 78.2425L152.71 78.3115C152.865 82.8329 152.865 82.8189 152.865 85.063H154.865ZM153.709 79.277H153.865V77.277H153.709V79.277ZM152.951 78.6826C155.562 84.5663 155.649 84.7446 156.363 86.1732L158.152 85.2788C157.463 83.8994 157.394 83.7657 154.779 77.8714L152.951 78.6826ZM156.371 86.1886L163.82 100.463L165.593 99.5374L158.144 85.2634L156.371 86.1886ZM164.707 101H173.092V99H164.707V101ZM174.092 100V73.987H172.092V100H174.092ZM18.5202 129.718V128.718H17.4404L17.5232 129.795L18.5202 129.718ZM6.74224 121.645L7.74052 121.704L7.74109 121.694L7.74147 121.684L6.74224 121.645ZM7.75624 118.057L7.06749 117.332L7.0582 117.341L7.04914 117.35L7.75624 118.057ZM18.2862 121.645L17.2864 121.664L17.3048 122.645H18.2862V121.645ZM23.2392 121.645V122.645H24.2612L24.239 121.623L23.2392 121.645ZM23.0832 118.447L22.0907 118.569L22.091 118.571L23.0832 118.447ZM21.0942 114.235L21.745 113.476L21.7432 113.474L21.0942 114.235ZM3.77824 115.054L4.4691 115.777L4.47077 115.775L3.77824 115.054ZM1.71124 131.2L2.70855 131.127L2.70814 131.121L1.71124 131.2ZM5.22124 138.064L5.71525 137.195L5.70402 137.188L5.69262 137.182L5.22124 138.064ZM18.0522 139L18.1937 139.99L18.216 139.987L18.2381 139.983L18.0522 139ZM21.6792 137.284L20.9926 136.557L20.9896 136.56L21.6792 137.284ZM23.4732 129.718H24.4732V128.718H23.4732V129.718ZM17.5232 129.795C17.5592 130.263 17.5592 130.584 17.5592 130.81H19.5592C19.5592 130.568 19.5593 130.187 19.5173 129.641L17.5232 129.795ZM17.5592 130.81C17.5592 132.591 17.3077 133.104 16.9224 133.374C16.6842 133.541 16.281 133.698 15.555 133.802C14.8348 133.905 13.8889 133.944 12.6312 133.944V135.944C13.9086 135.944 14.9712 135.905 15.8378 135.782C16.6987 135.659 17.4605 135.44 18.0706 135.012C19.3817 134.093 19.5592 132.539 19.5592 130.81H17.5592ZM12.6312 133.944C11.2232 133.944 10.2646 133.906 9.57259 133.75C8.93262 133.605 8.62618 133.383 8.41361 133.057C8.1587 132.666 7.9572 132 7.84066 130.785C7.72589 129.587 7.70324 127.999 7.70324 125.857H5.70324C5.70324 127.986 5.72447 129.668 5.84979 130.976C5.97335 132.264 6.20816 133.336 6.73812 134.149C7.31043 135.027 8.13743 135.476 9.1318 135.701C10.0742 135.914 11.2508 135.944 12.6312 135.944V133.944ZM7.70324 125.857C7.70324 122.292 7.7037 122.33 7.74052 121.704L5.74397 121.586C5.70278 122.286 5.70324 122.324 5.70324 125.857H7.70324ZM7.74147 121.684C7.81848 119.721 8.09112 119.136 8.46335 118.764L7.04914 117.35C6.09536 118.304 5.82201 119.591 5.74301 121.606L7.74147 121.684ZM8.44499 118.782C8.64112 118.596 8.98568 118.398 9.75592 118.256C10.5352 118.112 11.6496 118.043 13.2942 118.043V116.043C11.6238 116.043 10.3593 116.111 9.39332 116.289C8.4183 116.468 7.65136 116.777 7.06749 117.332L8.44499 118.782ZM13.2942 118.043C14.4066 118.043 15.1988 118.071 15.7836 118.163C16.3648 118.255 16.6175 118.392 16.7506 118.515C16.8755 118.63 17.015 118.842 17.1176 119.36C17.2229 119.891 17.2669 120.62 17.2864 121.664L19.2861 121.626C19.2666 120.584 19.2229 119.694 19.0795 118.971C18.9335 118.235 18.6635 117.558 18.1059 117.044C17.5565 116.537 16.8537 116.307 16.0943 116.187C15.3384 116.069 14.4049 116.043 13.2942 116.043V118.043ZM18.2862 122.645H23.2392V120.645H18.2862V122.645ZM24.239 121.623C24.2001 119.835 24.1608 119.005 24.0755 118.323L22.091 118.571C22.1617 119.137 22.2004 119.867 22.2395 121.667L24.239 121.623ZM24.0758 118.325C23.8204 116.239 23.0756 114.616 21.745 113.476L20.4435 114.994C21.2969 115.726 21.8781 116.833 22.0907 118.569L24.0758 118.325ZM21.7432 113.474C20.1099 112.081 18.1198 111.753 13.9962 111.753V113.753C18.1407 113.753 19.4265 114.127 20.4453 114.996L21.7432 113.474ZM13.9962 111.753C10.8407 111.753 8.67192 111.857 7.03033 112.226C5.32191 112.609 4.18537 113.277 3.08571 114.333L4.47077 115.775C5.32112 114.959 6.13457 114.476 7.46816 114.177C8.86856 113.863 10.8338 113.753 13.9962 113.753V111.753ZM3.08738 114.331C0.999815 116.326 0.516242 118.719 0.516242 124.141H2.51624C2.51624 118.721 3.04667 117.136 4.4691 115.777L3.08738 114.331ZM0.516242 124.141C0.516242 126.526 0.594152 129.756 0.714344 131.279L2.70814 131.121C2.59433 129.68 2.51624 126.514 2.51624 124.141H0.516242ZM0.713946 131.273C0.854902 133.186 1.18243 134.751 1.82912 136.022C2.4911 137.322 3.45571 138.254 4.74987 138.946L5.69262 137.182C4.72478 136.665 4.07089 136.017 3.61162 135.114C3.13705 134.182 2.84058 132.919 2.70854 131.127L0.713946 131.273ZM4.72723 138.933C5.67281 139.471 6.51752 139.81 7.73145 140.002C8.89656 140.187 10.3937 140.234 12.6312 140.234V138.234C10.3838 138.234 9.03392 138.184 8.04429 138.027C7.10346 137.878 6.48568 137.632 5.71525 137.195L4.72723 138.933ZM12.6312 140.234C14.9393 140.234 17.3001 140.118 18.1937 139.99L17.9108 138.01C17.1664 138.116 14.9252 138.234 12.6312 138.234V140.234ZM18.2381 139.983C19.8285 139.682 21.3824 138.948 22.3689 138.008L20.9896 136.56C20.3381 137.18 19.162 137.772 17.8664 138.017L18.2381 139.983ZM22.3659 138.011C23.1916 137.231 23.7437 136.381 24.0684 135.175C24.3781 134.024 24.4732 132.575 24.4732 130.615H22.4732C22.4732 132.555 22.3734 133.777 22.1371 134.655C21.9158 135.477 21.5708 136.011 20.9926 136.557L22.3659 138.011ZM24.4732 130.615V129.718H22.4732V130.615H24.4732ZM23.4732 128.718H18.5202V130.718H23.4732V128.718ZM34.3616 113.104L34.5577 114.085L34.5721 114.082L34.5864 114.078L34.3616 113.104ZM29.5256 116.146L28.6837 115.606L28.6805 115.611L29.5256 116.146ZM28.2776 132.37L27.2903 132.529L27.2905 132.53L28.2776 132.37ZM31.8656 138.064L31.3856 138.941L31.3928 138.945L31.8656 138.064ZM44.9306 138.883L44.7345 137.902L44.724 137.905L44.7137 137.907L44.9306 138.883ZM49.9226 135.646L50.7909 136.142L50.7951 136.135L49.9226 135.646ZM50.9756 119.578L49.9892 119.742V119.742L50.9756 119.578ZM46.8026 113.611L47.213 112.699L47.1977 112.692L47.1821 112.686L46.8026 113.611ZM33.1136 122.815L32.1137 122.8L32.1136 122.807V122.815H33.1136ZM34.3616 118.057L35.0521 118.78L35.0605 118.772L35.0687 118.764L34.3616 118.057ZM44.1506 117.472L44.5533 116.557L44.5413 116.551L44.5292 116.546L44.1506 117.472ZM45.9836 120.397L44.9952 120.549L44.9963 120.556L45.9836 120.397ZM45.6716 132.643L44.7318 132.301L44.729 132.309L45.6716 132.643ZM34.2446 133.891L33.4853 134.542L33.4878 134.545L34.2446 133.891ZM39.8606 111.753C37.5311 111.753 35.2771 111.866 34.1367 112.13L34.5864 114.078C35.4741 113.874 37.5101 113.753 39.8606 113.753V111.753ZM34.1655 112.123C31.8079 112.595 29.8323 113.815 28.6837 115.606L30.3675 116.686C31.1689 115.435 32.6253 114.471 34.5577 114.085L34.1655 112.123ZM28.6805 115.611C27.2911 117.808 27.0436 120.023 27.0436 126.676H29.0436C29.0436 119.913 29.3421 118.306 30.3707 116.681L28.6805 115.611ZM27.0436 126.676C27.0436 129.898 27.0804 131.228 27.2903 132.529L29.2648 132.211C29.0848 131.094 29.0436 129.928 29.0436 126.676H27.0436ZM27.2905 132.53C27.5378 134.055 27.9512 135.337 28.6257 136.408C29.308 137.491 30.2225 138.305 31.3856 138.941L32.3456 137.187C31.4416 136.692 30.7962 136.102 30.3182 135.342C29.8325 134.571 29.4854 133.571 29.2647 132.21L27.2905 132.53ZM31.3928 138.945C33.2259 139.929 35.3938 140.234 39.2756 140.234V138.234C35.4353 138.234 33.7033 137.915 32.3384 137.183L31.3928 138.945ZM39.2756 140.234C41.8036 140.234 43.9736 140.12 45.1475 139.859L44.7137 137.907C43.7816 138.114 41.8176 138.234 39.2756 138.234V140.234ZM45.1267 139.864C47.6787 139.353 49.6788 138.088 50.7908 136.142L49.0543 135.15C48.2944 136.48 46.8624 137.477 44.7345 137.902L45.1267 139.864ZM50.7951 136.135C52.0334 133.923 52.2486 131.945 52.2486 125.74H50.2486C50.2486 132.015 49.9958 133.469 49.0501 135.157L50.7951 136.135ZM52.2486 125.74C52.2486 122.274 52.1723 120.676 51.962 119.414L49.9892 119.742C50.1688 120.82 50.2486 122.264 50.2486 125.74H52.2486ZM51.962 119.414C51.6911 117.788 51.1903 116.408 50.3951 115.274C49.594 114.132 48.5295 113.292 47.213 112.699L46.3922 114.523C47.4157 114.983 48.1841 115.605 48.7578 116.423C49.3373 117.249 49.7531 118.326 49.9892 119.742L51.962 119.414ZM47.1821 112.686C45.469 111.983 43.5853 111.753 39.8606 111.753V113.753C43.5459 113.753 45.0941 113.991 46.423 114.536L47.1821 112.686ZM34.1135 122.83C34.1525 120.257 34.5204 119.288 35.0521 118.78L33.6711 117.334C32.4868 118.464 32.1527 120.225 32.1137 122.8L34.1135 122.83ZM35.0687 118.764C35.5483 118.284 36.1499 118.043 39.3926 118.043V116.043C36.3173 116.043 34.8129 116.192 33.6545 117.35L35.0687 118.764ZM39.3926 118.043C42.3702 118.043 43.1313 118.135 43.772 118.398L44.5292 116.546C43.4539 116.107 42.265 116.043 39.3926 116.043V118.043ZM43.7478 118.387C44.2926 118.627 44.7901 119.216 44.9952 120.549L46.972 120.245C46.7091 118.536 45.9586 117.175 44.5533 116.557L43.7478 118.387ZM44.9963 120.556C45.176 121.67 45.1786 121.7 45.1786 125.818H47.1786C47.1786 121.746 47.1812 121.542 46.9708 120.238L44.9963 120.556ZM45.1786 125.818C45.1786 130.753 45.1266 131.216 44.7318 132.301L46.6114 132.985C47.1526 131.496 47.1786 130.633 47.1786 125.818H45.1786ZM44.729 132.309C44.4571 133.077 44.1832 133.373 43.7045 133.572C43.0888 133.827 42.0618 133.944 40.1336 133.944V135.944C42.0274 135.944 43.4378 135.847 44.4699 135.419C45.6389 134.935 46.2231 134.081 46.6142 132.977L44.729 132.309ZM40.1336 133.944C38.1353 133.944 36.9328 133.893 36.1493 133.755C35.4183 133.625 35.1782 133.442 35.0014 133.237L33.4878 134.545C34.0519 135.198 34.7674 135.541 35.8011 135.724C36.7823 135.897 38.1539 135.944 40.1336 135.944V133.944ZM35.0038 133.24C34.668 132.848 34.454 132.457 34.3146 131.617C34.1644 130.711 34.1136 129.358 34.1136 127.066H32.1136C32.1136 129.337 32.1603 130.851 32.3416 131.944C32.5336 133.102 32.8852 133.842 33.4853 134.542L35.0038 133.24ZM34.1136 127.066V122.815H32.1136V127.066H34.1136ZM81.0934 112.987H82.0934V111.987H81.0934V112.987ZM76.1404 112.987V111.987H75.1404V112.987H76.1404ZM76.2964 134.671V135.671H77.3321L77.2958 134.636L76.2964 134.671ZM76.1404 134.671L75.2324 135.09L75.5005 135.671H76.1404V134.671ZM74.7364 131.707L73.8318 132.133L73.8348 132.14L74.7364 131.707ZM72.0844 126.169L72.9746 125.714L72.9735 125.711L72.0844 126.169ZM65.2984 112.987L66.1875 112.529L65.9083 111.987H65.2984V112.987ZM56.9524 112.987V111.987H55.9524V112.987H56.9524ZM56.9524 139H55.9524V140H56.9524V139ZM61.8664 139V140H62.8664V139H61.8664ZM61.7104 117.277V116.277H60.6753L60.711 117.311L61.7104 117.277ZM61.8664 117.277L62.7804 116.871L62.5167 116.277H61.8664V117.277ZM65.2594 124.726L64.3649 125.173L64.3688 125.181L64.3728 125.189L65.2594 124.726ZM72.7084 139L71.8218 139.463L72.1022 140H72.7084V139ZM81.0934 139V140H82.0934V139H81.0934ZM81.0934 111.987H76.1404V113.987H81.0934V111.987ZM75.1404 112.987V127.963H77.1404V112.987H75.1404ZM75.1404 127.963C75.1404 130.243 75.1409 130.257 75.297 134.706L77.2958 134.636C77.1399 130.193 77.1404 130.207 77.1404 127.963H75.1404ZM76.2964 133.671H76.1404V135.671H76.2964V133.671ZM77.0483 134.252C76.5767 133.23 76.1054 132.248 75.6379 131.274L73.8348 132.14C74.3033 133.116 74.7681 134.084 75.2324 135.09L77.0483 134.252ZM75.6409 131.281C74.3611 128.566 73.8424 127.41 72.9746 125.714L71.1941 126.624C72.0424 128.282 72.5377 129.388 73.8318 132.133L75.6409 131.281ZM72.9735 125.711L66.1875 112.529L64.4093 113.445L71.1953 126.627L72.9735 125.711ZM65.2984 111.987H56.9524V113.987H65.2984V111.987ZM55.9524 112.987V139H57.9524V112.987H55.9524ZM56.9524 140H61.8664V138H56.9524V140ZM62.8664 139V124.063H60.8664V139H62.8664ZM62.8664 124.063C62.8664 121.783 62.8659 121.769 62.7098 117.243L60.711 117.311C60.8669 121.833 60.8664 121.819 60.8664 124.063H62.8664ZM61.7104 118.277H61.8664V116.277H61.7104V118.277ZM60.9523 117.683C63.563 123.566 63.6507 123.745 64.3649 125.173L66.1538 124.279C65.4641 122.899 65.3958 122.766 62.7804 116.871L60.9523 117.683ZM64.3728 125.189L71.8218 139.463L73.5949 138.537L66.1459 124.263L64.3728 125.189ZM72.7084 140H81.0934V138H72.7084V140ZM82.0934 139V112.987H80.0934V139H82.0934ZM98.2345 117.394V116.394H97.2345V117.394H98.2345ZM105.918 117.394V118.394H106.918V117.394H105.918ZM105.918 112.987H106.918V111.987H105.918V112.987ZM85.7155 112.987V111.987H84.7155V112.987H85.7155ZM85.7155 117.355H84.7155V118.355H85.7155V117.355ZM93.2425 117.355H94.2425V116.355H93.2425V117.355ZM93.2425 139H92.2425V140H93.2425V139ZM98.2345 139V140H99.2345V139H98.2345ZM98.2345 118.394H105.918V116.394H98.2345V118.394ZM106.918 117.394V112.987H104.918V117.394H106.918ZM105.918 111.987H85.7155V113.987H105.918V111.987ZM84.7155 112.987V117.355H86.7155V112.987H84.7155ZM85.7155 118.355H93.2425V116.355H85.7155V118.355ZM92.2425 117.355V139H94.2425V117.355H92.2425ZM93.2425 140H98.2345V138H93.2425V140ZM99.2345 139V117.394H97.2345V139H99.2345ZM110.578 139H109.578V140H110.578V139ZM115.57 139V140H116.57V139H115.57ZM115.57 130.342V129.342H114.57V130.342H115.57ZM125.554 131.161L126.241 130.434L126.23 130.424L126.219 130.414L125.554 131.161ZM126.49 139H125.49V140H126.49V139ZM131.521 139V140H132.521V139H131.521ZM127.114 128.275H126.114V129.212L127.05 129.273L127.114 128.275ZM127.114 128.08L126.922 127.099L126.114 127.257V128.08H127.114ZM110.578 112.987V111.987H109.578V112.987H110.578ZM115.57 126.091H114.57V127.091H115.57V126.091ZM115.57 117.277V116.277H114.57V117.277H115.57ZM125.71 125.311L125.081 124.534L125.054 124.556L125.028 124.58L125.71 125.311ZM110.578 140H115.57V138H110.578V140ZM116.57 139V130.342H114.57V139H116.57ZM115.57 131.342H122.59V129.342H115.57V131.342ZM122.59 131.342C123.343 131.342 123.801 131.391 124.128 131.481C124.421 131.563 124.639 131.686 124.89 131.908L126.219 130.414C125.767 130.012 125.283 129.726 124.661 129.554C124.071 129.391 123.398 129.342 122.59 129.342V131.342ZM124.868 131.888C125.258 132.257 125.49 132.753 125.49 134.32H127.49C127.49 132.611 127.254 131.391 126.241 130.434L124.868 131.888ZM125.49 134.32V139H127.49V134.32H125.49ZM126.49 140H131.521V138H126.49V140ZM132.521 139V133.345H130.521V139H132.521ZM132.521 133.345C132.521 131.583 132.146 130.086 131.198 128.998C130.237 127.895 128.84 127.385 127.179 127.277L127.05 129.273C128.391 129.36 129.198 129.747 129.69 130.312C130.195 130.891 130.521 131.831 130.521 133.345H132.521ZM128.114 128.275V128.08H126.114V128.275H128.114ZM127.307 129.061C129.267 128.677 130.79 128.07 131.716 126.619C132.587 125.254 132.794 123.329 132.794 120.748H130.794C130.794 123.354 130.553 124.724 130.03 125.543C129.562 126.276 128.745 126.742 126.922 127.099L127.307 129.061ZM132.794 120.748C132.794 117.767 132.254 115.459 130.614 113.952C128.998 112.468 126.555 111.987 123.37 111.987V113.987C126.465 113.987 128.234 114.481 129.26 115.425C130.262 116.345 130.794 117.918 130.794 120.748H132.794ZM123.37 111.987H110.578V113.987H123.37V111.987ZM109.578 112.987V139H111.578V112.987H109.578ZM116.57 126.091V117.277H114.57V126.091H116.57ZM115.57 118.277H122.902V116.277H115.57V118.277ZM122.902 118.277C124.543 118.277 125.038 118.491 125.261 118.746C125.376 118.877 125.503 119.115 125.594 119.599C125.685 120.088 125.724 120.745 125.724 121.645H127.724C127.724 120.712 127.686 119.907 127.56 119.232C127.433 118.554 127.205 117.929 126.764 117.427C125.876 116.414 124.459 116.277 122.902 116.277V118.277ZM125.724 121.645C125.724 122.756 125.672 123.387 125.56 123.801C125.466 124.143 125.336 124.327 125.081 124.534L126.34 126.088C126.903 125.632 127.28 125.094 127.489 124.325C127.679 123.628 127.724 122.757 127.724 121.645H125.724ZM125.028 124.58C124.746 124.843 124.088 125.091 122.551 125.091V127.091C124.135 127.091 125.504 126.871 126.393 126.042L125.028 124.58ZM122.551 125.091H115.57V127.091H122.551V125.091ZM143.023 113.104L143.219 114.085L143.233 114.082L143.248 114.078L143.023 113.104ZM138.187 116.146L137.345 115.606L137.342 115.611L138.187 116.146ZM136.939 132.37L135.951 132.529L135.952 132.53L136.939 132.37ZM140.527 138.064L140.047 138.941L140.054 138.945L140.527 138.064ZM153.592 138.883L153.396 137.902L153.385 137.905L153.375 137.907L153.592 138.883ZM158.584 135.646L159.452 136.142L159.456 136.135L158.584 135.646ZM159.637 119.578L158.65 119.742V119.742L159.637 119.578ZM155.464 113.611L155.874 112.699L155.859 112.692L155.843 112.686L155.464 113.611ZM141.775 122.815L140.775 122.8L140.775 122.807V122.815H141.775ZM143.023 118.057L143.713 118.78L143.722 118.772L143.73 118.764L143.023 118.057ZM152.812 117.472L153.214 116.557L153.202 116.551L153.19 116.546L152.812 117.472ZM154.645 120.397L153.656 120.549L153.657 120.556L154.645 120.397ZM154.333 132.643L153.393 132.301L153.39 132.309L154.333 132.643ZM142.906 133.891L142.146 134.542L142.149 134.545L142.906 133.891ZM148.522 111.753C146.192 111.753 143.938 111.866 142.798 112.13L143.248 114.078C144.135 113.874 146.171 113.753 148.522 113.753V111.753ZM142.827 112.123C140.469 112.595 138.493 113.815 137.345 115.606L139.029 116.686C139.83 115.435 141.286 114.471 143.219 114.085L142.827 112.123ZM137.342 115.611C135.952 117.808 135.705 120.023 135.705 126.676H137.705C137.705 119.913 138.003 118.306 139.032 116.681L137.342 115.611ZM135.705 126.676C135.705 129.898 135.742 131.228 135.951 132.529L137.926 132.211C137.746 131.094 137.705 129.928 137.705 126.676H135.705ZM135.952 132.53C136.199 134.055 136.612 135.337 137.287 136.408C137.969 137.491 138.884 138.305 140.047 138.941L141.007 137.187C140.103 136.692 139.457 136.102 138.979 135.342C138.494 134.571 138.147 133.571 137.926 132.21L135.952 132.53ZM140.054 138.945C141.887 139.929 144.055 140.234 147.937 140.234V138.234C144.096 138.234 142.364 137.915 141 137.183L140.054 138.945ZM147.937 140.234C150.465 140.234 152.635 140.12 153.809 139.859L153.375 137.907C152.443 138.114 150.479 138.234 147.937 138.234V140.234ZM153.788 139.864C156.34 139.353 158.34 138.088 159.452 136.142L157.715 135.15C156.956 136.48 155.524 137.477 153.396 137.902L153.788 139.864ZM159.456 136.135C160.695 133.923 160.91 131.945 160.91 125.74H158.91C158.91 132.015 158.657 133.469 157.711 135.157L159.456 136.135ZM160.91 125.74C160.91 122.274 160.833 120.676 160.623 119.414L158.65 119.742C158.83 120.82 158.91 122.264 158.91 125.74H160.91ZM160.623 119.414C160.352 117.788 159.851 116.408 159.056 115.274C158.255 114.132 157.191 113.292 155.874 112.699L155.053 114.523C156.077 114.983 156.845 115.605 157.419 116.423C157.998 117.249 158.414 118.326 158.65 119.742L160.623 119.414ZM155.843 112.686C154.13 111.983 152.246 111.753 148.522 111.753V113.753C152.207 113.753 153.755 113.991 155.084 114.536L155.843 112.686ZM142.775 122.83C142.814 120.257 143.182 119.288 143.713 118.78L142.332 117.334C141.148 118.464 140.814 120.225 140.775 122.8L142.775 122.83ZM143.73 118.764C144.209 118.284 144.811 118.043 148.054 118.043V116.043C144.978 116.043 143.474 116.192 142.316 117.35L143.73 118.764ZM148.054 118.043C151.031 118.043 151.792 118.135 152.433 118.398L153.19 116.546C152.115 116.107 150.926 116.043 148.054 116.043V118.043ZM152.409 118.387C152.954 118.627 153.451 119.216 153.656 120.549L155.633 120.245C155.37 118.536 154.62 117.175 153.214 116.557L152.409 118.387ZM153.657 120.556C153.837 121.67 153.84 121.7 153.84 125.818H155.84C155.84 121.746 155.842 121.542 155.632 120.238L153.657 120.556ZM153.84 125.818C153.84 130.753 153.788 131.216 153.393 132.301L155.273 132.985C155.814 131.496 155.84 130.633 155.84 125.818H153.84ZM153.39 132.309C153.118 133.077 152.844 133.373 152.366 133.572C151.75 133.827 150.723 133.944 148.795 133.944V135.944C150.689 135.944 152.099 135.847 153.131 135.419C154.3 134.935 154.884 134.081 155.275 132.977L153.39 132.309ZM148.795 133.944C146.796 133.944 145.594 133.893 144.81 133.755C144.079 133.625 143.839 133.442 143.663 133.237L142.149 134.545C142.713 135.198 143.429 135.541 144.462 135.724C145.443 135.897 146.815 135.944 148.795 135.944V133.944ZM143.665 133.24C143.329 132.848 143.115 132.457 142.976 131.617C142.826 130.711 142.775 129.358 142.775 127.066H140.775C140.775 129.337 140.821 130.851 141.003 131.944C141.195 133.102 141.546 133.842 142.146 134.542L143.665 133.24ZM142.775 127.066V122.815H140.775V127.066H142.775ZM170.605 112.987H171.605V111.987H170.605V112.987ZM165.613 112.987V111.987H164.613V112.987H165.613ZM165.613 139H164.613V140H165.613V139ZM182.734 139V140H183.734V139H182.734ZM182.734 134.632H183.734V133.632H182.734V134.632ZM170.605 134.632H169.605V135.632H170.605V134.632ZM170.605 111.987H165.613V113.987H170.605V111.987ZM164.613 112.987V139H166.613V112.987H164.613ZM165.613 140H182.734V138H165.613V140ZM183.734 139V134.632H181.734V139H183.734ZM182.734 133.632H170.605V135.632H182.734V133.632ZM171.605 134.632V112.987H169.605V134.632H171.605Z" fill="#B8ECE9"/>
<g clip-path="url(#clip0_1575_72351)">
<path d="M77.8573 48.525H64.2734L71.0646 36.7617" stroke="#B8ECE9" stroke-width="2" stroke-miterlimit="10"/>
<path d="M111.816 36.7617L118.607 48.525H105.023" stroke="#B8ECE9" stroke-width="2" stroke-miterlimit="10"/>
<path d="M84.6484 13.2338L91.4411 1.47058L98.2323 13.2338" stroke="#B8ECE9" stroke-width="2" stroke-miterlimit="10"/>
<path d="M98.2363 25.002H105.028L101.632 30.8843" stroke="#B8ECE9" stroke-width="2" stroke-miterlimit="10"/>
<path d="M81.2569 30.8843L77.8613 25.002H84.6525" stroke="#B8ECE9" stroke-width="2" stroke-miterlimit="10"/>
<path d="M94.8405 42.6476L91.4434 48.5299L88.0479 42.6476" stroke="#B8ECE9" stroke-width="2" stroke-miterlimit="10"/>
</g>
<defs>
<clipPath id="clip0_1575_72351">
<rect width="56.8809" height="50" fill="white" transform="translate(63)"/>
</clipPath>
</defs>
</svg>
