<svg width="191" height="165" viewBox="0 0 191 165" fill="none" xmlns="http://www.w3.org/2000/svg">
<path d="M0.299805 0H31.8785L69.5232 92.7736V0H90.2189V119H59.3538L20.9955 24.2639V119H0.299805V0Z" fill="white"/>
<path d="M111.862 98.4822H190.541V118.999H111.862V98.4822Z" fill="#FF0014"/>
<path d="M111.862 49.2419H190.541V69.7592H111.862V49.2419Z" fill="#FF0014"/>
<path d="M111.862 0H190.541V20.5172H111.862V0Z" fill="#FF0014"/>
<path d="M0 165H3.16725V150.67L9.03759 165H13.7612V147H10.5939V161.033L4.83279 147H0V165Z" fill="white"/>
<path d="M23.7081 165H35.7491V161.897H26.9845V157.552H35.7491V154.448H26.9845V150.103H35.7491V147H23.7081V165Z" fill="white"/>
<path d="M48.4496 165H51.7261V150.103H56.9684V147H43.2073V150.103H48.4496V165Z" fill="white"/>
<path d="M64.8048 165H76.8458V161.897H68.0813V157.552H76.8458V154.448H68.0813V150.103H76.8458V147H64.8048V165Z" fill="white"/>
<path d="M86.4064 165H89.6283V149.078L94.0515 165H97.6556L102.106 149.078V165H105.301V147H99.8126L95.9082 161.141L91.9764 147H86.4064V165Z" fill="white"/>
<path d="M115.261 165H118.537V157.957H125.609C126.128 157.957 126.564 157.795 126.947 157.417L128.448 155.933C128.831 155.555 129.022 155.096 129.022 154.583V150.373C129.022 149.834 128.831 149.402 128.448 149.024L126.947 147.54C126.592 147.189 126.155 147 125.636 147H115.261V165ZM118.537 154.88V150.103H124.435C124.599 150.103 124.708 150.157 124.817 150.265L125.581 151.021C125.691 151.129 125.745 151.237 125.745 151.399V153.585C125.745 153.747 125.691 153.855 125.581 153.963L124.817 154.718C124.708 154.826 124.599 154.88 124.435 154.88H118.537Z" fill="white"/>
<path d="M136.48 165H146.61V162.085H143.169V149.915H146.61V147H136.48V149.915H139.893V162.085H136.48V165Z" fill="white"/>
<path d="M155.024 165H158.301V157.957H161.004C161.195 157.957 161.359 157.984 161.468 158.145L166.41 165H170.123L164.936 157.957H165.372C166 157.957 166.437 157.687 166.71 157.417L168.212 155.933C168.594 155.555 168.785 155.096 168.785 154.583V150.373C168.785 149.834 168.594 149.402 168.212 149.024L166.71 147.54C166.355 147.189 165.918 147 165.4 147H155.024V165ZM158.301 154.88V150.076H164.171C164.335 150.076 164.444 150.13 164.553 150.238L165.345 151.021C165.454 151.129 165.509 151.237 165.509 151.399V153.585C165.509 153.747 165.454 153.855 165.345 153.963L164.581 154.718C164.471 154.826 164.362 154.88 164.198 154.88H158.301Z" fill="white"/>
<path d="M177.959 165H190V161.897H181.235V157.552H190V154.448H181.235V150.103H190V147H177.959V165Z" fill="white"/>
</svg>
