<svg width="206" height="24" viewBox="0 0 206 24" fill="none" xmlns="http://www.w3.org/2000/svg">
<g filter="url(#filter0_d_1_175285)">
<path d="M4 0.519963C4 0.479963 4 0.479963 4.0402 0.439963C4.0804 0.399963 4.0804 0.399963 4.1206 0.399963H21.7276C22.9336 0.399963 23.9788 0.839963 24.8631 1.67996C25.7073 2.55996 26.1495 3.59996 26.1495 4.79996V6.35996C26.1495 7.59996 25.7073 8.63996 24.8631 9.47996C24.019 10.32 22.9738 10.76 21.7276 10.76H7.0953V15.68C7.0953 15.72 7.0953 15.76 7.0551 15.8C7.01491 15.84 7.01491 15.84 6.93451 15.84H4.1206C4.0804 15.84 4.0804 15.84 4.0402 15.8C4 15.76 4 15.72 4 15.68V0.519963ZM21.7276 8.11996C22.0894 8.11996 22.411 7.99996 22.6522 7.71996C22.8934 7.43996 23.0542 7.15996 23.0542 6.79996V4.35996C23.0542 3.99996 22.9336 3.67996 22.6522 3.39996C22.3708 3.11996 22.0894 2.99996 21.7276 2.99996H7.0953V8.07996H21.7276V8.11996Z" fill="#F9F9F9"/>
<path d="M52.9218 15.68C52.9218 15.72 52.9218 15.72 52.8816 15.76C52.8414 15.8 52.8414 15.8 52.8012 15.8H35.2344C33.9882 15.8 32.943 15.36 32.0989 14.52C31.2547 13.68 30.8125 12.64 30.8125 11.4V0.519963C30.8125 0.479963 30.8125 0.439963 30.8527 0.399963H30.8929H33.747C33.7872 0.399963 33.8274 0.399963 33.8676 0.439963C33.9078 0.479963 33.9078 0.479963 33.9078 0.559963V11.88C33.9078 12.24 34.0284 12.56 34.3098 12.8C34.5912 13.04 34.8726 13.2 35.2746 13.2H52.8414C52.8816 13.2 52.8816 13.2 52.9218 13.24C52.962 13.28 52.962 13.28 52.962 13.32V15.68H52.9218Z" fill="#F9F9F9"/>
<path d="M57.5851 4.79996C57.5851 3.59996 58.0273 2.55996 58.8715 1.67996C59.7157 0.839963 60.7608 0.399963 62.007 0.399963H75.2726C76.4785 0.399963 77.5237 0.839963 78.4081 1.67996C79.2924 2.51996 79.6944 3.55996 79.6944 4.79996V15.68C79.6944 15.72 79.6944 15.76 79.6542 15.8C79.614 15.84 79.614 15.84 79.5336 15.84H76.7599C76.7197 15.84 76.7197 15.84 76.6795 15.8C76.6393 15.76 76.6393 15.76 76.6393 15.68V10.76H60.6804V15.68C60.6804 15.72 60.6804 15.76 60.6402 15.8C60.6 15.84 60.6 15.84 60.5598 15.84H57.7057C57.6655 15.84 57.6253 15.84 57.5851 15.8C57.5449 15.76 57.5449 15.76 57.5449 15.68V4.79996H57.5851ZM76.5991 8.11996V4.35996C76.5991 3.99996 76.4785 3.67996 76.1971 3.39996C75.9157 3.15996 75.6343 2.99996 75.2726 2.99996H62.007C61.6452 2.99996 61.3236 3.11996 61.0422 3.39996C60.7608 3.67996 60.6402 3.95996 60.6402 4.35996V8.11996H76.5991Z" fill="#F9F9F9"/>
<path d="M103.412 0.519985C103.412 0.479985 103.412 0.439985 103.452 0.399985C103.492 0.359985 103.492 0.359985 103.572 0.359985H106.427C106.467 0.359985 106.467 0.359985 106.507 0.399985C106.547 0.439985 106.547 0.439985 106.547 0.519985V15.68C106.547 15.72 106.547 15.72 106.507 15.76C106.467 15.8 106.467 15.8 106.427 15.8H100.678H100.638C99.4319 15.76 98.5074 15.28 97.824 14.32L90.5882 3.63999C90.3068 3.23999 89.9049 3.03999 89.4627 3.03999H87.4929V15.68C87.4929 15.72 87.4929 15.72 87.4527 15.76C87.4125 15.8 87.4125 15.8 87.3321 15.8H84.478C84.4378 15.8 84.4378 15.8 84.3976 15.76C84.3574 15.72 84.3574 15.72 84.3574 15.68V0.519985C84.3574 0.479985 84.3574 0.439985 84.3976 0.399985C84.4378 0.359985 84.4378 0.359985 84.478 0.359985H90.2264H90.2666C91.4726 0.399985 92.3972 0.919985 93.0806 1.87999L100.276 12.56C100.558 12.96 100.919 13.16 101.402 13.16H103.371V0.519985H103.412Z" fill="#F9F9F9"/>
<path d="M114.265 6.79996H130.948C130.988 6.79996 131.028 6.79996 131.068 6.83996C131.108 6.87996 131.108 6.87996 131.108 6.95996V9.31996C131.108 9.35996 131.108 9.39996 131.068 9.43996C131.028 9.47996 131.028 9.47996 130.948 9.47996H114.265V11.92C114.265 12.28 114.386 12.6 114.667 12.84C114.948 13.08 115.23 13.24 115.632 13.24H133.199C133.239 13.24 133.279 13.24 133.319 13.28C133.359 13.32 133.359 13.32 133.359 13.36V15.72C133.359 15.76 133.359 15.8 133.319 15.84C133.279 15.88 133.279 15.88 133.199 15.88H115.632C114.386 15.88 113.34 15.44 112.496 14.6C111.652 13.76 111.21 12.72 111.21 11.48V4.79996C111.21 3.55996 111.652 2.51996 112.496 1.67996C113.34 0.839963 114.386 0.399963 115.632 0.399963H133.199C133.239 0.399963 133.279 0.399963 133.319 0.439963C133.359 0.479963 133.359 0.479963 133.359 0.559963V2.91996C133.359 2.95996 133.359 2.95996 133.319 2.99996C133.279 3.03996 133.279 3.03996 133.199 3.03996H115.632C115.27 3.03996 114.948 3.15996 114.667 3.43996C114.426 3.71996 114.265 3.99996 114.265 4.35996V6.79996Z" fill="#F9F9F9"/>
<path d="M137.942 0.519985C137.942 0.479985 137.942 0.439985 137.982 0.399985C138.022 0.359985 138.022 0.359985 138.063 0.359985H159.971C160.011 0.359985 160.011 0.359985 160.051 0.399985C160.092 0.439985 160.092 0.439985 160.092 0.519985V2.87999C160.092 2.91999 160.092 2.91999 160.051 2.95999C160.011 2.99999 160.011 2.99999 159.971 2.99999H150.564V15.64C150.564 15.68 150.564 15.72 150.524 15.76C150.484 15.8 150.484 15.8 150.444 15.8H147.59C147.55 15.8 147.509 15.8 147.469 15.76C147.429 15.72 147.429 15.72 147.429 15.64V3.03999H138.022C137.982 3.03999 137.982 3.03999 137.942 2.99999C137.902 2.95999 137.902 2.95999 137.902 2.91999V0.519985H137.942Z" fill="#F9F9F9"/>
<path d="M174.764 15.68C174.764 15.72 174.764 15.72 174.724 15.76C174.684 15.8 174.684 15.8 174.604 15.8H171.75C171.709 15.8 171.709 15.8 171.669 15.76C171.629 15.72 171.629 15.72 171.629 15.68V0.519963C171.629 0.479963 171.629 0.439963 171.669 0.399963C171.709 0.399963 171.75 0.399963 171.79 0.399963H174.644C174.684 0.399963 174.724 0.399963 174.764 0.439963C174.805 0.479963 174.805 0.479963 174.805 0.559963V15.68H174.764ZM197.075 3.03996C196.673 3.03996 196.311 3.19996 196.03 3.51996L192.291 8.11996L196.03 12.72C196.311 13.04 196.673 13.2 197.075 13.2H201.416C201.456 13.2 201.456 13.2 201.497 13.24C201.537 13.28 201.537 13.28 201.537 13.36V15.72C201.537 15.76 201.537 15.8 201.497 15.84C201.456 15.88 201.456 15.88 201.416 15.88H196.834C195.628 15.88 194.582 15.4 193.738 14.4L190.482 10.4L187.226 14.4C186.342 15.36 185.337 15.88 184.131 15.88H179.548C179.508 15.88 179.508 15.88 179.468 15.84C179.427 15.8 179.427 15.8 179.427 15.72V13.36C179.427 13.32 179.427 13.28 179.468 13.24C179.508 13.2 179.508 13.2 179.548 13.2H183.89C184.292 13.2 184.653 13.04 184.935 12.72L188.673 8.11996L184.935 3.51996C184.653 3.19996 184.292 3.03996 183.93 3.03996H179.588C179.548 3.03996 179.548 3.03996 179.508 2.99996C179.468 2.95996 179.468 2.95996 179.468 2.91996V0.519963C179.468 0.479963 179.468 0.479963 179.508 0.439963C179.548 0.399963 179.548 0.399963 179.588 0.399963H184.171C185.377 0.399963 186.422 0.879963 187.266 1.87996L190.522 5.87996L193.778 1.87996C194.623 0.919963 195.668 0.399963 196.874 0.399963H201.456C201.497 0.399963 201.497 0.399963 201.537 0.439963C201.577 0.479963 201.577 0.479963 201.577 0.519963V2.91996C201.577 2.95996 201.577 2.95996 201.537 2.99996C201.497 3.03996 201.497 3.03996 201.456 3.03996H197.075V3.03996Z" fill="#FF6647"/>
</g>
<defs>
<filter id="filter0_d_1_175285" x="0" y="0" width="205.778" height="24" filterUnits="userSpaceOnUse" color-interpolation-filters="sRGB">
<feFlood flood-opacity="0" result="BackgroundImageFix"/>
<feColorMatrix in="SourceAlpha" type="matrix" values="0 0 0 0 0 0 0 0 0 0 0 0 0 0 0 0 0 0 127 0" result="hardAlpha"/>
<feOffset dy="4"/>
<feGaussianBlur stdDeviation="2"/>
<feComposite in2="hardAlpha" operator="out"/>
<feColorMatrix type="matrix" values="0 0 0 0 0 0 0 0 0 0 0 0 0 0 0 0 0 0 0.25 0"/>
<feBlend mode="normal" in2="BackgroundImageFix" result="effect1_dropShadow_1_175285"/>
<feBlend mode="normal" in="SourceGraphic" in2="effect1_dropShadow_1_175285" result="shape"/>
</filter>
</defs>
</svg>
