<svg preserveAspectRatio="xMinYMin meet" viewBox="0 0 26 26" fill="none" xmlns="http://www.w3.org/2000/svg">
<path d="M13 25.5C19.9036 25.5 25.5 19.9036 25.5 13C25.5 6.09644 19.9036 0.5 13 0.5C6.09644 0.5 0.5 6.09644 0.5 13C0.5 19.9036 6.09644 25.5 13 25.5Z" fill="black" stroke="#F9F9F9"/>
<path d="M19.1174 17.9348L20.2498 17.2816V9.34766L19.1174 10.0027V17.9348Z" fill="url(#paint0_linear_2059_132829)"/>
<path d="M15.2957 20.1399L16.428 19.4867V11.5527L15.2957 12.2078V20.1399Z" fill="url(#paint1_linear_2059_132829)"/>
<path d="M13.3855 21.2453L14.5173 20.5915V12.6582L13.3855 13.3126V21.2453Z" fill="url(#paint2_linear_2059_132829)"/>
<path d="M17.2058 19.0344L18.3382 18.3812V10.4473L17.2058 11.1023V19.0344Z" fill="url(#paint3_linear_2059_132829)"/>
<path d="M5.75714 15.959L5.75049 17.2666L12.6016 21.2668L12.607 19.9592L5.75714 15.959Z" fill="url(#paint4_linear_2059_132829)"/>
<path d="M5.78008 11.5469L5.77344 12.8539L12.6245 16.8547L12.63 15.5465L5.78008 11.5469Z" fill="url(#paint5_linear_2059_132829)"/>
<path d="M5.78923 9.33984L5.78198 10.6469L12.6337 14.6477L12.6391 13.3394L5.78923 9.33984Z" fill="url(#paint6_linear_2059_132829)"/>
<path d="M5.77105 13.7539L5.7644 15.0609L12.6155 19.0617L12.6209 17.7535L5.77105 13.7539Z" fill="url(#paint7_linear_2059_132829)"/>
<path d="M14.134 5.38158L13.0028 4.72656L6.12695 8.68507L7.25934 9.33948L14.134 5.38158Z" fill="url(#paint8_linear_2059_132829)"/>
<path d="M17.9519 7.59252L16.8207 6.9375L9.94482 10.8954L11.0772 11.5504L17.9519 7.59252Z" fill="url(#paint9_linear_2059_132829)"/>
<path d="M19.863 8.69799L18.7318 8.04297L11.856 12.0015L12.9883 12.6559L19.863 8.69799Z" fill="url(#paint10_linear_2059_132829)"/>
<path d="M16.0417 6.489L14.9105 5.83398L8.03467 9.79189L9.16705 10.4469L16.0417 6.489Z" fill="url(#paint11_linear_2059_132829)"/>
<defs>
<linearGradient id="paint0_linear_2059_132829" x1="18.8673" y1="10.1071" x2="20.6953" y2="18.0224" gradientUnits="userSpaceOnUse">
<stop stop-color="#FF6647"/>
<stop offset="1" stop-color="#FF6647" stop-opacity="0"/>
</linearGradient>
<linearGradient id="paint1_linear_2059_132829" x1="15.0457" y1="12.3121" x2="16.8737" y2="20.2275" gradientUnits="userSpaceOnUse">
<stop stop-color="#FF6647"/>
<stop offset="1" stop-color="#FF6647" stop-opacity="0"/>
</linearGradient>
<linearGradient id="paint2_linear_2059_132829" x1="13.1352" y1="13.4173" x2="14.9632" y2="21.3326" gradientUnits="userSpaceOnUse">
<stop stop-color="#FF6647"/>
<stop offset="1" stop-color="#FF6647" stop-opacity="0"/>
</linearGradient>
<linearGradient id="paint3_linear_2059_132829" x1="16.9557" y1="11.2065" x2="18.7837" y2="19.1218" gradientUnits="userSpaceOnUse">
<stop stop-color="#FF6647"/>
<stop offset="1" stop-color="#FF6647" stop-opacity="0"/>
</linearGradient>
<linearGradient id="paint4_linear_2059_132829" x1="12.6265" y1="19.6998" x2="4.86917" y2="17.2875" gradientUnits="userSpaceOnUse">
<stop stop-color="#FF6647"/>
<stop offset="1" stop-color="#FF6647" stop-opacity="0"/>
</linearGradient>
<linearGradient id="paint5_linear_2059_132829" x1="12.6493" y1="15.2872" x2="4.89194" y2="12.8749" gradientUnits="userSpaceOnUse">
<stop stop-color="#FF6647"/>
<stop offset="1" stop-color="#FF6647" stop-opacity="0"/>
</linearGradient>
<linearGradient id="paint6_linear_2059_132829" x1="12.6579" y1="13.0803" x2="4.90053" y2="10.668" gradientUnits="userSpaceOnUse">
<stop stop-color="#FF6647"/>
<stop offset="1" stop-color="#FF6647" stop-opacity="0"/>
</linearGradient>
<linearGradient id="paint7_linear_2059_132829" x1="12.6404" y1="17.4945" x2="4.88307" y2="15.0822" gradientUnits="userSpaceOnUse">
<stop stop-color="#FF6647"/>
<stop offset="1" stop-color="#FF6647" stop-opacity="0"/>
</linearGradient>
<linearGradient id="paint8_linear_2059_132829" x1="7.47085" y1="9.51956" x2="13.4183" y2="3.98649" gradientUnits="userSpaceOnUse">
<stop stop-color="#FF6647"/>
<stop offset="1" stop-color="#FF6647" stop-opacity="0"/>
</linearGradient>
<linearGradient id="paint9_linear_2059_132829" x1="11.2885" y1="11.7303" x2="17.2359" y2="6.19719" gradientUnits="userSpaceOnUse">
<stop stop-color="#FF6647"/>
<stop offset="1" stop-color="#FF6647" stop-opacity="0"/>
</linearGradient>
<linearGradient id="paint10_linear_2059_132829" x1="13.1995" y1="12.8358" x2="19.1469" y2="7.30268" gradientUnits="userSpaceOnUse">
<stop stop-color="#FF6647"/>
<stop offset="1" stop-color="#FF6647" stop-opacity="0"/>
</linearGradient>
<linearGradient id="paint11_linear_2059_132829" x1="9.37816" y1="10.6268" x2="15.3256" y2="5.09368" gradientUnits="userSpaceOnUse">
<stop stop-color="#FF6647"/>
<stop offset="1" stop-color="#FF6647" stop-opacity="0"/>
</linearGradient>
</defs>
</svg>
