<svg preserveAspectRatio="xMinYMin meet" viewBox="0 0 28 28" fill="none" xmlns="http://www.w3.org/2000/svg">
<g clip-path="url(#clip0_6291_398139)">
<path d="M14.2443 28C21.6355 28 27.6272 21.7328 27.6272 14C27.6272 6.26719 21.6355 0 14.2443 0C6.85309 0 0.861328 6.26719 0.861328 14C0.861328 21.7328 6.85309 28 14.2443 28Z" fill="#8247E5"/>
<path d="M18.6732 11.0057C18.3542 10.8088 17.9359 10.8088 17.5821 11.0057L15.0781 12.5014L13.3784 13.4803L10.8745 14.976C10.5528 15.1729 10.1346 15.1729 9.78339 14.976L7.7915 13.8057C7.47247 13.6088 7.24728 13.2506 7.24728 12.8596V10.549C7.24728 10.158 7.4403 9.7998 7.7915 9.60566L9.75122 8.46543C10.0702 8.26855 10.4885 8.26855 10.8423 8.46543L12.7994 9.60566C13.1211 9.7998 13.3463 10.158 13.3463 10.549V12.0475L15.046 11.0357V9.54004C15.046 9.14902 14.8529 8.79082 14.5017 8.59394L10.8745 6.44746C10.5528 6.25059 10.1346 6.25059 9.78339 6.44746L6.09182 8.59394C5.73795 8.79082 5.54492 9.14902 5.54492 9.54004V13.8686C5.54492 14.2596 5.73795 14.6178 6.09182 14.8146L9.78339 16.9639C10.1024 17.158 10.5206 17.158 10.8745 16.9639L13.3784 15.4982L15.0781 14.4893L17.5821 13.0236C17.9038 12.8268 18.322 12.8268 18.6732 13.0236L20.6329 14.1639C20.9519 14.358 21.1771 14.7162 21.1771 15.1072V17.4178C21.1771 17.8088 20.9841 18.167 20.6329 18.3639L18.6732 19.5342C18.3542 19.7311 17.9359 19.7311 17.5821 19.5342L15.625 18.3939C15.3033 18.1998 15.0781 17.8416 15.0781 17.4506V15.9521L13.3784 16.9639V18.4596C13.3784 18.8506 13.5715 19.2088 13.9227 19.4057L17.6142 21.5521C17.9359 21.749 18.3542 21.749 18.7054 21.5521L22.3969 19.4057C22.7186 19.2088 22.9438 18.8506 22.9438 18.4596V14.1311C22.9438 13.74 22.7508 13.3818 22.3969 13.185L18.6732 11.0057Z" fill="white"/>
</g>
<defs>
<clipPath id="clip0_6291_398139">
<rect width="26.7659" height="28" fill="white" transform="translate(0.861328)"/>
</clipPath>
</defs>
</svg>
