<svg width="79" height="20" viewBox="0 0 79 20" fill="none" xmlns="http://www.w3.org/2000/svg">
<path d="M4.70173 19.9548V18.6274C4.70173 18.1185 4.39125 17.7867 3.85899 17.7867C3.59286 17.7867 3.30456 17.8752 3.10496 18.1628C2.94972 17.9194 2.72795 17.7867 2.39528 17.7867C2.17351 17.7867 1.95174 17.8531 1.77432 18.0964V17.8309H1.30859V19.9548H1.77432V18.7823C1.77432 18.4062 1.97391 18.2292 2.2844 18.2292C2.59488 18.2292 2.75012 18.4283 2.75012 18.7823V19.9548H3.21585V18.7823C3.21585 18.4062 3.43762 18.2292 3.72593 18.2292C4.03641 18.2292 4.19165 18.4283 4.19165 18.7823V19.9548H4.70173ZM11.5989 17.8309H10.8449V17.1893H10.3791V17.8309H9.95777V18.2513H10.3791V19.2247C10.3791 19.7115 10.5787 19.9991 11.111 19.9991C11.3106 19.9991 11.5324 19.9327 11.6876 19.8442L11.5545 19.446C11.4215 19.5345 11.2662 19.5566 11.1553 19.5566C10.9336 19.5566 10.8449 19.4239 10.8449 19.2026V18.2513H11.5989V17.8309ZM15.5465 17.7867C15.2803 17.7867 15.1029 17.9194 14.992 18.0964V17.8309H14.5263V19.9548H14.992V18.7601C14.992 18.4062 15.1473 18.207 15.4356 18.207C15.5243 18.207 15.6352 18.2292 15.7239 18.2513L15.8569 17.8088C15.7682 17.7867 15.6352 17.7867 15.5465 17.7867ZM9.58075 18.0079C9.35898 17.8531 9.0485 17.7867 8.71584 17.7867C8.18358 17.7867 7.82874 18.0522 7.82874 18.4725C7.82874 18.8265 8.09487 19.0256 8.56059 19.092L8.78237 19.1141C9.02632 19.1584 9.15938 19.2247 9.15938 19.3354C9.15938 19.4902 8.98196 19.6008 8.67148 19.6008C8.361 19.6008 8.11705 19.4902 7.9618 19.3796L7.74003 19.7336C7.98398 19.9106 8.31664 19.9991 8.6493 19.9991C9.27027 19.9991 9.62511 19.7115 9.62511 19.3132C9.62511 18.9371 9.3368 18.738 8.89325 18.6716L8.67148 18.6495C8.47188 18.6274 8.31664 18.5831 8.31664 18.4504C8.31664 18.2955 8.47188 18.207 8.71584 18.207C8.98196 18.207 9.24809 18.3177 9.38116 18.384L9.58075 18.0079ZM21.9557 17.7867C21.6896 17.7867 21.5122 17.9194 21.4013 18.0964V17.8309H20.9356V19.9548H21.4013V18.7601C21.4013 18.4062 21.5565 18.207 21.8448 18.207C21.9335 18.207 22.0444 18.2292 22.1331 18.2513L22.2662 17.8088C22.1775 17.7867 22.0444 17.7867 21.9557 17.7867ZM16.0122 18.8929C16.0122 19.5345 16.4557 19.9991 17.1432 19.9991C17.4537 19.9991 17.6755 19.9327 17.8973 19.7557L17.6755 19.3796C17.4981 19.5123 17.3207 19.5787 17.1211 19.5787C16.744 19.5787 16.4779 19.3132 16.4779 18.8929C16.4779 18.4947 16.744 18.2292 17.1211 18.207C17.3207 18.207 17.4981 18.2734 17.6755 18.4062L17.8973 18.0301C17.6755 17.8531 17.4537 17.7867 17.1432 17.7867C16.4557 17.7867 16.0122 18.2513 16.0122 18.8929ZM20.3146 18.8929V17.8309H19.8489V18.0964C19.6936 17.8973 19.4719 17.7867 19.1836 17.7867C18.5848 17.7867 18.119 18.2513 18.119 18.8929C18.119 19.5345 18.5848 19.9991 19.1836 19.9991C19.494 19.9991 19.7158 19.8885 19.8489 19.6893V19.9548H20.3146V18.8929ZM18.6069 18.8929C18.6069 18.5168 18.8509 18.207 19.2501 18.207C19.6271 18.207 19.8932 18.4947 19.8932 18.8929C19.8932 19.269 19.6271 19.5787 19.2501 19.5787C18.8509 19.5566 18.6069 19.269 18.6069 18.8929ZM13.0404 17.7867C12.4195 17.7867 11.9759 18.2292 11.9759 18.8929C11.9759 19.5566 12.4195 19.9991 13.0626 19.9991C13.3731 19.9991 13.6836 19.9106 13.9275 19.7115L13.7057 19.3796C13.5283 19.5123 13.3066 19.6008 13.0848 19.6008C12.7965 19.6008 12.5082 19.4681 12.4416 19.092H14.0162C14.0162 19.0256 14.0162 18.9814 14.0162 18.915C14.0384 18.2292 13.6392 17.7867 13.0404 17.7867ZM13.0404 18.1849C13.3287 18.1849 13.5283 18.3619 13.5727 18.6938H12.4638C12.5082 18.4062 12.7078 18.1849 13.0404 18.1849ZM24.5948 18.8929V16.9902H24.1291V18.0964C23.9739 17.8973 23.7521 17.7867 23.4638 17.7867C22.865 17.7867 22.3993 18.2513 22.3993 18.8929C22.3993 19.5345 22.865 19.9991 23.4638 19.9991C23.7743 19.9991 23.996 19.8885 24.1291 19.6893V19.9548H24.5948V18.8929ZM22.8872 18.8929C22.8872 18.5168 23.1311 18.207 23.5303 18.207C23.9073 18.207 24.1735 18.4947 24.1735 18.8929C24.1735 19.269 23.9073 19.5787 23.5303 19.5787C23.1311 19.5566 22.8872 19.269 22.8872 18.8929ZM7.31866 18.8929V17.8309H6.85294V18.0964C6.6977 17.8973 6.47592 17.7867 6.18762 17.7867C5.58883 17.7867 5.1231 18.2513 5.1231 18.8929C5.1231 19.5345 5.58883 19.9991 6.18762 19.9991C6.4981 19.9991 6.71987 19.8885 6.85294 19.6893V19.9548H7.31866V18.8929ZM5.58883 18.8929C5.58883 18.5168 5.83278 18.207 6.23197 18.207C6.60899 18.207 6.87511 18.4947 6.87511 18.8929C6.87511 19.269 6.60899 19.5787 6.23197 19.5787C5.83278 19.5566 5.58883 19.269 5.58883 18.8929Z" fill="white"/>
<path d="M16.4117 1.70312H9.42578V14.2252H16.4117V1.70312Z" fill="#FF5F00"/>
<path d="M9.86893 7.96457C9.86893 5.42033 11.0665 3.1637 12.9072 1.70353C11.5544 0.64159 9.84675 0 7.98385 0C3.57056 0 0 3.56193 0 7.96457C0 12.3672 3.57056 15.9291 7.98385 15.9291C9.84675 15.9291 11.5544 15.2875 12.9072 14.2256C11.0665 12.7876 9.86893 10.5088 9.86893 7.96457Z" fill="#EB001B"/>
<path d="M25.8369 7.96457C25.8369 12.3672 22.2664 15.9291 17.8531 15.9291C15.9902 15.9291 14.2825 15.2875 12.9297 14.2256C14.7926 12.7654 15.968 10.5088 15.968 7.96457C15.968 5.42033 14.7704 3.1637 12.9297 1.70353C14.2825 0.64159 15.9902 0 17.8531 0C22.2664 0 25.8369 3.58406 25.8369 7.96457Z" fill="#F79E1B"/>
<path d="M60.2016 4.21202L57.7236 15.8178H54.7262L57.2046 4.21202H60.2016ZM72.8114 11.7062L74.3893 7.34763L75.2969 11.7062H72.8114ZM76.157 15.8178H78.9285L76.5072 4.21202H73.9505C73.3743 4.21202 72.8889 4.54674 72.6738 5.0628L68.1763 15.8178H71.324L71.9491 14.0846H75.7939L76.157 15.8178ZM68.3323 12.0287C68.3456 8.96596 64.1059 8.79612 64.134 7.4277C64.1433 7.01179 64.5391 6.5688 65.4048 6.45558C65.8342 6.40009 67.0183 6.35543 68.3609 6.97502L68.886 4.5129C68.1648 4.25171 67.2369 4 66.0826 4C63.1195 4 61.035 5.5766 61.0183 7.83617C60.9994 9.50706 62.5073 10.4386 63.6409 10.995C64.81 11.5639 65.2017 11.9288 65.1961 12.437C65.188 13.2156 64.2637 13.5602 63.4036 13.5733C61.8955 13.5968 61.0219 13.165 60.3253 12.8398L59.7813 15.384C60.4826 15.7057 61.7751 15.9856 63.1134 16C66.2634 16 68.3231 14.4417 68.3323 12.0287ZM55.9189 4.21202L51.0625 15.8178H47.8945L45.5044 6.5555C45.3597 5.98598 45.2334 5.77667 44.7927 5.536C44.072 5.14377 42.882 4.77702 41.8359 4.54877L41.9066 4.21202H47.0069C47.6565 4.21202 48.241 4.64508 48.3896 5.39458L49.6521 12.111L52.7701 4.21202H55.9189Z" fill="white"/>
</svg>
