<svg preserveAspectRatio="xMinYMin meet" viewBox="0 0 28 24" fill="none" xmlns="http://www.w3.org/2000/svg">
<g clip-path="url(#clip0_6291_398145)">
<path fill-rule="evenodd" clip-rule="evenodd" d="M5.76273 0.117874L0.882369 10.6845C0.863798 10.7238 0.857913 10.7682 0.865574 10.8112C0.873236 10.8542 0.894042 10.8935 0.924951 10.9234L14.1056 23.9423C14.1431 23.9793 14.1929 24 14.2448 24C14.2967 24 14.3466 23.9793 14.384 23.9423L27.5647 10.9243C27.5956 10.8943 27.6164 10.855 27.6241 10.812C27.6317 10.769 27.6258 10.7246 27.6073 10.6853L22.7269 0.118687C22.7111 0.0831997 22.6858 0.0531376 22.6539 0.0320933C22.6221 0.0110491 22.585 -8.70515e-05 22.5471 1.57299e-05H5.9441C5.90606 -0.000472091 5.86869 0.0103958 5.83651 0.0313085C5.80433 0.0522212 5.77871 0.0822852 5.76273 0.117874Z" fill="#50AF95"/>
<path fill-rule="evenodd" clip-rule="evenodd" d="M15.9379 11.7691C15.8433 11.7765 15.3544 11.8065 14.2638 11.8065C13.3964 11.8065 12.7806 11.7797 12.5645 11.7691C9.21236 11.6171 6.71028 11.0157 6.71028 10.2955C6.71028 9.57535 9.21236 8.97468 12.5645 8.82025V11.1701C12.7837 11.1864 13.4114 11.2246 14.2788 11.2246C15.3197 11.2246 15.8409 11.1799 15.9348 11.1709V8.82187C19.2798 8.9755 21.7764 9.57698 21.7764 10.2955C21.7764 11.014 19.2806 11.6155 15.9348 11.7683L15.9379 11.7691ZM15.9379 8.57884V6.47609H20.6062V3.26953H7.89626V6.47609H12.5637V8.57803C8.76998 8.75766 5.91699 9.53228 5.91699 10.4605C5.91699 11.3887 8.76998 12.1625 12.5637 12.343V19.0812H15.9372V12.3406C19.7222 12.1609 22.5705 11.3871 22.5705 10.4597C22.5705 9.53228 19.7246 8.75847 15.9372 8.57803L15.9379 8.57884Z" fill="white"/>
</g>
<defs>
<clipPath id="clip0_6291_398145">
<rect width="26.7659" height="24" fill="white" transform="translate(0.861328)"/>
</clipPath>
</defs>
</svg>
