<svg width="20" height="23" viewBox="0 0 20 23" fill="none" xmlns="http://www.w3.org/2000/svg">
  <path d="M19.5303 14.4697L17.5 12.4394V9.75C17.4976 7.89146 16.8061 6.09983 15.5593 4.72154C14.3126 3.34326 12.599 2.47622 10.75 2.2881V0.75H9.25V2.2881C7.40101 2.47622 5.68744 3.34326 4.44065 4.72154C3.19386 6.09983 2.50241 7.89146 2.5 9.75V12.4394L0.46975 14.4697C0.400078 14.5394 0.344809 14.622 0.307103 14.713C0.269396 14.804 0.249992 14.9015 0.25 15V17.25C0.25 17.4489 0.329018 17.6397 0.46967 17.7803C0.610322 17.921 0.801088 18 1 18H6.25V18.75C6.25 19.7446 6.64509 20.6984 7.34835 21.4017C8.05161 22.1049 9.00544 22.5 10 22.5C10.9946 22.5 11.9484 22.1049 12.6517 21.4017C13.3549 20.6984 13.75 19.7446 13.75 18.75V18H19C19.1989 18 19.3897 17.921 19.5303 17.7803C19.671 17.6397 19.75 17.4489 19.75 17.25V15C19.75 14.9015 19.7306 14.804 19.6929 14.713C19.6552 14.622 19.5999 14.5394 19.5303 14.4697ZM12.25 18.75C12.25 19.3467 12.0129 19.919 11.591 20.341C11.169 20.7629 10.5967 21 10 21C9.40326 21 8.83097 20.7629 8.40901 20.341C7.98705 19.919 7.75 19.3467 7.75 18.75V18H12.25V18.75Z" fill="#F9F9F9" fill-opacity="0.8"/>
</svg>