<svg width="18" height="17" viewBox="0 0 18 17" fill="white" xmlns="http://www.w3.org/2000/svg">
<path d="M18 15.75C18 15.9489 17.921 16.1397 17.7803 16.2803C17.6397 16.421 17.4489 16.5 17.25 16.5L0.749995 16.5C0.619658 16.5 0.491569 16.4661 0.378354 16.4015C0.265139 16.3369 0.170706 16.2439 0.104365 16.1318C0.0380236 16.0196 0.00206355 15.892 3.02248e-05 15.7617C-0.0020031 15.6314 0.0299605 15.5028 0.0927696 15.3886L8.34277 0.388576C8.40748 0.270893 8.50261 0.172746 8.61821 0.104389C8.73382 0.0360294 8.86566 -3.28125e-05 8.99996 -3.28183e-05C9.13426 -3.28242e-05 9.2661 0.0360294 9.3817 0.104389C9.4973 0.172746 9.59243 0.270893 9.65714 0.388576L17.9071 15.3886C17.968 15.4993 18 15.6236 18 15.75ZM2.01817 15L15.9816 15L8.99999 2.3064L2.01817 15Z" />
</svg>
