<svg width="22" height="22" viewBox="0 0 22 22" fill="none" xmlns="http://www.w3.org/2000/svg">
<path d="M11 0.5C8.9233 0.5 6.89323 1.11581 5.16652 2.26957C3.4398 3.42332 2.09399 5.0632 1.29927 6.98182C0.504549 8.90045 0.296614 11.0116 0.701759 13.0484C1.1069 15.0852 2.10693 16.9562 3.57538 18.4246C5.04383 19.8931 6.91476 20.8931 8.95156 21.2982C10.9884 21.7034 13.0996 21.4955 15.0182 20.7007C16.9368 19.906 18.5767 18.5602 19.7304 16.8335C20.8842 15.1068 21.5 13.0767 21.5 11C21.4969 8.21619 20.3896 5.5473 18.4212 3.57884C16.4527 1.61039 13.7838 0.503136 11 0.5ZM6.5 18.7824V17.75C6.50066 17.1535 6.73792 16.5815 7.15974 16.1597C7.58155 15.7379 8.15347 15.5007 8.75 15.5H13.25C13.8465 15.5007 14.4185 15.7379 14.8403 16.1597C15.2621 16.5815 15.4993 17.1535 15.5 17.75V18.7824C14.1344 19.5798 12.5814 20 11 20C9.41862 20 7.86563 19.5798 6.5 18.7824ZM16.9944 17.6944C16.9795 16.7105 16.5786 15.772 15.8782 15.0809C15.1778 14.3899 14.2339 14.0017 13.25 14H8.75C7.76608 14.0017 6.8222 14.3899 6.1218 15.0809C5.42139 15.772 5.02054 16.7105 5.00563 17.6944C3.64555 16.4799 2.68643 14.881 2.25526 13.1093C1.82408 11.3377 1.9412 9.47686 2.59111 7.77324C3.24101 6.06963 4.39304 4.6036 5.89466 3.56927C7.39627 2.53495 9.17664 1.98112 11 1.98112C12.8234 1.98112 14.6037 2.53495 16.1054 3.56927C17.607 4.6036 18.759 6.06963 19.4089 7.77324C20.0588 9.47686 20.1759 11.3377 19.7448 13.1093C19.3136 14.881 18.3545 16.4799 16.9944 17.6944Z" fill="#F9F9F9"/>
</svg>
