<svg width="22" height="22" viewBox="0 0 22 22" fill="white" xmlns="http://www.w3.org/2000/svg">
<rect width="22" height="22" style="mix-blend-mode:multiply"/>
<path d="M14.4375 8.25V6.875H11.6875V4.8125H10.3125V6.875H8.93751C8.57294 6.87536 8.22342 7.02035 7.96564 7.27813C7.70785 7.53591 7.56287 7.88544 7.56251 8.25V10.3125C7.56287 10.6771 7.70785 11.0266 7.96564 11.2844C8.22342 11.5422 8.57294 11.6871 8.93751 11.6875H13.0625V13.75H7.56251V15.125H10.3125V17.1875H11.6875V15.125H13.0625C13.427 15.1246 13.7765 14.9796 14.0343 14.7218C14.2921 14.464 14.4371 14.1145 14.4375 13.75V11.6875C14.4371 11.3229 14.2922 10.9734 14.0344 10.7156C13.7766 10.4578 13.4271 10.3129 13.0625 10.3125H8.93751V8.25H14.4375Z" fill="#F9F9F9"/>
<path d="M11 2.75C12.6317 2.75 14.2268 3.23385 15.5835 4.14038C16.9402 5.0469 17.9976 6.33537 18.622 7.84286C19.2464 9.35035 19.4098 11.0092 19.0915 12.6095C18.7732 14.2098 17.9874 15.6798 16.8336 16.8336C15.6799 17.9874 14.2098 18.7731 12.6095 19.0915C11.0092 19.4098 9.35036 19.2464 7.84287 18.622C6.33538 17.9976 5.0469 16.9402 4.14038 15.5835C3.23386 14.2267 2.75 12.6317 2.75 11C2.75641 8.81393 3.62766 6.71923 5.17345 5.17344C6.71924 3.62765 8.81394 2.7564 11 2.75ZM11 1.375C9.09636 1.375 7.23546 1.9395 5.65264 2.99711C4.06982 4.05471 2.83616 5.55793 2.10766 7.31667C1.37917 9.07541 1.18856 11.0107 1.55995 12.8777C1.93133 14.7448 2.84802 16.4598 4.1941 17.8059C5.54018 19.152 7.25519 20.0687 9.12226 20.4401C10.9893 20.8114 12.9246 20.6208 14.6833 19.8923C16.4421 19.1638 17.9453 17.9302 19.0029 16.3474C20.0605 14.7645 20.625 12.9036 20.625 11C20.6175 8.44959 19.6011 6.00577 17.7977 4.20235C15.9942 2.39893 13.5504 1.38247 11 1.375Z" />
</svg>
