<svg width="18" height="20" viewBox="0 0 18 20" fill="none" xmlns="http://www.w3.org/2000/svg">
<path d="M15.5325 0H2.46751C2.20438 0.000629573 1.94396 0.0530815 1.70111 0.154361C1.45826 0.25564 1.23774 0.403763 1.05213 0.590272C0.86653 0.77678 0.719482 0.998022 0.619386 1.24136C0.519289 1.4847 0.468105 1.74538 0.468756 2.0085V15.1905C0.468105 15.4536 0.519289 15.7143 0.619386 15.9576C0.719482 16.201 0.86653 16.4222 1.05213 16.6087C1.23774 16.7952 1.45826 16.9434 1.70111 17.0446C1.94396 17.1459 2.20438 17.1984 2.46751 17.199H13.524L13.0073 15.3953L14.2553 16.5555L15.435 17.6475L17.5313 19.5V2.0085C17.5319 1.74538 17.4807 1.4847 17.3806 1.24136C17.2805 0.998022 17.1335 0.77678 16.9479 0.590272C16.7623 0.403763 16.5418 0.25564 16.2989 0.154361C16.0561 0.0530815 15.7956 0.000629573 15.5325 0ZM11.769 12.7335C11.769 12.7335 11.418 12.3142 11.1255 11.9437C11.8322 11.7774 12.4573 11.3664 12.8903 10.7835C12.5394 11.017 12.1633 11.21 11.769 11.3588C11.3154 11.5524 10.8411 11.693 10.3553 11.778C9.52022 11.9317 8.66383 11.9284 7.83001 11.7682C7.34048 11.6725 6.86073 11.5321 6.39676 11.349C6.15219 11.255 5.91437 11.1442 5.68501 11.0175C5.65576 10.998 5.62651 10.9882 5.59726 10.9688C5.58259 10.9614 5.56937 10.9515 5.55826 10.9395C5.38276 10.842 5.28526 10.7738 5.28526 10.7738C5.70251 11.3444 6.30604 11.7514 6.99151 11.9242C6.69901 12.2948 6.33826 12.7335 6.33826 12.7335C5.75909 12.7491 5.18497 12.6221 4.66642 12.3636C4.14787 12.1052 3.70078 11.7233 3.36451 11.2515C3.39616 9.2749 3.87623 7.33128 4.76851 5.56725C5.55372 4.95055 6.51103 4.59283 7.50826 4.5435L7.60576 4.6605C6.66755 4.89268 5.79203 5.32877 5.04151 5.93775C5.04151 5.93775 5.25601 5.82075 5.61676 5.655C6.3176 5.33509 7.06454 5.12779 7.83001 5.04075C7.88459 5.02945 7.94005 5.02293 7.99576 5.02125C8.64912 4.93613 9.31033 4.92958 9.96526 5.00175C10.9952 5.11938 11.9922 5.43735 12.9 5.93775C12.1875 5.3578 11.36 4.93574 10.4723 4.6995L10.6088 4.5435C11.606 4.59283 12.5633 4.95055 13.3485 5.56725C14.2408 7.33128 14.7209 9.2749 14.7525 11.2515C14.4135 11.7229 13.9645 12.1043 13.4446 12.3625C12.9246 12.6208 12.3494 12.7482 11.769 12.7335Z" fill="#F9F9F9"/>
</svg>
