<svg width="18" height="16" viewBox="0 0 18 16" fill="none" xmlns="http://www.w3.org/2000/svg">
<path d="M16.5 0.5V2.1275L1.23002 4.9025C0.88058 4.96639 0.565159 5.15223 0.339915 5.42692C0.114671 5.7016 -0.00577691 6.04732 1.65594e-05 6.4025V9.6575C-0.00577691 10.0127 0.114671 10.3584 0.339915 10.6331C0.565159 10.9078 0.88058 11.0936 1.23002 11.1575L3.00002 11.42V14C3.00002 14.3978 3.15805 14.7794 3.43936 15.0607C3.72066 15.342 4.10219 15.5 4.50002 15.5H10.5C10.8978 15.5 11.2794 15.342 11.5607 15.0607C11.842 14.7794 12 14.3978 12 14V13.055L16.5 13.8725V15.5H18V0.5H16.5ZM10.5 14H4.50002V11.6975L10.5 12.785V14ZM1.50002 9.6275V6.3725L16.5 3.65V12.35L1.50002 9.6275Z" fill="#F9F9F9"/>
</svg>
