<svg width="24" height="13" viewBox="0 0 24 13" fill="none" xmlns="http://www.w3.org/2000/svg">
<path d="M2.51276 12.2452C2.51276 12.2773 2.51276 12.2773 2.48054 12.3093C2.44833 12.3414 2.44833 12.3414 2.3839 12.3414H0.0966502C0.0644354 12.3414 0.0644315 12.3414 0.0322167 12.3093C1.96575e-06 12.2773 0 12.2773 0 12.2452V0.0961666C0 0.064111 1.96575e-06 0.0320555 0.0322167 0C0.0644315 0 0.0966522 0 0.128867 0H2.41611C2.44832 0 2.48054 0 2.51276 0.0320555C2.54497 0.064111 2.54497 0.064111 2.54497 0.128222V12.2452H2.51276ZM20.392 2.11566C20.0698 2.11566 19.7799 2.24389 19.5544 2.50033L16.5584 6.18671L19.5544 9.8731C19.7799 10.1295 20.0698 10.2578 20.392 10.2578H23.8711C23.9034 10.2578 23.9034 10.2578 23.9356 10.2898C23.9678 10.3219 23.9678 10.3219 23.9678 10.386V12.2773C23.9678 12.3093 23.9678 12.3414 23.9356 12.3734C23.9034 12.4055 23.9034 12.4055 23.8711 12.4055H20.1987C19.2322 12.4055 18.3946 12.0208 17.7181 11.2194L15.1087 8.01388L12.4993 11.2194C11.7906 11.9888 10.9852 12.4055 10.0188 12.4055H6.34631C6.3141 12.4055 6.31409 12.4055 6.28188 12.3734C6.24966 12.3414 6.24967 12.3414 6.24967 12.2773V10.386C6.24967 10.3539 6.24966 10.3219 6.28188 10.2898C6.31409 10.2578 6.3141 10.2578 6.34631 10.2578H9.8255C10.1477 10.2578 10.4376 10.1295 10.6631 9.8731L13.6591 6.18671L10.6631 2.50033C10.4376 2.24389 10.1477 2.11566 9.85772 2.11566H6.37853C6.34631 2.11566 6.34631 2.11566 6.3141 2.08361C6.28188 2.05155 6.28188 2.05155 6.28188 2.0195V0.0961666C6.28188 0.064111 6.28188 0.064111 6.3141 0.0320555C6.34631 0 6.34631 0 6.37853 0H10.051C11.0175 0 11.855 0.384666 12.5316 1.18605L15.1409 4.39161L17.7503 1.18605C18.4268 0.416722 19.2644 0 20.2309 0H23.9034C23.9356 0 23.9356 0 23.9678 0.0320555C24 0.064111 24 0.064111 24 0.0961666V2.0195C24 2.05155 24 2.05155 23.9678 2.08361C23.9356 2.11566 23.9356 2.11566 23.9034 2.11566H20.392Z" fill="#F9F9F9"/>
</svg>
