<svg width="24" height="24" viewBox="0 0 24 24" fill="white" xmlns="http://www.w3.org/2000/svg">
<path d="M16.1006 8.97146C15.8292 8.80655 15.4763 8.80655 15.1778 8.97146L13.0608 10.2357L11.6223 11.0602L9.50536 12.3245C9.23397 12.4894 8.88113 12.4894 8.58258 12.3245L6.89985 11.3351C6.62845 11.1702 6.43846 10.8679 6.43846 10.538V8.58668C6.43846 8.25687 6.6013 7.95455 6.89985 7.78964L8.55544 6.82769C8.82685 6.66279 9.17966 6.66279 9.47823 6.82769L11.1338 7.78964C11.4052 7.95455 11.5952 8.25687 11.5952 8.58668V9.85095L13.0337 8.99894V7.73467C13.0337 7.40486 12.8708 7.10254 12.5723 6.93763L9.50536 5.12368C9.23397 4.95877 8.88113 4.95877 8.58258 5.12368L5.46139 6.93763C5.16284 7.10254 5 7.40486 5 7.73467V11.3901C5 11.7199 5.16284 12.0222 5.46139 12.1871L8.58258 14.001C8.85399 14.166 9.20684 14.166 9.50536 14.001L11.6223 12.7643L13.0608 11.9123L15.1778 10.6755C15.4492 10.5106 15.802 10.5106 16.1006 10.6755L17.7561 11.6374C18.0276 11.8023 18.2176 12.1047 18.2176 12.4345V14.3858C18.2176 14.7156 18.0547 15.018 17.7561 15.1829L16.1006 16.1723C15.8292 16.3372 15.4763 16.3372 15.1778 16.1723L13.5222 15.2104C13.2508 15.0455 13.0608 14.7431 13.0608 14.4133V13.1491L11.6223 14.001V15.2653C11.6223 15.5951 11.7852 15.8975 12.0838 16.0624L15.2049 17.8763C15.4763 18.0412 15.8292 18.0412 16.1277 17.8763L19.2489 16.0624C19.5203 15.8975 19.7103 15.5951 19.7103 15.2653V11.6099C19.7103 11.2801 19.5474 10.9778 19.2489 10.8129L16.1006 8.97146Z"/>
</svg>
