<svg width="15" height="13" viewBox="0 0 15 13" fill="none" xmlns="http://www.w3.org/2000/svg">
<path d="M11.1006 3.97146C10.8292 3.80655 10.4763 3.80655 10.1778 3.97146L8.06079 5.23571L6.62233 6.06024L4.50536 7.32453C4.23397 7.48942 3.88113 7.48942 3.58258 7.32453L1.89985 6.3351C1.62845 6.17021 1.43846 5.86788 1.43846 5.53804V3.58668C1.43846 3.25687 1.6013 2.95455 1.89985 2.78964L3.55544 1.82769C3.82685 1.66279 4.17966 1.66279 4.47823 1.82769L6.13381 2.78964C6.40521 2.95455 6.59519 3.25687 6.59519 3.58668V4.85095L8.03365 3.99894V2.73467C8.03365 2.40486 7.87084 2.10254 7.57227 1.93763L4.50536 0.123679C4.23397 -0.0412263 3.88113 -0.0412263 3.58258 0.123679L0.461395 1.93763C0.162845 2.10254 0 2.40486 0 2.73467V6.39007C0 6.71986 0.162845 7.02219 0.461395 7.18709L3.58258 9.00104C3.85399 9.16598 4.20684 9.16598 4.50536 9.00104L6.62233 7.76425L8.06079 6.91226L10.1778 5.67548C10.4492 5.51058 10.802 5.51058 11.1006 5.67548L12.7561 6.63744C13.0276 6.80233 13.2176 7.10466 13.2176 7.43446V9.38584C13.2176 9.71563 13.0547 10.018 12.7561 10.1829L11.1006 11.1723C10.8292 11.3372 10.4763 11.3372 10.1778 11.1723L8.52221 10.2104C8.25078 10.0455 8.06079 9.74314 8.06079 9.4133V8.14905L6.62233 9.00104V10.2653C6.62233 10.5951 6.78518 10.8975 7.08375 11.0624L10.2049 12.8763C10.4763 13.0412 10.8292 13.0412 11.1277 12.8763L14.2489 11.0624C14.5203 10.8975 14.7103 10.5951 14.7103 10.2653V6.60993C14.7103 6.28014 14.5474 5.97781 14.2489 5.81291L11.1006 3.97146Z" fill="#F9F9F9"/>
</svg>
