<svg width="24" height="24" viewBox="0 0 24 24" fill="none" xmlns="http://www.w3.org/2000/svg">
<rect width="24" height="24" fill="white" style="mix-blend-mode:multiply"/>
<path d="M21 15.75V13.5C21 12.7044 20.6839 11.9413 20.1213 11.3787C19.5587 10.8161 18.7956 10.5 18 10.5C17.2044 10.5 16.4413 10.8161 15.8787 11.3787C15.3161 11.9413 15 12.7044 15 13.5V15.75C14.6023 15.7505 14.2211 15.9087 13.9399 16.1899C13.6587 16.4711 13.5005 16.8523 13.5 17.25V21C13.5005 21.3977 13.6587 21.7789 13.9399 22.0601C14.2211 22.3413 14.6023 22.4995 15 22.5H21C21.3977 22.4995 21.7789 22.3413 22.0601 22.0601C22.3413 21.7789 22.4995 21.3977 22.5 21V17.25C22.4995 16.8523 22.3413 16.4711 22.0601 16.1899C21.7789 15.9087 21.3977 15.7505 21 15.75ZM16.5 13.5C16.5 13.1022 16.658 12.7206 16.9393 12.4393C17.2206 12.158 17.6022 12 18 12C18.3978 12 18.7794 12.158 19.0607 12.4393C19.342 12.7206 19.5 13.1022 19.5 13.5V15.75H16.5V13.5ZM15 21V17.25H21V21H15Z" fill="#F9F9F9"/>
<path d="M17.6243 6.81375L12.5303 1.71975C12.3896 1.57909 12.1989 1.50004 12 1.5H4.5C4.10253 1.50115 3.72166 1.65955 3.44061 1.94061C3.15955 2.22166 3.00115 2.60253 3 3V21C3.00115 21.3975 3.15955 21.7783 3.44061 22.0594C3.72166 22.3405 4.10253 22.4989 4.5 22.5H10.5V21H4.5V3H10.5V7.5C10.5005 7.89768 10.6586 8.27895 10.9398 8.56016C11.2211 8.84136 11.6023 8.99954 12 9H16.719C16.9723 8.99996 17.2199 8.92482 17.4304 8.78407C17.641 8.64333 17.8051 8.44331 17.902 8.2093C17.9989 7.97529 18.0242 7.7178 17.9748 7.4694C17.9253 7.22099 17.8034 6.99283 17.6243 6.81375ZM12 7.5V3.31058L16.189 7.5H12Z" fill="#F9F9F9"/>
</svg>
