<svg width="24" height="20" viewBox="0 0 24 20" fill="none" xmlns="http://www.w3.org/2000/svg">
<path d="M7.93585 19.7018H7.6502C5.06588 19.671 2.54109 18.9214 0.35868 17.537C0.210418 17.446 0.0982778 17.3065 0.0413737 17.1421C-0.0155305 16.9778 -0.0136887 16.7987 0.046604 16.6356C0.106897 16.4724 0.221965 16.3353 0.372077 16.2474C0.522189 16.1596 0.698106 16.1265 0.869875 16.1539C1.20357 16.2015 1.54006 16.2266 1.87712 16.229C3.20544 16.2217 4.51342 15.9024 5.69572 15.2969C4.98996 14.9923 4.35694 14.5413 3.83859 13.9737C3.32023 13.4061 2.92837 12.7349 2.68893 12.0045C2.64514 11.882 2.63606 11.7498 2.66259 11.6225C2.68912 11.4951 2.75027 11.3777 2.83932 11.2829C2.25928 10.7718 1.79545 10.1424 1.47907 9.43702C1.16269 8.73165 1.00107 7.96664 1.00513 7.19358C1.0048 7.06015 1.03932 6.92898 1.10524 6.81296C1.17116 6.69695 1.26619 6.60011 1.38098 6.53208C1.45563 6.47548 1.54376 6.4392 1.63662 6.42684C1.1971 5.62499 0.966681 4.72534 0.966681 3.81094C0.966681 2.89654 1.1971 1.99689 1.63662 1.19505C1.70189 1.09099 1.78984 1.00313 1.89401 0.938028C1.99817 0.872924 2.11578 0.832269 2.23792 0.819199C2.36069 0.811463 2.48355 0.833348 2.59606 0.883064C2.70858 0.93278 2.80744 1.00887 2.88437 1.10485C4.89033 3.59642 7.78423 5.21313 10.9576 5.61503C10.9115 4.55088 11.1822 3.49699 11.7355 2.58677C12.2887 1.67655 13.0996 0.950916 14.0654 0.501801C15.0313 0.0526858 16.1086 -0.0997155 17.1611 0.0638306C18.2136 0.227377 19.194 0.699577 19.978 1.42059C20.7874 1.21352 21.5624 0.889355 22.2782 0.458399C22.4048 0.373084 22.554 0.327457 22.7066 0.327457C22.8593 0.327457 23.0086 0.373084 23.1352 0.458399C23.2551 0.55498 23.3426 0.686083 23.3856 0.833972C23.4286 0.981862 23.4251 1.13938 23.3757 1.28525C23.2765 1.59849 23.1455 1.90071 22.9848 2.18725C23.1312 2.12512 23.2938 2.11206 23.4482 2.14999C23.6027 2.18793 23.7407 2.27486 23.8417 2.39775C23.9442 2.52574 24 2.68479 24 2.84875C24 3.0127 23.9442 3.17185 23.8417 3.29984C23.2499 4.19217 22.519 4.98396 21.6768 5.64513V6.03594C21.6297 9.6587 20.1645 13.1187 17.5956 15.6736C15.0267 18.2284 11.5588 19.6746 7.93585 19.7018ZM7.93585 18.1984C8.00515 18.1829 8.07696 18.1829 8.14626 18.1984C11.3781 18.1592 14.4657 16.8538 16.7455 14.5627C19.0253 12.2717 20.3155 9.17774 20.3389 5.94574V5.17908C20.3394 5.06087 20.3682 4.94451 20.4232 4.83985C20.4781 4.73518 20.5575 4.64524 20.6545 4.57769L21.0906 4.23194H20.8349C20.6661 4.24998 20.4962 4.21032 20.3527 4.11944C20.2093 4.02856 20.1008 3.89176 20.0451 3.73139C19.9893 3.57101 19.9894 3.39652 20.0455 3.23625C20.1016 3.07598 20.2102 2.93937 20.3538 2.84875L20.6545 2.63834L19.993 2.78864C19.8681 2.81265 19.7391 2.80459 19.6182 2.76515C19.4972 2.72571 19.3883 2.65614 19.3015 2.5631C18.7256 1.88639 17.9348 1.42794 17.0614 1.26442C16.188 1.1009 15.2849 1.24223 14.5032 1.66477C13.7215 2.08731 13.1085 2.76546 12.7669 3.58576C12.4253 4.40606 12.3757 5.31879 12.6264 6.17128C12.6483 6.28456 12.6448 6.40132 12.6162 6.51309C12.5876 6.62486 12.5346 6.72886 12.461 6.81773C12.3889 6.91055 12.2947 6.98391 12.1871 7.03117C12.0795 7.07842 11.9618 7.09806 11.8446 7.08833C8.34697 6.91929 5.04321 5.43134 2.59872 2.92399C2.41526 3.69273 2.47099 4.49915 2.75848 5.23533C3.04597 5.97152 3.5515 6.60231 4.20737 7.04328C4.34602 7.13199 4.451 7.26454 4.5055 7.41986C4.56 7.57518 4.56089 7.74433 4.50807 7.90023C4.46567 8.06187 4.3662 8.20266 4.22802 8.29663C4.08983 8.3906 3.92228 8.43133 3.75637 8.41133C3.38634 8.3992 3.01858 8.34886 2.65892 8.26103C2.85292 8.92962 3.22325 9.53365 3.73113 10.0098C4.23902 10.4859 4.86571 10.8166 5.54541 10.9671C5.7087 11.0066 5.85452 11.0985 5.96044 11.2289C6.06637 11.3593 6.12658 11.5208 6.13176 11.6887C6.13416 11.8559 6.08073 12.0191 5.97999 12.1525C5.87925 12.2859 5.73695 12.3819 5.57551 12.4254C5.25197 12.5173 4.9191 12.5729 4.58322 12.5908C4.92873 13.0703 5.37923 13.4644 5.90034 13.7432C6.42145 14.022 6.99939 14.1781 7.59001 14.1995C7.74317 14.2058 7.89094 14.2578 8.01422 14.3489C8.13749 14.44 8.23064 14.566 8.2816 14.7106C8.33105 14.8564 8.33445 15.0139 8.29142 15.1618C8.2484 15.3097 8.16099 15.4408 8.04101 15.5374C6.79536 16.5343 5.33286 17.2244 3.77142 17.552C5.07733 17.9795 6.44148 18.2027 7.81556 18.2135L7.93585 18.1984Z" fill="#F9F9F9"/>
</svg>
