<svg width="17" height="15" viewBox="0 0 17 15" fill="white" xmlns="http://www.w3.org/2000/svg">
<g clip-path="url(#clip0_3927_30680)">
<path fill-rule="evenodd" clip-rule="evenodd" d="M3.11299 0.0736712L0.0132929 6.6778C0.00149763 6.70236 -0.00224021 6.73011 0.00262598 6.75698C0.00749217 6.78385 0.0207071 6.80844 0.0403382 6.82715L8.41187 14.9639C8.43565 14.9871 8.46733 15 8.50027 15C8.53322 15 8.56489 14.9871 8.58867 14.9639L16.9602 6.82766C16.9798 6.80895 16.9931 6.78436 16.9979 6.75749C17.0028 6.73062 16.999 6.70287 16.9873 6.67831L13.8876 0.0741792C13.8776 0.0519998 13.8615 0.033211 13.8412 0.0200583C13.821 0.00690571 13.7974 -5.44072e-05 13.7734 9.83119e-06H3.22818C3.20402 -0.000295057 3.18029 0.0064974 3.15985 0.0195678C3.13941 0.0326382 3.12314 0.0514283 3.11299 0.0736712Z"/>
<path fill-rule="evenodd" clip-rule="evenodd" d="M9.57555 7.35596C9.51545 7.36053 9.20493 7.37933 8.51226 7.37933C7.96134 7.37933 7.57018 7.36256 7.43295 7.35596C5.30389 7.26096 3.71472 6.88503 3.71472 6.43494C3.71472 5.98484 5.30389 5.60942 7.43295 5.5129V6.98155C7.57219 6.99171 7.97086 7.01559 8.52178 7.01559C9.18289 7.01559 9.51394 6.98765 9.57354 6.98206V5.51391C11.6981 5.60993 13.2838 5.98586 13.2838 6.43494C13.2838 6.88402 11.6986 7.25994 9.57354 7.35545L9.57555 7.35596ZM9.57555 5.36202V4.0478H12.5405V2.0437H4.46798V4.0478H7.43245V5.36151C5.02291 5.47378 3.21088 5.95792 3.21088 6.53806C3.21088 7.11821 5.02291 7.60183 7.43245 7.71461V11.926H9.57505V7.71309C11.9791 7.60082 13.7881 7.11719 13.7881 6.53755C13.7881 5.95792 11.9806 5.47429 9.57505 5.36151L9.57555 5.36202Z" fill="#0C0C0C"/>
</g>
<defs>
<clipPath id="clip0_3927_30680">
<rect width="17" height="15" />
</clipPath>
</defs>
</svg>
