<svg width="11" height="10" viewBox="0 0 11 10" fill="none" xmlns="http://www.w3.org/2000/svg">
<path fill-rule="evenodd" clip-rule="evenodd" d="M6.57555 5.35596C6.51545 5.36053 6.20493 5.37933 5.51226 5.37933C4.96134 5.37933 4.57018 5.36256 4.43295 5.35596C2.30389 5.26096 0.714721 4.88503 0.714721 4.43494C0.714721 3.98484 2.30389 3.60942 4.43295 3.5129V4.98155C4.57219 4.99171 4.97086 5.01559 5.52178 5.01559C6.18289 5.01559 6.51394 4.98765 6.57354 4.98206V3.51391C8.6981 3.60993 10.2838 3.98586 10.2838 4.43494C10.2838 4.88402 8.69861 5.25994 6.57354 5.35545L6.57555 5.35596ZM6.57555 3.36202V2.0478H9.54052V0.0437012H1.46798V2.0478H4.43245V3.36151C2.02291 3.47378 0.210876 3.95792 0.210876 4.53806C0.210876 5.11821 2.02291 5.60183 4.43245 5.71461V9.92601H6.57505V5.71309C8.97908 5.60082 10.7881 5.11719 10.7881 4.53755C10.7881 3.95792 8.98058 3.47429 6.57505 3.36151L6.57555 3.36202Z" fill="#0C0C0C"/>
</svg>
