<svg width="32" height="32" viewBox="0 0 32 32" fill="none" xmlns="http://www.w3.org/2000/svg">
  <path d="M16 32C24.8366 32 32 24.8366 32 16C32 7.16344 24.8366 0 16 0C7.16344 0 0 7.16344 0 16C0 24.8366 7.16344 32 16 32Z" fill="#FFB428"/>
  <path d="M24.21 23.556H25.2361C26.6045 23.556 27.4599 22.0746 26.7751 20.8893L20.1034 9.33334H15.998L24.2088 23.556H24.21Z" fill="#F0F0F0"/>
  <path d="M15.9998 9.33363L18.0531 5.77766L17.5401 4.88835C16.8552 3.70303 15.1456 3.70303 14.4607 4.88835L7.78906 16.4443L9.84237 20.0003L16.001 9.33363" fill="#F0F0F0"/>
  <path d="M22.1583 20.0003L20.105 23.5563H6.76163C5.39318 23.5563 4.53774 22.075 5.22259 20.8896L5.7356 20.0003H22.1583Z" fill="#F0F0F0"/>
</svg>
