<svg width="32" height="32" viewBox="0 0 32 32" fill="none" xmlns="http://www.w3.org/2000/svg">
  <path d="M16 32C24.8366 32 32 24.8366 32 16C32 7.16344 24.8366 0 16 0C7.16344 0 0 7.16344 0 16C0 24.8366 7.16344 32 16 32Z" fill="black"/>
  <path d="M24.9014 23.1832L26.5481 22.2332V10.6953L24.9014 11.6454V23.1832Z" fill="url(#paint0_linear_1507_11356)"/>
  <path d="M19.3418 26.3924L20.9886 25.4424V13.901L19.3418 14.8546V26.3924Z" fill="url(#paint1_linear_1507_11356)"/>
  <path d="M16.5615 28.0005L18.2083 27.0505V15.5091L16.5615 16.4627V28.0005Z" fill="url(#paint2_linear_1507_11356)"/>
  <path d="M22.1172 24.7848L23.7639 23.8347V12.2969L22.1172 13.2469V24.7848Z" fill="url(#paint3_linear_1507_11356)"/>
  <path d="M5.46309 20.3089L5.45605 22.2125L15.421 28.0289L15.4281 26.1288L5.46309 20.3089Z" fill="url(#paint4_linear_1507_11356)"/>
  <path d="M5.49786 13.8909L5.4873 15.7946L15.4523 21.6145L15.4628 19.7109L5.49786 13.8909Z" fill="url(#paint5_linear_1507_11356)"/>
  <path d="M5.51251 10.6813L5.50195 12.5814L15.4669 18.4013L15.474 16.4977L5.51251 10.6813Z" fill="url(#paint6_linear_1507_11356)"/>
  <path d="M5.48419 17.0993L5.47363 19.0029L15.4421 24.8228L15.4492 22.9192L5.48419 17.0993Z" fill="url(#paint7_linear_1507_11356)"/>
  <path d="M17.6489 4.92623L16.0056 3.97266L6.00195 9.72926L7.64871 10.6828L17.6489 4.92623Z" fill="url(#paint8_linear_1507_11356)"/>
  <path d="M23.2016 8.14238L21.5584 7.18881L11.5547 12.9489L13.205 13.899L23.2016 8.14238Z" fill="url(#paint9_linear_1507_11356)"/>
  <path d="M25.9848 9.75044L24.3381 8.79688L14.3379 14.5535L15.9846 15.507L25.9848 9.75044Z" fill="url(#paint10_linear_1507_11356)"/>
  <path d="M20.4252 6.53819L18.7785 5.58463L8.77832 11.3412L10.4251 12.2948L20.4252 6.53819Z" fill="url(#paint11_linear_1507_11356)"/>
  <defs>
    <linearGradient id="paint0_linear_1507_11356" x1="24.5354" y1="11.8002" x2="27.1956" y2="23.3134" gradientUnits="userSpaceOnUse">
      <stop stop-color="#FF6647"/>
      <stop offset="1" stop-color="#FF6647" stop-opacity="0"/>
    </linearGradient>
    <linearGradient id="paint1_linear_1507_11356" x1="18.9759" y1="15.0059" x2="21.636" y2="26.5191" gradientUnits="userSpaceOnUse">
      <stop stop-color="#FF6647"/>
      <stop offset="1" stop-color="#FF6647" stop-opacity="0"/>
    </linearGradient>
    <linearGradient id="paint2_linear_1507_11356" x1="16.1991" y1="16.614" x2="18.8557" y2="28.1272" gradientUnits="userSpaceOnUse">
      <stop stop-color="#FF6647"/>
      <stop offset="1" stop-color="#FF6647" stop-opacity="0"/>
    </linearGradient>
    <linearGradient id="paint3_linear_1507_11356" x1="21.7548" y1="13.3982" x2="24.4114" y2="24.915" gradientUnits="userSpaceOnUse">
      <stop stop-color="#FF6647"/>
      <stop offset="1" stop-color="#FF6647" stop-opacity="0"/>
    </linearGradient>
    <linearGradient id="paint4_linear_1507_11356" x1="15.4341" y1="25.8817" x2="4.1503" y2="22.3737" gradientUnits="userSpaceOnUse">
      <stop stop-color="#FF6647"/>
      <stop offset="1" stop-color="#FF6647" stop-opacity="0"/>
    </linearGradient>
    <linearGradient id="paint5_linear_1507_11356" x1="15.4639" y1="19.4658" x2="4.1819" y2="15.9547" gradientUnits="userSpaceOnUse">
      <stop stop-color="#FF6647"/>
      <stop offset="1" stop-color="#FF6647" stop-opacity="0"/>
    </linearGradient>
    <linearGradient id="paint6_linear_1507_11356" x1="15.4775" y1="16.2538" x2="4.19544" y2="12.7428" gradientUnits="userSpaceOnUse">
      <stop stop-color="#FF6647"/>
      <stop offset="1" stop-color="#FF6647" stop-opacity="0"/>
    </linearGradient>
    <linearGradient id="paint7_linear_1507_11356" x1="15.4531" y1="22.6734" x2="4.16933" y2="19.1653" gradientUnits="userSpaceOnUse">
      <stop stop-color="#FF6647"/>
      <stop offset="1" stop-color="#FF6647" stop-opacity="0"/>
    </linearGradient>
    <linearGradient id="paint8_linear_1507_11356" x1="8.09666" y1="11.0529" x2="16.7489" y2="3.0062" gradientUnits="userSpaceOnUse">
      <stop stop-color="#FF6647"/>
      <stop offset="1" stop-color="#FF6647" stop-opacity="0"/>
    </linearGradient>
    <linearGradient id="paint9_linear_1507_11356" x1="13.6488" y1="14.2717" x2="22.3011" y2="6.22499" gradientUnits="userSpaceOnUse">
      <stop stop-color="#FF6647"/>
      <stop offset="1" stop-color="#FF6647" stop-opacity="0"/>
    </linearGradient>
    <linearGradient id="paint10_linear_1507_11356" x1="16.4292" y1="15.8785" x2="25.0798" y2="7.82869" gradientUnits="userSpaceOnUse">
      <stop stop-color="#FF6647"/>
      <stop offset="1" stop-color="#FF6647" stop-opacity="0"/>
    </linearGradient>
    <linearGradient id="paint11_linear_1507_11356" x1="10.873" y1="12.6666" x2="19.5235" y2="4.61685" gradientUnits="userSpaceOnUse">
      <stop stop-color="#FF6647"/>
      <stop offset="1" stop-color="#FF6647" stop-opacity="0"/>
    </linearGradient>
  </defs>
</svg>
