<svg width="28" height="28" viewBox="0 0 28 28" fill="none" xmlns="http://www.w3.org/2000/svg">
<path d="M14 28C21.7584 28 28 21.7584 28 14C28 6.24162 21.7584 0 14 0C6.24162 0 0 6.24162 0 14C0 21.7584 6.24162 28 14 28Z" fill="#2775CA"/>
<path d="M17.8501 16.2172C17.8501 14.1756 16.6251 13.4756 14.1751 13.1839C12.4251 12.9506 12.0751 12.4839 12.0751 11.6672C12.0751 10.8504 12.6584 10.3256 13.8251 10.3256C14.8751 10.3256 15.4584 10.6756 15.7501 11.5506C15.8084 11.7256 15.9834 11.8422 16.1584 11.8422H17.0917C17.3251 11.8422 17.5001 11.6672 17.5001 11.4339V11.3756C17.2667 10.0922 16.2167 9.10057 14.8751 8.98395V7.58395C14.8751 7.35057 14.7001 7.17557 14.4084 7.11719H13.5334C13.3001 7.11719 13.1251 7.29219 13.0667 7.58395V8.92557C11.3167 9.15895 10.2084 10.3256 10.2084 11.7839C10.2084 13.7089 11.3751 14.4672 13.8251 14.7589C15.4584 15.0506 15.9834 15.4006 15.9834 16.3339C15.9834 17.2673 15.1667 17.9089 14.0584 17.9089C12.5417 17.9089 12.0167 17.2672 11.8417 16.3922C11.7834 16.1589 11.6084 16.0422 11.4334 16.0422H10.4417C10.2084 16.0422 10.0334 16.2172 10.0334 16.4506V16.5089C10.2667 17.9672 11.2001 19.0172 13.1251 19.3089V20.7089C13.1251 20.9422 13.3001 21.1172 13.5917 21.1756H14.4667C14.7001 21.1756 14.8751 21.0006 14.9334 20.7089V19.3089C16.6834 19.0172 17.8501 17.7922 17.8501 16.2172Z" fill="white"/>
<path d="M11.0249 22.3422C6.47492 20.709 4.14154 15.634 5.8333 11.1422C6.7083 8.69222 8.6333 6.8256 11.0249 5.9506C11.2583 5.83398 11.3749 5.65898 11.3749 5.36722V4.5506C11.3749 4.31722 11.2583 4.14222 11.0249 4.08398C10.9665 4.08398 10.8499 4.08398 10.7915 4.14222C5.24992 5.89222 2.21654 11.784 3.96654 17.3256C5.01654 20.5922 7.52492 23.1006 10.7915 24.1506C11.0249 24.2672 11.2583 24.1506 11.3165 23.9172C11.3749 23.859 11.3749 23.8006 11.3749 23.684V22.8672C11.3749 22.6922 11.1999 22.459 11.0249 22.3422ZM17.2083 4.14222C16.9749 4.0256 16.7415 4.14222 16.6833 4.3756C16.6249 4.43398 16.6249 4.49222 16.6249 4.60898V5.4256C16.6249 5.65898 16.7999 5.89222 16.9749 6.00898C21.5249 7.64222 23.8583 12.7172 22.1665 17.209C21.2915 19.659 19.3665 21.5256 16.9749 22.4006C16.7415 22.5172 16.6249 22.6922 16.6249 22.984V23.8006C16.6249 24.034 16.7415 24.209 16.9749 24.2672C17.0333 24.2672 17.1499 24.2672 17.2083 24.209C22.7499 22.459 25.7833 16.5672 24.0333 11.0256C22.9833 7.7006 20.4165 5.19222 17.2083 4.14222Z" fill="white"/>
</svg>
