<svg width="20" height="7" viewBox="0 0 20 7" fill="none" xmlns="http://www.w3.org/2000/svg">
<path d="M1.4772 4.13477H0V4.6013H1.4772V4.13477Z" fill="#F9F9F9"/>
<path d="M1.4772 3.44531H0V3.91184H1.4772V3.44531Z" fill="#F9F9F9"/>
<path d="M5.31654 5.9802V5.51367H0.03125C0.0638807 5.68476 0.121205 5.84174 0.199695 5.9802H5.31654Z" fill="#F9F9F9"/>
<path d="M1.4772 5.09761V4.82422H0V5.17345C0 5.21314 0.00176382 5.25195 0.00352764 5.29075H1.53188C1.49572 5.24401 1.47632 5.18051 1.47632 5.09673L1.4772 5.09761Z" fill="#F9F9F9"/>
<path d="M5.31706 2.75684H2.42969V3.22337H5.31706V2.75684Z" fill="#F9F9F9"/>
<path d="M4.95501 0.46653C4.69132 0.171091 4.29798 0 3.81999 0H1.48557C1.01287 0 0.621302 0.171091 0.359375 0.46653H4.95501Z" fill="#F9F9F9"/>
<path d="M3.83983 1.57204V1.84544H5.31703V1.4962C5.31703 1.45651 5.31527 1.41771 5.31351 1.37891H3.78516C3.82131 1.42565 3.84072 1.49003 3.84072 1.57293L3.83983 1.57204Z" fill="#F9F9F9"/>
<path d="M3.84072 4.82422V5.09761C3.84072 5.18051 3.82131 5.24489 3.78516 5.29163H5.31703V4.8251H3.83983L3.84072 4.82422Z" fill="#F9F9F9"/>
<path d="M0.199695 0.688477C0.120323 0.826936 0.0629988 0.983916 0.03125 1.15501H5.28479C5.25216 0.983916 5.19483 0.826936 5.11546 0.688477H0.199695Z" fill="#F9F9F9"/>
<path d="M0.359375 6.20215C0.621302 6.49759 1.01287 6.66868 1.48646 6.66868H2.86753C3.33847 6.66868 3.73709 6.49847 3.99549 6.20215H0.359375Z" fill="#F9F9F9"/>
<path d="M4.0332 6.20215L4.23075 6.66956H5.31638V6.20215H4.0332Z" fill="#F9F9F9"/>
<path d="M1.4772 1.84534V1.57195C1.4772 1.48905 1.4966 1.42467 1.53276 1.37793H0.00352764C0.00088191 1.41673 0 1.45554 0 1.49522V1.84446H1.4772V1.84534Z" fill="#F9F9F9"/>
<path d="M5.31706 3.44531H2.42969V3.91184H5.31706V3.44531Z" fill="#F9F9F9"/>
<path d="M1.4772 2.06738H0V2.53391H1.4772V2.06738Z" fill="#F9F9F9"/>
<path d="M5.31704 4.13477H3.83984V4.6013H5.31704V4.13477Z" fill="#F9F9F9"/>
<path d="M1.4772 2.75684H0V3.22337H1.4772V2.75684Z" fill="#F9F9F9"/>
<path d="M6.2164 1.15589H7.69801L7.59923 0.688477H6.10352L6.2164 1.15589Z" fill="#F9F9F9"/>
<path d="M9.30045 0.688477L9.19727 1.15589H11.1339L11.0325 0.688477H9.30045Z" fill="#F9F9F9"/>
<path d="M9.15006 1.37793L9.04688 1.84446H11.286L11.1837 1.37793H9.15006Z" fill="#F9F9F9"/>
<path d="M7.99142 2.53479L7.89177 2.06738H6.4375L6.55038 2.53479H7.99142Z" fill="#F9F9F9"/>
<path d="M8.13609 3.22337L8.03643 2.75684H6.60156L6.71445 3.22337H8.13609Z" fill="#F9F9F9"/>
<path d="M7.84374 1.84446L7.74408 1.37793H6.26953L6.38242 1.84446H7.84374Z" fill="#F9F9F9"/>
<path d="M8.99771 2.06738L8.89453 2.53479H11.4371L11.3348 2.06738H8.99771Z" fill="#F9F9F9"/>
<path d="M8.84537 2.75684L8.74219 3.22337H10.0183L10.1277 2.75684H8.84537Z" fill="#F9F9F9"/>
<path d="M9.85715 3.91272L9.96651 3.44531H8.69215L8.58984 3.91272H9.85715Z" fill="#F9F9F9"/>
<path d="M8.28377 3.91272L8.18411 3.44531H6.76953L6.88242 3.91272H8.28377Z" fill="#F9F9F9"/>
<path d="M14.2384 0.46653L14.3504 0H12.8837L12.7832 0.46653H14.2384Z" fill="#F9F9F9"/>
<path d="M11.7871 4.13477H10.4766L10.5868 4.6013H11.8885L11.7871 4.13477Z" fill="#F9F9F9"/>
<path d="M10.1504 2.75684L10.2597 3.22337H11.5861L11.4838 2.75684H10.1504Z" fill="#F9F9F9"/>
<path d="M9.69687 4.6013L9.80534 4.13477H8.54068L8.4375 4.6013H9.69687Z" fill="#F9F9F9"/>
<path d="M10.3125 3.44531L10.4227 3.91272H11.7368L11.6345 3.44531H10.3125Z" fill="#F9F9F9"/>
<path d="M12.7344 0.688477L12.6348 1.15589H14.0705L14.1834 0.688477H12.7344Z" fill="#F9F9F9"/>
<path d="M12.5888 1.37793L12.4883 1.84446H13.9055L14.0184 1.37793H12.5888Z" fill="#F9F9F9"/>
<path d="M10.9838 0.46653L10.8815 0H9.45191L9.34961 0.46653H10.9838Z" fill="#F9F9F9"/>
<path d="M7.5514 0.46653L7.45262 0H5.9375L6.05038 0.46653H7.5514Z" fill="#F9F9F9"/>
<path d="M10.9629 6.20215L11.0731 6.66956H12.7408L12.8528 6.20215H10.9629Z" fill="#F9F9F9"/>
<path d="M7.43555 6.20215L7.54843 6.66956H9.21524L9.3246 6.20215H7.43555Z" fill="#F9F9F9"/>
<path d="M12.4404 2.06738L12.3398 2.53479H13.7394L13.8514 2.06738H12.4404Z" fill="#F9F9F9"/>
<path d="M9.53652 5.29163L9.64499 4.82422H7.10156L7.21445 5.29163H9.53652Z" fill="#F9F9F9"/>
<path d="M12.2911 2.75684L12.1914 3.22337H13.5716L13.6845 2.75684H12.2911Z" fill="#F9F9F9"/>
<path d="M13.0197 5.51367H10.8008L10.911 5.9802H12.9068L13.0197 5.51367Z" fill="#F9F9F9"/>
<path d="M8.4295 4.6013L8.32985 4.13477H6.93555L7.04843 4.6013H8.4295Z" fill="#F9F9F9"/>
<path d="M9.37446 5.9802L9.48382 5.51367H7.26758L7.38046 5.9802H9.37446Z" fill="#F9F9F9"/>
<path d="M12.1435 3.44531L12.043 3.91272H13.4046L13.5175 3.44531H12.1435Z" fill="#F9F9F9"/>
<path d="M11.9961 4.13477L11.8965 4.6013H13.2396L13.3516 4.13477H11.9961Z" fill="#F9F9F9"/>
<path d="M10.6387 4.82422L10.7489 5.29163H13.0736L13.1865 4.82422H10.6387Z" fill="#F9F9F9"/>
<path d="M14.9463 3.22337H19.698C19.5278 3.00289 19.2923 2.8415 19.0084 2.75684H14.8008C14.8264 2.92704 14.8766 3.08402 14.9472 3.22337H14.9463Z" fill="#F9F9F9"/>
<path d="M18.5224 4.82422V5.09761C18.5224 5.18051 18.503 5.24489 18.4668 5.29163H19.9951C19.9978 5.25283 19.9987 5.21402 19.9987 5.17434V4.8251H18.5215L18.5224 4.82422Z" fill="#F9F9F9"/>
<path d="M18.5226 4.25823V4.6013H19.9998V4.18239C19.9998 4.16651 19.9998 4.15064 19.9989 4.13477H18.5059C18.5173 4.17004 18.5235 4.21149 18.5235 4.25911L18.5226 4.25823Z" fill="#F9F9F9"/>
<path d="M19.638 0.46653C19.3743 0.171091 18.981 0 18.503 0H16.2638C15.7911 0 15.3995 0.171091 15.1367 0.46653H19.638Z" fill="#F9F9F9"/>
<path d="M18.5234 1.57204V1.84544H20.0006V1.4962C20.0006 1.45651 19.9989 1.41771 19.9971 1.37891H18.4688C18.5049 1.42565 18.5243 1.49003 18.5243 1.57293L18.5234 1.57204Z" fill="#F9F9F9"/>
<path d="M16.2545 5.09761V4.82422H14.7773V5.17345C14.7773 5.21314 14.7791 5.25195 14.7809 5.29075H16.3092C16.2731 5.24401 16.2537 5.18051 16.2537 5.09673L16.2545 5.09761Z" fill="#F9F9F9"/>
<path d="M16.2537 1.84534V1.57195C16.2537 1.48905 16.2731 1.42467 16.3092 1.37793H14.7809C14.7782 1.41673 14.7773 1.45554 14.7773 1.49522V1.84446H16.2545L16.2537 1.84534Z" fill="#F9F9F9"/>
<path d="M15.1387 6.20215C15.4024 6.49759 15.7957 6.66868 16.2737 6.66868H18.5129C18.9856 6.66868 19.3771 6.49759 19.6399 6.20215H15.1387V6.20215Z" fill="#F9F9F9"/>
<path d="M19.7993 5.9802C19.8787 5.84174 19.936 5.68476 19.9678 5.51367H14.8086C14.8412 5.68476 14.8985 5.84174 14.9779 5.9802H19.7984H19.7993Z" fill="#F9F9F9"/>
<path d="M14.979 0.688477C14.8996 0.826936 14.8423 0.983916 14.8105 1.15501H19.9688C19.9362 0.983916 19.8789 0.826936 19.7995 0.688477H14.979V0.688477Z" fill="#F9F9F9"/>
<path d="M15.0868 3.44531C15.2623 3.66932 15.5066 3.83071 15.8012 3.91184H19.9788C19.9541 3.74163 19.9056 3.58554 19.835 3.44531H15.0859H15.0868Z" fill="#F9F9F9"/>
<path d="M16.2545 2.06738H14.7773V2.47747C14.7773 2.49687 14.7773 2.51539 14.7782 2.53479H16.2757C16.2616 2.49687 16.2537 2.45278 16.2537 2.40163V2.06826L16.2545 2.06738Z" fill="#F9F9F9"/>
</svg>
