<svg width="20" height="18" viewBox="0 0 20 18" fill="none" xmlns="http://www.w3.org/2000/svg">
<g clip-path="url(#clip0_542_65118)">
<path d="M10.4772 1.65037L18.0959 14.8464L17.6187 15.6704H2.38128L1.90642 14.8487L9.52281 1.65037H10.4749M11.4292 0H8.57309L0 14.8464C0.635475 15.9451 0.793762 16.2221 1.42924 17.3208H18.5708C19.2062 16.2221 19.3645 15.9451 20 14.8464L11.4292 0Z" fill="#F7BA1E"/>
<path d="M9.99959 14.0197C11.8213 14.0197 13.298 12.5429 13.298 10.7213C13.298 8.8996 11.8213 7.42285 9.99959 7.42285C8.17792 7.42285 6.70117 8.8996 6.70117 10.7213C6.70117 12.5429 8.17792 14.0197 9.99959 14.0197Z" fill="#F7BA1E"/>
</g>
<defs>
<clipPath id="clip0_542_65118">
<rect width="20" height="17.3208" fill="white"/>
</clipPath>
</defs>
</svg>
