<svg width="20" height="20" viewBox="0 0 20 20" fill="none" xmlns="http://www.w3.org/2000/svg">
<path d="M4.09066 10.999H2.07031C2.52179 14.6165 5.383 17.4777 9.00043 17.9291V15.9088C6.49475 15.4855 4.51391 13.5047 4.09066 10.999Z" fill="#F9F9F9"/>
<path d="M15.9098 9.0014H17.9301C17.4786 5.38397 14.6174 2.52276 11 2.07129V4.09163C13.5057 4.51489 15.4865 6.49573 15.9098 9.0014Z" fill="#F9F9F9"/>
<path d="M9.00043 4.09163V2.07129C5.383 2.52276 2.52179 5.38397 2.07031 9.0014H4.09066C4.51391 6.49573 6.49475 4.51489 9.00043 4.09163Z" fill="#F9F9F9"/>
<path d="M11 15.9088V17.9291C14.6174 17.4777 17.4786 14.6165 17.9301 10.999H15.9098C15.4865 13.5047 13.5057 15.4855 11 15.9088Z" fill="#F9F9F9"/>
<path d="M9 17.9287V19.9998H10.9978V17.9287C10.6705 17.9682 10.3375 17.9964 9.99888 17.9964C9.66028 17.9964 9.32732 17.9682 9 17.9287V17.9287Z" fill="#F9F9F9"/>
<path d="M10.9978 2.07113V0H9V2.07113C9.32732 2.03163 9.66028 2.00341 9.99888 2.00341C10.3375 2.00341 10.6705 2.03163 10.9978 2.07113Z" fill="#F9F9F9"/>
<path d="M2.07113 9.00098H0V10.9987H2.07113C2.03163 10.6714 2.00341 10.3385 2.00341 9.99986C2.00341 9.66126 2.03163 9.32829 2.07113 9.00098Z" fill="#F9F9F9"/>
<path d="M17.9297 9.00098C17.9692 9.32829 17.9974 9.66126 17.9974 9.99986C17.9974 10.3385 17.9692 10.6714 17.9297 10.9987H20.0008V9.00098H17.9297V9.00098Z" fill="#F9F9F9"/>
<path d="M11.0001 5.99902H8.99665V9.00132H6V10.9991H8.99665V13.9957H11.0001V10.9991H13.9967V9.00132H11.0001V5.99902Z" fill="#F9F9F9"/>
</svg>
