<svg width="15" height="20" viewBox="0 0 15 20" fill="none" xmlns="http://www.w3.org/2000/svg">
<path d="M10.5048 2.8576H9.71456V2.28512H10.2854V0H4.57184V2.28512H5.14272V2.8576H4.35091L0 7.20852V15.6475L4.35091 20H10.5048L14.8573 15.6475V7.20852L10.5048 2.8576Z" fill="#FAFAFA"/>
<path d="M10.2687 3.42871H4.58741L0.570312 7.4458V15.4106L4.58741 19.4277H10.2687L14.2842 15.4106V7.4458L10.2687 3.42871Z" fill="#1E1E1E"/>
<path d="M5.71345 2.85802H9.14193V1.71465H9.71442V0.571289H5.14258V1.71465H5.71345V2.85802Z" fill="#1E1E1E"/>
<path d="M10.2847 9.14258L9.14133 12.1905L7.99958 9.14258H6.85621L5.71285 12.1905L4.5711 9.14258H3.42773L5.14197 13.7144H6.28534L7.42709 10.6665L8.57045 13.7144H9.71382L11.4281 9.14258H10.2847Z" fill="#FAFAFA"/>
</svg>
