<svg width="275" height="76" viewBox="0 0 275 76" fill="none" xmlns="http://www.w3.org/2000/svg">
<path d="M0.826172 75.7228H24.0372C24.0372 62.9097 34.4214 52.5118 47.2482 52.5118V29.3008C21.6083 29.3008 0.826172 50.0829 0.826172 75.7228V75.7228Z" fill="#323333"/>
<path d="M47.2482 0.292969H0.826172C0.826172 13.1061 11.2104 23.5039 24.0372 23.5039H70.4455C70.4455 10.6908 60.0613 0.292969 47.2345 0.292969H47.2482Z" fill="#323333"/>
<path d="M97.4934 21.8985V36.0761H117.757V41.2341H97.4934V60.3924H92.0352V16.8633H120.213V21.8985H97.4934Z" fill="white"/>
<path d="M129.808 60.7769C125.264 60.7769 123.299 58.0751 123.299 53.1627V16.0742H128.525V52.8488C128.525 54.9366 129.207 56.0419 131.35 56.0419C133.069 56.0419 133.506 55.9873 133.506 55.9873V60.4084C133.506 60.4084 132.346 60.7769 129.821 60.7769H129.808Z" fill="white"/>
<path d="M156.456 60.4106L156.033 55.6893C154.436 59.2508 150.452 61.1475 146.822 61.1475C139.768 61.1475 136.206 56.9174 136.206 49.7262V29.3398H141.419V48.9894C141.419 53.6561 143.138 56.4125 148.05 56.4125C150.138 56.4125 151.857 55.4983 153.208 54.0791C155.173 52.0596 155.787 48.6755 155.787 45.4825V29.3398H161V60.4106H156.456V60.4106Z" fill="white"/>
<path d="M193.092 46.5881H171.11C171.11 49.4128 172.215 52.483 174.125 54.3797C175.544 55.7852 177.441 56.5903 179.829 56.5903C182.217 56.5903 184.318 55.9217 185.601 54.5708C186.461 53.7111 187.007 52.8514 187.443 51.2003H192.533C192.11 54.2706 190.254 57.1498 187.743 58.8691C185.533 60.3428 182.776 61.2025 179.829 61.2025C175.476 61.2025 171.915 59.3603 169.513 56.5357C166.934 53.5201 165.651 49.4128 165.651 44.9916C165.651 41.2391 166.334 37.9369 168.039 35.0441C170.25 31.2915 174.357 28.5352 179.761 28.5352C183.745 28.5352 186.938 30.0634 189.217 32.5196C191.728 35.276 193.202 39.2742 193.147 43.4497L193.092 46.5745V46.5881ZM185.915 35.7809C184.619 34.0616 182.544 32.9563 179.774 32.9563C174.125 32.9563 171.355 37.5685 171.246 42.1124H187.825C187.825 39.779 187.143 37.4457 185.929 35.7946L185.915 35.7809Z" fill="white"/>
<path d="M217.657 60.4091V40.705C217.657 36.0383 215.746 33.2819 210.834 33.2819C207.818 33.2819 205.43 35.2468 204.08 38.0714C203.042 40.3502 202.974 43.5979 202.974 45.9858V60.4091H197.748V29.3383H202.292L202.729 34.0051C204.325 30.4436 208.624 28.5469 212.117 28.5469C219.171 28.5469 222.856 32.777 222.856 39.9682V60.4091H217.643H217.657Z" fill="white"/>
<path d="M250.159 57.8301C247.948 59.9861 245.001 61.2006 241.194 61.2006C235.613 61.2006 232.038 58.6216 229.827 55.3739C228.176 52.9177 227.248 49.5337 227.248 44.8669C227.248 40.2001 228.162 36.8297 229.827 34.3735C232.038 31.1259 235.545 28.5469 241.126 28.5469C244.81 28.5469 247.812 29.775 249.968 31.8627C252.056 33.8823 253.406 36.4749 253.652 39.8453H248.371C248.126 37.6894 247.334 36.1611 246.161 35.0012C244.933 33.8277 243.145 33.0908 241.126 33.0908C238.738 33.0908 237.073 33.9505 235.722 35.124C233.266 37.2118 232.597 41.0871 232.597 44.8805C232.597 48.674 233.279 52.5493 235.722 54.6507C237.073 55.8106 238.738 56.6703 241.126 56.6703C243.282 56.6703 245.178 55.8788 246.406 54.5825C247.512 53.409 248.248 52.0035 248.494 49.9703H253.775C253.529 53.2862 252.247 55.7969 250.145 57.8301H250.159Z" fill="white"/>
<path d="M272.008 34.1777C269.552 34.1777 267.519 35.283 266.113 36.6339C263.603 39.0219 263.289 43.3339 263.289 46.5815V60.3907H258.131V29.3199H262.743L263.18 34.7781C264.776 30.971 268.515 29.1289 272.445 29.1289C273.236 29.1289 274.11 29.1971 274.901 29.3199V34.4097C273.973 34.2323 272.936 34.1641 272.008 34.1641V34.1777Z" fill="white"/>
</svg>
