<svg width="554" height="2" viewBox="0 0 554 2" fill="none" xmlns="http://www.w3.org/2000/svg">
<path d="M1 -2.41724e-05C1.2652 -2.41608e-05 1.51953 0.105286 1.70709 0.292823C1.89465 0.480359 2 0.734759 2 0.999976C2 1.26519 1.89465 1.51959 1.70709 1.70713C1.51953 1.89467 1.2652 1.99998 1 1.99998C0.734802 1.99998 0.480469 1.89467 0.292908 1.70713C0.105347 1.51959 -5.53043e-08 1.26519 -4.37113e-08 0.999976C-3.21185e-08 0.734759 0.105347 0.480359 0.292908 0.292822C0.480469 0.105286 0.734802 -2.4184e-05 1 -2.41724e-05ZM13 -2.36479e-05C13.2652 -2.36363e-05 13.5195 0.105287 13.7071 0.292823C13.8947 0.480359 14 0.73476 14 0.999976C14 1.26519 13.8947 1.51959 13.7071 1.70713C13.5195 1.89467 13.2652 1.99998 13 1.99998C12.7348 1.99998 12.4805 1.89467 12.2929 1.70713C12.1053 1.51959 12 1.26519 12 0.999976C12 0.73476 12.1053 0.480359 12.2929 0.292823C12.4805 0.105287 12.7348 -2.36595e-05 13 -2.36479e-05ZM25 -2.31233e-05C25.2652 -2.31117e-05 25.5195 0.105287 25.7071 0.292824C25.8947 0.48036 26 0.73476 26 0.999977C26 1.26519 25.8947 1.51959 25.7071 1.70713C25.5195 1.89467 25.2652 1.99998 25 1.99998C24.7348 1.99998 24.4805 1.89467 24.2929 1.70713C24.1053 1.51959 24 1.26519 24 0.999977C24 0.73476 24.1053 0.48036 24.2929 0.292824C24.4805 0.105287 24.7348 -2.31349e-05 25 -2.31233e-05ZM37 -2.25988e-05C37.2652 -2.25872e-05 37.5195 0.105288 37.7071 0.292824C37.8947 0.48036 38 0.734761 38 0.999977C38 1.26519 37.8947 1.51959 37.7071 1.70713C37.5195 1.89467 37.2652 1.99998 37 1.99998C36.7348 1.99998 36.4805 1.89467 36.2929 1.70713C36.1053 1.51959 36 1.26519 36 0.999977C36 0.734761 36.1053 0.48036 36.2929 0.292824C36.4805 0.105288 36.7348 -2.26104e-05 37 -2.25988e-05ZM49 -2.20743e-05C49.2652 -2.20627e-05 49.5196 0.105288 49.7071 0.292825C49.8946 0.480361 50 0.734761 50 0.999978C50 1.26519 49.8946 1.51959 49.7071 1.70713C49.5196 1.89467 49.2652 1.99998 49 1.99998C48.7348 1.99998 48.4804 1.89467 48.2929 1.70713C48.1054 1.51959 48 1.26519 48 0.999978C48 0.734761 48.1054 0.480361 48.2929 0.292825C48.4804 0.105288 48.7348 -2.20858e-05 49 -2.20743e-05ZM61 -2.15497e-05C61.2652 -2.15381e-05 61.5196 0.105289 61.7071 0.292825C61.8946 0.480362 62 0.734762 62 0.999978C62 1.26519 61.8946 1.5196 61.7071 1.70713C61.5196 1.89467 61.2652 1.99998 61 1.99998C60.7348 1.99998 60.4804 1.89467 60.2929 1.70713C60.1054 1.5196 60 1.26519 60 0.999978C60 0.734762 60.1054 0.480361 60.2929 0.292825C60.4804 0.105289 60.7348 -2.15613e-05 61 -2.15497e-05ZM73 -2.10252e-05C73.2652 -2.10136e-05 73.5196 0.105289 73.7071 0.292826C73.8946 0.480362 74 0.734763 74 0.999979C74 1.2652 73.8946 1.5196 73.7071 1.70713C73.5196 1.89467 73.2652 1.99998 73 1.99998C72.7348 1.99998 72.4804 1.89467 72.2929 1.70713C72.1054 1.5196 72 1.2652 72 0.999979C72 0.734762 72.1054 0.480362 72.2929 0.292826C72.4804 0.105289 72.7348 -2.10368e-05 73 -2.10252e-05ZM85 -2.05006e-05C85.2652 -2.0489e-05 85.5196 0.10529 85.7071 0.292826C85.8946 0.480363 86 0.734763 86 0.99998C86 1.2652 85.8946 1.5196 85.7071 1.70713C85.5196 1.89467 85.2652 1.99998 85 1.99998C84.7348 1.99998 84.4804 1.89467 84.2929 1.70713C84.1054 1.5196 84 1.2652 84 0.999979C84 0.734763 84.1054 0.480362 84.2929 0.292826C84.4804 0.10529 84.7348 -2.05122e-05 85 -2.05006e-05ZM97 -1.99761e-05C97.2652 -1.99645e-05 97.5196 0.10529 97.7071 0.292827C97.8946 0.480363 98 0.734764 98 0.99998C98 1.2652 97.8946 1.5196 97.7071 1.70713C97.5196 1.89467 97.2652 1.99998 97 1.99998C96.7348 1.99998 96.4804 1.89467 96.2929 1.70713C96.1054 1.5196 96 1.2652 96 0.99998C96 0.734764 96.1054 0.480363 96.2929 0.292827C96.4804 0.10529 96.7348 -1.99877e-05 97 -1.99761e-05ZM109 -1.94516e-05C109.265 -1.944e-05 109.52 0.105291 109.707 0.292827C109.895 0.480364 110 0.734764 110 0.999981C110 1.2652 109.895 1.5196 109.707 1.70713C109.52 1.89467 109.265 1.99998 109 1.99998C108.735 1.99998 108.48 1.89467 108.293 1.70713C108.105 1.5196 108 1.2652 108 0.999981C108 0.734764 108.105 0.480364 108.293 0.292827C108.48 0.105291 108.735 -1.94632e-05 109 -1.94516e-05ZM121 -1.8927e-05C121.265 -1.89154e-05 121.52 0.105291 121.707 0.292828C121.895 0.480364 122 0.734765 122 0.999981C122 1.2652 121.895 1.5196 121.707 1.70713C121.52 1.89467 121.265 1.99998 121 1.99998C120.735 1.99998 120.48 1.89467 120.293 1.70713C120.105 1.5196 120 1.2652 120 0.999981C120 0.734765 120.105 0.480364 120.293 0.292828C120.48 0.105291 120.735 -1.89386e-05 121 -1.8927e-05ZM133 -1.84025e-05C133.265 -1.83909e-05 133.52 0.105292 133.707 0.292828C133.895 0.480365 134 0.734765 134 0.999982C134 1.2652 133.895 1.5196 133.707 1.70713C133.52 1.89467 133.265 1.99998 133 1.99998C132.735 1.99998 132.48 1.89467 132.293 1.70713C132.105 1.5196 132 1.2652 132 0.999982C132 0.734765 132.105 0.480365 132.293 0.292828C132.48 0.105292 132.735 -1.84141e-05 133 -1.84025e-05ZM145 -1.7878e-05C145.265 -1.78664e-05 145.52 0.105292 145.707 0.292829C145.895 0.480365 146 0.734766 146 0.999982C146 1.2652 145.895 1.5196 145.707 1.70714C145.52 1.89467 145.265 1.99998 145 1.99998C144.735 1.99998 144.48 1.89467 144.293 1.70714C144.105 1.5196 144 1.2652 144 0.999982C144 0.734766 144.105 0.480365 144.293 0.292829C144.48 0.105292 144.735 -1.78896e-05 145 -1.7878e-05ZM157 -1.73534e-05C157.265 -1.73418e-05 157.52 0.105293 157.707 0.292829C157.895 0.480366 158 0.734766 158 0.999983C158 1.2652 157.895 1.5196 157.707 1.70714C157.52 1.89467 157.265 1.99998 157 1.99998C156.735 1.99998 156.48 1.89467 156.293 1.70714C156.105 1.5196 156 1.2652 156 0.999983C156 0.734766 156.105 0.480366 156.293 0.292829C156.48 0.105293 156.735 -1.7365e-05 157 -1.73534e-05ZM169 -1.68289e-05C169.265 -1.68173e-05 169.52 0.105293 169.707 0.29283C169.895 0.480366 170 0.734767 170 0.999983C170 1.2652 169.895 1.5196 169.707 1.70714C169.52 1.89467 169.265 1.99998 169 1.99998C168.735 1.99998 168.48 1.89467 168.293 1.70714C168.105 1.5196 168 1.2652 168 0.999983C168 0.734767 168.105 0.480366 168.293 0.29283C168.48 0.105293 168.735 -1.68405e-05 169 -1.68289e-05ZM181 -1.63043e-05C181.265 -1.62928e-05 181.52 0.105294 181.707 0.29283C181.895 0.480367 182 0.734767 182 0.999984C182 1.2652 181.895 1.5196 181.707 1.70714C181.52 1.89467 181.265 1.99998 181 1.99998C180.735 1.99998 180.48 1.89467 180.293 1.70714C180.105 1.5196 180 1.2652 180 0.999984C180 0.734767 180.105 0.480367 180.293 0.29283C180.48 0.105294 180.735 -1.63159e-05 181 -1.63043e-05ZM193 -1.57798e-05C193.265 -1.57682e-05 193.52 0.105295 193.707 0.292831C193.895 0.480367 194 0.734768 194 0.999984C194 1.2652 193.895 1.5196 193.707 1.70714C193.52 1.89467 193.265 1.99998 193 1.99998C192.735 1.99998 192.48 1.89467 192.293 1.70714C192.105 1.5196 192 1.2652 192 0.999984C192 0.734768 192.105 0.480367 192.293 0.292831C192.48 0.105295 192.735 -1.57914e-05 193 -1.57798e-05ZM205 -1.52553e-05C205.265 -1.52437e-05 205.52 0.105295 205.707 0.292831C205.895 0.480368 206 0.734768 206 0.999985C206 1.2652 205.895 1.5196 205.707 1.70714C205.52 1.89467 205.265 1.99998 205 1.99998C204.735 1.99998 204.48 1.89467 204.293 1.70714C204.105 1.5196 204 1.2652 204 0.999985C204 0.734768 204.105 0.480368 204.293 0.292831C204.48 0.105295 204.735 -1.52669e-05 205 -1.52553e-05ZM217 -1.47307e-05C217.265 -1.47191e-05 217.52 0.105296 217.707 0.292832C217.895 0.480368 218 0.734769 218 0.999985C218 1.2652 217.895 1.5196 217.707 1.70714C217.52 1.89467 217.265 1.99999 217 1.99999C216.735 1.99999 216.48 1.89467 216.293 1.70714C216.105 1.5196 216 1.2652 216 0.999985C216 0.734769 216.105 0.480368 216.293 0.292832C216.48 0.105296 216.735 -1.47423e-05 217 -1.47307e-05ZM229 -1.42062e-05C229.265 -1.41946e-05 229.52 0.105296 229.707 0.292833C229.895 0.480369 230 0.734769 230 0.999986C230 1.2652 229.895 1.5196 229.707 1.70714C229.52 1.89468 229.265 1.99999 229 1.99999C228.735 1.99999 228.48 1.89468 228.293 1.70714C228.105 1.5196 228 1.2652 228 0.999986C228 0.734769 228.105 0.480369 228.293 0.292832C228.48 0.105296 228.735 -1.42178e-05 229 -1.42062e-05ZM241 -1.36817e-05C241.265 -1.36701e-05 241.52 0.105297 241.707 0.292833C241.895 0.480369 242 0.73477 242 0.999986C242 1.2652 241.895 1.5196 241.707 1.70714C241.52 1.89468 241.265 1.99999 241 1.99999C240.735 1.99999 240.48 1.89468 240.293 1.70714C240.105 1.5196 240 1.2652 240 0.999986C240 0.73477 240.105 0.480369 240.293 0.292833C240.48 0.105297 240.735 -1.36933e-05 241 -1.36817e-05ZM253 -1.31571e-05C253.265 -1.31455e-05 253.52 0.105297 253.707 0.292834C253.895 0.48037 254 0.73477 254 0.999987C254 1.2652 253.895 1.5196 253.707 1.70714C253.52 1.89468 253.265 1.99999 253 1.99999C252.735 1.99999 252.48 1.89468 252.293 1.70714C252.105 1.5196 252 1.2652 252 0.999987C252 0.73477 252.105 0.48037 252.293 0.292833C252.48 0.105297 252.735 -1.31687e-05 253 -1.31571e-05ZM265 -1.26326e-05C265.265 -1.2621e-05 265.52 0.105298 265.707 0.292834C265.895 0.48037 266 0.734771 266 0.999987C266 1.2652 265.895 1.5196 265.707 1.70714C265.52 1.89468 265.265 1.99999 265 1.99999C264.735 1.99999 264.48 1.89468 264.293 1.70714C264.105 1.5196 264 1.2652 264 0.999987C264 0.734771 264.105 0.48037 264.293 0.292834C264.48 0.105298 264.735 -1.26442e-05 265 -1.26326e-05ZM277 -1.21081e-05C277.265 -1.20965e-05 277.52 0.105298 277.707 0.292835C277.895 0.480371 278 0.734771 278 0.999988C278 1.2652 277.895 1.5196 277.707 1.70714C277.52 1.89468 277.265 1.99999 277 1.99999C276.735 1.99999 276.48 1.89468 276.293 1.70714C276.105 1.5196 276 1.2652 276 0.999988C276 0.734771 276.105 0.480371 276.293 0.292835C276.48 0.105298 276.735 -1.21196e-05 277 -1.21081e-05ZM289 -1.15835e-05C289.265 -1.15719e-05 289.52 0.105299 289.707 0.292835C289.895 0.480371 290 0.734772 290 0.999988C290 1.2652 289.895 1.51961 289.707 1.70714C289.52 1.89468 289.265 1.99999 289 1.99999C288.735 1.99999 288.48 1.89468 288.293 1.70714C288.105 1.51961 288 1.2652 288 0.999988C288 0.734772 288.105 0.480371 288.293 0.292835C288.48 0.105299 288.735 -1.15951e-05 289 -1.15835e-05ZM301 -1.1059e-05C301.265 -1.10474e-05 301.52 0.105299 301.707 0.292836C301.895 0.480372 302 0.734773 302 0.999989C302 1.26521 301.895 1.51961 301.707 1.70714C301.52 1.89468 301.265 1.99999 301 1.99999C300.735 1.99999 300.48 1.89468 300.293 1.70714C300.105 1.51961 300 1.26521 300 0.999989C300 0.734772 300.105 0.480372 300.293 0.292836C300.48 0.105299 300.735 -1.10706e-05 301 -1.1059e-05ZM313 -1.05344e-05C313.265 -1.05229e-05 313.52 0.1053 313.707 0.292836C313.895 0.480373 314 0.734773 314 0.99999C314 1.26521 313.895 1.51961 313.707 1.70714C313.52 1.89468 313.265 1.99999 313 1.99999C312.735 1.99999 312.48 1.89468 312.293 1.70714C312.105 1.51961 312 1.26521 312 0.999989C312 0.734773 312.105 0.480372 312.293 0.292836C312.48 0.1053 312.735 -1.0546e-05 313 -1.05344e-05ZM325 -1.00099e-05C325.265 -9.99832e-06 325.52 0.1053 325.707 0.292837C325.895 0.480373 326 0.734774 326 0.99999C326 1.26521 325.895 1.51961 325.707 1.70714C325.52 1.89468 325.265 1.99999 325 1.99999C324.735 1.99999 324.48 1.89468 324.293 1.70714C324.105 1.51961 324 1.26521 324 0.99999C324 0.734773 324.105 0.480373 324.293 0.292837C324.48 0.1053 324.735 -1.00215e-05 325 -1.00099e-05ZM337 -9.48537e-06C337.265 -9.47378e-06 337.52 0.105301 337.707 0.292837C337.895 0.480374 338 0.734774 338 0.999991C338 1.26521 337.895 1.51961 337.707 1.70714C337.52 1.89468 337.265 1.99999 337 1.99999C336.735 1.99999 336.48 1.89468 336.293 1.70714C336.105 1.51961 336 1.26521 336 0.99999C336 0.734774 336.105 0.480374 336.293 0.292837C336.48 0.105301 336.735 -9.49696e-06 337 -9.48537e-06ZM349 -8.96083e-06C349.265 -8.94924e-06 349.52 0.105301 349.707 0.292838C349.895 0.480374 350 0.734775 350 0.999991C350 1.26521 349.895 1.51961 349.707 1.70714C349.52 1.89468 349.265 1.99999 349 1.99999C348.735 1.99999 348.48 1.89468 348.293 1.70714C348.105 1.51961 348 1.26521 348 0.999991C348 0.734775 348.105 0.480374 348.293 0.292838C348.48 0.105301 348.735 -8.97243e-06 349 -8.96083e-06ZM361 -8.4363e-06C361.265 -8.42471e-06 361.52 0.105302 361.707 0.292838C361.895 0.480375 362 0.734775 362 0.999992C362 1.26521 361.895 1.51961 361.707 1.70714C361.52 1.89468 361.265 1.99999 361 1.99999C360.735 1.99999 360.48 1.89468 360.293 1.70714C360.105 1.51961 360 1.26521 360 0.999992C360 0.734775 360.105 0.480375 360.293 0.292838C360.48 0.105302 360.735 -8.44789e-06 361 -8.4363e-06ZM373 -7.91176e-06C373.265 -7.90017e-06 373.52 0.105302 373.707 0.292839C373.895 0.480375 374 0.734776 374 0.999992C374 1.26521 373.895 1.51961 373.707 1.70715C373.52 1.89468 373.265 1.99999 373 1.99999C372.735 1.99999 372.48 1.89468 372.293 1.70715C372.105 1.51961 372 1.26521 372 0.999992C372 0.734776 372.105 0.480375 372.293 0.292839C372.48 0.105302 372.735 -7.92335e-06 373 -7.91176e-06ZM385 -7.38722e-06C385.265 -7.37563e-06 385.52 0.105303 385.707 0.292839C385.895 0.480376 386 0.734776 386 0.999993C386 1.26521 385.895 1.51961 385.707 1.70715C385.52 1.89468 385.265 1.99999 385 1.99999C384.735 1.99999 384.48 1.89468 384.293 1.70715C384.105 1.51961 384 1.26521 384 0.999993C384 0.734776 384.105 0.480376 384.293 0.292839C384.48 0.105303 384.735 -7.39882e-06 385 -7.38722e-06ZM397 -6.86269e-06C397.265 -6.8511e-06 397.52 0.105303 397.707 0.29284C397.895 0.480376 398 0.734777 398 0.999993C398 1.26521 397.895 1.51961 397.707 1.70715C397.52 1.89468 397.265 1.99999 397 1.99999C396.735 1.99999 396.48 1.89468 396.293 1.70715C396.105 1.51961 396 1.26521 396 0.999993C396 0.734777 396.105 0.480376 396.293 0.29284C396.48 0.105303 396.735 -6.87428e-06 397 -6.86269e-06ZM409 -6.33815e-06C409.265 -6.32656e-06 409.52 0.105304 409.707 0.29284C409.895 0.480377 410 0.734777 410 0.999994C410 1.26521 409.895 1.51961 409.707 1.70715C409.52 1.89468 409.265 1.99999 409 1.99999C408.735 1.99999 408.48 1.89468 408.293 1.70715C408.105 1.51961 408 1.26521 408 0.999994C408 0.734777 408.105 0.480377 408.293 0.29284C408.48 0.105304 408.735 -6.34974e-06 409 -6.33815e-06ZM421 -5.81361e-06C421.265 -5.80202e-06 421.52 0.105305 421.707 0.292841C421.895 0.480377 422 0.734778 422 0.999994C422 1.26521 421.895 1.51961 421.707 1.70715C421.52 1.89468 421.265 1.99999 421 1.99999C420.735 1.99999 420.48 1.89468 420.293 1.70715C420.105 1.51961 420 1.26521 420 0.999994C420 0.734778 420.105 0.480377 420.293 0.292841C420.48 0.105304 420.735 -5.82521e-06 421 -5.81361e-06ZM433 -5.28908e-06C433.265 -5.27749e-06 433.52 0.105305 433.707 0.292841C433.895 0.480378 434 0.734778 434 0.999995C434 1.26521 433.895 1.51961 433.707 1.70715C433.52 1.89468 433.265 1.99999 433 1.99999C432.735 1.99999 432.48 1.89468 432.293 1.70715C432.105 1.51961 432 1.26521 432 0.999995C432 0.734778 432.105 0.480378 432.293 0.292841C432.48 0.105305 432.735 -5.30067e-06 433 -5.28908e-06ZM445 -4.76454e-06C445.265 -4.75295e-06 445.52 0.105306 445.707 0.292842C445.895 0.480378 446 0.734779 446 0.999995C446 1.26521 445.895 1.51961 445.707 1.70715C445.52 1.89468 445.265 2 445 2C444.735 2 444.48 1.89468 444.293 1.70715C444.105 1.51961 444 1.26521 444 0.999995C444 0.734779 444.105 0.480378 444.293 0.292842C444.48 0.105306 444.735 -4.77613e-06 445 -4.76454e-06ZM457 -4.24e-06C457.265 -4.22841e-06 457.52 0.105306 457.707 0.292842C457.895 0.480379 458 0.734779 458 0.999996C458 1.26521 457.895 1.51961 457.707 1.70715C457.52 1.89469 457.265 2 457 2C456.735 2 456.48 1.89469 456.293 1.70715C456.105 1.51961 456 1.26521 456 0.999996C456 0.734779 456.105 0.480379 456.293 0.292842C456.48 0.105306 456.735 -4.2516e-06 457 -4.24e-06ZM469 -3.71547e-06C469.265 -3.70388e-06 469.52 0.105307 469.707 0.292843C469.895 0.480379 470 0.73478 470 0.999996C470 1.26521 469.895 1.51961 469.707 1.70715C469.52 1.89469 469.265 2 469 2C468.735 2 468.48 1.89469 468.293 1.70715C468.105 1.51961 468 1.26521 468 0.999996C468 0.73478 468.105 0.480379 468.293 0.292843C468.48 0.105307 468.735 -3.72706e-06 469 -3.71547e-06ZM481 -3.19093e-06C481.265 -3.17934e-06 481.52 0.105307 481.707 0.292844C481.895 0.48038 482 0.73478 482 0.999997C482 1.26521 481.895 1.51961 481.707 1.70715C481.52 1.89469 481.265 2 481 2C480.735 2 480.48 1.89469 480.293 1.70715C480.105 1.51961 480 1.26521 480 0.999997C480 0.73478 480.105 0.48038 480.293 0.292843C480.48 0.105307 480.735 -3.20252e-06 481 -3.19093e-06ZM493 -2.66639e-06C493.265 -2.6548e-06 493.52 0.105308 493.707 0.292844C493.895 0.48038 494 0.734781 494 0.999997C494 1.26521 493.895 1.51961 493.707 1.70715C493.52 1.89469 493.265 2 493 2C492.735 2 492.48 1.89469 492.293 1.70715C492.105 1.51961 492 1.26521 492 0.999997C492 0.734781 492.105 0.48038 492.293 0.292844C492.48 0.105308 492.735 -2.67799e-06 493 -2.66639e-06ZM505 -2.14186e-06C505.265 -2.13027e-06 505.52 0.105308 505.707 0.292845C505.895 0.480381 506 0.734781 506 0.999998C506 1.26521 505.895 1.51961 505.707 1.70715C505.52 1.89469 505.265 2 505 2C504.735 2 504.48 1.89469 504.293 1.70715C504.105 1.51961 504 1.26521 504 0.999998C504 0.734781 504.105 0.480381 504.293 0.292845C504.48 0.105308 504.735 -2.15345e-06 505 -2.14186e-06ZM517 -1.61732e-06C517.265 -1.60573e-06 517.52 0.105309 517.707 0.292845C517.895 0.480381 518 0.734782 518 0.999998C518 1.26521 517.895 1.51962 517.707 1.70715C517.52 1.89469 517.265 2 517 2C516.735 2 516.48 1.89469 516.293 1.70715C516.105 1.51962 516 1.26521 516 0.999998C516 0.734782 516.105 0.480381 516.293 0.292845C516.48 0.105309 516.735 -1.62891e-06 517 -1.61732e-06ZM529 -1.09278e-06C529.265 -1.08119e-06 529.52 0.105309 529.707 0.292846C529.895 0.480382 530 0.734782 530 0.999999C530 1.26522 529.895 1.51962 529.707 1.70715C529.52 1.89469 529.265 2 529 2C528.735 2 528.48 1.89469 528.293 1.70715C528.105 1.51962 528 1.26522 528 0.999999C528 0.734782 528.105 0.480382 528.293 0.292846C528.48 0.105309 528.735 -1.10438e-06 529 -1.09278e-06ZM541 -5.68248e-07C541.265 -5.56655e-07 541.52 0.10531 541.707 0.292846C541.895 0.480383 542 0.734783 542 0.999999C542 1.26522 541.895 1.51962 541.707 1.70715C541.52 1.89469 541.265 2 541 2C540.735 2 540.48 1.89469 540.293 1.70715C540.105 1.51962 540 1.26522 540 0.999999C540 0.734783 540.105 0.480382 540.293 0.292846C540.48 0.10531 540.735 -5.79841e-07 541 -5.68248e-07ZM553 -4.37114e-08C553.265 -3.21184e-08 553.52 0.10531 553.707 0.292847C553.895 0.480383 554 0.734784 554 1C554 1.26522 553.895 1.51962 553.707 1.70715C553.52 1.89469 553.265 2 553 2C552.735 2 552.48 1.89469 552.293 1.70715C552.105 1.51962 552 1.26522 552 1C552 0.734783 552.105 0.480383 552.293 0.292847C552.48 0.10531 552.735 -5.53044e-08 553 -4.37114e-08Z" fill="#002FA7"/>
</svg>
