<svg width="128" height="27" viewBox="0 0 128 27" fill="none" xmlns="http://www.w3.org/2000/svg">
<path d="M7.16049 10.2103C5.66259 10.2103 4.42497 10.7162 3.39362 11.7623V0H0V25.1452H3.39362V18.1222C3.39362 16.2658 3.59498 15.1854 4.06154 14.5027C4.44461 13.9281 5.2746 13.3191 6.45328 13.3191C7.18996 13.3191 7.85297 13.5892 8.27533 14.0607C8.90396 14.7728 8.90396 15.6716 8.90396 16.5408V25.1452H12.2976V16.2314C12.2976 15.3622 12.2976 13.5548 11.3792 12.1846C10.8684 11.448 9.64064 10.2054 7.16049 10.2054V10.2103Z" fill="white"/>
<path d="M27.9642 12.1897C26.6775 10.5542 24.988 10.2104 23.7897 10.2104C21.9038 10.2104 20.1653 10.9373 18.8982 12.2584C17.5476 13.663 16.8306 15.598 16.8306 17.8522C16.8306 19.9002 17.4739 21.8057 18.6379 23.2251C19.9099 24.777 21.6828 25.5972 23.7553 25.5972C24.9291 25.5972 26.5989 25.2681 27.9642 23.7113V25.1502H31.3578V10.5886H27.9642V12.1897ZM24.1973 22.4835C21.9333 22.4835 20.2929 20.5632 20.2929 17.921C20.2929 15.2788 21.9333 13.3241 24.1973 13.3241C26.9427 13.3241 28.1705 15.652 28.1705 17.9554C28.1705 21.0838 26.1765 22.4835 24.1973 22.4835Z" fill="white"/>
<path d="M42.4816 18.7753L38.8768 10.6129L38.867 10.5884H35.0608L42.4816 26.2354L49.8729 10.6473L49.9024 10.5884H46.0962L42.4816 18.7753Z" fill="white"/>
<path d="M58.9097 10.2104C57.0189 10.2104 55.408 10.8735 54.1213 12.1847C52.6774 13.6876 51.8474 15.8681 51.8474 18.1616C51.8474 20.4552 52.5939 22.346 53.9494 23.726C55.2165 25.0176 56.7046 25.5972 58.7722 25.5972C60.4027 25.5972 61.8957 25.2043 62.9761 24.4921C63.8994 23.8979 64.7785 22.9304 65.3875 21.8303L65.4072 21.791L62.5685 20.1654L62.5489 20.2047C62.3033 20.6467 61.8809 21.2753 61.2425 21.7714C60.5893 22.2723 59.9214 22.4835 59.0079 22.4835C58.2614 22.4835 57.3037 22.3803 56.5081 21.57C55.8598 20.907 55.3884 19.7922 55.3098 18.7215H65.4956V18.2648C65.4956 15.5489 64.8424 13.5402 63.4918 12.116C62.6716 11.2467 61.213 10.2104 58.9048 10.2104H58.9097ZM58.8409 13.1817C59.941 13.1817 60.6433 13.6237 61.0362 13.997C61.5421 14.4733 61.8908 15.1413 62.0283 15.8829H55.5554C55.7272 15.1855 56.0956 14.5225 56.5425 14.1001C56.9501 13.6826 57.6819 13.1866 58.8409 13.1866V13.1817Z" fill="white"/>
<path d="M77.7637 10.2103C76.5654 10.2103 74.8759 10.559 73.5892 12.1895V0H70.1956V25.1452H73.5892V23.7063C74.9545 25.2631 76.6243 25.5921 77.7981 25.5921C82.3458 25.5921 84.7228 21.6976 84.7228 17.8472C84.7228 15.593 84.0107 13.658 82.6552 12.2534C81.3881 10.9323 79.6496 10.2054 77.7637 10.2054V10.2103ZM77.361 13.3191C79.625 13.3191 81.2654 15.2541 81.2654 17.916C81.2654 20.5778 79.625 22.4785 77.361 22.4785C75.3867 22.4785 73.3878 21.0788 73.3878 17.9504C73.3878 15.647 74.6156 13.3191 77.361 13.3191Z" fill="white"/>
<path d="M92.6492 0H89.2556V25.1452H92.6492V0Z" fill="white"/>
<path d="M106.597 18.9177C106.597 19.8263 106.553 20.7742 105.998 21.5059C105.536 22.1198 104.746 22.4882 103.872 22.4882C102.997 22.4882 102.207 22.1198 101.745 21.5059C101.195 20.7791 101.146 19.8312 101.146 18.9177V10.5884H97.7522V19.0209C97.7522 21.005 98.0076 22.498 99.2845 23.7945C100.782 25.3612 102.757 25.5969 103.803 25.5969C104.849 25.5969 106.916 25.3612 108.454 23.7945C109.726 22.498 109.986 21.005 109.986 19.0209V10.5884H106.592V18.9177H106.597Z" fill="white"/>
<path d="M128 18.2648C128 15.5489 127.347 13.5402 125.996 12.116C125.176 11.2467 123.718 10.2104 121.409 10.2104C119.519 10.2104 117.908 10.8735 116.621 12.1847C115.177 13.6876 114.347 15.8681 114.347 18.1616C114.347 20.4552 115.094 22.346 116.449 23.726C117.716 25.0176 119.204 25.5972 121.272 25.5972C122.902 25.5972 124.395 25.2043 125.476 24.4921C126.399 23.8979 127.278 22.9304 127.887 21.8303L127.907 21.791L125.068 20.1654L125.049 20.2047C124.803 20.6467 124.381 21.2753 123.742 21.7714C123.089 22.2723 122.421 22.4835 121.508 22.4835C120.761 22.4835 119.803 22.3803 119.008 21.57C118.36 20.907 117.888 19.7922 117.81 18.7215H127.995V18.2648H128ZM121.346 13.1866C122.446 13.1866 123.148 13.6286 123.541 14.0019C124.047 14.4783 124.395 15.1462 124.533 15.8878H118.06C118.232 15.1904 118.6 14.5274 119.047 14.105C119.455 13.6876 120.187 13.1915 121.346 13.1915V13.1866Z" fill="white"/>
</svg>
