<svg width="48" height="47" viewBox="0 0 48 47" fill="none" xmlns="http://www.w3.org/2000/svg">
<g clip-path="url(#clip0_2950_182543)">
<path d="M34.5615 43.2012H26.8804V46.0799H34.5615V43.2012Z" fill="#002FA7"/>
<path d="M34.5615 0H26.8804V2.87871H34.5615V0Z" fill="#002FA7"/>
<path d="M48 30.7207C48.0041 27.8855 46.9581 25.1491 45.0637 23.0397C46.5481 21.3831 47.521 19.3321 47.8647 17.1345C48.2084 14.937 47.9083 12.6869 47.0006 10.6562C46.0929 8.62554 44.6165 6.90123 42.7498 5.69168C40.8831 4.48213 38.7061 3.8391 36.4818 3.84033H13.4521V18.2407H21.1298V11.518H36.4919C37.5105 11.518 38.4873 11.9227 39.2076 12.6429C39.9278 13.3631 40.3325 14.34 40.3325 15.3586C40.3325 16.3772 39.9278 17.354 39.2076 18.0742C38.4873 18.7945 37.5105 19.1991 36.4919 19.1991H35.5301V26.8802H36.4919C37.0056 26.8649 37.5172 26.9529 37.9963 27.139C38.4754 27.3251 38.9122 27.6054 39.281 27.9634C39.6498 28.3213 39.9429 28.7497 40.1431 29.223C40.3433 29.6964 40.4465 30.2051 40.4465 30.7191C40.4465 31.233 40.3433 31.7417 40.1431 32.2151C39.9429 32.6884 39.6498 33.1168 39.281 33.4747C38.9122 33.8327 38.4754 34.113 37.9963 34.2991C37.5172 34.4852 37.0056 34.5732 36.4919 34.5579H21.1196V27.8386H13.4419V42.239H36.4716C37.9852 42.2408 39.4843 41.9441 40.8831 41.366C42.2819 40.7879 43.5531 39.9397 44.6238 38.87C45.6945 37.8002 46.5438 36.5298 47.1232 35.1315C47.7025 33.7331 48.0004 32.2343 48 30.7207Z" fill="#002FA7"/>
<path d="M26.8804 33.5997H34.5615V12.4801H26.8804V19.1993H7.68108V0H0V46.0797H7.68108V26.8804H26.8804V33.5997Z" fill="#002FA7"/>
</g>
<defs>
<clipPath id="clip0_2950_182543">
<rect width="48" height="46.0797" fill="white"/>
</clipPath>
</defs>
</svg>
