<svg width="181" height="24" viewBox="0 0 181 24" fill="none" xmlns="http://www.w3.org/2000/svg">
<g clip-path="url(#clip0_1029_73778)">
<path d="M0 0H6.36882L13.961 18.7106V0H18.1349V24H11.91L4.17391 4.89355V24H0V0Z" fill="white"/>
<path d="M48.5038 4.13793H41.5952V0H59.7301V4.13793H52.8216V24H48.5038V4.13793Z" fill="white"/>
<path d="M83.3342 0H90.6746L95.856 18.8546L101.001 0H108.234V24H104.024V2.77061L98.1588 24H93.4092L87.5801 2.77061V24H83.3342V0Z" fill="#FF0014"/>
<path d="M112.48 0H126.153C126.837 0 127.412 0.251874 127.88 0.71964L129.859 2.69865C130.363 3.2024 130.615 3.77811 130.615 4.49775V10.1109C130.615 10.7946 130.363 11.4063 129.859 11.91L127.88 13.8891C127.376 14.3928 126.801 14.6087 126.117 14.6087H116.798V24H112.48V0ZM124.57 10.5067C124.786 10.5067 124.93 10.4348 125.073 10.2909L126.081 9.28336C126.225 9.13943 126.297 8.9955 126.297 8.77961V5.86507C126.297 5.64918 126.225 5.50525 126.081 5.36132L125.073 4.35382C124.93 4.2099 124.786 4.13793 124.57 4.13793H116.798V10.5067H124.57Z" fill="#FF0014"/>
<path d="M142.446 0H156.119C156.802 0 157.378 0.251874 157.846 0.71964L159.825 2.69865C160.329 3.2024 160.58 3.77811 160.58 4.49775V10.1109C160.58 10.7946 160.329 11.4063 159.825 11.91L157.846 13.8891C157.486 14.2489 156.91 14.6087 156.083 14.6087H155.507L162.344 24H157.45L150.937 14.8606C150.793 14.6447 150.577 14.6087 150.326 14.6087H146.763V24H142.446V0ZM154.536 10.5067C154.751 10.5067 154.895 10.4348 155.039 10.2909L156.047 9.28336C156.191 9.13943 156.263 8.9955 156.263 8.77961V5.86507C156.263 5.64918 156.191 5.50525 156.047 5.36132L155.003 4.31784C154.859 4.17391 154.715 4.10195 154.5 4.10195H146.763V10.5067H154.536Z" fill="#FF0014"/>
<path d="M138.207 0V24H133.889V0H138.207Z" fill="#FF0014"/>
<path d="M165.078 19.8621H180.946V24H165.078V19.8621Z" fill="#FF0014"/>
<path d="M165.078 9.93103H180.946V14.069H165.078V9.93103Z" fill="#FF0014"/>
<path d="M165.078 0H180.946V4.13793H165.078V0Z" fill="#FF0014"/>
<path d="M63.0044 19.8621H78.8725V24H63.0044V19.8621Z" fill="#FF0014"/>
<path d="M63.0044 9.93103H78.8725V14.069H63.0044V9.93103Z" fill="#FF0014"/>
<path d="M63.0044 0H78.8725V4.13793H63.0044V0Z" fill="#FF0014"/>
<path d="M22.5967 19.8621H38.4647V24H22.5967V19.8621Z" fill="white"/>
<path d="M22.5967 9.93103H38.4647V14.069H22.5967V9.93103Z" fill="white"/>
<path d="M22.5967 0H38.4647V4.13793H22.5967V0Z" fill="white"/>
</g>
<defs>
<clipPath id="clip0_1029_73778">
<rect width="180.954" height="24" fill="white"/>
</clipPath>
</defs>
</svg>
