<svg width="170" height="14" viewBox="0 0 170 14" fill="none" xmlns="http://www.w3.org/2000/svg">
<path d="M0 0.455586C0 0.420586 0 0.420586 0.0347023 0.385586C0.0694045 0.350586 0.0694045 0.350586 0.104107 0.350586H15.3037C16.3448 0.350586 17.247 0.735586 18.0105 1.47059C18.7392 2.24059 19.1209 3.15059 19.1209 4.20059V5.56559C19.1209 6.65059 18.7392 7.56059 18.0105 8.29559C17.2817 9.03059 16.3795 9.41559 15.3037 9.41559H2.67207V13.7206C2.67207 13.7556 2.67207 13.7906 2.63737 13.8256C2.60267 13.8606 2.60267 13.8606 2.53326 13.8606H0.104107C0.0694045 13.8606 0.0694045 13.8606 0.0347023 13.8256C0 13.7906 0 13.7556 0 13.7206V0.455586ZM15.3037 7.10559C15.616 7.10559 15.8936 7.00059 16.1018 6.75559C16.3101 6.51059 16.4489 6.26559 16.4489 5.95059V3.81559C16.4489 3.50059 16.3448 3.22059 16.1018 2.97559C15.8589 2.73059 15.616 2.62559 15.3037 2.62559H2.67207V7.07059H15.3037V7.10559Z" fill="#F9F9F9"/>
<path d="M42.2347 13.7206C42.2347 13.7556 42.2347 13.7556 42.2 13.7906C42.1653 13.8256 42.1653 13.8256 42.1306 13.8256H26.9657C25.8899 13.8256 24.9877 13.4406 24.2589 12.7056C23.5302 11.9706 23.1484 11.0606 23.1484 9.97559V0.455586C23.1484 0.420586 23.1484 0.385586 23.1831 0.350586H23.2178H25.6817C25.7164 0.350586 25.7511 0.350586 25.7858 0.385586C25.8205 0.420586 25.8205 0.420586 25.8205 0.490586V10.3956C25.8205 10.7106 25.9246 10.9906 26.1675 11.2006C26.4105 11.4106 26.6534 11.5506 27.0004 11.5506H42.1653C42.2 11.5506 42.2 11.5506 42.2347 11.5856C42.2694 11.6206 42.2694 11.6206 42.2694 11.6556V13.7206H42.2347Z" fill="#F9F9F9"/>
<path d="M46.2535 4.20059C46.2535 3.15059 46.6352 2.24059 47.3639 1.47059C48.0927 0.735586 48.9949 0.350586 50.0707 0.350586H61.5224C62.5635 0.350586 63.4658 0.735586 64.2292 1.47059C64.9927 2.20559 65.3397 3.11559 65.3397 4.20059V13.7206C65.3397 13.7556 65.3397 13.7906 65.305 13.8256C65.2703 13.8606 65.2703 13.8606 65.2009 13.8606H62.8064C62.7717 13.8606 62.7717 13.8606 62.737 13.8256C62.7023 13.7906 62.7023 13.7906 62.7023 13.7206V9.41559H48.9255V13.7206C48.9255 13.7556 48.9255 13.7906 48.8908 13.8256C48.8561 13.8606 48.8561 13.8606 48.8214 13.8606H46.3576C46.3229 13.8606 46.2882 13.8606 46.2535 13.8256C46.2188 13.7906 46.2188 13.7906 46.2188 13.7206V4.20059H46.2535ZM62.6676 7.10559V3.81559C62.6676 3.50059 62.5635 3.22059 62.3206 2.97559C62.0777 2.76559 61.8348 2.62559 61.5224 2.62559H50.0707C49.7584 2.62559 49.4808 2.73059 49.2378 2.97559C48.9949 3.22059 48.8908 3.46559 48.8908 3.81559V7.10559H62.6676Z" fill="#F9F9F9"/>
<path d="M85.8239 0.45543C85.8239 0.42043 85.8239 0.38543 85.8586 0.35043C85.8933 0.31543 85.8933 0.31543 85.9627 0.31543H88.4265C88.4612 0.31543 88.4612 0.31543 88.496 0.35043C88.5307 0.38543 88.5307 0.38543 88.5307 0.45543V13.7204C88.5307 13.7554 88.5307 13.7554 88.496 13.7904C88.4612 13.8254 88.4612 13.8254 88.4265 13.8254H83.4641H83.4294C82.3883 13.7904 81.5902 13.3704 81.0003 12.5304L74.7539 3.18543C74.5109 2.83543 74.1639 2.66043 73.7822 2.66043H72.0818V13.7204C72.0818 13.7554 72.0818 13.7554 72.0471 13.7904C72.0124 13.8254 72.0124 13.8254 71.943 13.8254H69.4791C69.4444 13.8254 69.4444 13.8254 69.4097 13.7904C69.375 13.7554 69.375 13.7554 69.375 13.7204V0.45543C69.375 0.42043 69.375 0.38543 69.4097 0.35043C69.4444 0.31543 69.4444 0.31543 69.4791 0.31543H74.4415H74.4762C75.5173 0.35043 76.3155 0.80543 76.9054 1.64543L83.1171 10.9904C83.36 11.3404 83.6723 11.5154 84.0888 11.5154H85.7892V0.45543H85.8239Z" fill="#F9F9F9"/>
<path d="M95.192 5.95059H109.593C109.628 5.95059 109.663 5.95059 109.698 5.98559C109.732 6.02059 109.732 6.02059 109.732 6.09059V8.15559C109.732 8.19059 109.732 8.22559 109.698 8.26059C109.663 8.29559 109.663 8.29559 109.593 8.29559H95.192V10.4306C95.192 10.7456 95.2962 11.0256 95.5391 11.2356C95.782 11.4456 96.0249 11.5856 96.3719 11.5856H111.537C111.572 11.5856 111.606 11.5856 111.641 11.6206C111.676 11.6556 111.676 11.6556 111.676 11.6906V13.7556C111.676 13.7906 111.676 13.8256 111.641 13.8606C111.606 13.8956 111.606 13.8956 111.537 13.8956H96.3719C95.2962 13.8956 94.3939 13.5106 93.6652 12.7756C92.9364 12.0406 92.5547 11.1306 92.5547 10.0456V4.20059C92.5547 3.11559 92.9364 2.20559 93.6652 1.47059C94.3939 0.735586 95.2962 0.350586 96.3719 0.350586H111.537C111.572 0.350586 111.606 0.350586 111.641 0.385586C111.676 0.420586 111.676 0.420586 111.676 0.490586V2.55559C111.676 2.59059 111.676 2.59059 111.641 2.62559C111.606 2.66059 111.606 2.66059 111.537 2.66059H96.3719C96.0596 2.66059 95.782 2.76559 95.5391 3.01059C95.3309 3.25559 95.192 3.50059 95.192 3.81559V5.95059Z" fill="#F9F9F9"/>
<path d="M115.628 0.45543C115.628 0.42043 115.628 0.38543 115.663 0.35043C115.698 0.31543 115.698 0.31543 115.733 0.31543H134.645C134.68 0.31543 134.68 0.31543 134.715 0.35043C134.749 0.38543 134.749 0.38543 134.749 0.45543V2.52043C134.749 2.55543 134.749 2.55543 134.715 2.59043C134.68 2.62543 134.68 2.62543 134.645 2.62543H126.525V13.6854C126.525 13.7204 126.525 13.7554 126.49 13.7904C126.456 13.8254 126.456 13.8254 126.421 13.8254H123.957C123.922 13.8254 123.888 13.8254 123.853 13.7904C123.818 13.7554 123.818 13.7554 123.818 13.6854V2.66043H115.698C115.663 2.66043 115.663 2.66043 115.628 2.62543C115.594 2.59043 115.594 2.59043 115.594 2.55543V0.45543H115.628Z" fill="#F9F9F9"/>
<path d="M145.957 13.7206C145.957 13.7556 145.957 13.7556 145.922 13.7906C145.887 13.8256 145.887 13.8256 145.818 13.8256H143.354C143.319 13.8256 143.319 13.8256 143.285 13.7906C143.25 13.7556 143.25 13.7556 143.25 13.7206V0.455586C143.25 0.420586 143.25 0.385586 143.285 0.350586C143.319 0.350586 143.354 0.350586 143.389 0.350586H145.853C145.887 0.350586 145.922 0.350586 145.957 0.385586C145.991 0.420586 145.991 0.420586 145.991 0.490586V13.7206H145.957ZM165.217 2.66059C164.87 2.66059 164.557 2.80059 164.314 3.08059L161.087 7.10559L164.314 11.1306C164.557 11.4106 164.87 11.5506 165.217 11.5506H168.964C168.999 11.5506 168.999 11.5506 169.034 11.5856C169.068 11.6206 169.069 11.6206 169.069 11.6906V13.7556C169.069 13.7906 169.068 13.8256 169.034 13.8606C168.999 13.8956 168.999 13.8956 168.964 13.8956H165.008C163.967 13.8956 163.065 13.4756 162.336 12.6006L159.525 9.10059L156.714 12.6006C155.951 13.4406 155.083 13.8956 154.042 13.8956H150.086C150.052 13.8956 150.052 13.8956 150.017 13.8606C149.982 13.8256 149.982 13.8256 149.982 13.7556V11.6906C149.982 11.6556 149.982 11.6206 150.017 11.5856C150.052 11.5506 150.052 11.5506 150.086 11.5506H153.834C154.181 11.5506 154.494 11.4106 154.736 11.1306L157.964 7.10559L154.736 3.08059C154.494 2.80059 154.181 2.66059 153.869 2.66059H150.121C150.086 2.66059 150.086 2.66059 150.052 2.62559C150.017 2.59059 150.017 2.59059 150.017 2.55559V0.455586C150.017 0.420586 150.017 0.420586 150.052 0.385586C150.086 0.350586 150.086 0.350586 150.121 0.350586H154.077C155.118 0.350586 156.02 0.770586 156.749 1.64559L159.56 5.14559L162.371 1.64559C163.1 0.805586 164.002 0.350586 165.043 0.350586H168.999C169.034 0.350586 169.034 0.350586 169.069 0.385586C169.103 0.420586 169.103 0.420586 169.103 0.455586V2.55559C169.103 2.59059 169.103 2.59059 169.069 2.62559C169.034 2.66059 169.034 2.66059 168.999 2.66059H165.217Z" fill="#FF6647"/>
</svg>
