<svg width="24" height="24" viewBox="0 0 24 24" fill="none" xmlns="http://www.w3.org/2000/svg">
<g clip-path="url(#clip0_5087_34055)">
<path d="M6.6856 18.375L9.87835 15.1824L8.81785 14.1218L5.62503 17.3144L5.03028 16.7198C4.96067 16.6501 4.87801 16.5948 4.78702 16.5571C4.69604 16.5194 4.59852 16.5 4.50003 16.5C4.40154 16.5 4.30401 16.5194 4.21303 16.5571C4.12205 16.5948 4.03939 16.6501 3.96978 16.7198L0.969776 19.7198C0.900103 19.7894 0.844831 19.872 0.807121 19.963C0.76941 20.054 0.75 20.1515 0.75 20.25C0.75 20.3485 0.76941 20.446 0.807121 20.537C0.844831 20.628 0.900103 20.7106 0.969776 20.7803L3.21978 23.0303C3.28939 23.0999 3.37205 23.1552 3.46304 23.1929C3.55402 23.2306 3.65154 23.25 3.75003 23.25C3.84851 23.25 3.94603 23.2306 4.03702 23.1929C4.128 23.1552 4.21066 23.0999 4.28028 23.0303L7.28028 20.0303C7.34995 19.9606 7.40522 19.878 7.44293 19.787C7.48064 19.696 7.50005 19.5985 7.50005 19.5C7.50005 19.4015 7.48064 19.304 7.44293 19.213C7.40522 19.122 7.34995 19.0394 7.28028 18.9698L6.6856 18.375ZM3.75003 21.4394L2.5606 20.25L4.50003 18.3106L5.68945 19.5L3.75003 21.4394Z" fill="#F9F9F9"/>
<path d="M18 22.5C16.807 22.4987 15.6632 22.0242 14.8195 21.1806C13.9759 20.3369 13.5014 19.1931 13.5001 18C13.5006 17.608 13.5538 17.2178 13.6582 16.8399L7.16023 10.342C6.7823 10.4463 6.3921 10.4995 6.00005 10.5C5.26688 10.503 4.54417 10.3261 3.89529 9.98477C3.24641 9.64344 2.69118 9.14813 2.27828 8.54227C1.86538 7.93641 1.60742 7.23851 1.52703 6.50975C1.44663 5.78099 1.54625 5.04364 1.81715 4.36234L2.23543 3.29592L4.7198 5.78029C4.86258 5.91665 5.05243 5.99274 5.24986 5.99274C5.4473 5.99274 5.63714 5.91665 5.77993 5.78029C5.84965 5.7107 5.90496 5.62804 5.9427 5.53705C5.98044 5.44606 5.99987 5.34851 5.99987 5.25001C5.99987 5.1515 5.98044 5.05395 5.9427 4.96296C5.90496 4.87197 5.84965 4.78931 5.77993 4.71972L3.29525 2.23429L4.36273 1.81647C5.04407 1.54591 5.78136 1.44658 6.51001 1.52717C7.23866 1.60776 7.93642 1.86582 8.54217 2.27874C9.14791 2.69165 9.64315 3.24681 9.98449 3.89559C10.3258 4.54437 10.5029 5.26696 10.5001 6.00004C10.4995 6.3921 10.4463 6.78231 10.3419 7.16022L16.8399 13.6578C17.2178 13.5537 17.608 13.5006 18 13.5C18.7332 13.497 19.456 13.6739 20.1048 14.0153C20.7537 14.3566 21.309 14.8519 21.7219 15.4578C22.1348 16.0636 22.3927 16.7616 22.4731 17.4903C22.5535 18.2191 22.4538 18.9565 22.1829 19.6377L21.7651 20.7042L19.2803 18.2198C19.1375 18.0834 18.9477 18.0073 18.7502 18.0073C18.5528 18.0073 18.363 18.0834 18.2202 18.2198C18.1504 18.2894 18.0951 18.372 18.0573 18.463C18.0195 18.554 18.0001 18.6515 18 18.75C18 18.8485 18.0194 18.9461 18.0571 19.0371C18.0948 19.1281 18.1501 19.2107 18.2198 19.2804L20.7042 21.765L19.6377 22.1835C19.1165 22.3908 18.561 22.4982 18 22.5ZM7.54693 8.60727L15.3926 16.4532L15.2132 16.9102C15.0376 17.3493 14.9689 17.8239 15.0129 18.2948C15.0569 18.7657 15.2123 19.2194 15.4662 19.6184C15.7202 20.0173 16.0654 20.3502 16.4734 20.5894C16.8813 20.8286 17.3404 20.9674 17.8125 20.9942L17.1592 20.3409C16.9502 20.132 16.7845 19.884 16.6714 19.611C16.5583 19.338 16.5001 19.0454 16.5001 18.75C16.5001 18.4545 16.5583 18.1619 16.6714 17.8889C16.7845 17.616 16.9502 17.368 17.1592 17.1591C17.5879 16.7499 18.1577 16.5217 18.7503 16.5217C19.3429 16.5218 19.9127 16.7502 20.3412 17.1594L20.9942 17.8125C20.9673 17.3403 20.8285 16.8813 20.5893 16.4734C20.35 16.0654 20.0171 15.7202 19.6181 15.4663C19.2191 15.2123 18.7654 15.0569 18.2945 15.0129C17.8236 14.9689 17.349 15.0376 16.9099 15.2132L16.4528 15.3921L8.6078 7.54707L8.7872 7.09002C8.96284 6.6509 9.0315 6.17629 8.98751 5.7054C8.94352 5.2345 8.78815 4.78082 8.53421 4.38183C8.28028 3.98284 7.93508 3.64998 7.52711 3.41073C7.11914 3.17148 6.66011 3.03272 6.18793 3.00589L6.84088 3.65922C7.04985 3.86811 7.21563 4.11612 7.32873 4.38909C7.44183 4.66206 7.50004 4.95464 7.50004 5.25012C7.50004 5.54559 7.44183 5.83817 7.32873 6.11114C7.21563 6.38412 7.04985 6.63213 6.84088 6.84102C6.4122 7.25016 5.84237 7.47841 5.24979 7.47834C4.6572 7.47827 4.08743 7.24989 3.65885 6.84064L3.0059 6.18754C3.03267 6.65974 3.17139 7.11878 3.41061 7.52677C3.64983 7.93476 3.98268 8.27998 4.38168 8.53392C4.78068 8.78786 5.23436 8.94322 5.70527 8.98718C6.17617 9.03114 6.65077 8.96244 7.08988 8.78674L7.54693 8.60727Z" fill="#F9F9F9"/>
<path d="M21.8427 2.13747C21.4142 1.72831 20.8444 1.5 20.2519 1.5C19.6594 1.5 19.0896 1.72831 18.6611 2.13747L13.0508 7.74747L14.1114 8.80797L19.7214 3.19797C19.8643 3.06167 20.0542 2.98562 20.2516 2.98562C20.4491 2.98562 20.639 3.06167 20.7819 3.19797C20.9223 3.33883 21.0011 3.52957 21.0011 3.72841C21.0011 3.92726 20.9223 4.11799 20.7819 4.25885L15.1719 9.86885L16.2324 10.9294L21.8424 5.3198C22.264 4.89757 22.5007 4.32533 22.5008 3.7287C22.5009 3.13207 22.2642 2.55979 21.8427 2.13747Z" fill="#F9F9F9"/>
</g>
<defs>
<clipPath id="clip0_5087_34055">
<rect width="24" height="24" fill="white"/>
</clipPath>
</defs>
</svg>
