<svg width="13" height="703" viewBox="0 0 13 703" fill="none" xmlns="http://www.w3.org/2000/svg">
<g clip-path="url(#clip0_3795_37045)">
<path d="M12.2504 516L1.7504 516L1.7504 513.35C1.71955 512.718 1.82403 512.087 2.05686 511.499C2.28968 510.911 2.64548 510.38 3.10041 509.94C4.23608 509.122 5.60049 508.681 7.0004 508.681C8.40031 508.681 9.76473 509.122 10.9004 509.94C11.3553 510.38 11.7111 510.911 11.9439 511.499C12.1768 512.087 12.2813 512.718 12.2504 513.35L12.2504 516ZM10.9904 514.68L10.9904 513.48C11.0199 513.009 10.9457 512.538 10.7729 512.099C10.6001 511.66 10.3329 511.264 9.99039 510.94C9.07732 510.385 8.02914 510.091 6.96039 510.091C5.89164 510.091 4.84346 510.385 3.93039 510.94C3.58784 511.264 3.32072 511.66 3.14792 512.099C2.97512 512.538 2.90086 513.009 2.93039 513.48L2.93039 514.68L10.9904 514.68Z" fill="#F9F9F9" fill-opacity="0.6"/>
<path d="M9.25039 506.99L8.77037 505.76C9.42334 505.679 10.0233 505.359 10.4552 504.863C10.887 504.366 11.1204 503.728 11.1104 503.07C11.1239 502.547 10.958 502.035 10.6404 501.62C10.5034 501.422 10.3193 501.26 10.1047 501.15C9.89003 501.04 9.65149 500.985 9.41039 500.99C9.18736 500.975 8.96407 501.014 8.7589 501.103C8.55373 501.191 8.37258 501.328 8.2304 501.5C7.86958 502.046 7.61825 502.658 7.49038 503.3C7.32479 504.096 6.98309 504.844 6.49038 505.49C6.24105 505.771 5.93194 505.992 5.5858 506.137C5.23967 506.283 4.86534 506.349 4.49038 506.33C4.11302 506.338 3.73853 506.263 3.39306 506.111C3.04758 505.959 2.73949 505.734 2.49038 505.45C1.93566 504.804 1.6494 503.97 1.69039 503.12C1.66864 502.384 1.8862 501.662 2.31038 501.06C2.71938 500.497 3.28687 500.069 3.94039 499.83L4.52037 500.99C4.06885 501.136 3.67455 501.421 3.39293 501.803C3.11131 502.185 2.95655 502.645 2.9504 503.12C2.92143 503.617 3.07426 504.107 3.38039 504.5C3.52617 504.671 3.70937 504.806 3.91576 504.894C4.12215 504.983 4.34618 505.022 4.57039 505.01C4.88133 505.02 5.18473 504.913 5.4204 504.71C5.63505 504.499 5.80509 504.248 5.9204 503.97C6.09442 503.517 6.23806 503.052 6.35039 502.58C6.5163 501.785 6.85797 501.036 7.35039 500.39C7.60134 500.141 7.90222 499.948 8.23317 499.824C8.56413 499.7 8.91763 499.648 9.27037 499.67C9.706 499.651 10.1403 499.731 10.5404 499.904C10.9406 500.078 11.2962 500.339 11.5804 500.67C12.1431 501.352 12.4381 502.216 12.4104 503.1C12.4431 504.027 12.1573 504.938 11.6004 505.68C11.0061 506.392 10.1688 506.859 9.25039 506.99V506.99Z" fill="#F9F9F9" fill-opacity="0.6"/>
<path d="M13 497.64L1 491.55L1 490.26L13 496.35L13 497.64Z" fill="#F9F9F9" fill-opacity="0.6"/>
<path d="M12.25 488.21L1.75 488.21L1.75 486.77L9.85001 482.37L1.75 482.37L1.75 481.05L12.25 481.05L12.25 482.49L4.14999 486.89L12.25 486.89L12.25 488.21Z" fill="#F9F9F9" fill-opacity="0.6"/>
<path d="M12.25 466.68L3.01001 466.68L3.01001 469.95L1.75 469.95L1.75 462.09L3.01001 462.09L3.01001 465.36L12.25 465.36L12.25 466.68Z" fill="#F9F9F9" fill-opacity="0.6"/>
<path d="M12.25 460.35L1.75 460.35L1.75 459.03L6.04001 459.03L6.04001 454.41L1.75 454.41L1.75 453.09L12.25 453.09L12.25 454.41L7.30002 454.41L7.30002 459.03L12.25 459.03L12.25 460.35Z" fill="#F9F9F9" fill-opacity="0.6"/>
<path d="M8.05017 441.8L6.91016 441.8L6.91016 434.41L8.02014 434.41L8.05017 441.8Z" fill="#F9F9F9" fill-opacity="0.6"/>
<path d="M10.9101 422.34C9.71312 423.013 8.36313 423.366 6.99005 423.366C5.61697 423.366 4.26702 423.013 3.07007 422.34C2.62206 422.019 2.25703 421.596 2.00522 421.105C1.75341 420.615 1.62207 420.071 1.62207 419.52C1.62207 418.969 1.75341 418.425 2.00522 417.935C2.25703 417.445 2.62206 417.021 3.07007 416.7C4.26701 416.027 5.61697 415.674 6.99005 415.674C8.36313 415.674 9.71312 416.027 10.9101 416.7C11.3581 417.021 11.7231 417.445 11.9749 417.935C12.2267 418.425 12.3581 418.969 12.3581 419.52C12.3581 420.071 12.2267 420.615 11.9749 421.105C11.7231 421.596 11.3581 422.019 10.9101 422.34V422.34ZM9.84006 421.49L3.16006 418.37C3.00242 418.614 2.897 418.889 2.85043 419.176C2.80386 419.463 2.81716 419.757 2.88947 420.038C2.96177 420.32 3.09152 420.584 3.2706 420.813C3.44968 421.042 3.67418 421.232 3.93005 421.37C4.87185 421.862 5.92919 422.09 6.99005 422.03C7.97241 422.075 8.95173 421.89 9.85007 421.49L9.84006 421.49ZM6.99005 417C6.00908 416.958 5.03222 417.15 4.14008 417.56L10.8101 420.68C10.9681 420.436 11.0741 420.162 11.1214 419.876C11.1687 419.589 11.1562 419.296 11.0849 419.014C11.0136 418.733 10.8848 418.469 10.7068 418.239C10.5287 418.009 10.3051 417.819 10.0501 417.68C9.11132 417.188 8.05894 416.953 7.00006 417L6.99005 417Z" fill="#F9F9F9" fill-opacity="0.6"/>
<path d="M12.25 413.7L1.74999 413.7L1.74999 411.05C1.72044 410.418 1.82553 409.788 2.05828 409.2C2.29103 408.612 2.64611 408.08 3.1 407.64C4.23567 406.821 5.60008 406.381 6.99999 406.381C8.3999 406.381 9.76432 406.821 10.9 407.64C11.3539 408.08 11.709 408.612 11.9417 409.2C12.1745 409.788 12.2795 410.418 12.25 411.05L12.25 413.7ZM10.99 412.38L10.99 411.18C11.0195 410.709 10.9453 410.238 10.7725 409.799C10.5997 409.36 10.3325 408.964 9.98998 408.64C9.07691 408.084 8.02873 407.791 6.95998 407.791C5.89123 407.791 4.84305 408.084 3.92998 408.64C3.58743 408.964 3.32031 409.36 3.14751 409.799C2.97471 410.238 2.90045 410.709 2.92998 411.18L2.92998 412.41L10.99 412.38Z" fill="#F9F9F9" fill-opacity="0.6"/>
<path d="M10.9598 403.62C9.79044 404.415 8.40895 404.841 6.99477 404.841C5.58059 404.841 4.1991 404.415 3.02977 403.62C2.57644 403.239 2.21507 402.76 1.97264 402.22C1.73022 401.68 1.613 401.092 1.62978 400.5C1.6012 399.618 1.90455 398.758 2.47979 398.09C3.10188 397.409 3.91921 396.938 4.81978 396.74L5.19979 397.99C4.53818 398.162 3.93426 398.507 3.44979 398.99C3.06934 399.414 2.86857 399.97 2.88979 400.54C2.86332 400.961 2.94069 401.381 3.11507 401.765C3.28945 402.148 3.55551 402.483 3.88979 402.74C4.83385 403.252 5.8908 403.52 6.96477 403.52C8.03874 403.52 9.09572 403.252 10.0398 402.74C10.3734 402.483 10.639 402.148 10.8133 401.764C10.9876 401.381 11.0654 400.96 11.0398 400.54C11.0626 399.968 10.8576 399.411 10.4698 398.99C9.99078 398.505 9.38948 398.16 8.72979 397.99L9.09978 396.74C10.0003 396.938 10.8177 397.409 11.4398 398.09C12.0186 398.757 12.3256 399.617 12.2998 400.5C12.3261 401.087 12.2192 401.673 11.9872 402.213C11.7551 402.754 11.4039 403.234 10.9598 403.62V403.62Z" fill="#F9F9F9" fill-opacity="0.6"/>
<path d="M12.25 394.52L11.11 394.52L11.11 391.82L3.64001 391.82L5.20001 394.44L3.82001 394.44L1.75 391.04L1.75 390.56L11.11 390.56L11.11 387.86L12.25 387.86L12.25 394.52Z" fill="#F9F9F9" fill-opacity="0.6"/>
<path d="M12.25 385.22L11.11 385.22L11.11 382.52L3.64001 382.52L5.20001 385.14L3.82001 385.14L1.75 381.74L1.75 381.26L11.11 381.26L11.11 378.56L12.25 378.56L12.25 385.22Z" fill="#F9F9F9" fill-opacity="0.6"/>
<path d="M9.5 376.25L9.26001 374.97C9.79156 374.917 10.2891 374.685 10.67 374.31C11.007 373.939 11.1863 373.451 11.17 372.95C11.1792 372.662 11.1258 372.375 11.0136 372.109C10.9014 371.843 10.733 371.605 10.52 371.41C10.0554 371 9.44882 370.788 8.83002 370.82C8.21514 370.788 7.60888 370.976 7.11999 371.35C6.90978 371.533 6.74384 371.761 6.6347 372.018C6.52557 372.274 6.47609 372.552 6.48999 372.83C6.49142 373.289 6.60106 373.741 6.81 374.15C7.01793 374.541 7.3079 374.882 7.66 375.15L7.48001 375.98L1.75 375.38L1.75 370.25L2.91 370.25L2.91 374.25L5.91 374.64C5.68758 374.386 5.51765 374.09 5.41 373.77C5.28347 373.42 5.21587 373.052 5.20999 372.68C5.18724 372.243 5.2605 371.806 5.42462 371.4C5.58874 370.994 5.83974 370.629 6.16 370.33C6.88468 369.728 7.8093 369.421 8.75 369.47C9.22037 369.457 9.68852 369.539 10.1266 369.711C10.5647 369.883 10.9637 370.141 11.3 370.47C11.629 370.788 11.8879 371.171 12.0601 371.594C12.2323 372.018 12.314 372.473 12.3 372.93C12.3334 373.751 12.0628 374.556 11.54 375.19C11.2864 375.492 10.9756 375.741 10.6256 375.923C10.2755 376.105 9.89303 376.216 9.5 376.25V376.25Z" fill="#F9F9F9" fill-opacity="0.6"/>
<path d="M8.05017 358.1L6.91016 358.1L6.91016 350.75L8.02014 350.75L8.05017 358.1Z" fill="#F9F9F9" fill-opacity="0.6"/>
<path d="M12.25 338.72L11.11 338.72L11.11 336.02L3.64001 336.02L5.20001 338.65L3.82001 338.65L1.75 335.24L1.75 334.76L11.11 334.76L11.11 332.06L12.25 332.06L12.25 338.72Z" fill="#F9F9F9" fill-opacity="0.6"/>
<path d="M12.2493 329.76L11.6593 329.76L6.52926 325.62C6.2117 325.349 5.85839 325.124 5.47927 324.95C5.18104 324.828 4.86146 324.767 4.53926 324.77C4.08211 324.742 3.63259 324.897 3.28926 325.2C3.13072 325.359 3.00775 325.55 2.92846 325.761C2.84916 325.971 2.81537 326.196 2.82927 326.42C2.82434 326.649 2.86815 326.876 2.95781 327.086C3.04748 327.296 3.18092 327.485 3.34926 327.64C3.7275 327.994 4.21311 328.213 4.72927 328.26L4.48925 329.54C3.71862 329.477 3.00214 329.119 2.48925 328.54C1.95329 327.973 1.65919 327.22 1.66927 326.44C1.63245 325.65 1.90918 324.877 2.43926 324.29C2.72233 324.018 3.05853 323.808 3.42678 323.672C3.79503 323.536 4.1874 323.477 4.57927 323.5C5.41458 323.502 6.22218 323.8 6.85927 324.34L11.0893 327.73L11.0893 323.31L12.2893 323.31L12.2493 329.76Z" fill="#F9F9F9" fill-opacity="0.6"/>
<path d="M9.5 320.41L9.26001 319.13C9.79156 319.077 10.2891 318.844 10.67 318.47C11.007 318.099 11.1863 317.611 11.17 317.11C11.1792 316.821 11.1258 316.535 11.0136 316.269C10.9014 316.003 10.733 315.765 10.52 315.57C10.0554 315.16 9.44882 314.948 8.83002 314.98C8.21514 314.948 7.60888 315.136 7.11999 315.51C6.90978 315.693 6.74384 315.921 6.6347 316.177C6.52557 316.434 6.47609 316.712 6.48999 316.99C6.49142 317.449 6.60106 317.901 6.81 318.31C7.01605 318.702 7.30634 319.043 7.66 319.31L7.48001 320.14L1.75 319.54L1.75 314.41L2.91 314.41L2.91 318.41L5.91 318.81C5.68751 318.552 5.51765 318.253 5.41 317.93C5.28347 317.58 5.21587 317.212 5.20999 316.84C5.18724 316.403 5.2605 315.966 5.42462 315.56C5.58874 315.154 5.83974 314.789 6.16 314.49C6.88468 313.888 7.8093 313.581 8.75 313.63C9.22037 313.617 9.68852 313.699 10.1266 313.871C10.5647 314.043 10.9637 314.301 11.3 314.63C11.629 314.948 11.8879 315.331 12.0601 315.754C12.2323 316.178 12.314 316.633 12.3 317.09C12.3334 317.911 12.0628 318.716 11.54 319.35C11.2864 319.652 10.9756 319.901 10.6256 320.083C10.2755 320.265 9.89303 320.376 9.5 320.41V320.41Z" fill="#F9F9F9" fill-opacity="0.6"/>
<path d="M9.5 311.15L9.26001 309.87C9.79289 309.822 10.292 309.589 10.67 309.21C11.007 308.839 11.1863 308.351 11.17 307.85C11.1792 307.561 11.1258 307.275 11.0136 307.009C10.9014 306.743 10.733 306.505 10.52 306.31C10.0554 305.9 9.44882 305.688 8.83002 305.72C8.21514 305.688 7.60888 305.876 7.11999 306.25C6.90978 306.433 6.74384 306.661 6.6347 306.917C6.52557 307.174 6.47609 307.452 6.48999 307.73C6.49142 308.189 6.60106 308.641 6.81 309.05C7.01605 309.442 7.30634 309.783 7.66 310.05L7.48001 310.88L1.75 310.28L1.75 305.15L2.91 305.15L2.91 309.15L5.91 309.55C5.68751 309.292 5.51765 308.993 5.41 308.67C5.28347 308.32 5.21587 307.952 5.20999 307.58C5.18724 307.143 5.2605 306.706 5.42462 306.3C5.58874 305.894 5.83974 305.528 6.16 305.23C6.88468 304.628 7.8093 304.321 8.75 304.37C9.22037 304.357 9.68852 304.439 10.1266 304.611C10.5647 304.783 10.9637 305.041 11.3 305.37C11.629 305.688 11.8879 306.07 12.0601 306.494C12.2323 306.918 12.314 307.373 12.3 307.83C12.3312 308.654 12.061 309.461 11.54 310.1C11.0226 310.702 10.2907 311.079 9.5 311.15V311.15Z" fill="#F9F9F9" fill-opacity="0.6"/>
<path d="M12.2493 301.87L11.6593 301.87L6.52926 297.73C6.21155 297.457 5.85836 297.228 5.47927 297.05C5.18104 296.928 4.86146 296.867 4.53926 296.87C4.31222 296.857 4.08496 296.89 3.87047 296.965C3.65599 297.041 3.45848 297.158 3.28926 297.31C3.13098 297.467 3.00808 297.657 2.92876 297.865C2.84944 298.074 2.81552 298.297 2.82927 298.52C2.82434 298.749 2.86815 298.976 2.95781 299.186C3.04748 299.396 3.18092 299.585 3.34926 299.74C3.72654 300.097 4.21207 300.319 4.72927 300.37L4.48925 301.64C3.71862 301.577 3.00214 301.219 2.48925 300.64C1.95329 300.073 1.65919 299.32 1.66927 298.54C1.63245 297.75 1.90918 296.977 2.43926 296.39C2.72233 296.118 3.05853 295.907 3.42678 295.771C3.79503 295.636 4.1874 295.577 4.57927 295.6C5.41458 295.602 6.22218 295.9 6.85927 296.44L11.0893 299.83L11.0893 295.41L12.2893 295.41L12.2493 301.87Z" fill="#F9F9F9" fill-opacity="0.6"/>
<path d="M8.05017 283.7L6.91016 283.7L6.91016 276.35L8.02014 276.35L8.05017 283.7Z" fill="#F9F9F9" fill-opacity="0.6"/>
<path d="M8.90958 264.52C8.2059 264.528 7.51378 264.341 6.90958 263.98L1.55957 260.87L1.55957 259.41L5.55957 261.69C5.4835 261.51 5.4493 261.315 5.45956 261.12C5.45056 260.681 5.5351 260.246 5.70752 259.842C5.87994 259.439 6.1363 259.077 6.45956 258.78C7.13774 258.186 8.00834 257.859 8.90958 257.859C9.81081 257.859 10.6814 258.186 11.3596 258.78C11.9874 259.413 12.3396 260.268 12.3396 261.16C12.3396 262.051 11.9874 262.907 11.3596 263.54C11.0361 263.857 10.6531 264.107 10.2326 264.275C9.81207 264.443 9.36243 264.526 8.90958 264.52V264.52ZM8.90958 259.21C8.32205 259.179 7.74519 259.376 7.29959 259.76C7.10603 259.946 6.95205 260.17 6.84689 260.418C6.74173 260.665 6.68753 260.931 6.68753 261.2C6.68753 261.469 6.74173 261.735 6.84689 261.982C6.95205 262.23 7.10603 262.453 7.29959 262.64C7.75287 263.005 8.31744 263.204 8.89957 263.204C9.48169 263.204 10.0463 263.005 10.4996 262.64C10.6978 262.458 10.8561 262.237 10.9644 261.991C11.0727 261.745 11.1286 261.479 11.1286 261.21C11.1286 260.941 11.0727 260.675 10.9644 260.429C10.8561 260.183 10.6978 259.962 10.4996 259.78C10.0626 259.392 9.49317 259.188 8.90958 259.21Z" fill="#F9F9F9" fill-opacity="0.6"/>
<path d="M12.25 255.02L11.11 255.02L11.11 252.32L3.64001 252.32L5.20001 254.95L3.82001 254.95L1.75 251.54L1.75 251.06L11.11 251.06L11.11 248.36L12.25 248.36L12.25 255.02Z" fill="#F9F9F9" fill-opacity="0.6"/>
<path d="M12.25 245.72L11.11 245.72L11.11 243.02L3.64001 243.02L5.20001 245.65L3.82001 245.65L1.75 242.24L1.75 241.76L11.11 241.76L11.11 239.06L12.25 239.06L12.25 245.72Z" fill="#F9F9F9" fill-opacity="0.6"/>
<path d="M8.05017 227.9L6.91016 227.9L6.91016 220.55L8.02014 220.55L8.05017 227.9Z" fill="#F9F9F9" fill-opacity="0.6"/>
<path d="M10.9101 208.41C9.71312 209.083 8.36313 209.436 6.99005 209.436C5.61697 209.436 4.26702 209.083 3.07007 208.41C2.62206 208.089 2.25703 207.665 2.00522 207.175C1.75341 206.685 1.62207 206.141 1.62207 205.59C1.62207 205.039 1.75341 204.495 2.00522 204.005C2.25703 203.515 2.62206 203.091 3.07007 202.77C4.26701 202.097 5.61697 201.744 6.99005 201.744C8.36313 201.744 9.71312 202.097 10.9101 202.77C11.3581 203.091 11.7231 203.515 11.9749 204.005C12.2267 204.495 12.3581 205.039 12.3581 205.59C12.3581 206.141 12.2267 206.685 11.9749 207.175C11.7231 207.665 11.3581 208.089 10.9101 208.41V208.41ZM9.84006 207.55L3.16006 204.43C3.00535 204.675 2.90235 204.95 2.85736 205.236C2.81237 205.523 2.82635 205.815 2.89844 206.096C2.97053 206.377 3.09922 206.64 3.27661 206.87C3.454 207.099 3.67635 207.29 3.93005 207.43C4.87368 207.917 5.92962 208.145 6.99005 208.09C7.96929 208.148 8.94856 207.977 9.85007 207.59L9.84006 207.55ZM6.99005 203.07C6.00991 203.025 5.03317 203.214 4.14008 203.62L10.8101 206.74C10.9696 206.497 11.0768 206.223 11.1249 205.936C11.173 205.649 11.161 205.355 11.0895 205.073C11.0181 204.791 10.8887 204.527 10.7098 204.297C10.5309 204.068 10.3062 203.878 10.0501 203.74C9.10659 203.265 8.05446 203.048 7.00006 203.11L6.99005 203.07Z" fill="#F9F9F9" fill-opacity="0.6"/>
<path d="M10.9101 199.15C9.71312 199.823 8.36313 200.176 6.99005 200.176C5.61697 200.176 4.26702 199.823 3.07007 199.15C2.62206 198.829 2.25703 198.405 2.00522 197.915C1.75341 197.425 1.62207 196.881 1.62207 196.33C1.62207 195.779 1.75341 195.235 2.00522 194.745C2.25703 194.255 2.62206 193.831 3.07007 193.51C4.26701 192.837 5.61697 192.484 6.99005 192.484C8.36313 192.484 9.71312 192.837 10.9101 193.51C11.3581 193.831 11.7231 194.255 11.9749 194.745C12.2267 195.235 12.3581 195.779 12.3581 196.33C12.3581 196.881 12.2267 197.425 11.9749 197.915C11.7231 198.405 11.3581 198.829 10.9101 199.15V199.15ZM9.84006 198.29L3.16006 195.17C3.00535 195.415 2.90235 195.69 2.85736 195.976C2.81237 196.263 2.82635 196.555 2.89844 196.836C2.97053 197.117 3.09922 197.38 3.27661 197.609C3.454 197.839 3.67635 198.03 3.93005 198.17C4.87368 198.657 5.92962 198.885 6.99005 198.83C7.97244 198.875 8.95184 198.69 9.85007 198.29L9.84006 198.29ZM6.99005 193.81C6.00991 193.765 5.03317 193.954 4.14008 194.36L10.8101 197.48C10.9696 197.237 11.0768 196.963 11.1249 196.676C11.173 196.389 11.161 196.095 11.0895 195.813C11.0181 195.531 10.8887 195.267 10.7098 195.037C10.5309 194.808 10.3062 194.618 10.0501 194.48C9.11037 193.991 8.05804 193.76 7.00006 193.81L6.99005 193.81Z" fill="#F9F9F9" fill-opacity="0.6"/>
<path d="M10.9101 189.85C9.71312 190.523 8.36313 190.876 6.99005 190.876C5.61697 190.876 4.26702 190.523 3.07007 189.85C2.62206 189.529 2.25703 189.105 2.00522 188.615C1.75341 188.125 1.62207 187.581 1.62207 187.03C1.62207 186.479 1.75341 185.935 2.00522 185.445C2.25703 184.955 2.62206 184.531 3.07007 184.21C4.26701 183.537 5.61697 183.184 6.99005 183.184C8.36313 183.184 9.71312 183.537 10.9101 184.21C11.3581 184.531 11.7231 184.955 11.9749 185.445C12.2267 185.935 12.3581 186.479 12.3581 187.03C12.3581 187.581 12.2267 188.125 11.9749 188.615C11.7231 189.105 11.3581 189.529 10.9101 189.85ZM9.84006 188.99L3.16006 185.87C3.00535 186.115 2.90235 186.39 2.85736 186.676C2.81237 186.962 2.82635 187.255 2.89844 187.536C2.97053 187.817 3.09922 188.08 3.27661 188.309C3.454 188.539 3.67635 188.73 3.93005 188.87C4.87368 189.357 5.92962 189.585 6.99005 189.53C7.97244 189.575 8.95184 189.39 9.85007 188.99L9.84006 188.99ZM6.99005 184.51C6.00991 184.465 5.03317 184.654 4.14008 185.06L10.8101 188.18C10.9696 187.937 11.0768 187.663 11.1249 187.376C11.173 187.089 11.161 186.795 11.0895 186.513C11.0181 186.231 10.8887 185.967 10.7098 185.737C10.5309 185.508 10.3062 185.318 10.0501 185.18C9.11037 184.691 8.05804 184.46 7.00006 184.51L6.99005 184.51Z" fill="#F9F9F9" fill-opacity="0.6"/>
<path d="M10.9598 180.41C9.788 181.199 8.40748 181.62 6.99484 181.62C5.5822 181.62 4.20168 181.199 3.02984 180.41C2.58038 180.026 2.22169 179.547 1.97961 179.007C1.73753 178.468 1.61809 177.881 1.62985 177.29C1.60071 176.405 1.90397 175.542 2.47986 174.87C3.10195 174.189 3.91929 173.718 4.81985 173.52L5.19986 174.77C4.54073 174.949 3.93827 175.293 3.44986 175.77C3.06788 176.198 2.86708 176.757 2.88986 177.33C2.86419 177.749 2.94195 178.168 3.11633 178.55C3.29072 178.932 3.55638 179.265 3.88986 179.52C4.83392 180.032 5.89087 180.3 6.96484 180.3C8.03881 180.3 9.09579 180.032 10.0399 179.52C10.3733 179.265 10.639 178.932 10.8134 178.55C10.9877 178.168 11.0655 177.749 11.0399 177.33C11.0519 177.045 11.0078 176.761 10.91 176.493C10.8122 176.226 10.6626 175.98 10.4698 175.77C9.98816 175.289 9.38788 174.944 8.72986 174.77L9.09985 173.52C10.0004 173.718 10.8178 174.189 11.4398 174.87C12.0185 175.541 12.3253 176.404 12.2999 177.29C12.324 177.877 12.2161 178.462 11.9842 179.002C11.7523 179.542 11.4022 180.023 10.9598 180.41V180.41Z" fill="#F9F9F9" fill-opacity="0.6"/>
</g>
<defs>
<clipPath id="clip0_3795_37045">
<rect width="342.46" height="12" fill="white" transform="translate(1 516) rotate(-90)"/>
</clipPath>
</defs>
</svg>
