<svg width="174" height="32" viewBox="0 0 174 32" fill="none" xmlns="http://www.w3.org/2000/svg">
<g clip-path="url(#clip0_3470_24616)">
<path d="M173.714 16.8557H0V17.3443H173.714V16.8557Z" fill="#0C0C0C"/>
<path d="M173.714 31.5144H0V32.003H173.714V31.5144Z" fill="#0C0C0C"/>
<path d="M173.714 30.048H0V30.5365H173.714V30.048Z" fill="#0C0C0C"/>
<path d="M173.714 28.5817H0V29.0702H173.714V28.5817Z" fill="#0C0C0C"/>
<path d="M173.714 27.1152H0V27.6038H173.714V27.1152Z" fill="#0C0C0C"/>
<path d="M173.714 25.6489H0V26.1375H173.714V25.6489Z" fill="#0C0C0C"/>
<path d="M173.714 24.1826H0V24.6712H173.714V24.1826Z" fill="#0C0C0C"/>
<path d="M173.714 22.7163H0V23.2049H173.714V22.7163Z" fill="#0C0C0C"/>
<path d="M173.714 21.2548H0V21.7433H173.714V21.2548Z" fill="#0C0C0C"/>
<path d="M173.714 19.7885H0V20.277H173.714V19.7885Z" fill="#0C0C0C"/>
<path d="M173.714 18.322H0V18.8106H173.714V18.322Z" fill="#0C0C0C"/>
<path d="M46.5754 8.54962H45.4835L45.2998 7.97801C44.9623 8.34443 44.471 8.54962 43.8704 8.54962H41.761C40.6443 8.54962 39.875 7.79237 39.875 6.67847V1.87114C39.875 0.747481 40.6443 0 41.761 0H44.6794C45.8111 0 46.5754 0.747481 46.5754 1.87114V2.71145H45.0964V1.94443C45.0964 1.5145 44.8383 1.26046 44.4164 1.26046H42.034C41.6121 1.26046 41.3541 1.5145 41.3541 1.94443V6.61008C41.3541 7.03511 41.6121 7.27939 42.034 7.27939H44.4164C44.8134 7.27939 45.0765 7.05954 45.0964 6.6687V5.27634H42.8133V4.00611H46.5704V8.54962H46.5754Z" fill="#0C0C0C"/>
<path d="M57.8667 0H59.3458V7.27939H63.6985V8.54962H57.8667V0Z" fill="#0C0C0C"/>
<path d="M79.2336 8.54962H76.3152C75.1985 8.54962 74.4292 7.79237 74.4292 6.67847V1.87114C74.4292 0.747481 75.1985 0 76.3152 0H79.2336C80.3653 0 81.1296 0.747481 81.1296 1.87114V6.67847C81.1296 7.79237 80.3603 8.54962 79.2336 8.54962ZM79.6555 1.94443C79.6555 1.5145 79.3974 1.26046 78.9755 1.26046H76.5932C76.1713 1.26046 75.9132 1.5145 75.9132 1.94443V6.61008C75.9132 7.03511 76.1713 7.27939 76.5932 7.27939H78.9755C79.3974 7.27939 79.6555 7.03511 79.6555 6.61008V1.94443Z" fill="#0C0C0C"/>
<path d="M98.9629 2.61374C98.9629 3.38565 98.5907 3.98168 97.9951 4.27481C98.6155 4.54351 99.0026 5.14443 99.0026 5.92611V6.68336C99.0026 7.79725 98.2333 8.5545 97.1066 8.5545H92.4263V0H97.0669C98.2085 0 98.9629 0.747481 98.9629 1.87114V2.61374ZM97.4987 1.94443C97.4987 1.5145 97.2357 1.26046 96.8039 1.26046H93.9004V3.63969H96.8039C97.2357 3.63969 97.4987 3.38565 97.4987 2.95572V1.94443ZM97.5236 5.57435C97.5236 5.15908 97.2655 4.90015 96.8436 4.90015H93.9053V7.27939H96.8436C97.2655 7.27939 97.5236 7.03511 97.5236 6.61007V5.57435Z" fill="#0C0C0C"/>
<path d="M117.272 8.54962H115.719L115.039 6.54656H111.614L110.919 8.54962H109.42L112.448 0H114.25L117.277 8.54962H117.272ZM112.001 5.29099H114.632L113.317 1.54382L112.001 5.29099Z" fill="#0C0C0C"/>
<path d="M128.008 0H129.487V7.27939H133.84V8.54962H128.008V0Z" fill="#0C0C0C"/>
<path d="M2.81396 17.1019H6.19395L8.38275 27.2589L10.6609 17.1019H13.8523L16.1056 27.2589L18.3192 17.1019H21.595L18.0016 31.7584H14.2791L12.1945 23.0476L10.1298 31.7584H6.40737L2.81396 17.1019Z" fill="#0C0C0C"/>
<path d="M34.3207 31.7576H30.8513L29.8934 28.6602H24.8508L23.8928 31.7576H20.5327L25.4017 17.1011H29.4418L34.3107 31.7576H34.3207ZM25.7293 25.8315H29.005L27.3671 20.5551L25.7293 25.8315Z" fill="#0C0C0C"/>
<path d="M46.9175 26.2907V28.4696C46.9175 30.4385 45.5774 31.7576 43.5971 31.7576H38.5991C36.5989 31.7576 35.2588 30.4385 35.2588 28.4696V27.1505H38.5544V28.3035C38.5544 28.7237 38.7678 28.9337 39.1947 28.9337H42.9816C43.4085 28.9337 43.6219 28.7237 43.6219 28.3035V26.4617C43.6219 26.0415 43.4085 25.8315 42.9816 25.8315H38.5792C36.5989 25.8315 35.2588 24.5124 35.2588 22.5435V20.389C35.2588 18.4202 36.5989 17.1011 38.5792 17.1011H43.5772C45.5774 17.1011 46.9175 18.4202 46.9175 20.389V21.7081H43.6219V20.5551C43.6219 20.135 43.4085 19.9249 42.9816 19.9249H39.1947C38.7678 19.9249 38.5544 20.135 38.5544 20.5551V22.3774C38.5544 22.7976 38.7678 23.0076 39.1947 23.0076H43.5971C45.5774 23.0076 46.9175 24.3267 46.9175 26.2956V26.2907Z" fill="#0C0C0C"/>
<path d="M48.2974 17.1011H60.2291V19.9298H55.911V31.7576H52.6154V19.9298H48.2974V17.1011Z" fill="#0C0C0C"/>
<path d="M61.8271 17.1011H72.2053V19.9298H65.1228V23.0076H71.1432V25.8363H65.1228V28.9337H72.2053V31.7624H61.8271V17.106V17.1011Z" fill="#0C0C0C"/>
<path d="M90.1029 26.7744V28.6357C90.1029 30.4971 88.8273 31.7576 86.9313 31.7576H82.38C80.489 31.7576 79.2085 30.502 79.2085 28.6357V27.3606H80.9754V28.5527C80.9754 29.5982 81.6355 30.2479 82.6778 30.2479H86.6335C87.6758 30.2479 88.3359 29.5982 88.3359 28.5527V26.8574C88.3359 25.8315 87.6758 25.1621 86.6335 25.1621H82.38C80.489 25.1621 79.2085 23.9066 79.2085 22.0403V20.218C79.2085 18.3322 80.4841 17.0962 82.38 17.0962H86.9313C88.8223 17.0962 90.1029 18.3322 90.1029 20.218V21.4931H88.3359V20.2766C88.3359 19.2507 87.6758 18.6009 86.6335 18.6009H82.6778C81.6355 18.6009 80.9754 19.2507 80.9754 20.2766V21.9719C80.9754 22.9979 81.6355 23.6476 82.6778 23.6476H86.9313C88.8223 23.6476 90.1029 24.9032 90.1029 26.7695V26.7744Z" fill="#0C0C0C"/>
<path d="M98.863 31.7576H97.1209V26.1441L91.5918 17.1011H93.6764L98.0143 24.4098L102.397 17.1011H104.397L98.8679 26.1441V31.7576H98.863Z" fill="#0C0C0C"/>
<path d="M116.671 26.7744V28.6357C116.671 30.4971 115.396 31.7576 113.5 31.7576H108.948C107.057 31.7576 105.777 30.502 105.777 28.6357V27.3606H107.544V28.5527C107.544 29.5982 108.204 30.2479 109.246 30.2479H113.202C114.244 30.2479 114.904 29.5982 114.904 28.5527V26.8574C114.904 25.8315 114.244 25.1621 113.202 25.1621H108.948C107.057 25.1621 105.777 23.9066 105.777 22.0403V20.218C105.777 18.3322 107.052 17.0962 108.948 17.0962H113.5C115.391 17.0962 116.671 18.3322 116.671 20.218V21.4931H114.904V20.2766C114.904 19.2507 114.244 18.6009 113.202 18.6009H109.246C108.204 18.6009 107.544 19.2507 107.544 20.2766V21.9719C107.544 22.9979 108.204 23.6476 109.246 23.6476H113.5C115.391 23.6476 116.671 24.9032 116.671 26.7695V26.7744Z" fill="#0C0C0C"/>
<path d="M118.264 17.1011H130.28V18.6107H125.153V31.7576H123.386V18.6107H118.259V17.1011H118.264Z" fill="#0C0C0C"/>
<path d="M132.196 17.1011H141.81V18.6107H133.963V23.6574H140.748V25.167H133.963V30.2528H141.81V31.7624H132.196V17.106V17.1011Z" fill="#0C0C0C"/>
<path d="M155.211 20.516L150.551 29.0803L145.915 20.516V31.7576H144.148V17.1011H145.85L150.551 25.7679L155.251 17.1011H156.953V31.7576H155.211V20.516Z" fill="#0C0C0C"/>
<path d="M170.404 26.7744V28.6357C170.404 30.4971 169.128 31.7576 167.232 31.7576H162.681C160.79 31.7576 159.509 30.502 159.509 28.6357V27.3606H161.276V28.5527C161.276 29.5982 161.936 30.2479 162.979 30.2479H166.934C167.977 30.2479 168.637 29.5982 168.637 28.5527V26.8574C168.637 25.8315 167.977 25.1621 166.934 25.1621H162.681C160.79 25.1621 159.509 23.9066 159.509 22.0403V20.218C159.509 18.3322 160.785 17.0962 162.681 17.0962H167.232C169.123 17.0962 170.404 18.3322 170.404 20.218V21.4931H168.637V20.2766C168.637 19.2507 167.977 18.6009 166.934 18.6009H162.979C161.936 18.6009 161.276 19.2507 161.276 20.2766V21.9719C161.276 22.9979 161.936 23.6476 162.979 23.6476H167.232C169.123 23.6476 170.404 24.9032 170.404 26.7695V26.7744Z" fill="#0C0C0C"/>
</g>
<defs>
<clipPath id="clip0_3470_24616">
<rect width="173.714" height="32" fill="white"/>
</clipPath>
</defs>
</svg>
