<svg width="43" height="14" viewBox="0 0 43 14" fill="none" xmlns="http://www.w3.org/2000/svg">
<path d="M3.10203 8.67969H0V9.65937H3.10203V8.67969Z" fill="#F9F9F9"/>
<path d="M3.10203 7.23242H0V8.21211H3.10203V7.23242Z" fill="#F9F9F9"/>
<path d="M11.1637 12.5529V11.5732H0.0649414C0.133464 11.9325 0.253841 12.2622 0.418665 12.5529H11.1637Z" fill="#F9F9F9"/>
<path d="M3.10203 10.7001V10.126H0V10.8594C0 10.9427 0.00370391 11.0242 0.00740783 11.1057H3.21685C3.14092 11.0075 3.10018 10.8742 3.10018 10.6982L3.10203 10.7001Z" fill="#F9F9F9"/>
<path d="M11.1663 5.78711H5.10303V6.76679H11.1663V5.78711Z" fill="#F9F9F9"/>
<path d="M10.4059 0.979686C9.85219 0.35928 9.02621 0 8.02245 0H3.12032C2.12767 0 1.3054 0.35928 0.755371 0.979686H10.4059Z" fill="#F9F9F9"/>
<path d="M8.06502 3.30011V3.87422H11.167V3.14084C11.167 3.0575 11.1633 2.97602 11.1596 2.89453H7.9502C8.02613 2.99268 8.06687 3.12788 8.06687 3.30196L8.06502 3.30011Z" fill="#F9F9F9"/>
<path d="M8.06687 10.126V10.7001C8.06687 10.8742 8.02613 11.0094 7.9502 11.1075H11.167V10.1278H8.06502L8.06687 10.126Z" fill="#F9F9F9"/>
<path d="M0.418665 1.44531C0.251989 1.73607 0.131612 2.06572 0.0649414 2.425H11.0971C11.0285 2.06572 10.9082 1.73607 10.7415 1.44531H0.418665Z" fill="#F9F9F9"/>
<path d="M0.755371 13.0186C1.3054 13.639 2.12767 13.9982 3.12217 13.9982H6.02234C7.01128 13.9982 7.84837 13.6408 8.39099 13.0186H0.755371Z" fill="#F9F9F9"/>
<path d="M8.46631 13.0186L8.88115 14.0001H11.1609V13.0186H8.46631Z" fill="#F9F9F9"/>
<path d="M3.10203 3.87314V3.29903C3.10203 3.12495 3.14277 2.98976 3.2187 2.8916H0.00740783C0.00185196 2.97309 0 3.05457 0 3.13791V3.87129H3.10203V3.87314Z" fill="#F9F9F9"/>
<path d="M11.1663 7.23145H5.10303V8.21113H11.1663V7.23145Z" fill="#F9F9F9"/>
<path d="M3.10203 4.33984H0V5.31953H3.10203V4.33984Z" fill="#F9F9F9"/>
<path d="M11.165 8.67969H8.06299V9.65937H11.165V8.67969Z" fill="#F9F9F9"/>
<path d="M3.10203 5.78711H0V6.76679H3.10203V5.78711Z" fill="#F9F9F9"/>
<path d="M13.0505 2.42685H16.1618L15.9544 1.44531H12.8135L13.0505 2.42685Z" fill="#F9F9F9"/>
<path d="M19.5341 1.44531L19.3174 2.42685H23.3843L23.1713 1.44531H19.5341Z" fill="#F9F9F9"/>
<path d="M19.2128 2.8916L18.9961 3.87129H23.6982L23.4834 2.8916H19.2128Z" fill="#F9F9F9"/>
<path d="M16.7807 5.32138L16.5715 4.33984H13.5176L13.7546 5.32138H16.7807Z" fill="#F9F9F9"/>
<path d="M17.0852 6.76679L16.8759 5.78711H13.8628L14.0998 6.76679H17.0852Z" fill="#F9F9F9"/>
<path d="M16.4713 3.87129L16.262 2.8916H13.1655L13.4026 3.87129H16.4713Z" fill="#F9F9F9"/>
<path d="M18.8949 4.33984L18.6782 5.32138H24.0174L23.8026 4.33984H18.8949Z" fill="#F9F9F9"/>
<path d="M18.5736 5.78711L18.3569 6.76679H21.0367L21.2664 5.78711H18.5736Z" fill="#F9F9F9"/>
<path d="M20.7003 8.21298L20.93 7.23145H18.2539L18.0391 8.21298H20.7003Z" fill="#F9F9F9"/>
<path d="M17.3947 8.21298L17.1854 7.23145H14.2148L14.4519 8.21298H17.3947Z" fill="#F9F9F9"/>
<path d="M29.8961 0.979686L30.1313 0H27.0515L26.8403 0.979686H29.8961Z" fill="#F9F9F9"/>
<path d="M24.7525 8.67969H22.0005L22.232 9.65937H24.9655L24.7525 8.67969Z" fill="#F9F9F9"/>
<path d="M21.3203 5.78711L21.55 6.76679H24.3353L24.1205 5.78711H21.3203Z" fill="#F9F9F9"/>
<path d="M20.3624 9.65937L20.5902 8.67969H17.9345L17.7178 9.65937H20.3624Z" fill="#F9F9F9"/>
<path d="M21.6553 7.23242L21.8868 8.21396H24.6462L24.4314 7.23242H21.6553Z" fill="#F9F9F9"/>
<path d="M26.7454 1.44531L26.5361 2.42685H29.5511L29.7882 1.44531H26.7454Z" fill="#F9F9F9"/>
<path d="M26.4362 2.8916L26.2251 3.87129H29.2012L29.4382 2.8916H26.4362Z" fill="#F9F9F9"/>
<path d="M23.0703 0.979686L22.8555 0H19.8535L19.6387 0.979686H23.0703Z" fill="#F9F9F9"/>
<path d="M15.8573 0.979686L15.6499 0H12.4683L12.7053 0.979686H15.8573Z" fill="#F9F9F9"/>
<path d="M23.0156 13.0186L23.2471 14.0001H26.7492L26.9844 13.0186H23.0156Z" fill="#F9F9F9"/>
<path d="M15.6094 13.0186L15.8464 14.0001H19.3466L19.5763 13.0186H15.6094Z" fill="#F9F9F9"/>
<path d="M26.1252 4.33984L25.9141 5.32138H28.8531L29.0883 4.33984H26.1252Z" fill="#F9F9F9"/>
<path d="M20.0254 11.1075L20.2532 10.126H14.9121L15.1492 11.1075H20.0254Z" fill="#F9F9F9"/>
<path d="M25.8089 5.78711L25.5996 6.76679H28.4979L28.735 5.78711H25.8089Z" fill="#F9F9F9"/>
<path d="M27.3402 11.5732H22.6807L22.9122 12.5529H27.1031L27.3402 11.5732Z" fill="#F9F9F9"/>
<path d="M17.7041 9.65937L17.4948 8.67969H14.5669L14.8039 9.65937H17.7041Z" fill="#F9F9F9"/>
<path d="M19.6885 12.5529L19.9181 11.5732H15.2642L15.5012 12.5529H19.6885Z" fill="#F9F9F9"/>
<path d="M25.4997 7.23145L25.2886 8.21298H28.148L28.385 7.23145H25.4997Z" fill="#F9F9F9"/>
<path d="M25.1936 8.67969L24.9844 9.65937H27.8049L28.0401 8.67969H25.1936Z" fill="#F9F9F9"/>
<path d="M22.3354 10.126L22.5669 11.1075H27.4487L27.6858 10.126H22.3354Z" fill="#F9F9F9"/>
<path d="M31.3842 6.76679H41.3625C41.0051 6.30381 40.5106 5.9649 39.9143 5.78711H31.0786C31.1323 6.14454 31.2379 6.47419 31.386 6.76679H31.3842Z" fill="#F9F9F9"/>
<path d="M38.8994 10.126V10.7001C38.8994 10.8742 38.8586 11.0094 38.7827 11.1075H41.9922C41.9977 11.026 41.9996 10.9445 41.9996 10.8612V10.1278H38.8975L38.8994 10.126Z" fill="#F9F9F9"/>
<path d="M38.8999 8.93896V9.65937H42.002V8.77969C42.002 8.74636 42.002 8.71302 42.0001 8.67969H38.8647C38.8888 8.75377 38.9018 8.84081 38.9018 8.94081L38.8999 8.93896Z" fill="#F9F9F9"/>
<path d="M41.2385 0.979686C40.6848 0.35928 39.8588 0 38.8551 0H34.1529C33.1603 0 32.338 0.35928 31.7861 0.979686H41.2385Z" fill="#F9F9F9"/>
<path d="M38.8975 3.30011V3.87422H41.9996V3.14084C41.9996 3.0575 41.9959 2.97602 41.9922 2.89453H38.7827C38.8586 2.99268 38.8994 3.12788 38.8994 3.30196L38.8975 3.30011Z" fill="#F9F9F9"/>
<path d="M34.1328 10.7001V10.126H31.0308V10.8594C31.0308 10.9427 31.0345 11.0242 31.0382 11.1057H34.2476C34.1717 11.0075 34.1309 10.8742 34.1309 10.6982L34.1328 10.7001Z" fill="#F9F9F9"/>
<path d="M34.1309 3.87314V3.29903C34.1309 3.12495 34.1717 2.98976 34.2476 2.8916H31.0382C31.0326 2.97309 31.0308 3.05457 31.0308 3.13791V3.87129H34.1328L34.1309 3.87314Z" fill="#F9F9F9"/>
<path d="M31.793 13.0186C32.3467 13.639 33.1727 13.9982 34.1764 13.9982H38.8786C39.8712 13.9982 40.6935 13.639 41.2454 13.0186H31.793Z" fill="#F9F9F9"/>
<path d="M41.5759 12.5529C41.7426 12.2622 41.863 11.9325 41.9297 11.5732H31.0957C31.1642 11.9325 31.2846 12.2622 31.4513 12.5529H41.5741H41.5759Z" fill="#F9F9F9"/>
<path d="M31.4494 1.44531C31.2828 1.73607 31.1624 2.06572 31.0957 2.425H41.9278C41.8593 2.06572 41.7389 1.73607 41.5722 1.44531H31.4494Z" fill="#F9F9F9"/>
<path d="M31.682 7.23145C32.0506 7.70184 32.5636 8.04075 33.1821 8.21113H41.9548C41.903 7.8537 41.8011 7.52591 41.653 7.23145H31.6802H31.682Z" fill="#F9F9F9"/>
<path d="M34.1328 4.33984H31.0308V5.201C31.0308 5.24175 31.0308 5.28064 31.0326 5.32138H34.1772C34.1476 5.24175 34.1309 5.14915 34.1309 5.04174V4.3417L34.1328 4.33984Z" fill="#F9F9F9"/>
</svg>
