<svg width="97" height="32" viewBox="0 0 97 32" fill="none" xmlns="http://www.w3.org/2000/svg">
<path d="M7.09035 19.839H0V22.0783H7.09035V19.839Z" fill="#F9F9F9"/>
<path d="M7.09035 16.5303H0V18.7696H7.09035V16.5303Z" fill="#F9F9F9"/>
<path d="M25.5171 28.6925V26.4532H0.148438C0.30506 27.2745 0.580208 28.0279 0.956949 28.6925H25.5171Z" fill="#F9F9F9"/>
<path d="M7.09035 24.4583V23.1461H0V24.8223C0 25.0128 0.00846609 25.1991 0.0169322 25.3853H7.3528C7.17924 25.161 7.08612 24.8562 7.08612 24.4541L7.09035 24.4583Z" fill="#F9F9F9"/>
<path d="M25.5227 13.2266H11.6637V15.4658H25.5227V13.2266Z" fill="#F9F9F9"/>
<path d="M23.7848 2.23928C22.5192 0.821211 20.6312 0 18.3369 0H7.13204C4.86313 0 2.98365 0.821211 1.72644 2.23928H23.7848Z" fill="#F9F9F9"/>
<path d="M18.4338 7.54325V8.85549H25.5242V7.17921C25.5242 6.98872 25.5157 6.80246 25.5073 6.61621H18.1714C18.3449 6.84056 18.4381 7.14957 18.4381 7.54748L18.4338 7.54325Z" fill="#F9F9F9"/>
<path d="M18.4381 23.1461V24.4583C18.4381 24.8562 18.3449 25.1652 18.1714 25.3896H25.5242V23.1503H18.4338L18.4381 23.1461Z" fill="#F9F9F9"/>
<path d="M0.956949 3.30328C0.575975 3.96787 0.300827 4.72135 0.148438 5.54257H25.3647C25.2081 4.72135 24.9329 3.96787 24.5519 3.30328H0.956949Z" fill="#F9F9F9"/>
<path d="M1.72644 29.7564C2.98365 31.1745 4.86313 31.9957 7.13627 31.9957H13.7652C16.0257 31.9957 17.939 31.1787 19.1793 29.7564H1.72644Z" fill="#F9F9F9"/>
<path d="M19.351 29.7564L20.2992 31.9999H25.51V29.7564H19.351Z" fill="#F9F9F9"/>
<path d="M7.09035 8.85387V7.54162C7.09035 7.14372 7.18348 6.8347 7.35703 6.61035H0.0169322C0.00423305 6.79661 0 6.98286 0 7.17335V8.84963H7.09035V8.85387Z" fill="#F9F9F9"/>
<path d="M25.5227 16.5298H11.6637V18.7691H25.5227V16.5298Z" fill="#F9F9F9"/>
<path d="M7.09035 9.91907H0V12.1583H7.09035V9.91907Z" fill="#F9F9F9"/>
<path d="M25.5194 19.839H18.4291V22.0783H25.5194V19.839Z" fill="#F9F9F9"/>
<path d="M7.09035 13.227H0V15.4663H7.09035V13.227Z" fill="#F9F9F9"/>
<path d="M29.8298 5.5468H36.9413L36.4672 3.30328H29.288L29.8298 5.5468Z" fill="#F9F9F9"/>
<path d="M44.6499 3.30328L44.1547 5.5468H53.4504L52.9636 3.30328H44.6499Z" fill="#F9F9F9"/>
<path d="M43.9156 6.61035L43.4203 8.84963H54.168L53.677 6.61035H43.9156Z" fill="#F9F9F9"/>
<path d="M38.3558 12.163L37.8775 9.91949H30.8972L31.439 12.163H38.3558Z" fill="#F9F9F9"/>
<path d="M39.0518 15.4663L38.5734 13.227H31.6863L32.2281 15.4663H39.0518Z" fill="#F9F9F9"/>
<path d="M37.6486 8.84963L37.1703 6.61035H30.0927L30.6345 8.84963H37.6486Z" fill="#F9F9F9"/>
<path d="M43.1891 9.91949L42.6938 12.163H54.8977L54.4066 9.91949H43.1891Z" fill="#F9F9F9"/>
<path d="M42.4547 13.2266L41.9594 15.4658H48.0846L48.6095 13.2266H42.4547Z" fill="#F9F9F9"/>
<path d="M47.3158 18.7734L47.8407 16.5298H41.7239L41.2329 18.7734H47.3158Z" fill="#F9F9F9"/>
<path d="M39.7591 18.7734L39.2808 16.5298H32.491L33.0328 18.7734H39.7591Z" fill="#F9F9F9"/>
<path d="M68.334 2.23928L68.8716 0H61.8321L61.3495 2.23928H68.334Z" fill="#F9F9F9"/>
<path d="M56.5777 19.839H50.2874L50.8165 22.0783H57.0645L56.5777 19.839Z" fill="#F9F9F9"/>
<path d="M48.7327 13.2266L49.2576 15.4658H55.6241L55.133 13.2266H48.7327Z" fill="#F9F9F9"/>
<path d="M46.5433 22.0783L47.064 19.839H40.9938L40.4985 22.0783H46.5433Z" fill="#F9F9F9"/>
<path d="M49.4983 16.5303L50.0274 18.7738H56.3347L55.8436 16.5303H49.4983Z" fill="#F9F9F9"/>
<path d="M61.1325 3.30328L60.6542 5.5468H67.5456L68.0874 3.30328H61.1325Z" fill="#F9F9F9"/>
<path d="M60.4259 6.61035L59.9433 8.84963H66.7458L67.2876 6.61035H60.4259Z" fill="#F9F9F9"/>
<path d="M52.7329 2.23928L52.2418 0H45.3801L44.889 2.23928H52.7329Z" fill="#F9F9F9"/>
<path d="M36.2456 2.23928L35.7715 0H28.4991L29.041 2.23928H36.2456Z" fill="#F9F9F9"/>
<path d="M52.6075 29.7564L53.1367 31.9999H61.1414L61.679 29.7564H52.6075Z" fill="#F9F9F9"/>
<path d="M35.6783 29.7564L36.2202 31.9999H44.2206L44.7455 29.7564H35.6783Z" fill="#F9F9F9"/>
<path d="M59.7149 9.91949L59.2324 12.163H65.9502L66.4878 9.91949H59.7149Z" fill="#F9F9F9"/>
<path d="M45.7721 25.3896L46.2928 23.1461H34.0847L34.6265 25.3896H45.7721Z" fill="#F9F9F9"/>
<path d="M58.992 13.2266L58.5137 15.4658H65.1384L65.6802 13.2266H58.992Z" fill="#F9F9F9"/>
<path d="M62.4923 26.4532H51.8419L52.371 28.6925H61.9504L62.4923 26.4532Z" fill="#F9F9F9"/>
<path d="M40.4664 22.0783L39.988 19.839H33.2956L33.8374 22.0783H40.4664Z" fill="#F9F9F9"/>
<path d="M45.0021 28.6925L45.527 26.4532H34.8893L35.4312 28.6925H45.0021Z" fill="#F9F9F9"/>
<path d="M58.2853 16.5298L57.8027 18.7734H64.3386L64.8804 16.5298H58.2853Z" fill="#F9F9F9"/>
<path d="M57.5858 19.839L57.1074 22.0783H63.5543L64.0919 19.839H57.5858Z" fill="#F9F9F9"/>
<path d="M51.0529 23.1461L51.582 25.3896H62.7404L63.2822 23.1461H51.0529Z" fill="#F9F9F9"/>
<path d="M71.7357 15.4658H94.5433C93.7264 14.4076 92.5961 13.6329 91.2331 13.2266H71.0372C71.16 14.0435 71.4013 14.797 71.7399 15.4658H71.7357Z" fill="#F9F9F9"/>
<path d="M88.9128 23.1461V24.4583C88.9128 24.8562 88.8197 25.1652 88.6461 25.3896H95.982C95.9947 25.2033 95.9989 25.0171 95.9989 24.8266V23.1503H88.9086L88.9128 23.1461Z" fill="#F9F9F9"/>
<path d="M88.914 20.4316V22.0783H96.0044V20.0676C96.0044 19.9914 96.0044 19.9152 96.0002 19.839H88.8336C88.8886 20.0083 88.9183 20.2073 88.9183 20.4358L88.914 20.4316Z" fill="#F9F9F9"/>
<path d="M94.2599 2.23928C92.9942 0.821211 91.1063 0 88.812 0H78.0643C75.7953 0 73.9159 0.821211 72.6544 2.23928H94.2599Z" fill="#F9F9F9"/>
<path d="M88.9086 7.54282V8.85506H95.9989V7.17878C95.9989 6.98829 95.9905 6.80204 95.982 6.61578H88.6461C88.8197 6.84014 88.9128 7.14915 88.9128 7.54705L88.9086 7.54282Z" fill="#F9F9F9"/>
<path d="M78.0182 24.4583V23.1461H70.9279V24.8223C70.9279 25.0128 70.9363 25.1991 70.9448 25.3853H78.2807C78.1071 25.161 78.014 24.8562 78.014 24.4541L78.0182 24.4583Z" fill="#F9F9F9"/>
<path d="M78.014 8.85387V7.54162C78.014 7.14372 78.1071 6.8347 78.2807 6.61035H70.9448C70.9321 6.79661 70.9279 6.98286 70.9279 7.17335V8.84963H78.0182L78.014 8.85387Z" fill="#F9F9F9"/>
<path d="M72.67 29.7564C73.9357 31.1745 75.8237 31.9957 78.118 31.9957H88.8657C91.1346 31.9957 93.0141 31.1745 94.2755 29.7564H72.67Z" fill="#F9F9F9"/>
<path d="M95.0311 28.6925C95.4121 28.0279 95.6872 27.2745 95.8396 26.4532H71.0763C71.2329 27.2745 71.5081 28.0279 71.889 28.6925H95.0269H95.0311Z" fill="#F9F9F9"/>
<path d="M71.8848 3.30328C71.5038 3.96787 71.2287 4.72135 71.0763 5.54257H95.8354C95.6788 4.72135 95.4036 3.96787 95.0226 3.30328H71.8848Z" fill="#F9F9F9"/>
<path d="M72.4165 16.5298C73.2588 17.605 74.4314 18.3797 75.8452 18.7691H95.8972C95.7786 17.9521 95.5458 17.2029 95.2072 16.5298H72.4122H72.4165Z" fill="#F9F9F9"/>
<path d="M78.0182 9.91907H70.9279V11.8874C70.9279 11.9806 70.9279 12.0695 70.9321 12.1626H78.1198C78.0521 11.9806 78.014 11.7689 78.014 11.5234V9.9233L78.0182 9.91907Z" fill="#F9F9F9"/>
</svg>
