<svg width="20" height="20" viewBox="0 0 20 20" fill="none" xmlns="http://www.w3.org/2000/svg">
  <g clip-path="url(#clip0_1564_426)">
    <path d="M10 1.25C8.26942 1.25 6.57769 1.76318 5.13876 2.72464C3.69983 3.6861 2.57832 5.05267 1.91606 6.65152C1.25379 8.25037 1.08051 10.0097 1.41813 11.707C1.75575 13.4044 2.58911 14.9635 3.81282 16.1872C5.03653 17.4109 6.59563 18.2442 8.29296 18.5819C9.9903 18.9195 11.7496 18.7462 13.3485 18.0839C14.9473 17.4217 16.3139 16.3002 17.2754 14.8612C18.2368 13.4223 18.75 11.7306 18.75 10C18.75 7.67936 17.8281 5.45376 16.1872 3.81282C14.5462 2.17187 12.3206 1.25 10 1.25ZM10 17.5C8.51664 17.5 7.0666 17.0601 5.83323 16.236C4.59986 15.4119 3.63856 14.2406 3.07091 12.8701C2.50325 11.4997 2.35473 9.99168 2.64411 8.53682C2.9335 7.08197 3.64781 5.74559 4.6967 4.6967C5.7456 3.64781 7.08197 2.9335 8.53683 2.64411C9.99168 2.35472 11.4997 2.50325 12.8701 3.0709C14.2406 3.63856 15.4119 4.59985 16.236 5.83322C17.0601 7.06659 17.5 8.51664 17.5 10C17.5 11.9891 16.7098 13.8968 15.3033 15.3033C13.8968 16.7098 11.9891 17.5 10 17.5Z" fill="#F9F9F9"/>
    <path d="M10.625 13.75V8.75H8.125V10H9.375V13.75H7.5V15H12.5V13.75H10.625Z" fill="#F9F9F9"/>
    <path d="M10 5C9.81458 5 9.63332 5.05498 9.47915 5.158C9.32498 5.26101 9.20482 5.40743 9.13386 5.57873C9.06291 5.75004 9.04434 5.93854 9.08051 6.1204C9.11669 6.30225 9.20598 6.4693 9.33709 6.60041C9.4682 6.73152 9.63525 6.82081 9.8171 6.85699C9.99896 6.89316 10.1875 6.87459 10.3588 6.80364C10.5301 6.73268 10.6765 6.61252 10.7795 6.45835C10.8825 6.30418 10.9375 6.12292 10.9375 5.9375C10.9375 5.68886 10.8387 5.4504 10.6629 5.27459C10.4871 5.09877 10.2486 5 10 5Z" fill="#F9F9F9"/>
  </g>
</svg>
