<svg width="22" height="19" viewBox="0 0 22 19" fill="none" xmlns="http://www.w3.org/2000/svg">
  <path d="M17 10.75H15.5V12.25H17V10.75Z" fill="#F9F9F9"/>
  <path d="M20 4H2V1.75H18.5V0.25H2C1.60218 0.25 1.22064 0.408035 0.93934 0.68934C0.658035 0.970644 0.5 1.35218 0.5 1.75V17.5C0.5 17.8978 0.658035 18.2794 0.93934 18.5607C1.22064 18.842 1.60218 19 2 19H20C20.3978 19 20.7794 18.842 21.0607 18.5607C21.342 18.2794 21.5 17.8978 21.5 17.5V5.5C21.5 5.10218 21.342 4.72064 21.0607 4.43934C20.7794 4.15804 20.3978 4 20 4ZM2 17.5V5.5H20V7.75H14C13.6022 7.75 13.2206 7.90804 12.9393 8.18934C12.658 8.47064 12.5 8.85218 12.5 9.25V13.75C12.5 14.1478 12.658 14.5294 12.9393 14.8107C13.2206 15.092 13.6022 15.25 14 15.25H20V17.5H2ZM20 9.25V13.75H14V9.25H20Z" fill="#F9F9F9"/>
</svg>
