<svg preserveAspectRatio="xMinYMin meet" viewBox="0 0 495 60" fill="none" xmlns="http://www.w3.org/2000/svg">
<g filter="url(#filter0_b_2923_222621)">
<path d="M0 0H495L415 60H80L0 0Z" fill="#0C0C0C" fill-opacity="0.1"/>
<path d="M80.1667 59.5L1.5 0.5H493.5L414.833 59.5H80.1667Z" stroke="#FF6647" stroke-opacity="0.4"/>
</g>
<mask id="mask0_2923_222621" style="mask-type:alpha" maskUnits="userSpaceOnUse" x="0" y="0" width="495" height="60">
<path d="M0 0H495L415 60H80L0 0Z" fill="#0C0C0C"/>
<path d="M80.1667 59.5L1.5 0.5H493.5L414.833 59.5H80.1667Z" stroke="#FF6647" stroke-opacity="0.4"/>
</mask>
<g mask="url(#mask0_2923_222621)">
<g clip-path="url(#clip0_2923_222621)">
<path d="M455.183 15.2472H432.47C432.337 14.8728 432.077 14.5573 431.734 14.3564C431.392 14.1555 430.989 14.0821 430.598 14.1492C430.207 14.2164 429.851 14.4197 429.596 14.7233C429.34 15.0269 429.199 15.4112 429.199 15.8083C429.199 16.2054 429.34 16.5897 429.596 16.8933C429.851 17.1969 430.207 17.4003 430.598 17.4674C430.989 17.5346 431.392 17.4612 431.734 17.2603C432.077 17.0594 432.337 16.7438 432.47 16.3694H454.723L468.751 30.3972H495V29.275H469.189L455.183 15.2472Z" fill="#FF6647" fill-opacity="0.2"/>
<path d="M453.332 19.7316H432.47C432.337 19.3572 432.077 19.0417 431.734 18.8408C431.392 18.6398 430.989 18.5665 430.598 18.6336C430.207 18.7008 429.851 18.9041 429.596 19.2077C429.34 19.5113 429.199 19.8956 429.199 20.2927C429.199 20.6898 429.34 21.0741 429.596 21.3777C429.851 21.6813 430.207 21.8846 430.598 21.9518C430.989 22.0189 431.392 21.9456 431.734 21.7446C432.077 21.5437 432.337 21.2282 432.47 20.8538H452.86L466.944 34.9153H495V33.793H467.359L453.332 19.7316Z" fill="#FF6647" fill-opacity="0.2"/>
<path d="M451.469 24.2238H432.47C432.337 23.8494 432.077 23.5339 431.734 23.3329C431.392 23.132 430.989 23.0587 430.598 23.1258C430.207 23.193 429.851 23.3963 429.596 23.6999C429.34 24.0035 429.199 24.3878 429.199 24.7849C429.199 25.182 429.34 25.5663 429.596 25.8699C429.851 26.1735 430.207 26.3768 430.598 26.444C430.989 26.5111 431.392 26.4378 431.734 26.2368C432.077 26.0359 432.337 25.7204 432.47 25.346H450.998L465.025 39.3738H495V38.2516H465.497L451.469 24.2238Z" fill="#FF6647" fill-opacity="0.2"/>
<path d="M405.784 47.3407V-42.4371L389.433 -58.7879H307.163C307.05 -59.1154 306.839 -59.3996 306.557 -59.6008C306.275 -59.802 305.938 -59.9102 305.592 -59.9102C305.145 -59.9102 304.717 -59.7328 304.401 -59.4171C304.086 -59.1014 303.908 -58.6733 303.908 -58.2268C303.908 -57.7804 304.086 -57.3522 304.401 -57.0365C304.717 -56.7208 305.145 -56.5435 305.592 -56.5435C305.938 -56.5435 306.275 -56.6516 306.557 -56.8529C306.839 -57.0541 307.05 -57.3383 307.163 -57.6657H388.961L404.673 -41.9546V47.8232L418.465 61.6153H495V60.4931H418.925L405.784 47.3407Z" fill="#FF6647" fill-opacity="0.2"/>
<path d="M401.294 49.2029V-40.5749L387.57 -54.2997H273.496C273.383 -54.6271 273.172 -54.9113 272.89 -55.1125C272.608 -55.3137 272.271 -55.4219 271.925 -55.4219C271.478 -55.4219 271.05 -55.2445 270.734 -54.9288C270.419 -54.6132 270.241 -54.185 270.241 -53.7385C270.241 -53.2921 270.419 -52.8639 270.734 -52.5482C271.05 -52.2326 271.478 -52.0552 271.925 -52.0552C272.271 -52.0552 272.608 -52.1634 272.89 -52.3646C273.172 -52.5658 273.383 -52.85 273.496 -53.1774H387.109L400.172 -40.1148V49.663L416.601 66.0923H495V64.9701H417.061L401.294 49.2029Z" fill="#FF6647" fill-opacity="0.2"/>
<path d="M396.805 51.0652V-38.7126L385.706 -49.8114H307.151C307.039 -50.1388 306.827 -50.423 306.545 -50.6242C306.263 -50.8254 305.926 -50.9336 305.58 -50.9336C305.133 -50.9336 304.705 -50.7562 304.39 -50.4406C304.074 -50.1249 303.896 -49.6967 303.896 -49.2503C303.896 -48.8038 304.074 -48.3756 304.39 -48.06C304.705 -47.7443 305.133 -47.5669 305.58 -47.5669C305.926 -47.5669 306.263 -47.6751 306.545 -47.8763C306.827 -48.0775 307.039 -48.3617 307.151 -48.6891H385.246L395.683 -38.2525V51.5253L414.761 70.6031H495V69.4808H415.199L396.805 51.0652Z" fill="#FF6647" fill-opacity="0.2"/>
<path d="M392.317 52.8714V-36.9064L383.9 -45.3231H273.496C273.383 -45.6505 273.172 -45.9347 272.89 -46.1359C272.608 -46.3372 272.271 -46.4453 271.925 -46.4453C271.478 -46.4453 271.05 -46.268 270.734 -45.9523C270.419 -45.6366 270.241 -45.2084 270.241 -44.762C270.241 -44.3155 270.419 -43.8874 270.734 -43.5717C271.05 -43.256 271.478 -43.0786 271.925 -43.0786C272.271 -43.0786 272.608 -43.1868 272.89 -43.388C273.172 -43.5892 273.383 -43.8734 273.496 -44.2009H383.384L391.239 -36.3453V53.4325L412.92 75.1138H495V73.9916H413.347L392.317 52.8714Z" fill="#FF6647" fill-opacity="0.2"/>
<path d="M387.828 54.7825V-34.9953L381.992 -40.8309H307.163C307.05 -41.1584 306.839 -41.4426 306.557 -41.6438C306.275 -41.845 305.938 -41.9531 305.592 -41.9531C305.145 -41.9531 304.717 -41.7758 304.401 -41.4601C304.086 -41.1444 303.908 -40.7162 303.908 -40.2698C303.908 -39.8233 304.086 -39.3952 304.401 -39.0795C304.717 -38.7638 305.145 -38.5865 305.592 -38.5865C305.938 -38.5865 306.275 -38.6946 306.557 -38.8958C306.839 -39.097 307.05 -39.3812 307.163 -39.7087H381.532L386.706 -34.5352V55.2426L411.024 79.5499H495V78.4277H411.484L387.828 54.7825Z" fill="#FF6647" fill-opacity="0.2"/>
<path d="M383.339 56.6447V-33.1331L380.129 -36.3426H273.518C273.406 -36.6701 273.194 -36.9543 272.912 -37.1555C272.631 -37.3567 272.293 -37.4648 271.947 -37.4648C271.501 -37.4648 271.072 -37.2875 270.757 -36.9718C270.441 -36.6561 270.264 -36.228 270.264 -35.7815C270.264 -35.3351 270.441 -34.9069 270.757 -34.5912C271.072 -34.2755 271.501 -34.0982 271.947 -34.0982C272.293 -34.0982 272.631 -34.2063 272.912 -34.4076C273.194 -34.6088 273.406 -34.8929 273.518 -35.2204H379.692L382.239 -32.673V57.1048L409.172 84.0381H495V82.9159H409.621L383.339 56.6447Z" fill="#FF6647" fill-opacity="0.2"/>
<path d="M30.2766 16.3694H52.5302C52.6626 16.7438 52.923 17.0593 53.2655 17.2603C53.608 17.4612 54.0106 17.5346 54.4019 17.4674C54.7933 17.4003 55.1483 17.1969 55.4043 16.8933C55.6602 16.5897 55.8006 16.2054 55.8006 15.8083C55.8006 15.4112 55.6602 15.0269 55.4043 14.7233C55.1483 14.4197 54.7933 14.2164 54.4019 14.1492C54.0106 14.0821 53.608 14.1555 53.2655 14.3564C52.923 14.5573 52.6626 14.8728 52.5302 15.2472H29.8164L15.8111 29.3086H-10V30.4309H16.2488L30.2766 16.3694Z" fill="#FF6647" fill-opacity="0.2"/>
<path d="M32.1394 20.8538H52.5302C52.6626 21.2282 52.923 21.5437 53.2655 21.7446C53.608 21.9456 54.0106 22.0189 54.4019 21.9518C54.7933 21.8846 55.1483 21.6813 55.4043 21.3777C55.6602 21.0741 55.8006 20.6898 55.8006 20.2927C55.8006 19.8956 55.6602 19.5113 55.4043 19.2077C55.1483 18.9041 54.7933 18.7008 54.4019 18.6336C54.0106 18.5665 53.608 18.6398 53.2655 18.8408C52.923 19.0417 52.6626 19.3572 52.5302 19.7316H31.6681L17.6403 33.793H-10V34.9153H18.1117L32.1394 20.8538Z" fill="#FF6647" fill-opacity="0.2"/>
<path d="M34.0023 25.346H52.5302C52.6626 25.7204 52.923 26.0359 53.2655 26.2368C53.608 26.4378 54.0106 26.5111 54.4019 26.444C54.7933 26.3768 55.1483 26.1735 55.4043 25.8699C55.6602 25.5663 55.8006 25.182 55.8006 24.7849C55.8006 24.3878 55.6602 24.0035 55.4043 23.6999C55.1483 23.3963 54.7933 23.193 54.4019 23.1258C54.0106 23.0587 53.608 23.132 53.2655 23.3329C52.923 23.5339 52.6626 23.8494 52.5302 24.2238H33.531L19.5032 38.2853H-10V39.4075H19.9746L34.0023 25.346Z" fill="#FF6647" fill-opacity="0.2"/>
<path d="M80.3389 47.8122V-6.95226C80.7133 -7.08462 81.0288 -7.34508 81.2297 -7.68759C81.4306 -8.0301 81.504 -8.4326 81.4369 -8.82397C81.3697 -9.21534 81.1664 -9.57038 80.8628 -9.82633C80.5592 -10.0823 80.1749 -10.2227 79.7778 -10.2227C79.3807 -10.2227 78.9964 -10.0823 78.6928 -9.82633C78.3892 -9.57038 78.1858 -9.21534 78.1187 -8.82397C78.0515 -8.4326 78.1249 -8.0301 78.3258 -7.68759C78.5267 -7.34508 78.8423 -7.08462 79.2167 -6.95226V47.3409L66.0754 60.4821H-10V61.6043H66.5468L80.3389 47.8122Z" fill="#FF6647" fill-opacity="0.2"/>
<path d="M84.8278 49.6647V15.493C85.2022 15.3607 85.5177 15.1002 85.7186 14.7577C85.9195 14.4152 85.9929 14.0127 85.9258 13.6213C85.8586 13.23 85.6553 12.8749 85.3517 12.619C85.0481 12.363 84.6638 12.2227 84.2667 12.2227C83.8696 12.2227 83.4853 12.363 83.1817 12.619C82.8781 12.8749 82.6747 13.23 82.6076 13.6213C82.5404 14.0127 82.6138 14.4152 82.8147 14.7577C83.0156 15.1002 83.3312 15.3607 83.7056 15.493V49.1597L67.9944 64.9269H-10V66.0491H68.3984L84.8278 49.6647Z" fill="#FF6647" fill-opacity="0.2"/>
<path d="M89.3167 51.5268V-6.95226C89.6911 -7.08462 90.0066 -7.34508 90.2075 -7.68759C90.4084 -8.03009 90.4818 -8.4326 90.4147 -8.82397C90.3475 -9.21534 90.1442 -9.57038 89.8406 -9.82633C89.537 -10.0823 89.1527 -10.2227 88.7556 -10.2227C88.3585 -10.2227 87.9742 -10.0823 87.6706 -9.82633C87.367 -9.57038 87.1636 -9.21534 87.0965 -8.82397C87.0293 -8.4326 87.1027 -8.03009 87.3036 -7.68759C87.5045 -7.34508 87.8201 -7.08462 88.1945 -6.95226V51.0667L69.8012 69.4599H-10V70.5821H70.2613L89.3167 51.5268Z" fill="#FF6647" fill-opacity="0.2"/>
<path d="M93.8056 53.3905V15.4931C94.1799 15.3607 94.4955 15.1002 94.6964 14.7577C94.8973 14.4152 94.9707 14.0127 94.9035 13.6213C94.8364 13.23 94.633 12.8749 94.3294 12.619C94.0258 12.363 93.6415 12.2227 93.2445 12.2227C92.8474 12.2227 92.4631 12.363 92.1595 12.619C91.8559 12.8749 91.6525 13.23 91.5854 13.6213C91.5182 14.0127 91.5916 14.4152 91.7925 14.7577C91.9934 15.1002 92.309 15.3607 92.6833 15.4931V52.8743L71.6529 73.9496H-10V75.0718H72.1242L93.8056 53.3905Z" fill="#FF6647" fill-opacity="0.2"/>
<path d="M98.2944 55.2525V-6.95226C98.6688 -7.08462 98.9844 -7.34508 99.1853 -7.68759C99.3862 -8.0301 99.4596 -8.4326 99.3924 -8.82397C99.3253 -9.21534 99.1219 -9.57038 98.8183 -9.82633C98.5147 -10.0823 98.1304 -10.2227 97.7333 -10.2227C97.3363 -10.2227 96.9519 -10.0823 96.6483 -9.82633C96.3447 -9.57038 96.1414 -9.21534 96.0742 -8.82397C96.0071 -8.4326 96.0805 -8.0301 96.2814 -7.68759C96.4823 -7.34508 96.7979 -7.08462 97.1722 -6.95226V54.77L73.5158 78.4376H-10V79.5599H73.9759L98.2944 55.2525Z" fill="#FF6647" fill-opacity="0.2"/>
<path d="M102.783 57.1055V26.7157C103.158 26.5833 103.473 26.3229 103.674 25.9804C103.875 25.6379 103.948 25.2354 103.881 24.844C103.814 24.4526 103.611 24.0976 103.307 23.8416C103.004 23.5857 102.619 23.4453 102.222 23.4453C101.825 23.4453 101.441 23.5857 101.137 23.8416C100.834 24.0976 100.63 24.4526 100.563 24.844C100.496 25.2354 100.569 25.6379 100.77 25.9804C100.971 26.3229 101.287 26.5833 101.661 26.7157V56.6454L75.3787 82.9278H-10V84.05H75.8388L102.783 57.1055Z" fill="#FF6647" fill-opacity="0.2"/>
<path d="M27.7291 1.15147H67.7027V-21.293L81.4387 -35.029H158.21C158.322 -34.7015 158.534 -34.4173 158.816 -34.2161C159.097 -34.0149 159.435 -33.9068 159.781 -33.9068C160.227 -33.9068 160.656 -34.0841 160.971 -34.3998C161.287 -34.7155 161.464 -35.1437 161.464 -35.5901C161.464 -36.0366 161.287 -36.4647 160.971 -36.7804C160.656 -37.0961 160.227 -37.2734 159.781 -37.2734C159.435 -37.2734 159.097 -37.1653 158.816 -36.9641C158.534 -36.7629 158.322 -36.4787 158.21 -36.1512H80.9786L66.5804 -21.8092V0.0292511H28.1556L13.1402 -15.0198H-10V-13.8975H12.6801L27.7291 1.15147Z" fill="#FF6647" fill-opacity="0.2"/>
<path d="M25.9111 5.64117H72.1916V-19.4854L83.3016 -30.5954H158.21C158.322 -30.2679 158.534 -29.9837 158.816 -29.7825C159.097 -29.5813 159.435 -29.4732 159.781 -29.4732C160.227 -29.4732 160.656 -29.6505 160.971 -29.9662C161.287 -30.2819 161.464 -30.7101 161.464 -31.1565C161.464 -31.603 161.287 -32.0311 160.971 -32.3468C160.656 -32.6625 160.227 -32.8398 159.781 -32.8398C159.435 -32.8398 159.097 -32.7317 158.816 -32.5305C158.534 -32.3293 158.322 -32.0451 158.21 -31.7176H82.8414L71.0693 -19.9455V4.51895H26.3376L11.3222 -10.5301H-10V-9.40784H10.8172L25.9111 5.64117Z" fill="#FF6647" fill-opacity="0.2"/>
<path d="M24.0146 10.1294H76.6805V-17.6231L85.1645 -26.1071H131.277C131.389 -25.7797 131.601 -25.4955 131.882 -25.2943C132.164 -25.093 132.502 -24.9849 132.848 -24.9849C133.294 -24.9849 133.722 -25.1622 134.038 -25.4779C134.354 -25.7936 134.531 -26.2218 134.531 -26.6682C134.531 -27.1147 134.354 -27.5428 134.038 -27.8585C133.722 -28.1742 133.294 -28.3516 132.848 -28.3516C132.502 -28.3516 132.164 -28.2434 131.882 -28.0422C131.601 -27.841 131.389 -27.5568 131.277 -27.2293H84.6931L75.5582 -18.0945V9.00721H24.4747L9.42567 -6.04179H-10V-4.91957H8.96556L24.0146 10.1294Z" fill="#FF6647" fill-opacity="0.2"/>
<path d="M456.844 0.0283031H418.419V-19.9921C418.748 -20.1065 419.032 -20.3203 419.233 -20.6039C419.434 -20.8875 419.542 -21.2268 419.541 -21.5745C419.541 -22.0209 419.364 -22.4491 419.048 -22.7648C418.733 -23.0805 418.305 -23.2578 417.858 -23.2578C417.412 -23.2578 416.984 -23.0805 416.668 -22.7648C416.352 -22.4491 416.175 -22.0209 416.175 -21.5745C416.174 -21.2268 416.282 -20.8875 416.483 -20.6039C416.684 -20.3203 416.969 -20.1065 417.297 -19.9921V1.15053H457.271L472.32 -13.8985H495V-15.0207H471.859L456.844 0.0283031Z" fill="#FF6647" fill-opacity="0.2"/>
<path d="M458.663 4.51776H414.952C414.82 4.14338 414.559 3.82784 414.217 3.62691C413.874 3.42599 413.472 3.35262 413.08 3.41977C412.689 3.48692 412.334 3.69028 412.078 3.99388C411.822 4.29748 411.682 4.68178 411.682 5.07887C411.682 5.47596 411.822 5.86027 412.078 6.16387C412.334 6.46747 412.689 6.67081 413.08 6.73796C413.472 6.80511 413.874 6.73174 414.217 6.53081C414.559 6.32989 414.82 6.01437 414.952 5.63998H459.089L474.138 -9.40903H495V-10.5312H473.678L458.663 4.51776Z" fill="#FF6647" fill-opacity="0.2"/>
<path d="M460.525 9.00601H432.47C432.337 8.63163 432.077 8.31609 431.734 8.11517C431.392 7.91425 430.989 7.84087 430.598 7.90802C430.207 7.97517 429.851 8.17853 429.596 8.48213C429.34 8.78573 429.199 9.17003 429.199 9.56712C429.199 9.96421 429.34 10.3485 429.596 10.6521C429.851 10.9557 430.207 11.1591 430.598 11.2262C430.989 11.2934 431.392 11.22 431.734 11.0191C432.077 10.8181 432.337 10.5026 432.47 10.1282H460.985L476.034 -4.92075H495V-6.04297H475.574L460.525 9.00601Z" fill="#FF6647" fill-opacity="0.2"/>
<path d="M430.562 31.8215H419.44C419.308 31.4471 419.047 31.1315 418.705 30.9306C418.362 30.7297 417.96 30.6563 417.569 30.7235C417.177 30.7906 416.822 30.994 416.566 31.2976C416.31 31.6012 416.17 31.9855 416.17 32.3826C416.17 32.7797 416.31 33.164 416.566 33.4676C416.822 33.7712 417.177 33.9745 417.569 34.0417C417.96 34.1088 418.362 34.0354 418.705 33.8345C419.047 33.6336 419.308 33.3181 419.44 32.9437H430.101L452.03 54.8719H495V53.7497H452.49L430.562 31.8215Z" fill="#FF6647" fill-opacity="0.2"/>
<path d="M54.8981 32.9437H65.5592C65.6916 33.3181 65.952 33.6336 66.2945 33.8345C66.6371 34.0354 67.0396 34.1088 67.4309 34.0417C67.8223 33.9745 68.1774 33.7712 68.4333 33.4676C68.6892 33.164 68.8296 32.7797 68.8296 32.3826C68.8296 31.9855 68.6892 31.6012 68.4333 31.2976C68.1774 30.994 67.8223 30.7906 67.4309 30.7235C67.0396 30.6563 66.6371 30.7297 66.2945 30.9306C65.952 31.1315 65.6916 31.4471 65.5592 31.8215H54.438L32.5098 53.7497H-10V54.8719H32.9699L54.8981 32.9437Z" fill="#FF6647" fill-opacity="0.2"/>
<path d="M141.759 -22.8778C141.626 -23.2522 141.366 -23.5677 141.023 -23.7686C140.681 -23.9695 140.278 -24.0429 139.887 -23.9758C139.496 -23.9086 139.141 -23.7053 138.885 -23.4017C138.629 -23.0981 138.488 -22.7138 138.488 -22.3167C138.488 -21.9196 138.629 -21.5353 138.885 -21.2317C139.141 -20.9281 139.496 -20.7247 139.887 -20.6576C140.278 -20.5904 140.681 -20.6638 141.023 -20.8647C141.366 -21.0656 141.626 -21.3812 141.759 -21.7556H328.912V58.3038C328.537 58.4361 328.222 58.6966 328.021 59.0391C327.82 59.3816 327.747 59.7841 327.814 60.1755C327.881 60.5669 328.084 60.9219 328.388 61.1778C328.691 61.4338 329.076 61.5742 329.473 61.5742C329.87 61.5742 330.254 61.4338 330.558 61.1778C330.861 60.9219 331.065 60.5669 331.132 60.1755C331.199 59.7841 331.126 59.3816 330.925 59.0391C330.724 58.6966 330.408 58.4361 330.034 58.3038V-22.8778H141.759Z" fill="#FF6647" fill-opacity="0.2"/>
<path d="M173.181 -18.3856C173.048 -18.76 172.788 -19.0755 172.445 -19.2764C172.103 -19.4774 171.7 -19.5507 171.309 -19.4836C170.917 -19.4164 170.562 -19.2131 170.306 -18.9095C170.051 -18.6059 169.91 -18.2216 169.91 -17.8245C169.91 -17.4274 170.051 -17.0431 170.306 -16.7395C170.562 -16.4359 170.917 -16.2325 171.309 -16.1654C171.7 -16.0982 172.103 -16.1716 172.445 -16.3725C172.788 -16.5734 173.048 -16.889 173.181 -17.2634H324.422V47.0849C324.048 47.2173 323.733 47.4777 323.532 47.8202C323.331 48.1627 323.257 48.5653 323.324 48.9566C323.392 49.348 323.595 49.703 323.899 49.959C324.202 50.2149 324.587 50.3553 324.984 50.3553C325.381 50.3553 325.765 50.2149 326.069 49.959C326.372 49.703 326.576 49.348 326.643 48.9566C326.71 48.5653 326.636 48.1627 326.436 47.8202C326.235 47.4777 325.919 47.2173 325.545 47.0849V-18.3856H173.181Z" fill="#FF6647" fill-opacity="0.2"/>
<path d="M173.181 -9.40903C173.048 -9.78341 172.788 -10.099 172.445 -10.2999C172.103 -10.5008 171.7 -10.5742 171.309 -10.507C170.917 -10.4399 170.562 -10.2365 170.306 -9.93291C170.051 -9.62931 169.91 -9.24501 169.91 -8.84791C169.91 -8.45082 170.051 -8.06652 170.306 -7.76292C170.562 -7.45932 170.917 -7.25598 171.309 -7.18883C171.7 -7.12168 172.103 -7.19504 172.445 -7.39596C172.788 -7.59688 173.048 -7.91242 173.181 -8.2868H315.445V47.0837C315.07 47.216 314.755 47.4765 314.554 47.819C314.353 48.1615 314.28 48.564 314.347 48.9554C314.414 49.3468 314.617 49.7018 314.921 49.9577C315.224 50.2137 315.609 50.3541 316.006 50.3541C316.403 50.3541 316.787 50.2137 317.091 49.9577C317.394 49.7018 317.598 49.3468 317.665 48.9554C317.732 48.564 317.659 48.1615 317.458 47.819C317.257 47.4765 316.941 47.216 316.567 47.0837V-9.40903H173.181Z" fill="#FF6647" fill-opacity="0.2"/>
<path d="M272.149 84.05L293.325 62.8737V26.7157C293.7 26.5833 294.015 26.3229 294.216 25.9804C294.417 25.6379 294.49 25.2354 294.423 24.844C294.356 24.4526 294.153 24.0976 293.849 23.8416C293.546 23.5857 293.161 23.4453 292.764 23.4453C292.367 23.4453 291.983 23.5857 291.679 23.8416C291.376 24.0976 291.172 24.4526 291.105 24.844C291.038 25.2354 291.111 25.6379 291.312 25.9804C291.513 26.3229 291.829 26.5833 292.203 26.7157V62.4024L271.678 82.9278H136.057L108.955 54.0867V37.9379C109.33 37.8056 109.645 37.5451 109.846 37.2026C110.047 36.8601 110.121 36.4576 110.053 36.0662C109.986 35.6748 109.783 35.3198 109.479 35.0639C109.176 34.8079 108.791 34.6675 108.394 34.6675C107.997 34.6675 107.613 34.8079 107.309 35.0639C107.006 35.3198 106.802 35.6748 106.735 36.0662C106.668 36.4576 106.741 36.8601 106.942 37.2026C107.143 37.5451 107.459 37.8056 107.833 37.9379V54.5356L135.575 84.05H272.149Z" fill="#FF6647" fill-opacity="0.2"/>
<path d="M137.505 79.5612H270.298L288.837 61.0108V37.9379C289.211 37.8056 289.527 37.5451 289.728 37.2026C289.928 36.8601 290.002 36.4576 289.935 36.0662C289.868 35.6748 289.664 35.3198 289.361 35.0639C289.057 34.8079 288.673 34.6675 288.276 34.6675C287.879 34.6675 287.494 34.8079 287.191 35.0639C286.887 35.3198 286.684 35.6748 286.617 36.0662C286.549 36.4576 286.623 36.8601 286.824 37.2026C287.025 37.5451 287.34 37.8056 287.715 37.9379V60.5507L269.826 78.4389H137.999L113.445 52.3136V26.7157C113.819 26.5833 114.135 26.3229 114.335 25.9804C114.536 25.6379 114.61 25.2354 114.543 24.844C114.475 24.4526 114.272 24.0976 113.969 23.8416C113.665 23.5857 113.281 23.4453 112.884 23.4453C112.486 23.4453 112.102 23.5857 111.799 23.8416C111.495 24.0976 111.292 24.4526 111.224 24.844C111.157 25.2354 111.231 25.6379 111.432 25.9804C111.633 26.3229 111.948 26.5833 112.322 26.7157V52.7513L137.505 79.5612Z" fill="#FF6647" fill-opacity="0.2"/>
<path d="M126.91 37.9379C127.285 37.8056 127.6 37.5451 127.801 37.2026C128.002 36.8601 128.076 36.4576 128.008 36.0662C127.941 35.6748 127.738 35.3198 127.434 35.0639C127.131 34.8079 126.746 34.6675 126.349 34.6675C125.952 34.6675 125.568 34.8079 125.264 35.0639C124.961 35.3198 124.757 35.6748 124.69 36.0662C124.623 36.4576 124.696 36.8601 124.897 37.2026C125.098 37.5451 125.414 37.8056 125.788 37.9379V47.4207L143.34 66.0945H264.719L275.369 55.4334V26.7157C275.744 26.5833 276.059 26.3229 276.26 25.9804C276.461 25.6379 276.534 25.2354 276.467 24.844C276.4 24.4526 276.197 24.0976 275.893 23.8416C275.59 23.5857 275.205 23.4453 274.808 23.4453C274.411 23.4453 274.027 23.5857 273.723 23.8416C273.42 24.0976 273.216 24.4526 273.149 24.844C273.082 25.2354 273.155 25.6379 273.356 25.9804C273.557 26.3229 273.873 26.5833 274.247 26.7157V54.9732L264.248 64.9723H143.811L126.899 47.0167L126.91 37.9379Z" fill="#FF6647" fill-opacity="0.2"/>
<path d="M340.986 52.3014L369.547 80.8507C369.433 81.0769 369.375 81.3271 369.379 81.5802C369.379 81.9131 369.477 82.2386 369.662 82.5154C369.847 82.7922 370.11 83.008 370.418 83.1354C370.725 83.2628 371.064 83.2961 371.39 83.2312C371.717 83.1662 372.017 83.0059 372.252 82.7705C372.488 82.535 372.648 82.2351 372.713 81.9086C372.778 81.582 372.744 81.2436 372.617 80.936C372.49 80.6284 372.274 80.3655 371.997 80.1805C371.72 79.9956 371.395 79.8969 371.062 79.8969C370.809 79.8951 370.559 79.9527 370.332 80.0652L342.109 51.8301V-21.0134H369.48C369.591 -20.6832 369.804 -20.3967 370.088 -20.1951C370.373 -19.9935 370.713 -19.8871 371.062 -19.8911C371.508 -19.8911 371.936 -20.0685 372.252 -20.3842C372.568 -20.6999 372.745 -21.128 372.745 -21.5745C372.745 -22.0209 372.568 -22.4491 372.252 -22.7648C371.936 -23.0805 371.508 -23.2578 371.062 -23.2578C370.714 -23.2585 370.375 -23.1508 370.091 -22.9496C369.808 -22.7485 369.594 -22.4639 369.48 -22.1356H340.986V52.3014Z" fill="#FF6647" fill-opacity="0.2"/>
<path d="M361.624 -7.54462C361.736 -7.2144 361.949 -6.92795 362.233 -6.72634C362.517 -6.52473 362.858 -6.41833 363.206 -6.42239C363.653 -6.42239 364.081 -6.59975 364.397 -6.91544C364.712 -7.23112 364.89 -7.65928 364.89 -8.10573C364.89 -8.55217 364.712 -8.98035 364.397 -9.29603C364.081 -9.61172 363.653 -9.78906 363.206 -9.78906C362.859 -9.78973 362.52 -9.682 362.236 -9.48087C361.952 -9.27973 361.738 -8.99519 361.624 -8.66684H354.453V46.726L364.553 56.826C364.397 57.1561 364.353 57.5277 364.427 57.8851C364.501 58.2425 364.689 58.5661 364.963 58.8073C365.237 59.0486 365.581 59.1943 365.945 59.2225C366.309 59.2508 366.672 59.16 366.98 58.964C367.288 58.7679 367.524 58.4771 367.652 58.1355C367.78 57.7938 367.793 57.4197 367.691 57.0696C367.588 56.7195 367.374 56.4123 367.081 56.1943C366.789 55.9763 366.433 55.8593 366.068 55.8609C365.819 55.8647 365.574 55.9221 365.35 56.0292L355.587 46.2659V-7.54462H361.624Z" fill="#FF6647" fill-opacity="0.2"/>
<path d="M140.176 -15.0234C139.868 -15.0243 139.564 -14.9402 139.3 -14.7803C139.036 -14.6205 138.821 -14.391 138.678 -14.1171C138.536 -13.8431 138.471 -13.5353 138.492 -13.2271C138.513 -12.919 138.618 -12.6225 138.796 -12.3702C138.974 -12.1178 139.218 -11.9192 139.501 -11.7962C139.784 -11.6731 140.096 -11.6304 140.402 -11.6726C140.708 -11.7148 140.996 -11.8403 141.235 -12.0355C141.475 -12.2306 141.656 -12.4878 141.759 -12.779H319.934V58.3026C319.559 58.435 319.244 58.6954 319.043 59.0379C318.842 59.3804 318.769 59.783 318.836 60.1743C318.903 60.5657 319.106 60.9207 319.41 61.1767C319.714 61.4326 320.098 61.573 320.495 61.573C320.892 61.573 321.276 61.4326 321.58 61.1767C321.884 60.9207 322.087 60.5657 322.154 60.1743C322.221 59.783 322.148 59.3804 321.947 59.0379C321.746 58.6954 321.43 58.435 321.056 58.3026V-13.9012H141.759C141.642 -14.2277 141.427 -14.5105 141.144 -14.7111C140.861 -14.9118 140.523 -15.0208 140.176 -15.0234Z" fill="#FF6647" fill-opacity="0.2"/>
<path d="M140.175 -2.67631C140.522 -2.6789 140.86 -2.7879 141.143 -2.98859C141.426 -3.18928 141.641 -3.47199 141.758 -3.79853H310.955V58.3052C310.581 58.4376 310.265 58.6981 310.064 59.0406C309.863 59.3831 309.79 59.7856 309.857 60.177C309.924 60.5683 310.128 60.9234 310.431 61.1793C310.735 61.4352 311.119 61.5756 311.516 61.5756C311.913 61.5756 312.298 61.4352 312.601 61.1793C312.905 60.9234 313.108 60.5683 313.175 60.177C313.243 59.7856 313.169 59.3831 312.968 59.0406C312.767 58.6981 312.452 58.4376 312.077 58.3052V-4.92075H141.758C141.655 -5.2119 141.474 -5.46912 141.234 -5.66427C140.995 -5.85941 140.707 -5.98496 140.401 -6.02717C140.095 -6.06938 139.783 -6.02663 139.5 -5.90359C139.217 -5.78055 138.973 -5.58197 138.795 -5.32958C138.617 -5.07719 138.512 -4.7807 138.491 -4.47259C138.47 -4.16448 138.535 -3.8566 138.677 -3.58265C138.82 -3.3087 139.035 -3.07925 139.299 -2.9194C139.563 -2.75954 139.867 -2.67544 140.175 -2.67631Z" fill="#FF6647" fill-opacity="0.2"/>
<path d="M140.176 6.30416C140.523 6.30157 140.861 6.19257 141.144 5.99188C141.427 5.79118 141.642 5.50847 141.759 5.18194H301.978V58.3079C301.604 58.4403 301.288 58.7007 301.088 59.0433C300.887 59.3858 300.813 59.7883 300.88 60.1797C300.948 60.571 301.151 60.926 301.455 61.182C301.758 61.4379 302.142 61.5783 302.54 61.5783C302.937 61.5783 303.321 61.4379 303.624 61.182C303.928 60.926 304.131 60.571 304.199 60.1797C304.266 59.7883 304.192 59.3858 303.991 59.0433C303.791 58.7007 303.475 58.4403 303.101 58.3079V4.05972H141.759C141.656 3.76857 141.475 3.51135 141.235 3.3162C140.996 3.12106 140.708 2.99551 140.402 2.9533C140.096 2.91109 139.784 2.95384 139.501 3.07688C139.218 3.19992 138.974 3.3985 138.796 3.65089C138.618 3.90328 138.513 4.19977 138.492 4.50788C138.471 4.81599 138.536 5.12387 138.678 5.39782C138.821 5.67176 139.036 5.90121 139.3 6.06107C139.564 6.22093 139.868 6.30503 140.176 6.30416Z" fill="#FF6647" fill-opacity="0.2"/>
<path d="M115.936 -18.9487C115.937 -19.2575 115.853 -19.5606 115.693 -19.8248C115.533 -20.089 115.304 -20.3041 115.03 -20.4467C114.756 -20.5892 114.448 -20.6536 114.14 -20.6329C113.832 -20.6122 113.535 -20.5071 113.283 -20.3292C113.03 -20.1513 112.832 -19.9073 112.709 -19.6241C112.586 -19.3408 112.543 -19.0292 112.585 -18.7233C112.627 -18.4174 112.753 -18.129 112.948 -17.8896C113.143 -17.6503 113.4 -17.4693 113.692 -17.3663V1.15033H124.757C124.871 1.47868 125.085 1.76322 125.368 1.96436C125.652 2.1655 125.991 2.27322 126.339 2.27255C126.785 2.27255 127.214 2.09519 127.529 1.77951C127.845 1.46382 128.022 1.03567 128.022 0.58922C128.022 0.142773 127.845 -0.2854 127.529 -0.601086C127.214 -0.916773 126.785 -1.09411 126.339 -1.09411C125.991 -1.09478 125.652 -0.987057 125.368 -0.785919C125.085 -0.584784 124.871 -0.30024 124.757 0.0281086H114.814V-17.3663C115.14 -17.4835 115.423 -17.6981 115.624 -17.981C115.824 -18.264 115.933 -18.6018 115.936 -18.9487Z" fill="#FF6647" fill-opacity="0.2"/>
<path d="M99.4958 -19.2188C99.0494 -19.2188 98.6212 -19.0414 98.3055 -18.7257C97.9898 -18.41 97.8125 -17.9819 97.8125 -17.5354C97.8125 -17.089 97.9898 -16.6608 98.3055 -16.3451C98.6212 -16.0294 99.0494 -15.8521 99.4958 -15.8521C99.7488 -15.8503 99.9987 -15.908 100.225 -16.0204L106.431 -9.80331V14.4704H122.299C122.412 14.7978 122.623 15.082 122.905 15.2832C123.187 15.4844 123.524 15.5926 123.87 15.5926C124.317 15.5926 124.745 15.4152 125.061 15.0996C125.376 14.7839 125.554 14.3557 125.554 13.9093C125.554 13.4628 125.376 13.0347 125.061 12.719C124.745 12.4033 124.317 12.2259 123.87 12.2259C123.524 12.2259 123.187 12.3341 122.905 12.5353C122.623 12.7365 122.412 13.0207 122.299 13.3481H107.553V-10.2746L101.011 -16.806C101.124 -17.0321 101.182 -17.2823 101.179 -17.5354C101.179 -17.9819 101.002 -18.41 100.686 -18.7257C100.37 -19.0414 99.9423 -19.2188 99.4958 -19.2188Z" fill="#FF6647" fill-opacity="0.2"/>
<path d="M119.056 36.3556C119.057 36.0468 118.973 35.7437 118.813 35.4795C118.653 35.2153 118.424 35.0001 118.15 34.8576C117.876 34.715 117.568 34.6506 117.26 34.6713C116.952 34.6921 116.655 34.7971 116.403 34.9751C116.15 35.153 115.952 35.3969 115.829 35.6802C115.706 35.9634 115.663 36.275 115.705 36.581C115.747 36.8869 115.873 37.1753 116.068 37.4146C116.263 37.6539 116.521 37.835 116.812 37.9379V50.9781L139.458 75.0722H268.435L284.348 59.1479V26.7157C284.723 26.5833 285.038 26.3229 285.239 25.9804C285.44 25.6379 285.513 25.2354 285.446 24.844C285.379 24.4526 285.176 24.0976 284.872 23.8416C284.569 23.5857 284.184 23.4453 283.787 23.4453C283.39 23.4453 283.006 23.5857 282.702 23.8416C282.399 24.0976 282.195 24.4526 282.128 24.844C282.061 25.2354 282.134 25.6379 282.335 25.9804C282.536 26.3229 282.852 26.5833 283.226 26.7157V58.6878L267.975 73.95H139.941L117.934 50.5293V37.9379C118.26 37.8208 118.543 37.6062 118.744 37.3232C118.945 37.0403 119.054 36.7025 119.056 36.3556Z" fill="#FF6647" fill-opacity="0.2"/>
<path d="M123.544 25.1334C123.545 24.8246 123.461 24.5215 123.301 24.2572C123.141 23.993 122.912 23.7779 122.638 23.6353C122.364 23.4928 122.056 23.4284 121.748 23.4491C121.44 23.4698 121.144 23.5749 120.891 23.7528C120.639 23.9308 120.44 24.1747 120.317 24.458C120.194 24.7412 120.151 25.0528 120.194 25.3587C120.236 25.6646 120.361 25.953 120.556 26.1924C120.752 26.4317 121.009 26.6128 121.3 26.7157V49.1601L141.399 70.5497H266.572L279.859 57.2626V37.9379C280.233 37.8056 280.549 37.5451 280.75 37.2026C280.95 36.8601 281.024 36.4576 280.957 36.0662C280.89 35.6748 280.686 35.3198 280.383 35.0639C280.079 34.8079 279.695 34.6675 279.298 34.6675C278.901 34.6675 278.516 34.8079 278.213 35.0639C277.909 35.3198 277.706 35.6748 277.639 36.0662C277.571 36.4576 277.645 36.8601 277.846 37.2026C278.047 37.5451 278.362 37.8056 278.736 37.9379V56.8249L266.067 69.4611H141.882L122.422 48.7561V26.7157C122.749 26.5985 123.031 26.384 123.232 26.101C123.433 25.818 123.542 25.4803 123.544 25.1334Z" fill="#FF6647" fill-opacity="0.2"/>
<path d="M132.523 25.1334C132.524 24.8246 132.44 24.5215 132.28 24.2572C132.12 23.993 131.891 23.7779 131.617 23.6353C131.343 23.4928 131.035 23.4284 130.727 23.4491C130.419 23.4698 130.122 23.5749 129.87 23.7528C129.617 23.9308 129.419 24.1747 129.296 24.458C129.173 24.7412 129.13 25.0528 129.172 25.3587C129.214 25.6646 129.34 25.953 129.535 26.1924C129.73 26.4317 129.987 26.6128 130.278 26.7157V45.6364L145.283 61.6056H262.858L270.882 53.5705V37.9379C271.256 37.8056 271.572 37.5451 271.772 37.2026C271.973 36.8601 272.047 36.4576 271.98 36.0662C271.912 35.6748 271.709 35.3198 271.406 35.0639C271.102 34.8079 270.718 34.6675 270.321 34.6675C269.923 34.6675 269.539 34.8079 269.236 35.0639C268.932 35.3198 268.729 35.6748 268.661 36.0662C268.594 36.4576 268.668 36.8601 268.869 37.2026C269.07 37.5451 269.385 37.8056 269.759 37.9379V53.1104L262.386 60.4834H145.754L131.401 45.1987V26.7157C131.727 26.5985 132.01 26.384 132.211 26.101C132.411 25.818 132.52 25.4803 132.523 25.1334Z" fill="#FF6647" fill-opacity="0.2"/>
<path d="M137.011 36.3556C137.012 36.0468 136.928 35.7437 136.768 35.4795C136.608 35.2153 136.379 35.0001 136.105 34.8576C135.831 34.715 135.523 34.6506 135.215 34.6713C134.907 34.6921 134.61 34.7971 134.358 34.9751C134.106 35.153 133.907 35.3969 133.784 35.6802C133.661 35.9634 133.618 36.2751 133.66 36.581C133.703 36.8869 133.828 37.1753 134.023 37.4146C134.218 37.654 134.476 37.835 134.767 37.9379V43.8969L147.223 57.1504H260.994L266.392 51.7525V26.7157C266.767 26.5833 267.082 26.3229 267.283 25.9804C267.484 25.6379 267.557 25.2354 267.49 24.844C267.423 24.4526 267.22 24.0976 266.916 23.8416C266.613 23.5857 266.228 23.4453 265.831 23.4453C265.434 23.4453 265.05 23.5857 264.746 23.8416C264.443 24.0976 264.239 24.4526 264.172 24.844C264.105 25.2354 264.178 25.6379 264.379 25.9804C264.58 26.3229 264.896 26.5833 265.27 26.7157V51.2475L260.534 55.9945H147.695L135.889 43.4144V37.9379C136.216 37.8208 136.498 37.6062 136.699 37.3232C136.9 37.0403 137.009 36.7025 137.011 36.3556Z" fill="#FF6647" fill-opacity="0.2"/>
<path d="M164.203 22.1702H172.395L180.621 30.3849H236.182C236.314 30.7592 236.575 31.0748 236.917 31.2757C237.26 31.4766 237.662 31.55 238.054 31.4828C238.445 31.4157 238.8 31.2124 239.056 30.9088C239.312 30.6052 239.452 30.2208 239.452 29.8238C239.452 29.4267 239.312 29.0423 239.056 28.7388C238.8 28.4352 238.445 28.2318 238.054 28.1647C237.662 28.0975 237.26 28.1709 236.917 28.3718C236.575 28.5727 236.314 28.8883 236.182 29.2627H181.081L172.922 21.048H164.259C164.126 20.6736 163.866 20.3581 163.523 20.1572C163.181 19.9563 162.778 19.8829 162.387 19.95C161.996 20.0172 161.641 20.2205 161.385 20.5241C161.129 20.8277 160.988 21.212 160.988 21.6091C160.988 22.0062 161.129 22.3905 161.385 22.6941C161.641 22.9977 161.996 23.201 162.387 23.2682C162.778 23.3353 163.181 23.262 163.523 23.0611C163.866 22.8601 164.126 22.5446 164.259 22.1702H164.203Z" fill="#FF6647" fill-opacity="0.2"/>
<path d="M255.294 21.606C255.714 21.6095 256.128 21.4947 256.486 21.2748C256.845 21.0549 257.134 20.7387 257.322 20.3622C257.509 19.9858 257.587 19.5642 257.546 19.1456C257.506 18.727 257.349 18.3282 257.092 17.9946C256.836 17.6611 256.492 17.4062 256.098 17.2591C255.704 17.1119 255.276 17.0785 254.864 17.1625C254.452 17.2465 254.072 17.4446 253.767 17.7342C253.462 18.0238 253.244 18.3933 253.139 18.8005H191.271C191.135 18.2716 190.81 17.8106 190.358 17.504C189.906 17.1974 189.357 17.0662 188.815 17.1351C188.273 17.2039 187.775 17.468 187.414 17.8779C187.053 18.2878 186.854 18.8153 186.854 19.3616C186.854 19.9079 187.053 20.4354 187.414 20.8453C187.775 21.2552 188.273 21.5193 188.815 21.5881C189.357 21.657 189.906 21.5258 190.358 21.2192C190.81 20.9126 191.135 20.4517 191.271 19.9227H253.139C253.263 20.4014 253.541 20.826 253.931 21.1303C254.32 21.4347 254.8 21.602 255.294 21.606ZM255.294 18.2394C255.516 18.2394 255.733 18.3052 255.917 18.4285C256.102 18.5518 256.246 18.7271 256.331 18.9322C256.416 19.1372 256.438 19.3629 256.395 19.5805C256.351 19.7982 256.244 19.9982 256.087 20.1551C255.931 20.3121 255.731 20.419 255.513 20.4623C255.295 20.5056 255.07 20.4833 254.864 20.3984C254.659 20.3135 254.484 20.1696 254.361 19.9851C254.238 19.8005 254.172 19.5836 254.172 19.3616C254.172 19.064 254.29 18.7785 254.5 18.5681C254.711 18.3576 254.996 18.2394 255.294 18.2394ZM189.083 20.4838C188.861 20.4838 188.644 20.418 188.459 20.2947C188.275 20.1714 188.131 19.9961 188.046 19.7911C187.961 19.586 187.939 19.3604 187.982 19.1427C188.025 18.925 188.132 18.725 188.289 18.5681C188.446 18.4111 188.646 18.3043 188.864 18.261C189.082 18.2177 189.307 18.2399 189.512 18.3248C189.717 18.4098 189.893 18.5536 190.016 18.7381C190.139 18.9227 190.205 19.1397 190.205 19.3616C190.205 19.6554 190.09 19.9375 189.884 20.1473C189.679 20.3571 189.399 20.478 189.105 20.4838H189.083Z" fill="#FF6647" fill-opacity="0.2"/>
<path d="M248.987 36.0423C249.296 36.0432 249.599 35.9591 249.863 35.7992C250.127 35.6393 250.342 35.4099 250.485 35.136C250.627 34.862 250.692 34.5541 250.671 34.246C250.65 33.9379 250.545 33.6414 250.367 33.389C250.19 33.1366 249.946 32.9381 249.662 32.815C249.379 32.692 249.067 32.6492 248.762 32.6914C248.456 32.7336 248.167 32.8592 247.928 33.0543C247.689 33.2495 247.508 33.5067 247.405 33.7978H179.218L171.004 25.5832H147.628C147.495 25.2088 147.235 24.8933 146.892 24.6923C146.55 24.4914 146.147 24.418 145.756 24.4852C145.365 24.5523 145.01 24.7557 144.754 25.0593C144.498 25.3629 144.357 25.7472 144.357 26.1443C144.357 26.5414 144.498 26.9257 144.754 27.2293C145.01 27.5329 145.365 27.7362 145.756 27.8034C146.147 27.8705 146.55 27.7972 146.892 27.5962C147.235 27.3953 147.495 27.0798 147.628 26.7054H170.544L178.758 34.9201H247.405C247.522 35.2466 247.736 35.5293 248.019 35.73C248.302 35.9307 248.64 36.0397 248.987 36.0423Z" fill="#FF6647" fill-opacity="0.2"/>
<path d="M237.764 40.5267C238.073 40.5276 238.376 40.4435 238.64 40.2836C238.904 40.1237 239.119 39.8943 239.262 39.6203C239.404 39.3464 239.469 39.0385 239.448 38.7304C239.427 38.4223 239.322 38.1258 239.144 37.8734C238.966 37.621 238.722 37.4224 238.439 37.2994C238.156 37.1764 237.844 37.1336 237.538 37.1758C237.232 37.218 236.944 37.3436 236.705 37.5387C236.465 37.7339 236.284 37.9911 236.181 38.2822H177.411L169.185 30.0675H164.247C164.115 29.6932 163.854 29.3776 163.512 29.1767C163.169 28.9758 162.767 28.9024 162.375 28.9696C161.984 29.0367 161.629 29.24 161.373 29.5437C161.117 29.8473 160.977 30.2316 160.977 30.6286C160.977 31.0257 161.117 31.4101 161.373 31.7137C161.629 32.0173 161.984 32.2206 162.375 32.2878C162.767 32.3549 163.169 32.2815 163.512 32.0806C163.854 31.8797 164.115 31.5641 164.247 31.1898H168.736L176.95 39.4045H236.237C236.351 39.7222 236.557 39.9988 236.829 40.1988C237.101 40.3987 237.426 40.5129 237.764 40.5267Z" fill="#FF6647" fill-opacity="0.2"/>
<path d="M366.764 62.9052C366.515 62.909 366.27 62.9664 366.045 63.0736L351.086 48.1143V-12.0368H369.479C369.591 -11.7066 369.804 -11.4201 370.088 -11.2185C370.372 -11.0169 370.713 -10.9105 371.062 -10.9146C371.508 -10.9146 371.936 -11.0919 372.252 -11.4076C372.568 -11.7233 372.745 -12.1515 372.745 -12.5979C372.745 -13.0444 372.568 -13.4725 372.252 -13.7882C371.936 -14.1039 371.508 -14.2812 371.062 -14.2812C370.714 -14.2819 370.375 -14.1742 370.091 -13.9731C369.807 -13.7719 369.594 -13.4874 369.479 -13.159H349.964V48.5632L365.249 63.8591C365.093 64.1891 365.049 64.5609 365.122 64.9182C365.196 65.2756 365.384 65.5992 365.658 65.8404C365.932 66.0817 366.277 66.2274 366.641 66.2556C367.004 66.2839 367.368 66.1931 367.675 65.9971C367.983 65.801 368.219 65.5102 368.347 65.1686C368.475 64.8269 368.489 64.4529 368.386 64.1027C368.283 63.7526 368.069 63.4454 367.777 63.2274C367.484 63.0094 367.128 62.8924 366.764 62.894V62.9052Z" fill="#FF6647" fill-opacity="0.2"/>
<path d="M366.572 72.4222C367.019 72.4222 367.447 72.2449 367.763 71.9292C368.078 71.6135 368.256 71.1853 368.256 70.7389C368.256 70.2925 368.078 69.8643 367.763 69.5486C367.447 69.2329 367.019 69.0556 366.572 69.0556C366.32 69.0595 366.071 69.1169 365.843 69.2239L346.597 49.9778V-16.5251H361.623C361.735 -16.1949 361.948 -15.9084 362.232 -15.7068C362.516 -15.5052 362.857 -15.3988 363.206 -15.4029C363.652 -15.4029 364.08 -15.5802 364.396 -15.8959C364.712 -16.2116 364.889 -16.6397 364.889 -17.0862C364.889 -17.5326 364.712 -17.9608 364.396 -18.2765C364.08 -18.5922 363.652 -18.7695 363.206 -18.7695C362.858 -18.7702 362.519 -18.6625 362.235 -18.4613C361.952 -18.2602 361.738 -17.9757 361.623 -17.6473H345.475V50.4379L365.057 70.0207C364.944 70.2429 364.886 70.4894 364.889 70.7389C364.889 71.1853 365.066 71.6135 365.382 71.9292C365.698 72.2449 366.126 72.4222 366.572 72.4222Z" fill="#FF6647" fill-opacity="0.2"/>
<path d="M1.78333 5.74165C2.09214 5.74251 2.39524 5.65842 2.65945 5.49856C2.92366 5.3387 3.13881 5.10925 3.28135 4.83531C3.42389 4.56136 3.48832 4.25349 3.4676 3.94537C3.44687 3.63726 3.3418 3.34078 3.16386 3.08838C2.98592 2.83599 2.74199 2.63742 2.45875 2.51438C2.17551 2.39134 1.86388 2.34859 1.55797 2.3908C1.25206 2.43301 0.963652 2.55856 0.724316 2.7537C0.48498 2.94885 0.303936 3.20607 0.200998 3.49721H-10V4.61943H0.200998C0.31816 4.94596 0.53272 5.22867 0.815694 5.42936C1.09867 5.63005 1.43642 5.73906 1.78333 5.74165Z" fill="#FF6647" fill-opacity="0.2"/>
<path d="M8.51666 10.2299C8.82547 10.2308 9.12857 10.1467 9.39278 9.98685C9.657 9.827 9.87214 9.59755 10.0147 9.3236C10.1572 9.04965 10.2217 8.74177 10.2009 8.43366C10.1802 8.12555 10.0751 7.82906 9.89719 7.57667C9.71926 7.32428 9.47532 7.1257 9.19208 7.00266C8.90884 6.87962 8.59721 6.83687 8.2913 6.87908C7.98539 6.92129 7.69698 7.04684 7.45765 7.24199C7.21831 7.43713 7.03727 7.69435 6.93433 7.9855H-10V9.10772H6.93433C7.05149 9.43426 7.26605 9.71697 7.54903 9.91766C7.832 10.1183 8.16976 10.2274 8.51666 10.2299Z" fill="#FF6647" fill-opacity="0.2"/>
<path d="M8.51666 14.7182C8.82547 14.7191 9.12857 14.635 9.39278 14.4751C9.657 14.3153 9.87214 14.0858 10.0147 13.8119C10.1572 13.5379 10.2217 13.23 10.2009 12.9219C10.1802 12.6138 10.0751 12.3173 9.89719 12.0649C9.71926 11.8126 9.47532 11.614 9.19208 11.4909C8.90884 11.3679 8.59721 11.3252 8.2913 11.3674C7.98539 11.4096 7.69698 11.5351 7.45765 11.7303C7.21831 11.9254 7.03727 12.1826 6.93433 12.4738H-10V13.596H6.93433C7.05149 13.9225 7.26605 14.2052 7.54903 14.4059C7.832 14.6066 8.16976 14.7156 8.51666 14.7182Z" fill="#FF6647" fill-opacity="0.2"/>
<path d="M1.78333 22.2572C2.09214 22.2581 2.39524 22.174 2.65945 22.0142C2.92366 21.8543 3.13881 21.6249 3.28135 21.3509C3.42389 21.077 3.48832 20.7691 3.4676 20.461C3.44687 20.1529 3.3418 19.8564 3.16386 19.604C2.98592 19.3516 2.74199 19.153 2.45875 19.03C2.17551 18.907 1.86388 18.8642 1.55797 18.9064C1.25206 18.9486 0.963652 19.0742 0.724316 19.2693C0.48498 19.4645 0.303936 19.7217 0.200998 20.0128H-10V21.135H0.200998C0.31816 21.4616 0.53272 21.7443 0.815694 21.945C1.09867 22.1456 1.43642 22.2547 1.78333 22.2572Z" fill="#FF6647" fill-opacity="0.2"/>
<path d="M13.0056 26.7495C13.3144 26.7504 13.6175 26.6663 13.8817 26.5064C14.1459 26.3465 14.361 26.1171 14.5036 25.8431C14.6461 25.5692 14.7105 25.2613 14.6898 24.9532C14.6691 24.6451 14.564 24.3486 14.3861 24.0962C14.2081 23.8438 13.9642 23.6452 13.681 23.5222C13.3977 23.3992 13.0861 23.3564 12.7802 23.3986C12.4743 23.4408 12.1859 23.5664 11.9465 23.7615C11.7072 23.9567 11.5262 24.2139 11.4232 24.505H-10V25.6273H11.4232C11.5404 25.9538 11.7549 26.2365 12.0379 26.4372C12.3209 26.6379 12.6586 26.7469 13.0056 26.7495Z" fill="#FF6647" fill-opacity="0.2"/>
<path d="M483.216 2.37501C482.908 2.37414 482.604 2.45824 482.34 2.61809C482.076 2.77795 481.861 3.0074 481.718 3.28135C481.576 3.55529 481.511 3.86317 481.532 4.17128C481.553 4.47939 481.658 4.77588 481.836 5.02827C482.014 5.28066 482.258 5.47923 482.541 5.60227C482.824 5.72531 483.136 5.76806 483.442 5.72585C483.748 5.68364 484.036 5.5581 484.275 5.36295C484.515 5.16781 484.696 4.91059 484.799 4.61944H495V3.49722H484.799C484.682 3.17069 484.467 2.88798 484.184 2.68729C483.901 2.4866 483.563 2.3776 483.216 2.37501Z" fill="#FF6647" fill-opacity="0.2"/>
<path d="M476.483 6.86329C476.174 6.86242 475.871 6.94652 475.607 7.10638C475.343 7.26623 475.127 7.49569 474.985 7.76963C474.842 8.04358 474.778 8.35146 474.799 8.65957C474.819 8.96768 474.925 9.26417 475.102 9.51656C475.28 9.76895 475.524 9.96753 475.808 10.0906C476.091 10.2136 476.402 10.2564 476.708 10.2141C477.014 10.1719 477.303 10.0464 477.542 9.85125C477.781 9.6561 477.962 9.39888 478.065 9.10773H495V7.98551H478.065C477.948 7.65898 477.734 7.37627 477.451 7.17557C477.168 6.97488 476.83 6.86588 476.483 6.86329Z" fill="#FF6647" fill-opacity="0.2"/>
<path d="M476.483 11.3516C476.174 11.3507 475.871 11.4348 475.607 11.5947C475.343 11.7545 475.127 11.984 474.985 12.2579C474.842 12.5319 474.778 12.8397 474.799 13.1478C474.819 13.456 474.925 13.7524 475.102 14.0048C475.28 14.2572 475.524 14.4558 475.808 14.5788C476.091 14.7019 476.402 14.7446 476.708 14.7024C477.014 14.6602 477.303 14.5347 477.542 14.3395C477.781 14.1444 477.962 13.8872 478.065 13.596H495V12.4738H478.065C477.948 12.1473 477.734 11.8645 477.451 11.6639C477.168 11.4632 476.83 11.3542 476.483 11.3516Z" fill="#FF6647" fill-opacity="0.2"/>
<path d="M483.216 18.8906C482.908 18.8898 482.604 18.9739 482.34 19.1337C482.076 19.2936 481.861 19.523 481.718 19.797C481.576 20.0709 481.511 20.3788 481.532 20.6869C481.553 20.995 481.658 21.2915 481.836 21.5439C482.014 21.7962 482.258 21.9948 482.541 22.1179C482.824 22.2409 483.136 22.2837 483.442 22.2414C483.748 22.1992 484.036 22.0737 484.275 21.8786C484.515 21.6834 484.696 21.4262 484.799 21.135H495V20.0128H484.799C484.682 19.6863 484.467 19.4036 484.184 19.2029C483.901 19.0022 483.563 18.8932 483.216 18.8906Z" fill="#FF6647" fill-opacity="0.2"/>
<path d="M471.995 23.3828C471.686 23.382 471.383 23.4661 471.119 23.6259C470.854 23.7858 470.639 24.0152 470.497 24.2892C470.354 24.5631 470.29 24.871 470.31 25.1791C470.331 25.4872 470.436 25.7837 470.614 26.0361C470.792 26.2885 471.036 26.4871 471.319 26.6101C471.603 26.7332 471.914 26.7759 472.22 26.7337C472.526 26.6915 472.814 26.5659 473.054 26.3708C473.293 26.1756 473.474 25.9184 473.577 25.6273H495V24.505H473.577C473.46 24.1785 473.245 23.8958 472.962 23.6951C472.679 23.4944 472.342 23.3854 471.995 23.3828Z" fill="#FF6647" fill-opacity="0.2"/>
<path d="M375.596 62.9092C375.595 63.218 375.679 63.5211 375.839 63.7853C375.999 64.0496 376.228 64.2647 376.502 64.4072C376.776 64.5498 377.084 64.6142 377.392 64.5935C377.7 64.5728 377.997 64.4677 378.249 64.2897C378.501 64.1118 378.7 63.8679 378.823 63.5846C378.946 63.3014 378.989 62.9898 378.947 62.6839C378.904 62.3779 378.779 62.0895 378.584 61.8502C378.389 61.6109 378.131 61.4298 377.84 61.3269V46.6258H371.679L362.859 37.8051V13.8007L370.333 6.31551C370.559 6.42794 370.809 6.48561 371.062 6.48386C371.395 6.48386 371.72 6.38513 371.997 6.20017C372.274 6.0152 372.49 5.75229 372.617 5.4447C372.745 5.13711 372.778 4.79866 372.713 4.47212C372.648 4.14559 372.488 3.84563 372.252 3.61021C372.017 3.3748 371.717 3.21449 371.39 3.14953C371.064 3.08458 370.725 3.11792 370.418 3.24532C370.11 3.37273 369.847 3.58848 369.662 3.86531C369.477 4.14213 369.379 4.46759 369.379 4.80052C369.376 5.05363 369.433 5.30378 369.547 5.52996L361.691 13.3855V38.2876L371.163 47.7592H376.673V61.3381C376.357 61.4618 376.085 61.6778 375.893 61.9579C375.701 62.2381 375.597 62.5695 375.596 62.9092Z" fill="#FF6647" fill-opacity="0.2"/>
<path d="M370.086 -32.125C369.639 -32.125 369.211 -31.9476 368.895 -31.632C368.58 -31.3163 368.402 -30.8881 368.402 -30.4417C368.402 -29.9952 368.58 -29.567 368.895 -29.2514C369.211 -28.9357 369.639 -28.7583 370.086 -28.7583C370.338 -28.7622 370.587 -28.8196 370.815 -28.9267L376.718 -23.0238V28.2505C376.344 28.3829 376.028 28.6434 375.827 28.9859C375.626 29.3284 375.553 29.7309 375.62 30.1222C375.687 30.5136 375.891 30.8687 376.194 31.1246C376.498 31.3806 376.882 31.5209 377.279 31.5209C377.676 31.5209 378.061 31.3806 378.364 31.1246C378.668 30.8687 378.871 30.5136 378.938 30.1222C379.005 29.7309 378.932 29.3284 378.731 28.9859C378.53 28.6434 378.215 28.3829 377.84 28.2505V-23.439L371.556 -29.7234C371.668 -29.9461 371.726 -30.1923 371.724 -30.4417C371.724 -30.8804 371.553 -31.3019 371.247 -31.6164C370.941 -31.9308 370.524 -32.1133 370.086 -32.125Z" fill="#FF6647" fill-opacity="0.2"/>
<path d="M149.58 35.4336C149.133 35.4336 148.705 35.6109 148.39 35.9266C148.074 36.2423 147.896 36.6705 147.896 37.1169C147.896 37.5634 148.074 37.9915 148.39 38.3072C148.705 38.6229 149.133 38.8003 149.58 38.8003C149.829 38.8033 150.076 38.7455 150.298 38.6319L161.936 50.2693H219.775C219.889 50.5977 220.103 50.8822 220.387 51.0833C220.67 51.2845 221.009 51.3922 221.357 51.3915C221.804 51.3915 222.232 51.2142 222.547 50.8985C222.863 50.5828 223.041 50.1547 223.041 49.7082C223.041 49.2618 222.863 48.8336 222.547 48.5179C222.232 48.2022 221.804 48.0249 221.357 48.0249C221.009 48.0242 220.67 48.132 220.387 48.3331C220.103 48.5342 219.889 48.8188 219.775 49.1471H162.396L151.095 37.8464C151.202 37.6179 151.259 37.3692 151.263 37.1169C151.263 36.8959 151.22 36.677 151.135 36.4727C151.05 36.2685 150.926 36.0829 150.77 35.9266C150.614 35.7703 150.428 35.6463 150.224 35.5617C150.02 35.4771 149.801 35.4336 149.58 35.4336Z" fill="#FF6647" fill-opacity="0.2"/>
<path d="M71.3161 39.4057C71.649 39.4057 71.9745 39.307 72.2513 39.122C72.5281 38.9371 72.7439 38.6742 72.8713 38.3666C72.9987 38.059 73.032 37.7205 72.9671 37.394C72.9021 37.0675 72.7418 36.7675 72.5064 36.5321C72.271 36.2967 71.971 36.1364 71.6445 36.0714C71.3179 36.0065 70.9795 36.0398 70.6719 36.1672C70.3643 36.2946 70.1014 36.5104 69.9164 36.7872C69.7315 37.064 69.6327 37.3895 69.6327 37.7224C69.6366 37.9747 69.694 38.2233 69.8011 38.4518L54.7072 53.4784C54.3772 53.3227 54.0055 53.2784 53.6481 53.3523C53.2908 53.4262 52.9671 53.6142 52.7259 53.8881C52.4847 54.1619 52.339 54.5067 52.3107 54.8705C52.2825 55.2343 52.3732 55.5974 52.5693 55.9052C52.7653 56.213 53.0561 56.4487 53.3978 56.5769C53.7394 56.705 54.1135 56.7187 54.4636 56.6158C54.8137 56.513 55.1209 56.2991 55.3389 56.0065C55.5569 55.7138 55.6739 55.3583 55.6723 54.9934C55.6685 54.7446 55.6111 54.4996 55.504 54.2751L70.5979 39.1813C70.8155 39.3132 71.062 39.3902 71.3161 39.4057Z" fill="#FF6647" fill-opacity="0.2"/>
<path d="M65.5822 38.7456C65.9152 38.7456 66.2406 38.6468 66.5175 38.4619C66.7943 38.2769 67.01 38.014 67.1374 37.7064C67.2648 37.3988 67.2982 37.0604 67.2332 36.7338C67.1683 36.4073 67.008 36.1074 66.7725 35.8719C66.5371 35.6365 66.2372 35.4762 65.9107 35.4113C65.5841 35.3463 65.2457 35.3796 64.9381 35.507C64.6305 35.6344 64.3676 35.8502 64.1826 36.127C63.9976 36.4038 63.8989 36.7293 63.8989 37.0622C63.9027 37.311 63.9601 37.556 64.0672 37.7805L48.3561 53.4916C48.1295 53.3791 47.8797 53.3215 47.6267 53.3232C47.2938 53.3232 46.9683 53.422 46.6915 53.6069C46.4147 53.7919 46.1989 54.0548 46.0715 54.3624C45.9441 54.67 45.9108 55.0084 45.9757 55.335C46.0407 55.6615 46.201 55.9614 46.4364 56.1969C46.6718 56.4323 46.9718 56.5926 47.2983 56.6576C47.6248 56.7225 47.9633 56.6892 48.2709 56.5617C48.5785 56.4343 48.8414 56.2186 49.0263 55.9418C49.2113 55.6649 49.31 55.3395 49.31 55.0066C49.3118 54.7536 49.2541 54.5037 49.1417 54.2771L64.8528 38.566C65.0798 38.6786 65.3289 38.7399 65.5822 38.7456Z" fill="#FF6647" fill-opacity="0.2"/>
<path d="M28.3682 45.7693H2.26528C2.1287 45.2403 1.80391 44.7794 1.35178 44.4728C0.899651 44.1662 0.35122 44.035 -0.190709 44.1038C-0.732638 44.1727 -1.23086 44.4368 -1.59198 44.8467C-1.95311 45.2566 -2.15234 45.7841 -2.15234 46.3304C-2.15234 46.8767 -1.95311 47.4042 -1.59198 47.8141C-1.23086 48.224 -0.732638 48.4881 -0.190709 48.5569C0.35122 48.6258 0.899651 48.4946 1.35178 48.188C1.80391 47.8814 2.1287 47.4204 2.26528 46.8915H28.3682C28.5047 47.4204 28.8295 47.8814 29.2817 48.188C29.7338 48.4946 30.2822 48.6258 30.8242 48.5569C31.3661 48.4881 31.8643 48.224 32.2254 47.8141C32.5866 47.4042 32.7858 46.8767 32.7858 46.3304C32.7858 45.7841 32.5866 45.2566 32.2254 44.8467C31.8643 44.4368 31.3661 44.1727 30.8242 44.1038C30.2822 44.035 29.7338 44.1662 29.2817 44.4728C28.8295 44.7794 28.5047 45.2403 28.3682 45.7693ZM0.099386 47.4526C-0.122569 47.4526 -0.339539 47.3868 -0.524088 47.2635C-0.708636 47.1402 -0.852474 46.9649 -0.937412 46.7598C-1.02235 46.5548 -1.04457 46.3291 -1.00127 46.1115C-0.957972 45.8938 -0.85109 45.6938 -0.694145 45.5368C-0.537199 45.3799 -0.337239 45.273 -0.119549 45.2297C0.0981412 45.1864 0.323783 45.2087 0.528842 45.2936C0.733902 45.3785 0.909168 45.5224 1.03248 45.7069C1.15579 45.8915 1.22161 46.1084 1.22161 46.3304C1.22161 46.628 1.10337 46.9135 0.892917 47.1239C0.682459 47.3344 0.397018 47.4526 0.099386 47.4526ZM31.6563 46.3304C31.6563 46.5523 31.5905 46.7693 31.4671 46.9539C31.3438 47.1384 31.1686 47.2822 30.9635 47.3672C30.7584 47.4521 30.5328 47.4743 30.3151 47.431C30.0974 47.3877 29.8975 47.2809 29.7405 47.1239C29.5836 46.967 29.4767 46.767 29.4334 46.5493C29.3901 46.3316 29.4123 46.106 29.4973 45.9009C29.5822 45.6959 29.726 45.5206 29.9106 45.3973C30.0951 45.274 30.3121 45.2082 30.5341 45.2082C30.8317 45.2082 31.1171 45.3264 31.3276 45.5368C31.538 45.7473 31.6563 46.0327 31.6563 46.3304Z" fill="#FF6647" fill-opacity="0.2"/>
<path d="M105.398 62.9718C105.62 63.0853 105.867 63.1431 106.116 63.1401C106.449 63.1401 106.774 63.0414 107.051 62.8564C107.328 62.6714 107.544 62.4085 107.671 62.101C107.799 61.7934 107.832 61.4549 107.767 61.1284C107.702 60.8018 107.542 60.5019 107.306 60.2665C107.071 60.0311 106.771 59.8707 106.444 59.8058C106.118 59.7408 105.779 59.7742 105.472 59.9016C105.164 60.029 104.901 60.2447 104.716 60.5216C104.531 60.7984 104.433 61.1238 104.433 61.4568C104.435 61.7092 104.493 61.9582 104.601 62.1862L92.38 74.396V81.9036C92.0057 82.036 91.6901 82.2964 91.4892 82.6389C91.2883 82.9814 91.2149 83.384 91.2821 83.7753C91.3492 84.1667 91.5525 84.5217 91.8561 84.7777C92.1597 85.0336 92.5441 85.174 92.9412 85.174C93.3382 85.174 93.7225 85.0336 94.0261 84.7777C94.3297 84.5217 94.5331 84.1667 94.6002 83.7753C94.6674 83.384 94.594 82.9814 94.3931 82.6389C94.1922 82.2964 93.8766 82.036 93.5023 81.9036V74.8561L105.398 62.9718Z" fill="#FF6647" fill-opacity="0.2"/>
<path d="M337.889 58.3161C337.889 57.8697 337.712 57.4415 337.396 57.1258C337.08 56.8102 336.652 56.6328 336.206 56.6328C335.759 56.6328 335.331 56.8102 335.015 57.1258C334.7 57.4415 334.522 57.8697 334.522 58.3161C334.522 58.6638 334.63 59.0031 334.831 59.2867C335.032 59.5703 335.316 59.7841 335.645 59.8985V68.6518L351.681 84.6995H359.952C360.084 85.0739 360.345 85.3895 360.687 85.5904C361.03 85.7913 361.432 85.8647 361.824 85.7975C362.215 85.7304 362.57 85.527 362.826 85.2234C363.082 84.9198 363.222 84.5355 363.222 84.1384C363.222 83.7413 363.082 83.357 362.826 83.0534C362.57 82.7498 362.215 82.5465 361.824 82.4794C361.432 82.4122 361.03 82.4856 360.687 82.6865C360.345 82.8874 360.084 83.2029 359.952 83.5773H352.153L336.767 68.1917V59.8985C337.095 59.7841 337.38 59.5703 337.581 59.2867C337.782 59.0031 337.89 58.6638 337.889 58.3161Z" fill="#FF6647" fill-opacity="0.2"/>
<path d="M413.19 43.5002C412.744 43.5002 412.316 43.6776 412 43.9933C411.684 44.309 411.507 44.7371 411.507 45.1836C411.507 45.63 411.684 46.0582 412 46.3739C412.316 46.6896 412.744 46.8669 413.19 46.8669C413.439 46.8631 413.684 46.8057 413.908 46.6986L421.057 53.8471H431.449V43.3095C431.823 43.1771 432.139 42.9166 432.34 42.5741C432.54 42.2316 432.614 41.8291 432.547 41.4377C432.48 41.0464 432.276 40.6913 431.973 40.4354C431.669 40.1794 431.285 40.0391 430.888 40.0391C430.491 40.0391 430.106 40.1794 429.803 40.4354C429.499 40.6913 429.296 41.0464 429.229 41.4377C429.161 41.8291 429.235 42.2316 429.436 42.5741C429.637 42.9166 429.952 43.1771 430.326 43.3095V52.7249H421.528L414.705 45.9018C414.829 45.6461 414.886 45.363 414.87 45.0793C414.854 44.7955 414.766 44.5205 414.615 44.2802C414.463 44.0398 414.253 43.8421 414.004 43.7056C413.754 43.5692 413.474 43.4985 413.19 43.5002Z" fill="#FF6647" fill-opacity="0.2"/>
<path d="M443.625 29.0157C443.371 29.0134 443.12 29.0684 442.89 29.1767C442.661 29.285 442.459 29.4438 442.3 29.6411C442.14 29.8384 442.028 30.0693 441.97 30.3163C441.912 30.5634 441.911 30.8202 441.967 31.0678C442.022 31.3153 442.133 31.5471 442.291 31.7457C442.449 31.9444 442.649 32.1049 442.878 32.2151C443.106 32.3253 443.357 32.3825 443.61 32.3823C443.864 32.3821 444.114 32.3246 444.343 32.214L456.294 44.1657C456.139 44.4957 456.094 44.8674 456.168 45.2248C456.242 45.5821 456.43 45.9058 456.704 46.147C456.978 46.3882 457.323 46.5339 457.687 46.5622C458.05 46.5904 458.413 46.4997 458.721 46.3036C459.029 46.1076 459.265 45.8168 459.393 45.4751C459.521 45.1335 459.535 44.7594 459.432 44.4093C459.329 44.0592 459.115 43.752 458.823 43.534C458.53 43.316 458.174 43.199 457.809 43.2006C457.561 43.2044 457.316 43.2618 457.091 43.3689L445.14 31.4173C445.263 31.1615 445.32 30.8785 445.304 30.5947C445.289 30.311 445.201 30.036 445.049 29.7956C444.898 29.5553 444.687 29.3575 444.438 29.2211C444.189 29.0846 443.909 29.0139 443.625 29.0157Z" fill="#FF6647" fill-opacity="0.2"/>
<path d="M296.367 48.6636C296.366 48.9724 296.45 49.2755 296.61 49.5397C296.77 49.8039 296.999 50.0191 297.273 50.1616C297.547 50.3041 297.855 50.3686 298.163 50.3478C298.471 50.3271 298.768 50.2221 299.02 50.0441C299.273 49.8662 299.471 49.6222 299.594 49.339C299.717 49.0558 299.76 48.7441 299.718 48.4382C299.676 48.1323 299.55 47.8439 299.355 47.6046C299.16 47.3652 298.902 47.1842 298.611 47.0812V8.5441H173.181C173.048 8.16972 172.788 7.85417 172.445 7.65325C172.103 7.45233 171.7 7.37897 171.309 7.44612C170.917 7.51327 170.562 7.71661 170.306 8.02021C170.051 8.32381 169.91 8.70812 169.91 9.10521C169.91 9.5023 170.051 9.88661 170.306 10.1902C170.562 10.4938 170.917 10.6971 171.309 10.7643C171.7 10.8314 172.103 10.7581 172.445 10.5572C172.788 10.3562 173.048 10.0407 173.181 9.66632H297.489V47.0812C297.162 47.197 296.878 47.4112 296.677 47.6945C296.476 47.9778 296.368 48.3163 296.367 48.6636Z" fill="#FF6647" fill-opacity="0.2"/>
<path d="M305.345 48.6648C305.344 48.9736 305.428 49.2767 305.588 49.5409C305.748 49.8051 305.977 50.0203 306.251 50.1628C306.525 50.3054 306.833 50.3698 307.141 50.3491C307.449 50.3283 307.745 50.2233 307.998 50.0453C308.25 49.8674 308.449 49.6235 308.572 49.3402C308.695 49.057 308.738 48.7453 308.695 48.4394C308.653 48.1335 308.528 47.8451 308.333 47.6058C308.137 47.3664 307.88 47.1854 307.589 47.0825V-0.432464H173.181C173.048 -0.806845 172.788 -1.12239 172.445 -1.32331C172.103 -1.52423 171.7 -1.59759 171.309 -1.53044C170.917 -1.46329 170.562 -1.25995 170.306 -0.956348C170.051 -0.652748 169.91 -0.268444 169.91 0.128648C169.91 0.525739 170.051 0.910044 170.306 1.21364C170.562 1.51724 170.917 1.72059 171.309 1.78774C171.7 1.85488 172.103 1.78153 172.445 1.58061C172.788 1.37968 173.048 1.06414 173.181 0.689759H306.467V47.0825C306.139 47.1982 305.856 47.4124 305.655 47.6957C305.454 47.979 305.346 48.3175 305.345 48.6648Z" fill="#FF6647" fill-opacity="0.2"/>
</g>
</g>
<g filter="url(#filter1_d_2923_222621)">
<path d="M158.422 36H161.152V30.246H163.756C166.759 30.246 168.355 28.461 168.355 25.773C168.355 23.085 166.759 21.3 163.756 21.3H158.422V36ZM161.152 27.726V23.82H163.651C164.89 23.82 165.583 24.45 165.583 25.773C165.583 27.096 164.89 27.726 163.651 27.726H161.152ZM171.213 36H180.558V33.48H173.943V21.3H171.213V36ZM182.787 36H185.601L186.63 32.577H191.166L192.195 36H195.009L190.389 21.3H187.407L182.787 36ZM187.386 30.057L188.898 24.975L190.41 30.057H187.386ZM200.66 36H203.18V30.582L207.842 21.3H204.902L201.92 27.663L198.938 21.3H195.998L200.66 30.582V36ZM210.344 36H219.878V33.48H213.074V29.427H218.618V26.907H213.074V23.82H219.668V21.3H210.344V36ZM222.925 36H225.655V29.658H227.083L231.031 36H234.076L230.002 29.427C231.766 28.902 232.753 27.432 232.753 25.479C232.753 22.959 231.136 21.3 228.28 21.3H222.925V36ZM225.655 27.138V23.82H228.301C229.372 23.82 230.023 24.324 230.023 25.479C230.023 26.634 229.372 27.138 228.301 27.138H225.655ZM249.579 36H252.309V30.246H254.913C257.916 30.246 259.512 28.461 259.512 25.773C259.512 23.085 257.916 21.3 254.913 21.3H249.579V36ZM252.309 27.726V23.82H254.808C256.047 23.82 256.74 24.45 256.74 25.773C256.74 27.096 256.047 27.726 254.808 27.726H252.309ZM261.992 36H264.722V29.658H266.15L270.098 36H273.143L269.069 29.427C270.833 28.902 271.82 27.432 271.82 25.479C271.82 22.959 270.203 21.3 267.347 21.3H261.992V36ZM264.722 27.138V23.82H267.368C268.439 23.82 269.09 24.324 269.09 25.479C269.09 26.634 268.439 27.138 267.368 27.138H264.722ZM274.343 28.65C274.343 33.564 276.779 36.168 280.055 36.168C283.331 36.168 285.767 33.564 285.767 28.65C285.767 23.736 283.331 21.132 280.055 21.132C276.779 21.132 274.343 23.736 274.343 28.65ZM283.037 28.65C283.037 32.115 281.819 33.648 280.055 33.648C278.291 33.648 277.073 32.115 277.073 28.65C277.073 25.185 278.291 23.652 280.055 23.652C281.819 23.652 283.037 25.185 283.037 28.65ZM288.478 36H291.208V29.595H296.626V27.075H291.208V24.03H297.655V21.3H288.478V36ZM301.627 36H310.573V33.48H307.465V23.82H310.573V21.3H301.627V23.82H304.735V33.48H301.627V36ZM314.46 36H323.805V33.48H317.19V21.3H314.46V36ZM327.546 36H337.08V33.48H330.276V29.427H335.82V26.907H330.276V23.82H336.87V21.3H327.546V36Z" fill="#FF6647"/>
</g>
<path fill-rule="evenodd" clip-rule="evenodd" d="M415 59.9534V60H292L297.199 56H412.49L463.055 18H471L415.112 60L415 59.9534Z" fill="#FF6647"/>
<path fill-rule="evenodd" clip-rule="evenodd" d="M80 59.9534V60H203L197.801 56H82.5103L31.9448 18H24L79.8882 60L80 59.9534Z" fill="#FF6647"/>
<defs>
<filter id="filter0_b_2923_222621" x="-16" y="-16" width="527" height="92" filterUnits="userSpaceOnUse" color-interpolation-filters="sRGB">
<feFlood flood-opacity="0" result="BackgroundImageFix"/>
<feGaussianBlur in="BackgroundImage" stdDeviation="8"/>
<feComposite in2="SourceAlpha" operator="in" result="effect1_backgroundBlur_2923_222621"/>
<feBlend mode="normal" in="SourceGraphic" in2="effect1_backgroundBlur_2923_222621" result="shape"/>
</filter>
<filter id="filter1_d_2923_222621" x="152.422" y="15.1328" width="190.658" height="27.0352" filterUnits="userSpaceOnUse" color-interpolation-filters="sRGB">
<feFlood flood-opacity="0" result="BackgroundImageFix"/>
<feColorMatrix in="SourceAlpha" type="matrix" values="0 0 0 0 0 0 0 0 0 0 0 0 0 0 0 0 0 0 127 0" result="hardAlpha"/>
<feOffset/>
<feGaussianBlur stdDeviation="3"/>
<feComposite in2="hardAlpha" operator="out"/>
<feColorMatrix type="matrix" values="0 0 0 0 1 0 0 0 0 0.4 0 0 0 0 0.278431 0 0 0 0.5 0"/>
<feBlend mode="normal" in2="BackgroundImageFix" result="effect1_dropShadow_2923_222621"/>
<feBlend mode="normal" in="SourceGraphic" in2="effect1_dropShadow_2923_222621" result="shape"/>
</filter>
<clipPath id="clip0_2923_222621">
<rect width="505" height="505" fill="white" transform="translate(-10 -182.793)"/>
</clipPath>
</defs>
</svg>
