<svg preserveAspectRatio="xMinYMin meet" viewBox="0 0 50 50" fill="none" xmlns="http://www.w3.org/2000/svg">
<g clip-path="url(#clip0_6438_392891)">
<path d="M25.3751 9.44829C26.3501 9.44986 27.3078 9.71022 28.1522 10.2033C28.9967 10.6965 29.6985 11.4051 30.1874 12.2585L39.812 29.1207C40.2995 29.9752 40.5561 30.9444 40.556 31.9309C40.5559 32.9175 40.2992 33.8866 39.8115 34.741C39.3238 35.5954 38.6225 36.3049 37.7779 36.7983C36.9332 37.2916 35.9751 37.5515 34.9998 37.5517H15.7505C14.7751 37.5515 13.817 37.2917 12.9724 36.7983C12.1277 36.305 11.4263 35.5955 10.9387 34.7411C10.451 33.8867 10.1942 32.9175 10.1941 31.931C10.194 30.9444 10.4506 29.9752 10.9381 29.1207L20.5635 12.2585C21.0523 11.4052 21.754 10.6966 22.5983 10.2035C23.4426 9.71036 24.4001 9.44995 25.3751 9.44829V9.44829ZM25.3751 9.25C24.3656 9.2516 23.3742 9.52114 22.4999 10.0317C21.6257 10.5422 20.8992 11.2759 20.3931 12.1593L10.7677 29.0215C10.2628 29.9061 9.99704 30.9096 9.99707 31.931C9.9971 32.9524 10.2629 33.9559 10.7678 34.8405C11.2728 35.725 11.999 36.4596 12.8735 36.9703C13.748 37.4811 14.74 37.75 15.7498 37.75H34.9998C36.0096 37.75 37.0017 37.4811 37.8762 36.9704C38.7507 36.4596 39.4769 35.7251 39.9818 34.8405C40.4867 33.9559 40.7525 32.9524 40.7525 31.931C40.7525 30.9096 40.4867 29.9061 39.9818 29.0215L30.3572 12.1595C29.851 11.276 29.1245 10.5424 28.2502 10.0318C27.376 9.52131 26.3846 9.25177 25.3751 9.25016V9.25Z" fill="#F9F9F9"/>
<path d="M15.555 25.9076L15.0324 26.8235L15.4432 27.3267L15.2619 27.6443L13.7012 25.6725L13.9022 25.3203L16.3774 25.6893L16.1929 26.0133L15.555 25.9076ZM15.2347 25.8541L15.0998 25.8325C14.846 25.7951 14.4312 25.7285 14.0923 25.668C14.3136 25.9346 14.578 26.2644 14.739 26.4652L14.8248 26.5726L15.2347 25.8541Z" fill="#F9F9F9"/>
<path d="M16.4063 23.1708L17.4646 23.7886L17.3308 24.0234L17.0309 23.9208C17.1485 24.1841 17.1326 24.4763 16.9661 24.7682C16.633 25.3514 15.9891 25.4878 15.3615 25.1212C14.7338 24.7546 14.5259 24.1259 14.8706 23.522C15.1581 23.0182 15.6369 22.84 16.1019 23.0237L15.9222 23.3384C15.615 23.2354 15.3136 23.3726 15.1411 23.676C14.9074 24.0854 15.061 24.5226 15.5428 24.8034C16.0245 25.0841 16.4768 24.9978 16.7119 24.5855C16.9079 24.2421 16.8363 23.8188 16.5005 23.6073L16.1576 24.2075L15.9001 24.0572L16.4063 23.1708Z" fill="#F9F9F9"/>
<path d="M16.0826 22.1381L16.6513 22.47L17.2439 21.4311L17.5099 21.5863L16.9173 22.6254L17.5539 22.997L18.204 21.8581L18.4763 22.0167L17.6515 23.4622L15.6367 22.286L16.4665 20.832L16.7388 20.9906L16.0826 22.1381Z" fill="#F9F9F9"/>
<path d="M17.5568 18.9219L19.5716 20.0981L19.3708 20.4507L18.0368 20.5077C17.7506 20.5198 17.4191 20.5323 17.1619 20.5271C17.5475 20.7377 17.8956 20.9402 18.1813 21.1071L18.7926 21.4635L18.622 21.7612L16.6074 20.585L16.8083 20.2329L18.1438 20.1732C18.4181 20.1617 18.7626 20.1529 19.0216 20.1552C18.6331 19.9436 18.2849 19.7405 17.9992 19.5736L17.388 19.2172L17.5568 18.9219Z" fill="#F9F9F9"/>
<path d="M18.9009 17.1977L18.5155 17.873L20.2585 18.8907L20.0806 19.2027L18.3374 18.185L17.952 18.8606L17.6797 18.702L18.6286 17.0391L18.9009 17.1977Z" fill="#F9F9F9"/>
<path d="M20.0054 17.7794L20.1801 17.4731C20.5315 17.6706 20.7727 17.4912 20.9488 17.1815C21.1204 16.881 21.1007 16.6443 20.88 16.5155C20.7017 16.4113 20.551 16.4831 20.2832 16.7813L20.1468 16.9344C19.8625 17.2609 19.555 17.4366 19.19 17.223C18.8617 17.0313 18.7973 16.6351 19.0553 16.1829C19.3902 15.5962 19.7984 15.5484 20.1543 15.7446L19.9821 16.0486C19.7345 15.927 19.5262 15.9618 19.3154 16.331C19.1586 16.6064 19.1906 16.8076 19.3635 16.9084C19.5417 17.0124 19.6806 16.9675 19.956 16.6629L20.0943 16.5069C20.4644 16.0896 20.7483 16.0151 21.0539 16.1935C21.4274 16.4115 21.4884 16.8402 21.2043 17.3381C20.911 17.8505 20.4937 18.0606 20.0054 17.7794Z" fill="#F9F9F9"/>
<path d="M29.9746 15.6316C30.6253 15.2517 31.2542 15.415 31.5762 15.9788C31.8178 16.4024 31.8095 16.9033 31.3726 17.2882L31.1964 16.9789C31.4687 16.7094 31.4578 16.399 31.3074 16.1357C31.0853 15.747 30.6485 15.6619 30.1562 15.9494C29.6639 16.237 29.5177 16.6622 29.7398 17.051C29.8982 17.3285 30.2175 17.5046 30.6018 17.3452L30.7766 17.6514C30.2147 17.9031 29.7225 17.6486 29.4711 17.2079C29.1506 16.6469 29.3237 16.0117 29.9746 15.6316Z" fill="#F9F9F9"/>
<path d="M33.1437 18.8343L31.1289 20.0104L30.9539 19.7047L31.8508 19.181L31.2513 18.1306L30.3544 18.6543L30.1797 18.348L32.1945 17.1719L32.369 17.4781L31.5287 17.9687L32.1282 19.0191L32.9685 18.5284L33.1437 18.8343Z" fill="#F9F9F9"/>
<path d="M32.5627 21.2989L32.0399 20.3833L31.4038 20.4915L31.2227 20.1738L33.6916 19.793L33.8925 20.145L32.3389 22.1283L32.1544 21.8043L32.5627 21.2989ZM32.7686 21.0452L32.8545 20.9378C33.0137 20.7342 33.2781 20.4042 33.4994 20.1377C33.1605 20.1981 32.7459 20.2647 32.4935 20.3052L32.3586 20.3268L32.7686 21.0452Z" fill="#F9F9F9"/>
<path d="M35.3991 22.7845L33.3843 23.9606L33.1835 23.6086L33.802 22.4119C33.9348 22.1551 34.0903 21.8585 34.223 21.6358C33.8504 21.8686 33.5023 22.0717 33.2166 22.2386L32.6053 22.595L32.4355 22.2972L34.4501 21.1211L34.6511 21.4731L34.0342 22.6727C33.9061 22.9188 33.7419 23.2248 33.6103 23.4503C33.9859 23.2159 34.3339 23.0129 34.6193 22.8459L35.2306 22.4895L35.3991 22.7845Z" fill="#F9F9F9"/>
<path d="M35.6944 25.5351L34.6361 26.1529L34.5022 25.9182L34.7399 25.7076C34.4558 25.6789 34.2136 25.5189 34.0469 25.2269C33.7138 24.6437 33.9188 24.012 34.5476 23.6449C35.1763 23.2778 35.8174 23.4111 36.1621 24.015C36.4494 24.5188 36.3625 25.0274 35.9728 25.3434L35.7931 25.0285C36.0349 24.8109 36.0679 24.4788 35.8948 24.1754C35.6613 23.7662 35.21 23.6824 34.7289 23.9634C34.2477 24.2443 34.0953 24.6842 34.3304 25.0964C34.5264 25.4398 34.9246 25.589 35.2736 25.4004L34.9307 24.7994L35.188 24.6491L35.6944 25.5351Z" fill="#F9F9F9"/>
<path d="M36.7388 25.7656L36.1701 26.0977L36.7627 27.1365L36.4967 27.2919L35.9041 26.2528L35.2673 26.6245L35.9174 27.7638L35.6451 27.9222L34.8203 26.4769L36.8351 25.3008L37.6647 26.7547L37.3924 26.9133L36.7388 25.7656Z" fill="#F9F9F9"/>
<path d="M24.0732 16.1555C24.0732 15.7113 24.3516 15.418 24.771 15.418C25.1905 15.418 25.4669 15.7113 25.4669 16.1555C25.4669 16.5997 25.1886 16.8931 24.771 16.8931C24.3535 16.8931 24.0732 16.5997 24.0732 16.1555ZM25.1926 16.1555C25.1926 15.8442 25.0258 15.6534 24.771 15.6534C24.5162 15.6534 24.3497 15.8437 24.3497 16.1555C24.3497 16.4674 24.5162 16.6577 24.771 16.6577C25.0258 16.6577 25.1926 16.4669 25.1926 16.1555V16.1555Z" fill="#F9F9F9"/>
<path d="M25.9811 15.6932V16.0263H26.6377V16.2563H25.9811V16.8649H25.7168V15.4531H26.7027V15.6932H25.9811Z" fill="#F9F9F9"/>
<path d="M27.1459 30.9955C27.1498 30.9956 27.1534 30.9973 27.1561 31.0002C27.1575 31.0015 27.1586 31.0031 27.1594 31.0049C27.1602 31.0067 27.1606 31.0086 27.1606 31.0105V31.3008C27.1606 31.3028 27.1602 31.3047 27.1594 31.3065C27.1586 31.3083 27.1575 31.3099 27.1561 31.3112C27.1534 31.3141 27.1498 31.3158 27.1459 31.3159H26.6294C26.6056 31.3159 26.5821 31.3213 26.5606 31.3317C26.5391 31.3421 26.5202 31.3571 26.5052 31.3758L26.0589 31.9323L26.5052 32.4888C26.5205 32.507 26.5395 32.5217 26.5609 32.5317C26.5824 32.5417 26.6057 32.5469 26.6294 32.5468H27.1462C27.1501 32.5469 27.1538 32.5486 27.1564 32.5515C27.158 32.5531 27.1592 32.555 27.1599 32.5571C27.1607 32.5591 27.161 32.5614 27.1609 32.5636V32.8521C27.161 32.8544 27.1607 32.8566 27.1599 32.8587C27.1591 32.8608 27.1579 32.8628 27.1564 32.8644C27.1538 32.8673 27.1501 32.869 27.1462 32.8691H26.5973C26.4541 32.8691 26.3307 32.8097 26.2269 32.6909L25.838 32.2049L25.449 32.6909C25.3452 32.8097 25.2217 32.8691 25.0786 32.8691H24.5302C24.5283 32.8691 24.5264 32.8686 24.5247 32.8678C24.5229 32.867 24.5214 32.8659 24.5201 32.8644C24.5186 32.8628 24.5173 32.8609 24.5166 32.8587C24.5158 32.8566 24.5154 32.8544 24.5154 32.8521V32.5636C24.5153 32.5614 24.5157 32.5591 24.5165 32.557C24.5173 32.5549 24.5185 32.553 24.5201 32.5515C24.5214 32.55 24.5229 32.5489 24.5247 32.5481C24.5264 32.5472 24.5283 32.5468 24.5302 32.5468H25.047C25.0706 32.5469 25.094 32.5417 25.1154 32.5317C25.1369 32.5217 25.1559 32.507 25.1711 32.4888L25.6175 31.9323L25.1719 31.3762C25.1573 31.3576 25.1387 31.3426 25.1175 31.3322C25.0964 31.3218 25.0732 31.3164 25.0497 31.3162H24.531C24.5291 31.3162 24.5272 31.3157 24.5255 31.3149C24.5237 31.3141 24.5222 31.313 24.5209 31.3115C24.5195 31.3102 24.5183 31.3086 24.5175 31.3068C24.5167 31.305 24.5163 31.3031 24.5162 31.3012V31.0117C24.5163 31.0097 24.5167 31.0078 24.5175 31.006C24.5183 31.0042 24.5195 31.0026 24.5209 31.0013C24.5222 30.9999 24.5237 30.9987 24.5255 30.9979C24.5272 30.9971 24.5291 30.9966 24.531 30.9966H25.0794C25.2225 30.9966 25.346 31.056 25.4498 31.1748L25.8382 31.6597L26.229 31.1737C26.3315 31.0549 26.4542 30.9955 26.5973 30.9955H27.1457H27.1459ZM23.9426 30.9955C23.9448 30.9954 23.947 30.9957 23.9491 30.9965C23.9511 30.9973 23.953 30.9986 23.9546 31.0002C23.9561 31.0018 23.9574 31.0037 23.9582 31.0057C23.959 31.0078 23.9593 31.0101 23.9592 31.0123V32.8541C23.9592 32.856 23.9588 32.858 23.958 32.8597C23.9572 32.8615 23.956 32.8631 23.9546 32.8644C23.953 32.866 23.9511 32.8672 23.9491 32.8681C23.947 32.8689 23.9448 32.8692 23.9426 32.8691H23.6037C23.6017 32.8691 23.5998 32.8686 23.5981 32.8678C23.5963 32.867 23.5947 32.8659 23.5934 32.8644C23.5906 32.8617 23.5889 32.858 23.5888 32.8541V31.0126C23.5887 31.0104 23.589 31.0082 23.5898 31.0061C23.5906 31.004 23.5919 31.0021 23.5934 31.0005C23.5947 30.999 23.5963 30.9979 23.5981 30.9971C23.5998 30.9963 23.6017 30.9958 23.6037 30.9958H23.9426V30.9955ZM27.1457 30.9297H26.5973C26.4351 30.9297 26.2945 30.9972 26.1796 31.1302L25.838 31.5542L25.4998 31.133C25.3817 30.9979 25.2406 30.9305 25.0786 30.9305H24.5302C24.509 30.9307 24.4888 30.9393 24.4738 30.9545C24.4588 30.9696 24.4503 30.9901 24.4501 31.0115V31.3018C24.4504 31.3232 24.4589 31.3436 24.4739 31.3588C24.4888 31.3739 24.509 31.3825 24.5302 31.3828H25.0489C25.0631 31.3829 25.0771 31.3863 25.0898 31.3928C25.1024 31.3992 25.1134 31.4086 25.122 31.4201L25.5334 31.9331L25.1216 32.4465C25.1125 32.4575 25.1011 32.4663 25.0882 32.4724C25.0753 32.4784 25.0612 32.4815 25.047 32.4815H24.5302C24.509 32.4816 24.4887 32.4903 24.4738 32.5056C24.4662 32.5133 24.4602 32.5225 24.4561 32.5326C24.452 32.5427 24.45 32.5535 24.4501 32.5644V32.8529C24.45 32.8639 24.4521 32.8748 24.4562 32.885C24.4603 32.8952 24.4664 32.9045 24.4741 32.9122C24.489 32.9273 24.5091 32.9359 24.5302 32.936H25.0786C25.2406 32.936 25.3817 32.8686 25.498 32.7356L25.838 32.3115L26.1761 32.7335C26.2941 32.8686 26.4352 32.936 26.5973 32.936H27.1457C27.1668 32.9359 27.187 32.9273 27.2019 32.9122C27.2096 32.9044 27.2156 32.8952 27.2197 32.885C27.2238 32.8748 27.2259 32.8639 27.2258 32.8529V32.5644C27.2259 32.5535 27.2238 32.5427 27.2197 32.5326C27.2157 32.5225 27.2097 32.5133 27.2021 32.5056C27.1872 32.4903 27.1669 32.4816 27.1457 32.4815H26.6294C26.6152 32.4816 26.6011 32.4785 26.5882 32.4724C26.5754 32.4664 26.564 32.4575 26.5549 32.4465L26.143 31.9331L26.556 31.4183C26.5648 31.4072 26.576 31.3982 26.5887 31.3921C26.6014 31.3859 26.6153 31.3827 26.6294 31.3828H27.1462C27.1673 31.3825 27.1875 31.3739 27.2025 31.3588C27.2174 31.3436 27.226 31.3232 27.2263 31.3018V31.0117C27.226 30.9902 27.2175 30.9698 27.2026 30.9546C27.1876 30.9395 27.1673 30.9309 27.1462 30.9307L27.1457 30.9297ZM23.9426 30.9297H23.6037C23.5825 30.9298 23.5622 30.9384 23.5473 30.9537C23.5319 30.9694 23.5234 30.9906 23.5234 31.0126V32.8544C23.5237 32.8758 23.5323 32.8962 23.5472 32.9113C23.5622 32.9265 23.5824 32.9351 23.6035 32.9354H23.9424C23.9641 32.9355 23.985 32.9269 24.0005 32.9116C24.0081 32.9041 24.014 32.8952 24.0181 32.8853C24.0222 32.8755 24.0244 32.8649 24.0244 32.8542V31.0126C24.0245 31.0017 24.0225 30.9909 24.0184 30.9808C24.0143 30.9707 24.0083 30.9615 24.0006 30.9537C23.993 30.946 23.9839 30.9399 23.9739 30.9358C23.9639 30.9317 23.9532 30.9296 23.9424 30.9297H23.9426Z" fill="#F9F9F9"/>
<path d="M16.712 35.5659C16.712 35.7088 16.6189 35.8041 16.4543 35.8041H16.3023V36.0339H16.1367V35.3281H16.4543C16.6189 35.3281 16.712 35.4234 16.712 35.5659ZM16.5466 35.5659C16.5466 35.5036 16.5072 35.4699 16.4436 35.4699H16.3023V35.6623H16.4439C16.508 35.6623 16.5466 35.6299 16.5466 35.5659Z" fill="#F9F9F9"/>
<path d="M17.5183 35.8842V36.0339H17.0332V35.3281H17.1988V35.8842H17.5183Z" fill="#F9F9F9"/>
<path d="M18.2811 35.911H17.9911L17.9509 36.0339H17.7812L18.0375 35.3281H18.2345L18.4971 36.0339H18.321L18.2811 35.911ZM18.2342 35.7712L18.194 35.6503C18.1752 35.5977 18.1547 35.5334 18.1352 35.4721C18.1155 35.5337 18.095 35.598 18.0774 35.6503L18.0372 35.7712H18.2342Z" fill="#F9F9F9"/>
<path d="M19.3987 35.3281V36.0339H19.2203L19.0498 35.7524C19.0105 35.6876 18.9734 35.6246 18.941 35.5601C18.9439 35.6751 18.9449 35.7781 18.9449 35.8862V36.0339H18.7871V35.3281H18.9655L19.1359 35.6097C19.1694 35.6651 19.2125 35.7393 19.2448 35.8041C19.2418 35.6879 19.241 35.5849 19.241 35.4759V35.3281H19.3987Z" fill="#F9F9F9"/>
<path d="M19.9158 35.4778V35.6058H20.25V35.7464H19.9158V35.8842H20.2824V36.0339H19.75V35.3281H20.2833V35.4778H19.9158Z" fill="#F9F9F9"/>
<path d="M21.1594 35.4778H20.9447V36.0339H20.7781V35.4778H20.5645V35.3281H21.1594V35.4778Z" fill="#F9F9F9"/>
<path d="M21.8123 35.911H21.5221L21.4819 36.0339H21.3125L21.5687 35.3281H21.7657L22.0284 36.0339H21.853L21.8123 35.911ZM21.7653 35.7712L21.7251 35.6503C21.7065 35.5977 21.6858 35.5334 21.6663 35.4721C21.6467 35.5337 21.6261 35.598 21.6085 35.6503L21.5683 35.7712H21.7653Z" fill="#F9F9F9"/>
<path d="M22.8829 36.0305H22.7125C22.7011 36.0065 22.6956 35.9799 22.6965 35.9533L22.6935 35.8739C22.6904 35.7887 22.6533 35.7708 22.5906 35.7708H22.4553V36.03H22.2891V35.3242H22.6195C22.7956 35.3242 22.8724 35.4144 22.8724 35.5283C22.8737 35.5647 22.8635 35.6005 22.8434 35.6307C22.8232 35.6608 22.7941 35.6837 22.7602 35.696C22.8403 35.7227 22.8563 35.7802 22.8592 35.8546L22.8642 35.9537C22.8639 35.9805 22.8703 36.007 22.8829 36.0305V36.0305ZM22.6007 35.645C22.6648 35.645 22.7016 35.6126 22.7016 35.5507C22.7016 35.4888 22.6643 35.4585 22.5978 35.4585H22.4547V35.645H22.6007Z" fill="#F9F9F9"/>
<path d="M23.7838 35.3281L23.525 35.7595V36.0349H23.3594V35.7595L23.0977 35.3283H23.2849L23.3456 35.4303C23.3789 35.4898 23.4132 35.5483 23.4455 35.6059C23.4775 35.5475 23.5096 35.4859 23.5426 35.4294L23.6013 35.3283L23.7838 35.3281Z" fill="#F9F9F9"/>
<path d="M25.0992 36.0305H24.9287C24.9174 36.0064 24.9119 35.9799 24.9127 35.9533L24.9098 35.8739C24.9067 35.7887 24.8696 35.7708 24.8068 35.7708H24.6716V36.03H24.5059V35.3242H24.8361C25.0123 35.3242 25.089 35.4144 25.089 35.5283C25.0903 35.5647 25.0801 35.6005 25.06 35.6307C25.0398 35.6608 25.0107 35.6837 24.9769 35.696C25.057 35.7227 25.073 35.7802 25.0759 35.8546L25.0808 35.9537C25.0804 35.9805 25.0868 36.0069 25.0992 36.0305V36.0305ZM24.817 35.645C24.8811 35.645 24.9179 35.6126 24.9179 35.5507C24.9179 35.4888 24.8806 35.4585 24.814 35.4585H24.671V35.645H24.817Z" fill="#F9F9F9"/>
<path d="M25.5797 35.4778V35.6058H25.9139V35.7464H25.5797V35.8842H25.9463V36.0339H25.4141V35.3281H25.9472V35.4778H25.5797Z" fill="#F9F9F9"/>
<path d="M26.2344 35.7982H26.3945C26.3965 35.8944 26.4586 35.9151 26.5454 35.9151C26.6239 35.9151 26.6641 35.8864 26.6641 35.8341C26.6641 35.7865 26.6346 35.7675 26.5385 35.7497L26.4817 35.7389C26.3346 35.7131 26.2485 35.6457 26.2485 35.5177C26.2485 35.3979 26.3386 35.3086 26.5207 35.3086C26.7108 35.3086 26.806 35.3938 26.8119 35.5386H26.6549C26.6511 35.4738 26.6168 35.4395 26.5236 35.4395C26.4512 35.4395 26.4168 35.4662 26.4168 35.5108C26.4168 35.5603 26.4488 35.5803 26.5355 35.5971L26.5942 35.608C26.7619 35.6387 26.8345 35.7032 26.8345 35.8231C26.8345 35.9718 26.7169 36.0462 26.5385 36.0462C26.341 36.046 26.2353 35.9509 26.2344 35.7982Z" fill="#F9F9F9"/>
<path d="M27.1367 35.7616V35.3242H27.3025V35.7634C27.3025 35.8556 27.3553 35.9013 27.4396 35.9013C27.5238 35.9013 27.5778 35.8556 27.5778 35.7634V35.3242H27.7434V35.7616C27.7434 35.9491 27.6218 36.0461 27.4391 36.0461C27.2642 36.0461 27.1367 35.9491 27.1367 35.7616Z" fill="#F9F9F9"/>
<path d="M28.6792 36.0305H28.5088C28.4974 36.0064 28.4919 35.9799 28.4927 35.9533L28.4897 35.8739C28.4868 35.7887 28.4495 35.7708 28.3869 35.7708H28.2515V36.03H28.0859V35.3242H28.4162C28.5924 35.3242 28.6691 35.4144 28.6691 35.5283C28.6704 35.5647 28.6603 35.6006 28.6401 35.6307C28.6199 35.6608 28.5908 35.6837 28.557 35.696C28.637 35.7227 28.6531 35.7802 28.6559 35.8546L28.6609 35.9537C28.6605 35.9805 28.6667 36.0069 28.6792 36.0305V36.0305ZM28.397 35.645C28.461 35.645 28.4979 35.6126 28.4979 35.5507C28.4979 35.4888 28.4607 35.4585 28.3941 35.4585H28.2509V35.645H28.397Z" fill="#F9F9F9"/>
<path d="M29.5869 36.0305H29.416C29.4046 36.0064 29.3991 35.9799 29.4 35.9533L29.3969 35.8739C29.394 35.7887 29.3567 35.7708 29.2941 35.7708H29.1588V36.03H28.9932V35.3242H29.3234C29.4996 35.3242 29.5763 35.4144 29.5763 35.5283C29.5776 35.5647 29.5675 35.6006 29.5473 35.6307C29.5272 35.6608 29.498 35.6837 29.4642 35.696C29.5443 35.7227 29.5603 35.7802 29.5632 35.8546L29.5681 35.9537C29.5678 35.9805 29.5743 36.007 29.5869 36.0305V36.0305ZM29.3047 35.645C29.3687 35.645 29.4056 35.6126 29.4056 35.5507C29.4056 35.4888 29.3684 35.4585 29.3018 35.4585H29.1586V35.645H29.3047Z" fill="#F9F9F9"/>
<path d="M30.067 35.4778V35.6058H30.4012V35.7464H30.067V35.8842H30.4336V36.0339H29.9014V35.3281H30.4345V35.4778H30.067Z" fill="#F9F9F9"/>
<path d="M30.7227 35.6773C30.7227 35.4505 30.8578 35.3086 31.0705 35.3086C31.2361 35.3086 31.3734 35.4008 31.4008 35.5773H31.2332C31.2116 35.4941 31.149 35.4534 31.0705 35.4534C30.9584 35.4534 30.8951 35.5375 30.8951 35.6773C30.8951 35.8171 30.9578 35.9015 31.0705 35.9015C31.111 35.9034 31.1507 35.8898 31.1816 35.8632C31.2125 35.8367 31.2323 35.7993 31.2371 35.7586H31.4028C31.3812 35.947 31.2427 36.0462 31.0705 36.0462C30.8628 36.0462 30.7227 35.9044 30.7227 35.6773Z" fill="#F9F9F9"/>
<path d="M32.2297 35.4778H32.015V36.0339H31.8484V35.4778H31.6348V35.3281H32.2297V35.4778Z" fill="#F9F9F9"/>
<path d="M32.5195 35.3281H32.6853V36.0339H32.5195V35.3281Z" fill="#F9F9F9"/>
<path d="M32.9971 35.6773C32.9971 35.4542 33.1412 35.3086 33.3549 35.3086C33.5685 35.3086 33.7126 35.4544 33.7126 35.6773C33.7126 35.9002 33.5675 36.0462 33.3549 36.0462C33.1422 36.0462 32.9971 35.9004 32.9971 35.6773ZM33.5416 35.6773C33.5416 35.5375 33.4671 35.4542 33.3553 35.4542C33.2435 35.4542 33.17 35.5375 33.17 35.6773C33.17 35.8171 33.2435 35.9004 33.3553 35.9004C33.4671 35.9004 33.5411 35.8171 33.5411 35.6773H33.5416Z" fill="#F9F9F9"/>
<path d="M34.6155 35.3281V36.0339H34.4371L34.2667 35.7524C34.2275 35.6876 34.1902 35.6246 34.1578 35.5601C34.1609 35.6751 34.1618 35.7781 34.1618 35.8862V36.0339H34.0039V35.3281H34.1823L34.3529 35.6097C34.3862 35.6651 34.4293 35.7393 34.4616 35.8041C34.4587 35.6879 34.4578 35.5849 34.4578 35.4759V35.3281H34.6155Z" fill="#F9F9F9"/>
<path d="M25.3751 13.3939C25.6662 13.3922 25.9525 13.4688 26.2046 13.616C26.4567 13.7633 26.6655 13.9757 26.8095 14.2316L36.4349 31.0937C36.5802 31.3484 36.6568 31.6373 36.6568 31.9313C36.6568 32.2254 36.5803 32.5143 36.4349 32.769C36.2895 33.0237 36.0804 33.2352 35.8286 33.3822C35.5769 33.5292 35.2912 33.6066 35.0005 33.6066H34.0442L31.9622 29.9587L25.5457 18.7172L25.3759 18.4198L25.2061 18.7172L18.7898 29.9587L18.62 30.2562H31.4529L29.5405 33.6066H15.751C15.4603 33.6066 15.1746 33.5292 14.9228 33.3822C14.6711 33.2352 14.462 33.0237 14.3166 32.769C14.1712 32.5143 14.0947 32.2254 14.0947 31.9313C14.0947 31.6373 14.1713 31.3484 14.3166 31.0937L23.9412 14.2316C24.0853 13.9758 24.2941 13.7633 24.5462 13.6161C24.7982 13.4689 25.0845 13.3922 25.3756 13.3939H25.3751ZM25.3756 13.1956C24.7518 13.1956 24.128 13.508 23.7715 14.1325L14.1464 30.9942C13.4335 32.2432 14.3246 33.8046 15.7505 33.8046H29.6521L31.791 30.0575H18.9588L25.3751 18.816L31.7916 30.0575L33.9303 33.8046H34.9999C36.4253 33.8046 37.3168 32.2432 36.604 30.9942L26.9786 14.1321C26.6221 13.5076 25.9983 13.1953 25.3745 13.1953L25.3756 13.1956Z" fill="#F9F9F9"/>
<path d="M25.376 22.5625L25.0288 25.0216L22.5977 25.3728L25.0288 25.7242L25.376 28.1832L25.7234 25.7242L28.1544 25.3728L25.7234 25.0216L25.376 22.5625Z" fill="#F9F9F9"/>
</g>
<path d="M1 9V1H9" stroke="#FF6647" stroke-opacity="0.4"/>
<path d="M41 1L49 1L49 9" stroke="#FF6647" stroke-opacity="0.4"/>
<path d="M49 41L49 49L41 49" stroke="#FF6647" stroke-opacity="0.4"/>
<path d="M9 49L1 49L1 41" stroke="#FF6647" stroke-opacity="0.4"/>
<defs>
<clipPath id="clip0_6438_392891">
<rect width="30.75" height="28.5" fill="white" transform="translate(10 9.25)"/>
</clipPath>
</defs>
</svg>
