<svg width="64" height="71" viewBox="0 0 64 71" fill="none" xmlns="http://www.w3.org/2000/svg">
<path d="M18.7249 49.4759L11.1437 54.8976L10.8711 52.1008L11.6155 51.5685L11.1211 46.5305L10.3803 47.0603L10.1214 44.4616L13.8538 41.7924L14.1126 44.391L13.4071 44.8956L13.8974 49.9205L16.4445 48.099L16.2795 46.3771L18.315 44.9214L18.7249 49.4759Z" fill="white"/>
<path d="M21.243 54.8251L23.7336 53.0439L24.0387 56.1694C24.0772 56.6571 24.0004 57.147 23.8146 57.5996C23.6288 58.0521 23.3391 58.4545 22.969 58.7743L17.7479 62.5082C17.0423 63.0128 16.434 62.6319 16.3411 61.6744L15.6695 54.6887C15.6299 54.2009 15.7062 53.7106 15.8921 53.258C16.078 52.8053 16.3683 52.403 16.7392 52.0838L21.9603 48.3499C22.6376 47.8655 23.2742 48.2262 23.3671 49.1837L23.6346 51.9361L21.1405 53.7198L20.9603 51.8649L18.2439 53.8075L18.7347 58.8481L21.4511 56.9054L21.243 54.8251Z" fill="white"/>
<path d="M7.2232 33.1119L7.21191 33.1082C7.21956 33.1119 7.2232 33.1156 7.23067 33.1194C7.22685 33.1156 7.22685 33.1119 7.2232 33.1119Z" fill="white"/>
<path fill-rule="evenodd" clip-rule="evenodd" d="M62.7941 46.7411C62.9487 46.1893 63.0891 45.6194 63.208 45.028C63.2158 44.9948 63.2225 44.9604 63.2293 44.9256C63.2351 44.8962 63.2409 44.8665 63.2475 44.8368C63.5959 43.1208 63.8292 41.3834 63.9458 39.6361C63.9962 38.8246 64.0106 38.0384 63.9925 37.2667C63.9855 36.9204 63.9746 36.5742 63.953 36.228C63.8514 34.0524 63.5892 31.8873 63.1684 29.7506C63.1367 29.5841 63.1062 29.4177 63.0755 29.2507C63.0504 29.1137 63.0251 28.9763 62.9992 28.8381C62.9092 28.3224 62.812 27.7994 62.6969 27.2657C62.6141 26.8725 62.5169 26.4722 62.4053 26.0683C62.3188 25.769 62.2289 25.5092 62.1461 25.2821C62.0921 25.1341 62.0165 24.925 61.9986 24.8385C61.9877 24.5966 61.9949 24.3543 62.0202 24.1136L62.0489 23.6952L62.0513 23.6551L62.0514 23.655C62.1982 21.2547 62.3497 18.7796 62.0489 16.2223C61.7647 13.7951 61.3543 10.9964 60.1232 8.54044C59.7756 7.77813 59.2755 7.09545 58.6539 6.53464C58.0323 5.97383 57.3025 5.54681 56.5096 5.28009C56.4556 5.26204 56.4052 5.2476 56.3475 5.23316H56.3438C55.9727 5.12267 55.5937 5.04069 55.2101 4.98794C54.8466 4.9327 54.4799 4.90137 54.1123 4.89417C54.0223 4.88695 53.9361 4.88695 53.8461 4.88695C53.5652 4.88695 53.2773 4.89777 52.9821 4.92296H52.9786C52.723 4.94462 52.4675 4.9735 52.2046 5.0096C52.075 5.02756 51.949 5.04922 51.8267 5.07089C51.4524 5.13578 51.0961 5.21159 50.7506 5.30176C50.2801 5.4263 49.8184 5.58169 49.3683 5.76693C48.2464 4.1821 46.8195 2.83815 45.1715 1.81415L44.959 1.67705L44.959 1.67703C43.9764 1.0531 42.6303 0.198415 41.0141 0.0253087C40.854 0.00779431 40.693 -0.000642265 40.5319 3.80798e-05C38.5557 3.80798e-05 37.1016 1.25873 36.3961 1.87182C35.8649 2.33811 35.3571 2.81112 34.863 3.2713L34.8628 3.27147L34.8089 3.32167C34.4741 3.63909 34.1358 3.95282 33.7903 4.26663L33.5852 4.45418C33.125 4.92142 32.6059 5.32636 32.041 5.65871C31.4793 5.86624 30.8941 6.00315 30.2988 6.0663C30.0432 6.10601 29.7914 6.14565 29.5214 6.19248C29.1434 6.26468 28.7691 6.34401 28.3947 6.42696C27.7724 6.58996 27.1361 6.69382 26.4943 6.73716C26.4476 6.74068 26.4008 6.74068 26.3539 6.74068C25.7508 6.74577 25.1522 6.63562 24.5902 6.41613C24.2131 6.25444 23.8443 6.07389 23.4853 5.87514C21.7166 4.88525 19.7637 4.27023 17.7479 4.06825C17.5889 4.05103 17.4291 4.04259 17.2692 4.04298C14.6642 4.04298 13.4511 6.03942 12.8678 6.99929L12.8671 7.00043L12.7232 7.23843C10.3871 10.9784 8.73856 15.6057 7.68405 21.387C7.55084 22.1191 7.36365 22.8656 7.12974 23.7457C7.03975 24.0738 6.96049 24.4093 6.88122 24.7519C6.76451 25.3534 6.58849 25.9417 6.35573 26.5083C6.3306 26.5588 6.28384 26.649 5.8986 26.8293C5.85171 26.8541 5.79852 26.8769 5.73887 26.9025C5.72071 26.9102 5.70196 26.9183 5.6826 26.9267C5.41634 27.0384 5.15008 27.1538 4.88013 27.2729C3.96971 27.6753 3.11446 28.1928 2.33525 28.8129C1.63364 29.3513 1.06042 30.0393 0.657009 30.8272C0.2536 31.615 0.0301167 32.4829 0.00286456 33.368C-0.0403712 34.9152 0.406036 36.3902 1.3275 38.3738L1.94298 39.4883C2.01422 39.6719 2.0959 39.8514 2.18762 40.0257C2.5689 40.7818 3.0697 41.4711 3.67061 42.067C3.82175 42.2221 3.9838 42.3772 4.15287 42.5323C4.18035 42.5575 4.20916 42.5813 4.23917 42.6035C4.72639 40.9515 5.8023 39.4678 7.38397 38.4977L9.56287 37.1613C12.9539 35.0813 17.3857 36.1497 19.4614 39.5475L29.0912 55.3102C30.8453 58.1816 30.3556 61.7977 28.1152 64.1045C28.4726 64.4912 28.9322 64.7745 29.4459 64.9181C29.618 64.9654 29.7938 64.998 29.9714 65.0155C30.3132 65.0443 30.6768 65.0732 31.0475 65.0912C32.534 65.1777 34.1681 65.1994 35.2263 65.203C54.1129 64.1241 61.4742 52.4456 62.7941 46.7411Z" fill="white"/>
<path d="M20.0656 10.3546C20.0662 10.3751 20.065 10.3956 20.0619 10.4159V10.4195C20.0584 10.4403 20.0536 10.4607 20.0475 10.4808C20.0368 10.5169 20.0224 10.5493 20.0079 10.5854C19.9898 10.6143 19.9719 10.6467 19.9503 10.6756C19.9503 10.6761 19.9503 10.6765 19.9501 10.6769C19.9499 10.6773 19.9496 10.6778 19.9492 10.6781C19.9489 10.6785 19.9486 10.6788 19.9482 10.6789C19.9478 10.6791 19.9472 10.6792 19.9468 10.6792C19.8471 10.7969 19.7262 10.8948 19.5904 10.9677C19.432 11.0579 19.2592 11.1264 19.1188 11.1949C19.1001 11.2032 19.0821 11.2128 19.0649 11.2238C17.9239 11.7827 16.7504 12.2588 15.588 12.7638C15.5627 12.7745 15.5411 12.7855 15.5159 12.7962C15.4256 12.8214 15.3325 12.836 15.2388 12.8395C15.2449 12.7789 15.2545 12.7187 15.2676 12.6592C15.3041 12.4178 15.3571 12.1793 15.4259 11.9451C15.6594 11.1316 16.0414 10.3685 16.5525 9.69462C16.6495 9.56259 16.7553 9.43726 16.8692 9.31952C16.8757 9.31671 16.8808 9.31154 16.8836 9.30508C16.9814 9.20319 17.0989 9.12224 17.2288 9.06708C17.3587 9.01192 17.4984 8.98369 17.6395 8.98414C17.7071 8.98494 17.7745 8.99095 17.8411 9.0021H17.8555C18.3412 9.10547 18.8092 9.27923 19.2448 9.5179C19.4578 9.61139 19.6574 9.73266 19.8387 9.87856L19.8496 9.8893C19.864 9.90733 19.8819 9.92179 19.8963 9.93984C19.921 9.96459 19.9439 9.99109 19.9647 10.0192C19.9692 10.0233 19.9729 10.0282 19.9756 10.0336C19.9934 10.058 20.0079 10.0847 20.0187 10.1129C20.0326 10.1405 20.0435 10.1695 20.0512 10.1995C20.0585 10.2302 20.0621 10.2617 20.0619 10.2933C20.065 10.3135 20.0662 10.3341 20.0656 10.3546Z" fill="white"/>
<path d="M32.6783 24.8962C32.65 24.9245 32.6236 24.9547 32.5992 24.9864C32.6243 24.9576 32.6531 24.9251 32.682 24.8962H32.6783ZM26.959 28.4199C26.9887 28.415 27.0189 28.4138 27.049 28.4162C27.1554 28.4388 27.2537 28.4899 27.3333 28.5642C27.2565 28.4873 27.1589 28.4346 27.0525 28.4126C27.0211 28.4092 26.9894 28.4116 26.959 28.4199Z" fill="white"/>
<path d="M38.4083 26.9377C38.3878 27.2071 38.2986 27.4666 38.1491 27.6915C38.0488 27.8506 37.9343 28.0002 37.8071 28.1387C37.6263 28.3367 37.4302 28.52 37.2204 28.6869C35.8923 29.7436 34.7297 29.3721 33.5239 28.7265C33.4052 28.658 33.2827 28.5931 33.1639 28.5246H33.1604C33.0416 28.4525 32.9193 28.384 32.7968 28.3154H32.7933C32.7356 28.2757 32.6745 28.2433 32.6133 28.2072C32.6133 28.2077 32.6133 28.2082 32.6131 28.2086C32.613 28.209 32.6126 28.2094 32.6122 28.2097C32.6119 28.2101 32.6116 28.2104 32.6112 28.2105C32.6108 28.2107 32.6103 28.2108 32.6098 28.2108C32.2857 28.6401 32.0194 29.0981 31.663 29.4911C31.6307 29.5236 31.5982 29.5597 31.5623 29.5958C31.232 29.9443 30.8123 30.1951 30.3493 30.3207C30.1728 30.3701 29.992 30.4028 29.8094 30.4181C29.6344 30.4289 29.4589 30.4289 29.2839 30.4181C29.1974 30.4108 29.1147 30.4036 29.0283 30.3928C28.9707 30.3856 28.9167 30.3784 28.8591 30.3676C28.1176 30.2413 27.2682 29.9528 26.912 29.2315C26.8148 29.0295 26.6634 28.5498 26.8975 28.438C26.9157 28.4261 26.937 28.4199 26.9587 28.42C26.9884 28.4151 27.0187 28.4139 27.0487 28.4164C27.1551 28.4389 27.2534 28.4901 27.3331 28.5643C27.5456 28.7754 27.7742 28.9695 28.0169 29.1449C29.1435 29.6787 30.2988 29.0728 30.9252 28.1206C31.0019 28.0029 31.0704 27.88 31.1303 27.7528C31.1924 27.6274 31.2442 27.4972 31.2852 27.3633C31.3186 27.2567 31.3463 27.1483 31.3679 27.0387C31.3931 26.9269 31.4112 26.8115 31.4256 26.6961C31.4746 26.3651 31.4113 26.0273 31.2456 25.7367C31.2249 25.7052 31.202 25.675 31.1771 25.6466C31.1532 25.6154 31.1254 25.5875 31.0943 25.5636C31.0382 25.5049 30.9725 25.4561 30.9001 25.4193C30.7517 25.341 30.5946 25.2804 30.4321 25.239C30.084 25.1833 29.7585 25.0309 29.4927 24.799C29.4509 24.7521 29.4136 24.7014 29.3811 24.6476C29.346 24.5864 29.3159 24.5224 29.2911 24.4564C29.2207 24.2854 29.1971 24.0986 29.2227 23.9154C29.2283 23.8639 29.2391 23.8132 29.2551 23.764C29.2766 23.7058 29.3018 23.6492 29.3306 23.5944L29.3343 23.5909C29.3573 23.547 29.385 23.5059 29.4171 23.4682C29.4449 23.4303 29.4749 23.3942 29.5071 23.36C30.2484 22.5882 32.1994 22.4079 33.182 22.8587C33.2668 22.8975 33.3476 22.9446 33.4232 22.9993C33.532 23.0653 33.6212 23.1594 33.6813 23.2717C33.7415 23.384 33.7704 23.5104 33.7652 23.6377C33.762 23.6851 33.7547 23.7322 33.7436 23.7784C33.7385 23.8053 33.7312 23.8318 33.7219 23.8576C33.6102 24.1201 33.422 24.3426 33.182 24.496C33.0632 24.5827 32.9444 24.6656 32.8365 24.7593C32.7824 24.8021 32.7307 24.8479 32.6817 24.8964H32.678C32.6497 24.9247 32.6233 24.9548 32.5989 24.9865C32.5621 25.0298 32.5284 25.0756 32.498 25.1236C32.4706 25.1662 32.4466 25.2108 32.4261 25.257C32.1957 25.78 32.5054 26.3246 32.9444 26.761C33.02 26.8331 33.0956 26.9053 33.1783 26.9738C33.2576 27.0423 33.3367 27.1036 33.4196 27.1649C33.542 27.2551 33.6608 27.3344 33.7722 27.4029C34.306 27.7358 34.9301 27.8934 35.5575 27.8538C36.4573 27.7997 36.8282 27.3272 37.4401 26.761C37.7101 26.5121 38.077 26.339 38.2714 26.4905C38.2905 26.5023 38.3065 26.5183 38.3183 26.5374C38.3949 26.6559 38.4268 26.7978 38.4083 26.9377Z" fill="white"/>
<path d="M44.0807 7.5595C44.0243 7.60509 43.9575 7.63606 43.8864 7.64966C43.7698 7.6717 43.652 7.68617 43.5336 7.69298C43.4869 7.69659 43.4401 7.70382 43.3934 7.70742C42.9434 7.75427 42.4898 7.79759 42.0362 7.81925C42.0336 7.821 42.0304 7.82189 42.0273 7.82189C42.0241 7.82189 42.021 7.821 42.0183 7.81925H42.0148C42.0143 7.81973 42.0138 7.82013 42.0132 7.82039C42.0126 7.82065 42.0119 7.82074 42.0113 7.82074C42.0106 7.82074 42.0098 7.82065 42.0092 7.82039C42.0085 7.82013 42.008 7.81973 42.0076 7.81925C41.8816 7.82646 41.7555 7.8336 41.626 7.84082H41.5937C40.8655 7.87047 40.1362 7.82939 39.416 7.71817C39.3958 7.71319 39.3754 7.7096 39.3548 7.70742C39.0639 7.67274 38.7813 7.58727 38.5198 7.45489C38.5054 7.44768 38.4945 7.44054 38.4801 7.43332C38.453 7.41945 38.4277 7.40249 38.4045 7.38278C38.2843 7.2945 38.2009 7.16473 38.1706 7.01851C38.1646 6.98766 38.1622 6.95623 38.1634 6.92483C38.1629 6.9091 38.1641 6.89338 38.1669 6.8779C38.1957 6.47753 38.6242 6.01949 38.8688 5.77066C39.0739 5.55637 39.3049 5.3686 39.5564 5.21171C39.578 5.19728 39.6031 5.18283 39.6247 5.16839C39.8898 4.99419 40.1915 4.88367 40.5061 4.84551C40.8208 4.80734 41.14 4.84255 41.4388 4.94835C41.4928 4.97001 41.5504 4.99167 41.6044 5.01694C42.3331 5.34383 42.9901 5.81205 43.5373 6.39458C43.7532 6.62417 43.9494 6.87147 44.124 7.13395C44.1641 7.19988 44.1817 7.27715 44.1739 7.35399C44.1661 7.43082 44.1333 7.50302 44.0807 7.5595Z" fill="white"/>
<path d="M25.9435 21.6721C25.9317 21.7073 25.916 21.7412 25.8968 21.7731C25.8196 21.9028 25.6982 22.0001 25.5549 22.0472C25.5152 22.0617 25.4742 22.0726 25.4324 22.0796C25.3892 22.0868 25.3424 22.094 25.2957 22.0976C25.2489 22.1012 25.2022 22.1048 25.1553 22.1048C24.3275 22.1048 23.4492 21.5205 22.7222 21.2465C22.6357 21.214 22.5457 21.1851 22.4557 21.1564C22.3371 21.1202 22.2183 21.0914 22.0958 21.0625C22.0239 21.0481 21.9518 21.0337 21.8798 21.0229C21.5387 20.9654 21.1925 20.9436 20.8469 20.958C20.7941 20.9556 20.7412 20.9568 20.6885 20.9616C20.5769 20.9688 20.4618 20.976 20.35 20.9905C20.3393 20.9905 20.3321 20.994 20.3214 20.994C19.9831 21.0301 19.5511 21.2428 19.2235 21.196C18.86 21.1419 18.8779 20.8822 19.0688 20.7091C19.1032 20.6762 19.1419 20.6482 19.1839 20.626C19.2056 20.6153 19.2307 20.6045 19.2523 20.5937C20.9183 19.8667 22.7895 19.763 24.5254 20.3016C24.9706 20.4043 25.3858 20.6092 25.7384 20.9003C25.7746 20.9353 25.8072 20.974 25.8356 21.0156C25.8674 21.0554 25.894 21.099 25.9149 21.1455C25.9184 21.1563 25.9256 21.1708 25.9291 21.1851C25.935 21.1979 25.9398 21.2112 25.9435 21.2249C25.9959 21.3693 25.9959 21.5276 25.9435 21.6721Z" fill="white"/>
<path d="M43.7675 18.0728C43.7671 18.1064 43.7597 18.1396 43.7457 18.1702C43.7288 18.2084 43.7043 18.2428 43.6738 18.2712C43.5154 18.4262 43.2095 18.2928 43.0223 18.2784C41.8057 18.1521 40.7222 18.6679 39.7828 19.3783C39.6605 19.4685 39.5417 19.5623 39.4264 19.6597C39.3508 19.721 39.2717 19.7895 39.189 19.8616C39.1494 19.8977 39.1062 19.9337 39.0629 19.9662C39.0162 20.0022 38.973 20.0347 38.9262 20.0672C38.8011 20.1868 38.6397 20.2614 38.4677 20.279C38.2956 20.2966 38.1226 20.2564 37.9759 20.1645C37.5441 19.8616 37.6843 19.2701 38.0084 18.9274C38.032 18.8983 38.0585 18.8717 38.0875 18.8481C38.2221 18.7349 38.3627 18.6289 38.5086 18.5308C38.7237 18.3823 38.9486 18.2486 39.1817 18.1305C39.315 18.0656 39.4482 18.0042 39.5849 17.9501C40.3363 17.6457 41.1331 17.4689 41.9425 17.4272C42.4535 17.3911 43.0655 17.3407 43.4975 17.6724C43.5311 17.6972 43.5624 17.7249 43.591 17.7554C43.6075 17.7701 43.6231 17.7858 43.6377 17.8023C43.6829 17.8462 43.7185 17.899 43.7421 17.9574C43.7591 17.9935 43.7677 18.0329 43.7675 18.0728Z" fill="white"/>
<path d="M52.5931 22.6169C52.5538 22.6391 52.5129 22.6584 52.4708 22.6746C52.3418 22.7224 52.2051 22.7456 52.0676 22.7431C51.8858 22.7381 51.705 22.7151 51.5277 22.6746C51.3477 22.6349 51.1677 22.5917 51.0059 22.57C50.8619 22.5484 50.7178 22.5303 50.5704 22.5195C50.4016 22.5057 50.2321 22.5009 50.0628 22.505C49.9787 22.5021 49.8946 22.5045 49.8108 22.5123C49.7245 22.516 49.6417 22.5232 49.5552 22.5339C49.5348 22.5334 49.5143 22.5346 49.4941 22.5375C49.4041 22.5447 49.3106 22.5592 49.2169 22.5736C49.1234 22.5881 49.0334 22.6024 48.9434 22.6205C48.8786 22.6349 48.8174 22.6494 48.7526 22.6638C48.6519 22.6891 48.551 22.7179 48.4468 22.7467C48.1027 22.8669 47.737 22.9124 47.374 22.8801C47.2012 22.8465 47.0451 22.755 46.9313 22.6205C46.9027 22.5851 46.8786 22.5463 46.8594 22.505C46.8523 22.4862 46.8462 22.4669 46.8413 22.4474C46.8272 22.3893 46.8336 22.3281 46.8594 22.2743C46.8843 22.2374 46.9147 22.2046 46.9494 22.1769C47.0127 22.1372 47.0819 22.108 47.1545 22.0903C48.5331 21.7297 49.8865 21.2933 51.3263 21.2969C51.4377 21.2969 51.553 21.2969 51.6753 21.3005C51.6871 21.2969 51.6996 21.2969 51.7114 21.3005C51.7544 21.3005 51.7976 21.3005 51.8409 21.3041C51.9705 21.3071 52.0996 21.3228 52.2261 21.351C52.4022 21.3773 52.569 21.4467 52.7119 21.5529C52.7236 21.5615 52.7344 21.5712 52.7442 21.5818C52.7544 21.5883 52.763 21.5969 52.7695 21.6071C52.8399 21.6785 52.8922 21.7657 52.9221 21.8615C52.952 21.9572 52.9585 22.0588 52.9413 22.1576C52.924 22.2564 52.8834 22.3497 52.8228 22.4296C52.7622 22.5095 52.6835 22.5737 52.5931 22.6169Z" fill="white"/>
<path d="M53.3311 25.0622C53.2999 25.0905 53.2662 25.1159 53.2303 25.138C53.1742 25.1735 53.1137 25.2014 53.0503 25.2209C53.0072 25.2353 52.964 25.2461 52.9208 25.2569C52.8077 25.2755 52.6925 25.2779 52.5787 25.2641C52.4961 25.2533 52.4169 25.2353 52.3341 25.2209C52.172 25.1848 52.0137 25.1451 51.8518 25.1019C51.4487 24.9937 51.049 24.8675 50.6388 24.7953C49.9239 24.6572 49.1928 24.6232 48.4683 24.6943C48.4468 24.6979 48.4215 24.6979 48.3964 24.7015C48.3773 24.7046 48.358 24.7058 48.3387 24.7051C48.2093 24.7142 48.0794 24.7142 47.95 24.7051C47.8893 24.6981 47.8292 24.6873 47.77 24.6727C47.7412 24.6619 47.7088 24.6511 47.6837 24.6402C47.644 24.6222 47.6075 24.5978 47.5756 24.5681C47.5624 24.5509 47.5504 24.5328 47.5396 24.514C47.5354 24.5058 47.5318 24.4974 47.5289 24.4887C47.5191 24.4696 47.513 24.4488 47.5109 24.4274V24.4167C47.5081 24.378 47.5144 24.3392 47.5294 24.3034C47.5444 24.2677 47.5676 24.236 47.5972 24.2111C47.6401 24.1689 47.6901 24.1347 47.7449 24.1101C47.818 24.0741 47.8938 24.044 47.9716 24.0199C48.0795 23.9874 48.1839 23.9658 48.2524 23.9514C49.4536 23.661 50.7007 23.6143 51.9202 23.8143C52.0281 23.8323 52.1576 23.854 52.3018 23.8864C52.3701 23.9008 52.442 23.9153 52.5141 23.937C52.5536 23.9442 52.5897 23.9549 52.6292 23.9658C52.7724 24.0069 52.9111 24.0625 53.0431 24.1317C53.1058 24.1638 53.165 24.2024 53.2195 24.2471C53.2961 24.307 53.3598 24.3819 53.4067 24.4671C53.4174 24.4924 53.4283 24.5175 53.4355 24.5392C53.4762 24.6261 53.4881 24.7238 53.4693 24.8179C53.4505 24.912 53.402 24.9976 53.3311 25.0622Z" fill="white"/>
<path d="M17.028 26.1227L17.0243 26.1262C17.0099 26.1775 16.978 26.2221 16.9343 26.2524C16.6836 26.3546 16.4113 26.3918 16.1425 26.3607C15.9049 26.3643 15.6673 26.3643 15.4297 26.3715C15.203 26.3751 14.9727 26.3822 14.7458 26.4039C14.584 26.4147 14.4219 26.4328 14.2599 26.4544C13.6722 26.5711 13.0963 26.7413 12.5395 26.9629C12.2479 27.0567 11.8124 27.1577 11.6215 26.8331C11.4489 26.5446 11.6324 26.2777 11.8735 26.0829C11.8952 26.0685 11.9168 26.0505 11.9384 26.036C12.0346 25.9674 12.1356 25.906 12.2407 25.8522C13.3098 25.304 14.4724 25.3112 15.6241 25.4518C15.7538 25.4662 15.8868 25.4843 16.0165 25.5023C16.0272 25.5059 16.0381 25.5059 16.0525 25.5095C16.0777 25.5131 16.11 25.5167 16.1425 25.5239C16.2433 25.5378 16.343 25.5583 16.4411 25.5852C16.4716 25.5919 16.5016 25.6004 16.5311 25.6105C16.6433 25.6391 16.7503 25.6854 16.848 25.7476H16.8515C16.879 25.765 16.9043 25.7856 16.9271 25.8088C16.9487 25.8269 16.9666 25.8485 16.9882 25.8701V25.8737C17.0052 25.895 17.0175 25.9195 17.0243 25.9459C17.0454 26.0027 17.0468 26.065 17.028 26.1227Z" fill="white"/>
<path d="M17.0171 27.4462C17.0095 27.4723 16.9973 27.4967 16.981 27.5184C16.9434 27.5748 16.8944 27.6227 16.8371 27.659C16.7082 27.7432 16.5639 27.8009 16.4125 27.8286C16.2107 27.8682 15.9949 27.879 15.7896 27.9007C15.7776 27.8999 15.7654 27.9011 15.7538 27.9043C15.6848 27.9099 15.6163 27.9195 15.5485 27.9332C15.5059 27.9377 15.4637 27.9461 15.4227 27.9583C15.3506 27.9764 15.275 27.9981 15.203 28.0233C14.7075 28.1888 14.226 28.3938 13.7632 28.6363C13.3926 28.8204 12.9462 29.163 12.5143 29.1521C12.2011 29.1413 11.8303 28.8348 11.9744 28.539C11.9888 28.5138 12.0032 28.4921 12.0175 28.4705C12.0373 28.4471 12.059 28.4254 12.0823 28.4056C12.1832 28.3118 12.2911 28.2252 12.399 28.1423C12.5071 28.0629 12.6187 27.9872 12.7338 27.915C12.7913 27.879 12.8526 27.843 12.9138 27.8105C13.0289 27.7419 13.1477 27.6806 13.2701 27.623C13.3312 27.5941 13.3961 27.5653 13.4609 27.54C13.5869 27.4859 13.7129 27.439 13.8425 27.3922C13.9685 27.3453 14.098 27.3055 14.2311 27.2659C14.3608 27.2298 14.494 27.1937 14.6235 27.1649C14.7028 27.1469 14.7819 27.1288 14.861 27.1145C14.9151 27.1036 14.9691 27.0927 15.023 27.082C15.0553 27.0748 15.0914 27.0711 15.1274 27.0639C15.2283 27.0459 15.3362 27.0243 15.4478 27.0063C15.5234 26.9918 15.6026 26.981 15.6782 26.9702C15.8707 26.9379 16.0662 26.927 16.2612 26.9377C16.3462 26.9406 16.4307 26.9527 16.5132 26.9738C16.5549 26.9807 16.5958 26.9916 16.6355 27.0063C16.6768 27.0186 16.7167 27.0355 16.7543 27.0567C16.7918 27.0722 16.8269 27.0929 16.8587 27.118C16.8795 27.1317 16.8988 27.1474 16.9164 27.1649C16.9601 27.1957 16.9932 27.2392 17.0113 27.2896C17.0293 27.34 17.0313 27.3947 17.0171 27.4462Z" fill="white"/>
<path d="M52.0067 26.9554C51.9988 26.9983 51.9842 27.0397 51.9635 27.0781C51.9558 27.1018 51.9436 27.1239 51.9276 27.143C51.9132 27.161 51.8951 27.1827 51.8772 27.2043C51.8114 27.2765 51.7364 27.3396 51.654 27.3919C51.3192 27.6046 50.9234 27.363 50.6246 27.1827C50.5706 27.1502 50.5167 27.1177 50.4662 27.0889C50.3654 27.0275 50.261 26.9699 50.1603 26.9158H50.1567C50.0559 26.858 49.9515 26.8076 49.8471 26.7607C49.6842 26.6852 49.5157 26.6225 49.3432 26.5732C49.2425 26.5443 47.9646 26.2053 47.6586 25.9204C47.6011 25.8662 47.5795 25.8194 47.5974 25.7725C47.6022 25.7543 47.6122 25.738 47.6263 25.7256C47.6608 25.6978 47.6997 25.6758 47.7414 25.6606C48.5584 25.3505 49.6383 25.6102 50.4734 25.7833C50.5237 25.7941 50.5849 25.8122 50.6569 25.8338C50.7362 25.8591 50.819 25.8951 50.9125 25.9311C50.9448 25.942 50.9736 25.9564 51.0061 25.9708H51.0097C51.0924 26.0069 51.1789 26.0502 51.2652 26.0971C51.3084 26.1187 51.3517 26.1439 51.3947 26.1692C51.476 26.2171 51.5542 26.2701 51.6288 26.3279C51.8734 26.5118 52.0427 26.7319 52.0067 26.9554Z" fill="white"/>
<path d="M16.8548 29.5126C16.8126 29.5513 16.7682 29.5874 16.7217 29.6208C16.7036 29.6316 16.6857 29.6423 16.6713 29.6532C16.6353 29.6712 16.5992 29.6929 16.5634 29.7109C16.5274 29.729 16.4913 29.7433 16.459 29.7614C16.4049 29.783 16.3581 29.8047 16.3149 29.8227C15.9875 29.9598 15.6743 30.104 15.3683 30.2663C15.1667 30.3709 14.9725 30.4827 14.7781 30.6053C14.4825 30.7919 14.1988 30.9966 13.9285 31.2184C13.6909 31.4168 13.3598 31.6945 13.0287 31.5178C12.9889 31.4985 12.9525 31.473 12.9208 31.4421C12.8811 31.4056 12.8492 31.3614 12.8271 31.3122C12.8236 31.2978 12.8164 31.2797 12.8129 31.2653C12.8075 31.2489 12.8038 31.232 12.802 31.2148C12.7945 31.0471 12.8469 30.8822 12.9496 30.7496C12.9826 30.7017 13.0187 30.6559 13.0575 30.6126C13.0773 30.5891 13.099 30.5674 13.1224 30.5477C13.2591 30.4214 13.3995 30.3024 13.547 30.1905C13.704 30.0666 13.8675 29.9511 14.0366 29.8443C14.4676 29.5713 14.9291 29.3497 15.4115 29.1843C15.5338 29.1411 15.6563 29.1051 15.7824 29.069C15.8614 29.0473 15.9766 29.0112 16.1063 28.9824L16.2035 28.9607C16.2681 28.9499 16.3365 28.9391 16.4049 28.9319C16.6281 28.9138 16.8404 28.9499 16.9268 29.1411C16.9566 29.2024 16.9657 29.2718 16.9527 29.3388C16.9397 29.4058 16.9053 29.4668 16.8548 29.5126Z" fill="white"/>
<path d="M8.59812 36.1236C8.51481 36.1778 8.41683 36.2047 8.31762 36.2009C8.21841 36.197 8.12283 36.1624 8.04398 36.102C7.97214 36.0583 7.90971 36.0006 7.86032 35.9325C7.67019 35.6793 7.5062 35.4074 7.37085 35.121C7.02526 34.4244 6.81633 33.6677 6.75537 32.8922C6.75634 32.749 6.81356 32.612 6.9146 32.5107C7.01564 32.4095 7.15239 32.3522 7.29528 32.3512C7.43757 32.3541 7.57321 32.4119 7.67384 32.5128C7.77448 32.6136 7.83232 32.7496 7.83518 32.8922C7.8387 32.9535 7.8459 33.0147 7.85311 33.076V33.0796C7.85663 33.0977 7.85663 33.1121 7.86032 33.1266C7.86099 33.1412 7.86341 33.1557 7.86752 33.1698C7.88545 33.2961 7.91076 33.4187 7.93958 33.5413C7.99414 33.7709 8.06138 33.9973 8.14099 34.2194C8.15909 34.2626 8.17702 34.3095 8.19512 34.3528C8.1951 34.3567 8.19634 34.3605 8.19864 34.3636C8.21303 34.3925 8.24538 34.4646 8.24908 34.4754C8.26349 34.5042 8.27784 34.5331 8.29214 34.562C8.32465 34.6305 8.36069 34.699 8.39653 34.7675C8.50435 34.9607 8.62337 35.1474 8.75295 35.3266C8.76408 35.3472 8.77734 35.3665 8.7925 35.3843C8.86292 35.5085 8.88189 35.6555 8.84557 35.7936C8.80926 35.9318 8.72049 36.0503 8.59812 36.1236Z" fill="white"/>
<path d="M7.05039 36.6859C7.04119 36.8093 6.98893 36.9255 6.90276 37.0141C6.80964 37.1055 6.68692 37.1604 6.55688 37.169C6.42684 37.1776 6.29807 37.1393 6.19378 37.061C6.17488 37.0465 6.15687 37.0308 6.13983 37.0141C5.92014 36.7784 5.72476 36.521 5.55668 36.2459C5.2185 35.7092 4.98862 35.1113 4.88004 34.4859C4.83017 34.2171 4.80365 33.9443 4.80078 33.6709C4.80078 33.5274 4.8577 33.3898 4.95896 33.2884C5.06021 33.1869 5.1975 33.1299 5.34069 33.1299C5.48388 33.1299 5.62117 33.1869 5.72242 33.2884C5.82367 33.3898 5.88059 33.5274 5.88059 33.6709C5.88059 33.7935 5.88779 33.9197 5.89852 34.0424V34.0603C5.90158 34.077 5.90282 34.0939 5.90221 34.1109C5.90221 34.1109 5.90573 34.1289 5.90942 34.1577C5.92014 34.2227 5.93103 34.2876 5.94544 34.3525C5.99876 34.6068 6.07216 34.8564 6.16496 35.099V35.1027L6.17937 35.1315C6.18125 35.1348 6.18244 35.1385 6.18288 35.1423C6.19008 35.1603 6.19728 35.1784 6.2045 35.1928C6.23333 35.2505 6.26215 35.3082 6.29097 35.3659C6.34493 35.4705 6.40239 35.5751 6.46373 35.676C6.47093 35.687 6.47445 35.6941 6.48166 35.7049C6.51769 35.759 6.55372 35.8131 6.58975 35.8673C6.60828 35.8974 6.62871 35.9263 6.65091 35.9538L6.66163 35.9646C6.66163 35.9682 6.66532 35.9682 6.66532 35.9718C6.66883 35.9754 6.66883 35.9754 6.66883 35.979C6.74442 36.0728 6.82367 36.1593 6.90276 36.2495C6.9674 36.3171 7.01332 36.4004 7.03598 36.4912V36.4946C7.05692 36.5561 7.06187 36.622 7.05039 36.6859Z" fill="white"/>
<path d="M10.3549 34.5727C10.2529 34.6725 10.1159 34.7282 9.97339 34.7282C9.83083 34.7282 9.69391 34.6725 9.59184 34.5727C9.46328 34.4457 9.3584 34.2967 9.28216 34.1327C9.27235 34.1154 9.26395 34.0973 9.25703 34.0786C9.15824 33.8683 9.07757 33.6499 9.0159 33.4259C8.91337 33.0756 8.834 32.719 8.77828 32.3583C8.7471 32.2168 8.76618 32.0688 8.83224 31.9399C8.88573 31.8482 8.96491 31.7743 9.06001 31.7274C9.15512 31.6805 9.2619 31.6627 9.36705 31.6761C9.4722 31.6896 9.57114 31.7337 9.65141 31.8031C9.73169 31.8725 9.7898 31.964 9.81855 32.0662V32.0697C9.8728 32.4129 9.94733 32.7525 10.0418 33.0868C10.0706 33.1806 10.0994 33.2743 10.1317 33.3645C10.1461 33.4078 10.1641 33.4547 10.1785 33.5016C10.1785 33.5051 10.182 33.5051 10.182 33.5088C10.1857 33.5123 10.1857 33.516 10.1894 33.5233C10.1929 33.534 10.2001 33.5484 10.2038 33.5593C10.1993 33.5552 10.1956 33.5503 10.1929 33.5448C10.2001 33.5557 10.2038 33.5665 10.2108 33.5773C10.2324 33.6169 10.2506 33.6531 10.2757 33.6927C10.2827 33.709 10.2911 33.7247 10.3008 33.7396L10.3045 33.7432V33.7468L10.3152 33.7577C10.3152 33.7613 10.3152 33.7612 10.3189 33.7648C10.3189 33.7684 10.3224 33.7684 10.3224 33.772C10.3333 33.7827 10.344 33.7972 10.3549 33.808C10.4537 33.9107 10.5087 34.0478 10.5087 34.1904C10.5087 34.333 10.4536 34.47 10.3549 34.5727Z" fill="white"/>
<path d="M54.026 13.7052C53.8877 13.7409 53.7409 13.7213 53.6167 13.6507C53.4924 13.5801 53.4005 13.4639 53.3601 13.3266C53.2196 12.8505 53.0792 12.3708 52.892 11.9055V11.9019C52.8885 11.9019 52.8885 11.9019 52.8885 11.8983C52.8885 11.8947 52.8848 11.8947 52.8848 11.8911C52.8765 11.8837 52.8714 11.8734 52.8704 11.8623C52.8668 11.853 52.8644 11.8433 52.8632 11.8334C52.8381 11.7794 52.813 11.7288 52.7877 11.6748C52.7409 11.5738 52.6869 11.4764 52.633 11.3826C52.5753 11.2852 52.5177 11.1914 52.453 11.1013C52.4242 11.0544 52.3919 11.0147 52.3593 10.9714V10.9679C52.3414 10.9462 52.3233 10.9282 52.3054 10.9065C52.2075 10.8034 52.1528 10.6666 52.1528 10.5243C52.1528 10.382 52.2075 10.2451 52.3054 10.142C52.3553 10.0914 52.4148 10.0513 52.4803 10.0239C52.5458 9.9965 52.616 9.98242 52.6869 9.98242C52.7579 9.98242 52.8281 9.9965 52.8936 10.0239C52.9591 10.0513 53.0186 10.0914 53.0685 10.142C53.4186 10.5628 53.7003 11.0363 53.9035 11.5449C54.0955 12.0334 54.2612 12.5318 54.4002 13.038C54.4373 13.1761 54.419 13.3234 54.349 13.4481C54.2791 13.5728 54.1631 13.6651 54.026 13.7052Z" fill="white"/>
<path d="M56.3723 12.6664C56.4083 12.9658 56.0988 13.193 55.8324 13.2074C55.6905 13.2033 55.5556 13.145 55.4552 13.0444C55.3549 12.9439 55.2966 12.8086 55.2925 12.6664V12.6376C55.2895 12.6084 55.2847 12.5795 55.2781 12.551C55.2674 12.4825 55.2566 12.4176 55.2422 12.3526C55.2169 12.2156 55.1846 12.0821 55.1486 11.9487C55.081 11.6793 54.9968 11.4144 54.8967 11.1553C54.8823 11.112 54.8642 11.0651 54.8463 11.0218C54.8414 11.014 54.8378 11.0055 54.8356 10.9965C54.8305 10.9888 54.8268 10.9803 54.8247 10.9713C54.8211 10.9678 54.8174 10.9641 54.8174 10.9605L54.7742 10.8631C54.7238 10.755 54.6698 10.6467 54.6123 10.5457C54.5619 10.4592 54.5115 10.3798 54.4538 10.2969V10.2933L54.4503 10.2897C54.4468 10.2861 54.4431 10.2824 54.4431 10.2788C54.4426 10.2788 54.4421 10.2788 54.4417 10.2786C54.4413 10.2784 54.441 10.2781 54.4406 10.2778C54.4403 10.2774 54.4401 10.2771 54.4399 10.2766C54.4398 10.2762 54.4396 10.2757 54.4396 10.2752L54.418 10.2537C54.3922 10.222 54.3646 10.1918 54.3352 10.1635C54.2335 10.0621 54.1761 9.92446 54.1758 9.78074C54.1754 9.63702 54.2321 9.49906 54.3333 9.39719C54.4344 9.29531 54.5719 9.23791 54.7153 9.23755C54.8588 9.2372 54.9964 9.29388 55.0981 9.39525C55.4718 9.80802 55.7529 10.2962 55.9224 10.827C56.1511 11.4181 56.3023 12.0364 56.3723 12.6664Z" fill="white"/>
<path d="M51.9672 14.3254C51.8288 14.3623 51.6816 14.3433 51.557 14.2725C51.4325 14.2017 51.3406 14.0847 51.3013 13.9467C51.262 13.7717 51.2078 13.6003 51.1392 13.4346C51.0962 13.3193 51.0493 13.2002 51.0025 13.0848C50.9953 13.0667 50.9881 13.0488 50.9774 13.0271C50.9747 13.0183 50.9711 13.0099 50.9667 13.0018C50.9654 12.9926 50.9616 12.9839 50.9558 12.9766C50.9378 12.9333 50.9162 12.8864 50.8981 12.8432C50.735 12.4338 50.5325 12.0412 50.2935 11.671C50.2573 11.6097 50.2335 11.5418 50.2236 11.4713C50.2136 11.4007 50.2177 11.3288 50.2355 11.2598C50.2533 11.1909 50.2844 11.1261 50.3273 11.0692C50.3701 11.0123 50.4238 10.9645 50.4851 10.9284C50.5464 10.8924 50.6143 10.8687 50.6847 10.8589C50.7552 10.8492 50.8269 10.8536 50.8956 10.8716C50.9644 10.8897 51.029 10.9211 51.0856 10.9643C51.1423 11.0074 51.1899 11.0613 51.2257 11.1228C51.4709 11.5031 51.6782 11.9066 51.8447 12.3275C52.0544 12.7537 52.222 13.1994 52.3451 13.6583C52.3799 13.7968 52.3601 13.9435 52.2897 14.0678C52.2193 14.1921 52.1038 14.2843 51.9672 14.3254Z" fill="white"/>
<path fill-rule="evenodd" clip-rule="evenodd" d="M28.2144 67.6881C30.2411 66.4475 31.7627 64.5267 32.5085 62.2674C32.9751 60.8718 33.1308 59.3907 32.9648 57.9283C32.7987 56.4659 32.315 55.0578 31.5475 53.8029L21.9192 38.0421C21.0105 36.5706 19.7423 35.3555 18.2346 34.5117C16.7268 33.668 15.0293 33.2235 13.3023 33.2202C13.151 33.2202 13.0035 33.2238 12.8524 33.231C12.5608 33.2418 12.2692 33.2707 11.9777 33.3104C11.8829 33.3226 11.7908 33.3375 11.6968 33.3527C11.6801 33.3554 11.6634 33.3581 11.6465 33.3608C11.5745 33.3717 11.5061 33.3825 11.4342 33.3969C11.3117 33.4186 11.1894 33.4438 11.0706 33.4727C11.0378 33.4794 11.0053 33.4878 10.9734 33.4979C10.8332 33.5267 10.6963 33.5664 10.5595 33.6061C10.4659 33.6313 10.3688 33.6602 10.2752 33.6926L10.2687 33.6944C10.2313 33.7047 10.1937 33.7151 10.1563 33.7287C10.1333 33.7368 10.1102 33.7449 10.087 33.753C9.97616 33.7919 9.86399 33.8312 9.75687 33.8729C9.58762 33.9343 9.41855 34.0028 9.25651 34.0785C9.15579 34.1182 9.0586 34.1651 8.96142 34.212C8.76704 34.3022 8.57618 34.4032 8.38917 34.5078L8.29181 34.5618C8.26869 34.5755 8.24588 34.5889 8.22328 34.6022C8.16855 34.6343 8.11507 34.6657 8.06157 34.6989L7.83117 34.8396L7.78442 34.8684L7.37052 35.1209L6.46347 35.6762L6.39511 35.7195L6.00634 35.9611L5.88033 36.0369C5.78666 36.0946 5.69316 36.1523 5.59966 36.2172C5.59236 36.2227 5.58506 36.2273 5.57776 36.2318C5.57065 36.2363 5.56353 36.2407 5.55642 36.2461C5.04829 36.5808 4.5734 36.9636 4.13829 37.3893C4.11616 37.4067 4.09563 37.426 4.07695 37.4471C3.31214 38.1987 2.67397 39.0695 2.18728 40.0257C1.39438 41.5675 1.01103 43.2878 1.07407 45.0211C1.13711 46.7544 1.64442 48.4423 2.54722 49.9221L12.1756 65.6865C13.085 67.157 14.3533 68.3712 15.861 69.2142C17.3687 70.0573 19.066 70.5014 20.7926 70.5048C22.642 70.5048 24.4555 69.9931 26.0332 69.0261L28.2144 67.6881ZM7.38357 38.4977L9.56247 37.1613C12.9535 35.0814 17.3853 36.1497 19.461 39.5475L29.0908 55.3102C31.1665 58.708 30.1002 63.1486 26.7092 65.2285L24.5303 66.565C21.1393 68.6449 16.7075 67.5765 14.6317 64.1788L5.00201 48.416C2.92625 45.0182 3.99256 40.5776 7.38357 38.4977Z" fill="white"/>
<path d="M20.1012 10.6398C20.1018 10.6604 20.1006 10.6809 20.0975 10.7012V10.7048C20.0941 10.7255 20.0893 10.746 20.0831 10.7661C20.0724 10.8022 20.058 10.8346 20.0436 10.8707C20.0255 10.8996 20.0076 10.932 19.9859 10.9609C19.986 10.9613 19.9859 10.9618 19.9858 10.9622C19.9856 10.9626 19.9852 10.9631 19.9849 10.9634C19.9846 10.9638 19.9843 10.964 19.9838 10.9642C19.9834 10.9644 19.9829 10.9645 19.9824 10.9645C19.8827 11.0822 19.7618 11.1801 19.626 11.253C19.4676 11.3432 19.2949 11.4117 19.1545 11.4802C19.1358 11.4884 19.1177 11.4981 19.1005 11.5091C17.9595 12.068 16.786 12.5441 15.6236 13.0491C15.5983 13.0598 15.5767 13.0707 15.5516 13.0815C15.4612 13.1067 15.3682 13.1213 15.2744 13.1248C15.2805 13.0642 15.2901 13.004 15.3032 12.9445C15.3398 12.7031 15.3927 12.4645 15.4616 12.2304C15.695 11.4169 16.077 10.6538 16.5882 9.9799C16.6852 9.84787 16.791 9.72254 16.9049 9.6048C16.9113 9.60199 16.9165 9.59682 16.9193 9.59036C17.0171 9.48847 17.1345 9.40752 17.2644 9.35236C17.3944 9.2972 17.5341 9.26897 17.6752 9.26941C17.7427 9.27022 17.8101 9.27622 17.8768 9.28738H17.8912C18.3768 9.39075 18.8448 9.56451 19.2805 9.80318C19.4934 9.89667 19.6931 10.0179 19.8743 10.1638L19.8852 10.1746C19.8996 10.1926 19.9176 10.2071 19.932 10.2251C19.9567 10.2499 19.9795 10.2764 20.0003 10.3045C20.0048 10.3086 20.0085 10.3135 20.0112 10.3189C20.0291 10.3433 20.0436 10.37 20.0543 10.3982C20.0683 10.4258 20.0792 10.4548 20.0868 10.4848C20.0941 10.5155 20.0977 10.547 20.0975 10.5786C20.1006 10.5988 20.1018 10.6193 20.1012 10.6398Z" fill="black"/>
<path d="M32.7134 25.1814C32.6851 25.2097 32.6587 25.2398 32.6343 25.2716C32.6595 25.2428 32.6883 25.2103 32.7171 25.1814H32.7134ZM26.9941 28.705C27.0239 28.7001 27.0541 28.6989 27.0841 28.7014C27.1906 28.7239 27.2889 28.7751 27.3685 28.8493C27.2917 28.7724 27.194 28.7197 27.0876 28.6978C27.0563 28.6944 27.0246 28.6968 26.9941 28.705Z" fill="black"/>
<path d="M38.444 27.2228C38.4235 27.4922 38.3342 27.7518 38.1847 27.9766C38.0844 28.1357 37.9699 28.2854 37.8427 28.4238C37.662 28.6218 37.4658 28.8052 37.2561 28.972C35.9279 30.0287 34.7653 29.6573 33.5595 29.0117C33.4409 28.9432 33.3184 28.8783 33.1996 28.8098H33.1961C33.0773 28.7377 32.9549 28.6692 32.8324 28.6006H32.8289C32.7713 28.5608 32.7101 28.5284 32.6489 28.4923C32.649 28.4928 32.6489 28.4933 32.6488 28.4938C32.6486 28.4942 32.6482 28.4946 32.6479 28.4949C32.6476 28.4952 32.6473 28.4955 32.6468 28.4957C32.6464 28.4959 32.6459 28.496 32.6454 28.496C32.3214 28.9252 32.0551 29.3832 31.6987 29.7763C31.6663 29.8088 31.6338 29.8448 31.598 29.8809C31.2676 30.2295 30.848 30.4803 30.3849 30.6058C30.2084 30.6553 30.0277 30.6879 29.845 30.7032C29.67 30.714 29.4945 30.714 29.3195 30.7032C29.2331 30.696 29.1503 30.6888 29.064 30.6779C29.0063 30.6707 28.9524 30.6635 28.8947 30.6528C28.1532 30.5265 27.3038 30.238 26.9476 29.5166C26.8504 29.3147 26.6991 28.835 26.9332 28.7231C26.9514 28.7112 26.9726 28.705 26.9944 28.7052C27.0241 28.7003 27.0543 28.6991 27.0843 28.7016C27.1908 28.7241 27.2891 28.7752 27.3687 28.8495C27.5813 29.0605 27.8099 29.2546 28.0525 29.4301C29.1791 29.9639 30.3345 29.358 30.9609 28.4058C31.0375 28.288 31.106 28.1651 31.166 28.038C31.228 27.9126 31.2798 27.7823 31.3208 27.6485C31.3543 27.5418 31.3819 27.4335 31.4036 27.3238C31.4287 27.2121 31.4468 27.0967 31.4612 26.9812C31.5103 26.6503 31.4469 26.3124 31.2813 26.0219C31.2605 25.9903 31.2376 25.9602 31.2127 25.9317C31.1889 25.9005 31.1611 25.8727 31.1299 25.8488C31.0738 25.79 31.0081 25.7412 30.9357 25.7045C30.7873 25.6261 30.6303 25.5656 30.4677 25.5241C30.1197 25.4685 29.7942 25.316 29.5283 25.0842C29.4866 25.0372 29.4492 24.9865 29.4167 24.9327C29.3817 24.8715 29.3516 24.8076 29.3267 24.7415C29.2564 24.5705 29.2328 24.3838 29.2584 24.2006C29.2639 24.1491 29.2747 24.0983 29.2907 24.0491C29.3122 23.991 29.3374 23.9344 29.3663 23.8795L29.37 23.876C29.3929 23.8321 29.4207 23.791 29.4527 23.7534C29.4805 23.7155 29.5106 23.6794 29.5427 23.6451C30.284 22.8734 32.235 22.693 33.2177 23.1439C33.3025 23.1827 33.3832 23.2298 33.4588 23.2845C33.5676 23.3505 33.6568 23.4445 33.717 23.5568C33.7771 23.6691 33.806 23.7955 33.8008 23.9229C33.7976 23.9703 33.7904 24.0174 33.7792 24.0636C33.7741 24.0905 33.7669 24.117 33.7576 24.1428C33.6459 24.4052 33.4577 24.6277 33.2177 24.7812C33.0989 24.8678 32.9801 24.9508 32.8722 25.0444C32.8181 25.0873 32.7664 25.133 32.7173 25.1815H32.7136C32.6853 25.2098 32.6589 25.24 32.6345 25.2717C32.5977 25.315 32.564 25.3608 32.5337 25.4088C32.5062 25.4513 32.4822 25.4959 32.4618 25.5422C32.2314 26.0651 32.541 26.6097 32.9801 27.0462C33.0556 27.1182 33.1312 27.1904 33.214 27.2589C33.2933 27.3274 33.3723 27.3887 33.4553 27.4501C33.5776 27.5403 33.6964 27.6196 33.8078 27.6881C34.3416 28.0209 34.9657 28.1785 35.5931 28.1389C36.493 28.0848 36.8638 27.6123 37.4758 27.0462C37.7457 26.7973 38.1127 26.6242 38.3071 26.7757C38.3261 26.7875 38.3422 26.8035 38.354 26.8225C38.4305 26.941 38.4624 27.0829 38.444 27.2228Z" fill="black"/>
<path d="M44.1164 7.84465C44.06 7.89024 43.9932 7.92121 43.922 7.93482C43.8055 7.95686 43.6877 7.97133 43.5693 7.97814C43.5225 7.98175 43.4758 7.98897 43.429 7.99258C42.9791 8.03942 42.5255 8.08274 42.0719 8.1044C42.0692 8.10616 42.0661 8.10705 42.0629 8.10705C42.0597 8.10705 42.0566 8.10616 42.0539 8.1044H42.0504C42.05 8.10488 42.0495 8.10529 42.0488 8.10555C42.0482 8.10581 42.0476 8.1059 42.0469 8.1059C42.0462 8.1059 42.0454 8.10581 42.0448 8.10555C42.0442 8.10529 42.0437 8.10488 42.0432 8.1044C41.9172 8.11162 41.7912 8.11876 41.6617 8.12598H41.6293C40.9012 8.15562 40.1719 8.11455 39.4516 8.00332C39.4315 7.99835 39.411 7.99476 39.3904 7.99258C39.0995 7.95789 38.8169 7.87243 38.5554 7.74005C38.541 7.73284 38.5301 7.7257 38.5157 7.71848C38.4887 7.7046 38.4633 7.68765 38.4402 7.66794C38.3199 7.57966 38.2366 7.44989 38.2062 7.30367C38.2003 7.27282 38.1978 7.24138 38.199 7.20998C38.1986 7.19426 38.1998 7.17853 38.2025 7.16305C38.2314 6.76268 38.6598 6.30464 38.9045 6.05581C39.1095 5.84153 39.3405 5.65376 39.592 5.49686C39.6136 5.48244 39.6388 5.46798 39.6604 5.45354C39.9254 5.27935 40.2271 5.16883 40.5418 5.13066C40.8565 5.09249 41.1756 5.12771 41.4745 5.2335C41.5284 5.25517 41.5861 5.27683 41.64 5.3021C42.3688 5.62899 43.0257 6.09721 43.573 6.67974C43.7888 6.90932 43.9851 7.15663 44.1596 7.4191C44.1998 7.48504 44.2173 7.56231 44.2095 7.63914C44.2017 7.71598 44.169 7.78818 44.1164 7.84465Z" fill="black"/>
<path d="M25.9791 21.9573C25.9673 21.9926 25.9516 22.0265 25.9324 22.0583C25.8552 22.1881 25.7338 22.2854 25.5906 22.3324C25.5508 22.347 25.5098 22.3579 25.4681 22.3648C25.4248 22.3721 25.3781 22.3793 25.3313 22.3829C25.2846 22.3865 25.2378 22.3901 25.1909 22.3901C24.3631 22.3901 23.4849 21.8058 22.7578 21.5318C22.6713 21.4993 22.5813 21.4704 22.4914 21.4416C22.3727 21.4055 22.2539 21.3766 22.1314 21.3478C22.0595 21.3334 21.9875 21.319 21.9154 21.3081C21.5743 21.2507 21.2281 21.2289 20.8825 21.2433C20.8297 21.2408 20.7768 21.2421 20.7242 21.2469C20.6126 21.2541 20.4975 21.2613 20.3857 21.2757C20.375 21.2757 20.3678 21.2793 20.357 21.2793C20.0187 21.3154 19.5867 21.5281 19.2591 21.4813C18.8957 21.4272 18.9136 21.1674 19.1045 20.9943C19.1389 20.9615 19.1776 20.9335 19.2196 20.9113C19.2412 20.9006 19.2663 20.8898 19.2879 20.879C20.954 20.1519 22.8251 20.0483 24.561 20.5868C25.0062 20.6895 25.4215 20.8945 25.774 21.1856C25.8103 21.2206 25.8428 21.2593 25.8712 21.3009C25.9031 21.3407 25.9297 21.3843 25.9505 21.4308C25.954 21.4416 25.9612 21.4561 25.9647 21.4704C25.9707 21.4832 25.9755 21.4965 25.9791 21.5101C26.0315 21.6546 26.0315 21.8129 25.9791 21.9573Z" fill="black"/>
<path d="M43.8031 18.3581C43.8028 18.3917 43.7954 18.4249 43.7813 18.4555C43.7644 18.4937 43.74 18.528 43.7094 18.5565C43.5511 18.7115 43.2451 18.578 43.0579 18.5637C41.8414 18.4374 40.7579 18.9531 39.8185 19.6636C39.6961 19.7538 39.5773 19.8476 39.462 19.9449C39.3865 20.0063 39.3074 20.0748 39.2246 20.1469C39.1851 20.1829 39.1418 20.219 39.0986 20.2514C39.0518 20.2875 39.0086 20.32 38.9619 20.3524C38.8367 20.4721 38.6754 20.5467 38.5033 20.5643C38.3312 20.5819 38.1583 20.5417 38.0116 20.4498C37.5797 20.1468 37.72 19.5554 38.0441 19.2127C38.0676 19.1836 38.0941 19.157 38.1232 19.1334C38.2578 19.0201 38.3983 18.9142 38.5443 18.816C38.7594 18.6676 38.9843 18.5338 39.2174 18.4158C39.3506 18.3509 39.4838 18.2895 39.6206 18.2354C40.3719 17.9309 41.1687 17.7542 41.9781 17.7125C42.4892 17.6764 43.1011 17.6259 43.5331 17.9577C43.5668 17.9824 43.5981 18.0102 43.6266 18.0407C43.6431 18.0554 43.6587 18.0711 43.6734 18.0876C43.7186 18.1314 43.7541 18.1842 43.7778 18.2426C43.7947 18.2788 43.8033 18.3182 43.8031 18.3581Z" fill="black"/>
<path d="M52.6287 22.902C52.5894 22.9242 52.5485 22.9435 52.5064 22.9598C52.3774 23.0075 52.2407 23.0308 52.1032 23.0283C51.9215 23.0232 51.7406 23.0003 51.5633 22.9598C51.3834 22.9201 51.2034 22.8768 51.0415 22.8552C50.8976 22.8335 50.7535 22.8155 50.606 22.8046C50.4372 22.7909 50.2678 22.786 50.0985 22.7902C50.0144 22.7872 49.9302 22.7897 49.8464 22.7974C49.7601 22.8011 49.6774 22.8083 49.5909 22.8191C49.5704 22.8186 49.55 22.8198 49.5297 22.8227C49.4397 22.8299 49.3462 22.8444 49.2526 22.8588C49.1591 22.8732 49.0691 22.8876 48.9791 22.9056C48.9142 22.9201 48.8531 22.9345 48.7882 22.949C48.6875 22.9742 48.5866 23.003 48.4824 23.0319C48.1383 23.1521 47.7726 23.1975 47.4096 23.1653C47.2369 23.1317 47.0807 23.0401 46.9669 22.9056C46.9384 22.8702 46.9142 22.8315 46.895 22.7902C46.8879 22.7713 46.8819 22.7521 46.8769 22.7325C46.8629 22.6745 46.8693 22.6133 46.895 22.5594C46.92 22.5226 46.9503 22.4898 46.985 22.462C47.0483 22.4224 47.1176 22.3932 47.1901 22.3755C48.5687 22.0148 49.9222 21.5784 51.3619 21.5821C51.4734 21.5821 51.5886 21.5821 51.711 21.5857C51.7227 21.582 51.7353 21.582 51.747 21.5857C51.7901 21.5857 51.8333 21.5857 51.8765 21.5893C52.0062 21.5922 52.1352 21.6079 52.2618 21.6362C52.4378 21.6625 52.6046 21.7318 52.7475 21.8381C52.7592 21.8467 52.7701 21.8563 52.7799 21.867C52.79 21.8735 52.7987 21.8821 52.8052 21.8923C52.8755 21.9636 52.9279 22.0509 52.9577 22.1466C52.9876 22.2424 52.9942 22.3439 52.9769 22.4428C52.9596 22.5416 52.919 22.6348 52.8584 22.7147C52.7979 22.7946 52.7191 22.8588 52.6287 22.902Z" fill="black"/>
<path d="M53.3668 25.3473C53.3356 25.3757 53.3018 25.4011 53.2659 25.4231C53.2098 25.4587 53.1493 25.4865 53.0859 25.5061C53.0429 25.5204 52.9996 25.5313 52.9564 25.5421C52.8433 25.5606 52.7282 25.5631 52.6144 25.5493C52.5318 25.5385 52.4525 25.5204 52.3697 25.5061C52.2077 25.47 52.0493 25.4303 51.8875 25.387C51.4843 25.2788 51.0846 25.1526 50.6744 25.0804C49.9595 24.9424 49.2285 24.9083 48.5039 24.9794C48.4825 24.983 48.4571 24.9831 48.432 24.9867C48.413 24.9898 48.3937 24.991 48.3744 24.9903C48.2449 24.9993 48.115 24.9993 47.9856 24.9903C47.925 24.9833 47.8649 24.9725 47.8056 24.9579C47.7768 24.947 47.7445 24.9362 47.7193 24.9254C47.6797 24.9073 47.6432 24.883 47.6113 24.8533C47.598 24.836 47.586 24.818 47.5752 24.7991C47.571 24.791 47.5675 24.7825 47.5645 24.7738C47.5548 24.7547 47.5487 24.7339 47.5466 24.7126V24.7018C47.5437 24.6631 47.55 24.6243 47.565 24.5886C47.58 24.5528 47.6033 24.5212 47.6329 24.4962C47.6757 24.4541 47.7257 24.4199 47.7805 24.3952C47.8536 24.3593 47.9294 24.3291 48.0072 24.3051C48.1151 24.2726 48.2195 24.251 48.2881 24.2366C49.4893 23.9461 50.7364 23.8995 51.9558 24.0995C52.0638 24.1175 52.1933 24.1392 52.3374 24.1716C52.4058 24.186 52.4776 24.2005 52.5497 24.2221C52.5893 24.2293 52.6253 24.2401 52.6648 24.251C52.808 24.2921 52.9467 24.3477 53.0787 24.4169C53.1415 24.4489 53.2006 24.4876 53.2552 24.5322C53.3317 24.5922 53.3954 24.667 53.4424 24.7523C53.4531 24.7775 53.464 24.8027 53.4712 24.8244C53.5118 24.9113 53.5237 25.009 53.5049 25.1031C53.4861 25.1972 53.4377 25.2828 53.3668 25.3473Z" fill="black"/>
<path d="M17.0636 26.4078L17.0599 26.4113C17.0455 26.4626 17.0137 26.5073 16.9699 26.5376C16.7193 26.6397 16.447 26.6769 16.1782 26.6458C15.9406 26.6494 15.7029 26.6494 15.4653 26.6566C15.2386 26.6603 15.0084 26.6674 14.7815 26.689C14.6196 26.6999 14.4576 26.7179 14.2955 26.7396C13.7078 26.8562 13.1319 27.0264 12.5751 27.2481C12.2835 27.3419 11.848 27.4428 11.6572 27.1182C11.4846 26.8298 11.6681 26.5629 11.9092 26.3681C11.9308 26.3537 11.9524 26.3356 11.974 26.3212C12.0702 26.2526 12.1712 26.1911 12.2763 26.1373C13.3454 25.5891 14.508 25.5963 15.6597 25.737C15.7894 25.7514 15.9225 25.7694 16.0522 25.7874C16.0629 25.791 16.0738 25.791 16.0882 25.7946C16.1133 25.7982 16.1457 25.8019 16.1782 25.8091C16.2789 25.823 16.3787 25.8434 16.4768 25.8704C16.5072 25.8771 16.5373 25.8855 16.5668 25.8956C16.679 25.9242 16.7859 25.9705 16.8836 26.0327H16.8872C16.9146 26.0502 16.9399 26.0708 16.9627 26.094C16.9843 26.112 17.0023 26.1336 17.0239 26.1553V26.1589C17.0408 26.1801 17.0531 26.2047 17.0599 26.231C17.0811 26.2878 17.0824 26.3502 17.0636 26.4078Z" fill="black"/>
<path d="M17.0527 27.7312C17.0451 27.7572 17.0329 27.7816 17.0167 27.8033C16.979 27.8597 16.93 27.9076 16.8727 27.9439C16.7439 28.0282 16.5995 28.0858 16.4481 28.1135C16.2464 28.1531 16.0305 28.1639 15.8253 28.1856C15.8132 28.1848 15.8011 28.186 15.7894 28.1892C15.7205 28.1948 15.6519 28.2044 15.5841 28.2181C15.5415 28.2226 15.4994 28.231 15.4583 28.2433C15.3862 28.2613 15.3107 28.283 15.2386 28.3082C14.7431 28.4737 14.2617 28.6787 13.7989 28.9213C13.4282 29.1053 12.9818 29.4479 12.55 29.4371C12.2368 29.4262 11.8659 29.1197 12.0101 28.824C12.0245 28.7987 12.0389 28.777 12.0531 28.7554C12.073 28.732 12.0947 28.7103 12.118 28.6905C12.2189 28.5967 12.3268 28.5101 12.4347 28.4272C12.5428 28.3479 12.6544 28.2721 12.7695 28.1999C12.827 28.1639 12.8883 28.1279 12.9495 28.0954C13.0646 28.0268 13.1834 27.9655 13.3057 27.9079C13.3669 27.879 13.4317 27.8502 13.4966 27.8249C13.6226 27.7708 13.7486 27.7239 13.8781 27.6771C14.0041 27.6302 14.1337 27.5905 14.2667 27.5508C14.3964 27.5147 14.5296 27.4786 14.6592 27.4498C14.7384 27.4318 14.8175 27.4137 14.8966 27.3994C14.9507 27.3885 15.0047 27.3776 15.0586 27.3669C15.091 27.3597 15.127 27.3561 15.163 27.3488C15.2639 27.3308 15.3718 27.3092 15.4834 27.2912C15.559 27.2767 15.6383 27.2659 15.7138 27.2551C15.9064 27.2228 16.1019 27.2119 16.2968 27.2226C16.3819 27.2255 16.4664 27.2376 16.5488 27.2587C16.5905 27.2657 16.6315 27.2765 16.6712 27.2912C16.7125 27.3035 16.7523 27.3205 16.79 27.3416C16.8274 27.3571 16.8625 27.3778 16.8944 27.4029C16.9151 27.4166 16.9344 27.4323 16.952 27.4498C16.9957 27.4806 17.0289 27.5242 17.0469 27.5745C17.0649 27.6249 17.0669 27.6796 17.0527 27.7312Z" fill="black"/>
<path d="M52.0418 27.2406C52.0339 27.2835 52.0193 27.3249 51.9986 27.3632C51.991 27.387 51.9788 27.409 51.9628 27.4281C51.9484 27.4462 51.9302 27.4678 51.9123 27.4895C51.8466 27.5617 51.7715 27.6248 51.6891 27.677C51.3543 27.8898 50.9585 27.6482 50.6597 27.4678C50.6058 27.4353 50.5518 27.4029 50.5014 27.3741C50.4005 27.3127 50.2961 27.255 50.1954 27.201H50.1919C50.091 27.1432 49.9866 27.0927 49.8822 27.0459C49.7194 26.9704 49.5509 26.9077 49.3783 26.8583C49.2776 26.8295 47.9997 26.4905 47.6938 26.2055C47.6363 26.1514 47.6147 26.1046 47.6326 26.0576C47.6373 26.0395 47.6474 26.0231 47.6614 26.0108C47.696 25.983 47.7349 25.961 47.7765 25.9458C48.5936 25.6357 49.6734 25.8953 50.5086 26.0684C50.5589 26.0793 50.62 26.0973 50.6921 26.119C50.7713 26.1443 50.8541 26.1803 50.9476 26.2163C50.98 26.2272 51.0088 26.2416 51.0413 26.256H51.0448C51.1276 26.2921 51.214 26.3353 51.3004 26.3823C51.3436 26.4038 51.3868 26.4291 51.4299 26.4544C51.5112 26.5022 51.5894 26.5552 51.664 26.613C51.9086 26.797 52.0779 27.017 52.0418 27.2406Z" fill="black"/>
<path d="M16.8904 29.7977C16.8483 29.8364 16.8039 29.8726 16.7574 29.9059C16.7393 29.9167 16.7214 29.9275 16.7069 29.9383C16.6709 29.9564 16.6349 29.978 16.599 29.9961C16.563 30.0141 16.527 30.0285 16.4946 30.0465C16.4405 30.0682 16.3938 30.0899 16.3505 30.1078C16.0231 30.2449 15.7099 30.3891 15.4039 30.5514C15.2023 30.656 15.0081 30.7678 14.8138 30.8905C14.5181 31.077 14.2344 31.2818 13.9642 31.5036C13.7266 31.702 13.3954 31.9797 13.0643 31.803C13.0245 31.7837 12.9881 31.7581 12.9564 31.7272C12.9167 31.6908 12.8848 31.6466 12.8627 31.5974C12.8592 31.5829 12.852 31.5649 12.8485 31.5504C12.8431 31.5341 12.8395 31.5171 12.8376 31.5C12.8302 31.3323 12.8825 31.1674 12.9852 31.0347C13.0183 30.9868 13.0543 30.9411 13.0932 30.8977C13.1129 30.8743 13.1346 30.8526 13.158 30.8328C13.2947 30.7066 13.4352 30.5875 13.5826 30.4757C13.7397 30.3518 13.9031 30.2362 14.0723 30.1295C14.5032 29.8564 14.9647 29.6349 15.4472 29.4695C15.5695 29.4262 15.692 29.3902 15.818 29.3541C15.8971 29.3324 16.0122 29.2964 16.1419 29.2676L16.2391 29.2459C16.3038 29.2351 16.3721 29.2242 16.4405 29.217C16.6637 29.199 16.876 29.2351 16.9625 29.4262C16.9923 29.4876 17.0013 29.557 16.9883 29.624C16.9753 29.691 16.941 29.752 16.8904 29.7977Z" fill="black"/>
<path d="M8.63376 36.4088C8.55045 36.4629 8.45247 36.4899 8.35326 36.486C8.25405 36.4821 8.15847 36.4476 8.07962 36.3871C8.00778 36.3434 7.94535 36.2858 7.89596 36.2176C7.70584 35.9644 7.54184 35.6926 7.40649 35.4062C7.0609 34.7095 6.85197 33.9529 6.79102 33.1773C6.79199 33.0342 6.8492 32.8971 6.95025 32.7959C7.05129 32.6947 7.18803 32.6373 7.33092 32.6364C7.47322 32.6392 7.60885 32.6971 7.70949 32.7979C7.81013 32.8988 7.86797 33.0348 7.87083 33.1773C7.87434 33.2386 7.88155 33.2999 7.88875 33.3612V33.3648C7.89227 33.3828 7.89228 33.3973 7.89596 33.4117C7.89663 33.4264 7.89906 33.4409 7.90317 33.455C7.92109 33.5812 7.9464 33.7039 7.97522 33.8264C8.02978 34.056 8.09702 34.2824 8.17663 34.5045C8.19474 34.5478 8.21266 34.5947 8.23077 34.6379C8.23075 34.6418 8.23198 34.6456 8.23428 34.6488C8.24868 34.6776 8.28103 34.7497 8.28472 34.7606C8.29913 34.7894 8.31349 34.8182 8.32778 34.8471C8.36029 34.9156 8.39634 34.9841 8.43218 35.0526C8.54 35.2458 8.65901 35.4325 8.7886 35.6118C8.79973 35.6323 8.81298 35.6517 8.82814 35.6694C8.89857 35.7937 8.91754 35.9406 8.88122 36.0788C8.8449 36.217 8.75613 36.3354 8.63376 36.4088Z" fill="black"/>
<path d="M7.08603 36.9714C7.07684 37.0948 7.02457 37.211 6.9384 37.2997C6.84528 37.391 6.72256 37.446 6.59253 37.4545C6.46249 37.4631 6.33371 37.4248 6.22943 37.3465C6.21053 37.332 6.19251 37.3163 6.17547 37.2997C5.95578 37.0639 5.76041 36.8065 5.59233 36.5314C5.25415 35.9947 5.02426 35.3968 4.91569 34.7715C4.86582 34.5026 4.83929 34.2299 4.83643 33.9564C4.83643 33.8129 4.89335 33.6754 4.9946 33.5739C5.09585 33.4724 5.23314 33.4154 5.37633 33.4154C5.51952 33.4154 5.65681 33.4724 5.75806 33.5739C5.85931 33.6754 5.91624 33.8129 5.91624 33.9564C5.91624 34.079 5.92344 34.2052 5.93416 34.3279V34.3458C5.93723 34.3625 5.93846 34.3794 5.93785 34.3964C5.93785 34.3964 5.94137 34.4144 5.94506 34.4432C5.95578 34.5082 5.96668 34.5731 5.98109 34.638C6.0344 34.8923 6.10781 35.1419 6.2006 35.3846V35.3882L6.21501 35.4171C6.21689 35.4204 6.21809 35.424 6.21853 35.4278C6.22573 35.4458 6.23293 35.4639 6.24015 35.4783C6.26897 35.536 6.29779 35.5937 6.32662 35.6514C6.38057 35.756 6.43803 35.8607 6.49938 35.9616C6.50658 35.9725 6.5101 35.9796 6.5173 35.9904C6.55333 36.0445 6.58936 36.0986 6.62539 36.1528C6.64393 36.1829 6.66435 36.2118 6.68655 36.2393L6.69727 36.2501C6.69727 36.2537 6.70096 36.2537 6.70096 36.2573C6.70448 36.2609 6.70448 36.2609 6.70448 36.2645C6.78007 36.3583 6.85932 36.4449 6.9384 36.535C7.00305 36.6026 7.04897 36.6859 7.07162 36.7767V36.7802C7.09257 36.8416 7.09752 36.9075 7.08603 36.9714Z" fill="black"/>
<path d="M10.3906 34.8579C10.2885 34.9576 10.1516 35.0134 10.009 35.0134C9.86648 35.0134 9.72956 34.9576 9.62748 34.8579C9.49892 34.7309 9.39405 34.5819 9.31781 34.4179C9.308 34.4006 9.29959 34.3825 9.29267 34.3638C9.19388 34.1535 9.11321 33.9351 9.05154 33.711C8.94902 33.3608 8.86964 33.0041 8.81393 32.6434C8.78274 32.5019 8.80182 32.354 8.86788 32.2251C8.92137 32.1334 9.00055 32.0594 9.09566 32.0125C9.19076 31.9656 9.29755 31.9478 9.40269 31.9613C9.50784 31.9747 9.60678 32.0189 9.68706 32.0882C9.76734 32.1576 9.82544 32.2491 9.8542 32.3513V32.3549C9.90845 32.698 9.98298 33.0376 10.0774 33.3719C10.1062 33.4657 10.135 33.5595 10.1674 33.6497C10.1818 33.693 10.1997 33.7398 10.2141 33.7868C10.2141 33.7903 10.2177 33.7903 10.2177 33.794C10.2213 33.7975 10.2213 33.8012 10.225 33.8084C10.2285 33.8192 10.2358 33.8336 10.2394 33.8444C10.2349 33.8404 10.2312 33.8355 10.2285 33.83C10.2357 33.8408 10.2394 33.8516 10.2465 33.8625C10.2681 33.9021 10.2862 33.9382 10.3113 33.9778C10.3183 33.9942 10.3267 34.0099 10.3365 34.0248L10.3401 34.0284V34.032L10.3509 34.0428C10.3509 34.0464 10.3509 34.0463 10.3546 34.0499C10.3546 34.0535 10.3581 34.0536 10.3581 34.0572C10.369 34.0679 10.3797 34.0823 10.3906 34.0932C10.4893 34.1959 10.5444 34.333 10.5444 34.4756C10.5444 34.6182 10.4893 34.7552 10.3906 34.8579Z" fill="black"/>
<path d="M54.0616 13.9904C53.9233 14.026 53.7766 14.0065 53.6523 13.9359C53.5281 13.8652 53.4361 13.749 53.3957 13.6117C53.2553 13.1357 53.1149 12.656 52.9277 12.1907V12.1871C52.9242 12.1871 52.9242 12.1871 52.9242 12.1835C52.9242 12.1799 52.9205 12.1799 52.9205 12.1763C52.9122 12.1689 52.907 12.1586 52.9061 12.1475C52.9024 12.1382 52.9 12.1285 52.8989 12.1186C52.8737 12.0645 52.8486 12.014 52.8233 11.9599C52.7765 11.8589 52.7226 11.7616 52.6686 11.6678C52.611 11.5704 52.5533 11.4766 52.4887 11.3864C52.4598 11.3395 52.4275 11.2999 52.395 11.2566V11.253C52.3771 11.2314 52.359 11.2133 52.341 11.1917C52.2431 11.0886 52.1885 10.9518 52.1885 10.8094C52.1885 10.6671 52.2431 10.5302 52.341 10.4271C52.3909 10.3766 52.4504 10.3364 52.5159 10.3091C52.5814 10.2817 52.6516 10.2676 52.7226 10.2676C52.7936 10.2676 52.8638 10.2817 52.9293 10.3091C52.9948 10.3364 53.0542 10.3766 53.1041 10.4271C53.4542 10.848 53.736 11.3214 53.9391 11.83C54.1311 12.3185 54.2969 12.8169 54.4358 13.3231C54.4729 13.4613 54.4546 13.6085 54.3847 13.7333C54.3147 13.858 54.1987 13.9503 54.0616 13.9904Z" fill="black"/>
<path d="M56.408 12.9516C56.444 13.251 56.1345 13.4782 55.8681 13.4926C55.7262 13.4885 55.5913 13.4302 55.4909 13.3296C55.3905 13.229 55.3323 13.0938 55.3281 12.9516V12.9227C55.3251 12.8936 55.3203 12.8647 55.3137 12.8362C55.303 12.7677 55.2923 12.7027 55.2779 12.6378C55.2526 12.5008 55.2202 12.3673 55.1842 12.2339C55.1166 11.9645 55.0325 11.6995 54.9324 11.4405C54.918 11.3971 54.8998 11.3503 54.8819 11.307C54.877 11.2992 54.8734 11.2906 54.8712 11.2817C54.8661 11.274 54.8625 11.2654 54.8603 11.2564C54.8568 11.2529 54.8531 11.2492 54.8531 11.2457L54.8099 11.1483C54.7594 11.0401 54.7055 10.9319 54.648 10.8309C54.5976 10.7443 54.5471 10.665 54.4895 10.582V10.5784L54.4859 10.5748C54.4824 10.5712 54.4787 10.5676 54.4787 10.564C54.4783 10.564 54.4778 10.5639 54.4773 10.5637C54.4769 10.5636 54.4766 10.5633 54.4763 10.5629C54.476 10.5626 54.4758 10.5622 54.4756 10.5618C54.4754 10.5614 54.4752 10.5609 54.4752 10.5604L54.4536 10.5388C54.4279 10.5071 54.4002 10.477 54.3708 10.4487C54.2692 10.3473 54.2118 10.2096 54.2114 10.0659C54.2111 9.92217 54.2677 9.78422 54.3689 9.68234C54.4701 9.58047 54.6075 9.52306 54.751 9.52271C54.8944 9.52235 55.0321 9.57903 55.1338 9.68041C55.5075 10.0932 55.7885 10.5814 55.958 11.1122C56.1867 11.7033 56.338 12.3216 56.408 12.9516Z" fill="black"/>
<path d="M52.0029 14.6106C51.8645 14.6475 51.7172 14.6285 51.5927 14.5577C51.4681 14.4868 51.3763 14.3698 51.3369 14.2319C51.2977 14.0568 51.2434 13.8855 51.1749 13.7198C51.1318 13.6044 51.0849 13.4854 51.0382 13.3699C51.031 13.3519 51.0238 13.3339 51.013 13.3123C51.0103 13.3035 51.0067 13.295 51.0023 13.287C51.001 13.2777 50.9972 13.269 50.9914 13.2617C50.9735 13.2185 50.9519 13.1716 50.9338 13.1283C50.7706 12.7189 50.5681 12.3264 50.3292 11.9562C50.293 11.8949 50.2692 11.827 50.2592 11.7564C50.2493 11.6859 50.2534 11.614 50.2712 11.545C50.289 11.476 50.3201 11.4113 50.3629 11.3544C50.4058 11.2975 50.4594 11.2496 50.5207 11.2136C50.5821 11.1775 50.6499 11.1539 50.7204 11.1441C50.7908 11.1344 50.8625 11.1387 50.9313 11.1568C51.0001 11.1749 51.0647 11.2063 51.1213 11.2494C51.1779 11.2925 51.2256 11.3464 51.2614 11.408C51.5065 11.7883 51.7139 12.1918 51.8804 12.6126C52.09 13.0388 52.2576 13.4845 52.3807 13.9434C52.4156 14.082 52.3958 14.2287 52.3254 14.3529C52.255 14.4772 52.1394 14.5695 52.0029 14.6106Z" fill="black"/>
</svg>
