<svg width="35" height="903" viewBox="0 0 35 903" fill="none" xmlns="http://www.w3.org/2000/svg">
<g clip-path="url(#clip0_1594_117702)" filter="url(#filter0_d_1594_117702)">
<path d="M30.4902 258.732V251.252H17.8744L4.50949 264.652V277.358H11.9526V267.755L20.9526 258.732H30.4902Z" fill="#FF1E6E" fill-opacity="0.6"/>
<path d="M31 280.142V266.711H22.5377V276.616L13.8358 285.34H4V293.844H17.3369L31 280.142ZM29.9807 267.735V279.717L16.9165 292.817H5.0218V286.361H14.2613L23.5595 277.038V267.733H29.9807V267.735Z" fill="#FF1E6E" fill-opacity="0.6"/>
<path d="M31 100.731V25.8418H22.5377V97.2023L13.8358 105.926H4V114.43H17.3369L31 100.731ZM29.9807 26.8661V100.306L16.9165 113.406H5.0218V106.951H14.2613L23.5595 97.6274V26.8661H29.9807Z" fill="#FF1E6E" fill-opacity="0.6"/>
<path d="M30.4902 7.47969V0H17.8744L4.50949 13.3999V87.5644H11.9526V16.5035L20.9526 7.47969H30.4902Z" fill="#FF1E6E" fill-opacity="0.6"/>
<path d="M31 132.04V123.536H17.6631L4 137.236V212.122H12.4623V140.762L21.1642 132.038H31V132.04ZM29.9807 124.56V131.016H20.7412L11.4431 140.339V211.101H5.01925V137.663L18.0835 124.563H29.9807V124.56Z" fill="#FF1E6E" fill-opacity="0.6"/>
<path d="M4.50949 238.544V246.023H17.1253L30.4902 232.623V158.459H23.0471V229.52L14.0471 238.544H4.50949Z" fill="#FF1E6E" fill-opacity="0.6"/>
<path d="M30.4902 337.479V344.959H17.8744L4.50949 331.559V318.851H11.9526V328.456L20.9526 337.479H30.4902Z" fill="#FF1E6E" fill-opacity="0.6"/>
<path d="M31 327.191V313.76L17.3369 300.061H4V308.564H13.8358L22.5377 317.289V327.193H31V327.191ZM29.9807 314.185V326.166H23.5569V316.861L14.2588 307.538H5.01925V301.082H16.9165L29.9807 314.183V314.185Z" fill="#FF1E6E" fill-opacity="0.6"/>
<path d="M4.50949 435.784V443.264H17.1253L30.4902 429.861V417.155H23.0471V426.76L14.0471 435.784H4.50949Z" fill="#FF1E6E" fill-opacity="0.6"/>
<path d="M31 409.176V400.672H17.6631L4 414.371V427.805H12.4623V417.9L21.1642 409.176H31ZM29.9807 401.696V408.152H20.7412L11.4431 417.475V426.78H5.01925V414.799L18.0835 401.699H29.9807V401.696Z" fill="#FF1E6E" fill-opacity="0.6"/>
<path d="M4.50949 357.033V349.554H17.1253L30.4902 362.954V375.662H23.0471V366.057L14.0471 357.033H4.50949Z" fill="#FF1E6E" fill-opacity="0.6"/>
<path d="M31 394.455V385.951H21.1642L12.4623 377.227V367.322H4V380.753L17.6631 394.452H31V394.455ZM29.9807 386.975V393.431H18.0861L5.0218 380.33V368.349H11.4456V377.655L20.7438 386.978H29.9807V386.975Z" fill="#FF1E6E" fill-opacity="0.6"/>
<path d="M4.50949 710.468V702.988H17.1253L30.4902 716.391V729.097H23.0471V719.492L14.0471 710.468H4.50949Z" fill="#FF1E6E" fill-opacity="0.6"/>
<path d="M17.6631 745.58H31V737.076H21.1642L12.4623 728.352V718.447H4V731.878L17.6631 745.577V745.58ZM11.4431 719.472V728.777L20.7412 738.1H29.9807V744.556H18.0861L5.0218 731.455V719.474H11.4456L11.4431 719.472Z" fill="#FF1E6E" fill-opacity="0.6"/>
<path d="M17.6631 566.17H31V557.666H21.1642L12.4623 548.942V477.581H4V552.468L17.6631 566.167V566.17ZM11.4431 478.605V549.367L20.7412 558.69H29.9807V565.145H18.0861L5.0218 552.045V478.605H11.4456H11.4431Z" fill="#FF1E6E" fill-opacity="0.6"/>
<path d="M4.50949 459.219V451.739H17.1253L30.4902 465.139V539.301H23.0471V468.243L14.0471 459.219H4.50949Z" fill="#FF1E6E" fill-opacity="0.6"/>
<path d="M13.8383 583.78L22.5402 592.504V663.864H31V588.978L17.3369 575.278H4V583.782H13.8358L13.8383 583.78ZM16.9165 576.3L29.9807 589.4V662.838H23.5569V592.076L14.2588 582.753H5.01925V576.297H16.9165V576.3Z" fill="#FF1E6E" fill-opacity="0.6"/>
<path d="M30.4902 690.283V697.763H17.8744L4.50949 684.363V610.198H11.9526V681.259L20.9526 690.283H30.4902Z" fill="#FF1E6E" fill-opacity="0.6"/>
<path d="M4.50949 789.219V796.698H17.1253L30.4902 783.296V770.59H23.0471V780.195L14.0471 789.219H4.50949Z" fill="#FF1E6E" fill-opacity="0.6"/>
<path d="M12.4623 778.928V769.023L21.1642 760.299H31V751.795H17.6631L4 765.494V778.925H12.4623V778.928ZM18.0861 752.819H29.9807V759.275H20.7412L11.4431 768.598V777.903H5.01925V765.922L18.0835 752.822L18.0861 752.819Z" fill="#FF1E6E" fill-opacity="0.6"/>
<path d="M30.4902 887.52V895H17.8744L4.50949 881.6V868.892H11.9526V878.497L20.9526 887.52H30.4902Z" fill="#FF1E6E" fill-opacity="0.6"/>
<path d="M13.8383 860.912L22.5402 869.636V879.541H31V866.108L17.3369 852.408H4V860.912H13.8358H13.8383ZM16.9165 853.432L29.9807 866.533V878.514H23.5569V869.209L14.2588 859.885H5.01925V853.43H16.9165V853.432Z" fill="#FF1E6E" fill-opacity="0.6"/>
<path d="M30.4902 808.773V801.293H17.8744L4.50949 814.693V827.399H11.9526V817.796L20.9526 808.773H30.4902Z" fill="#FF1E6E" fill-opacity="0.6"/>
<path d="M17.3369 846.194L31 832.494V819.063H22.5377V828.968L13.8358 837.692H4V846.196H17.3369V846.194ZM14.2588 838.714L23.5569 829.391V820.085H29.9807V832.067L16.9165 845.167H5.0218V838.711H14.2613L14.2588 838.714Z" fill="#FF1E6E" fill-opacity="0.6"/>
</g>
<defs>
<filter id="filter0_d_1594_117702" x="0" y="0" width="35" height="903" filterUnits="userSpaceOnUse" color-interpolation-filters="sRGB">
<feFlood flood-opacity="0" result="BackgroundImageFix"/>
<feColorMatrix in="SourceAlpha" type="matrix" values="0 0 0 0 0 0 0 0 0 0 0 0 0 0 0 0 0 0 127 0" result="hardAlpha"/>
<feOffset dy="4"/>
<feGaussianBlur stdDeviation="2"/>
<feComposite in2="hardAlpha" operator="out"/>
<feColorMatrix type="matrix" values="0 0 0 0 0 0 0 0 0 0 0 0 0 0 0 0 0 0 0.25 0"/>
<feBlend mode="normal" in2="BackgroundImageFix" result="effect1_dropShadow_1594_117702"/>
<feBlend mode="normal" in="SourceGraphic" in2="effect1_dropShadow_1594_117702" result="shape"/>
</filter>
<clipPath id="clip0_1594_117702">
<rect width="27" height="895" fill="white" transform="matrix(-1 0 0 1 31 0)"/>
</clipPath>
</defs>
</svg>
