<svg width="159" height="32" viewBox="0 0 159 32" fill="none" xmlns="http://www.w3.org/2000/svg">
<g clip-path="url(#clip0_4355_11431)">
<path d="M23.1819 14.586H8.1084L10.381 10.6783H11.861L15.9573 3.63605H14.4773L16.5885 0H23.9815L21.8702 3.63605H20.4323L16.3501 10.6574H21.4073L22.8031 8.25424H26.8573L23.1749 14.586H23.1819Z" fill="#0C0C0C"/>
<path d="M41.4959 12.1828C40.7173 13.5202 38.9848 14.586 37.61 14.586H27.4886C26.1138 14.586 25.6438 13.5202 26.4224 12.1828L33.5067 0H40.2824L38.1571 3.65694H36.3334L32.2372 10.6992H37.3786L41.4748 3.65694H39.6722L41.7975 0H48.5732L41.4889 12.1828H41.4959Z" fill="#0C0C0C"/>
<path d="M56.5974 7.81541H61.5494L59.0103 12.1828C58.2317 13.5202 56.4992 14.586 55.1455 14.586H44.7715C43.3967 14.586 42.9268 13.5202 43.7054 12.1828L49.3939 2.40313C50.1724 1.06574 51.8839 0 53.2587 0H63.6327C64.9864 0 65.4774 1.06574 64.6988 2.40313L62.4613 6.24815H57.5093L59.0173 3.65694H53.6164L49.5201 10.6992H54.921L56.5974 7.81541Z" fill="#0C0C0C"/>
<path d="M66.8872 11.953L65.3581 14.586H59.6977L61.9563 10.6992H62.9453L67.0415 3.65694H66.0525L68.1778 0H73.8383L72.2952 2.6539L80.5368 0.0208968H84.4998L80.6701 6.60339H76.6369L77.5348 5.05703L70.5767 7.29299L74.9395 9.52895L75.8373 7.98259H79.8705L76.0337 14.586H72.0497L66.8942 11.953H66.8872Z" fill="#0C0C0C"/>
<path d="M102.568 0L100.443 3.65694H98.1915L91.7455 9.31998L90.9529 10.6783H92.7555L90.4829 14.586H81.6731L83.9457 10.6783H85.7483L86.5129 9.36178L86.6321 3.65694H84.2122L86.3375 0H91.6332L91.6473 4.95255L97.3989 0H102.568V0Z" fill="#0C0C0C"/>
<path d="M114.99 7.81541H119.943L117.403 12.1828C116.625 13.5202 114.892 14.586 113.539 14.586H103.165C101.79 14.586 101.32 13.5202 102.098 12.1828L107.787 2.40313C108.566 1.06574 110.277 0 111.652 0H122.026C123.379 0 123.87 1.06574 123.092 2.40313L120.854 6.24815H115.902L117.41 3.65694H112.009L107.913 10.6992H113.314L114.99 7.81541Z" fill="#0C0C0C"/>
<path d="M128.205 14.586L130.464 10.6992H125.385L123.127 14.586H118.133L124.158 4.22116L129.194 2.04789L130.387 0H137.871L136.692 2.02699L139.21 4.22116L133.185 14.586H128.212H128.205ZM132.835 6.62429L131.186 5.03613L127.77 6.60339L127.139 7.69003H132.217L132.835 6.62429Z" fill="#0C0C0C"/>
<path d="M158.857 0L155.02 6.60339H150.987L152.713 3.63605H151.275L147.172 10.6992H148.609L146.351 14.586H138.656L140.915 10.6992H142.374L146.477 3.63605H145.13L143.405 6.60339H139.372L143.209 0H158.857Z" fill="#0C0C0C"/>
<path d="M6.46707 17.4141H21.5546L19.4293 21.071H4.34178L6.46707 17.4141ZM0 32L2.25857 28.1132H9.16052L11.0754 26.3997H1.24151L3.35278 22.7636H18.4473L16.336 26.3997L13.0253 29.6178C11.8119 30.788 10.2477 32 8.12242 32H0Z" fill="#0C0C0C"/>
<path d="M17.1707 28.1134H20.3832L19.9343 28.8865H21.6037L25.9104 27.1939L29.9085 20.3188H33.7873L28.6249 29.2L21.2319 32.0002H14.9052L17.1637 28.1134H17.1707ZM18.2018 26.3371L21.7019 20.3188H24.5777L21.0776 26.3371H18.2018ZM25.4334 20.3188H28.3093L24.8092 26.3371H21.9334L25.4334 20.3188Z" fill="#0C0C0C"/>
<path d="M41.2995 32H34.3765L36.6351 28.1132H38.5219V27.0057H31.7672L33.6751 23.7249H39.2934L39.2654 22.5547H34.3554L36.3334 19.1485H40.0439L40.0019 17.4141H44.6943L44.7364 19.1485H51.428L49.45 22.5547H44.1963L44.2454 23.7249H48.7696L46.8617 27.0057H43.558V28.1132L41.2995 32Z" fill="#0C0C0C"/>
<path d="M66.3191 23.0771L64.0324 27.0058H48.9169L51.2035 23.0771H66.3191Z" fill="#0C0C0C"/>
<path d="M75.6269 32H68.7039L70.9624 28.1132H72.8493V27.0057H66.0946L68.0025 23.7249H73.6208L73.5928 22.5547H68.6828L70.6608 19.1485H74.3713L74.3293 17.4141H79.0217L79.0638 19.1485H85.7554L83.7774 22.5547H78.5237L78.5728 23.7249H83.097L81.1891 27.0057H77.8854V28.1132L75.6269 32Z" fill="#0C0C0C"/>
<path d="M84.7804 32.0003H80.8805L85.1591 24.6446H84.3876L86.078 21.7399H86.8496L87.6632 20.3398H91.5631L90.7494 21.7399H98.1213L96.4309 24.6446L91.7595 28.8449H87.579L92.2715 24.6446H89.059L84.7804 32.0003Z" fill="#0C0C0C"/>
<path d="M96.1784 28.1134H99.3909L98.942 28.8865H100.611L104.918 27.1939L108.916 20.3188H112.795L107.633 29.2L100.24 32.0002H93.9128L96.1714 28.1134H96.1784ZM97.2095 26.3371L100.71 20.3188H103.585L100.085 26.3371H97.2095ZM104.441 20.3188H107.317L103.817 26.3371H100.941L104.441 20.3188Z" fill="#0C0C0C"/>
<path d="M123.969 23.8294H125.792L123.302 28.1132H121.479L116.211 26.1489L112.809 32H108.004L116.484 17.4141H121.289L118.729 21.8233L123.976 23.8294H123.969Z" fill="#0C0C0C"/>
</g>
<defs>
<clipPath id="clip0_4355_11431">
<rect width="158.857" height="32" fill="white"/>
</clipPath>
</defs>
</svg>
