<svg width="16" height="48" viewBox="0 0 16 48" fill="none" xmlns="http://www.w3.org/2000/svg">
<path d="M0.5 2C0.5 1.17157 1.17157 0.5 2 0.5H14C14.8284 0.5 15.5 1.17157 15.5 2V24.5049C15.5 24.9027 15.342 25.2843 15.0607 25.5656L13.5656 27.0607C13.0967 27.5295 12.8333 28.1654 12.8333 28.8284V32.5049C12.8333 33.1679 13.0967 33.8038 13.5656 34.2727L15.0607 35.7678C15.342 36.0491 15.5 36.4306 15.5 36.8284V46C15.5 46.8284 14.8284 47.5 14 47.5H2C1.17157 47.5 0.5 46.8284 0.5 46V2Z" stroke="#F9F9F9"/>
</svg>
