<svg width="212" height="24" viewBox="0 0 212 24" fill="none" xmlns="http://www.w3.org/2000/svg">
<path d="M184.836 6.8532V0L188.74 0C188.936 0 189.1 0.0719229 189.233 0.205494L189.799 0.7706C189.942 0.914446 190.014 1.07884 190.014 1.28433V2.30153C190.014 2.49674 189.942 2.68169 189.799 2.81526L189.192 3.41119L189.799 4.01739C189.942 4.16124 190.014 4.33591 190.014 4.53113V5.56887C190.014 5.77436 189.942 5.93876 189.799 6.0826L189.233 6.64771C189.1 6.78128 188.936 6.8532 188.74 6.8532L184.836 6.8532ZM186.069 2.83581L188.155 2.83581C188.206 2.83581 188.257 2.81526 188.298 2.77416L188.72 2.36317C188.761 2.32208 188.781 2.28098 188.781 2.21933V1.6645C188.781 1.60285 188.761 1.56175 188.72 1.52065L188.432 1.23296C188.391 1.19186 188.35 1.17131 188.288 1.17131L186.069 1.17131V2.83581ZM186.069 5.68189L188.288 5.68189C188.35 5.68189 188.391 5.66134 188.432 5.62024L188.72 5.33255C188.761 5.29145 188.781 5.25035 188.781 5.18871V4.65442C188.781 4.59278 188.761 4.5414 188.72 4.5003L188.298 4.08932C188.257 4.04822 188.206 4.02767 188.155 4.02767L186.069 4.02767V5.68189Z" fill="white"/>
<path d="M192.867 6.8532V0L197.398 0V1.18159L194.1 1.18159V2.83581L197.398 2.83581V4.01739H194.1V5.67162H197.398V6.8532L192.867 6.8532Z" fill="white"/>
<path d="M201.495 6.8532V1.18159L199.522 1.18159V0L204.701 0V1.18159L202.728 1.18159V6.8532H201.495Z" fill="white"/>
<path d="M205.529 6.8532L207.81 0L209.711 0L212.002 6.8532H210.717L210.163 5.19898L207.317 5.19898L206.782 6.8532H205.529ZM207.697 4.04822L209.793 4.04822L208.745 0.832248L207.697 4.04822Z" fill="white"/>
<path d="M0 0.00585938H6.36967L13.9629 18.5094V0.00585938H18.1373V23.7402H11.9116L4.17447 4.84524V23.7402H0V0.00585938Z" fill="white"/>
<path d="M48.5188 4.09798H41.6094V0.00585938H59.7395V4.09798H52.8301V23.7402H48.5116L48.5188 4.09798Z" fill="white"/>
<path d="M83.351 0.00585938H90.6851L95.8672 18.6517L101.013 0.00585938H108.247V23.7402H104.036V2.74581L98.1703 23.7402H93.4201L87.5902 2.74581V23.7402H83.3438L83.351 0.00585938Z" fill="#FF0014"/>
<path d="M112.5 0.00604874H126.175C126.497 0.00199584 126.816 0.0630383 127.113 0.185422C127.41 0.307806 127.679 0.488947 127.902 0.717722L129.882 2.67482C130.126 2.9032 130.319 3.17935 130.449 3.48569C130.579 3.79202 130.643 4.12181 130.637 4.45401V10.0051C130.64 10.3368 130.574 10.6655 130.444 10.9714C130.314 11.2772 130.123 11.5538 129.882 11.7842L127.902 13.7414C127.675 13.9746 127.4 14.1583 127.096 14.2808C126.793 14.4034 126.467 14.462 126.139 14.453H116.818V23.7404H112.5V0.00604874ZM124.592 10.3965C124.686 10.399 124.78 10.3812 124.867 10.3444C124.954 10.3075 125.032 10.2524 125.095 10.183L126.103 9.18663C126.173 9.12395 126.229 9.04697 126.266 8.96097C126.303 8.87497 126.321 8.78199 126.319 8.68846V5.80618C126.321 5.71265 126.303 5.61969 126.266 5.53369C126.229 5.44769 126.173 5.3707 126.103 5.30801L125.095 4.31168C125.032 4.24221 124.954 4.18716 124.867 4.15031C124.78 4.11345 124.686 4.09566 124.592 4.09817H116.818V10.4036L124.592 10.3965Z" fill="#FF0014"/>
<path d="M142.51 0.00604874H156.185C156.507 0.00199584 156.826 0.0630383 157.123 0.185422C157.42 0.307806 157.689 0.488947 157.912 0.717722L159.892 2.67482C160.136 2.9032 160.329 3.17935 160.459 3.48569C160.589 3.79202 160.653 4.12181 160.647 4.45401V10.0051C160.65 10.3368 160.584 10.6655 160.454 10.9714C160.324 11.2772 160.133 11.5538 159.892 11.7842L157.912 13.7414C157.682 13.9708 157.407 14.1521 157.104 14.2743C156.801 14.3966 156.476 14.4574 156.149 14.453H155.573L162.411 23.7404H157.517L150.974 14.6736C150.904 14.5816 150.811 14.5099 150.703 14.466C150.595 14.4222 150.478 14.4079 150.362 14.4246H146.764V23.7119H142.445L142.51 0.00604874ZM154.602 10.3965C154.696 10.399 154.79 10.3812 154.877 10.3444C154.964 10.3075 155.042 10.2524 155.105 10.183L156.113 9.18663C156.183 9.12395 156.239 9.04697 156.276 8.96097C156.314 8.87497 156.332 8.78199 156.329 8.68846V5.80618C156.332 5.71265 156.314 5.61969 156.276 5.53369C156.239 5.44769 156.183 5.3707 156.113 5.30801L155.069 4.27609C155.006 4.20663 154.928 4.15158 154.841 4.11472C154.754 4.07786 154.66 4.06007 154.566 4.06259H146.829V10.4036L154.602 10.3965Z" fill="#FF0014"/>
<path d="M138.225 0.00585938V23.7402H133.906V0.00585938H138.225Z" fill="#FF0014"/>
<path d="M165.117 19.6562H180.951V23.7484H165.117V19.6562Z" fill="#FF0014"/>
<path d="M165.117 9.82812H180.951V13.9202H165.117V9.82812Z" fill="#FF0014"/>
<path d="M165.078 0.00585938H180.912V4.09798H165.078V0.00585938Z" fill="#FF0014"/>
<path d="M63.0234 19.6562H78.8936V23.7484H63.0234V19.6562Z" fill="#FF0014"/>
<path d="M63.0234 9.82812H78.8936V13.9202H63.0234V9.82812Z" fill="#FF0014"/>
<path d="M63.0234 0.00585938H78.8936V4.09798H63.0234V0.00585938Z" fill="#FF0014"/>
<path d="M22.6094 19.6562H38.4436V23.7484H22.6094V19.6562Z" fill="white"/>
<path d="M22.6094 9.82812H38.4436V13.9202H22.6094V9.82812Z" fill="white"/>
<path d="M22.6094 0.00585938H38.4436V4.09798H22.6094V0.00585938Z" fill="white"/>
</svg>
