<svg width="181" height="24" viewBox="0 0 181 24" fill="none" xmlns="http://www.w3.org/2000/svg">
<g clip-path="url(#clip0_1489_203633)">
<path d="M0 0H6.36882L13.961 18.7106V0H18.1349V24H11.91L4.17391 4.89355V24H0V0Z" fill="white"/>
<path d="M48.5023 4.13793H41.5938V0H59.7287V4.13793H52.8201V24H48.5023V4.13793Z" fill="white"/>
<path d="M83.3359 0H90.6763L95.8577 18.8546L101.003 0H108.235V24H104.026V2.77061L98.1605 24H93.4109L87.5818 2.77061V24H83.3359V0Z" fill="#FF0014"/>
<path d="M112.484 0H126.158C126.841 0 127.417 0.251874 127.885 0.71964L129.864 2.69865C130.367 3.2024 130.619 3.77811 130.619 4.49775V10.1109C130.619 10.7946 130.367 11.4063 129.864 11.91L127.885 13.8891C127.381 14.3928 126.805 14.6087 126.122 14.6087H116.802V24H112.484V0ZM124.574 10.5067C124.79 10.5067 124.934 10.4348 125.078 10.2909L126.086 9.28336C126.229 9.13943 126.301 8.9955 126.301 8.77961V5.86507C126.301 5.64918 126.229 5.50525 126.086 5.36132L125.078 4.35382C124.934 4.2099 124.79 4.13793 124.574 4.13793H116.802V10.5067H124.574Z" fill="#FF0014"/>
<path d="M142.445 0H156.118C156.802 0 157.378 0.251874 157.846 0.71964L159.825 2.69865C160.328 3.2024 160.58 3.77811 160.58 4.49775V10.1109C160.58 10.7946 160.328 11.4063 159.825 11.91L157.846 13.8891C157.486 14.2489 156.91 14.6087 156.082 14.6087H155.507L162.343 24H157.45L150.937 14.8606C150.793 14.6447 150.577 14.6087 150.325 14.6087H146.763V24H142.445V0ZM154.535 10.5067C154.751 10.5067 154.895 10.4348 155.039 10.2909L156.047 9.28336C156.19 9.13943 156.262 8.9955 156.262 8.77961V5.86507C156.262 5.64918 156.19 5.50525 156.047 5.36132L155.003 4.31784C154.859 4.17391 154.715 4.10195 154.499 4.10195H146.763V10.5067H154.535Z" fill="#FF0014"/>
<path d="M138.208 0V24H133.891V0H138.208Z" fill="#FF0014"/>
<path d="M165.078 19.8623H180.946V24.0002H165.078V19.8623Z" fill="#FF0014"/>
<path d="M165.078 9.93066H180.946V14.0686H165.078V9.93066Z" fill="#FF0014"/>
<path d="M165.078 0H180.946V4.13793H165.078V0Z" fill="#FF0014"/>
<path d="M63 19.8623H78.8681V24.0002H63V19.8623Z" fill="#FF0014"/>
<path d="M63 9.93066H78.8681V14.0686H63V9.93066Z" fill="#FF0014"/>
<path d="M63 0H78.8681V4.13793H63V0Z" fill="#FF0014"/>
<path d="M22.5938 19.8623H38.4618V24.0002H22.5938V19.8623Z" fill="white"/>
<path d="M22.5938 9.93066H38.4618V14.0686H22.5938V9.93066Z" fill="white"/>
<path d="M22.5938 0H38.4618V4.13793H22.5938V0Z" fill="white"/>
</g>
<defs>
<clipPath id="clip0_1489_203633">
<rect width="180.954" height="24" fill="white"/>
</clipPath>
</defs>
</svg>
