<svg reserveAspectRatio="xMinYMin meet" viewBox="0 0 24 24" fill="none" xmlns="http://www.w3.org/2000/svg">
<g clip-path="url(#clip0_6874_437667)">
<path d="M12 23.5C18.3513 23.5 23.5 18.3513 23.5 12C23.5 5.64873 18.3513 0.5 12 0.5C5.64873 0.5 0.5 5.64873 0.5 12C0.5 18.3513 5.64873 23.5 12 23.5Z" fill="#002FA7" stroke="#F9F9F9"/>
<path d="M17.6448 17.1951H18.3502C19.291 17.1951 19.8791 16.1766 19.4082 15.3617L14.8215 7.41699H11.999L17.6439 17.1951H17.6448Z" fill="#F0F0F0"/>
<path d="M11.9994 7.41634L13.411 4.9716L13.0583 4.36021C12.5875 3.5453 11.4121 3.5453 10.9413 4.36021L6.35449 12.3049L7.76614 14.7497L12.0002 7.41634" fill="#F0F0F0"/>
<path d="M16.2339 14.75L14.8222 17.1947H5.64868C4.70787 17.1947 4.11976 16.1763 4.59059 15.3614L4.94329 14.75H16.2339Z" fill="#F0F0F0"/>
</g>
<defs>
<clipPath id="clip0_6874_437667">
<rect width="24" height="24" fill="white"/>
</clipPath>
</defs>
</svg>
