<svg width="20" height="20" viewBox="0 0 20 20" fill="none" xmlns="http://www.w3.org/2000/svg">
<path d="M10 20C15.5228 20 20 15.5228 20 10C20 4.47715 15.5228 0 10 0C4.47715 0 0 4.47715 0 10C0 15.5228 4.47715 20 10 20Z" fill="#D6A43F"/>
<path d="M15.1305 14.7231H15.7718C16.6271 14.7231 17.1617 13.7973 16.7337 13.0565L12.5639 5.83398H9.99805L15.1297 14.7231H15.1305Z" fill="#F0F0F0"/>
<path d="M9.99889 5.83392L11.2822 3.61144L10.9616 3.05562C10.5335 2.31479 9.46502 2.31479 9.03699 3.05562L4.86719 10.2781L6.15051 12.5006L9.99967 5.83392" fill="#F0F0F0"/>
<path d="M13.8488 12.501L12.5655 14.7235H4.2259C3.37061 14.7235 2.83596 13.7976 3.264 13.0568L3.58463 12.501H13.8488Z" fill="#F0F0F0"/>
</svg>
