<svg width="32" height="32" viewBox="0 0 32 32" fill="none" xmlns="http://www.w3.org/2000/svg">
<path d="M16 32C24.8366 32 32 24.8366 32 16C32 7.16344 24.8366 0 16 0C7.16344 0 0 7.16344 0 16C0 24.8366 7.16344 32 16 32Z" fill="black"/>
<path d="M24.9004 23.1832L26.5471 22.2332V10.6953L24.9004 11.6454V23.1832Z" fill="url(#paint0_linear_710_77682)"/>
<path d="M19.3408 26.3928L20.9876 25.4427V13.9014L19.3408 14.8549V26.3928Z" fill="url(#paint1_linear_710_77682)"/>
<path d="M16.561 28.0002L18.2078 27.0502V15.5088L16.561 16.4624V28.0002Z" fill="url(#paint2_linear_710_77682)"/>
<path d="M22.1172 24.7848L23.7639 23.8347V12.2969L22.1172 13.2469V24.7848Z" fill="url(#paint3_linear_710_77682)"/>
<path d="M5.46309 20.3096L5.45605 22.2132L15.421 28.0296L15.4281 26.1295L5.46309 20.3096Z" fill="url(#paint4_linear_710_77682)"/>
<path d="M5.49835 13.8916L5.48779 15.7952L15.4528 21.6152L15.4633 19.7115L5.49835 13.8916Z" fill="url(#paint5_linear_710_77682)"/>
<path d="M5.51251 10.6816L5.50195 12.5817L15.4669 18.4017L15.474 16.4981L5.51251 10.6816Z" fill="url(#paint6_linear_710_77682)"/>
<path d="M5.48468 17.0996L5.47412 19.0032L15.4426 24.8232L15.4497 22.9195L5.48468 17.0996Z" fill="url(#paint7_linear_710_77682)"/>
<path d="M17.6484 4.92623L16.0051 3.97266L6.00146 9.72926L7.64822 10.6828L17.6484 4.92623Z" fill="url(#paint8_linear_710_77682)"/>
<path d="M23.2006 8.14205L21.5574 7.18848L11.5537 12.9486L13.204 13.8987L23.2006 8.14205Z" fill="url(#paint9_linear_710_77682)"/>
<path d="M25.9838 9.75044L24.3371 8.79688L14.3369 14.5535L15.9837 15.507L25.9838 9.75044Z" fill="url(#paint10_linear_710_77682)"/>
<path d="M20.4248 6.53853L18.778 5.58496L8.77783 11.3416L10.4246 12.2951L20.4248 6.53853Z" fill="url(#paint11_linear_710_77682)"/>
<defs>
<linearGradient id="paint0_linear_710_77682" x1="24.5344" y1="11.8002" x2="27.1946" y2="23.3134" gradientUnits="userSpaceOnUse">
<stop stop-color="#FF6647"/>
<stop offset="1" stop-color="#FF6647" stop-opacity="0"/>
</linearGradient>
<linearGradient id="paint1_linear_710_77682" x1="18.9749" y1="15.0062" x2="21.635" y2="26.5195" gradientUnits="userSpaceOnUse">
<stop stop-color="#FF6647"/>
<stop offset="1" stop-color="#FF6647" stop-opacity="0"/>
</linearGradient>
<linearGradient id="paint2_linear_710_77682" x1="16.1986" y1="16.6137" x2="18.8552" y2="28.1269" gradientUnits="userSpaceOnUse">
<stop stop-color="#FF6647"/>
<stop offset="1" stop-color="#FF6647" stop-opacity="0"/>
</linearGradient>
<linearGradient id="paint3_linear_710_77682" x1="21.7548" y1="13.3982" x2="24.4114" y2="24.915" gradientUnits="userSpaceOnUse">
<stop stop-color="#FF6647"/>
<stop offset="1" stop-color="#FF6647" stop-opacity="0"/>
</linearGradient>
<linearGradient id="paint4_linear_710_77682" x1="15.4341" y1="25.8824" x2="4.1503" y2="22.3744" gradientUnits="userSpaceOnUse">
<stop stop-color="#FF6647"/>
<stop offset="1" stop-color="#FF6647" stop-opacity="0"/>
</linearGradient>
<linearGradient id="paint5_linear_710_77682" x1="15.4644" y1="19.4664" x2="4.18239" y2="15.9554" gradientUnits="userSpaceOnUse">
<stop stop-color="#FF6647"/>
<stop offset="1" stop-color="#FF6647" stop-opacity="0"/>
</linearGradient>
<linearGradient id="paint6_linear_710_77682" x1="15.4775" y1="16.2542" x2="4.19544" y2="12.7431" gradientUnits="userSpaceOnUse">
<stop stop-color="#FF6647"/>
<stop offset="1" stop-color="#FF6647" stop-opacity="0"/>
</linearGradient>
<linearGradient id="paint7_linear_710_77682" x1="15.4536" y1="22.6737" x2="4.16982" y2="19.1657" gradientUnits="userSpaceOnUse">
<stop stop-color="#FF6647"/>
<stop offset="1" stop-color="#FF6647" stop-opacity="0"/>
</linearGradient>
<linearGradient id="paint8_linear_710_77682" x1="8.09617" y1="11.0529" x2="16.7484" y2="3.0062" gradientUnits="userSpaceOnUse">
<stop stop-color="#FF6647"/>
<stop offset="1" stop-color="#FF6647" stop-opacity="0"/>
</linearGradient>
<linearGradient id="paint9_linear_710_77682" x1="13.6478" y1="14.2714" x2="22.3001" y2="6.22466" gradientUnits="userSpaceOnUse">
<stop stop-color="#FF6647"/>
<stop offset="1" stop-color="#FF6647" stop-opacity="0"/>
</linearGradient>
<linearGradient id="paint10_linear_710_77682" x1="16.4283" y1="15.8785" x2="25.0788" y2="7.82869" gradientUnits="userSpaceOnUse">
<stop stop-color="#FF6647"/>
<stop offset="1" stop-color="#FF6647" stop-opacity="0"/>
</linearGradient>
<linearGradient id="paint11_linear_710_77682" x1="10.8725" y1="12.667" x2="19.523" y2="4.61718" gradientUnits="userSpaceOnUse">
<stop stop-color="#FF6647"/>
<stop offset="1" stop-color="#FF6647" stop-opacity="0"/>
</linearGradient>
</defs>
</svg>
