<svg reserveAspectRatio="xMinYMin meet" viewBox="0 0 325 281" fill="none" xmlns="http://www.w3.org/2000/svg">
<g clip-path="url(#clip0_6_12)">
<path d="M169.975 26.7745L293.575 240.857L285.834 254.225H38.6323L30.9285 240.895L154.491 26.7745H169.937M185.42 0H139.084L0 240.857C10.3095 258.682 12.8774 263.176 23.1869 281H301.279C311.589 263.176 314.157 258.682 324.466 240.857L185.42 0Z" fill="#F7BA1E"/>
<path d="M162.233 227.451C191.786 227.451 215.744 203.493 215.744 173.94C215.744 144.386 191.786 120.429 162.233 120.429C132.68 120.429 108.722 144.386 108.722 173.94C108.722 203.493 132.68 227.451 162.233 227.451Z" fill="#F7BA1E"/>
</g>
<defs>
<clipPath id="clip0_6_12">
<rect width="324.466" height="281" fill="white"/>
</clipPath>
</defs>
</svg>
