<svg reserveAspectRatio="xMinYMin meet" viewBox="0 0 209 281" fill="none" xmlns="http://www.w3.org/2000/svg">
<path d="M147.592 40.1493H136.49V32.1059H144.51V0H64.2344V32.1059H72.2552V40.1493H61.1303L0 101.28V219.847L61.1303 281H147.592L208.745 219.847V101.28L147.592 40.1493Z" fill="#FAFAFA"/>
<path d="M144.282 48.1702H64.4587L8.01855 104.61V216.516L64.4587 272.957H144.282L200.699 216.516V104.61L144.282 48.1702Z" fill="#1E1E1E"/>
<path d="M80.2774 40.1492H128.448V24.0849H136.491V8.02063H72.2566V24.0849H80.2774V40.1492Z" fill="#1E1E1E"/>
<path d="M144.51 128.446L128.446 171.269L112.404 128.446H96.3397L80.2754 171.269L64.2338 128.446H48.1696L72.2546 192.681H88.3189L104.36 149.858L120.425 192.681H136.489L160.574 128.446H144.51Z" fill="#FAFAFA"/>
</svg>
