<svg reserveAspectRatio="xMinYMin meet" viewBox="0 0 14 15" fill="none" xmlns="http://www.w3.org/2000/svg">
<path d="M5.04999 0.500028C4.0911 0.496765 3.15233 0.774921 2.34999 1.30003L5.54999 4.50003C5.65657 4.59096 5.74387 4.70229 5.80675 4.82748C5.86963 4.95267 5.90683 5.08917 5.91615 5.22895C5.92547 5.36873 5.90672 5.50897 5.86101 5.64139C5.8153 5.77382 5.74355 5.89576 5.64999 6.00003C5.54572 6.09359 5.42378 6.16534 5.29136 6.21105C5.15893 6.25676 5.0187 6.2755 4.87892 6.26618C4.73914 6.25687 4.60263 6.21967 4.47745 6.15679C4.35226 6.0939 4.24092 6.0066 4.14999 5.90003L0.849995 2.70003C0.279442 3.5396 -0.0174598 4.53509 -4.62832e-06 5.55003C0.00526205 6.88775 0.539005 8.16918 1.48492 9.1151C2.43084 10.061 3.71227 10.5948 5.04999 10.6C5.48778 10.6024 5.92426 10.5521 6.34999 10.45L9.69999 13.8C10.1708 14.2708 10.8092 14.5353 11.475 14.5353C12.1407 14.5353 12.7792 14.2708 13.25 13.8C13.7208 13.3293 13.9852 12.6908 13.9852 12.025C13.9852 11.3593 13.7208 10.7208 13.25 10.25L9.89999 6.90003C10.002 6.47429 10.0524 6.03782 10.05 5.60003C10.0633 4.93505 9.94379 4.27411 9.69848 3.65589C9.45317 3.03767 9.08698 2.47461 8.62136 1.99967C8.15573 1.52473 7.60003 1.14747 6.98679 0.889966C6.37356 0.632462 5.7151 0.499895 5.04999 0.500028ZM9.04999 5.55003C9.04926 5.90532 8.99877 6.25875 8.89999 6.60003L8.74999 7.15003L9.14999 7.55003L12.5 10.9C12.6427 11.0351 12.7562 11.1979 12.8336 11.3785C12.911 11.5591 12.9506 11.7536 12.95 11.95C12.9556 12.1472 12.9183 12.3433 12.8406 12.5246C12.7629 12.7059 12.6467 12.8681 12.5 13C12.3646 13.1422 12.2017 13.2554 12.0212 13.3328C11.8407 13.4101 11.6464 13.45 11.45 13.45C11.2536 13.45 11.0593 13.4101 10.8788 13.3328C10.6983 13.2554 10.5354 13.1422 10.4 13L7.04999 9.65003L6.64999 9.25003L6.09999 9.40003C5.75871 9.49881 5.40528 9.5493 5.04999 9.55003C3.98753 9.54708 2.96697 9.13527 2.2 8.40003C1.81212 8.03506 1.50496 7.59292 1.29828 7.10207C1.09161 6.61121 0.99 6.08253 0.999995 5.55003C1.00068 5.17831 1.05113 4.80836 1.15 4.45003L3.34999 6.65003C3.53589 6.85232 3.7602 7.01559 4.00984 7.1303C4.25948 7.24502 4.52946 7.30889 4.80404 7.3182C5.07862 7.32751 5.3523 7.28206 5.60914 7.18452C5.86598 7.08697 6.10082 6.93927 6.29999 6.75003C6.48923 6.55086 6.63693 6.31601 6.73448 6.05918C6.83203 5.80234 6.87747 5.52865 6.86817 5.25407C6.85886 4.9795 6.79498 4.70952 6.68027 4.45987C6.56555 4.21023 6.40229 3.98593 6.19999 3.80003L3.99999 1.60003C4.32337 1.49776 4.66085 1.44713 4.99999 1.45003C6.06246 1.45298 7.08302 1.86478 7.84999 2.60003C8.61768 3.39037 9.04799 4.44823 9.04999 5.55003Z"/>
</svg>
