<svg width="22" height="22" viewBox="0 0 22 22" fill="white" xmlns="http://www.w3.org/2000/svg">
<path d="M20 0.5H2C1.6023 0.500397 1.221 0.65856 0.939778 0.939778C0.65856 1.221 0.500397 1.6023 0.5 2V20C0.500457 20.3977 0.658638 20.779 0.939844 21.0602C1.22105 21.3414 1.60232 21.4995 2 21.5H20C20.3977 21.4995 20.7789 21.3413 21.0601 21.0601C21.3413 20.7789 21.4995 20.3977 21.5 20V2C21.4995 1.60232 21.3414 1.22105 21.0602 0.939844C20.779 0.658638 20.3977 0.500457 20 0.5ZM20 7.25H9.5V2H20V7.25ZM8 2V7.25H2V2H8ZM2 20V8.75H20.0005L20.0015 20H2Z"/>
</svg>
