<svg width="20" height="22" viewBox="0 0 20 22" fill="none" xmlns="http://www.w3.org/2000/svg">
<path d="M18 14.75V12.5C18 11.7044 17.6839 10.9413 17.1213 10.3787C16.5587 9.81607 15.7956 9.5 15 9.5C14.2044 9.5 13.4413 9.81607 12.8787 10.3787C12.3161 10.9413 12 11.7044 12 12.5V14.75C11.6023 14.7505 11.2211 14.9087 10.9399 15.1899C10.6587 15.4711 10.5005 15.8523 10.5 16.25V20C10.5005 20.3977 10.6587 20.7789 10.9399 21.0601C11.2211 21.3413 11.6023 21.4995 12 21.5H18C18.3977 21.4995 18.7789 21.3413 19.0601 21.0601C19.3413 20.7789 19.4995 20.3977 19.5 20V16.25C19.4995 15.8523 19.3413 15.4711 19.0601 15.1899C18.7789 14.9087 18.3977 14.7505 18 14.75ZM13.5 12.5C13.5 12.1022 13.658 11.7206 13.9393 11.4393C14.2206 11.158 14.6022 11 15 11C15.3978 11 15.7794 11.158 16.0607 11.4393C16.342 11.7206 16.5 12.1022 16.5 12.5V14.75H13.5V12.5ZM12 20V16.25H18V20H12Z"/>
<path d="M14.6243 5.81375L9.53025 0.71975C9.38963 0.579088 9.1989 0.500042 9 0.5H1.5C1.10253 0.501148 0.721664 0.659552 0.440608 0.940608C0.159551 1.22166 0.00114768 1.60253 0 2V20C0.00114768 20.3975 0.159551 20.7783 0.440608 21.0594C0.721664 21.3404 1.10253 21.4989 1.5 21.5H7.5V20H1.5V2H7.5V6.5C7.50046 6.89768 7.65864 7.27895 7.93984 7.56016C8.22105 7.84136 8.60232 7.99954 9 8H13.719C13.9723 7.99996 14.2199 7.92482 14.4304 7.78407C14.641 7.64333 14.8051 7.44331 14.902 7.2093C14.9989 6.97529 15.0242 6.7178 14.9748 6.4694C14.9253 6.22099 14.8034 5.99283 14.6243 5.81375ZM9 6.5V2.31058L13.189 6.5H9Z"/>
</svg>
