<svg width="24" height="24" viewBox="0 0 24 24" fill="none" xmlns="http://www.w3.org/2000/svg">
<g clip-path="url(#clip0_4791_33823)">
<path d="M8.40909 17C8.30059 17 8.19654 16.9561 8.11982 16.878C8.0431 16.7998 8 16.6938 8 16.5833L8 7.4167C7.99999 7.34429 8.01852 7.27313 8.05374 7.21023C8.08896 7.14733 8.13967 7.09487 8.20086 7.05801C8.26206 7.02116 8.33162 7.00118 8.40271 7.00005C8.47379 6.99892 8.54394 7.01668 8.60623 7.05157L16.788 11.6349C16.8522 11.6708 16.9058 11.7237 16.943 11.7879C16.9803 11.8521 17 11.9254 17 12C17 12.0746 16.9803 12.1479 16.943 12.2121C16.9058 12.2763 16.8522 12.3291 16.788 12.3651L8.60623 16.9484C8.54583 16.9822 8.47802 17 8.40909 17ZM8.81818 8.12124L8.81818 15.8787L15.7419 12L8.81818 8.12124Z" fill="#F9F9F9"/>
</g>
<rect x="0.5" y="0.5" width="23" height="23" stroke="#F9F9F9"/>
<defs>
<clipPath id="clip0_4791_33823">
<rect width="24" height="24" fill="white"/>
</clipPath>
</defs>
</svg>
