<svg width="629" height="32" viewBox="0 0 629 32" fill="none" xmlns="http://www.w3.org/2000/svg">
<path d="M4.5 0L4.5 9" stroke="#FFE60A"/>
<line y1="4.5" x2="9" y2="4.5" stroke="#FFE60A"/>
<path d="M15.352 18V15.2H15.704V17.664H17.132V18H15.352ZM18.0045 17.728C17.8205 17.5253 17.7285 17.28 17.7285 16.992C17.7285 16.704 17.8205 16.4587 18.0045 16.256C18.1885 16.0533 18.4271 15.952 18.7205 15.952C19.0138 15.952 19.2525 16.0533 19.4365 16.256C19.6205 16.4587 19.7125 16.704 19.7125 16.992C19.7125 17.28 19.6205 17.5253 19.4365 17.728C19.2525 17.9307 19.0138 18.032 18.7205 18.032C18.4271 18.032 18.1885 17.9307 18.0045 17.728ZM19.1885 17.516C19.3085 17.372 19.3685 17.1973 19.3685 16.992C19.3685 16.7867 19.3085 16.6133 19.1885 16.472C19.0711 16.328 18.9151 16.256 18.7205 16.256C18.5258 16.256 18.3685 16.328 18.2485 16.472C18.1311 16.6133 18.0725 16.7867 18.0725 16.992C18.0725 17.1973 18.1311 17.372 18.2485 17.516C18.3685 17.6573 18.5258 17.728 18.7205 17.728C18.9151 17.728 19.0711 17.6573 19.1885 17.516ZM20.3289 18V15.984H20.6649V16.356C20.8356 16.0867 21.0836 15.952 21.4089 15.952C21.6089 15.952 21.7663 16.0107 21.8809 16.128C21.9983 16.2427 22.0623 16.408 22.0729 16.624H21.7369C21.7076 16.3787 21.5783 16.256 21.3489 16.256C21.1543 16.256 20.9916 16.3467 20.8609 16.528C20.7303 16.7067 20.6649 16.9547 20.6649 17.272V18H20.3289ZM22.7214 16.992C22.7214 16.696 22.8094 16.4493 22.9854 16.252C23.1641 16.052 23.3974 15.952 23.6854 15.952C23.9787 15.952 24.2107 16.044 24.3814 16.228C24.5547 16.412 24.6414 16.644 24.6414 16.924V17.064H23.0654C23.0761 17.264 23.1374 17.4253 23.2494 17.548C23.3614 17.668 23.5067 17.728 23.6854 17.728C23.9734 17.728 24.1894 17.5947 24.3334 17.328L24.6014 17.468C24.4067 17.844 24.1014 18.032 23.6854 18.032C23.4001 18.032 23.1681 17.9333 22.9894 17.736C22.8107 17.5387 22.7214 17.2907 22.7214 16.992ZM23.0894 16.76H24.2854C24.2561 16.6 24.1894 16.476 24.0854 16.388C23.9814 16.3 23.8481 16.256 23.6854 16.256C23.5281 16.256 23.3974 16.3 23.2934 16.388C23.1921 16.476 23.1241 16.6 23.0894 16.76ZM25.1139 18V15.984H25.4499V16.24C25.5725 16.048 25.7299 15.952 25.9219 15.952C26.1405 15.952 26.2792 16.0613 26.3379 16.28C26.3939 16.1787 26.4645 16.0987 26.5499 16.04C26.6379 15.9813 26.7325 15.952 26.8339 15.952C26.9725 15.952 27.0805 15.9987 27.1579 16.092C27.2352 16.1827 27.2739 16.3173 27.2739 16.496V18H26.9379V16.568C26.9379 16.4587 26.9205 16.38 26.8859 16.332C26.8512 16.284 26.7952 16.26 26.7179 16.26C26.6112 16.26 26.5245 16.328 26.4579 16.464C26.3939 16.5973 26.3619 16.7933 26.3619 17.052V18H26.0259V16.568C26.0259 16.4587 26.0085 16.38 25.9739 16.332C25.9392 16.284 25.8832 16.26 25.8059 16.26C25.6992 16.26 25.6125 16.328 25.5459 16.464C25.4819 16.5973 25.4499 16.7933 25.4499 17.052V18H25.1139ZM30.7988 15.448C30.7988 15.3707 30.8255 15.3053 30.8788 15.252C30.9321 15.196 30.9975 15.168 31.0748 15.168C31.1521 15.168 31.2175 15.196 31.2708 15.252C31.3241 15.3053 31.3508 15.3707 31.3508 15.448C31.3508 15.5253 31.3241 15.5907 31.2708 15.644C31.2175 15.6947 31.1521 15.72 31.0748 15.72C30.9975 15.72 30.9321 15.6933 30.8788 15.64C30.8255 15.5867 30.7988 15.5227 30.7988 15.448ZM30.2348 18V17.704H30.9308V16.28H30.3148V15.984H31.2668V17.704H32.0108V18H30.2348ZM32.7873 18.816V15.984H33.1233V16.252C33.1873 16.164 33.2739 16.092 33.3833 16.036C33.4953 15.98 33.6139 15.952 33.7393 15.952C34.0273 15.952 34.2526 16.0467 34.4153 16.236C34.5806 16.4227 34.6633 16.6747 34.6633 16.992C34.6633 17.3093 34.5806 17.5627 34.4153 17.752C34.2526 17.9387 34.0273 18.032 33.7393 18.032C33.6113 18.032 33.4926 18.0053 33.3833 17.952C33.2739 17.8987 33.1873 17.8293 33.1233 17.744V18.816H32.7873ZM34.1513 17.528C34.2633 17.392 34.3193 17.2133 34.3193 16.992C34.3193 16.7707 34.2633 16.5933 34.1513 16.46C34.0419 16.324 33.8939 16.256 33.7073 16.256C33.5206 16.256 33.3713 16.324 33.2593 16.46C33.1499 16.5933 33.0953 16.7707 33.0953 16.992C33.0953 17.2133 33.1499 17.392 33.2593 17.528C33.3713 17.6613 33.5206 17.728 33.7073 17.728C33.8939 17.728 34.0419 17.6613 34.1513 17.528ZM35.2558 17.448L35.5758 17.328C35.6104 17.456 35.6771 17.5547 35.7758 17.624C35.8744 17.6933 35.9931 17.728 36.1318 17.728C36.2624 17.728 36.3664 17.704 36.4438 17.656C36.5211 17.6053 36.5598 17.5333 36.5598 17.44C36.5598 17.3467 36.5238 17.28 36.4518 17.24C36.3824 17.2 36.2451 17.16 36.0398 17.12C35.8238 17.08 35.6611 17.016 35.5518 16.928C35.4424 16.84 35.3878 16.7093 35.3878 16.536C35.3878 16.3627 35.4544 16.2227 35.5878 16.116C35.7211 16.0067 35.8838 15.952 36.0758 15.952C36.4198 15.952 36.6691 16.1013 36.8238 16.4L36.5478 16.576C36.4304 16.3627 36.2691 16.256 36.0638 16.256C35.9624 16.256 35.8784 16.28 35.8118 16.328C35.7478 16.3733 35.7158 16.4387 35.7158 16.524C35.7158 16.604 35.7518 16.668 35.8238 16.716C35.8984 16.764 36.0184 16.804 36.1838 16.836C36.4344 16.8867 36.6171 16.9547 36.7318 17.04C36.8491 17.1227 36.9078 17.2467 36.9078 17.412C36.9078 17.596 36.8318 17.7453 36.6798 17.86C36.5304 17.9747 36.3478 18.032 36.1318 18.032C35.9211 18.032 35.7371 17.9813 35.5798 17.88C35.4251 17.776 35.3171 17.632 35.2558 17.448ZM37.7442 17.388V15.984H38.0802V17.316C38.0802 17.5907 38.2042 17.728 38.4522 17.728C38.6202 17.728 38.7602 17.6427 38.8722 17.472C38.9869 17.3013 39.0442 17.076 39.0442 16.796V15.984H39.3802V18H39.0442V17.628C38.9696 17.7507 38.8709 17.8493 38.7482 17.924C38.6256 17.996 38.4962 18.032 38.3602 18.032C38.1576 18.032 38.0042 17.976 37.9002 17.864C37.7962 17.7493 37.7442 17.5907 37.7442 17.388ZM39.9967 18V15.984H40.3327V16.24C40.4554 16.048 40.6127 15.952 40.8047 15.952C41.0234 15.952 41.162 16.0613 41.2207 16.28C41.2767 16.1787 41.3474 16.0987 41.4327 16.04C41.5207 15.9813 41.6154 15.952 41.7167 15.952C41.8554 15.952 41.9634 15.9987 42.0407 16.092C42.118 16.1827 42.1567 16.3173 42.1567 16.496V18H41.8207V16.568C41.8207 16.4587 41.8034 16.38 41.7687 16.332C41.734 16.284 41.678 16.26 41.6007 16.26C41.494 16.26 41.4074 16.328 41.3407 16.464C41.2767 16.5973 41.2447 16.7933 41.2447 17.052V18H40.9087V16.568C40.9087 16.4587 40.8914 16.38 40.8567 16.332C40.822 16.284 40.766 16.26 40.6887 16.26C40.582 16.26 40.4954 16.328 40.4287 16.464C40.3647 16.5973 40.3327 16.7933 40.3327 17.052V18H39.9967ZM45.3096 17.752C45.147 17.5627 45.0656 17.3093 45.0656 16.992C45.0656 16.6747 45.147 16.4227 45.3096 16.236C45.475 16.0467 45.7016 15.952 45.9896 15.952C46.1176 15.952 46.2363 15.9787 46.3456 16.032C46.455 16.0853 46.5416 16.1547 46.6056 16.24V15.168H46.9416V18H46.6056V17.732C46.5416 17.82 46.4536 17.892 46.3416 17.948C46.2323 18.004 46.115 18.032 45.9896 18.032C45.7016 18.032 45.475 17.9387 45.3096 17.752ZM46.4656 17.528C46.5776 17.392 46.6336 17.2133 46.6336 16.992C46.6336 16.7707 46.5776 16.5933 46.4656 16.46C46.3563 16.324 46.2083 16.256 46.0216 16.256C45.835 16.256 45.6856 16.324 45.5736 16.46C45.4643 16.5933 45.4096 16.7707 45.4096 16.992C45.4096 17.2133 45.4643 17.392 45.5736 17.528C45.6856 17.6613 45.835 17.728 46.0216 17.728C46.2083 17.728 46.3563 17.6613 46.4656 17.528ZM47.7701 17.728C47.5861 17.5253 47.4941 17.28 47.4941 16.992C47.4941 16.704 47.5861 16.4587 47.7701 16.256C47.9541 16.0533 48.1928 15.952 48.4861 15.952C48.7794 15.952 49.0181 16.0533 49.2021 16.256C49.3861 16.4587 49.4781 16.704 49.4781 16.992C49.4781 17.28 49.3861 17.5253 49.2021 17.728C49.0181 17.9307 48.7794 18.032 48.4861 18.032C48.1928 18.032 47.9541 17.9307 47.7701 17.728ZM48.9541 17.516C49.0741 17.372 49.1341 17.1973 49.1341 16.992C49.1341 16.7867 49.0741 16.6133 48.9541 16.472C48.8368 16.328 48.6808 16.256 48.4861 16.256C48.2914 16.256 48.1341 16.328 48.0141 16.472C47.8968 16.6133 47.8381 16.7867 47.8381 16.992C47.8381 17.1973 47.8968 17.372 48.0141 17.516C48.1341 17.6573 48.2914 17.728 48.4861 17.728C48.6808 17.728 48.8368 17.6573 48.9541 17.516ZM50.4786 17.24V15.504H49.9226V15.2H50.8146V17.24C50.8146 17.5653 50.9559 17.728 51.2386 17.728C51.5026 17.728 51.6586 17.5653 51.7066 17.24L52.0106 17.3C51.9759 17.5373 51.8919 17.7187 51.7586 17.844C51.6252 17.9693 51.4519 18.032 51.2386 18.032C51.0039 18.032 50.8186 17.9627 50.6826 17.824C50.5466 17.6827 50.4786 17.488 50.4786 17.24ZM52.731 17.728C52.547 17.5253 52.455 17.28 52.455 16.992C52.455 16.704 52.547 16.4587 52.731 16.256C52.915 16.0533 53.1537 15.952 53.447 15.952C53.7404 15.952 53.979 16.0533 54.163 16.256C54.347 16.4587 54.439 16.704 54.439 16.992C54.439 17.28 54.347 17.5253 54.163 17.728C53.979 17.9307 53.7404 18.032 53.447 18.032C53.1537 18.032 52.915 17.9307 52.731 17.728ZM53.915 17.516C54.035 17.372 54.095 17.1973 54.095 16.992C54.095 16.7867 54.035 16.6133 53.915 16.472C53.7977 16.328 53.6417 16.256 53.447 16.256C53.2524 16.256 53.095 16.328 52.975 16.472C52.8577 16.6133 52.799 16.7867 52.799 16.992C52.799 17.1973 52.8577 17.372 52.975 17.516C53.095 17.6573 53.2524 17.728 53.447 17.728C53.6417 17.728 53.7977 17.6573 53.915 17.516ZM55.0555 18V15.984H55.3915V16.356C55.5622 16.0867 55.8102 15.952 56.1355 15.952C56.3355 15.952 56.4928 16.0107 56.6075 16.128C56.7248 16.2427 56.7888 16.408 56.7995 16.624H56.4635C56.4342 16.3787 56.3048 16.256 56.0755 16.256C55.8808 16.256 55.7182 16.3467 55.5875 16.528C55.4568 16.7067 55.3915 16.9547 55.3915 17.272V18H55.0555ZM60.0604 17.448L60.3804 17.328C60.4151 17.456 60.4818 17.5547 60.5804 17.624C60.6791 17.6933 60.7978 17.728 60.9364 17.728C61.0671 17.728 61.1711 17.704 61.2484 17.656C61.3258 17.6053 61.3644 17.5333 61.3644 17.44C61.3644 17.3467 61.3284 17.28 61.2564 17.24C61.1871 17.2 61.0498 17.16 60.8444 17.12C60.6284 17.08 60.4658 17.016 60.3564 16.928C60.2471 16.84 60.1924 16.7093 60.1924 16.536C60.1924 16.3627 60.2591 16.2227 60.3924 16.116C60.5258 16.0067 60.6884 15.952 60.8804 15.952C61.2244 15.952 61.4738 16.1013 61.6284 16.4L61.3524 16.576C61.2351 16.3627 61.0738 16.256 60.8684 16.256C60.7671 16.256 60.6831 16.28 60.6164 16.328C60.5524 16.3733 60.5204 16.4387 60.5204 16.524C60.5204 16.604 60.5564 16.668 60.6284 16.716C60.7031 16.764 60.8231 16.804 60.9884 16.836C61.2391 16.8867 61.4218 16.9547 61.5364 17.04C61.6538 17.1227 61.7124 17.2467 61.7124 17.412C61.7124 17.596 61.6364 17.7453 61.4844 17.86C61.3351 17.9747 61.1524 18.032 60.9364 18.032C60.7258 18.032 60.5418 17.9813 60.3844 17.88C60.2298 17.776 60.1218 17.632 60.0604 17.448ZM63.0449 15.448C63.0449 15.3707 63.0716 15.3053 63.1249 15.252C63.1782 15.196 63.2436 15.168 63.3209 15.168C63.3982 15.168 63.4636 15.196 63.5169 15.252C63.5702 15.3053 63.5969 15.3707 63.5969 15.448C63.5969 15.5253 63.5702 15.5907 63.5169 15.644C63.4636 15.6947 63.3982 15.72 63.3209 15.72C63.2436 15.72 63.1782 15.6933 63.1249 15.64C63.0716 15.5867 63.0449 15.5227 63.0449 15.448ZM62.4809 18V17.704H63.1769V16.28H62.5609V15.984H63.5129V17.704H64.2569V18H62.4809ZM65.4094 17.332V16.288H64.8734V15.984H65.4094V15.38L65.7454 15.168V15.984H66.4494V16.288H65.7454V17.32C65.7454 17.592 65.8614 17.728 66.0934 17.728C66.2667 17.728 66.432 17.648 66.5894 17.488L66.7134 17.772C66.54 17.9453 66.3334 18.032 66.0934 18.032C65.8694 18.032 65.6987 17.9733 65.5814 17.856C65.4667 17.7387 65.4094 17.564 65.4094 17.332ZM69.9823 17.42C69.9823 17.204 70.061 17.04 70.2183 16.928C70.3783 16.816 70.6036 16.76 70.8943 16.76H71.3023V16.672C71.3023 16.5307 71.261 16.4267 71.1783 16.36C71.0956 16.2907 70.9823 16.256 70.8383 16.256C70.7263 16.256 70.6263 16.288 70.5383 16.352C70.453 16.4133 70.3943 16.496 70.3623 16.6L70.0663 16.52C70.1116 16.3467 70.205 16.2093 70.3463 16.108C70.4876 16.004 70.6516 15.952 70.8383 15.952C71.0916 15.952 71.2876 16.0173 71.4263 16.148C71.5676 16.276 71.6383 16.4693 71.6383 16.728V18H71.3663L71.3183 17.716C71.2543 17.8093 71.157 17.8853 71.0263 17.944C70.8956 18.0027 70.7556 18.032 70.6063 18.032C70.4223 18.032 70.2716 17.9787 70.1543 17.872C70.0396 17.7627 69.9823 17.612 69.9823 17.42ZM71.3023 17.112V17.048H70.8623C70.6943 17.048 70.5623 17.0813 70.4663 17.148C70.373 17.2147 70.3263 17.3053 70.3263 17.42C70.3263 17.516 70.3556 17.592 70.4143 17.648C70.4756 17.7013 70.557 17.728 70.6583 17.728C70.821 17.728 70.969 17.6747 71.1023 17.568C71.2356 17.4613 71.3023 17.3093 71.3023 17.112ZM72.2428 18V15.984H72.5788V16.24C72.7014 16.048 72.8588 15.952 73.0508 15.952C73.2694 15.952 73.4081 16.0613 73.4668 16.28C73.5228 16.1787 73.5934 16.0987 73.6788 16.04C73.7668 15.9813 73.8614 15.952 73.9628 15.952C74.1014 15.952 74.2094 15.9987 74.2868 16.092C74.3641 16.1827 74.4028 16.3173 74.4028 16.496V18H74.0668V16.568C74.0668 16.4587 74.0494 16.38 74.0148 16.332C73.9801 16.284 73.9241 16.26 73.8468 16.26C73.7401 16.26 73.6534 16.328 73.5868 16.464C73.5228 16.5973 73.4908 16.7933 73.4908 17.052V18H73.1548V16.568C73.1548 16.4587 73.1374 16.38 73.1028 16.332C73.0681 16.284 73.0121 16.26 72.9348 16.26C72.8281 16.26 72.7414 16.328 72.6748 16.464C72.6108 16.5973 72.5788 16.7933 72.5788 17.052V18H72.2428ZM74.8113 16.992C74.8113 16.696 74.8993 16.4493 75.0753 16.252C75.2539 16.052 75.4873 15.952 75.7753 15.952C76.0686 15.952 76.3006 16.044 76.4713 16.228C76.6446 16.412 76.7313 16.644 76.7313 16.924V17.064H75.1553C75.1659 17.264 75.2273 17.4253 75.3393 17.548C75.4513 17.668 75.5966 17.728 75.7753 17.728C76.0633 17.728 76.2793 17.5947 76.4233 17.328L76.6913 17.468C76.4966 17.844 76.1913 18.032 75.7753 18.032C75.4899 18.032 75.2579 17.9333 75.0793 17.736C74.9006 17.5387 74.8113 17.2907 74.8113 16.992ZM75.1793 16.76H76.3753C76.3459 16.6 76.2793 16.476 76.1753 16.388C76.0713 16.3 75.9379 16.256 75.7753 16.256C75.6179 16.256 75.4873 16.3 75.3833 16.388C75.2819 16.476 75.2139 16.6 75.1793 16.76ZM77.8117 17.332V16.288H77.2757V15.984H77.8117V15.38L78.1477 15.168V15.984H78.8517V16.288H78.1477V17.32C78.1477 17.592 78.2637 17.728 78.4957 17.728C78.6691 17.728 78.8344 17.648 78.9917 17.488L79.1157 17.772C78.9424 17.9453 78.7357 18.032 78.4957 18.032C78.2717 18.032 78.1011 17.9733 77.9837 17.856C77.8691 17.7387 77.8117 17.564 77.8117 17.332ZM80.3322 18.412L80.5642 17.572H81.0322L80.5682 18.412H80.3322ZM15.612 23.732C15.436 23.5293 15.348 23.2827 15.348 22.992C15.348 22.7013 15.436 22.456 15.612 22.256C15.788 22.0533 16.0213 21.952 16.312 21.952C16.72 21.952 17.004 22.1373 17.164 22.508L16.872 22.628C16.7653 22.38 16.5787 22.256 16.312 22.256C16.12 22.256 15.968 22.324 15.856 22.46C15.7467 22.596 15.692 22.7733 15.692 22.992C15.692 23.2107 15.7467 23.388 15.856 23.524C15.968 23.66 16.12 23.728 16.312 23.728C16.5787 23.728 16.7653 23.604 16.872 23.356L17.164 23.476C17.004 23.8467 16.72 24.032 16.312 24.032C16.0213 24.032 15.788 23.932 15.612 23.732ZM18.0045 23.728C17.8205 23.5253 17.7285 23.28 17.7285 22.992C17.7285 22.704 17.8205 22.4587 18.0045 22.256C18.1885 22.0533 18.4271 21.952 18.7205 21.952C19.0138 21.952 19.2525 22.0533 19.4365 22.256C19.6205 22.4587 19.7125 22.704 19.7125 22.992C19.7125 23.28 19.6205 23.5253 19.4365 23.728C19.2525 23.9307 19.0138 24.032 18.7205 24.032C18.4271 24.032 18.1885 23.9307 18.0045 23.728ZM19.1885 23.516C19.3085 23.372 19.3685 23.1973 19.3685 22.992C19.3685 22.7867 19.3085 22.6133 19.1885 22.472C19.0711 22.328 18.9151 22.256 18.7205 22.256C18.5258 22.256 18.3685 22.328 18.2485 22.472C18.1311 22.6133 18.0725 22.7867 18.0725 22.992C18.0725 23.1973 18.1311 23.372 18.2485 23.516C18.3685 23.6573 18.5258 23.728 18.7205 23.728C18.9151 23.728 19.0711 23.6573 19.1885 23.516ZM20.3849 24V21.984H20.7209V22.356C20.7956 22.2333 20.8943 22.136 21.0169 22.064C21.1396 21.9893 21.2689 21.952 21.4049 21.952C21.6076 21.952 21.7609 22.0093 21.8649 22.124C21.9689 22.236 22.0209 22.3933 22.0209 22.596V24H21.6849V22.668C21.6849 22.3933 21.5609 22.256 21.3129 22.256C21.1449 22.256 21.0036 22.3413 20.8889 22.512C20.7769 22.6827 20.7209 22.908 20.7209 23.188V24H20.3849ZM22.8534 23.448L23.1734 23.328C23.2081 23.456 23.2747 23.5547 23.3734 23.624C23.4721 23.6933 23.5907 23.728 23.7294 23.728C23.8601 23.728 23.9641 23.704 24.0414 23.656C24.1187 23.6053 24.1574 23.5333 24.1574 23.44C24.1574 23.3467 24.1214 23.28 24.0494 23.24C23.9801 23.2 23.8427 23.16 23.6374 23.12C23.4214 23.08 23.2587 23.016 23.1494 22.928C23.0401 22.84 22.9854 22.7093 22.9854 22.536C22.9854 22.3627 23.0521 22.2227 23.1854 22.116C23.3187 22.0067 23.4814 21.952 23.6734 21.952C24.0174 21.952 24.2667 22.1013 24.4214 22.4L24.1454 22.576C24.0281 22.3627 23.8667 22.256 23.6614 22.256C23.5601 22.256 23.4761 22.28 23.4094 22.328C23.3454 22.3733 23.3134 22.4387 23.3134 22.524C23.3134 22.604 23.3494 22.668 23.4214 22.716C23.4961 22.764 23.6161 22.804 23.7814 22.836C24.0321 22.8867 24.2147 22.9547 24.3294 23.04C24.4467 23.1227 24.5054 23.2467 24.5054 23.412C24.5054 23.596 24.4294 23.7453 24.2774 23.86C24.1281 23.9747 23.9454 24.032 23.7294 24.032C23.5187 24.032 23.3347 23.9813 23.1774 23.88C23.0227 23.776 22.9147 23.632 22.8534 23.448ZM25.2019 22.992C25.2019 22.696 25.2899 22.4493 25.4659 22.252C25.6445 22.052 25.8779 21.952 26.1659 21.952C26.4592 21.952 26.6912 22.044 26.8619 22.228C27.0352 22.412 27.1219 22.644 27.1219 22.924V23.064H25.5459C25.5565 23.264 25.6179 23.4253 25.7299 23.548C25.8419 23.668 25.9872 23.728 26.1659 23.728C26.4539 23.728 26.6699 23.5947 26.8139 23.328L27.0819 23.468C26.8872 23.844 26.5819 24.032 26.1659 24.032C25.8805 24.032 25.6485 23.9333 25.4699 23.736C25.2912 23.5387 25.2019 23.2907 25.2019 22.992ZM25.5699 22.76H26.7659C26.7365 22.6 26.6699 22.476 26.5659 22.388C26.4619 22.3 26.3285 22.256 26.1659 22.256C26.0085 22.256 25.8779 22.3 25.7739 22.388C25.6725 22.476 25.6045 22.6 25.5699 22.76ZM28.0143 23.732C27.8383 23.5293 27.7503 23.2827 27.7503 22.992C27.7503 22.7013 27.8383 22.456 28.0143 22.256C28.1903 22.0533 28.4237 21.952 28.7143 21.952C29.1223 21.952 29.4063 22.1373 29.5663 22.508L29.2743 22.628C29.1677 22.38 28.981 22.256 28.7143 22.256C28.5223 22.256 28.3703 22.324 28.2583 22.46C28.149 22.596 28.0943 22.7733 28.0943 22.992C28.0943 23.2107 28.149 23.388 28.2583 23.524C28.3703 23.66 28.5223 23.728 28.7143 23.728C28.981 23.728 29.1677 23.604 29.2743 23.356L29.5663 23.476C29.4063 23.8467 29.1223 24.032 28.7143 24.032C28.4237 24.032 28.1903 23.932 28.0143 23.732ZM30.6828 23.332V22.288H30.1468V21.984H30.6828V21.38L31.0188 21.168V21.984H31.7228V22.288H31.0188V23.32C31.0188 23.592 31.1348 23.728 31.3668 23.728C31.5401 23.728 31.7055 23.648 31.8628 23.488L31.9868 23.772C31.8135 23.9453 31.6068 24.032 31.3668 24.032C31.1428 24.032 30.9721 23.9733 30.8548 23.856C30.7401 23.7387 30.6828 23.564 30.6828 23.332ZM32.6433 22.992C32.6433 22.696 32.7313 22.4493 32.9073 22.252C33.0859 22.052 33.3193 21.952 33.6073 21.952C33.9006 21.952 34.1326 22.044 34.3033 22.228C34.4766 22.412 34.5633 22.644 34.5633 22.924V23.064H32.9873C32.9979 23.264 33.0593 23.4253 33.1713 23.548C33.2833 23.668 33.4286 23.728 33.6073 23.728C33.8953 23.728 34.1113 23.5947 34.2553 23.328L34.5233 23.468C34.3286 23.844 34.0233 24.032 33.6073 24.032C33.3219 24.032 33.0899 23.9333 32.9113 23.736C32.7326 23.5387 32.6433 23.2907 32.6433 22.992ZM33.0113 22.76H34.2073C34.1779 22.6 34.1113 22.476 34.0073 22.388C33.9033 22.3 33.7699 22.256 33.6073 22.256C33.4499 22.256 33.3193 22.3 33.2153 22.388C33.1139 22.476 33.0459 22.6 33.0113 22.76ZM35.6438 23.332V22.288H35.1077V21.984H35.6438V21.38L35.9798 21.168V21.984H36.6838V22.288H35.9798V23.32C35.9798 23.592 36.0958 23.728 36.3278 23.728C36.5011 23.728 36.6664 23.648 36.8238 23.488L36.9478 23.772C36.7744 23.9453 36.5678 24.032 36.3278 24.032C36.1038 24.032 35.9331 23.9733 35.8158 23.856C35.7011 23.7387 35.6438 23.564 35.6438 23.332ZM37.7442 23.388V21.984H38.0802V23.316C38.0802 23.5907 38.2042 23.728 38.4522 23.728C38.6202 23.728 38.7602 23.6427 38.8722 23.472C38.9869 23.3013 39.0442 23.076 39.0442 22.796V21.984H39.3802V24H39.0442V23.628C38.9696 23.7507 38.8709 23.8493 38.7482 23.924C38.6256 23.996 38.4962 24.032 38.3602 24.032C38.1576 24.032 38.0042 23.976 37.9002 23.864C37.7962 23.7493 37.7442 23.5907 37.7442 23.388ZM40.1727 24V21.984H40.5087V22.356C40.6794 22.0867 40.9274 21.952 41.2527 21.952C41.4527 21.952 41.61 22.0107 41.7247 22.128C41.842 22.2427 41.906 22.408 41.9167 22.624H41.5807C41.5514 22.3787 41.422 22.256 41.1927 22.256C40.998 22.256 40.8354 22.3467 40.7047 22.528C40.574 22.7067 40.5087 22.9547 40.5087 23.272V24H40.1727ZM45.1776 23.42C45.1776 23.204 45.2563 23.04 45.4136 22.928C45.5736 22.816 45.799 22.76 46.0896 22.76H46.4976V22.672C46.4976 22.5307 46.4563 22.4267 46.3736 22.36C46.291 22.2907 46.1776 22.256 46.0336 22.256C45.9216 22.256 45.8216 22.288 45.7336 22.352C45.6483 22.4133 45.5896 22.496 45.5576 22.6L45.2616 22.52C45.307 22.3467 45.4003 22.2093 45.5416 22.108C45.683 22.004 45.847 21.952 46.0336 21.952C46.287 21.952 46.483 22.0173 46.6216 22.148C46.763 22.276 46.8336 22.4693 46.8336 22.728V24H46.5616L46.5136 23.716C46.4496 23.8093 46.3523 23.8853 46.2216 23.944C46.091 24.0027 45.951 24.032 45.8016 24.032C45.6176 24.032 45.467 23.9787 45.3496 23.872C45.235 23.7627 45.1776 23.612 45.1776 23.42ZM46.4976 23.112V23.048H46.0576C45.8896 23.048 45.7576 23.0813 45.6616 23.148C45.5683 23.2147 45.5216 23.3053 45.5216 23.42C45.5216 23.516 45.551 23.592 45.6096 23.648C45.671 23.7013 45.7523 23.728 45.8536 23.728C46.0163 23.728 46.1643 23.6747 46.2976 23.568C46.431 23.4613 46.4976 23.3093 46.4976 23.112ZM47.7901 23.752C47.6274 23.5627 47.5461 23.3093 47.5461 22.992C47.5461 22.6747 47.6274 22.4227 47.7901 22.236C47.9554 22.0467 48.1821 21.952 48.4701 21.952C48.5981 21.952 48.7168 21.9787 48.8261 22.032C48.9354 22.0853 49.0221 22.1547 49.0861 22.24V21.168H49.4221V24H49.0861V23.732C49.0221 23.82 48.9341 23.892 48.8221 23.948C48.7128 24.004 48.5954 24.032 48.4701 24.032C48.1821 24.032 47.9554 23.9387 47.7901 23.752ZM48.9461 23.528C49.0581 23.392 49.1141 23.2133 49.1141 22.992C49.1141 22.7707 49.0581 22.5933 48.9461 22.46C48.8368 22.324 48.6888 22.256 48.5021 22.256C48.3154 22.256 48.1661 22.324 48.0541 22.46C47.9448 22.5933 47.8901 22.7707 47.8901 22.992C47.8901 23.2133 47.9448 23.392 48.0541 23.528C48.1661 23.6613 48.3154 23.728 48.5021 23.728C48.6888 23.728 48.8368 23.6613 48.9461 23.528ZM50.6426 21.448C50.6426 21.3707 50.6692 21.3053 50.7226 21.252C50.7759 21.196 50.8412 21.168 50.9186 21.168C50.9959 21.168 51.0612 21.196 51.1146 21.252C51.1679 21.3053 51.1946 21.3707 51.1946 21.448C51.1946 21.5253 51.1679 21.5907 51.1146 21.644C51.0612 21.6947 50.9959 21.72 50.9186 21.72C50.8412 21.72 50.7759 21.6933 50.7226 21.64C50.6692 21.5867 50.6426 21.5227 50.6426 21.448ZM50.0786 24V23.704H50.7746V22.28H50.1586V21.984H51.1106V23.704H51.8546V24H50.0786ZM52.631 24.816V21.984H52.967V22.252C53.031 22.164 53.1177 22.092 53.227 22.036C53.339 21.98 53.4577 21.952 53.583 21.952C53.871 21.952 54.0964 22.0467 54.259 22.236C54.4244 22.4227 54.507 22.6747 54.507 22.992C54.507 23.3093 54.4244 23.5627 54.259 23.752C54.0964 23.9387 53.871 24.032 53.583 24.032C53.455 24.032 53.3364 24.0053 53.227 23.952C53.1177 23.8987 53.031 23.8293 52.967 23.744V24.816H52.631ZM53.995 23.528C54.107 23.392 54.163 23.2133 54.163 22.992C54.163 22.7707 54.107 22.5933 53.995 22.46C53.8857 22.324 53.7377 22.256 53.551 22.256C53.3644 22.256 53.215 22.324 53.103 22.46C52.9937 22.5933 52.939 22.7707 52.939 22.992C52.939 23.2133 52.9937 23.392 53.103 23.528C53.215 23.6613 53.3644 23.728 53.551 23.728C53.7377 23.728 53.8857 23.6613 53.995 23.528ZM55.6035 21.448C55.6035 21.3707 55.6302 21.3053 55.6835 21.252C55.7368 21.196 55.8022 21.168 55.8795 21.168C55.9568 21.168 56.0222 21.196 56.0755 21.252C56.1288 21.3053 56.1555 21.3707 56.1555 21.448C56.1555 21.5253 56.1288 21.5907 56.0755 21.644C56.0222 21.6947 55.9568 21.72 55.8795 21.72C55.8022 21.72 55.7368 21.6933 55.6835 21.64C55.6302 21.5867 55.6035 21.5227 55.6035 21.448ZM55.0395 24V23.704H55.7355V22.28H55.1195V21.984H56.0715V23.704H56.8155V24H55.0395ZM57.58 23.448L57.9 23.328C57.9346 23.456 58.0013 23.5547 58.1 23.624C58.1986 23.6933 58.3173 23.728 58.456 23.728C58.5866 23.728 58.6906 23.704 58.768 23.656C58.8453 23.6053 58.884 23.5333 58.884 23.44C58.884 23.3467 58.848 23.28 58.776 23.24C58.7066 23.2 58.5693 23.16 58.364 23.12C58.148 23.08 57.9853 23.016 57.876 22.928C57.7666 22.84 57.712 22.7093 57.712 22.536C57.712 22.3627 57.7786 22.2227 57.912 22.116C58.0453 22.0067 58.208 21.952 58.4 21.952C58.744 21.952 58.9933 22.1013 59.148 22.4L58.872 22.576C58.7546 22.3627 58.5933 22.256 58.388 22.256C58.2866 22.256 58.2026 22.28 58.136 22.328C58.072 22.3733 58.04 22.4387 58.04 22.524C58.04 22.604 58.076 22.668 58.148 22.716C58.2226 22.764 58.3426 22.804 58.508 22.836C58.7586 22.8867 58.9413 22.9547 59.056 23.04C59.1733 23.1227 59.232 23.2467 59.232 23.412C59.232 23.596 59.156 23.7453 59.004 23.86C58.8546 23.9747 58.672 24.032 58.456 24.032C58.2453 24.032 58.0613 23.9813 57.904 23.88C57.7493 23.776 57.6413 23.632 57.58 23.448ZM60.2604 23.732C60.0844 23.5293 59.9964 23.2827 59.9964 22.992C59.9964 22.7013 60.0844 22.456 60.2604 22.256C60.4364 22.0533 60.6698 21.952 60.9604 21.952C61.3684 21.952 61.6524 22.1373 61.8124 22.508L61.5204 22.628C61.4138 22.38 61.2271 22.256 60.9604 22.256C60.7684 22.256 60.6164 22.324 60.5044 22.46C60.3951 22.596 60.3404 22.7733 60.3404 22.992C60.3404 23.2107 60.3951 23.388 60.5044 23.524C60.6164 23.66 60.7684 23.728 60.9604 23.728C61.2271 23.728 61.4138 23.604 61.5204 23.356L61.8124 23.476C61.6524 23.8467 61.3684 24.032 60.9604 24.032C60.6698 24.032 60.4364 23.932 60.2604 23.732ZM63.0449 21.448C63.0449 21.3707 63.0716 21.3053 63.1249 21.252C63.1782 21.196 63.2436 21.168 63.3209 21.168C63.3982 21.168 63.4636 21.196 63.5169 21.252C63.5702 21.3053 63.5969 21.3707 63.5969 21.448C63.5969 21.5253 63.5702 21.5907 63.5169 21.644C63.4636 21.6947 63.3982 21.72 63.3209 21.72C63.2436 21.72 63.1782 21.6933 63.1249 21.64C63.0716 21.5867 63.0449 21.5227 63.0449 21.448ZM62.4809 24V23.704H63.1769V22.28H62.5609V21.984H63.5129V23.704H64.2569V24H62.4809ZM65.0334 24V21.984H65.3694V22.356C65.444 22.2333 65.5427 22.136 65.6654 22.064C65.788 21.9893 65.9174 21.952 66.0534 21.952C66.256 21.952 66.4094 22.0093 66.5134 22.124C66.6174 22.236 66.6694 22.3933 66.6694 22.596V24H66.3334V22.668C66.3334 22.3933 66.2094 22.256 65.9614 22.256C65.7934 22.256 65.652 22.3413 65.5374 22.512C65.4254 22.6827 65.3694 22.908 65.3694 23.188V24H65.0334ZM67.4218 24.184C67.4218 24 67.4912 23.856 67.6298 23.752C67.5338 23.6747 67.4858 23.572 67.4858 23.444C67.4858 23.3533 67.5112 23.272 67.5618 23.2C67.6152 23.128 67.6885 23.0747 67.7818 23.04C67.6992 22.9307 67.6578 22.7933 67.6578 22.628C67.6578 22.4253 67.7245 22.2627 67.8578 22.14C67.9912 22.0147 68.1618 21.952 68.3698 21.952C68.5112 21.952 68.6432 21.9867 68.7658 22.056L69.1858 21.84L69.3378 22.116L68.9978 22.292C69.0538 22.388 69.0818 22.5 69.0818 22.628C69.0818 22.8307 69.0152 22.9947 68.8818 23.12C68.7512 23.2427 68.5805 23.304 68.3698 23.304C68.2312 23.304 68.1072 23.276 67.9978 23.22C67.8752 23.268 67.8138 23.3373 67.8138 23.428C67.8138 23.54 67.9085 23.596 68.0978 23.596H68.6218C68.8378 23.596 69.0045 23.644 69.1218 23.74C69.2392 23.8333 69.2978 23.9707 69.2978 24.152C69.2978 24.3867 69.2058 24.5613 69.0218 24.676C68.8405 24.7907 68.6178 24.848 68.3538 24.848C68.0578 24.848 67.8285 24.7907 67.6658 24.676C67.5032 24.5613 67.4218 24.3973 67.4218 24.184ZM68.6458 22.912C68.7178 22.8427 68.7538 22.748 68.7538 22.628C68.7538 22.508 68.7178 22.4133 68.6458 22.344C68.5738 22.2747 68.4818 22.24 68.3698 22.24C68.2578 22.24 68.1658 22.276 68.0938 22.348C68.0218 22.4173 67.9858 22.5107 67.9858 22.628C67.9858 22.7453 68.0218 22.84 68.0938 22.912C68.1658 22.9813 68.2578 23.016 68.3698 23.016C68.4818 23.016 68.5738 22.9813 68.6458 22.912ZM68.9538 24.184C68.9538 23.984 68.8405 23.884 68.6138 23.884H68.1378C68.0498 23.884 67.9805 23.8787 67.9298 23.868C67.8152 23.9267 67.7578 24.028 67.7578 24.172C67.7578 24.2893 67.8112 24.3813 67.9178 24.448C68.0245 24.5173 68.1698 24.552 68.3538 24.552C68.5432 24.552 68.6898 24.5187 68.7938 24.452C68.9005 24.388 68.9538 24.2987 68.9538 24.184ZM72.3308 22.992C72.3308 22.696 72.4188 22.4493 72.5948 22.252C72.7734 22.052 73.0068 21.952 73.2948 21.952C73.5881 21.952 73.8201 22.044 73.9908 22.228C74.1641 22.412 74.2508 22.644 74.2508 22.924V23.064H72.6748C72.6854 23.264 72.7468 23.4253 72.8588 23.548C72.9708 23.668 73.1161 23.728 73.2948 23.728C73.5828 23.728 73.7988 23.5947 73.9428 23.328L74.2108 23.468C74.0161 23.844 73.7108 24.032 73.2948 24.032C73.0094 24.032 72.7774 23.9333 72.5988 23.736C72.4201 23.5387 72.3308 23.2907 72.3308 22.992ZM72.6988 22.76H73.8948C73.8654 22.6 73.7988 22.476 73.6948 22.388C73.5908 22.3 73.4574 22.256 73.2948 22.256C73.1374 22.256 73.0068 22.3 72.9028 22.388C72.8014 22.476 72.7334 22.6 72.6988 22.76ZM75.2833 23.24V21.504H74.7273V21.2H75.6193V23.24C75.6193 23.5653 75.7606 23.728 76.0433 23.728C76.3073 23.728 76.4633 23.5653 76.5113 23.24L76.8153 23.3C76.7806 23.5373 76.6966 23.7187 76.5633 23.844C76.4299 23.9693 76.2566 24.032 76.0433 24.032C75.8086 24.032 75.6233 23.9627 75.4873 23.824C75.3513 23.6827 75.2833 23.488 75.2833 23.24ZM77.9277 21.448C77.9277 21.3707 77.9544 21.3053 78.0077 21.252C78.0611 21.196 78.1264 21.168 78.2037 21.168C78.2811 21.168 78.3464 21.196 78.3997 21.252C78.4531 21.3053 78.4797 21.3707 78.4797 21.448C78.4797 21.5253 78.4531 21.5907 78.3997 21.644C78.3464 21.6947 78.2811 21.72 78.2037 21.72C78.1264 21.72 78.0611 21.6933 78.0077 21.64C77.9544 21.5867 77.9277 21.5227 77.9277 21.448ZM77.3637 24V23.704H78.0597V22.28H77.4437V21.984H78.3957V23.704H79.1397V24H77.3637ZM80.2922 23.332V22.288H79.7562V21.984H80.2922V21.38L80.6282 21.168V21.984H81.3322V22.288H80.6282V23.32C80.6282 23.592 80.7442 23.728 80.9762 23.728C81.1495 23.728 81.3149 23.648 81.4722 23.488L81.5962 23.772C81.4229 23.9453 81.2162 24.032 80.9762 24.032C80.7522 24.032 80.5815 23.9733 80.4642 23.856C80.3495 23.7387 80.2922 23.564 80.2922 23.332ZM83.0327 23.944C82.9873 23.896 82.9647 23.836 82.9647 23.764C82.9647 23.692 82.9873 23.6333 83.0327 23.588C83.0807 23.54 83.1407 23.516 83.2127 23.516C83.2847 23.516 83.3433 23.54 83.3887 23.588C83.4367 23.6333 83.4607 23.692 83.4607 23.764C83.4607 23.836 83.4367 23.896 83.3887 23.944C83.3433 23.9893 83.2847 24.012 83.2127 24.012C83.1407 24.012 83.0807 23.9893 83.0327 23.944ZM87.3296 24V21.2H88.3896C88.6536 21.2 88.8576 21.2707 89.0016 21.412C89.1483 21.5533 89.2216 21.7493 89.2216 22C89.2216 22.2507 89.1483 22.4467 89.0016 22.588C88.8576 22.7293 88.6536 22.8 88.3896 22.8H87.6816V24H87.3296ZM87.6816 22.464H88.3816C88.5363 22.464 88.6536 22.4253 88.7336 22.348C88.8163 22.268 88.8576 22.152 88.8576 22C88.8576 21.848 88.8163 21.7333 88.7336 21.656C88.6536 21.576 88.5363 21.536 88.3816 21.536H87.6816V22.464ZM89.7821 24V21.984H90.1181V22.356C90.2887 22.0867 90.5367 21.952 90.8621 21.952C91.0621 21.952 91.2194 22.0107 91.3341 22.128C91.4514 22.2427 91.5154 22.408 91.5261 22.624H91.1901C91.1607 22.3787 91.0314 22.256 90.8021 22.256C90.6074 22.256 90.4447 22.3467 90.3141 22.528C90.1834 22.7067 90.1181 22.9547 90.1181 23.272V24H89.7821ZM92.4185 23.728C92.2345 23.5253 92.1425 23.28 92.1425 22.992C92.1425 22.704 92.2345 22.4587 92.4185 22.256C92.6025 22.0533 92.8412 21.952 93.1345 21.952C93.4279 21.952 93.6665 22.0533 93.8505 22.256C94.0345 22.4587 94.1265 22.704 94.1265 22.992C94.1265 23.28 94.0345 23.5253 93.8505 23.728C93.6665 23.9307 93.4279 24.032 93.1345 24.032C92.8412 24.032 92.6025 23.9307 92.4185 23.728ZM93.6025 23.516C93.7225 23.372 93.7825 23.1973 93.7825 22.992C93.7825 22.7867 93.7225 22.6133 93.6025 22.472C93.4852 22.328 93.3292 22.256 93.1345 22.256C92.9399 22.256 92.7825 22.328 92.6625 22.472C92.5452 22.6133 92.4865 22.7867 92.4865 22.992C92.4865 23.1973 92.5452 23.372 92.6625 23.516C92.7825 23.6573 92.9399 23.728 93.1345 23.728C93.3292 23.728 93.4852 23.6573 93.6025 23.516ZM95.291 21.448C95.291 21.3707 95.3177 21.3053 95.371 21.252C95.4243 21.196 95.4897 21.168 95.567 21.168C95.6443 21.168 95.7097 21.196 95.763 21.252C95.8163 21.3053 95.843 21.3707 95.843 21.448C95.843 21.5253 95.8163 21.5907 95.763 21.644C95.7097 21.6947 95.6443 21.72 95.567 21.72C95.4897 21.72 95.4243 21.6933 95.371 21.64C95.3177 21.5867 95.291 21.5227 95.291 21.448ZM94.727 24V23.704H95.423V22.28H94.807V21.984H95.759V23.704H96.503V24H94.727ZM97.2795 24V21.984H97.6155V22.356C97.6901 22.2333 97.7888 22.136 97.9115 22.064C98.0341 21.9893 98.1635 21.952 98.2995 21.952C98.5021 21.952 98.6555 22.0093 98.7595 22.124C98.8635 22.236 98.9155 22.3933 98.9155 22.596V24H98.5795V22.668C98.5795 22.3933 98.4555 22.256 98.2075 22.256C98.0395 22.256 97.8981 22.3413 97.7835 22.512C97.6715 22.6827 97.6155 22.908 97.6155 23.188V24H97.2795ZM15.192 30V27.984H15.528V28.24C15.6507 28.048 15.808 27.952 16 27.952C16.2187 27.952 16.3573 28.0613 16.416 28.28C16.472 28.1787 16.5427 28.0987 16.628 28.04C16.716 27.9813 16.8107 27.952 16.912 27.952C17.0507 27.952 17.1587 27.9987 17.236 28.092C17.3133 28.1827 17.352 28.3173 17.352 28.496V30H17.016V28.568C17.016 28.4587 16.9987 28.38 16.964 28.332C16.9293 28.284 16.8733 28.26 16.796 28.26C16.6893 28.26 16.6027 28.328 16.536 28.464C16.472 28.5973 16.44 28.7933 16.44 29.052V30H16.104V28.568C16.104 28.4587 16.0867 28.38 16.052 28.332C16.0173 28.284 15.9613 28.26 15.884 28.26C15.7773 28.26 15.6907 28.328 15.624 28.464C15.56 28.5973 15.528 28.7933 15.528 29.052V30H15.192ZM17.8925 29.42C17.8925 29.204 17.9711 29.04 18.1285 28.928C18.2885 28.816 18.5138 28.76 18.8045 28.76H19.2125V28.672C19.2125 28.5307 19.1711 28.4267 19.0885 28.36C19.0058 28.2907 18.8925 28.256 18.7485 28.256C18.6365 28.256 18.5365 28.288 18.4485 28.352C18.3631 28.4133 18.3045 28.496 18.2725 28.6L17.9765 28.52C18.0218 28.3467 18.1151 28.2093 18.2565 28.108C18.3978 28.004 18.5618 27.952 18.7485 27.952C19.0018 27.952 19.1978 28.0173 19.3365 28.148C19.4778 28.276 19.5485 28.4693 19.5485 28.728V30H19.2765L19.2285 29.716C19.1645 29.8093 19.0671 29.8853 18.9365 29.944C18.8058 30.0027 18.6658 30.032 18.5165 30.032C18.3325 30.032 18.1818 29.9787 18.0645 29.872C17.9498 29.7627 17.8925 29.612 17.8925 29.42ZM19.2125 29.112V29.048H18.7725C18.6045 29.048 18.4725 29.0813 18.3765 29.148C18.2831 29.2147 18.2365 29.3053 18.2365 29.42C18.2365 29.516 18.2658 29.592 18.3245 29.648C18.3858 29.7013 18.4671 29.728 18.5685 29.728C18.7311 29.728 18.8791 29.6747 19.0125 29.568C19.1458 29.4613 19.2125 29.3093 19.2125 29.112ZM20.7609 29.332V28.288H20.2249V27.984H20.7609V27.38L21.0969 27.168V27.984H21.8009V28.288H21.0969V29.32C21.0969 29.592 21.2129 29.728 21.4449 29.728C21.6183 29.728 21.7836 29.648 21.9409 29.488L22.0649 29.772C21.8916 29.9453 21.6849 30.032 21.4449 30.032C21.2209 30.032 21.0503 29.9733 20.9329 29.856C20.8183 29.7387 20.7609 29.564 20.7609 29.332ZM23.2414 29.332V28.288H22.7054V27.984H23.2414V27.38L23.5774 27.168V27.984H24.2814V28.288H23.5774V29.32C23.5774 29.592 23.6934 29.728 23.9254 29.728C24.0987 29.728 24.2641 29.648 24.4214 29.488L24.5454 29.772C24.3721 29.9453 24.1654 30.032 23.9254 30.032C23.7014 30.032 23.5307 29.9733 23.4134 29.856C23.2987 29.7387 23.2414 29.564 23.2414 29.332ZM25.8379 27.448C25.8379 27.3707 25.8645 27.3053 25.9179 27.252C25.9712 27.196 26.0365 27.168 26.1139 27.168C26.1912 27.168 26.2565 27.196 26.3099 27.252C26.3632 27.3053 26.3899 27.3707 26.3899 27.448C26.3899 27.5253 26.3632 27.5907 26.3099 27.644C26.2565 27.6947 26.1912 27.72 26.1139 27.72C26.0365 27.72 25.9712 27.6933 25.9179 27.64C25.8645 27.5867 25.8379 27.5227 25.8379 27.448ZM25.2739 30V29.704H25.9699V28.28H25.3539V27.984H26.3059V29.704H27.0499V30H25.2739ZM27.8143 29.448L28.1343 29.328C28.169 29.456 28.2357 29.5547 28.3343 29.624C28.433 29.6933 28.5517 29.728 28.6903 29.728C28.821 29.728 28.925 29.704 29.0023 29.656C29.0797 29.6053 29.1183 29.5333 29.1183 29.44C29.1183 29.3467 29.0823 29.28 29.0103 29.24C28.941 29.2 28.8037 29.16 28.5983 29.12C28.3823 29.08 28.2197 29.016 28.1103 28.928C28.001 28.84 27.9463 28.7093 27.9463 28.536C27.9463 28.3627 28.013 28.2227 28.1463 28.116C28.2797 28.0067 28.4423 27.952 28.6343 27.952C28.9783 27.952 29.2277 28.1013 29.3823 28.4L29.1063 28.576C28.989 28.3627 28.8277 28.256 28.6223 28.256C28.521 28.256 28.437 28.28 28.3703 28.328C28.3063 28.3733 28.2743 28.4387 28.2743 28.524C28.2743 28.604 28.3103 28.668 28.3823 28.716C28.457 28.764 28.577 28.804 28.7423 28.836C28.993 28.8867 29.1757 28.9547 29.2903 29.04C29.4077 29.1227 29.4663 29.2467 29.4663 29.412C29.4663 29.596 29.3903 29.7453 29.2383 29.86C29.089 29.9747 28.9063 30.032 28.6903 30.032C28.4797 30.032 28.2957 29.9813 28.1383 29.88C27.9837 29.776 27.8757 29.632 27.8143 29.448ZM32.5553 30V27.984H32.8913V28.24C33.0139 28.048 33.1713 27.952 33.3633 27.952C33.5819 27.952 33.7206 28.0613 33.7793 28.28C33.8353 28.1787 33.9059 28.0987 33.9913 28.04C34.0793 27.9813 34.1739 27.952 34.2753 27.952C34.4139 27.952 34.5219 27.9987 34.5993 28.092C34.6766 28.1827 34.7153 28.3173 34.7153 28.496V30H34.3793V28.568C34.3793 28.4587 34.3619 28.38 34.3273 28.332C34.2926 28.284 34.2366 28.26 34.1593 28.26C34.0526 28.26 33.9659 28.328 33.8993 28.464C33.8353 28.5973 33.8033 28.7933 33.8033 29.052V30H33.4673V28.568C33.4673 28.4587 33.4499 28.38 33.4153 28.332C33.3806 28.284 33.3246 28.26 33.2473 28.26C33.1406 28.26 33.0539 28.328 32.9873 28.464C32.9233 28.5973 32.8913 28.7933 32.8913 29.052V30H32.5553ZM35.3678 29.728C35.1838 29.5253 35.0918 29.28 35.0918 28.992C35.0918 28.704 35.1838 28.4587 35.3678 28.256C35.5518 28.0533 35.7904 27.952 36.0838 27.952C36.3771 27.952 36.6158 28.0533 36.7998 28.256C36.9838 28.4587 37.0758 28.704 37.0758 28.992C37.0758 29.28 36.9838 29.5253 36.7998 29.728C36.6158 29.9307 36.3771 30.032 36.0838 30.032C35.7904 30.032 35.5518 29.9307 35.3678 29.728ZM36.5518 29.516C36.6718 29.372 36.7318 29.1973 36.7318 28.992C36.7318 28.7867 36.6718 28.6133 36.5518 28.472C36.4344 28.328 36.2784 28.256 36.0838 28.256C35.8891 28.256 35.7318 28.328 35.6118 28.472C35.4944 28.6133 35.4358 28.7867 35.4358 28.992C35.4358 29.1973 35.4944 29.372 35.6118 29.516C35.7318 29.6573 35.8891 29.728 36.0838 29.728C36.2784 29.728 36.4344 29.6573 36.5518 29.516ZM38.0762 29.24V27.504H37.5202V27.2H38.4122V29.24C38.4122 29.5653 38.5536 29.728 38.8362 29.728C39.1002 29.728 39.2562 29.5653 39.3042 29.24L39.6082 29.3C39.5736 29.5373 39.4896 29.7187 39.3562 29.844C39.2229 29.9693 39.0496 30.032 38.8362 30.032C38.6016 30.032 38.4162 29.9627 38.2802 29.824C38.1442 29.6827 38.0762 29.488 38.0762 29.24ZM40.0847 28.992C40.0847 28.696 40.1727 28.4493 40.3487 28.252C40.5274 28.052 40.7607 27.952 41.0487 27.952C41.342 27.952 41.574 28.044 41.7447 28.228C41.918 28.412 42.0047 28.644 42.0047 28.924V29.064H40.4287C40.4394 29.264 40.5007 29.4253 40.6127 29.548C40.7247 29.668 40.87 29.728 41.0487 29.728C41.3367 29.728 41.5527 29.5947 41.6967 29.328L41.9647 29.468C41.77 29.844 41.4647 30.032 41.0487 30.032C40.7634 30.032 40.5314 29.9333 40.3527 29.736C40.174 29.5387 40.0847 29.2907 40.0847 28.992ZM40.4527 28.76H41.6487C41.6194 28.6 41.5527 28.476 41.4487 28.388C41.3447 28.3 41.2114 28.256 41.0487 28.256C40.8914 28.256 40.7607 28.3 40.6567 28.388C40.5554 28.476 40.4874 28.6 40.4527 28.76ZM42.6972 29.448L43.0172 29.328C43.0518 29.456 43.1185 29.5547 43.2172 29.624C43.3158 29.6933 43.4345 29.728 43.5732 29.728C43.7038 29.728 43.8078 29.704 43.8852 29.656C43.9625 29.6053 44.0012 29.5333 44.0012 29.44C44.0012 29.3467 43.9652 29.28 43.8932 29.24C43.8238 29.2 43.6865 29.16 43.4812 29.12C43.2652 29.08 43.1025 29.016 42.9932 28.928C42.8838 28.84 42.8292 28.7093 42.8292 28.536C42.8292 28.3627 42.8958 28.2227 43.0292 28.116C43.1625 28.0067 43.3252 27.952 43.5172 27.952C43.8612 27.952 44.1105 28.1013 44.2652 28.4L43.9892 28.576C43.8718 28.3627 43.7105 28.256 43.5052 28.256C43.4038 28.256 43.3198 28.28 43.2532 28.328C43.1892 28.3733 43.1572 28.4387 43.1572 28.524C43.1572 28.604 43.1932 28.668 43.2652 28.716C43.3398 28.764 43.4598 28.804 43.6252 28.836C43.8758 28.8867 44.0585 28.9547 44.1732 29.04C44.2905 29.1227 44.3492 29.2467 44.3492 29.412C44.3492 29.596 44.2732 29.7453 44.1212 29.86C43.9718 29.9747 43.7892 30.032 43.5732 30.032C43.3625 30.032 43.1785 29.9813 43.0212 29.88C42.8665 29.776 42.7585 29.632 42.6972 29.448ZM45.5656 29.332V28.288H45.0296V27.984H45.5656V27.38L45.9016 27.168V27.984H46.6056V28.288H45.9016V29.32C45.9016 29.592 46.0176 29.728 46.2496 29.728C46.423 29.728 46.5883 29.648 46.7456 29.488L46.8696 29.772C46.6963 29.9453 46.4896 30.032 46.2496 30.032C46.0256 30.032 45.855 29.9733 45.7376 29.856C45.623 29.7387 45.5656 29.564 45.5656 29.332ZM48.1621 27.448C48.1621 27.3707 48.1888 27.3053 48.2421 27.252C48.2954 27.196 48.3608 27.168 48.4381 27.168C48.5154 27.168 48.5808 27.196 48.6341 27.252C48.6874 27.3053 48.7141 27.3707 48.7141 27.448C48.7141 27.5253 48.6874 27.5907 48.6341 27.644C48.5808 27.6947 48.5154 27.72 48.4381 27.72C48.3608 27.72 48.2954 27.6933 48.2421 27.64C48.1888 27.5867 48.1621 27.5227 48.1621 27.448ZM47.5981 30V29.704H48.2941V28.28H47.6781V27.984H48.6301V29.704H49.3741V30H47.5981ZM50.0066 28.992C50.0066 28.696 50.0946 28.4493 50.2706 28.252C50.4492 28.052 50.6826 27.952 50.9706 27.952C51.2639 27.952 51.4959 28.044 51.6666 28.228C51.8399 28.412 51.9266 28.644 51.9266 28.924V29.064H50.3506C50.3612 29.264 50.4226 29.4253 50.5346 29.548C50.6466 29.668 50.7919 29.728 50.9706 29.728C51.2586 29.728 51.4746 29.5947 51.6186 29.328L51.8866 29.468C51.6919 29.844 51.3866 30.032 50.9706 30.032C50.6852 30.032 50.4532 29.9333 50.2746 29.736C50.0959 29.5387 50.0066 29.2907 50.0066 28.992ZM50.3746 28.76H51.5706C51.5412 28.6 51.4746 28.476 51.3706 28.388C51.2666 28.3 51.1332 28.256 50.9706 28.256C50.8132 28.256 50.6826 28.3 50.5786 28.388C50.4772 28.476 50.4092 28.6 50.3746 28.76ZM55.0995 29.42C55.0995 29.204 55.1782 29.04 55.3355 28.928C55.4955 28.816 55.7208 28.76 56.0115 28.76H56.4195V28.672C56.4195 28.5307 56.3782 28.4267 56.2955 28.36C56.2128 28.2907 56.0995 28.256 55.9555 28.256C55.8435 28.256 55.7435 28.288 55.6555 28.352C55.5702 28.4133 55.5115 28.496 55.4795 28.6L55.1835 28.52C55.2288 28.3467 55.3222 28.2093 55.4635 28.108C55.6048 28.004 55.7688 27.952 55.9555 27.952C56.2088 27.952 56.4048 28.0173 56.5435 28.148C56.6848 28.276 56.7555 28.4693 56.7555 28.728V30H56.4835L56.4355 29.716C56.3715 29.8093 56.2742 29.8853 56.1435 29.944C56.0128 30.0027 55.8728 30.032 55.7235 30.032C55.5395 30.032 55.3888 29.9787 55.2715 29.872C55.1568 29.7627 55.0995 29.612 55.0995 29.42ZM56.4195 29.112V29.048H55.9795C55.8115 29.048 55.6795 29.0813 55.5835 29.148C55.4902 29.2147 55.4435 29.3053 55.4435 29.42C55.4435 29.516 55.4728 29.592 55.5315 29.648C55.5928 29.7013 55.6742 29.728 55.7755 29.728C55.9382 29.728 56.0862 29.6747 56.2195 29.568C56.3528 29.4613 56.4195 29.3093 56.4195 29.112ZM57.588 29.388V27.984H57.924V29.316C57.924 29.5907 58.048 29.728 58.296 29.728C58.464 29.728 58.604 29.6427 58.716 29.472C58.8306 29.3013 58.888 29.076 58.888 28.796V27.984H59.224V30H58.888V29.628C58.8133 29.7507 58.7146 29.8493 58.592 29.924C58.4693 29.996 58.34 30.032 58.204 30.032C58.0013 30.032 57.848 29.976 57.744 29.864C57.64 29.7493 57.588 29.5907 57.588 29.388ZM59.9804 30.184C59.9804 30 60.0498 29.856 60.1884 29.752C60.0924 29.6747 60.0444 29.572 60.0444 29.444C60.0444 29.3533 60.0698 29.272 60.1204 29.2C60.1738 29.128 60.2471 29.0747 60.3404 29.04C60.2578 28.9307 60.2164 28.7933 60.2164 28.628C60.2164 28.4253 60.2831 28.2627 60.4164 28.14C60.5498 28.0147 60.7204 27.952 60.9284 27.952C61.0698 27.952 61.2018 27.9867 61.3244 28.056L61.7444 27.84L61.8964 28.116L61.5564 28.292C61.6124 28.388 61.6404 28.5 61.6404 28.628C61.6404 28.8307 61.5738 28.9947 61.4404 29.12C61.3098 29.2427 61.1391 29.304 60.9284 29.304C60.7898 29.304 60.6658 29.276 60.5564 29.22C60.4338 29.268 60.3724 29.3373 60.3724 29.428C60.3724 29.54 60.4671 29.596 60.6564 29.596H61.1804C61.3964 29.596 61.5631 29.644 61.6804 29.74C61.7978 29.8333 61.8564 29.9707 61.8564 30.152C61.8564 30.3867 61.7644 30.5613 61.5804 30.676C61.3991 30.7907 61.1764 30.848 60.9124 30.848C60.6164 30.848 60.3871 30.7907 60.2244 30.676C60.0618 30.5613 59.9804 30.3973 59.9804 30.184ZM61.2044 28.912C61.2764 28.8427 61.3124 28.748 61.3124 28.628C61.3124 28.508 61.2764 28.4133 61.2044 28.344C61.1324 28.2747 61.0404 28.24 60.9284 28.24C60.8164 28.24 60.7244 28.276 60.6524 28.348C60.5804 28.4173 60.5444 28.5107 60.5444 28.628C60.5444 28.7453 60.5804 28.84 60.6524 28.912C60.7244 28.9813 60.8164 29.016 60.9284 29.016C61.0404 29.016 61.1324 28.9813 61.2044 28.912ZM61.5124 30.184C61.5124 29.984 61.3991 29.884 61.1724 29.884H60.6964C60.6084 29.884 60.5391 29.8787 60.4884 29.868C60.3738 29.9267 60.3164 30.028 60.3164 30.172C60.3164 30.2893 60.3698 30.3813 60.4764 30.448C60.5831 30.5173 60.7284 30.552 60.9124 30.552C61.1018 30.552 61.2484 30.5187 61.3524 30.452C61.4591 30.388 61.5124 30.2987 61.5124 30.184ZM62.5489 29.388V27.984H62.8849V29.316C62.8849 29.5907 63.0089 29.728 63.2569 29.728C63.4249 29.728 63.5649 29.6427 63.6769 29.472C63.7916 29.3013 63.8489 29.076 63.8489 28.796V27.984H64.1849V30H63.8489V29.628C63.7742 29.7507 63.6756 29.8493 63.5529 29.924C63.4302 29.996 63.3009 30.032 63.1649 30.032C62.9622 30.032 62.8089 29.976 62.7049 29.864C62.6009 29.7493 62.5489 29.5907 62.5489 29.388ZM64.8894 28.992C64.8894 28.696 64.9774 28.4493 65.1534 28.252C65.332 28.052 65.5654 27.952 65.8534 27.952C66.1467 27.952 66.3787 28.044 66.5494 28.228C66.7227 28.412 66.8094 28.644 66.8094 28.924V29.064H65.2334C65.244 29.264 65.3054 29.4253 65.4174 29.548C65.5294 29.668 65.6747 29.728 65.8534 29.728C66.1414 29.728 66.3574 29.5947 66.5014 29.328L66.7694 29.468C66.5747 29.844 66.2694 30.032 65.8534 30.032C65.568 30.032 65.336 29.9333 65.1574 29.736C64.9787 29.5387 64.8894 29.2907 64.8894 28.992ZM65.2574 28.76H66.4534C66.424 28.6 66.3574 28.476 66.2534 28.388C66.1494 28.3 66.016 28.256 65.8534 28.256C65.696 28.256 65.5654 28.3 65.4614 28.388C65.36 28.476 65.292 28.6 65.2574 28.76ZM70.6423 30L69.7983 27.984H70.1623L70.8103 29.6L71.4583 27.984H71.8223L70.9783 30H70.6423ZM72.3308 28.992C72.3308 28.696 72.4188 28.4493 72.5948 28.252C72.7734 28.052 73.0068 27.952 73.2948 27.952C73.5881 27.952 73.8201 28.044 73.9908 28.228C74.1641 28.412 74.2508 28.644 74.2508 28.924V29.064H72.6748C72.6854 29.264 72.7468 29.4253 72.8588 29.548C72.9708 29.668 73.1161 29.728 73.2948 29.728C73.5828 29.728 73.7988 29.5947 73.9428 29.328L74.2108 29.468C74.0161 29.844 73.7108 30.032 73.2948 30.032C73.0094 30.032 72.7774 29.9333 72.5988 29.736C72.4201 29.5387 72.3308 29.2907 72.3308 28.992ZM72.6988 28.76H73.8948C73.8654 28.6 73.7988 28.476 73.6948 28.388C73.5908 28.3 73.4574 28.256 73.2948 28.256C73.1374 28.256 73.0068 28.3 72.9028 28.388C72.8014 28.476 72.7334 28.6 72.6988 28.76ZM75.2833 29.24V27.504H74.7273V27.2H75.6193V29.24C75.6193 29.5653 75.7606 29.728 76.0433 29.728C76.3073 29.728 76.4633 29.5653 76.5113 29.24L76.8153 29.3C76.7806 29.5373 76.6966 29.7187 76.5633 29.844C76.4299 29.9693 76.2566 30.032 76.0433 30.032C75.8086 30.032 75.6233 29.9627 75.4873 29.824C75.3513 29.6827 75.2833 29.488 75.2833 29.24ZM79.6842 30V27.984H80.0202V28.24C80.1429 28.048 80.3002 27.952 80.4922 27.952C80.7109 27.952 80.8495 28.0613 80.9082 28.28C80.9642 28.1787 81.0349 28.0987 81.1202 28.04C81.2082 27.9813 81.3029 27.952 81.4042 27.952C81.5429 27.952 81.6509 27.9987 81.7282 28.092C81.8055 28.1827 81.8442 28.3173 81.8442 28.496V30H81.5082V28.568C81.5082 28.4587 81.4909 28.38 81.4562 28.332C81.4215 28.284 81.3655 28.26 81.2882 28.26C81.1815 28.26 81.0949 28.328 81.0282 28.464C80.9642 28.5973 80.9322 28.7933 80.9322 29.052V30H80.5962V28.568C80.5962 28.4587 80.5789 28.38 80.5442 28.332C80.5095 28.284 80.4535 28.26 80.3762 28.26C80.2695 28.26 80.1829 28.328 80.1162 28.464C80.0522 28.5973 80.0202 28.7933 80.0202 29.052V30H79.6842ZM82.4967 29.728C82.3127 29.5253 82.2207 29.28 82.2207 28.992C82.2207 28.704 82.3127 28.4587 82.4967 28.256C82.6807 28.0533 82.9193 27.952 83.2127 27.952C83.506 27.952 83.7447 28.0533 83.9287 28.256C84.1127 28.4587 84.2047 28.704 84.2047 28.992C84.2047 29.28 84.1127 29.5253 83.9287 29.728C83.7447 29.9307 83.506 30.032 83.2127 30.032C82.9193 30.032 82.6807 29.9307 82.4967 29.728ZM83.6807 29.516C83.8007 29.372 83.8607 29.1973 83.8607 28.992C83.8607 28.7867 83.8007 28.6133 83.6807 28.472C83.5633 28.328 83.4073 28.256 83.2127 28.256C83.018 28.256 82.8607 28.328 82.7407 28.472C82.6233 28.6133 82.5647 28.7867 82.5647 28.992C82.5647 29.1973 82.6233 29.372 82.7407 29.516C82.8607 29.6573 83.018 29.728 83.2127 29.728C83.4073 29.728 83.5633 29.6573 83.6807 29.516ZM85.2051 29.24V27.504H84.6491V27.2H85.5411V29.24C85.5411 29.5653 85.6825 29.728 85.9651 29.728C86.2291 29.728 86.3851 29.5653 86.4331 29.24L86.7371 29.3C86.7025 29.5373 86.6185 29.7187 86.4851 29.844C86.3518 29.9693 86.1785 30.032 85.9651 30.032C85.7305 30.032 85.5451 29.9627 85.4091 29.824C85.2731 29.6827 85.2051 29.488 85.2051 29.24ZM87.6856 29.24V27.504H87.1296V27.2H88.0216V29.24C88.0216 29.5653 88.1629 29.728 88.4456 29.728C88.7096 29.728 88.8656 29.5653 88.9136 29.24L89.2176 29.3C89.1829 29.5373 89.0989 29.7187 88.9656 29.844C88.8323 29.9693 88.6589 30.032 88.4456 30.032C88.2109 30.032 88.0256 29.9627 87.8896 29.824C87.7536 29.6827 87.6856 29.488 87.6856 29.24ZM90.3301 27.448C90.3301 27.3707 90.3567 27.3053 90.4101 27.252C90.4634 27.196 90.5287 27.168 90.6061 27.168C90.6834 27.168 90.7487 27.196 90.8021 27.252C90.8554 27.3053 90.8821 27.3707 90.8821 27.448C90.8821 27.5253 90.8554 27.5907 90.8021 27.644C90.7487 27.6947 90.6834 27.72 90.6061 27.72C90.5287 27.72 90.4634 27.6933 90.4101 27.64C90.3567 27.5867 90.3301 27.5227 90.3301 27.448ZM89.7661 30V29.704H90.4621V28.28H89.8461V27.984H90.7981V29.704H91.5421V30H89.7661ZM92.3065 29.448L92.6265 29.328C92.6612 29.456 92.7279 29.5547 92.8265 29.624C92.9252 29.6933 93.0439 29.728 93.1825 29.728C93.3132 29.728 93.4172 29.704 93.4945 29.656C93.5719 29.6053 93.6105 29.5333 93.6105 29.44C93.6105 29.3467 93.5745 29.28 93.5025 29.24C93.4332 29.2 93.2959 29.16 93.0905 29.12C92.8745 29.08 92.7119 29.016 92.6025 28.928C92.4932 28.84 92.4385 28.7093 92.4385 28.536C92.4385 28.3627 92.5052 28.2227 92.6385 28.116C92.7719 28.0067 92.9345 27.952 93.1265 27.952C93.4705 27.952 93.7199 28.1013 93.8745 28.4L93.5985 28.576C93.4812 28.3627 93.3199 28.256 93.1145 28.256C93.0132 28.256 92.9292 28.28 92.8625 28.328C92.7985 28.3733 92.7665 28.4387 92.7665 28.524C92.7665 28.604 92.8025 28.668 92.8745 28.716C92.9492 28.764 93.0692 28.804 93.2345 28.836C93.4852 28.8867 93.6679 28.9547 93.7825 29.04C93.8999 29.1227 93.9585 29.2467 93.9585 29.412C93.9585 29.596 93.8825 29.7453 93.7305 29.86C93.5812 29.9747 93.3985 30.032 93.1825 30.032C92.9719 30.032 92.7879 29.9813 92.6305 29.88C92.4759 29.776 92.3679 29.632 92.3065 29.448ZM95.435 29.944C95.3897 29.896 95.367 29.836 95.367 29.764C95.367 29.692 95.3897 29.6333 95.435 29.588C95.483 29.54 95.543 29.516 95.615 29.516C95.687 29.516 95.7457 29.54 95.791 29.588C95.839 29.6333 95.863 29.692 95.863 29.764C95.863 29.836 95.839 29.896 95.791 29.944C95.7457 29.9893 95.687 30.012 95.615 30.012C95.543 30.012 95.483 29.9893 95.435 29.944Z" fill="#FFE60A"/>
<rect x="470.5" y="13.5" width="72" height="7" rx="2.5" stroke="#FFE60A"/>
<path d="M470 16C470 14.3431 471.343 13 473 13H506V21H473C471.343 21 470 19.6569 470 18V16Z" fill="#FFE60A"/>
<path d="M473.546 19V14.8H476.168V15.58H474.326V16.45H475.874V17.17H474.326V19H473.546ZM476.835 19L478.155 14.8H479.007L480.327 19H479.523L479.229 18.022H477.933L477.639 19H476.835ZM478.149 17.302H479.013L478.581 15.85L478.149 17.302ZM481.191 18.484C480.855 18.108 480.687 17.58 480.687 16.9C480.687 16.22 480.855 15.692 481.191 15.316C481.527 14.94 481.953 14.752 482.469 14.752C483.265 14.752 483.791 15.174 484.047 16.018L483.309 16.246C483.237 15.962 483.131 15.762 482.991 15.646C482.851 15.53 482.677 15.472 482.469 15.472C482.185 15.472 481.947 15.58 481.755 15.796C481.563 16.012 481.467 16.38 481.467 16.9C481.467 17.42 481.563 17.788 481.755 18.004C481.947 18.22 482.185 18.328 482.469 18.328C482.677 18.328 482.851 18.27 482.991 18.154C483.131 18.038 483.237 17.838 483.309 17.554L484.047 17.782C483.791 18.626 483.265 19.048 482.469 19.048C481.953 19.048 481.527 18.86 481.191 18.484ZM484.744 19V18.28H485.632V15.52H484.744V14.8H487.3V15.52H486.412V18.28H487.3V19H484.744ZM488.411 19V14.8H489.191V18.28H491.081V19H488.411ZM492.186 19V18.28H493.074V15.52H492.186V14.8H494.742V15.52H493.854V18.28H494.742V19H492.186ZM496.794 19V15.52H495.612V14.8H498.756V15.52H497.574V19H496.794ZM500.545 19V17.452L499.213 14.8H500.053L500.905 16.618L501.757 14.8H502.597L501.265 17.452V19H500.545Z" fill="#0C0C0C"/>
<path d="M478.594 29V24.8H480.118C480.538 24.8 480.862 24.916 481.09 25.148C481.318 25.376 481.432 25.686 481.432 26.078C481.432 26.47 481.318 26.782 481.09 27.014C480.862 27.242 480.538 27.356 480.118 27.356H479.374V29H478.594ZM479.374 26.636H480.088C480.456 26.636 480.64 26.45 480.64 26.078C480.64 25.706 480.456 25.52 480.088 25.52H479.374V26.636ZM483.869 29V28.22H482.093V27.836L483.833 24.8H484.625V27.524H485.069V28.22H484.625V29H483.869ZM483.011 27.524H483.869V25.922L483.011 27.524Z" fill="#FFE60A"/>
<path d="M498.576 29V24.8H499.992C500.368 24.8 500.662 24.898 500.874 25.094C501.086 25.286 501.192 25.566 501.192 25.934C501.192 26.106 501.156 26.262 501.084 26.402C501.012 26.538 500.91 26.64 500.778 26.708C501.198 26.884 501.408 27.226 501.408 27.734C501.408 28.138 501.286 28.45 501.042 28.67C500.798 28.89 500.458 29 500.022 29H498.576ZM499.356 26.432H499.95C500.118 26.432 500.242 26.396 500.322 26.324C500.402 26.252 500.442 26.136 500.442 25.976C500.442 25.816 500.4 25.7 500.316 25.628C500.236 25.556 500.108 25.52 499.932 25.52H499.356V26.432ZM499.356 28.28H499.95C500.402 28.28 500.628 28.092 500.628 27.716C500.628 27.34 500.402 27.152 499.95 27.152H499.356V28.28ZM502.249 29V28.7L503.749 26.762C503.965 26.482 504.073 26.228 504.073 26C504.073 25.828 504.029 25.694 503.941 25.598C503.853 25.498 503.725 25.448 503.557 25.448C503.405 25.448 503.281 25.496 503.185 25.592C503.093 25.688 503.035 25.824 503.011 26L502.315 25.868C502.335 25.548 502.463 25.282 502.699 25.07C502.939 24.858 503.231 24.752 503.575 24.752C503.963 24.752 504.269 24.864 504.493 25.088C504.717 25.308 504.829 25.602 504.829 25.97C504.829 26.318 504.709 26.65 504.469 26.966L503.443 28.304H504.919V29H502.249Z" fill="#FFE60A"/>
<rect x="474" y="25" width="2" height="4" fill="#FFE60A"/>
<rect x="494" y="25" width="2" height="4" fill="#FFE60A"/>
<rect x="556.5" y="13.5" width="72" height="7" rx="2.5" stroke="#FFE60A"/>
<path d="M556 16C556 14.3431 557.343 13 559 13H592V21H559C557.343 21 556 19.6569 556 18V16Z" fill="#FFE60A"/>
<path d="M560.426 19V14.8H561.146L562.568 17.5V14.8H563.288V19H562.568L561.146 16.312V19H560.426ZM564.267 19V14.8H566.931V15.52H565.047V16.402H566.631V17.122H565.047V18.28H566.991V19H564.267ZM567.909 19L567.507 14.8H568.251L568.449 17.44L569.061 15.598H569.541L570.153 17.44L570.351 14.8H571.095L570.693 19H569.865L569.301 17.038L568.617 19H567.909ZM571.69 19V14.8H572.47V18.28H574.36V19H571.69ZM574.997 19L576.317 14.8H577.169L578.489 19H577.685L577.391 18.022H576.095L575.801 19H574.997ZM576.311 17.302H577.175L576.743 15.85L576.311 17.302ZM579.03 19V14.8H579.75L581.172 17.5V14.8H581.892V19H581.172L579.75 16.312V19H579.03ZM582.708 19V14.8H583.89C584.474 14.8 584.956 14.98 585.336 15.34C585.716 15.7 585.906 16.22 585.906 16.9C585.906 17.58 585.716 18.1 585.336 18.46C584.956 18.82 584.474 19 583.89 19H582.708ZM583.488 18.28H583.824C584.168 18.28 584.468 18.176 584.724 17.968C584.984 17.756 585.114 17.4 585.114 16.9C585.114 16.4 584.984 16.044 584.724 15.832C584.468 15.624 584.168 15.52 583.824 15.52H583.488V18.28Z" fill="#0C0C0C"/>
<path d="M564.576 29V24.8H565.992C566.368 24.8 566.662 24.898 566.874 25.094C567.086 25.286 567.192 25.566 567.192 25.934C567.192 26.106 567.156 26.262 567.084 26.402C567.012 26.538 566.91 26.64 566.778 26.708C567.198 26.884 567.408 27.226 567.408 27.734C567.408 28.138 567.286 28.45 567.042 28.67C566.798 28.89 566.458 29 566.022 29H564.576ZM565.356 26.432H565.95C566.118 26.432 566.242 26.396 566.322 26.324C566.402 26.252 566.442 26.136 566.442 25.976C566.442 25.816 566.4 25.7 566.316 25.628C566.236 25.556 566.108 25.52 565.932 25.52H565.356V26.432ZM565.356 28.28H565.95C566.402 28.28 566.628 28.092 566.628 27.716C566.628 27.34 566.402 27.152 565.95 27.152H565.356V28.28ZM568.291 27.902L569.005 27.77C569.081 28.158 569.291 28.352 569.635 28.352C569.839 28.352 569.993 28.288 570.097 28.16C570.205 28.032 570.259 27.848 570.259 27.608C570.259 27.372 570.201 27.192 570.085 27.068C569.973 26.944 569.811 26.882 569.599 26.882C569.331 26.882 569.083 27.008 568.855 27.26L568.381 27.164L568.615 24.8H570.775V25.496H569.233L569.137 26.372C569.313 26.268 569.511 26.216 569.731 26.216C570.147 26.216 570.465 26.34 570.685 26.588C570.905 26.832 571.015 27.172 571.015 27.608C571.015 28.032 570.887 28.378 570.631 28.646C570.379 28.914 570.047 29.048 569.635 29.048C569.275 29.048 568.969 28.944 568.717 28.736C568.469 28.524 568.327 28.246 568.291 27.902ZM572.011 27.902L572.725 27.77C572.801 28.158 573.011 28.352 573.355 28.352C573.559 28.352 573.713 28.288 573.817 28.16C573.925 28.032 573.979 27.848 573.979 27.608C573.979 27.372 573.921 27.192 573.805 27.068C573.693 26.944 573.531 26.882 573.319 26.882C573.051 26.882 572.803 27.008 572.575 27.26L572.101 27.164L572.335 24.8H574.495V25.496H572.953L572.857 26.372C573.033 26.268 573.231 26.216 573.451 26.216C573.867 26.216 574.185 26.34 574.405 26.588C574.625 26.832 574.735 27.172 574.735 27.608C574.735 28.032 574.607 28.378 574.351 28.646C574.099 28.914 573.767 29.048 573.355 29.048C572.995 29.048 572.689 28.944 572.437 28.736C572.189 28.524 572.047 28.246 572.011 27.902Z" fill="#FFE60A"/>
<path d="M587.75 28.484C587.414 28.108 587.246 27.58 587.246 26.9C587.246 26.22 587.414 25.692 587.75 25.316C588.086 24.94 588.512 24.752 589.028 24.752C589.824 24.752 590.35 25.174 590.606 26.018L589.868 26.246C589.796 25.962 589.69 25.762 589.55 25.646C589.41 25.53 589.236 25.472 589.028 25.472C588.744 25.472 588.506 25.58 588.314 25.796C588.122 26.012 588.026 26.38 588.026 26.9C588.026 27.42 588.122 27.788 588.314 28.004C588.506 28.22 588.744 28.328 589.028 28.328C589.236 28.328 589.41 28.27 589.55 28.154C589.69 28.038 589.796 27.838 589.868 27.554L590.606 27.782C590.35 28.626 589.824 29.048 589.028 29.048C588.512 29.048 588.086 28.86 587.75 28.484ZM591.249 29V28.7L592.749 26.762C592.965 26.482 593.073 26.228 593.073 26C593.073 25.828 593.029 25.694 592.941 25.598C592.853 25.498 592.725 25.448 592.557 25.448C592.405 25.448 592.281 25.496 592.185 25.592C592.093 25.688 592.035 25.824 592.011 26L591.315 25.868C591.335 25.548 591.463 25.282 591.699 25.07C591.939 24.858 592.231 24.752 592.575 24.752C592.963 24.752 593.269 24.864 593.493 25.088C593.717 25.308 593.829 25.602 593.829 25.97C593.829 26.318 593.709 26.65 593.469 26.966L592.443 28.304H593.919V29H591.249Z" fill="#FFE60A"/>
<rect x="560" y="25" width="2" height="4" fill="#FFE60A"/>
<rect x="583" y="25" width="2" height="4" fill="#FFE60A"/>
</svg>
