<svg width="32" height="32" viewBox="0 0 32 32" fill="none" xmlns="http://www.w3.org/2000/svg">
<path d="M22 4V7H10V4H2V12H10V9H17.0234C16.3624 9.86066 16.0028 10.9148 16 12V20C15.999 20.7953 15.6826 21.5578 15.1202 22.1202C14.5578 22.6826 13.7953 22.999 13 23H10V20H2V28H10V25H13C14.3256 24.9984 15.5964 24.471 16.5337 23.5337C17.471 22.5964 17.9984 21.3256 18 20V12C17.9998 11.6062 18.0771 11.2162 18.2276 10.8523C18.3781 10.4884 18.5988 10.1578 18.8771 9.87918C19.1554 9.60059 19.4859 9.37956 19.8497 9.22871C20.2134 9.07786 20.6033 9.00014 20.9971 9H22V12H30V4H22ZM8 10H4V6H8V10ZM8 26H4V22H8V26ZM28 10H24V6H28V10Z" fill="#0C0C0C"/>
</svg>
