<svg width="80" height="80" viewBox="0 0 80 80" fill="none" xmlns="http://www.w3.org/2000/svg">
<path d="M31.2943 49.3885L32.0014 50.0928L32.7071 49.3871L58.3575 23.7367L62.5883 27.9975L32 58.5858L17.4142 44L21.6414 39.7729L31.2943 49.3885ZM1 40C1 18.4723 18.4723 1 40 1C61.5277 1 79 18.4723 79 40C79 61.5277 61.5277 79 40 79C18.4723 79 1 61.5277 1 40ZM7 40C7 58.1923 21.8077 73 40 73C58.1923 73 73 58.1923 73 40C73 21.8077 58.1923 7 40 7C21.8077 7 7 21.8077 7 40Z" stroke="#14C75C" stroke-width="2"/>
</svg>
