<svg width="24" height="24" viewBox="0 0 24 24" fill="none" xmlns="http://www.w3.org/2000/svg">
<path d="M16.5 6.74992H20.4C19.4274 5.26599 18.0023 4.13514 16.3362 3.52517C14.6701 2.9152 12.8517 2.85862 11.1509 3.36381C9.45009 3.86901 7.95746 4.90906 6.89448 6.32965C5.8315 7.75024 5.25482 9.47567 5.25 11.2499H3.75C3.75102 9.24532 4.3699 7.28975 5.52236 5.64954C6.67482 4.00934 8.30484 2.76423 10.1904 2.08378C12.076 1.40333 14.1255 1.32062 16.0598 1.84691C17.9941 2.3732 19.7191 3.48291 21 5.02492V2.24992H22.5V8.24992H16.5V6.74992Z" fill="#F9F9F9" fill-opacity="0.75"/>
<path d="M12 9C12.445 9 12.88 9.13196 13.25 9.37919C13.62 9.62643 13.9084 9.97783 14.0787 10.389C14.249 10.8001 14.2936 11.2525 14.2068 11.689C14.12 12.1254 13.9057 12.5263 13.591 12.841C13.2763 13.1557 12.8754 13.37 12.439 13.4568C12.0025 13.5436 11.5501 13.499 11.139 13.3287C10.7278 13.1584 10.3764 12.87 10.1292 12.5C9.88196 12.13 9.75 11.695 9.75 11.25C9.74493 10.9531 9.79966 10.6583 9.91093 10.383C10.0222 10.1077 10.1878 9.85765 10.3977 9.6477C10.6077 9.43775 10.8577 9.27221 11.133 9.16093C11.4083 9.04965 11.7031 8.99492 12 9ZM12 7.5C11.2583 7.5 10.5333 7.71993 9.91661 8.13199C9.29993 8.54404 8.81928 9.12971 8.53545 9.81494C8.25162 10.5002 8.17736 11.2542 8.32206 11.9816C8.46675 12.709 8.8239 13.3772 9.34835 13.9017C9.8728 14.4261 10.541 14.7833 11.2684 14.9279C11.9958 15.0726 12.7498 14.9984 13.4351 14.7145C14.1203 14.4307 14.706 13.9501 15.118 13.3334C15.5301 12.7167 15.75 11.9917 15.75 11.25C15.75 10.2554 15.3549 9.30161 14.6517 8.59835C13.9484 7.89509 12.9946 7.5 12 7.5Z" fill="#F9F9F9" fill-opacity="0.75"/>
<path d="M17.25 22.5H15.75V20.25C15.75 19.6533 15.5129 19.081 15.091 18.659C14.669 18.2371 14.0967 18 13.5 18H10.5C9.90326 18 9.33097 18.2371 8.90901 18.659C8.48705 19.081 8.25 19.6533 8.25 20.25V22.5H6.75V20.25C6.75 19.2554 7.14509 18.3016 7.84835 17.5983C8.55161 16.8951 9.50544 16.5 10.5 16.5H13.5C13.9925 16.5 14.4801 16.597 14.9351 16.7855C15.39 16.9739 15.8034 17.2501 16.1517 17.5983C16.4999 17.9466 16.7761 18.36 16.9645 18.8149C17.153 19.2699 17.25 19.7575 17.25 20.25V22.5Z" fill="#F9F9F9" fill-opacity="0.75"/>
</svg>
