<svg width="40" height="40" viewBox="0 0 40 40" fill="none" xmlns="http://www.w3.org/2000/svg">
<path d="M17.0587 18.6339C16.6955 18.6031 16.3314 18.6828 16.0141 18.8624C15.6969 19.042 15.4413 19.3132 15.2807 19.6404C15.1202 19.9677 15.0622 20.3359 15.1143 20.6967C15.1665 21.0575 15.3264 21.3941 15.573 21.6626C15.8197 21.931 16.1416 22.1187 16.4968 22.2011C16.8519 22.2835 17.2236 22.2568 17.5633 22.1244C17.9029 21.992 18.1947 21.7602 18.4004 21.4592C18.6062 21.1583 18.7162 20.8022 18.7162 20.4376C18.7259 20.2104 18.6908 19.9834 18.6127 19.7697C18.5346 19.556 18.4152 19.3598 18.2613 19.1922C18.1074 19.0247 17.9219 18.8892 17.7156 18.7934C17.5092 18.6976 17.286 18.6434 17.0587 18.6339ZM22.99 18.6339C22.6267 18.6031 22.2626 18.6828 21.9454 18.8624C21.6281 19.042 21.3725 19.3132 21.212 19.6404C21.0514 19.9677 20.9934 20.3359 21.0456 20.6967C21.0977 21.0575 21.2576 21.3941 21.5043 21.6626C21.7509 21.931 22.0729 22.1187 22.428 22.2011C22.7831 22.2835 23.1548 22.2568 23.4945 22.1244C23.8342 21.992 24.126 21.7602 24.3317 21.4592C24.5374 21.1583 24.6475 20.8022 24.6475 20.4376C24.6572 20.2104 24.622 19.9834 24.544 19.7697C24.4659 19.556 24.3465 19.3598 24.1926 19.1922C24.0386 19.0247 23.8532 18.8892 23.6468 18.7934C23.4405 18.6976 23.2173 18.6434 22.99 18.6339Z" fill="#F9F9F9" fill-opacity="0.5"/>
<path d="M30.8875 5H9.11251C8.67397 5.00105 8.23994 5.08847 7.83518 5.25727C7.43043 5.42607 7.06289 5.67294 6.75356 5.98379C6.44422 6.29463 6.19914 6.66337 6.03231 7.06894C5.86548 7.47451 5.78018 7.90896 5.78126 8.3475V30.3175C5.78018 30.756 5.86548 31.1905 6.03231 31.5961C6.19914 32.0016 6.44422 32.3704 6.75356 32.6812C7.06289 32.9921 7.43043 33.2389 7.83518 33.4077C8.23994 33.5765 8.67397 33.6639 9.11251 33.665H27.54L26.6788 30.6588L28.7588 32.5925L30.725 34.4125L34.2188 37.5V8.3475C34.2198 7.90896 34.1345 7.47451 33.9677 7.06894C33.8009 6.66337 33.5558 6.29463 33.2465 5.98379C32.9371 5.67294 32.5696 5.42607 32.1648 5.25727C31.7601 5.08847 31.326 5.00105 30.8875 5V5ZM24.615 26.2225C24.615 26.2225 24.03 25.5237 23.5425 24.9062C24.7204 24.6289 25.7622 23.9439 26.4838 22.9725C25.8991 23.3616 25.2721 23.6833 24.615 23.9313C23.8591 24.2539 23.0684 24.4884 22.2588 24.63C20.867 24.8862 19.4397 24.8807 18.05 24.6137C17.2341 24.4541 16.4346 24.2202 15.6613 23.915C15.2536 23.7583 14.8573 23.5736 14.475 23.3625C14.4263 23.33 14.3775 23.3138 14.3288 23.2812C14.3043 23.2691 14.2823 23.2526 14.2638 23.2325C13.9713 23.07 13.8088 22.9562 13.8088 22.9562C14.5042 23.9074 15.5101 24.5856 16.6525 24.8738C16.165 25.4913 15.5638 26.2225 15.5638 26.2225C14.5985 26.2485 13.6416 26.0368 12.7774 25.6061C11.9131 25.1754 11.168 24.5388 10.6075 23.7525C10.6603 20.4582 11.4604 17.2188 12.9475 14.2788C14.2562 13.2509 15.8517 12.6547 17.5138 12.5725L17.6763 12.7675C16.1126 13.1545 14.6534 13.8813 13.4025 14.8962C13.4025 14.8962 13.76 14.7012 14.3613 14.425C15.5293 13.8918 16.7742 13.5463 18.05 13.4012C18.141 13.3824 18.2334 13.3715 18.3263 13.3687C19.4152 13.2269 20.5172 13.216 21.6088 13.3362C23.3253 13.5323 24.9869 14.0622 26.5 14.8962C25.3126 13.9297 23.9334 13.2262 22.4538 12.8325L22.6813 12.5725C24.3433 12.6547 25.9388 13.2509 27.2475 14.2788C28.7346 17.2188 29.5348 20.4582 29.5875 23.7525C29.0225 24.5381 28.2742 25.1738 27.4076 25.6042C26.541 26.0347 25.5823 26.2469 24.615 26.2225V26.2225Z" fill="#F9F9F9" fill-opacity="0.5"/>
</svg>
