<svg width="142" height="142" viewBox="0 0 142 142" fill="none" xmlns="http://www.w3.org/2000/svg">
<path d="M71 8.875C36.3875 8.875 8.875 36.3875 8.875 71C8.875 105.613 36.3875 133.125 71 133.125C105.613 133.125 133.125 105.613 133.125 71C133.125 36.3875 105.613 8.875 71 8.875ZM71 124.25C41.7125 124.25 17.75 100.287 17.75 71C17.75 41.7125 41.7125 17.75 71 17.75C100.287 17.75 124.25 41.7125 124.25 71C124.25 100.287 100.287 124.25 71 124.25Z" fill="#E7433E"/>
<path d="M94.9625 102.062L71 78.1L47.0375 102.062L39.9375 94.9625L63.9 71L39.9375 47.0375L47.0375 39.9375L71 63.9L94.9625 39.9375L102.062 47.0375L78.1 71L102.062 94.9625L94.9625 102.062Z" fill="#E7433E"/>
</svg>
