<svg width="64" height="32" viewBox="0 0 64 32" fill="none" xmlns="http://www.w3.org/2000/svg">
<rect width="64" height="32" fill="#FF4100"/>
<path d="M43.5446 5.93457H20.4509C19.3422 5.93457 18.4434 6.8334 18.4434 7.94216V24.0071C18.4434 25.1159 19.3422 26.0147 20.4509 26.0147H43.5446C44.6534 26.0147 45.5522 25.1159 45.5522 24.0071V7.94216C45.5522 6.8334 44.6534 5.93457 43.5446 5.93457Z" fill="black"/>
<path d="M19.4482 8.94651V13.9662C19.4482 15.0755 20.3479 15.9738 21.4558 15.9738H29.4876C30.5969 15.9738 31.4952 15.0741 31.4952 13.9662V10.9541H24.4679L26.4755 12.9617H28.4831C28.4831 13.5156 28.034 13.9662 27.4786 13.9662H23.462C22.908 13.9662 22.4575 13.5171 22.4575 12.9617V9.94959C22.4575 9.39563 22.9066 8.94509 23.462 8.94509H27.4786C28.0326 8.94509 28.4831 9.39421 28.4831 9.94959H31.4952V8.94509C31.4952 7.83574 30.5955 6.9375 29.4876 6.9375H21.4558C20.3465 6.9375 19.4482 7.83716 19.4482 8.94509V8.94651Z" fill="#FF4100"/>
<path d="M32.4995 17.9826V23.0023C32.4995 24.1117 33.3991 25.0099 34.5071 25.0099H42.5388C43.6482 25.0099 44.5464 24.1102 44.5464 23.0023V19.9902H37.5177L39.5253 21.9978H41.5329C41.5329 22.5518 41.0838 23.0023 40.5284 23.0023H36.5118C35.9578 23.0023 35.5073 22.5532 35.5073 21.9978V18.9857C35.5073 18.4318 35.9564 17.9812 36.5118 17.9812H40.5284C41.0824 17.9812 41.5329 18.4303 41.5329 18.9857H44.545V17.9812C44.545 16.8719 43.6453 15.9736 42.5374 15.9736H34.5056C33.3963 15.9736 32.498 16.8733 32.498 17.9812L32.4995 17.9826Z" fill="#FF4100"/>
<path d="M21.4558 16.9795H23.4634V21.9992H25.4724L22.4603 25.0113L19.4482 21.9992H21.4558V16.9795Z" fill="#FF4100"/>
<path d="M27.4798 16.9795H29.4873V21.9992H31.4963L28.4843 25.0113L25.4722 21.9992H27.4798V16.9795Z" fill="#FF4100"/>
<path d="M43.0422 7.22183C43.7166 7.22183 44.2649 7.77013 44.2649 8.44452C44.2649 9.11891 43.7166 9.66721 43.0422 9.66721C42.3678 9.66721 41.8195 9.11891 41.8195 8.44452C41.8195 7.77013 42.3678 7.22183 43.0422 7.22183ZM43.0422 6.93848C42.2105 6.93848 41.5361 7.61287 41.5361 8.44452C41.5361 9.27618 42.2105 9.95057 43.0422 9.95057C43.8738 9.95057 44.5482 9.27618 44.5482 8.44452C44.5482 7.61287 43.8738 6.93848 43.0422 6.93848Z" fill="#FF4100"/>
<path d="M43.0054 8.58458H42.7192V9.18672H42.4146V7.58008H43.13C43.4913 7.58008 43.6982 7.78126 43.6982 8.07454C43.6982 8.30972 43.565 8.48682 43.3241 8.54774L43.7506 9.18672H43.4035L43.0068 8.58458H43.0054ZM42.7192 8.33806H43.1144C43.293 8.33806 43.3921 8.23463 43.3921 8.08304C43.3921 7.93144 43.293 7.83085 43.1144 7.83085H42.7192V8.33806Z" fill="#FF4100"/>
</svg>
