<svg width="50" height="50" viewBox="0 0 50 50" fill="none" xmlns="http://www.w3.org/2000/svg">
<g clip-path="url(#clip0_9161_182427)">
<path d="M23.4591 50H23.4411L20.1627 49.5665C20.1563 49.5678 20.1497 49.5678 20.1433 49.5665L17.0311 48.6842L15.8353 48.1925H15.8242L12.5762 46.7368L12.5554 46.7243L9.73284 44.8642H9.72591L7.88576 43.1177L7.40632 42.6177L5.65762 40.9127C5.65225 40.9073 5.6476 40.9013 5.64377 40.8947L3.75512 38.223L2.45538 35.7867V35.7756L1.19166 32.7687L0.53486 29.885L0.0110779 26.7327L0.106688 23.6773C0.106034 23.675 0.106034 23.6726 0.106688 23.6703L0.332551 20.5678C0.332024 20.5632 0.332024 20.5586 0.332551 20.554L1.18889 17.6302L2.11589 14.7756C2.11734 14.7706 2.11969 14.7659 2.12282 14.7617L3.62071 12.2687L3.70939 12.0914L5.1283 9.75482C5.13119 9.7492 5.13493 9.74406 5.13939 9.73959L5.1477 9.73266L7.16107 7.4972L9.00537 5.82269L9.01369 5.81576L11.2515 4.07199C11.2563 4.06722 11.2619 4.06345 11.2681 4.06092L13.8732 2.61216H13.8829L17.9927 1.03044H18.008L20.6615 0.376704H20.6795L23.4508 0.0387536H23.4688L26.2748 0.0249023H26.2928L29.0641 0.335155C29.0701 0.333882 29.0762 0.333882 29.0821 0.335155L31.7412 0.961192H31.7495L35.8718 2.50274C35.878 2.50407 35.8837 2.50693 35.8885 2.51105L38.5088 3.93349L38.5268 3.94734L40.7771 5.66479L40.7854 5.67172L42.6352 7.31992L44.6874 9.54984L44.6957 9.56092L44.7539 9.65787L46.1396 11.8989L46.2199 12.0595L47.7441 14.5401C47.7444 14.5443 47.7444 14.5485 47.7441 14.5526L48.7002 17.3947L49.5843 20.3033C49.5843 20.3033 49.5843 20.3116 49.5843 20.3171L49.8614 23.4058L49.9889 26.4432L49.4984 29.6122L48.8762 32.4889L47.6513 35.5263L46.382 37.9667L44.5142 40.6759L44.5059 40.6856L42.7738 42.41L42.3027 42.9127L40.4819 44.68L40.4722 44.6883L37.6635 46.5831C37.6575 46.588 37.6503 46.5913 37.6427 46.5928L34.4114 48.0858L33.228 48.5872L30.1117 49.4972H30.0909L26.818 49.9681H26.7986L23.4647 49.9875L23.4591 50ZM23.358 49.7022L23.4966 49.8615L26.775 49.8435L26.9136 49.6814L23.358 49.7022ZM20.1932 49.4252L23.2915 49.8407L23.1737 49.7022L19.8481 49.2617L20.1932 49.4252ZM27.084 49.6717L26.9676 49.8102H26.9912L30.0632 49.3684L30.4096 49.1925L27.084 49.6717ZM23.0947 48.6163L23.2679 49.5595L26.9898 49.5388L27.1533 48.5928L23.0947 48.6163ZM19.4837 49.0665L23.1252 49.5485L22.9534 48.608L18.9807 48.0858L19.4837 49.0665ZM27.296 48.5845L27.1325 49.5263L30.7685 49.0027L31.2618 48.0166L27.296 48.5845ZM16.977 48.5138L17.0768 48.554L19.4726 49.2244L19.4103 49.1925L16.977 48.5138ZM30.8336 49.1315L30.7768 49.1606L33.1698 48.4681L33.2654 48.428L30.8336 49.1315ZM15.8976 48.0706L19.2994 49.0207L18.8047 48.0512L15.0995 47.0194L15.8976 48.0706ZM31.4253 47.9875L30.9403 48.957L34.331 47.9681L35.118 46.9141L31.4253 47.9875ZM22.9395 46.7521L23.0712 48.4778L27.1658 48.4543L27.2794 46.7271L22.9395 46.7521ZM18.9114 47.9376L22.9298 48.4667L22.7913 46.7437L18.5331 46.1897L18.9114 47.9376ZM27.418 46.7188L27.3057 48.4432L31.3241 47.8684L31.6761 46.1122L27.418 46.7188ZM12.6399 46.6135L15.6357 47.9557L14.8736 46.957L11.6173 45.5014L12.6399 46.6135ZM14.9734 46.8476L18.7618 47.9016L18.3946 46.1593L14.3762 45.0512L14.9734 46.8476ZM35.3425 46.8476L34.5929 47.8532L37.5734 46.475L38.5836 45.3545L35.3425 46.8476ZM31.8174 46.0872L31.4682 47.8338L35.2511 46.7451L35.8247 44.9446L31.8174 46.0872ZM11.3942 45.2562L14.8057 46.7798L14.221 45L10.6183 43.3947L11.3942 45.2562ZM35.9758 44.8836L35.4118 46.669L38.8053 45.1052L39.5674 43.2368L35.9758 44.8836ZM22.8619 44.1426L22.934 46.6191L27.2863 46.5942L27.3334 44.1177L22.8619 44.1426ZM18.5234 46.0526L22.7996 46.6066L22.7275 44.1316L18.335 43.5609L18.5234 46.0526ZM27.4762 44.1135L27.429 46.5886L31.6983 45.9806L31.8604 43.4875L27.4762 44.1135ZM9.8132 44.7576L12.1688 46.3102L11.2959 45.3615L8.75318 43.6897L9.8132 44.7576ZM38.912 45.2133L38.0515 46.169L40.3905 44.59L41.438 43.5111L38.912 45.2133ZM14.3498 44.903L18.3876 46.0208L18.1978 43.5415L14.0505 42.3961L14.3498 44.903ZM32.0059 43.4667L31.8424 45.9473L35.8608 44.7839L36.1379 42.2811L32.0059 43.4667ZM8.29591 43.2202L11.1975 45.1288L10.4326 43.3116L7.36753 41.3061L8.29591 43.2202ZM39.7628 43.1523L39.0159 44.9764L41.8939 43.0374L42.8029 41.1122L39.7628 43.1523ZM10.5518 43.2188L14.2043 44.8435L13.9064 42.3504L10.1569 40.6883L10.5518 43.2188ZM36.282 42.234L36.0118 44.7271L39.6436 43.0651L40.0108 40.5429L36.282 42.234ZM22.8619 40.849V44.0097L27.3376 43.9834L27.3113 40.8241L22.8619 40.849ZM18.3294 43.421L22.7247 43.9917V40.8338L18.3461 40.2728L18.3294 43.421ZM27.4498 40.8088L27.4776 43.9667L31.8659 43.3462L31.8188 40.198L27.4498 40.8088ZM14.0367 42.2493L18.1937 43.3906L18.2089 40.2451L14.0699 39.1274L14.0367 42.2493ZM31.956 40.1717L32.0031 43.3172L36.1434 42.1288L36.0825 39.0027L31.956 40.1717ZM7.26083 41.0665L10.3966 43.1191L10.0072 40.626L6.7897 38.5374L7.26083 41.0665ZM7.50609 42.5138L8.02848 42.9792L7.14028 41.1454L4.76665 38.9016L5.76294 40.813L7.50609 42.5138ZM40.1618 40.4598L39.7988 42.9529L42.9096 40.8642L43.3558 38.3268L40.1618 40.4598ZM43.0301 40.9543L42.1627 42.7936L42.6796 42.3199L44.3964 40.6038L45.3664 38.68L43.0301 40.9543ZM10.1416 40.5388L13.9051 42.2008L13.9383 39.0789L10.197 37.4432L10.1416 40.5388ZM36.221 38.9557L36.2875 42.0748L40.0288 40.3726L39.9457 37.2784L36.221 38.9557ZM4.58097 38.5401L7.09178 40.9127L6.62897 38.4196L4.05303 36.0027L4.58097 38.5401ZM43.5179 38.2243L43.08 40.7174L45.5645 38.3158L46.0647 35.777L43.5179 38.2243ZM22.9187 36.964L22.8536 40.7036L27.3043 40.6786L27.2018 36.939L22.9187 36.964ZM18.3461 40.1343L22.7178 40.6967L22.7829 36.957L18.5747 36.4224L18.3461 40.1343ZM27.3417 36.9307L27.4457 40.6703L31.8105 40.0595L31.5458 36.3573L27.3417 36.9307ZM6.75368 38.3476L9.99611 40.4543L10.046 37.3712L6.81881 35.2936L6.75368 38.3476ZM40.0732 37.2105L40.1563 40.2908L43.3724 38.1496L43.2768 35.1025L40.0732 37.2105ZM14.0741 38.9806L18.2089 40.1052L18.4375 36.3947L14.4662 35.3255L14.0741 38.9806ZM31.6802 36.3241L31.9463 40.0304L36.0658 38.8615L35.6501 35.2119L31.6802 36.3241ZM3.08585 36.6786L3.86459 38.1385L5.16156 39.9737L4.44518 38.6011L3.08585 36.6786ZM45.6781 38.3822L44.9853 39.7576L46.2657 37.903L47.0208 36.4501L45.6781 38.3822ZM10.1929 37.2922L13.9411 38.9293L14.3221 35.2797L10.7139 33.7257L10.1929 37.2922ZM35.7804 35.1662L36.1961 38.8102L39.9235 37.1316L39.3692 33.5692L35.7804 35.1662ZM2.57315 35.7202L4.37451 38.2631L3.86875 35.831L2.02721 33.2479L2.57315 35.7202ZM4.00038 35.7784L6.61788 38.2327L6.68301 35.205L4.07382 32.7798L4.00038 35.7784ZM46.2296 35.608L45.7502 38.0429L47.5197 35.4806L48.0407 33.0041L46.2296 35.608ZM43.4112 35.0111L43.5082 38.036L46.0938 35.5512L45.9871 32.5623L43.4112 35.0111ZM6.82989 35.1496L10.0654 37.2271L10.5864 33.6565L7.46868 31.6786L6.82989 35.1496ZM39.5023 33.5138L40.0565 37.0678L43.2671 34.9529L42.5951 31.493L39.5023 33.5138ZM23.0573 32.6343L22.9187 36.8255L27.1935 36.8019L27.0244 32.6177L23.0573 32.6343ZM18.5844 36.2825L22.7843 36.8172L22.9229 32.626L19.0292 32.1371L18.5844 36.2825ZM27.1588 32.6039L27.3362 36.7922L31.5292 36.2133L31.047 32.0734L27.1588 32.6039ZM14.4746 35.187L18.4472 36.2548L18.8879 32.1108L15.202 31.1413L14.4746 35.187ZM31.1828 32.0471L31.665 36.1842L35.6252 35.0762L34.8562 31.0332L31.1828 32.0471ZM1.95238 32.903L3.86597 35.5914L3.9408 32.644L2.03552 29.9986L1.95238 32.903ZM46.1188 32.4252L46.2255 35.367L48.1072 32.6579L47.9949 29.7576L46.1188 32.4252ZM10.7402 33.5872L14.3429 35.1412L15.069 31.0928L11.7213 29.6703L10.7402 33.5872ZM4.08906 32.6052L6.70657 35.0346L7.33704 31.5886L4.8096 29.2742L4.08906 32.6052ZM34.9892 30.9889L35.7568 35.0277L39.3429 33.4335L38.3189 29.5304L34.9892 30.9889ZM0.828618 30.6108L1.30667 32.7174L2.27663 35.0124L1.81936 32.9473L0.828618 30.6108ZM42.7184 31.4072L43.3849 34.8421L45.9747 32.3822L45.2167 29.0581L42.7184 31.4072ZM48.2444 32.7022L47.8093 34.7673L48.7529 32.4557L49.206 30.3559L48.2444 32.7022ZM7.49362 31.5388L10.6113 33.5166L11.5938 29.6066L8.69637 27.795L7.49362 31.5388ZM38.445 29.4612L39.4676 33.3587L42.5604 31.3476L41.3216 27.6191L38.445 29.4612ZM0.660951 29.8476L1.82629 32.6066L1.90665 29.8075L0.745474 27.0872L0.660951 29.8476ZM23.2679 28.0166L23.067 32.4986L27.0175 32.4778L26.7709 27.9972L23.2679 28.0166ZM19.0458 32.0041L22.9257 32.4903L23.1266 28.0083L19.6832 27.5831L19.0458 32.0041ZM26.9094 27.9875L27.1561 32.4667L31.0359 31.9377L30.3514 27.5249L26.9094 27.9875ZM2.05077 29.7784L3.98098 32.4612L4.69875 29.1565L2.82673 26.6025L2.05077 29.7784ZM48.1294 29.5637L48.2388 32.3587L49.3723 29.5886L49.2601 26.8338L48.1294 29.5637ZM45.3359 28.9473L46.0869 32.2382L47.9853 29.5374L47.1677 26.3725L45.3359 28.9473ZM15.2353 31.0014L18.91 31.9709L19.5502 27.5512L16.287 26.7008L15.2353 31.0014ZM30.4775 27.4986L31.162 31.9099L34.8257 30.8975L33.7282 26.6136L30.4775 27.4986ZM4.84286 29.126L7.37307 31.4432L8.57166 27.7036L6.21605 25.5803L4.84286 29.126ZM41.4325 27.5388L42.6685 31.2576L45.171 28.9127L43.7632 25.3878L41.4325 27.5388ZM11.7642 29.5346L15.1036 30.9557L16.1554 26.662L13.1873 25.4155L11.7642 29.5346ZM33.8654 26.5678L34.9615 30.849L38.287 29.3947L36.8224 25.295L33.8654 26.5678ZM0.759335 26.7659L1.95931 29.5734L2.72835 26.4487L1.56579 23.7714L0.759335 26.7659ZM8.74902 27.6606L11.6409 29.4612L13.0626 25.349L10.488 23.7673L8.74902 27.6606ZM47.2703 26.2188L48.0712 29.3324L49.2393 26.5138L48.4079 23.5304L47.2703 26.2188ZM36.9388 25.2313L38.4021 29.3282L41.2759 27.493L39.4981 23.6246L36.9388 25.2313ZM0.207839 24.3615L0.134403 26.7077L0.540399 29.1509L0.613843 26.7687L0.207839 24.3615ZM2.87661 26.439L4.75002 29.0055L6.11489 25.4792L4.36343 23.1246L2.87661 26.439ZM49.3848 26.5235L49.4818 28.8919L49.8614 26.4376L49.763 24.1094L49.3848 26.5235ZM43.8796 25.277L45.2791 28.7853L47.122 26.2008L45.5978 22.9072L43.8796 25.277ZM23.5326 23.2756L23.2735 27.8725L26.7612 27.8532L26.4535 23.2604L23.5326 23.2756ZM19.7068 27.4418L23.1349 27.8642L23.394 23.2673L20.5243 22.9224L19.7068 27.4418ZM26.5921 23.2507L26.8997 27.8448L30.3223 27.385L29.459 22.8726L26.5921 23.2507ZM6.28117 25.4473L8.63678 27.5692L10.3716 23.6911L8.26959 21.8324L6.28117 25.4473ZM16.323 26.5678L19.571 27.4141L20.3871 22.8919L17.6629 22.1994L16.323 26.5678ZM39.6117 23.5374L41.3854 27.3989L43.7147 25.2521L41.6902 21.6509L39.6117 23.5374ZM29.5962 22.8448L30.4581 27.3573L33.695 26.475L32.3093 22.1163L29.5962 22.8448ZM13.2358 25.2853L16.1914 26.5207L17.5313 22.1482L15.0496 21.1274L13.2358 25.2853ZM0.234166 23.6634L0.701132 26.4418L1.47849 23.5554L1.02122 20.9058L0.234166 23.6634ZM32.441 22.0734L33.8266 26.4293L36.7656 25.162L34.9102 21.0263L32.441 22.0734ZM1.62537 23.5609L2.80179 26.2687L4.27613 22.982L3.16761 20.4889L1.62537 23.5609ZM48.491 23.313L49.2961 26.1883L49.7326 23.4086L48.9192 20.662L48.491 23.313ZM45.692 22.7701L47.1982 26.036L48.3441 23.3199L46.7686 20.2728L45.692 22.7701ZM4.43686 22.9792L6.18695 25.3338L8.16982 21.723L6.59848 19.6593L4.43686 22.9792ZM10.549 23.6454L13.1138 25.2202L14.9263 21.0651L12.7674 19.7631L10.549 23.6454ZM41.7914 21.5512L43.8089 25.1385L45.5326 22.7673L43.3378 19.4709L41.7914 21.5512ZM35.0335 20.964L36.8889 25.0983L39.4344 23.4958L37.1771 19.6385L35.0335 20.964ZM8.34303 21.7077L10.4381 23.5609L12.6552 19.6828L10.8857 18.1496L8.34303 21.7077ZM37.2894 19.5568L39.5466 23.4155L41.6251 21.5374L39.0478 18.0055L37.2894 19.5568ZM1.1099 20.6066L1.57964 23.3379L3.10386 20.3227L2.65214 17.8088L1.1099 20.6066ZM23.8499 18.6094L23.5409 23.1357L26.4508 23.1205L26.096 18.5969L23.8499 18.6094ZM20.5506 22.7839L23.4051 23.1302L23.7127 18.6039L21.5109 18.3407L20.5506 22.7839ZM26.2318 18.5914L26.588 23.1149L29.4369 22.7382L28.4309 18.3061L26.2318 18.5914ZM46.8407 20.1052L48.3913 23.1011L48.8333 20.3656L47.2661 17.5872L46.8407 20.1052ZM0.471117 20.5817L0.284056 22.982L0.967184 20.5858L1.14039 18.2964L0.471117 20.5817ZM3.25352 20.3476L4.36204 22.8407L6.51396 19.5346L5.51075 17.3421L3.25352 20.3476ZM17.7059 22.0665L20.4121 22.759L21.3724 18.3144L19.2828 17.7867L17.7059 22.0665ZM48.9691 20.3407L49.6757 22.7257L49.4651 20.3324L48.7723 18.0568L48.9691 20.3407ZM28.5625 18.2797L29.5685 22.7119L32.2664 21.9889L30.6452 17.7285L28.5625 18.2797ZM43.4264 19.349L45.6102 22.6288L46.691 20.1246L44.3964 17.1468L43.4264 19.349ZM15.1175 21.0111L17.584 22.0249L19.1595 17.7479L17.2514 16.9764L15.1175 21.0111ZM30.7823 17.687L32.3966 21.9529L34.8506 20.9127L32.6751 16.8961L30.7823 17.687ZM6.69133 19.5443L8.25712 21.6052L10.7943 18.0512L9.46403 16.3435L6.69133 19.5443ZM39.1448 17.9086L41.7179 21.4349L43.2588 19.3573L40.4556 16.187L39.1448 17.9086ZM12.8478 19.6509L14.9942 20.946L17.1281 16.9113L15.4653 15.9266L12.8478 19.6509ZM32.8012 16.8338L34.9767 20.8504L37.1065 19.5346L34.4529 15.8379L32.8012 16.8338ZM1.33161 17.6648L1.13484 20.2853L2.62027 17.5886L2.7907 15.1759L1.33161 17.6648ZM2.76161 17.6274L3.21887 20.1689L5.45809 17.1911L5.03408 14.9529L2.76161 17.6274ZM47.298 17.3615L48.8083 20.0415L48.5839 17.4252L47.1026 14.9529L47.298 17.3615ZM44.4601 16.993L46.7257 19.946L47.1552 17.403L44.8578 14.7507L44.4601 16.993ZM10.9758 18.0443L12.7342 19.5678L15.3503 15.8449L13.9813 14.6828L10.9758 18.0443ZM34.5582 15.7507L37.2104 19.4446L38.9508 17.9016L35.912 14.5775L34.5582 15.7507ZM5.6119 17.2243L6.61512 19.4155L9.37949 16.2299L8.52039 14.4099L5.6119 17.2243ZM40.5304 16.0678L43.3253 19.2285L44.3036 17.0291L41.3687 14.241L40.5304 16.0678ZM24.206 14.1966L23.861 18.475L26.078 18.464L25.6901 14.1883L24.206 14.1966ZM21.5428 18.2133L23.7238 18.4737L24.0674 14.1953L22.6084 14.0235L21.5428 18.2133ZM25.8286 14.18L26.218 18.4543L28.3949 18.1773L27.2863 13.9986L25.8286 14.18ZM19.3382 17.6593L21.407 18.1814L22.4712 13.9903L21.0855 13.6468L19.3382 17.6593ZM27.4221 13.9667L28.5306 18.1454L30.5939 17.6025L28.8036 13.608L27.4221 13.9667ZM9.55686 16.2437L10.8788 17.9432L13.8829 14.5845L12.8464 13.2894L9.55686 16.2437ZM36.0132 14.4737L39.0492 17.7978L40.3517 16.0858L37.033 13.1662L36.0132 14.4737ZM17.3165 16.8518L19.2052 17.6149L20.9539 13.5983L19.6888 13.0955L17.3165 16.8518ZM28.9353 13.5623L30.7241 17.5581L32.6031 16.7742L30.1934 13.0471L28.9353 13.5623ZM2.94451 14.9141L2.76992 17.4072L5.0036 14.7756L5.14217 12.5789L2.94451 14.9141ZM44.8828 14.5734L47.14 17.1773L46.9391 14.6939L44.722 12.3809L44.8828 14.5734ZM5.1477 14.8268L5.5731 17.0692L8.46635 14.2631L8.09222 12.3961L5.1477 14.8268ZM2.25307 14.8158L1.52421 17.0568L2.81426 14.8559L3.49601 12.7437L2.25307 14.8158ZM41.4186 14.0997L44.3382 16.8698L44.74 14.6232L41.7761 12.2271L41.4186 14.0997ZM47.0693 14.6343L48.3788 16.8185L47.6278 14.5886L46.3682 12.5346L47.0693 14.6343ZM15.5457 15.8158L17.1918 16.7853L19.5641 13.0304L18.4555 12.3878L15.5457 15.8158ZM30.3181 12.9834L32.7278 16.7133L34.3629 15.7202L31.4156 12.3282L30.3181 12.9834ZM8.62986 14.3088L9.48481 16.1205L12.7702 13.1717L12.094 11.7867L8.62986 14.3088ZM37.1079 13.0498L40.421 15.9584L41.2523 14.1399L37.766 11.6537L37.1079 13.0498ZM14.0769 14.5858L15.432 15.7354L18.3419 12.313L17.4288 11.5554L14.0769 14.5858ZM31.5292 12.2479L34.4765 15.6412L35.8178 14.4764L32.4313 11.4792L31.5292 12.2479ZM5.29043 12.4266L5.15187 14.6426L8.06867 12.234L8.16705 10.385L5.29043 12.4266ZM3.78838 12.2881L3.03735 14.6149L5.16294 12.3559L5.8142 10.2991L3.78838 12.2881ZM12.9559 13.2036L13.9813 14.4875L17.3373 11.457L16.6445 10.6108L12.9559 13.2036ZM41.7969 12.072L44.7345 14.446L44.571 12.2299L41.6791 10.2216L41.7969 12.072ZM44.6985 12.1579L46.8435 14.3947L46.0689 12.0775L44.0264 10.1108L44.6985 12.1579ZM32.5283 11.3822L35.9134 14.3781L36.9236 13.0831L33.2128 10.5291L32.5283 11.3822ZM8.21277 12.3061L8.58968 14.1689L12.0427 11.6551L11.7337 10.2285L8.21277 12.3061ZM24.5815 10.1925L24.2185 14.0581H25.6762L25.2744 10.1897L24.5815 10.1925ZM22.6416 13.8822L24.0758 14.0512L24.443 10.18L23.7681 10.1025L22.6416 13.8822ZM25.4129 10.18L25.8189 14.0429L27.2503 13.8587L26.0863 10.0955L25.4129 10.18ZM37.8242 11.5263L41.2995 14.0041L41.657 12.1399L38.118 10.0983L37.8242 11.5263ZM21.1506 13.5194L22.5127 13.8573L23.6379 10.0803L23.0005 9.92518L21.1506 13.5194ZM26.2221 10.0678L27.3875 13.8338L28.744 13.482L26.854 9.90302L26.2221 10.0678ZM19.7747 12.9847L21.0218 13.4778L22.8716 9.8767L22.2897 9.64956L19.7747 12.9847ZM26.9912 9.86147L28.8771 13.439L30.1144 12.9321L27.5648 9.62601L26.9912 9.86147ZM12.2145 11.7133L12.8866 13.0858L16.5711 10.4958L16.1124 9.59L12.2145 11.7133ZM33.2904 10.4127L36.9998 12.9653L37.6566 11.5803L33.7393 9.50274L33.2904 10.4127ZM18.5609 12.2936L19.6472 12.9238L22.1594 9.59L21.655 9.30191L18.5609 12.2936ZM27.6951 9.56368L30.2433 12.8712L31.3214 12.2285L28.1967 9.27005L27.6951 9.56368ZM6.02759 10.0997L5.35555 12.2174L8.18645 10.2077L8.74071 8.44042L6.02759 10.0997ZM17.5479 11.4695L18.4445 12.2133L21.5331 9.2202L21.1174 8.88225L17.5479 11.4695ZM28.3117 9.18834L31.4377 12.1496L32.3246 11.3947L28.7219 8.84485L28.3117 9.18834ZM8.31255 10.2964L8.21555 12.1482L11.7185 10.0803L11.7753 8.65926L8.31255 10.2964ZM41.6653 10.0443L44.5114 12.0207L43.8186 9.91272L41.0985 8.28114L41.6653 10.0443ZM38.136 9.95012L41.6528 11.9806L41.535 10.1302L38.0598 8.53183L38.136 9.95012ZM5.25302 9.81161L4.06135 11.8227L5.91398 10.0041L6.96291 8.22435L5.25302 9.81161ZM43.9322 9.81161L45.7987 11.6122L44.5849 9.62601L42.8611 8.05676L43.9322 9.81161ZM11.8654 10.1509L12.1716 11.5665L16.0625 9.44734L15.8464 8.51244L11.8654 10.1509ZM33.7878 9.36009L37.6981 11.4376L37.9891 10.0194L33.9957 8.42241L33.7878 9.36009ZM16.7664 10.5263L17.4482 11.3573L21.0273 8.76867L20.7017 8.40718L16.7664 10.5263ZM28.8216 8.72573L32.4243 11.277L33.0964 10.4376L29.132 8.34623L28.8216 8.72573ZM16.2399 9.51244L16.6916 10.403L20.6366 8.27144L20.4259 7.87116L16.2399 9.51244ZM29.2082 8.22989L33.1726 10.3213L33.6146 9.42657L29.4133 7.82823L29.2082 8.22989ZM8.91114 8.31992L8.35688 10.1025L11.7905 8.48058L12.2062 7.10801L8.91114 8.31992ZM24.9113 7.27144L24.5982 10.0609H25.2536L24.9113 7.27144ZM23.8153 9.9792L24.4596 10.0526L24.7727 7.27283L23.8153 9.9792ZM25.0513 7.27144L25.3921 10.0484L26.0365 9.96673L25.0513 7.27144ZM11.9125 8.60662L11.8557 10.0221L15.8228 8.37947L15.8477 7.44457L11.9125 8.60662ZM38.0418 8.37671L41.4865 9.95704L40.917 8.18141L37.6178 7.00413L38.0418 8.37671ZM23.0684 9.80607L23.6767 9.95427L24.6259 7.27005L23.0684 9.80607ZM25.1968 7.26867L26.175 9.94318L26.7819 9.78667L25.1968 7.26867ZM34.0081 8.29914L37.9905 9.89194L37.9185 8.47781L33.9749 7.36978L34.0081 8.29914ZM7.30795 7.91548L6.16478 9.85455L8.79753 8.23958L9.74531 6.61355L7.30795 7.91548ZM22.377 9.54845L22.9312 9.76452L24.4693 7.26036L22.377 9.54845ZM25.3533 7.25759L26.9191 9.75067L27.4734 9.52767L25.3533 7.25759ZM41.0251 8.08861L43.6703 9.67587L42.5078 7.74651L40.0607 6.47227L41.0251 8.08861ZM21.7645 9.21881L22.2467 9.49582L24.3044 7.23127L21.7645 9.21881ZM25.5196 7.23681L27.5981 9.46811L28.0748 9.19111L25.5196 7.23681ZM15.9752 8.49028L16.1886 9.41272L20.3733 7.77283L20.2708 7.35731L15.9752 8.49028ZM29.4576 7.7285L33.6562 9.32546L33.8613 8.40164L29.5546 7.31576L29.4576 7.7285ZM21.2463 8.81714L21.6425 9.13986L24.1367 7.2008L21.2463 8.81714ZM25.6803 7.18557L28.2036 9.10662L28.5944 8.77975L25.6803 7.18557ZM20.8403 8.349L21.1409 8.70634L23.9898 7.10939L20.8403 8.349ZM25.8286 7.10247L28.6942 8.67033L28.9907 8.31022L25.8286 7.10247ZM8.09222 6.82546L7.26083 7.57753L6.28256 8.66341L7.20679 7.80468H7.21371L8.09222 6.82546ZM41.7193 6.66895L42.6061 7.63848L43.5345 8.48335L42.5396 7.40302L41.7193 6.66895ZM12.3559 7.07476L11.9402 8.44596L15.8561 7.29776L16.1152 6.38917L12.3559 7.07476ZM15.9905 7.40995L15.9669 8.33515L20.2624 7.20634V6.79083L20.2056 6.80053L15.9905 7.40995ZM33.961 7.20634L37.8852 8.31438L37.4612 6.94873L33.6894 6.30191L33.961 7.20634ZM29.5754 7.16202L33.871 8.24512L33.8377 7.3213L29.5643 6.74928L29.5754 7.16202ZM20.559 7.84485L20.7613 8.22712L23.8679 7.00413L20.559 7.84485ZM25.963 6.99443L29.0835 8.18557L29.2803 7.80053L25.963 6.99443ZM9.98226 6.48612L9.0123 8.14817L12.2603 6.95427L12.9961 5.67172L9.98226 6.48612ZM37.5665 6.831L40.8228 7.99166L39.8376 6.34069L36.8169 5.55537L37.5665 6.831ZM20.4121 7.31853L20.5105 7.71466L23.7875 6.88363L20.4121 7.31853ZM26.0489 6.87255L29.3302 7.67172L29.4244 7.27421L26.0489 6.87255ZM9.10791 5.90302L7.58369 7.59831L9.89496 6.36424L11.1725 4.93764L9.10791 5.90302ZM39.9263 6.21743L42.2459 7.42795L40.7036 5.7479L38.6348 4.80468L39.9263 6.21743ZM16.2787 6.35593L16.0223 7.25621L20.2777 6.64263L20.3858 6.23958L16.2787 6.35593ZM20.401 6.77144V7.17033L23.7515 6.7382L20.401 6.77144ZM29.5463 6.59693L29.6378 6.60801L33.8058 7.16202L33.5398 6.26313L29.4341 6.18972L29.5463 6.59693ZM26.0822 6.72712L29.4355 7.12601L29.4272 6.72712H26.0822ZM13.179 5.61909L12.4404 6.90856L16.1817 6.22712L16.6625 5.3684L13.179 5.61909ZM33.6354 6.16341L37.3767 6.80607L36.6243 5.52491L33.1449 5.31022L33.6354 6.16341ZM20.5216 6.2659L20.4162 6.65787L23.7557 6.62324L20.5216 6.2659ZM26.0559 6.61216H29.3995L29.29 6.22158L26.0559 6.61216ZM20.5798 6.13432L23.8263 6.49166L20.7848 5.7479L20.5798 6.13432ZM29.0212 5.71881L25.988 6.4792L29.229 6.09L29.0212 5.71881ZM20.8749 5.63848L23.9441 6.37671L21.1728 5.29222L20.8749 5.63848ZM28.6346 5.25621L25.8743 6.36424L28.9353 5.59693L28.6346 5.25621ZM11.4829 4.81299L10.1375 6.30191L13.0958 5.50274L14.1254 4.34069L11.4829 4.81299ZM21.2934 5.18972L24.1049 6.28806L21.6716 4.87393L21.2934 5.18972ZM28.1288 4.84762L25.7205 6.27975L28.5182 5.15371L28.1288 4.84762ZM16.8219 5.37809L16.3424 6.23127L20.4329 6.11632L20.6421 5.73266L16.8219 5.37809ZM21.8102 4.79083L24.2739 6.22296L22.2744 4.52629L21.8102 4.79083ZM27.526 4.49997L25.5459 6.21604L27.9944 4.76036L27.526 4.49997ZM22.4157 4.46396L24.443 6.19249L22.9409 4.25343L22.4157 4.46396ZM26.8498 4.23543L25.3672 6.18834L27.3861 4.44042L26.8498 4.23543ZM24.5815 3.95842L24.9099 6.18418L25.2148 3.95565L24.5815 3.95842ZM23.0919 4.21465L24.6162 6.1828L23.6767 4.06645L23.0919 4.21465ZM23.8194 4.04291L24.77 6.1828L24.4416 3.96673L23.8194 4.04291ZM25.3547 3.96257L25.0499 6.17864L25.9769 4.03044L25.3547 3.96257ZM26.1182 4.05537L25.2009 6.18003L26.7071 4.19665L26.1182 4.05537ZM36.7074 5.39194L39.6713 6.16202L38.3161 4.67864L35.6668 4.23958L36.7074 5.39194ZM29.3856 6.07476L33.4747 6.14817L32.9869 5.30053L29.1722 5.69249L29.3856 6.07476ZM16.923 5.24374L20.7239 5.59554L21.0287 5.24097L17.6061 4.46119L16.923 5.24374ZM28.7801 5.20358L29.0904 5.55537L32.883 5.16479L32.1902 4.38917L28.7801 5.20358ZM11.3388 4.16618L9.59012 5.53044L11.4095 4.67864L12.8949 3.51798L11.3388 4.16618ZM14.3415 4.30468L13.3023 5.47781L16.7498 5.23127L17.4426 4.44457L14.3415 4.30468ZM38.3868 4.54568L40.2117 5.37671L38.4492 4.03044L36.8903 3.39887L38.3868 4.54568ZM33.059 5.15233L36.5051 5.36562L35.4534 4.20357L32.362 4.37393L33.059 5.15233ZM17.7336 4.36285L21.1368 5.13709L21.5317 4.81715L18.6052 3.67033L17.7336 4.36285ZM28.2646 4.78529L28.6664 5.10108L32.0571 4.29222L31.1772 3.60939L28.2646 4.78529ZM18.7618 3.57338L21.6716 4.71327L22.1525 4.43626L19.7969 2.98751L18.7618 3.57338ZM27.6563 4.41271L28.1413 4.6828L31.0345 3.51382L29.9939 2.9418L27.6563 4.41271ZM13.3577 3.331L11.6949 4.6274L14.275 4.17587L15.5595 3.16479L13.3577 3.331ZM35.5019 4.07338L38.0806 4.49997L36.4095 3.21881L34.2049 3.07338L35.5019 4.07338ZM19.9424 2.92379L22.2869 4.36285L22.8411 4.14263L21.1174 2.46673L19.9424 2.92379ZM26.9427 4.12601L27.4969 4.34069L29.8207 2.8767L28.6415 2.43072L26.9427 4.12601ZM14.494 4.18141L17.5535 4.31992L18.4264 3.6274L15.802 3.15233L14.494 4.18141ZM31.3477 3.5623L32.2303 4.25482L35.2788 4.08585L33.9596 3.06923L31.3477 3.5623ZM21.2754 2.4238L22.9894 4.09554L23.6116 3.94734L22.5585 2.11216L21.2754 2.4238ZM26.1778 3.92795L26.8013 4.07615L28.4974 2.38778L27.2101 2.08308L26.1778 3.92795ZM22.7026 2.08169L23.7529 3.91133L24.4152 3.82823L24.055 1.91548L22.7026 2.08169ZM25.3714 3.82407L26.0365 3.89886L27.0646 2.06092L25.7108 1.90856L25.3714 3.82407ZM24.1949 1.90856L24.5538 3.81853H25.2328L25.5723 1.9044L24.1949 1.90856ZM13.9411 2.72158L12.4072 3.57476L13.3064 3.19942L14.6727 2.43903L13.9411 2.72158ZM15.9891 3.0443L18.5803 3.51244L19.6236 2.92518L17.5313 2.18141L15.9891 3.0443ZM36.4677 3.08861L37.367 3.45288L35.8206 2.61355L35.0917 2.33654L36.4677 3.08861ZM30.1491 2.87393L31.1994 3.4515L33.7837 2.95842L32.2317 2.11077L30.1491 2.87393ZM15.5748 2.10108L13.6501 3.17033L15.7729 3.00967L17.2833 2.16618L15.5748 2.10108ZM34.004 2.92241L36.1282 3.06092L34.1883 2.00967L32.4812 2.09139L34.004 2.92241ZM17.7239 2.10385L19.7885 2.83654L20.9802 2.37116L19.4643 1.42934L17.7239 2.10385ZM28.7842 2.33377L29.9814 2.78668L32.0364 2.0346L30.2904 1.3767L28.7842 2.33377ZM19.6472 1.38086L21.1465 2.31161L22.4642 1.98474L21.5442 0.912715L19.6472 1.38086ZM27.2974 1.96258L28.6179 2.27559L30.1075 1.32961L28.205 0.880857L27.2974 1.96258ZM15.8824 1.97366L17.5147 2.03737L19.2218 1.37532L18.0301 1.14679L15.8824 1.97366ZM30.5398 1.31576L32.2553 1.95981L33.8793 1.88224L31.7287 1.07615L30.5398 1.31576ZM21.7146 0.882243L22.6264 1.94734L24.0287 1.7756L23.7183 0.638475L21.7146 0.882243ZM25.7469 1.76729L27.1533 1.92518L28.0512 0.851772L26.0448 0.627396L25.7469 1.76729ZM23.861 0.631551L24.17 1.76451H25.6069L25.9034 0.628783L23.861 0.631551ZM18.3461 1.06646L19.4685 1.28114L21.3626 0.814378L20.6767 0.493047L18.3461 1.06646ZM28.3824 0.781138L30.2821 1.22989L31.4017 1.00413L29.0641 0.450111L28.3824 0.781138ZM20.9317 0.459807L21.5816 0.764514L23.6448 0.51244L23.4245 0.156483L20.9317 0.459807ZM26.0988 0.501357L28.1648 0.732661L28.8105 0.422409L26.3164 0.1454L26.0988 0.501357ZM23.5852 0.150942L23.7986 0.498588L25.9436 0.488892L26.1542 0.138477L23.5852 0.150942Z" fill="#F9F9F9"/>
</g>
<defs>
<clipPath id="clip0_9161_182427">
<rect width="50" height="50" fill="white"/>
</clipPath>
</defs>
</svg>
