<svg width="64" height="32" viewBox="0 0 64 32" fill="none" xmlns="http://www.w3.org/2000/svg">
<rect width="64" height="32" fill="#D9D9D9"/>
<path d="M10.1905 18.2556H6.44043V19.4408H10.1905V18.2556Z" fill="black"/>
<path d="M10.1905 16.5057H6.44043V17.6909H10.1905V16.5057Z" fill="black"/>
<path d="M19.938 22.9426V21.7574H6.52051C6.60335 22.192 6.74886 22.5908 6.94812 22.9426H19.938Z" fill="black"/>
<path d="M10.1905 20.6999V20.0053H6.44043V20.8925C6.44043 20.9934 6.44491 21.0919 6.44939 21.1905H10.3293C10.2375 21.0718 10.1883 20.9105 10.1883 20.6976L10.1905 20.6999Z" fill="black"/>
<path d="M19.9384 14.7537H12.6084V15.9389H19.9384V14.7537Z" fill="black"/>
<path d="M19.0234 8.93752C18.354 8.18697 17.3555 7.75232 16.142 7.75232H10.2158C9.01573 7.75232 8.02167 8.18697 7.35449 8.93752H19.0234Z" fill="black"/>
<path d="M16.1886 11.7447V12.4392H19.9387V11.552C19.9387 11.4512 19.9342 11.3526 19.9297 11.254H16.0498C16.1416 11.3728 16.1908 11.5363 16.1908 11.7469L16.1886 11.7447Z" fill="black"/>
<path d="M16.1889 20.0076V20.7021C16.1889 20.9127 16.1396 21.0763 16.0479 21.195H19.9367V20.0098H16.1867L16.1889 20.0076Z" fill="black"/>
<path d="M6.94812 9.50201C6.74663 9.85377 6.60111 10.2526 6.52051 10.6872H19.8596C19.7768 10.2526 19.6312 9.85377 19.4297 9.50201H6.95036H6.94812Z" fill="black"/>
<path d="M7.35449 23.5071C8.01943 24.2577 9.01349 24.6923 10.2158 24.6923H13.7218C14.9173 24.6923 15.9293 24.2599 16.5853 23.5071H7.35449Z" fill="black"/>
<path d="M16.6787 23.5071L17.1802 24.6946H19.9385V23.5071H16.6787Z" fill="black"/>
<path d="M10.1902 12.4393V11.7448C10.1902 11.5342 10.2395 11.3706 10.3313 11.2519H6.45133C6.44462 11.3505 6.44238 11.4491 6.44238 11.5499V12.4371H10.1925L10.1902 12.4393Z" fill="black"/>
<path d="M19.9384 16.5057H12.6084V17.6909H19.9384V16.5057Z" fill="black"/>
<path d="M10.1905 13.0039H6.44043V14.1891H10.1905V13.0039Z" fill="black"/>
<path d="M19.9386 18.2556H16.1885V19.4408H19.9386V18.2556Z" fill="black"/>
<path d="M10.1905 14.7537H6.44043V15.9389H10.1905V14.7537Z" fill="black"/>
<path d="M22.2202 10.6874H25.9792L25.7285 9.5022H21.9336L22.2202 10.6874Z" fill="black"/>
<path d="M30.0488 9.5022L29.7891 10.6874H34.7056L34.4459 9.5022H30.0488Z" fill="black"/>
<path d="M29.6643 11.2519L29.4023 12.4393H35.089L34.8293 11.2519H29.6643Z" fill="black"/>
<path d="M26.7222 14.1891L26.4715 13.0039H22.7773L23.0639 14.1891H26.7222Z" fill="black"/>
<path d="M27.0936 15.9412L26.8428 14.7538H23.2002L23.4868 15.9412H27.0936Z" fill="black"/>
<path d="M26.3499 12.4393L26.0991 11.2519H22.3535L22.6401 12.4393H26.3499Z" fill="black"/>
<path d="M29.2763 13.0039L29.0166 14.1891H35.469L35.2115 13.0039H29.2763Z" fill="black"/>
<path d="M28.8918 14.7538L28.6299 15.9412H31.8717L32.1471 14.7538H28.8918Z" fill="black"/>
<path d="M31.4614 17.691L31.739 16.5058H28.5061L28.2441 17.691H31.4614Z" fill="black"/>
<path d="M27.4652 17.691L27.2145 16.5058H23.6211L23.9077 17.691H27.4652Z" fill="black"/>
<path d="M42.5818 8.93756L42.8684 7.75012H39.1429L38.8877 8.93756H42.5818Z" fill="black"/>
<path d="M36.3572 18.2556H33.0303L33.3101 19.4408H36.6169L36.3572 18.2556Z" fill="black"/>
<path d="M32.207 14.7538L32.4869 15.9412H35.8519L35.5922 14.7538H32.207Z" fill="black"/>
<path d="M31.0545 19.4408L31.3321 18.2556H28.1194L27.8574 19.4408H31.0545Z" fill="black"/>
<path d="M32.6191 16.5058L32.899 17.691H36.2349L35.9752 16.5058H32.6191Z" fill="black"/>
<path d="M38.7667 9.5022L38.5137 10.6874H42.1585L42.4451 9.5022H38.7667Z" fill="black"/>
<path d="M38.3929 11.2519L38.1377 12.4393H41.7378L42.0221 11.2519H38.3929Z" fill="black"/>
<path d="M34.3224 8.93756L34.0627 7.75012H30.4358L30.1738 8.93756H34.3224Z" fill="black"/>
<path d="M25.6069 8.93756L25.3561 7.75012H21.5098L21.7963 8.93756H25.6069Z" fill="black"/>
<path d="M34.2686 23.5073L34.5462 24.6947H38.7798L39.0664 23.5073H34.2686Z" fill="black"/>
<path d="M25.3115 23.5073L25.5981 24.6947H29.8318L30.1071 23.5073H25.3115Z" fill="black"/>
<path d="M38.0167 13.0039L37.7637 14.1891H41.3145L41.6011 13.0039H38.0167Z" fill="black"/>
<path d="M30.647 21.1928L30.9224 20.0076H24.4678L24.7544 21.1928H30.647Z" fill="black"/>
<path d="M37.6429 14.7538L37.3877 15.9412H40.8915L41.1781 14.7538H37.6429Z" fill="black"/>
<path d="M39.4884 21.7574H33.8555L34.1353 22.9426H39.2041L39.4884 21.7574Z" fill="black"/>
<path d="M27.8366 19.4408L27.5858 18.2556H24.0439L24.3305 19.4408H27.8366Z" fill="black"/>
<path d="M30.2395 22.9426L30.5149 21.7574H24.8887L25.1753 22.9426H30.2395Z" fill="black"/>
<path d="M37.2676 16.5058L37.0146 17.691H40.4714L40.7558 16.5058H37.2676Z" fill="black"/>
<path d="M36.8929 18.2556L36.6377 19.4408H40.0475L40.334 18.2556H36.8929Z" fill="black"/>
<path d="M33.4424 20.0076L33.7222 21.1928H39.6239L39.9104 20.0076H33.4424Z" fill="black"/>
<path d="M44.3821 15.9412H56.4451C56.013 15.3811 55.4152 14.9711 54.6943 14.756H44.0127C44.0776 15.1884 44.2052 15.5872 44.3844 15.9412H44.3821Z" fill="black"/>
<path d="M53.4633 20.0076V20.7021C53.4633 20.9127 53.4141 21.0763 53.3223 21.195H57.2022C57.2089 21.0964 57.2112 20.9978 57.2112 20.897V20.0098H53.4611L53.4633 20.0076Z" fill="black"/>
<path d="M53.4634 18.5715V19.443H57.2135V18.3788C57.2135 18.3385 57.2135 18.2981 57.2113 18.2578H53.4209C53.45 18.3474 53.4657 18.4527 53.4657 18.5737L53.4634 18.5715Z" fill="black"/>
<path d="M56.2972 8.93752C55.6278 8.18697 54.6293 7.75232 53.4158 7.75232H47.7314C46.5314 7.75232 45.5373 8.18697 44.8701 8.93752H56.2972Z" fill="black"/>
<path d="M53.463 11.7447V12.4393H57.2131V11.5521C57.2131 11.4512 57.2086 11.3527 57.2042 11.2541H53.3242C53.416 11.3728 53.4653 11.5364 53.4653 11.747L53.463 11.7447Z" fill="black"/>
<path d="M47.7071 20.6999V20.0054H43.957V20.8926C43.957 20.9934 43.9615 21.092 43.966 21.1906H47.8459C47.7541 21.0718 47.7049 20.9105 47.7049 20.6977L47.7071 20.6999Z" fill="black"/>
<path d="M47.7068 12.4393V11.7448C47.7068 11.5342 47.7561 11.3706 47.8479 11.2519H43.9679C43.9612 11.3505 43.959 11.4491 43.959 11.5499V12.4371H47.7091L47.7068 12.4393Z" fill="black"/>
<path d="M44.8721 23.5071C45.5415 24.2577 46.54 24.6923 47.7535 24.6923H53.4379C54.638 24.6923 55.632 24.2577 56.2992 23.5071H44.8721Z" fill="black"/>
<path d="M56.7048 22.9426C56.9063 22.5908 57.0519 22.192 57.1325 21.7574H44.0352C44.118 22.192 44.2635 22.5908 44.465 22.9426H56.7026H56.7048Z" fill="black"/>
<path d="M44.4647 9.50201C44.2632 9.85377 44.1177 10.2526 44.0371 10.6872H57.1322C57.0493 10.2526 56.9038 9.85377 56.7023 9.50201H44.4647Z" fill="black"/>
<path d="M44.7425 16.5057C45.188 17.0748 45.8082 17.4848 46.556 17.6909H57.1614C57.0987 17.2585 56.9756 16.862 56.7965 16.5057H44.7402H44.7425Z" fill="black"/>
<path d="M47.7071 13.0039H43.957V14.0457C43.957 14.095 43.957 14.1421 43.9593 14.1913H47.7609C47.725 14.095 47.7049 13.983 47.7049 13.853V13.0061L47.7071 13.0039Z" fill="black"/>
</svg>
