<svg width="28" height="28" viewBox="0 0 28 28" fill="none" xmlns="http://www.w3.org/2000/svg">
    <path d="M25.5874 3.5262L18.5874 1.7762C18.4088 1.73186 18.2208 1.74456 18.0499 1.81251L9.56235 5.20751L2.83736 3.5262C2.70836 3.49393 2.5737 3.49148 2.44361 3.51905C2.31353 3.54661 2.19143 3.60347 2.08661 3.68529C1.98178 3.76711 1.89699 3.87174 1.83866 3.99125C1.78034 4.11075 1.75001 4.24197 1.75 4.37495V23.6249C1.75002 23.82 1.81524 24.0095 1.9353 24.1633C2.05536 24.3171 2.22337 24.4263 2.41264 24.4737L9.41264 26.2237C9.48212 26.2409 9.55342 26.2497 9.625 26.2499C9.7364 26.25 9.84678 26.2287 9.95015 26.1871L18.4377 22.7921L25.1629 24.4738C25.2919 24.506 25.4265 24.5084 25.5566 24.4808C25.6867 24.4532 25.8087 24.3964 25.9135 24.3145C26.0183 24.2327 26.1031 24.1281 26.1614 24.0086C26.2197 23.8891 26.25 23.7579 26.25 23.6249V4.37495C26.25 4.17985 26.1848 3.99036 26.0647 3.83658C25.9446 3.6828 25.7766 3.57355 25.5874 3.5262ZM24.5 9.62495H19.25V3.74548L24.5 5.05798V9.62495ZM8.75 16.6249H3.5V11.375H8.75V16.6249ZM10.5 9.62495V6.71741L17.5 3.91741V9.62495H10.5ZM17.5 11.375V16.6249H10.5V11.375H17.5ZM10.5 18.3749H17.5V21.2823L10.5 24.0823V18.3749ZM19.25 11.375H24.5V16.6249H19.25V11.375ZM8.75 6.80798V9.62495H3.5V5.49548L8.75 6.80798ZM3.5 18.3749H8.75V24.2542L3.5 22.9417V18.3749ZM19.25 21.1913V18.3749H24.5V22.5042L19.25 21.1913Z" fill="#F9F9F9" fill-opacity="0.5"/>
</svg>
