<svg width="56" height="56" viewBox="0 0 56 56" fill="none" xmlns="http://www.w3.org/2000/svg">
<g clip-path="url(#clip0_8907_177203)">
<path fill-rule="evenodd" clip-rule="evenodd" d="M31.5 21L37.7755 15.0255L40.25 17.5L29.75 28L19.25 17.5L21.7245 15.0255L28 21V3.5H31.5V21ZM49.2681 28.4006C49.9021 28.6645 50.4777 29.0511 50.9619 29.5381C51.4495 30.0255 51.8364 30.6041 52.1003 31.241C52.3642 31.8779 52.5 32.5606 52.5 33.25C52.5 33.9394 52.3642 34.6221 52.1003 35.259C51.8364 35.8959 51.4495 36.4746 50.9619 36.9619L37.9873 49.9366C37.1767 50.7519 36.2125 51.3982 35.1504 51.8382C34.0884 52.2782 32.9496 52.5032 31.8 52.5H19.25V49H31.8C32.4898 49.002 33.1732 48.8671 33.8105 48.6031C34.4478 48.3391 35.0264 47.9512 35.5127 47.4619L48.4873 34.4873C48.7316 34.2429 48.8981 33.9317 48.9657 33.5928C49.0334 33.2539 48.9993 32.9026 48.8676 32.5831C48.7359 32.2636 48.5126 31.9903 48.2258 31.7975C47.939 31.6048 47.6015 31.5013 47.256 31.5H47.25C47.0201 31.4994 46.7924 31.5444 46.58 31.6324C46.3676 31.7204 46.1748 31.8497 46.0127 32.0128L36.3253 41.6992C35.6769 42.3516 34.9055 42.8687 34.0558 43.2208C33.2061 43.5728 32.295 43.7527 31.3752 43.75H22.75V40.25H29.75C30.2141 40.25 30.6593 40.0656 30.9874 39.7375C31.3156 39.4093 31.5 38.9641 31.5 38.5C31.5 38.0359 31.3156 37.5908 30.9874 37.2626C30.6593 36.9344 30.2141 36.75 29.75 36.75H17.5C16.1081 36.7515 14.7736 37.3052 13.7894 38.2894C12.8051 39.2736 12.2515 40.6081 12.25 42V44.3328L6.3 52.2604L3.5 50.1604L8.75 43.1673V42C8.75273 39.6802 9.67548 37.4562 11.3158 35.8159C12.9562 34.1755 15.1802 33.2528 17.5 33.25H29.75C31.0722 33.2539 32.344 33.7575 33.3104 34.6597C34.2769 35.562 34.8665 36.7963 34.9612 38.115L43.5381 29.5381C44.0242 29.0488 44.6026 28.6609 45.2398 28.3969C45.877 28.1328 46.5603 27.998 47.25 28H47.2675C47.9542 28.0005 48.6341 28.1366 49.2681 28.4006Z" fill="url(#paint0_linear_8907_177203)"/>
</g>
<defs>
<linearGradient id="paint0_linear_8907_177203" x1="29.75" y1="3.5" x2="29.75" y2="66.5" gradientUnits="userSpaceOnUse">
<stop stop-color="#FF6647"/>
<stop offset="1" stop-color="#FF6647" stop-opacity="0"/>
</linearGradient>
<clipPath id="clip0_8907_177203">
<rect width="56" height="56" fill="white"/>
</clipPath>
</defs>
</svg>
