<svg width="32" height="31" viewBox="0 0 32 31" fill="none" xmlns="http://www.w3.org/2000/svg">
<g clip-path="url(#clip0_13785_231821)">
<path d="M16 31C24.5604 31 31.5 24.0604 31.5 15.5C31.5 6.93959 24.5604 0 16 0C7.43959 0 0.5 6.93959 0.5 15.5C0.5 24.0604 7.43959 31 16 31Z" fill="#8247E5"/>
<g clip-path="url(#clip1_13785_231821)">
<path d="M20.9447 11.7957C20.5915 11.5991 20.1374 11.5991 19.7337 11.7957L16.9082 13.418L14.9909 14.4504L12.2158 16.0727C11.8626 16.2693 11.4085 16.2693 11.0049 16.0727L8.83529 14.7945C8.4821 14.5978 8.22982 14.2046 8.22982 13.7621V11.3041C8.22982 10.9108 8.43164 10.5175 8.83529 10.2717L11.0049 9.04272C11.3581 8.84608 11.8122 8.84608 12.2158 9.04272L14.3854 10.3209C14.7386 10.5175 14.9909 10.9108 14.9909 11.3533V12.9756L16.9082 11.894V10.2226C16.9082 9.82929 16.7064 9.436 16.3027 9.1902L12.2663 6.87966C11.9131 6.68302 11.459 6.68302 11.0553 6.87966L6.91797 9.23936C6.51432 9.436 6.3125 9.82929 6.3125 10.2226V14.8437C6.3125 15.2369 6.51432 15.6302 6.91797 15.876L11.0049 18.1866C11.3581 18.3832 11.8122 18.3832 12.2158 18.1866L14.9909 16.6134L16.9082 15.5319L19.6833 13.9588C20.0365 13.7621 20.4906 13.7621 20.8942 13.9588L23.0638 15.1878C23.417 15.3844 23.6693 15.7777 23.6693 16.2201V18.6782C23.6693 19.0715 23.4674 19.4647 23.0638 19.7105L20.9447 20.9395C20.5915 21.1362 20.1374 21.1362 19.7337 20.9395L17.5641 19.7105C17.2109 19.5139 16.9587 19.1206 16.9587 18.6782V17.105L15.0413 18.1866V19.8089C15.0413 20.2021 15.2432 20.5954 15.6468 20.8412L19.7337 23.1518C20.0869 23.3484 20.541 23.3484 20.9447 23.1518L25.0316 20.8412C25.3848 20.6446 25.637 20.2513 25.637 19.8089V15.1386C25.637 14.7453 25.4352 14.352 25.0316 14.1062L20.9447 11.7957Z" fill="white"/>
</g>
</g>
<defs>
<clipPath id="clip0_13785_231821">
<rect width="31" height="31" fill="white" transform="translate(0.5)"/>
</clipPath>
<clipPath id="clip1_13785_231821">
<rect width="19.375" height="16.4688" fill="white" transform="translate(6.3125 6.78125)"/>
</clipPath>
</defs>
</svg>
