<svg width="31" height="31" viewBox="0 0 31 31" fill="none" xmlns="http://www.w3.org/2000/svg">
<g clip-path="url(#clip0_13785_231910)">
<path d="M15.5 31C24.0604 31 31 24.0604 31 15.5C31 6.93959 24.0604 0 15.5 0C6.93959 0 0 6.93959 0 15.5C0 24.0604 6.93959 31 15.5 31Z" fill="#26A17B"/>
<path d="M17.1496 16.9303C17.0425 16.9303 16.4893 16.9701 15.2607 16.9701C14.2764 16.9701 13.5861 16.9427 13.3419 16.9303C9.55663 16.7733 6.73324 16.1054 6.73324 15.3155C6.73324 14.5255 9.55912 13.8677 13.3394 13.7007V16.2749C13.5886 16.2923 14.2963 16.3347 15.2757 16.3347C16.4519 16.3347 17.04 16.2849 17.1471 16.2749V13.7032C20.9274 13.8726 23.7409 14.5305 23.7409 15.318C23.7409 16.1054 20.925 16.7733 17.1496 16.9328V16.9303ZM17.1496 13.444V11.134H22.4201V7.6228H8.07142V11.134H13.3394V13.4365C9.05824 13.6334 5.83862 14.4807 5.83862 15.4974C5.83862 16.5141 9.06073 17.3614 13.3394 17.5607V24.9419H17.1521V17.5607C21.4258 17.3639 24.6405 16.5166 24.6405 15.4999C24.6405 14.4832 21.4258 13.6359 17.1646 13.439" fill="white"/>
</g>
<defs>
<clipPath id="clip0_13785_231910">
<rect width="31" height="31" fill="white"/>
</clipPath>
</defs>
</svg>
