<svg width="16" height="16" viewBox="0 0 16 16" fill="none" xmlns="http://www.w3.org/2000/svg">
    <path d="M8.00099 3.08569H7.99899L2.32434 13.9983L2.32529 14H13.6747L13.6756 13.9983L8.00099 3.08569ZM7.43749 5.99999H8.56249V10.5H7.43749V5.99999ZM7.99999 13C7.85165 13 7.70665 12.956 7.58331 12.8736C7.45998 12.7912 7.36385 12.6741 7.30708 12.537C7.25032 12.4 7.23546 12.2492 7.2644 12.1037C7.29334 11.9582 7.36477 11.8246 7.46966 11.7197C7.57455 11.6148 7.70819 11.5433 7.85367 11.5144C7.99916 11.4855 8.14996 11.5003 8.287 11.5571C8.42405 11.6138 8.54118 11.71 8.62359 11.8333C8.706 11.9567 8.74999 12.1017 8.74999 12.25C8.74999 12.4489 8.67097 12.6397 8.53032 12.7803C8.38967 12.921 8.1989 13 7.99999 13Z" fill="#E3B30F"/>
    <path d="M14.5 15H1.5C1.4141 15 1.32965 14.9779 1.25478 14.9357C1.17992 14.8936 1.11718 14.8329 1.0726 14.7595C1.02802 14.686 1.00311 14.6024 1.00027 14.5165C0.997436 14.4307 1.01677 14.3455 1.0564 14.2693L7.5564 1.76931C7.59862 1.68812 7.66231 1.62008 7.74053 1.5726C7.81875 1.52511 7.9085 1.5 8 1.5C8.09151 1.5 8.18126 1.52511 8.25948 1.5726C8.3377 1.62008 8.40138 1.68812 8.4436 1.76931L14.9436 14.2693C14.9832 14.3455 15.0026 14.4307 14.9997 14.5165C14.9969 14.6024 14.972 14.686 14.9274 14.7595C14.8828 14.8329 14.8201 14.8936 14.7452 14.9357C14.6704 14.9779 14.5859 15 14.5 15V15ZM2.32535 14H13.6747L13.6757 13.9984L8.001 3.08571H7.999L2.32435 13.9984L2.32535 14Z" fill="#E3B30F"/>
</svg>