<svg width="31" height="31" viewBox="0 0 31 31" fill="none" xmlns="http://www.w3.org/2000/svg">
<g filter="url(#filter0_d_13785_231935)">
<path d="M15.5 29.0625C23.5254 29.0625 30.0312 22.5566 30.0312 14.5312C30.0312 6.50586 23.5254 0 15.5 0C7.47461 0 0.96875 6.50586 0.96875 14.5312C0.96875 22.5566 7.47461 29.0625 15.5 29.0625Z" fill="black"/>
</g>
<path d="M15.5 29.0625C23.5254 29.0625 30.0312 22.5566 30.0312 14.5312C30.0312 6.50586 23.5254 0 15.5 0C7.47461 0 0.96875 6.50586 0.96875 14.5312C0.96875 22.5566 7.47461 29.0625 15.5 29.0625Z" fill="#627EEA"/>
<path style="mix-blend-mode:soft-light" d="M15.5 29.0625C23.5254 29.0625 30.0312 22.5566 30.0312 14.5312C30.0312 6.50586 23.5254 0 15.5 0C7.47461 0 0.96875 6.50586 0.96875 14.5312C0.96875 22.5566 7.47461 29.0625 15.5 29.0625Z" fill="url(#paint0_linear_13785_231935)"/>
<path d="M15.5 28.5781C23.2579 28.5781 29.5469 22.2891 29.5469 14.5312C29.5469 6.77338 23.2579 0.484375 15.5 0.484375C7.74213 0.484375 1.45312 6.77338 1.45312 14.5312C1.45312 22.2891 7.74213 28.5781 15.5 28.5781Z" stroke="black" stroke-opacity="0.097"/>
<g filter="url(#filter1_d_13785_231935)">
<path d="M15.9824 20.3127L23.25 16.0967L15.9824 26.1514L8.71875 16.0958L15.9824 20.3108V20.3127ZM15.9824 2.90625L23.2452 14.7444L15.9824 18.9613L8.71875 14.7444L15.9824 2.90625Z" fill="black"/>
</g>
<path d="M15.9824 2.90625V11.4991L23.2451 14.7444L15.9824 2.90625Z" fill="white" fill-opacity="0.602"/>
<path d="M15.9824 2.90625L8.71875 14.7444L15.9824 11.4991V2.90625Z" fill="white"/>
<path d="M15.9824 20.3127V26.1513L23.25 16.0967L15.9824 20.3127Z" fill="white" fill-opacity="0.602"/>
<path d="M15.9824 26.1513V20.3117L8.71875 16.0967L15.9824 26.1513Z" fill="white"/>
<path d="M15.9824 18.9613L23.2451 14.7444L15.9824 11.501V18.9613Z" fill="white" fill-opacity="0.2"/>
<path d="M8.71875 14.7444L15.9824 18.9613V11.501L8.71875 14.7444Z" fill="white" fill-opacity="0.602"/>
<defs>
<filter id="filter0_d_13785_231935" x="-0.03125" y="-0.5" width="31.0625" height="31.0625" filterUnits="userSpaceOnUse" color-interpolation-filters="sRGB">
<feFlood flood-opacity="0" result="BackgroundImageFix"/>
<feColorMatrix in="SourceAlpha" type="matrix" values="0 0 0 0 0 0 0 0 0 0 0 0 0 0 0 0 0 0 127 0" result="hardAlpha"/>
<feOffset dy="0.5"/>
<feGaussianBlur stdDeviation="0.5"/>
<feComposite in2="hardAlpha" operator="out"/>
<feColorMatrix type="matrix" values="0 0 0 0 0 0 0 0 0 0 0 0 0 0 0 0 0 0 0.199474 0"/>
<feBlend mode="normal" in2="BackgroundImageFix" result="effect1_dropShadow_13785_231935"/>
<feBlend mode="normal" in="SourceGraphic" in2="effect1_dropShadow_13785_231935" result="shape"/>
</filter>
<filter id="filter1_d_13785_231935" x="7.71875" y="2.40625" width="16.5312" height="25.2451" filterUnits="userSpaceOnUse" color-interpolation-filters="sRGB">
<feFlood flood-opacity="0" result="BackgroundImageFix"/>
<feColorMatrix in="SourceAlpha" type="matrix" values="0 0 0 0 0 0 0 0 0 0 0 0 0 0 0 0 0 0 127 0" result="hardAlpha"/>
<feOffset dy="0.5"/>
<feGaussianBlur stdDeviation="0.5"/>
<feComposite in2="hardAlpha" operator="out"/>
<feColorMatrix type="matrix" values="0 0 0 0 0 0 0 0 0 0 0 0 0 0 0 0 0 0 0.204257 0"/>
<feBlend mode="normal" in2="BackgroundImageFix" result="effect1_dropShadow_13785_231935"/>
<feBlend mode="normal" in="SourceGraphic" in2="effect1_dropShadow_13785_231935" result="shape"/>
</filter>
<linearGradient id="paint0_linear_13785_231935" x1="1454.09" y1="0" x2="1454.09" y2="2906.25" gradientUnits="userSpaceOnUse">
<stop stop-color="white" stop-opacity="0.5"/>
<stop offset="1" stop-opacity="0.5"/>
</linearGradient>
</defs>
</svg>
