<svg width="120" height="135" viewBox="0 0 120 135" fill="none" xmlns="http://www.w3.org/2000/svg">
<path d="M59.9994 134.244C44.0474 134.244 29.0331 128.793 17.7198 118.894C6.29327 108.897 0 95.5691 0 81.3681C0 81.1926 0.0033333 81.0037 0.00777771 80.807C0.0399996 78.0748 0.311108 75.3326 0.814437 72.656C2.26998 62.2283 5.76772 44.5918 10.8599 29.0808C17.2843 9.51214 24.0387 0 31.5075 0C38.9763 0 45.7107 9.47436 52.1106 28.9464C54.7195 28.6442 57.3639 28.492 59.9994 28.492C62.635 28.492 65.2794 28.6442 67.8883 28.9464C74.2882 9.47436 81.0381 0 88.4914 0C95.9447 0 102.715 9.51213 109.139 29.082C114.231 44.5918 117.729 62.2283 119.184 72.6571C119.688 75.3337 119.959 78.076 119.992 80.8081C119.997 81.0048 120 81.1937 120 81.3692C120 95.5702 113.707 108.897 102.28 118.896C90.9669 128.794 75.9526 134.245 60.0006 134.245L59.9994 134.244Z" fill="white"/>
<path d="M116.976 80.8638C116.946 78.2372 116.683 75.6594 116.207 73.145C113.219 51.6574 101.943 3.01562 88.4903 3.01562C81.427 3.01562 74.9648 16.4244 69.986 32.272C66.7427 31.7698 63.4061 31.5076 59.9983 31.5076C56.5906 31.5076 53.2539 31.7698 50.0106 32.272C45.0329 16.4244 38.5707 3.01562 31.5075 3.01562C18.0543 3.01562 6.77992 51.6574 3.79106 73.145C3.3144 75.6594 3.05218 78.2372 3.02218 80.8638C3.01774 81.0416 3.0144 81.2116 3.0144 81.3693C3.0144 108.907 28.5275 131.23 59.9983 131.23C91.4691 131.23 116.982 108.907 116.982 81.3693C116.982 81.2116 116.98 81.0416 116.974 80.8638H116.976Z" fill="black"/>
<path d="M43.2861 33.6884C41.465 27.9696 39.5762 23.0185 37.7173 19.1141C35.5984 14.6631 33.8973 12.3164 32.7696 11.0953C32.0874 10.3575 30.9285 10.3575 30.2463 11.0953C29.1185 12.3164 27.4174 14.6631 25.2985 19.1141C22.5986 24.7863 19.8341 32.6651 17.3064 41.8995C16.5064 44.8206 15.7575 47.7805 15.0664 50.7027C22.173 42.7417 31.9818 36.7195 43.2861 33.6896V33.6884Z" fill="white"/>
<path d="M104.932 50.7027C104.241 47.7805 103.492 44.8217 102.692 41.8995C100.165 32.6651 97.4013 24.7863 94.7003 19.1141C92.5814 14.6631 90.8803 12.3164 89.7525 11.0953C89.0703 10.3575 87.9114 10.3575 87.2292 11.0953C86.1015 12.3164 84.4004 14.6631 82.2815 19.1141C80.4226 23.0185 78.5337 27.9696 76.7126 33.6884C88.017 36.7184 97.8258 42.7417 104.932 50.7016V50.7027Z" fill="white"/>
<path d="M104.261 112.769L59.9994 68.5073L15.7375 112.769C26.1852 124.03 42.1306 131.229 59.9994 131.229C77.8681 131.229 93.8135 124.03 104.261 112.769Z" fill="white"/>
<path d="M77.0948 58.5749C77.0948 58.5749 69.4416 71.3959 59.9994 71.3959C50.5573 71.3959 42.9041 58.5749 42.9041 58.5749C42.9041 58.5749 50.5573 45.7539 59.9994 45.7539C69.4416 45.7539 77.0948 58.5749 77.0948 58.5749Z" fill="black"/>
<path d="M59.9994 72.4016C50.1017 72.4016 42.3651 59.634 42.0407 59.0906L41.7329 58.5751L42.0407 58.0595C42.3651 57.5162 50.1006 44.7485 59.9994 44.7485C69.8982 44.7485 77.6337 57.5162 77.957 58.0595L78.2648 58.5751L77.957 59.0906C77.6326 59.634 69.8971 72.4016 59.9994 72.4016ZM44.094 58.5751C45.6195 60.9117 52.2839 70.3916 59.9994 70.3916C67.7149 70.3916 74.3782 60.9139 75.9048 58.5751C74.3782 56.2373 67.7138 46.7585 59.9994 46.7585C52.285 46.7585 45.6207 56.2362 44.094 58.5751Z" fill="white"/>
<path d="M65.6982 58.5752C65.6982 64.0829 59.9994 68.5473 59.9994 68.5473C59.9994 68.5473 54.3005 64.0829 54.3005 58.5752C54.3005 53.0674 59.9994 48.603 59.9994 48.603C59.9994 48.603 65.6982 53.0674 65.6982 58.5752Z" fill="white"/>
<path d="M59.9994 110.145L65.1283 105.017H54.8706L59.9994 110.145Z" fill="black"/>
<path d="M48.603 87.0671C48.603 96.5081 40.8919 104.162 31.3809 104.162C21.8699 104.162 12.1333 87.0671 12.1333 87.0671C12.1333 87.0671 21.8688 69.9717 31.3809 69.9717C40.893 69.9717 48.603 77.6249 48.603 87.0671Z" fill="black"/>
<path d="M31.3808 105.167C21.3998 105.167 11.6688 88.2824 11.2599 87.5636L10.9766 87.0658L11.2599 86.568C11.6688 85.8491 21.3998 68.9648 31.3808 68.9648C41.3618 68.9648 49.6084 77.0848 49.6084 87.0647C49.6084 97.0446 41.4318 105.165 31.3808 105.165V105.167ZM13.3021 87.0669C14.9732 89.8324 23.4398 103.157 31.3808 103.157C40.323 103.157 47.5984 95.939 47.5984 87.0669C47.5984 78.1948 40.323 70.977 31.3808 70.977C23.4387 70.977 14.9732 84.3014 13.3021 87.0669Z" fill="white"/>
<path d="M38.6307 87.0668C38.6307 94.9345 32.0774 101.313 32.0774 101.313C32.0774 101.313 25.5242 94.9357 25.5242 87.0668C25.5242 79.198 32.0774 72.8203 32.0774 72.8203C32.0774 72.8203 38.6307 79.198 38.6307 87.0668Z" fill="white"/>
<path d="M107.866 87.0671C107.866 87.0671 98.1302 104.162 88.6181 104.162C79.1059 104.162 71.396 96.5092 71.396 87.0671C71.396 77.6249 79.107 69.9717 88.6181 69.9717C98.1291 69.9717 107.866 87.0671 107.866 87.0671Z" fill="black"/>
<path d="M88.618 105.167C78.567 105.167 70.3904 97.047 70.3904 87.0671C70.3904 77.0872 78.567 68.9673 88.618 68.9673C98.669 68.9673 108.33 85.8516 108.739 86.5705L109.022 87.0682L108.739 87.566C108.33 88.2849 98.599 105.169 88.618 105.169V105.167ZM88.618 70.9762C79.6758 70.9762 72.4015 78.1939 72.4015 87.066C72.4015 95.9381 79.6758 103.156 88.618 103.156C96.5601 103.156 105.026 89.8315 106.697 87.066C105.026 84.3005 96.5601 70.9762 88.618 70.9762Z" fill="white"/>
<path d="M94.4747 87.0668C94.4747 94.9345 87.9214 101.313 87.9214 101.313C87.9214 101.313 81.3682 94.9357 81.3682 87.0668C81.3682 79.198 87.9214 72.8203 87.9214 72.8203C87.9214 72.8203 94.4747 79.198 94.4747 87.0668Z" fill="white"/>
<path d="M88.4914 6.03115C90.4514 6.03115 92.9425 8.3378 95.5047 12.5255C98.1546 16.8566 100.813 23.0599 103.408 30.9631C108.068 45.1575 111.693 62.5851 113.22 73.5605L113.23 73.6339L113.243 73.7072C113.691 76.0672 113.932 78.4871 113.959 80.8982V80.9204V80.9416C113.962 81.0916 113.966 81.236 113.966 81.3693C113.966 87.6426 112.56 93.7303 109.788 99.4647C107.095 105.036 103.231 110.046 98.3046 114.357C93.3491 118.693 87.5703 122.1 81.1303 124.483C74.4415 126.959 67.3305 128.214 59.9961 128.214C52.6617 128.214 45.5507 126.959 38.8618 124.483C32.4219 122.1 26.6442 118.692 21.6876 114.357C16.7609 110.046 12.8976 105.036 10.2043 99.4647C7.43214 93.7303 6.0266 87.6415 6.0266 81.3693C6.0266 81.236 6.02882 81.0916 6.03327 80.9416V80.9204V80.8982C6.06104 78.4871 6.30104 76.0672 6.74881 73.7072L6.76215 73.6339L6.77215 73.5605C8.2988 62.5851 11.9243 45.1575 16.5843 30.9631C19.1787 23.0599 21.8376 16.8566 24.4875 12.5255C27.0497 8.3378 29.5408 6.03115 31.5008 6.03115C34.933 6.03115 40.8407 13.1622 47.1284 33.1753L47.9051 35.6475L50.4662 35.2509C53.5928 34.7676 56.7983 34.522 59.9928 34.522C63.1872 34.522 66.3927 34.7676 69.5193 35.2509L72.0804 35.6475L72.8571 33.1753C79.1448 13.1611 85.0525 6.03115 88.4847 6.03115M88.4847 3.01562C81.4214 3.01562 74.9593 16.4244 69.9804 32.272C66.7371 31.7698 63.4005 31.5076 59.9928 31.5076C56.585 31.5076 53.2484 31.7698 50.0051 32.272C45.0329 16.4244 38.5707 3.01562 31.5075 3.01562C18.0543 3.01562 6.77992 51.6574 3.79106 73.145C3.3144 75.6594 3.05218 78.2372 3.02218 80.8638C3.01774 81.0416 3.0144 81.2116 3.0144 81.3693C3.0144 108.907 28.5275 131.23 59.9983 131.23C91.4691 131.23 116.982 108.907 116.982 81.3693C116.982 81.2116 116.979 81.0416 116.974 80.8638C116.944 78.2372 116.682 75.6594 116.206 73.145C113.218 51.6574 101.942 3.01562 88.4892 3.01562H88.4847Z" fill="black"/>
</svg>
