<svg width="80" height="80" viewBox="0 0 80 80" fill="none" xmlns="http://www.w3.org/2000/svg">
<g clip-path="url(#clip0_341_3498)">
<path d="M59.6875 42.4609H54.7656V47.3828H59.6875V42.4609Z" fill="#F9F9F9"/>
<path d="M69.5312 20.3125H10.4688V12.9297H64.6094V8.00781H10.4688C9.16339 8.00781 7.91149 8.52637 6.98846 9.4494C6.06543 10.3724 5.54688 11.6243 5.54688 12.9297V64.6094C5.54688 65.9147 6.06543 67.1666 6.98846 68.0897C7.91149 69.0127 9.16339 69.5312 10.4688 69.5312H69.5312C70.8366 69.5312 72.0885 69.0127 73.0115 68.0897C73.9346 67.1666 74.4531 65.9147 74.4531 64.6094V25.2344C74.4531 23.929 73.9346 22.6771 73.0115 21.7541C72.0885 20.8311 70.8366 20.3125 69.5312 20.3125ZM10.4688 64.6094V25.2344H69.5312V32.6172H49.8438C48.5384 32.6172 47.2865 33.1357 46.3635 34.0588C45.4404 34.9818 44.9219 36.2337 44.9219 37.5391V52.3047C44.9219 53.6101 45.4404 54.8619 46.3635 55.785C47.2865 56.708 48.5384 57.2266 49.8438 57.2266H69.5312V64.6094H10.4688ZM69.5312 37.5391V52.3047H49.8438V37.5391H69.5312Z" fill="#F9F9F9"/>
</g>
<defs>
<clipPath id="clip0_341_3498">
<rect width="78.75" height="78.75" fill="white" transform="translate(0.625 0.625)"/>
</clipPath>
</defs>
</svg>
