<svg width="116" height="116" viewBox="0 0 116 116" fill="none" xmlns="http://www.w3.org/2000/svg">
<g clip-path="url(#clip0_341_3520)">
<path d="M47.2539 30.3469C46.154 30.1898 46.1017 30.1374 46.6254 30.085C47.6205 29.9279 49.9249 30.1374 51.5485 30.504C55.3194 31.3943 58.7237 33.6988 62.3375 37.7316L63.2802 38.8314L64.6419 38.6219C70.4554 37.6792 76.426 38.4124 81.4015 40.7168C82.7632 41.3453 84.9105 42.6023 85.1724 42.9165C85.2771 43.0213 85.4342 43.7021 85.539 44.383C85.9056 46.8446 85.7485 48.6776 84.9629 50.0917C84.5439 50.8773 84.5439 51.0868 84.8057 51.7677C85.0152 52.2914 85.6437 52.658 86.2198 52.658C87.4768 52.658 88.7861 50.6678 89.4146 47.892L89.6765 46.7922L90.1479 47.3159C92.8189 50.3012 94.9139 54.4387 95.2281 57.3716L95.3328 58.1572L94.8615 57.4764C94.0759 56.2718 93.3426 55.4862 92.3475 54.8053C90.5668 53.6007 88.6814 53.2341 83.7059 52.9723C79.2018 52.7104 76.6355 52.3438 74.1215 51.5058C69.8269 50.0917 67.6272 48.2586 62.547 41.5024C60.2949 38.5172 58.8808 36.8936 57.4667 35.5319C54.3767 32.5466 51.2867 30.9754 47.2539 30.3469Z" fill="white"/>
<path d="M86.2722 36.998C86.377 35.0078 86.6388 33.6985 87.2149 32.4939C87.4244 32.0225 87.6339 31.6035 87.6863 31.6035C87.7387 31.6035 87.6339 31.9701 87.4768 32.3891C87.0578 33.5413 87.0054 35.1649 87.2673 36.998C87.6339 39.3548 87.791 39.669 90.305 42.2354C91.4572 43.4399 92.8189 44.9588 93.3426 45.5873L94.233 46.7395L93.3426 45.9015C92.2428 44.854 89.7289 42.8638 89.1528 42.602C88.7861 42.3925 88.7338 42.3925 88.4719 42.6543C88.2624 42.8638 88.21 43.1781 88.21 44.6969C88.1577 47.0537 87.8434 48.5202 87.0578 50.039C86.6388 50.8246 86.5865 50.6675 86.9531 49.7771C87.2149 49.0963 87.2673 48.7821 87.2673 46.53C87.2673 41.9735 86.7436 40.8736 83.5488 39.0406C82.7632 38.5692 81.4015 37.8883 80.6159 37.5217C79.7779 37.1551 79.1494 36.8409 79.2018 36.8409C79.3065 36.7361 82.3966 37.6265 83.6012 38.1502C85.4342 38.8834 85.7485 38.9358 85.958 38.8834C86.1151 38.7263 86.2198 38.3073 86.2722 36.998Z" fill="white"/>
<path d="M49.4012 44.8021C47.2015 41.7644 45.7875 37.0508 46.1017 33.5417L46.2064 32.4419L46.7302 32.5466C47.6729 32.7038 49.2965 33.3322 50.0821 33.8036C52.177 35.0606 53.1198 36.7889 54.0101 41.0835C54.272 42.3405 54.6386 43.807 54.7957 44.2783C55.0576 45.0639 56.0527 46.897 56.8907 48.0492C57.4668 48.8872 57.1001 49.3062 55.7908 49.2014C53.8006 48.9919 51.1296 47.1589 49.4012 44.8021Z" fill="white"/>
<path d="M83.6013 67.5842C73.2313 63.3944 69.5652 59.7806 69.5652 53.6529C69.5652 52.7625 69.6176 52.0293 69.6176 52.0293C69.6699 52.0293 70.0365 52.3435 70.5079 52.7102C72.6029 54.3861 74.9597 55.1193 81.5064 56.0621C85.3296 56.6382 87.5293 57.0572 89.5195 57.738C95.8567 59.833 99.7847 64.1276 100.727 69.9411C100.989 71.617 100.832 74.8118 100.413 76.4878C100.047 77.7971 98.9991 80.2063 98.7373 80.2587C98.6849 80.2587 98.5801 79.9968 98.5801 79.5778C98.4754 77.3781 97.3756 75.2832 95.5425 73.6596C93.3428 71.7741 90.5146 70.36 83.6013 67.5842Z" fill="white"/>
<path d="M76.269 69.3129C76.1642 68.5273 75.9023 67.5322 75.7452 67.1132L75.4834 66.3276L75.9547 66.9037C76.6356 67.6893 77.1593 68.6321 77.6307 69.9414C77.9973 70.9365 77.9973 71.2508 77.9973 72.8743C77.9973 74.4455 77.9449 74.8122 77.6307 75.7025C77.1069 77.1166 76.4785 78.1117 75.431 79.2115C73.5455 81.1494 71.084 82.1968 67.5749 82.6682C66.9465 82.7206 65.1658 82.8777 63.5946 82.9824C59.6665 83.1919 57.0479 83.6109 54.691 84.4489C54.3768 84.5536 54.0626 84.6584 54.0102 84.606C53.9054 84.5013 55.529 83.5585 56.8384 82.9301C58.6714 82.0397 60.5569 81.5683 64.6944 80.8351C66.737 80.5209 68.8319 80.1019 69.3556 79.8924C74.5406 78.2688 77.1069 74.236 76.269 69.3129Z" fill="white"/>
<path d="M81.0349 77.7446C79.6732 74.7593 79.359 71.9311 80.0922 69.2601C80.197 68.9982 80.3017 68.7363 80.4065 68.7363C80.5112 68.7363 80.8255 68.8934 81.1397 69.1029C81.7682 69.5219 83.0775 70.2552 86.4294 72.0882C90.6717 74.3927 93.0809 76.1734 94.7568 78.2159C96.2233 79.9966 97.1136 82.0392 97.5326 84.5532C97.7945 85.9672 97.6374 89.3715 97.2708 90.7856C96.1185 95.2374 93.4999 98.7988 89.6766 100.841C89.1005 101.156 88.6291 101.365 88.5767 101.365C88.5244 101.365 88.7339 100.841 89.0481 100.213C90.3051 97.5418 90.4622 94.9755 89.5195 92.0949C88.9434 90.3142 87.7388 88.1669 85.3296 84.5532C82.449 80.3633 81.7682 79.2634 81.0349 77.7446Z" fill="white"/>
<path d="M42.0166 93.7711C45.8922 90.5239 50.6582 88.2195 55.0576 87.4863C56.9431 87.172 60.0855 87.2768 61.8138 87.7481C64.5896 88.4814 67.1035 90.0526 68.4129 91.9904C69.6698 93.8758 70.246 95.4994 70.8221 99.1132C71.0316 100.527 71.2934 101.994 71.3458 102.308C71.7648 104.193 72.6028 105.66 73.6502 106.446C75.2738 107.65 78.102 107.702 80.8778 106.655C81.3492 106.498 81.7681 106.341 81.7681 106.393C81.8729 106.498 80.4588 107.441 79.5161 107.912C78.2067 108.593 77.1593 108.802 75.7452 108.802C73.2312 108.802 71.0839 107.493 69.3556 104.874C68.989 104.351 68.2558 102.832 67.6273 101.418C65.7942 97.1754 64.8515 95.9184 62.7042 94.5043C60.8187 93.2997 58.4095 93.0379 56.5765 93.9282C54.1673 95.0804 53.5388 98.1705 55.2147 100.056C55.8956 100.842 57.1526 101.47 58.2 101.627C60.1379 101.889 61.8138 100.37 61.8138 98.4323C61.8138 97.1754 61.3424 96.4421 60.0855 95.866C58.4095 95.1328 56.5764 95.9708 56.6288 97.5944C56.6288 98.2752 56.9431 98.6942 57.6239 99.0085C58.0429 99.2179 58.0429 99.2179 57.7287 99.1656C56.2098 98.8513 55.8432 96.9659 57.0478 95.7613C58.5143 94.2948 61.6043 94.9233 62.6518 96.9659C63.0708 97.8039 63.1231 99.4798 62.7565 100.527C61.8662 102.832 59.3522 104.036 56.7859 103.355C55.0576 102.884 54.3244 102.413 52.2294 100.265C48.5633 96.4945 47.1492 95.7613 41.9118 94.9757L40.9167 94.8186L42.0166 93.7711Z" fill="white"/>
<path fill-rule="evenodd" clip-rule="evenodd" d="M14.4681 9.50206C26.6711 24.3238 45.4733 47.3682 46.416 48.6251C47.2016 49.6726 46.8873 50.6677 45.578 51.4009C44.8448 51.8199 43.3259 52.2389 42.5927 52.2389C41.7547 52.2389 40.7596 51.8199 40.0788 51.1391C39.6074 50.6677 37.5648 47.6824 32.956 40.5072C29.4469 35.008 26.4616 30.4515 26.4093 30.3991C26.1998 30.2944 26.1998 30.2944 32.5894 41.7118C36.6221 48.887 37.9315 51.4533 37.9315 51.7675C37.9315 52.4484 37.722 52.815 36.884 53.7577C35.4699 55.3289 34.8414 57.1096 34.3701 60.8282C33.8463 64.9657 32.4322 67.8986 28.3995 72.8741C26.0427 75.807 25.676 76.3307 25.0999 77.5353C24.3667 79.0018 24.1572 79.8398 24.0525 81.7252C23.9477 83.7154 24.1572 84.9724 24.7333 86.8578C25.257 88.5338 25.8332 89.6336 27.2472 91.781C28.4518 93.6664 29.1851 95.0805 29.1851 95.6042C29.1851 96.0232 29.2898 96.0232 31.1753 95.6042C35.6794 94.5567 39.3979 92.7761 41.4405 90.5764C42.6975 89.2147 43.0117 88.4814 43.0117 86.596C43.0117 85.3914 42.9593 85.1295 42.6451 84.3963C42.1213 83.2441 41.1262 82.3013 38.9789 80.8349C36.1508 78.897 34.9462 77.3258 34.6319 75.2309C34.3701 73.4502 34.6843 72.2456 36.2555 68.9461C37.8791 65.5418 38.2981 64.1277 38.5599 60.671C38.7171 58.4714 38.9789 57.581 39.6074 56.9002C40.2883 56.1669 40.8644 55.9051 42.488 55.6956C45.159 55.3289 46.8873 54.6481 48.2491 53.3387C49.4536 52.2389 49.9774 51.1391 50.0298 49.5155L50.0821 48.3109L49.4013 47.5777C46.9397 44.7495 12.8445 7.25 12.6874 7.25C12.635 7.25 13.473 8.2451 14.4681 9.50206ZM30.5468 83.9773C31.1229 82.9822 30.8086 81.7252 29.8659 81.0967C28.9756 80.5206 27.6139 80.7825 27.6139 81.5681C27.6139 81.7776 27.7186 81.9871 28.0328 82.0918C28.5042 82.3537 28.5566 82.6156 28.19 83.1917C27.8234 83.7678 27.8234 84.2915 28.2947 84.6581C29.0279 85.2343 30.023 84.92 30.5468 83.9773Z" fill="white"/>
<path fill-rule="evenodd" clip-rule="evenodd" d="M51.7584 56.4288C50.5015 56.7954 49.2969 58.1571 48.9303 59.5188C48.7208 60.3568 48.8255 61.8757 49.1921 62.347C49.7682 63.0802 50.292 63.2897 51.7584 63.2897C54.639 63.2897 57.1005 62.0328 57.3624 60.5139C57.6243 59.257 56.5244 57.5287 55.0056 56.743C54.22 56.3241 52.5964 56.1669 51.7584 56.4288ZM55.1103 59.0475C55.5293 58.419 55.3722 57.7381 54.5866 57.2668C53.1725 56.3764 51.0252 57.1097 51.0252 58.4714C51.0252 59.1522 52.1251 59.8855 53.1725 59.8855C53.8534 59.8855 54.7961 59.4665 55.1103 59.0475Z" fill="white"/>
</g>
<defs>
<clipPath id="clip0_341_3520">
<rect width="88.1447" height="101.5" fill="white" transform="translate(12.6875 7.25)"/>
</clipPath>
</defs>
</svg>
