<svg width="65" height="48" viewBox="0 0 65 48" fill="none" xmlns="http://www.w3.org/2000/svg">
<path d="M60.0025 0H4.79898C2.15057 0 0 2.15057 0 4.79898V43.201C0 45.8528 2.15057 48 4.79898 48H59.9991C62.651 48 64.7981 45.8494 64.7981 43.201V4.79898C64.7981 2.14718 62.6476 0 59.9991 0H60.0025ZM2.40119 7.20017C2.40119 4.54837 4.55175 2.40119 7.20017 2.40119H26.3995C29.0513 2.40119 31.1985 4.55175 31.1985 7.20017V9.60135H23.9983C23.9983 8.27715 22.9247 7.20017 21.5971 7.20017H11.9958C10.6716 7.20017 9.59458 8.27376 9.59458 9.60135V16.8015C9.59458 18.1257 10.6682 19.2027 11.9958 19.2027H21.5971C22.9213 19.2027 23.9983 18.1291 23.9983 16.8015H19.1993L14.4003 12.0025H31.2019V19.2027C31.2019 21.8545 29.0513 24.0017 26.4029 24.0017H7.20017C4.54837 24.0017 2.40119 21.8511 2.40119 19.2027V7.20017ZM24.0017 45.6022L16.8015 38.402L9.60135 45.6022L2.40119 38.402H7.20017V26.4029H11.9992V38.402H21.6005V26.4029H26.3995V38.402H31.1985L23.9983 45.6022H24.0017ZM62.4037 31.2019H55.2036C55.2036 29.8777 54.13 28.8007 52.8024 28.8007H43.201C41.8768 28.8007 40.7998 29.8743 40.7998 31.2019V38.402C40.7998 39.7262 41.8734 40.8032 43.201 40.8032H52.8024C54.1266 40.8032 55.2036 39.7296 55.2036 38.402H50.4046L45.6056 33.6031H62.4071V40.8032C62.4071 43.455 60.2565 45.6022 57.6081 45.6022H38.4088C35.757 45.6022 33.6098 43.4516 33.6098 40.8032V28.8041C33.6098 26.1523 35.7604 24.0051 38.4088 24.0051H57.6081C60.2599 24.0051 62.4071 26.1556 62.4071 28.8041V31.2052L62.4037 31.2019Z" fill="white"/>
</svg>
