<svg preserveAspectRatio="xMinYMin meet" viewBox="0 0 131 24" fill="none" xmlns="http://www.w3.org/2000/svg">
<g clip-path="url(#clip0_10_6225)">
<path d="M130.286 12.6418H0V13.0083H130.286V12.6418Z" fill="white"/>
<path d="M130.286 23.6359H0V24.0023H130.286V23.6359Z" fill="white"/>
<path d="M130.286 22.5361H0V22.9025H130.286V22.5361Z" fill="white"/>
<path d="M130.286 21.4363H0V21.8027H130.286V21.4363Z" fill="white"/>
<path d="M130.286 20.3365H0V20.703H130.286V20.3365Z" fill="white"/>
<path d="M130.286 19.2368H0V19.6032H130.286V19.2368Z" fill="white"/>
<path d="M130.286 18.1371H0V18.5035H130.286V18.1371Z" fill="white"/>
<path d="M130.286 17.0372H0V17.4036H130.286V17.0372Z" fill="white"/>
<path d="M130.286 15.9412H0V16.3076H130.286V15.9412Z" fill="white"/>
<path d="M130.286 14.8413H0V15.2077H130.286V14.8413Z" fill="white"/>
<path d="M130.286 13.7416H0V14.108H130.286V13.7416Z" fill="white"/>
<path d="M34.9314 6.41221H34.1125L33.9748 5.98351C33.7216 6.25832 33.3531 6.41221 32.9027 6.41221H31.3207C30.4831 6.41221 29.9061 5.84427 29.9061 5.00885V1.40336C29.9061 0.560611 30.4831 0 31.3207 0H33.5095C34.3582 0 34.9314 0.560611 34.9314 1.40336V2.03359H33.8221V1.45832C33.8221 1.13588 33.6286 0.945343 33.3122 0.945343H31.5254C31.209 0.945343 31.0154 1.13588 31.0154 1.45832V4.95756C31.0154 5.27634 31.209 5.45954 31.5254 5.45954H33.3122C33.61 5.45954 33.8073 5.29466 33.8221 5.00153V3.95725H32.1098V3.00458H34.9277V6.41221H34.9314Z" fill="white"/>
<path d="M43.4 0H44.5093V5.45954H47.7739V6.41221H43.4V0Z" fill="white"/>
<path d="M59.4251 6.41221H57.2363C56.3988 6.41221 55.8218 5.84427 55.8218 5.00885V1.40336C55.8218 0.560611 56.3988 0 57.2363 0H59.4251C60.2738 0 60.8471 0.560611 60.8471 1.40336V5.00885C60.8471 5.84427 60.2701 6.41221 59.4251 6.41221ZM59.7415 1.45832C59.7415 1.13588 59.5479 0.945343 59.2315 0.945343H57.4448C57.1284 0.945343 56.9348 1.13588 56.9348 1.45832V4.95756C56.9348 5.27634 57.1284 5.45954 57.4448 5.45954H59.2315C59.5479 5.45954 59.7415 5.27634 59.7415 4.95756V1.45832Z" fill="white"/>
<path d="M74.2219 1.9603C74.2219 2.53924 73.9427 2.98626 73.4961 3.20611C73.9614 3.40763 74.2517 3.85832 74.2517 4.44458V5.01252C74.2517 5.84794 73.6747 6.41588 72.8297 6.41588H69.3195V0H72.8C73.6561 0 74.2219 0.560611 74.2219 1.40336V1.9603ZM73.1238 1.45832C73.1238 1.13588 72.9265 0.945343 72.6027 0.945343H70.425V2.72977H72.6027C72.9265 2.72977 73.1238 2.53924 73.1238 2.21679V1.45832ZM73.1424 4.18076C73.1424 3.86931 72.9488 3.67511 72.6324 3.67511H70.4287V5.45954H72.6324C72.9488 5.45954 73.1424 5.27633 73.1424 4.95756V4.18076Z" fill="white"/>
<path d="M87.954 6.41221H86.7889L86.2789 4.90992H83.7104L83.1892 6.41221H82.0651L84.3358 0H85.687L87.9577 6.41221H87.954ZM84.0007 3.96824H85.9736L84.9872 1.15786L84.0007 3.96824Z" fill="white"/>
<path d="M96.0056 0H97.1149V5.45954H100.379V6.41221H96.0056V0Z" fill="white"/>
<path d="M2.1106 12.8264H4.64558L6.28718 20.4441L7.99579 12.8264H10.3893L12.0793 20.4441L13.7395 12.8264H16.1963L13.5013 23.8188H10.7095L9.14602 17.2857L7.59748 23.8188H4.80565L2.1106 12.8264Z" fill="white"/>
<path d="M25.7407 23.8182H23.1388L22.4203 21.4951H18.6383L17.9199 23.8182H15.3998L19.0515 12.8258H22.0816L25.7333 23.8182H25.7407ZM19.2972 19.3736H21.754L20.5256 15.4163L19.2972 19.3736Z" fill="white"/>
<path d="M35.1882 19.718V21.3522C35.1882 22.8289 34.1832 23.8182 32.6979 23.8182H28.9494C27.4493 23.8182 26.4442 22.8289 26.4442 21.3522V20.3629H28.9159V21.2276C28.9159 21.5428 29.076 21.7003 29.3961 21.7003H32.2363C32.5565 21.7003 32.7165 21.5428 32.7165 21.2276V19.8463C32.7165 19.5311 32.5565 19.3736 32.2363 19.3736H28.9345C27.4493 19.3736 26.4442 18.3843 26.4442 16.9076V15.2918C26.4442 13.8151 27.4493 12.8258 28.9345 12.8258H32.683C34.1832 12.8258 35.1882 13.8151 35.1882 15.2918V16.2811H32.7165V15.4163C32.7165 15.1012 32.5565 14.9437 32.2363 14.9437H29.3961C29.076 14.9437 28.9159 15.1012 28.9159 15.4163V16.7831C28.9159 17.0982 29.076 17.2557 29.3961 17.2557H32.6979C34.1832 17.2557 35.1882 18.245 35.1882 19.7217V19.718Z" fill="white"/>
<path d="M36.2231 12.8258H45.1719V14.9473H41.9334V23.8182H39.4617V14.9473H36.2231V12.8258Z" fill="white"/>
<path d="M46.3705 12.8258H54.1541V14.9473H48.8422V17.2557H53.3575V19.3773H48.8422V21.7003H54.1541V23.8218H46.3705V12.8295V12.8258Z" fill="white"/>
<path d="M67.5773 20.0808V21.4768C67.5773 22.8728 66.6206 23.8182 65.1986 23.8182H61.7851C60.3669 23.8182 59.4065 22.8765 59.4065 21.4768V20.5205H60.7317V21.4145C60.7317 22.1986 61.2268 22.686 62.0085 22.686H64.9753C65.757 22.686 66.2521 22.1986 66.2521 21.4145V20.1431C66.2521 19.3736 65.757 18.8716 64.9753 18.8716H61.7851C60.3669 18.8716 59.4065 17.9299 59.4065 16.5302V15.1635C59.4065 13.7492 60.3632 12.8221 61.7851 12.8221H65.1986C66.6169 12.8221 67.5773 13.7492 67.5773 15.1635V16.1199H66.2521V15.2075C66.2521 14.438 65.757 13.9507 64.9753 13.9507H62.0085C61.2268 13.9507 60.7317 14.438 60.7317 15.2075V16.4789C60.7317 17.2484 61.2268 17.7357 62.0085 17.7357H65.1986C66.6169 17.7357 67.5773 18.6774 67.5773 20.0771V20.0808Z" fill="white"/>
<path d="M74.1475 23.8182H72.8409V19.6081L68.6941 12.8258H70.2575L73.5109 18.3073L76.7979 12.8258H78.298L74.1512 19.6081V23.8182H74.1475Z" fill="white"/>
<path d="M87.5035 20.0808V21.4768C87.5035 22.8728 86.5469 23.8182 85.1249 23.8182H81.7114C80.2932 23.8182 79.3328 22.8765 79.3328 21.4768V20.5205H80.658V21.4145C80.658 22.1986 81.153 22.686 81.9348 22.686H84.9016C85.6833 22.686 86.1783 22.1986 86.1783 21.4145V20.1431C86.1783 19.3736 85.6833 18.8716 84.9016 18.8716H81.7114C80.2932 18.8716 79.3328 17.9299 79.3328 16.5302V15.1635C79.3328 13.7492 80.2894 12.8221 81.7114 12.8221H85.1249C86.5431 12.8221 87.5035 13.7492 87.5035 15.1635V16.1199H86.1783V15.2075C86.1783 14.438 85.6833 13.9507 84.9016 13.9507H81.9348C81.153 13.9507 80.658 14.438 80.658 15.2075V16.4789C80.658 17.2484 81.153 17.7357 81.9348 17.7357H85.1249C86.5431 17.7357 87.5035 18.6774 87.5035 20.0771V20.0808Z" fill="white"/>
<path d="M88.6984 12.8258H97.7105V13.958H93.8652V23.8182H92.54V13.958H88.6947V12.8258H88.6984Z" fill="white"/>
<path d="M99.1473 12.8258H106.358V13.958H100.473V17.7431H105.561V18.8753H100.473V22.6896H106.358V23.8218H99.1473V12.8295V12.8258Z" fill="white"/>
<path d="M116.408 15.387L112.913 21.8102L109.436 15.387V23.8182H108.111V12.8258H109.388L112.913 19.326L116.438 12.8258H117.715V23.8182H116.408V15.387Z" fill="white"/>
<path d="M127.803 20.0808V21.4768C127.803 22.8728 126.846 23.8182 125.424 23.8182H122.011C120.592 23.8182 119.632 22.8765 119.632 21.4768V20.5205H120.957V21.4145C120.957 22.1986 121.452 22.686 122.234 22.686H125.201C125.983 22.686 126.478 22.1986 126.478 21.4145V20.1431C126.478 19.3736 125.983 18.8716 125.201 18.8716H122.011C120.592 18.8716 119.632 17.9299 119.632 16.5302V15.1635C119.632 13.7492 120.589 12.8221 122.011 12.8221H125.424C126.842 12.8221 127.803 13.7492 127.803 15.1635V16.1199H126.478V15.2075C126.478 14.438 125.983 13.9507 125.201 13.9507H122.234C121.452 13.9507 120.957 14.438 120.957 15.2075V16.4789C120.957 17.2484 121.452 17.7357 122.234 17.7357H125.424C126.842 17.7357 127.803 18.6774 127.803 20.0771V20.0808Z" fill="white"/>
</g>
<defs>
<clipPath id="clip0_10_6225">
<rect width="130.286" height="24" fill="white"/>
</clipPath>
</defs>
</svg>
