<svg width="16" height="20" viewBox="0 0 16 20" fill="none" xmlns="http://www.w3.org/2000/svg">
<g clip-path="url(#clip0_8441_166283)">
<path d="M5.97859 2.58672L7.65739 1.61028V0L5.49893 1.25054L5.97859 2.58672Z" fill="#F9F9FA"/>
<path d="M8.34262 0V1.61028L10.0214 2.58672L10.5011 1.25054L8.34262 0Z" fill="#F9F9FA"/>
<path d="M8.87367 17.1991L8.00001 17.713L7.12634 17.1991L6.86938 18.6723L8.00001 19.3233L9.13063 18.6723L8.87367 17.1991Z" fill="#F9F9FA"/>
<path d="M14.5953 10.2612V13.3105L10.5696 15.6402L9.52463 16.2398L9.78159 17.6959L16 14.1156V4.88222L11.1178 2.05566L10.6381 3.39185L14.5953 5.68736V10.2612Z" fill="#F9F9FA"/>
<path d="M0 14.1156L6.21842 17.6959L6.47537 16.2398L5.43041 15.6402L1.40471 13.3105V5.68736L5.36188 3.39185L4.88223 2.05566L0 4.88222V10.2612V14.1156Z" fill="#F9F9FA"/>
<path d="M6.20129 8.39397V10.4668L8.00001 11.4946L9.79872 10.4668V8.39397L8.00001 7.349L6.20129 8.39397Z" fill="#F9F9FA"/>
</g>
<defs>
<clipPath id="clip0_8441_166283">
<rect width="16" height="19.3233" fill="white"/>
</clipPath>
</defs>
</svg>
