<svg width="16" height="20" viewBox="0 0 16 20" fill="none" xmlns="http://www.w3.org/2000/svg">
<g clip-path="url(#clip0_8441_166325)">
<path d="M7.07495 2.14133L8 1.61028L8.90792 2.14133L9.18201 0.685225L8 0L6.81799 0.685225L7.07495 2.14133Z" fill="#F9F9FA"/>
<path d="M2.86081 4.5053L4.35118 3.64877L3.64882 2.4325L1.71306 3.54599L2.86081 4.5053Z" fill="#F9F9FA"/>
<path d="M9.55889 2.51816L11.0493 3.37469L11.7516 2.15841L9.81585 1.04492L9.55889 2.51816Z" fill="#F9F9FA"/>
<path d="M4.24839 2.15841L4.95075 3.37469L6.44111 2.51816L6.18415 1.04492L4.24839 2.15841Z" fill="#F9F9FA"/>
<path d="M11.6488 3.64877L13.1392 4.5053L14.2869 3.54599L12.3512 2.4325L11.6488 3.64877Z" fill="#F9F9FA"/>
<path d="M8.87366 17.4047L8 17.9186L7.12634 17.4047L6.86938 18.8779L8 19.5289L9.13062 18.8779L8.87366 17.4047Z" fill="#F9F9FA"/>
<path d="M14.5953 10.4668V13.4989L13.6188 14.0643L9.52462 16.4454L9.78158 17.9015L16 14.3212V5.07068L14.9208 4.45398L13.7901 5.41329L14.5953 5.89295V10.4668Z" fill="#F9F9FA"/>
<path d="M0 14.3212L6.21842 17.9015L6.47537 16.4454L2.38116 14.0643L1.40471 13.4989V5.89295L2.20985 5.41329L1.07923 4.45398L0 5.07068V10.4668V14.3212Z" fill="#F9F9FA"/>
<path d="M11.2034 11.9742L8.34261 13.6188V15.2462L12.6081 12.7794L11.2034 11.9742Z" fill="#F9F9FA"/>
<path d="M11.546 8.08558V11.3747L12.9508 12.1798V7.26331L11.546 8.08558Z" fill="#F9F9FA"/>
<path d="M7.65739 15.2462V13.6188L4.79658 11.9742L3.39186 12.7794L7.65739 15.2462Z" fill="#F9F9FA"/>
<path d="M4.79658 7.46893L7.65739 5.82439V4.21411L3.39186 6.66379L4.79658 7.46893Z" fill="#F9F9FA"/>
<path d="M8.34261 5.82439L11.2034 7.46893L12.6081 6.66379L8.34261 4.21411V5.82439Z" fill="#F9F9FA"/>
<path d="M4.45396 11.3747V8.08558L3.04925 7.26331V12.1798L4.45396 11.3747Z" fill="#F9F9FA"/>
<path d="M6.20128 8.68519V10.758L8 11.803L9.79871 10.758V8.68519L8 7.65735L6.20128 8.68519Z" fill="#F9F9FA"/>
</g>
<defs>
<clipPath id="clip0_8441_166325">
<rect width="16" height="19.5289" fill="white"/>
</clipPath>
</defs>
</svg>
