<svg width="1236" height="400" viewBox="0 0 1236 400" fill="none" xmlns="http://www.w3.org/2000/svg">
<mask id="mask0_7998_138996" style="mask-type:alpha" maskUnits="userSpaceOnUse" x="0" y="0" width="1236" height="400">
<rect width="1236" height="400" rx="12" fill="url(#paint0_radial_7998_138996)"/>
</mask>
<g mask="url(#mask0_7998_138996)">
<path d="M48.3399 225.698L48.3399 204.84L30.2602 194.402L12.1709 204.84L12.1709 225.698L30.2602 236.136L48.3399 225.698Z" stroke="#F9F9F9" stroke-opacity="0.2" stroke-miterlimit="10"/>
<path d="M84.5088 225.698V204.84L66.4291 194.402L48.3398 204.84L48.3398 225.698L66.4291 236.136L84.5088 225.698Z" stroke="#F9F9F9" stroke-opacity="0.2" stroke-miterlimit="10"/>
<path d="M120.677 225.698V204.84L102.597 194.402L84.5078 204.84V225.698L102.597 236.136L120.677 225.698Z" stroke="#F9F9F9" stroke-opacity="0.2" stroke-miterlimit="10"/>
<path d="M156.846 225.698V204.84L138.766 194.402L120.677 204.84V225.698L138.766 236.136L156.846 225.698Z" stroke="#F9F9F9" stroke-opacity="0.2" stroke-miterlimit="10"/>
<path d="M193.015 225.698V204.84L174.935 194.402L156.846 204.84V225.698L174.935 236.136L193.015 225.698Z" stroke="#F9F9F9" stroke-opacity="0.2" stroke-miterlimit="10"/>
<path d="M229.184 225.698V204.84L211.104 194.402L193.015 204.84V225.698L211.104 236.136L229.184 225.698Z" stroke="#F9F9F9" stroke-opacity="0.2" stroke-miterlimit="10"/>
<path d="M265.353 225.698V204.84L247.273 194.402L229.184 204.84V225.698L247.273 236.136L265.353 225.698Z" stroke="#F9F9F9" stroke-opacity="0.2" stroke-miterlimit="10"/>
<path d="M301.522 225.698V204.84L283.443 194.402L265.354 204.84V225.698L283.443 236.136L301.522 225.698Z" stroke="#F9F9F9" stroke-opacity="0.2" stroke-miterlimit="10"/>
<path d="M337.691 225.698V204.84L319.612 194.402L301.522 204.84V225.698L319.612 236.136L337.691 225.698Z" stroke="#F9F9F9" stroke-opacity="0.2" stroke-miterlimit="10"/>
<path d="M373.86 225.698V204.84L355.781 194.402L337.691 204.84V225.698L355.781 236.136L373.86 225.698Z" stroke="#F9F9F9" stroke-opacity="0.2" stroke-miterlimit="10"/>
<path d="M410.029 225.698V204.84L391.95 194.402L373.86 204.84V225.698L391.95 236.136L410.029 225.698Z" stroke="#F9F9F9" stroke-opacity="0.2" stroke-miterlimit="10"/>
<path d="M446.198 225.698V204.84L428.119 194.402L410.029 204.84V225.698L428.119 236.136L446.198 225.698Z" stroke="#F9F9F9" stroke-opacity="0.2" stroke-miterlimit="10"/>
<path d="M482.367 225.698V204.84L464.288 194.402L446.198 204.84V225.698L464.288 236.136L482.367 225.698Z" stroke="#F9F9F9" stroke-opacity="0.2" stroke-miterlimit="10"/>
<path d="M518.536 225.698V204.84L500.456 194.402L482.367 204.84V225.698L500.456 236.136L518.536 225.698Z" stroke="#F9F9F9" stroke-opacity="0.2" stroke-miterlimit="10"/>
<path d="M554.705 225.698V204.84L536.625 194.402L518.536 204.84V225.698L536.625 236.136L554.705 225.698Z" stroke="#F9F9F9" stroke-opacity="0.2" stroke-miterlimit="10"/>
<path d="M590.874 225.698V204.84L572.794 194.402L554.705 204.84V225.698L572.794 236.136L590.874 225.698Z" stroke="#F9F9F9" stroke-opacity="0.2" stroke-miterlimit="10"/>
<path d="M627.043 225.698V204.84L608.963 194.402L590.874 204.84V225.698L608.963 236.136L627.043 225.698Z" stroke="#F9F9F9" stroke-opacity="0.2" stroke-miterlimit="10"/>
<path d="M663.212 225.698V204.84L645.132 194.402L627.043 204.84V225.698L645.132 236.136L663.212 225.698Z" stroke="#F9F9F9" stroke-opacity="0.2" stroke-miterlimit="10"/>
<path d="M699.381 225.698V204.84L681.301 194.402L663.212 204.84V225.698L681.301 236.136L699.381 225.698Z" stroke="#F9F9F9" stroke-opacity="0.2" stroke-miterlimit="10"/>
<path d="M735.549 225.698V204.84L717.469 194.402L699.38 204.84V225.698L717.469 236.136L735.549 225.698Z" stroke="#F9F9F9" stroke-opacity="0.2" stroke-miterlimit="10"/>
<path d="M771.718 225.698V204.84L753.638 194.402L735.549 204.84V225.698L753.638 236.136L771.718 225.698Z" stroke="#F9F9F9" stroke-opacity="0.2" stroke-miterlimit="10"/>
<path d="M807.887 225.698V204.84L789.807 194.402L771.718 204.84V225.698L789.807 236.136L807.887 225.698Z" stroke="#F9F9F9" stroke-opacity="0.2" stroke-miterlimit="10"/>
<path d="M844.056 225.698V204.84L825.976 194.402L807.887 204.84V225.698L825.976 236.136L844.056 225.698Z" stroke="#F9F9F9" stroke-opacity="0.2" stroke-miterlimit="10"/>
<path d="M880.225 225.698V204.84L862.145 194.402L844.056 204.84V225.698L862.145 236.136L880.225 225.698Z" stroke="#F9F9F9" stroke-opacity="0.2" stroke-miterlimit="10"/>
<path d="M916.394 225.698V204.84L898.314 194.402L880.225 204.84V225.698L898.314 236.136L916.394 225.698Z" stroke="#F9F9F9" stroke-opacity="0.2" stroke-miterlimit="10"/>
<path d="M952.563 225.698V204.84L934.483 194.402L916.394 204.84V225.698L934.483 236.136L952.563 225.698Z" stroke="#F9F9F9" stroke-opacity="0.2" stroke-miterlimit="10"/>
<path d="M988.731 225.698V204.84L970.652 194.402L952.562 204.84V225.698L970.652 236.136L988.731 225.698Z" stroke="#F9F9F9" stroke-opacity="0.2" stroke-miterlimit="10"/>
<path d="M1024.9 225.698V204.84L1006.82 194.402L988.732 204.84V225.698L1006.82 236.136L1024.9 225.698Z" stroke="#F9F9F9" stroke-opacity="0.2" stroke-miterlimit="10"/>
<path d="M1061.07 225.698V204.84L1042.99 194.402L1024.9 204.84V225.698L1042.99 236.136L1061.07 225.698Z" stroke="#F9F9F9" stroke-opacity="0.2" stroke-miterlimit="10"/>
<path d="M1097.24 225.698V204.84L1079.16 194.402L1061.07 204.84V225.698L1079.16 236.136L1097.24 225.698Z" stroke="#F9F9F9" stroke-opacity="0.2" stroke-miterlimit="10"/>
<path d="M1133.41 225.698V204.84L1115.33 194.402L1097.24 204.84V225.698L1115.33 236.136L1133.41 225.698Z" stroke="#F9F9F9" stroke-opacity="0.2" stroke-miterlimit="10"/>
<path d="M1169.58 225.698V204.84L1151.5 194.402L1133.41 204.84V225.698L1151.5 236.136L1169.58 225.698Z" stroke="#F9F9F9" stroke-opacity="0.2" stroke-miterlimit="10"/>
<path d="M1205.75 225.698V204.84L1187.67 194.402L1169.58 204.84V225.698L1187.67 236.136L1205.75 225.698Z" stroke="#F9F9F9" stroke-opacity="0.2" stroke-miterlimit="10"/>
<path d="M1241.92 225.698V204.84L1223.84 194.402L1205.75 204.84V225.698L1223.84 236.136L1241.92 225.698Z" stroke="#F9F9F9" stroke-opacity="0.2" stroke-miterlimit="10"/>
<path d="M48.3399 100.494L48.3399 79.6374L30.2602 69.1992L12.1709 79.6374L12.1709 100.494L30.2602 110.933L48.3399 100.494Z" stroke="#F9F9F9" stroke-opacity="0.2" stroke-miterlimit="10"/>
<path d="M84.5088 100.494V79.6374L66.4291 69.1992L48.3398 79.6374L48.3398 100.494L66.4291 110.933L84.5088 100.494Z" stroke="#F9F9F9" stroke-opacity="0.2" stroke-miterlimit="10"/>
<path d="M120.677 100.494V79.6374L102.597 69.1992L84.5078 79.6374V100.494L102.597 110.933L120.677 100.494Z" stroke="#F9F9F9" stroke-opacity="0.2" stroke-miterlimit="10"/>
<path d="M156.846 100.494V79.6374L138.766 69.1992L120.677 79.6374V100.494L138.766 110.933L156.846 100.494Z" stroke="#F9F9F9" stroke-opacity="0.2" stroke-miterlimit="10"/>
<path d="M193.015 100.494V79.6374L174.935 69.1992L156.846 79.6374V100.494L174.935 110.933L193.015 100.494Z" stroke="#F9F9F9" stroke-opacity="0.2" stroke-miterlimit="10"/>
<path d="M229.184 100.494V79.6374L211.104 69.1992L193.015 79.6374V100.494L211.104 110.933L229.184 100.494Z" stroke="#F9F9F9" stroke-opacity="0.2" stroke-miterlimit="10"/>
<path d="M265.353 100.494V79.6374L247.273 69.1992L229.184 79.6374V100.494L247.273 110.933L265.353 100.494Z" stroke="#F9F9F9" stroke-opacity="0.2" stroke-miterlimit="10"/>
<path d="M301.522 100.494V79.6374L283.443 69.1992L265.354 79.6374V100.494L283.443 110.933L301.522 100.494Z" stroke="#F9F9F9" stroke-opacity="0.2" stroke-miterlimit="10"/>
<path d="M337.691 100.494V79.6374L319.612 69.1992L301.522 79.6374V100.494L319.612 110.933L337.691 100.494Z" stroke="#F9F9F9" stroke-opacity="0.2" stroke-miterlimit="10"/>
<path d="M373.86 100.494V79.6374L355.781 69.1992L337.691 79.6374V100.494L355.781 110.933L373.86 100.494Z" stroke="#F9F9F9" stroke-opacity="0.2" stroke-miterlimit="10"/>
<path d="M410.029 100.494V79.6374L391.95 69.1992L373.86 79.6374V100.494L391.95 110.933L410.029 100.494Z" stroke="#F9F9F9" stroke-opacity="0.2" stroke-miterlimit="10"/>
<path d="M446.198 100.494V79.6374L428.119 69.1992L410.029 79.6374V100.494L428.119 110.933L446.198 100.494Z" stroke="#F9F9F9" stroke-opacity="0.2" stroke-miterlimit="10"/>
<path d="M482.367 100.494V79.6374L464.288 69.1992L446.198 79.6374V100.494L464.288 110.933L482.367 100.494Z" stroke="#F9F9F9" stroke-opacity="0.2" stroke-miterlimit="10"/>
<path d="M518.536 100.494V79.6374L500.456 69.1992L482.367 79.6374V100.494L500.456 110.933L518.536 100.494Z" stroke="#F9F9F9" stroke-opacity="0.2" stroke-miterlimit="10"/>
<path d="M554.705 100.494V79.6374L536.625 69.1992L518.536 79.6374V100.494L536.625 110.933L554.705 100.494Z" stroke="#F9F9F9" stroke-opacity="0.2" stroke-miterlimit="10"/>
<path d="M590.874 100.494V79.6374L572.794 69.1992L554.705 79.6374V100.494L572.794 110.933L590.874 100.494Z" stroke="#F9F9F9" stroke-opacity="0.2" stroke-miterlimit="10"/>
<path d="M627.043 100.494V79.6374L608.963 69.1992L590.874 79.6374V100.494L608.963 110.933L627.043 100.494Z" stroke="#F9F9F9" stroke-opacity="0.2" stroke-miterlimit="10"/>
<path d="M663.212 100.494V79.6374L645.132 69.1992L627.043 79.6374V100.494L645.132 110.933L663.212 100.494Z" stroke="#F9F9F9" stroke-opacity="0.2" stroke-miterlimit="10"/>
<path d="M699.381 100.494V79.6374L681.301 69.1992L663.212 79.6374V100.494L681.301 110.933L699.381 100.494Z" stroke="#F9F9F9" stroke-opacity="0.2" stroke-miterlimit="10"/>
<path d="M735.549 100.494V79.6374L717.469 69.1992L699.38 79.6374V100.494L717.469 110.933L735.549 100.494Z" stroke="#F9F9F9" stroke-opacity="0.2" stroke-miterlimit="10"/>
<path d="M771.718 100.494V79.6374L753.638 69.1992L735.549 79.6374V100.494L753.638 110.933L771.718 100.494Z" stroke="#F9F9F9" stroke-opacity="0.2" stroke-miterlimit="10"/>
<path d="M807.887 100.494V79.6374L789.807 69.1992L771.718 79.6374V100.494L789.807 110.933L807.887 100.494Z" stroke="#F9F9F9" stroke-opacity="0.2" stroke-miterlimit="10"/>
<path d="M844.056 100.494V79.6374L825.976 69.1992L807.887 79.6374V100.494L825.976 110.933L844.056 100.494Z" stroke="#F9F9F9" stroke-opacity="0.2" stroke-miterlimit="10"/>
<path d="M880.225 100.494V79.6374L862.145 69.1992L844.056 79.6374V100.494L862.145 110.933L880.225 100.494Z" stroke="#F9F9F9" stroke-opacity="0.2" stroke-miterlimit="10"/>
<path d="M916.394 100.494V79.6374L898.314 69.1992L880.225 79.6374V100.494L898.314 110.933L916.394 100.494Z" stroke="#F9F9F9" stroke-opacity="0.2" stroke-miterlimit="10"/>
<path d="M952.563 100.494V79.6374L934.483 69.1992L916.394 79.6374V100.494L934.483 110.933L952.563 100.494Z" stroke="#F9F9F9" stroke-opacity="0.2" stroke-miterlimit="10"/>
<path d="M988.731 100.494V79.6374L970.652 69.1992L952.562 79.6374V100.494L970.652 110.933L988.731 100.494Z" stroke="#F9F9F9" stroke-opacity="0.2" stroke-miterlimit="10"/>
<path d="M1024.9 100.494V79.6374L1006.82 69.1992L988.732 79.6374V100.494L1006.82 110.933L1024.9 100.494Z" stroke="#F9F9F9" stroke-opacity="0.2" stroke-miterlimit="10"/>
<path d="M1061.07 100.494V79.6374L1042.99 69.1992L1024.9 79.6374V100.494L1042.99 110.933L1061.07 100.494Z" stroke="#F9F9F9" stroke-opacity="0.2" stroke-miterlimit="10"/>
<path d="M1097.24 100.494V79.6374L1079.16 69.1992L1061.07 79.6374V100.494L1079.16 110.933L1097.24 100.494Z" stroke="#F9F9F9" stroke-opacity="0.2" stroke-miterlimit="10"/>
<path d="M1133.41 100.494V79.6374L1115.33 69.1992L1097.24 79.6374V100.494L1115.33 110.933L1133.41 100.494Z" stroke="#F9F9F9" stroke-opacity="0.2" stroke-miterlimit="10"/>
<path d="M1169.58 100.494V79.6374L1151.5 69.1992L1133.41 79.6374V100.494L1151.5 110.933L1169.58 100.494Z" stroke="#F9F9F9" stroke-opacity="0.2" stroke-miterlimit="10"/>
<path d="M1205.75 100.494V79.6374L1187.67 69.1992L1169.58 79.6374V100.494L1187.67 110.933L1205.75 100.494Z" stroke="#F9F9F9" stroke-opacity="0.2" stroke-miterlimit="10"/>
<path d="M1241.92 100.494V79.6374L1223.84 69.1992L1205.75 79.6374V100.494L1223.84 110.933L1241.92 100.494Z" stroke="#F9F9F9" stroke-opacity="0.2" stroke-miterlimit="10"/>
<path d="M48.3399 350.897L48.3399 330.04L30.2602 319.602L12.1709 330.04L12.1709 350.897L30.2602 361.335L48.3399 350.897Z" stroke="#F9F9F9" stroke-opacity="0.2" stroke-miterlimit="10"/>
<path d="M84.5088 350.897V330.04L66.4291 319.602L48.3398 330.04L48.3398 350.897L66.4291 361.335L84.5088 350.897Z" stroke="#F9F9F9" stroke-opacity="0.2" stroke-miterlimit="10"/>
<path d="M120.677 350.897V330.04L102.597 319.602L84.5078 330.04V350.897L102.597 361.335L120.677 350.897Z" stroke="#F9F9F9" stroke-opacity="0.2" stroke-miterlimit="10"/>
<path d="M156.846 350.897V330.04L138.766 319.602L120.677 330.04V350.897L138.766 361.335L156.846 350.897Z" stroke="#F9F9F9" stroke-opacity="0.2" stroke-miterlimit="10"/>
<path d="M193.015 350.897V330.04L174.935 319.602L156.846 330.04V350.897L174.935 361.335L193.015 350.897Z" stroke="#F9F9F9" stroke-opacity="0.2" stroke-miterlimit="10"/>
<path d="M229.184 350.897V330.04L211.104 319.602L193.015 330.04V350.897L211.104 361.335L229.184 350.897Z" stroke="#F9F9F9" stroke-opacity="0.2" stroke-miterlimit="10"/>
<path d="M265.353 350.897V330.04L247.273 319.602L229.184 330.04V350.897L247.273 361.335L265.353 350.897Z" stroke="#F9F9F9" stroke-opacity="0.2" stroke-miterlimit="10"/>
<path d="M301.522 350.897V330.04L283.443 319.602L265.354 330.04V350.897L283.443 361.335L301.522 350.897Z" stroke="#F9F9F9" stroke-opacity="0.2" stroke-miterlimit="10"/>
<path d="M337.691 350.897V330.04L319.612 319.602L301.522 330.04V350.897L319.612 361.335L337.691 350.897Z" stroke="#F9F9F9" stroke-opacity="0.2" stroke-miterlimit="10"/>
<path d="M373.86 350.897V330.04L355.781 319.602L337.691 330.04V350.897L355.781 361.335L373.86 350.897Z" stroke="#F9F9F9" stroke-opacity="0.2" stroke-miterlimit="10"/>
<path d="M410.029 350.897V330.04L391.95 319.602L373.86 330.04V350.897L391.95 361.335L410.029 350.897Z" stroke="#F9F9F9" stroke-opacity="0.2" stroke-miterlimit="10"/>
<path d="M446.198 350.897V330.04L428.119 319.602L410.029 330.04V350.897L428.119 361.335L446.198 350.897Z" stroke="#F9F9F9" stroke-opacity="0.2" stroke-miterlimit="10"/>
<path d="M482.367 350.897V330.04L464.288 319.602L446.198 330.04V350.897L464.288 361.335L482.367 350.897Z" stroke="#F9F9F9" stroke-opacity="0.2" stroke-miterlimit="10"/>
<path d="M518.536 350.897V330.04L500.456 319.602L482.367 330.04V350.897L500.456 361.335L518.536 350.897Z" stroke="#F9F9F9" stroke-opacity="0.2" stroke-miterlimit="10"/>
<path d="M554.705 350.897V330.04L536.625 319.602L518.536 330.04V350.897L536.625 361.335L554.705 350.897Z" stroke="#F9F9F9" stroke-opacity="0.2" stroke-miterlimit="10"/>
<path d="M590.874 350.897V330.04L572.794 319.602L554.705 330.04V350.897L572.794 361.335L590.874 350.897Z" stroke="#F9F9F9" stroke-opacity="0.2" stroke-miterlimit="10"/>
<path d="M627.043 350.897V330.04L608.963 319.602L590.874 330.04V350.897L608.963 361.335L627.043 350.897Z" stroke="#F9F9F9" stroke-opacity="0.2" stroke-miterlimit="10"/>
<path d="M663.212 350.897V330.04L645.132 319.602L627.043 330.04V350.897L645.132 361.335L663.212 350.897Z" stroke="#F9F9F9" stroke-opacity="0.2" stroke-miterlimit="10"/>
<path d="M699.381 350.897V330.04L681.301 319.602L663.212 330.04V350.897L681.301 361.335L699.381 350.897Z" stroke="#F9F9F9" stroke-opacity="0.2" stroke-miterlimit="10"/>
<path d="M735.549 350.897V330.04L717.469 319.602L699.38 330.04V350.897L717.469 361.335L735.549 350.897Z" stroke="#F9F9F9" stroke-opacity="0.2" stroke-miterlimit="10"/>
<path d="M771.718 350.897V330.04L753.638 319.602L735.549 330.04V350.897L753.638 361.335L771.718 350.897Z" stroke="#F9F9F9" stroke-opacity="0.2" stroke-miterlimit="10"/>
<path d="M807.887 350.897V330.04L789.807 319.602L771.718 330.04V350.897L789.807 361.335L807.887 350.897Z" stroke="#F9F9F9" stroke-opacity="0.2" stroke-miterlimit="10"/>
<path d="M844.056 350.897V330.04L825.976 319.602L807.887 330.04V350.897L825.976 361.335L844.056 350.897Z" stroke="#F9F9F9" stroke-opacity="0.2" stroke-miterlimit="10"/>
<path d="M880.225 350.897V330.04L862.145 319.602L844.056 330.04V350.897L862.145 361.335L880.225 350.897Z" stroke="#F9F9F9" stroke-opacity="0.2" stroke-miterlimit="10"/>
<path d="M916.394 350.897V330.04L898.314 319.602L880.225 330.04V350.897L898.314 361.335L916.394 350.897Z" stroke="#F9F9F9" stroke-opacity="0.2" stroke-miterlimit="10"/>
<path d="M952.563 350.897V330.04L934.483 319.602L916.394 330.04V350.897L934.483 361.335L952.563 350.897Z" stroke="#F9F9F9" stroke-opacity="0.2" stroke-miterlimit="10"/>
<path d="M988.731 350.897V330.04L970.652 319.602L952.562 330.04V350.897L970.652 361.335L988.731 350.897Z" stroke="#F9F9F9" stroke-opacity="0.2" stroke-miterlimit="10"/>
<path d="M1024.9 350.897V330.04L1006.82 319.602L988.732 330.04V350.897L1006.82 361.335L1024.9 350.897Z" stroke="#F9F9F9" stroke-opacity="0.2" stroke-miterlimit="10"/>
<path d="M1061.07 350.897V330.04L1042.99 319.602L1024.9 330.04V350.897L1042.99 361.335L1061.07 350.897Z" stroke="#F9F9F9" stroke-opacity="0.2" stroke-miterlimit="10"/>
<path d="M1097.24 350.897V330.04L1079.16 319.602L1061.07 330.04V350.897L1079.16 361.335L1097.24 350.897Z" stroke="#F9F9F9" stroke-opacity="0.2" stroke-miterlimit="10"/>
<path d="M1133.41 350.897V330.04L1115.33 319.602L1097.24 330.04V350.897L1115.33 361.335L1133.41 350.897Z" stroke="#F9F9F9" stroke-opacity="0.2" stroke-miterlimit="10"/>
<path d="M1169.58 350.897V330.04L1151.5 319.602L1133.41 330.04V350.897L1151.5 361.335L1169.58 350.897Z" stroke="#F9F9F9" stroke-opacity="0.2" stroke-miterlimit="10"/>
<path d="M1205.75 350.897V330.04L1187.67 319.602L1169.58 330.04V350.897L1187.67 361.335L1205.75 350.897Z" stroke="#F9F9F9" stroke-opacity="0.2" stroke-miterlimit="10"/>
<path d="M1241.92 350.897V330.04L1223.84 319.602L1205.75 330.04V350.897L1223.84 361.335L1241.92 350.897Z" stroke="#F9F9F9" stroke-opacity="0.2" stroke-miterlimit="10"/>
<path d="M66.4248 6.59605V-14.2611L48.3451 -24.6992L30.2559 -14.2611L30.2559 6.59605L48.3451 17.0342L66.4248 6.59605Z" stroke="#F9F9F9" stroke-opacity="0.2" stroke-miterlimit="10"/>
<path d="M102.594 6.59605V-14.2611L84.5141 -24.6992L66.4248 -14.2611V6.59605L84.5141 17.0342L102.594 6.59605Z" stroke="#F9F9F9" stroke-opacity="0.2" stroke-miterlimit="10"/>
<path d="M138.762 6.59605V-14.2611L120.682 -24.6992L102.593 -14.2611V6.59605L120.682 17.0342L138.762 6.59605Z" stroke="#F9F9F9" stroke-opacity="0.2" stroke-miterlimit="10"/>
<path d="M174.931 6.59605V-14.2611L156.851 -24.6992L138.762 -14.2611V6.59605L156.851 17.0342L174.931 6.59605Z" stroke="#F9F9F9" stroke-opacity="0.2" stroke-miterlimit="10"/>
<path d="M211.1 6.59605V-14.2611L193.02 -24.6992L174.931 -14.2611V6.59605L193.02 17.0342L211.1 6.59605Z" stroke="#F9F9F9" stroke-opacity="0.2" stroke-miterlimit="10"/>
<path d="M247.269 6.59605V-14.2611L229.189 -24.6992L211.1 -14.2611V6.59605L229.189 17.0342L247.269 6.59605Z" stroke="#F9F9F9" stroke-opacity="0.2" stroke-miterlimit="10"/>
<path d="M283.438 6.59605V-14.2611L265.358 -24.6992L247.269 -14.2611V6.59605L265.358 17.0342L283.438 6.59605Z" stroke="#F9F9F9" stroke-opacity="0.2" stroke-miterlimit="10"/>
<path d="M319.606 6.59605V-14.2611L301.527 -24.6992L283.438 -14.2611V6.59605L301.527 17.0342L319.606 6.59605Z" stroke="#F9F9F9" stroke-opacity="0.2" stroke-miterlimit="10"/>
<path d="M355.775 6.59605V-14.2611L337.696 -24.6992L319.606 -14.2611V6.59605L337.696 17.0342L355.775 6.59605Z" stroke="#F9F9F9" stroke-opacity="0.2" stroke-miterlimit="10"/>
<path d="M391.944 6.59605V-14.2611L373.865 -24.6992L355.775 -14.2611V6.59605L373.865 17.0342L391.944 6.59605Z" stroke="#F9F9F9" stroke-opacity="0.2" stroke-miterlimit="10"/>
<path d="M428.113 6.59605V-14.2611L410.034 -24.6992L391.944 -14.2611V6.59605L410.034 17.0342L428.113 6.59605Z" stroke="#F9F9F9" stroke-opacity="0.2" stroke-miterlimit="10"/>
<path d="M464.282 6.59605V-14.2611L446.203 -24.6992L428.113 -14.2611V6.59605L446.203 17.0342L464.282 6.59605Z" stroke="#F9F9F9" stroke-opacity="0.2" stroke-miterlimit="10"/>
<path d="M500.451 6.59605V-14.2611L482.372 -24.6992L464.282 -14.2611V6.59605L482.372 17.0342L500.451 6.59605Z" stroke="#F9F9F9" stroke-opacity="0.2" stroke-miterlimit="10"/>
<path d="M536.62 6.59605V-14.2611L518.54 -24.6992L500.451 -14.2611V6.59605L518.54 17.0342L536.62 6.59605Z" stroke="#F9F9F9" stroke-opacity="0.2" stroke-miterlimit="10"/>
<path d="M572.789 6.59605V-14.2611L554.709 -24.6992L536.62 -14.2611V6.59605L554.709 17.0342L572.789 6.59605Z" stroke="#F9F9F9" stroke-opacity="0.2" stroke-miterlimit="10"/>
<path d="M608.958 6.59605V-14.2611L590.878 -24.6992L572.789 -14.2611V6.59605L590.878 17.0342L608.958 6.59605Z" stroke="#F9F9F9" stroke-opacity="0.2" stroke-miterlimit="10"/>
<path d="M645.128 6.59605V-14.2611L627.048 -24.6992L608.959 -14.2611V6.59605L627.048 17.0342L645.128 6.59605Z" stroke="#F9F9F9" stroke-opacity="0.2" stroke-miterlimit="10"/>
<path d="M681.297 6.59605V-14.2611L663.217 -24.6992L645.128 -14.2611V6.59605L663.217 17.0342L681.297 6.59605Z" stroke="#F9F9F9" stroke-opacity="0.2" stroke-miterlimit="10"/>
<path d="M717.465 6.59605V-14.2611L699.385 -24.6992L681.296 -14.2611V6.59605L699.385 17.0342L717.465 6.59605Z" stroke="#F9F9F9" stroke-opacity="0.2" stroke-miterlimit="10"/>
<path d="M753.634 6.59605V-14.2611L735.554 -24.6992L717.465 -14.2611V6.59605L735.554 17.0342L753.634 6.59605Z" stroke="#F9F9F9" stroke-opacity="0.2" stroke-miterlimit="10"/>
<path d="M789.803 6.59605V-14.2611L771.723 -24.6992L753.634 -14.2611V6.59605L771.723 17.0342L789.803 6.59605Z" stroke="#F9F9F9" stroke-opacity="0.2" stroke-miterlimit="10"/>
<path d="M825.972 6.59605V-14.2611L807.892 -24.6992L789.803 -14.2611V6.59605L807.892 17.0342L825.972 6.59605Z" stroke="#F9F9F9" stroke-opacity="0.2" stroke-miterlimit="10"/>
<path d="M862.141 6.59605V-14.2611L844.061 -24.6992L825.972 -14.2611V6.59605L844.061 17.0342L862.141 6.59605Z" stroke="#F9F9F9" stroke-opacity="0.2" stroke-miterlimit="10"/>
<path d="M898.31 6.59605V-14.2611L880.23 -24.6992L862.141 -14.2611V6.59605L880.23 17.0342L898.31 6.59605Z" stroke="#F9F9F9" stroke-opacity="0.2" stroke-miterlimit="10"/>
<path d="M934.479 6.59605V-14.2611L916.399 -24.6992L898.31 -14.2611V6.59605L916.399 17.0342L934.479 6.59605Z" stroke="#F9F9F9" stroke-opacity="0.2" stroke-miterlimit="10"/>
<path d="M970.647 6.59605V-14.2611L952.568 -24.6992L934.479 -14.2611V6.59605L952.568 17.0342L970.647 6.59605Z" stroke="#F9F9F9" stroke-opacity="0.2" stroke-miterlimit="10"/>
<path d="M1006.82 6.59605V-14.2611L988.737 -24.6992L970.647 -14.2611V6.59605L988.737 17.0342L1006.82 6.59605Z" stroke="#F9F9F9" stroke-opacity="0.2" stroke-miterlimit="10"/>
<path d="M1042.99 6.59605V-14.2611L1024.91 -24.6992L1006.82 -14.2611V6.59605L1024.91 17.0342L1042.99 6.59605Z" stroke="#F9F9F9" stroke-opacity="0.2" stroke-miterlimit="10"/>
<path d="M1079.15 6.59605V-14.2611L1061.07 -24.6992L1042.99 -14.2611V6.59605L1061.07 17.0342L1079.15 6.59605Z" stroke="#F9F9F9" stroke-opacity="0.2" stroke-miterlimit="10"/>
<path d="M1115.32 6.59605V-14.2611L1097.24 -24.6992L1079.16 -14.2611V6.59605L1097.24 17.0342L1115.32 6.59605Z" stroke="#F9F9F9" stroke-opacity="0.2" stroke-miterlimit="10"/>
<path d="M1151.49 6.59605V-14.2611L1133.41 -24.6992L1115.32 -14.2611V6.59605L1133.41 17.0342L1151.49 6.59605Z" stroke="#F9F9F9" stroke-opacity="0.2" stroke-miterlimit="10"/>
<path d="M1187.66 6.59605V-14.2611L1169.58 -24.6992L1151.49 -14.2611V6.59605L1169.58 17.0342L1187.66 6.59605Z" stroke="#F9F9F9" stroke-opacity="0.2" stroke-miterlimit="10"/>
<path d="M1223.83 6.59605V-14.2611L1205.75 -24.6992L1187.66 -14.2611V6.59605L1205.75 17.0342L1223.83 6.59605Z" stroke="#F9F9F9" stroke-opacity="0.2" stroke-miterlimit="10"/>
<path d="M1260 6.59605V-14.2611L1241.92 -24.6992L1223.83 -14.2611V6.59605L1241.92 17.0342L1260 6.59605Z" stroke="#F9F9F9" stroke-opacity="0.2" stroke-miterlimit="10"/>
<path d="M66.4248 256.994V236.137L48.3451 225.699L30.2559 236.137L30.2559 256.994L48.3451 267.433L66.4248 256.994Z" stroke="#F9F9F9" stroke-opacity="0.2" stroke-miterlimit="10"/>
<path d="M102.594 256.994V236.137L84.5141 225.699L66.4248 236.137V256.994L84.5141 267.433L102.594 256.994Z" stroke="#F9F9F9" stroke-opacity="0.2" stroke-miterlimit="10"/>
<path d="M138.762 256.994V236.137L120.682 225.699L102.593 236.137V256.994L120.682 267.433L138.762 256.994Z" stroke="#F9F9F9" stroke-opacity="0.2" stroke-miterlimit="10"/>
<path d="M174.931 256.994V236.137L156.851 225.699L138.762 236.137V256.994L156.851 267.433L174.931 256.994Z" stroke="#F9F9F9" stroke-opacity="0.2" stroke-miterlimit="10"/>
<path d="M211.1 256.994V236.137L193.02 225.699L174.931 236.137V256.994L193.02 267.433L211.1 256.994Z" stroke="#F9F9F9" stroke-opacity="0.2" stroke-miterlimit="10"/>
<path d="M247.269 256.994V236.137L229.189 225.699L211.1 236.137V256.994L229.189 267.433L247.269 256.994Z" stroke="#F9F9F9" stroke-opacity="0.2" stroke-miterlimit="10"/>
<path d="M283.438 256.994V236.137L265.358 225.699L247.269 236.137V256.994L265.358 267.433L283.438 256.994Z" stroke="#F9F9F9" stroke-opacity="0.2" stroke-miterlimit="10"/>
<path d="M319.606 256.994V236.137L301.527 225.699L283.438 236.137V256.994L301.527 267.433L319.606 256.994Z" stroke="#F9F9F9" stroke-opacity="0.2" stroke-miterlimit="10"/>
<path d="M355.775 256.994V236.137L337.696 225.699L319.606 236.137V256.994L337.696 267.433L355.775 256.994Z" stroke="#F9F9F9" stroke-opacity="0.2" stroke-miterlimit="10"/>
<path d="M391.944 256.994V236.137L373.865 225.699L355.775 236.137V256.994L373.865 267.433L391.944 256.994Z" stroke="#F9F9F9" stroke-opacity="0.2" stroke-miterlimit="10"/>
<path d="M428.113 256.994V236.137L410.034 225.699L391.944 236.137V256.994L410.034 267.433L428.113 256.994Z" stroke="#F9F9F9" stroke-opacity="0.2" stroke-miterlimit="10"/>
<path d="M464.282 256.994V236.137L446.203 225.699L428.113 236.137V256.994L446.203 267.433L464.282 256.994Z" stroke="#F9F9F9" stroke-opacity="0.2" stroke-miterlimit="10"/>
<path d="M500.451 256.994V236.137L482.372 225.699L464.282 236.137V256.994L482.372 267.433L500.451 256.994Z" stroke="#F9F9F9" stroke-opacity="0.2" stroke-miterlimit="10"/>
<path d="M536.62 256.994V236.137L518.54 225.699L500.451 236.137V256.994L518.54 267.433L536.62 256.994Z" stroke="#F9F9F9" stroke-opacity="0.2" stroke-miterlimit="10"/>
<path d="M572.789 256.994V236.137L554.709 225.699L536.62 236.137V256.994L554.709 267.433L572.789 256.994Z" stroke="#F9F9F9" stroke-opacity="0.2" stroke-miterlimit="10"/>
<path d="M608.958 256.994V236.137L590.878 225.699L572.789 236.137V256.994L590.878 267.433L608.958 256.994Z" stroke="#F9F9F9" stroke-opacity="0.2" stroke-miterlimit="10"/>
<path d="M645.128 256.994V236.137L627.048 225.699L608.959 236.137V256.994L627.048 267.433L645.128 256.994Z" stroke="#F9F9F9" stroke-opacity="0.2" stroke-miterlimit="10"/>
<path d="M681.297 256.994V236.137L663.217 225.699L645.128 236.137V256.994L663.217 267.433L681.297 256.994Z" stroke="#F9F9F9" stroke-opacity="0.2" stroke-miterlimit="10"/>
<path d="M717.465 256.994V236.137L699.385 225.699L681.296 236.137V256.994L699.385 267.433L717.465 256.994Z" stroke="#F9F9F9" stroke-opacity="0.2" stroke-miterlimit="10"/>
<path d="M753.634 256.994V236.137L735.554 225.699L717.465 236.137V256.994L735.554 267.433L753.634 256.994Z" stroke="#F9F9F9" stroke-opacity="0.2" stroke-miterlimit="10"/>
<path d="M789.803 256.994V236.137L771.723 225.699L753.634 236.137V256.994L771.723 267.433L789.803 256.994Z" stroke="#F9F9F9" stroke-opacity="0.2" stroke-miterlimit="10"/>
<path d="M825.972 256.994V236.137L807.892 225.699L789.803 236.137V256.994L807.892 267.433L825.972 256.994Z" stroke="#F9F9F9" stroke-opacity="0.2" stroke-miterlimit="10"/>
<path d="M862.141 256.994V236.137L844.061 225.699L825.972 236.137V256.994L844.061 267.433L862.141 256.994Z" stroke="#F9F9F9" stroke-opacity="0.2" stroke-miterlimit="10"/>
<path d="M898.31 256.994V236.137L880.23 225.699L862.141 236.137V256.994L880.23 267.433L898.31 256.994Z" stroke="#F9F9F9" stroke-opacity="0.2" stroke-miterlimit="10"/>
<path d="M934.479 256.994V236.137L916.399 225.699L898.31 236.137V256.994L916.399 267.433L934.479 256.994Z" stroke="#F9F9F9" stroke-opacity="0.2" stroke-miterlimit="10"/>
<path d="M970.647 256.994V236.137L952.568 225.699L934.479 236.137V256.994L952.568 267.433L970.647 256.994Z" stroke="#F9F9F9" stroke-opacity="0.2" stroke-miterlimit="10"/>
<path d="M1006.82 256.994V236.137L988.737 225.699L970.647 236.137V256.994L988.737 267.433L1006.82 256.994Z" stroke="#F9F9F9" stroke-opacity="0.2" stroke-miterlimit="10"/>
<path d="M1042.99 256.994V236.137L1024.91 225.699L1006.82 236.137V256.994L1024.91 267.433L1042.99 256.994Z" stroke="#F9F9F9" stroke-opacity="0.2" stroke-miterlimit="10"/>
<path d="M1079.15 256.994V236.137L1061.07 225.699L1042.99 236.137V256.994L1061.07 267.433L1079.15 256.994Z" stroke="#F9F9F9" stroke-opacity="0.2" stroke-miterlimit="10"/>
<path d="M1115.32 256.994V236.137L1097.24 225.699L1079.16 236.137V256.994L1097.24 267.433L1115.32 256.994Z" stroke="#F9F9F9" stroke-opacity="0.2" stroke-miterlimit="10"/>
<path d="M1151.49 256.994V236.137L1133.41 225.699L1115.32 236.137V256.994L1133.41 267.433L1151.49 256.994Z" stroke="#F9F9F9" stroke-opacity="0.2" stroke-miterlimit="10"/>
<path d="M1187.66 256.994V236.137L1169.58 225.699L1151.49 236.137V256.994L1169.58 267.433L1187.66 256.994Z" stroke="#F9F9F9" stroke-opacity="0.2" stroke-miterlimit="10"/>
<path d="M1223.83 256.994V236.137L1205.75 225.699L1187.66 236.137V256.994L1205.75 267.433L1223.83 256.994Z" stroke="#F9F9F9" stroke-opacity="0.2" stroke-miterlimit="10"/>
<path d="M1260 256.994V236.137L1241.92 225.699L1223.83 236.137V256.994L1241.92 267.433L1260 256.994Z" stroke="#F9F9F9" stroke-opacity="0.2" stroke-miterlimit="10"/>
<path d="M66.4248 131.795V110.938L48.3451 100.5L30.2559 110.938L30.2559 131.795L48.3451 142.233L66.4248 131.795Z" stroke="#F9F9F9" stroke-opacity="0.2" stroke-miterlimit="10"/>
<path d="M102.594 131.795V110.938L84.5141 100.5L66.4248 110.938V131.795L84.5141 142.233L102.594 131.795Z" stroke="#F9F9F9" stroke-opacity="0.2" stroke-miterlimit="10"/>
<path d="M138.762 131.795V110.938L120.682 100.5L102.593 110.938V131.795L120.682 142.233L138.762 131.795Z" stroke="#F9F9F9" stroke-opacity="0.2" stroke-miterlimit="10"/>
<path d="M174.931 131.795V110.938L156.851 100.5L138.762 110.938V131.795L156.851 142.233L174.931 131.795Z" stroke="#F9F9F9" stroke-opacity="0.2" stroke-miterlimit="10"/>
<path d="M211.1 131.795V110.938L193.02 100.5L174.931 110.938V131.795L193.02 142.233L211.1 131.795Z" stroke="#F9F9F9" stroke-opacity="0.2" stroke-miterlimit="10"/>
<path d="M247.269 131.795V110.938L229.189 100.5L211.1 110.938V131.795L229.189 142.233L247.269 131.795Z" stroke="#F9F9F9" stroke-opacity="0.2" stroke-miterlimit="10"/>
<path d="M283.438 131.795V110.938L265.358 100.5L247.269 110.938V131.795L265.358 142.233L283.438 131.795Z" stroke="#F9F9F9" stroke-opacity="0.2" stroke-miterlimit="10"/>
<path d="M319.606 131.795V110.938L301.527 100.5L283.438 110.938V131.795L301.527 142.233L319.606 131.795Z" stroke="#F9F9F9" stroke-opacity="0.2" stroke-miterlimit="10"/>
<path d="M355.775 131.795V110.938L337.696 100.5L319.606 110.938V131.795L337.696 142.233L355.775 131.795Z" stroke="#F9F9F9" stroke-opacity="0.2" stroke-miterlimit="10"/>
<path d="M391.944 131.795V110.938L373.865 100.5L355.775 110.938V131.795L373.865 142.233L391.944 131.795Z" stroke="#F9F9F9" stroke-opacity="0.2" stroke-miterlimit="10"/>
<path d="M428.113 131.795V110.938L410.034 100.5L391.944 110.938V131.795L410.034 142.233L428.113 131.795Z" stroke="#F9F9F9" stroke-opacity="0.2" stroke-miterlimit="10"/>
<path d="M464.282 131.795V110.938L446.203 100.5L428.113 110.938V131.795L446.203 142.233L464.282 131.795Z" stroke="#F9F9F9" stroke-opacity="0.2" stroke-miterlimit="10"/>
<path d="M500.451 131.795V110.938L482.372 100.5L464.282 110.938V131.795L482.372 142.233L500.451 131.795Z" stroke="#F9F9F9" stroke-opacity="0.2" stroke-miterlimit="10"/>
<path d="M536.62 131.795V110.938L518.54 100.5L500.451 110.938V131.795L518.54 142.233L536.62 131.795Z" stroke="#F9F9F9" stroke-opacity="0.2" stroke-miterlimit="10"/>
<path d="M572.789 131.795V110.938L554.709 100.5L536.62 110.938V131.795L554.709 142.233L572.789 131.795Z" stroke="#F9F9F9" stroke-opacity="0.2" stroke-miterlimit="10"/>
<path d="M608.958 131.795V110.938L590.878 100.5L572.789 110.938V131.795L590.878 142.233L608.958 131.795Z" stroke="#F9F9F9" stroke-opacity="0.2" stroke-miterlimit="10"/>
<path d="M645.128 131.795V110.938L627.048 100.5L608.959 110.938V131.795L627.048 142.233L645.128 131.795Z" stroke="#F9F9F9" stroke-opacity="0.2" stroke-miterlimit="10"/>
<path d="M681.297 131.795V110.938L663.217 100.5L645.128 110.938V131.795L663.217 142.233L681.297 131.795Z" stroke="#F9F9F9" stroke-opacity="0.2" stroke-miterlimit="10"/>
<path d="M717.465 131.795V110.938L699.385 100.5L681.296 110.938V131.795L699.385 142.233L717.465 131.795Z" stroke="#F9F9F9" stroke-opacity="0.2" stroke-miterlimit="10"/>
<path d="M753.634 131.795V110.938L735.554 100.5L717.465 110.938V131.795L735.554 142.233L753.634 131.795Z" stroke="#F9F9F9" stroke-opacity="0.2" stroke-miterlimit="10"/>
<path d="M789.803 131.795V110.938L771.723 100.5L753.634 110.938V131.795L771.723 142.233L789.803 131.795Z" stroke="#F9F9F9" stroke-opacity="0.2" stroke-miterlimit="10"/>
<path d="M825.972 131.795V110.938L807.892 100.5L789.803 110.938V131.795L807.892 142.233L825.972 131.795Z" stroke="#F9F9F9" stroke-opacity="0.2" stroke-miterlimit="10"/>
<path d="M862.141 131.795V110.938L844.061 100.5L825.972 110.938V131.795L844.061 142.233L862.141 131.795Z" stroke="#F9F9F9" stroke-opacity="0.2" stroke-miterlimit="10"/>
<path d="M898.31 131.795V110.938L880.23 100.5L862.141 110.938V131.795L880.23 142.233L898.31 131.795Z" stroke="#F9F9F9" stroke-opacity="0.2" stroke-miterlimit="10"/>
<path d="M934.479 131.795V110.938L916.399 100.5L898.31 110.938V131.795L916.399 142.233L934.479 131.795Z" stroke="#F9F9F9" stroke-opacity="0.2" stroke-miterlimit="10"/>
<path d="M970.647 131.795V110.938L952.568 100.5L934.479 110.938V131.795L952.568 142.233L970.647 131.795Z" stroke="#F9F9F9" stroke-opacity="0.2" stroke-miterlimit="10"/>
<path d="M1006.82 131.795V110.938L988.737 100.5L970.647 110.938V131.795L988.737 142.233L1006.82 131.795Z" stroke="#F9F9F9" stroke-opacity="0.2" stroke-miterlimit="10"/>
<path d="M1042.99 131.795V110.938L1024.91 100.5L1006.82 110.938V131.795L1024.91 142.233L1042.99 131.795Z" stroke="#F9F9F9" stroke-opacity="0.2" stroke-miterlimit="10"/>
<path d="M1079.15 131.795V110.938L1061.07 100.5L1042.99 110.938V131.795L1061.07 142.233L1079.15 131.795Z" stroke="#F9F9F9" stroke-opacity="0.2" stroke-miterlimit="10"/>
<path d="M1115.32 131.795V110.938L1097.24 100.5L1079.16 110.938V131.795L1097.24 142.233L1115.32 131.795Z" stroke="#F9F9F9" stroke-opacity="0.2" stroke-miterlimit="10"/>
<path d="M1151.49 131.795V110.938L1133.41 100.5L1115.32 110.938V131.795L1133.41 142.233L1151.49 131.795Z" stroke="#F9F9F9" stroke-opacity="0.2" stroke-miterlimit="10"/>
<path d="M1187.66 131.795V110.938L1169.58 100.5L1151.49 110.938V131.795L1169.58 142.233L1187.66 131.795Z" stroke="#F9F9F9" stroke-opacity="0.2" stroke-miterlimit="10"/>
<path d="M1223.83 131.795V110.938L1205.75 100.5L1187.66 110.938V131.795L1205.75 142.233L1223.83 131.795Z" stroke="#F9F9F9" stroke-opacity="0.2" stroke-miterlimit="10"/>
<path d="M1260 131.795V110.938L1241.92 100.5L1223.83 110.938V131.795L1241.92 142.233L1260 131.795Z" stroke="#F9F9F9" stroke-opacity="0.2" stroke-miterlimit="10"/>
<path d="M66.4248 382.198V361.34L48.3451 350.902L30.2559 361.34L30.2559 382.198L48.3451 392.636L66.4248 382.198Z" stroke="#F9F9F9" stroke-opacity="0.2" stroke-miterlimit="10"/>
<path d="M102.594 382.198V361.34L84.5141 350.902L66.4248 361.34V382.198L84.5141 392.636L102.594 382.198Z" stroke="#F9F9F9" stroke-opacity="0.2" stroke-miterlimit="10"/>
<path d="M138.762 382.198V361.34L120.682 350.902L102.593 361.34V382.198L120.682 392.636L138.762 382.198Z" stroke="#F9F9F9" stroke-opacity="0.2" stroke-miterlimit="10"/>
<path d="M174.931 382.198V361.34L156.851 350.902L138.762 361.34V382.198L156.851 392.636L174.931 382.198Z" stroke="#F9F9F9" stroke-opacity="0.2" stroke-miterlimit="10"/>
<path d="M211.1 382.198V361.34L193.02 350.902L174.931 361.34V382.198L193.02 392.636L211.1 382.198Z" stroke="#F9F9F9" stroke-opacity="0.2" stroke-miterlimit="10"/>
<path d="M247.269 382.198V361.34L229.189 350.902L211.1 361.34V382.198L229.189 392.636L247.269 382.198Z" stroke="#F9F9F9" stroke-opacity="0.2" stroke-miterlimit="10"/>
<path d="M283.438 382.198V361.34L265.358 350.902L247.269 361.34V382.198L265.358 392.636L283.438 382.198Z" stroke="#F9F9F9" stroke-opacity="0.2" stroke-miterlimit="10"/>
<path d="M319.606 382.198V361.34L301.527 350.902L283.438 361.34V382.198L301.527 392.636L319.606 382.198Z" stroke="#F9F9F9" stroke-opacity="0.2" stroke-miterlimit="10"/>
<path d="M355.775 382.198V361.34L337.696 350.902L319.606 361.34V382.198L337.696 392.636L355.775 382.198Z" stroke="#F9F9F9" stroke-opacity="0.2" stroke-miterlimit="10"/>
<path d="M391.944 382.198V361.34L373.865 350.902L355.775 361.34V382.198L373.865 392.636L391.944 382.198Z" stroke="#F9F9F9" stroke-opacity="0.2" stroke-miterlimit="10"/>
<path d="M428.113 382.198V361.34L410.034 350.902L391.944 361.34V382.198L410.034 392.636L428.113 382.198Z" stroke="#F9F9F9" stroke-opacity="0.2" stroke-miterlimit="10"/>
<path d="M464.282 382.198V361.34L446.203 350.902L428.113 361.34V382.198L446.203 392.636L464.282 382.198Z" stroke="#F9F9F9" stroke-opacity="0.2" stroke-miterlimit="10"/>
<path d="M500.451 382.198V361.34L482.372 350.902L464.282 361.34V382.198L482.372 392.636L500.451 382.198Z" stroke="#F9F9F9" stroke-opacity="0.2" stroke-miterlimit="10"/>
<path d="M536.62 382.198V361.34L518.54 350.902L500.451 361.34V382.198L518.54 392.636L536.62 382.198Z" stroke="#F9F9F9" stroke-opacity="0.2" stroke-miterlimit="10"/>
<path d="M572.789 382.198V361.34L554.709 350.902L536.62 361.34V382.198L554.709 392.636L572.789 382.198Z" stroke="#F9F9F9" stroke-opacity="0.2" stroke-miterlimit="10"/>
<path d="M608.958 382.198V361.34L590.878 350.902L572.789 361.34V382.198L590.878 392.636L608.958 382.198Z" stroke="#F9F9F9" stroke-opacity="0.2" stroke-miterlimit="10"/>
<path d="M645.128 382.198V361.34L627.048 350.902L608.959 361.34V382.198L627.048 392.636L645.128 382.198Z" stroke="#F9F9F9" stroke-opacity="0.2" stroke-miterlimit="10"/>
<path d="M681.297 382.198V361.34L663.217 350.902L645.128 361.34V382.198L663.217 392.636L681.297 382.198Z" stroke="#F9F9F9" stroke-opacity="0.2" stroke-miterlimit="10"/>
<path d="M717.465 382.198V361.34L699.385 350.902L681.296 361.34V382.198L699.385 392.636L717.465 382.198Z" stroke="#F9F9F9" stroke-opacity="0.2" stroke-miterlimit="10"/>
<path d="M753.634 382.198V361.34L735.554 350.902L717.465 361.34V382.198L735.554 392.636L753.634 382.198Z" stroke="#F9F9F9" stroke-opacity="0.2" stroke-miterlimit="10"/>
<path d="M789.803 382.198V361.34L771.723 350.902L753.634 361.34V382.198L771.723 392.636L789.803 382.198Z" stroke="#F9F9F9" stroke-opacity="0.2" stroke-miterlimit="10"/>
<path d="M825.972 382.198V361.34L807.892 350.902L789.803 361.34V382.198L807.892 392.636L825.972 382.198Z" stroke="#F9F9F9" stroke-opacity="0.2" stroke-miterlimit="10"/>
<path d="M862.141 382.198V361.34L844.061 350.902L825.972 361.34V382.198L844.061 392.636L862.141 382.198Z" stroke="#F9F9F9" stroke-opacity="0.2" stroke-miterlimit="10"/>
<path d="M898.31 382.198V361.34L880.23 350.902L862.141 361.34V382.198L880.23 392.636L898.31 382.198Z" stroke="#F9F9F9" stroke-opacity="0.2" stroke-miterlimit="10"/>
<path d="M934.479 382.198V361.34L916.399 350.902L898.31 361.34V382.198L916.399 392.636L934.479 382.198Z" stroke="#F9F9F9" stroke-opacity="0.2" stroke-miterlimit="10"/>
<path d="M970.647 382.198V361.34L952.568 350.902L934.479 361.34V382.198L952.568 392.636L970.647 382.198Z" stroke="#F9F9F9" stroke-opacity="0.2" stroke-miterlimit="10"/>
<path d="M1006.82 382.198V361.34L988.737 350.902L970.647 361.34V382.198L988.737 392.636L1006.82 382.198Z" stroke="#F9F9F9" stroke-opacity="0.2" stroke-miterlimit="10"/>
<path d="M1042.99 382.198V361.34L1024.91 350.902L1006.82 361.34V382.198L1024.91 392.636L1042.99 382.198Z" stroke="#F9F9F9" stroke-opacity="0.2" stroke-miterlimit="10"/>
<path d="M1079.15 382.198V361.34L1061.07 350.902L1042.99 361.34V382.198L1061.07 392.636L1079.15 382.198Z" stroke="#F9F9F9" stroke-opacity="0.2" stroke-miterlimit="10"/>
<path d="M1115.32 382.198V361.34L1097.24 350.902L1079.16 361.34V382.198L1097.24 392.636L1115.32 382.198Z" stroke="#F9F9F9" stroke-opacity="0.2" stroke-miterlimit="10"/>
<path d="M1151.49 382.198V361.34L1133.41 350.902L1115.32 361.34V382.198L1133.41 392.636L1151.49 382.198Z" stroke="#F9F9F9" stroke-opacity="0.2" stroke-miterlimit="10"/>
<path d="M1187.66 382.198V361.34L1169.58 350.902L1151.49 361.34V382.198L1169.58 392.636L1187.66 382.198Z" stroke="#F9F9F9" stroke-opacity="0.2" stroke-miterlimit="10"/>
<path d="M1223.83 382.198V361.34L1205.75 350.902L1187.66 361.34V382.198L1205.75 392.636L1223.83 382.198Z" stroke="#F9F9F9" stroke-opacity="0.2" stroke-miterlimit="10"/>
<path d="M1260 382.198V361.34L1241.92 350.902L1223.83 361.34V382.198L1241.92 392.636L1260 382.198Z" stroke="#F9F9F9" stroke-opacity="0.2" stroke-miterlimit="10"/>
<path d="M48.3399 37.8968L48.3399 17.0397L30.2602 6.60156L12.1709 17.0397L12.1709 37.8968L30.2602 48.335L48.3399 37.8968Z" stroke="#F9F9F9" stroke-opacity="0.2" stroke-miterlimit="10"/>
<path d="M84.5088 37.8968V17.0397L66.4291 6.60156L48.3398 17.0397L48.3398 37.8968L66.4291 48.335L84.5088 37.8968Z" stroke="#F9F9F9" stroke-opacity="0.2" stroke-miterlimit="10"/>
<path d="M120.677 37.8968V17.0397L102.597 6.60156L84.5078 17.0397V37.8968L102.597 48.335L120.677 37.8968Z" stroke="#F9F9F9" stroke-opacity="0.2" stroke-miterlimit="10"/>
<path d="M156.846 37.8968V17.0397L138.766 6.60156L120.677 17.0397V37.8968L138.766 48.335L156.846 37.8968Z" stroke="#F9F9F9" stroke-opacity="0.2" stroke-miterlimit="10"/>
<path d="M193.015 37.8968V17.0397L174.935 6.60156L156.846 17.0397V37.8968L174.935 48.335L193.015 37.8968Z" stroke="#F9F9F9" stroke-opacity="0.2" stroke-miterlimit="10"/>
<path d="M229.184 37.8968V17.0397L211.104 6.60156L193.015 17.0397V37.8968L211.104 48.335L229.184 37.8968Z" stroke="#F9F9F9" stroke-opacity="0.2" stroke-miterlimit="10"/>
<path d="M265.353 37.8968V17.0397L247.273 6.60156L229.184 17.0397V37.8968L247.273 48.335L265.353 37.8968Z" stroke="#F9F9F9" stroke-opacity="0.2" stroke-miterlimit="10"/>
<path d="M301.522 37.8968V17.0397L283.443 6.60156L265.354 17.0397V37.8968L283.443 48.335L301.522 37.8968Z" stroke="#F9F9F9" stroke-opacity="0.2" stroke-miterlimit="10"/>
<path d="M337.691 37.8968V17.0397L319.612 6.60156L301.522 17.0397V37.8968L319.612 48.335L337.691 37.8968Z" stroke="#F9F9F9" stroke-opacity="0.2" stroke-miterlimit="10"/>
<path d="M373.86 37.8968V17.0397L355.781 6.60156L337.691 17.0397V37.8968L355.781 48.335L373.86 37.8968Z" stroke="#F9F9F9" stroke-opacity="0.2" stroke-miterlimit="10"/>
<path d="M410.029 37.8968V17.0397L391.95 6.60156L373.86 17.0397V37.8968L391.95 48.335L410.029 37.8968Z" stroke="#F9F9F9" stroke-opacity="0.2" stroke-miterlimit="10"/>
<path d="M446.198 37.8968V17.0397L428.119 6.60156L410.029 17.0397V37.8968L428.119 48.335L446.198 37.8968Z" stroke="#F9F9F9" stroke-opacity="0.2" stroke-miterlimit="10"/>
<path d="M482.367 37.8968V17.0397L464.288 6.60156L446.198 17.0397V37.8968L464.288 48.335L482.367 37.8968Z" stroke="#F9F9F9" stroke-opacity="0.2" stroke-miterlimit="10"/>
<path d="M518.536 37.8968V17.0397L500.456 6.60156L482.367 17.0397V37.8968L500.456 48.335L518.536 37.8968Z" stroke="#F9F9F9" stroke-opacity="0.2" stroke-miterlimit="10"/>
<path d="M554.705 37.8968V17.0397L536.625 6.60156L518.536 17.0397V37.8968L536.625 48.335L554.705 37.8968Z" stroke="#F9F9F9" stroke-opacity="0.2" stroke-miterlimit="10"/>
<path d="M590.874 37.8968V17.0397L572.794 6.60156L554.705 17.0397V37.8968L572.794 48.335L590.874 37.8968Z" stroke="#F9F9F9" stroke-opacity="0.2" stroke-miterlimit="10"/>
<path d="M627.043 37.8968V17.0397L608.963 6.60156L590.874 17.0397V37.8968L608.963 48.335L627.043 37.8968Z" stroke="#F9F9F9" stroke-opacity="0.2" stroke-miterlimit="10"/>
<path d="M663.212 37.8968V17.0397L645.132 6.60156L627.043 17.0397V37.8968L645.132 48.335L663.212 37.8968Z" stroke="#F9F9F9" stroke-opacity="0.2" stroke-miterlimit="10"/>
<path d="M699.381 37.8968V17.0397L681.301 6.60156L663.212 17.0397V37.8968L681.301 48.335L699.381 37.8968Z" stroke="#F9F9F9" stroke-opacity="0.2" stroke-miterlimit="10"/>
<path d="M735.549 37.8968V17.0397L717.469 6.60156L699.38 17.0397V37.8968L717.469 48.335L735.549 37.8968Z" stroke="#F9F9F9" stroke-opacity="0.2" stroke-miterlimit="10"/>
<path d="M771.718 37.8968V17.0397L753.638 6.60156L735.549 17.0397V37.8968L753.638 48.335L771.718 37.8968Z" stroke="#F9F9F9" stroke-opacity="0.2" stroke-miterlimit="10"/>
<path d="M807.887 37.8968V17.0397L789.807 6.60156L771.718 17.0397V37.8968L789.807 48.335L807.887 37.8968Z" stroke="#F9F9F9" stroke-opacity="0.2" stroke-miterlimit="10"/>
<path d="M844.056 37.8968V17.0397L825.976 6.60156L807.887 17.0397V37.8968L825.976 48.335L844.056 37.8968Z" stroke="#F9F9F9" stroke-opacity="0.2" stroke-miterlimit="10"/>
<path d="M880.225 37.8968V17.0397L862.145 6.60156L844.056 17.0397V37.8968L862.145 48.335L880.225 37.8968Z" stroke="#F9F9F9" stroke-opacity="0.2" stroke-miterlimit="10"/>
<path d="M916.394 37.8968V17.0397L898.314 6.60156L880.225 17.0397V37.8968L898.314 48.335L916.394 37.8968Z" stroke="#F9F9F9" stroke-opacity="0.2" stroke-miterlimit="10"/>
<path d="M952.563 37.8968V17.0397L934.483 6.60156L916.394 17.0397V37.8968L934.483 48.335L952.563 37.8968Z" stroke="#F9F9F9" stroke-opacity="0.2" stroke-miterlimit="10"/>
<path d="M988.731 37.8968V17.0397L970.652 6.60156L952.562 17.0397V37.8968L970.652 48.335L988.731 37.8968Z" stroke="#F9F9F9" stroke-opacity="0.2" stroke-miterlimit="10"/>
<path d="M1024.9 37.8968V17.0397L1006.82 6.60156L988.732 17.0397V37.8968L1006.82 48.335L1024.9 37.8968Z" stroke="#F9F9F9" stroke-opacity="0.2" stroke-miterlimit="10"/>
<path d="M1061.07 37.8968V17.0397L1042.99 6.60156L1024.9 17.0397V37.8968L1042.99 48.335L1061.07 37.8968Z" stroke="#F9F9F9" stroke-opacity="0.2" stroke-miterlimit="10"/>
<path d="M1097.24 37.8968V17.0397L1079.16 6.60156L1061.07 17.0397V37.8968L1079.16 48.335L1097.24 37.8968Z" stroke="#F9F9F9" stroke-opacity="0.2" stroke-miterlimit="10"/>
<path d="M1133.41 37.8968V17.0397L1115.33 6.60156L1097.24 17.0397V37.8968L1115.33 48.335L1133.41 37.8968Z" stroke="#F9F9F9" stroke-opacity="0.2" stroke-miterlimit="10"/>
<path d="M1169.58 37.8968V17.0397L1151.5 6.60156L1133.41 17.0397V37.8968L1151.5 48.335L1169.58 37.8968Z" stroke="#F9F9F9" stroke-opacity="0.2" stroke-miterlimit="10"/>
<path d="M1205.75 37.8968V17.0397L1187.67 6.60156L1169.58 17.0397V37.8968L1187.67 48.335L1205.75 37.8968Z" stroke="#F9F9F9" stroke-opacity="0.2" stroke-miterlimit="10"/>
<path d="M1241.92 37.8968V17.0397L1223.84 6.60156L1205.75 17.0397V37.8968L1223.84 48.335L1241.92 37.8968Z" stroke="#F9F9F9" stroke-opacity="0.2" stroke-miterlimit="10"/>
<path d="M66.4248 69.1976V48.3405L48.3451 37.9023L30.2559 48.3405L30.2559 69.1976L48.3451 79.6358L66.4248 69.1976Z" stroke="#F9F9F9" stroke-opacity="0.2" stroke-miterlimit="10"/>
<path d="M102.594 69.1976V48.3405L84.5141 37.9023L66.4248 48.3405V69.1976L84.5141 79.6358L102.594 69.1976Z" stroke="#F9F9F9" stroke-opacity="0.2" stroke-miterlimit="10"/>
<path d="M138.762 69.1976V48.3405L120.682 37.9023L102.593 48.3405V69.1976L120.682 79.6358L138.762 69.1976Z" stroke="#F9F9F9" stroke-opacity="0.2" stroke-miterlimit="10"/>
<path d="M174.931 69.1976V48.3405L156.851 37.9023L138.762 48.3405V69.1976L156.851 79.6358L174.931 69.1976Z" stroke="#F9F9F9" stroke-opacity="0.2" stroke-miterlimit="10"/>
<path d="M211.1 69.1976V48.3405L193.02 37.9023L174.931 48.3405V69.1976L193.02 79.6358L211.1 69.1976Z" stroke="#F9F9F9" stroke-opacity="0.2" stroke-miterlimit="10"/>
<path d="M247.269 69.1976V48.3405L229.189 37.9023L211.1 48.3405V69.1976L229.189 79.6358L247.269 69.1976Z" stroke="#F9F9F9" stroke-opacity="0.2" stroke-miterlimit="10"/>
<path d="M283.438 69.1976V48.3405L265.358 37.9023L247.269 48.3405V69.1976L265.358 79.6358L283.438 69.1976Z" stroke="#F9F9F9" stroke-opacity="0.2" stroke-miterlimit="10"/>
<path d="M319.606 69.1976V48.3405L301.527 37.9023L283.438 48.3405V69.1976L301.527 79.6358L319.606 69.1976Z" stroke="#F9F9F9" stroke-opacity="0.2" stroke-miterlimit="10"/>
<path d="M355.775 69.1976V48.3405L337.696 37.9023L319.606 48.3405V69.1976L337.696 79.6358L355.775 69.1976Z" stroke="#F9F9F9" stroke-opacity="0.2" stroke-miterlimit="10"/>
<path d="M391.944 69.1976V48.3405L373.865 37.9023L355.775 48.3405V69.1976L373.865 79.6358L391.944 69.1976Z" stroke="#F9F9F9" stroke-opacity="0.2" stroke-miterlimit="10"/>
<path d="M428.113 69.1976V48.3405L410.034 37.9023L391.944 48.3405V69.1976L410.034 79.6358L428.113 69.1976Z" stroke="#F9F9F9" stroke-opacity="0.2" stroke-miterlimit="10"/>
<path d="M464.282 69.1976V48.3405L446.203 37.9023L428.113 48.3405V69.1976L446.203 79.6358L464.282 69.1976Z" stroke="#F9F9F9" stroke-opacity="0.2" stroke-miterlimit="10"/>
<path d="M500.451 69.1976V48.3405L482.372 37.9023L464.282 48.3405V69.1976L482.372 79.6358L500.451 69.1976Z" stroke="#F9F9F9" stroke-opacity="0.2" stroke-miterlimit="10"/>
<path d="M536.62 69.1976V48.3405L518.54 37.9023L500.451 48.3405V69.1976L518.54 79.6358L536.62 69.1976Z" stroke="#F9F9F9" stroke-opacity="0.2" stroke-miterlimit="10"/>
<path d="M572.789 69.1976V48.3405L554.709 37.9023L536.62 48.3405V69.1976L554.709 79.6358L572.789 69.1976Z" stroke="#F9F9F9" stroke-opacity="0.2" stroke-miterlimit="10"/>
<path d="M608.958 69.1976V48.3405L590.878 37.9023L572.789 48.3405V69.1976L590.878 79.6358L608.958 69.1976Z" stroke="#F9F9F9" stroke-opacity="0.2" stroke-miterlimit="10"/>
<path d="M645.128 69.1976V48.3405L627.048 37.9023L608.959 48.3405V69.1976L627.048 79.6358L645.128 69.1976Z" stroke="#F9F9F9" stroke-opacity="0.2" stroke-miterlimit="10"/>
<path d="M681.297 69.1976V48.3405L663.217 37.9023L645.128 48.3405V69.1976L663.217 79.6358L681.297 69.1976Z" stroke="#F9F9F9" stroke-opacity="0.2" stroke-miterlimit="10"/>
<path d="M717.465 69.1976V48.3405L699.385 37.9023L681.296 48.3405V69.1976L699.385 79.6358L717.465 69.1976Z" stroke="#F9F9F9" stroke-opacity="0.2" stroke-miterlimit="10"/>
<path d="M753.634 69.1976V48.3405L735.554 37.9023L717.465 48.3405V69.1976L735.554 79.6358L753.634 69.1976Z" stroke="#F9F9F9" stroke-opacity="0.2" stroke-miterlimit="10"/>
<path d="M789.803 69.1976V48.3405L771.723 37.9023L753.634 48.3405V69.1976L771.723 79.6358L789.803 69.1976Z" stroke="#F9F9F9" stroke-opacity="0.2" stroke-miterlimit="10"/>
<path d="M825.972 69.1976V48.3405L807.892 37.9023L789.803 48.3405V69.1976L807.892 79.6358L825.972 69.1976Z" stroke="#F9F9F9" stroke-opacity="0.2" stroke-miterlimit="10"/>
<path d="M862.141 69.1976V48.3405L844.061 37.9023L825.972 48.3405V69.1976L844.061 79.6358L862.141 69.1976Z" stroke="#F9F9F9" stroke-opacity="0.2" stroke-miterlimit="10"/>
<path d="M898.31 69.1976V48.3405L880.23 37.9023L862.141 48.3405V69.1976L880.23 79.6358L898.31 69.1976Z" stroke="#F9F9F9" stroke-opacity="0.2" stroke-miterlimit="10"/>
<path d="M934.479 69.1976V48.3405L916.399 37.9023L898.31 48.3405V69.1976L916.399 79.6358L934.479 69.1976Z" stroke="#F9F9F9" stroke-opacity="0.2" stroke-miterlimit="10"/>
<path d="M970.647 69.1976V48.3405L952.568 37.9023L934.479 48.3405V69.1976L952.568 79.6358L970.647 69.1976Z" stroke="#F9F9F9" stroke-opacity="0.2" stroke-miterlimit="10"/>
<path d="M1006.82 69.1976V48.3405L988.737 37.9023L970.647 48.3405V69.1976L988.737 79.6358L1006.82 69.1976Z" stroke="#F9F9F9" stroke-opacity="0.2" stroke-miterlimit="10"/>
<path d="M1042.99 69.1976V48.3405L1024.91 37.9023L1006.82 48.3405V69.1976L1024.91 79.6358L1042.99 69.1976Z" stroke="#F9F9F9" stroke-opacity="0.2" stroke-miterlimit="10"/>
<path d="M1079.15 69.1976V48.3405L1061.07 37.9023L1042.99 48.3405V69.1976L1061.07 79.6358L1079.15 69.1976Z" stroke="#F9F9F9" stroke-opacity="0.2" stroke-miterlimit="10"/>
<path d="M1115.32 69.1976V48.3405L1097.24 37.9023L1079.16 48.3405V69.1976L1097.24 79.6358L1115.32 69.1976Z" stroke="#F9F9F9" stroke-opacity="0.2" stroke-miterlimit="10"/>
<path d="M1151.49 69.1976V48.3405L1133.41 37.9023L1115.32 48.3405V69.1976L1133.41 79.6358L1151.49 69.1976Z" stroke="#F9F9F9" stroke-opacity="0.2" stroke-miterlimit="10"/>
<path d="M1187.66 69.1976V48.3405L1169.58 37.9023L1151.49 48.3405V69.1976L1169.58 79.6358L1187.66 69.1976Z" stroke="#F9F9F9" stroke-opacity="0.2" stroke-miterlimit="10"/>
<path d="M1223.83 69.1976V48.3405L1205.75 37.9023L1187.66 48.3405V69.1976L1205.75 79.6358L1223.83 69.1976Z" stroke="#F9F9F9" stroke-opacity="0.2" stroke-miterlimit="10"/>
<path d="M1260 69.1976V48.3405L1241.92 37.9023L1223.83 48.3405V69.1976L1241.92 79.6358L1260 69.1976Z" stroke="#F9F9F9" stroke-opacity="0.2" stroke-miterlimit="10"/>
<path d="M48.3399 288.295L48.3399 267.438L30.2602 257L12.1709 267.438L12.1709 288.295L30.2602 298.733L48.3399 288.295Z" stroke="#F9F9F9" stroke-opacity="0.2" stroke-miterlimit="10"/>
<path d="M84.5088 288.295V267.438L66.4291 257L48.3398 267.438L48.3398 288.295L66.4291 298.733L84.5088 288.295Z" stroke="#F9F9F9" stroke-opacity="0.2" stroke-miterlimit="10"/>
<path d="M120.677 288.295V267.438L102.597 257L84.5078 267.438V288.295L102.597 298.733L120.677 288.295Z" stroke="#F9F9F9" stroke-opacity="0.2" stroke-miterlimit="10"/>
<path d="M156.846 288.295V267.438L138.766 257L120.677 267.438V288.295L138.766 298.733L156.846 288.295Z" stroke="#F9F9F9" stroke-opacity="0.2" stroke-miterlimit="10"/>
<path d="M193.015 288.295V267.438L174.935 257L156.846 267.438V288.295L174.935 298.733L193.015 288.295Z" stroke="#F9F9F9" stroke-opacity="0.2" stroke-miterlimit="10"/>
<path d="M229.184 288.295V267.438L211.104 257L193.015 267.438V288.295L211.104 298.733L229.184 288.295Z" stroke="#F9F9F9" stroke-opacity="0.2" stroke-miterlimit="10"/>
<path d="M265.353 288.295V267.438L247.273 257L229.184 267.438V288.295L247.273 298.733L265.353 288.295Z" stroke="#F9F9F9" stroke-opacity="0.2" stroke-miterlimit="10"/>
<path d="M301.522 288.295V267.438L283.443 257L265.354 267.438V288.295L283.443 298.733L301.522 288.295Z" stroke="#F9F9F9" stroke-opacity="0.2" stroke-miterlimit="10"/>
<path d="M337.691 288.295V267.438L319.612 257L301.522 267.438V288.295L319.612 298.733L337.691 288.295Z" stroke="#F9F9F9" stroke-opacity="0.2" stroke-miterlimit="10"/>
<path d="M373.86 288.295V267.438L355.781 257L337.691 267.438V288.295L355.781 298.733L373.86 288.295Z" stroke="#F9F9F9" stroke-opacity="0.2" stroke-miterlimit="10"/>
<path d="M410.029 288.295V267.438L391.95 257L373.86 267.438V288.295L391.95 298.733L410.029 288.295Z" stroke="#F9F9F9" stroke-opacity="0.2" stroke-miterlimit="10"/>
<path d="M446.198 288.295V267.438L428.119 257L410.029 267.438V288.295L428.119 298.733L446.198 288.295Z" stroke="#F9F9F9" stroke-opacity="0.2" stroke-miterlimit="10"/>
<path d="M482.367 288.295V267.438L464.288 257L446.198 267.438V288.295L464.288 298.733L482.367 288.295Z" stroke="#F9F9F9" stroke-opacity="0.2" stroke-miterlimit="10"/>
<path d="M518.536 288.295V267.438L500.456 257L482.367 267.438V288.295L500.456 298.733L518.536 288.295Z" stroke="#F9F9F9" stroke-opacity="0.2" stroke-miterlimit="10"/>
<path d="M554.705 288.295V267.438L536.625 257L518.536 267.438V288.295L536.625 298.733L554.705 288.295Z" stroke="#F9F9F9" stroke-opacity="0.2" stroke-miterlimit="10"/>
<path d="M590.874 288.295V267.438L572.794 257L554.705 267.438V288.295L572.794 298.733L590.874 288.295Z" stroke="#F9F9F9" stroke-opacity="0.2" stroke-miterlimit="10"/>
<path d="M627.043 288.295V267.438L608.963 257L590.874 267.438V288.295L608.963 298.733L627.043 288.295Z" stroke="#F9F9F9" stroke-opacity="0.2" stroke-miterlimit="10"/>
<path d="M663.212 288.295V267.438L645.132 257L627.043 267.438V288.295L645.132 298.733L663.212 288.295Z" stroke="#F9F9F9" stroke-opacity="0.2" stroke-miterlimit="10"/>
<path d="M699.381 288.295V267.438L681.301 257L663.212 267.438V288.295L681.301 298.733L699.381 288.295Z" stroke="#F9F9F9" stroke-opacity="0.2" stroke-miterlimit="10"/>
<path d="M735.549 288.295V267.438L717.469 257L699.38 267.438V288.295L717.469 298.733L735.549 288.295Z" stroke="#F9F9F9" stroke-opacity="0.2" stroke-miterlimit="10"/>
<path d="M771.718 288.295V267.438L753.638 257L735.549 267.438V288.295L753.638 298.733L771.718 288.295Z" stroke="#F9F9F9" stroke-opacity="0.2" stroke-miterlimit="10"/>
<path d="M807.887 288.295V267.438L789.807 257L771.718 267.438V288.295L789.807 298.733L807.887 288.295Z" stroke="#F9F9F9" stroke-opacity="0.2" stroke-miterlimit="10"/>
<path d="M844.056 288.295V267.438L825.976 257L807.887 267.438V288.295L825.976 298.733L844.056 288.295Z" stroke="#F9F9F9" stroke-opacity="0.2" stroke-miterlimit="10"/>
<path d="M880.225 288.295V267.438L862.145 257L844.056 267.438V288.295L862.145 298.733L880.225 288.295Z" stroke="#F9F9F9" stroke-opacity="0.2" stroke-miterlimit="10"/>
<path d="M916.394 288.295V267.438L898.314 257L880.225 267.438V288.295L898.314 298.733L916.394 288.295Z" stroke="#F9F9F9" stroke-opacity="0.2" stroke-miterlimit="10"/>
<path d="M952.563 288.295V267.438L934.483 257L916.394 267.438V288.295L934.483 298.733L952.563 288.295Z" stroke="#F9F9F9" stroke-opacity="0.2" stroke-miterlimit="10"/>
<path d="M988.731 288.295V267.438L970.652 257L952.562 267.438V288.295L970.652 298.733L988.731 288.295Z" stroke="#F9F9F9" stroke-opacity="0.2" stroke-miterlimit="10"/>
<path d="M1024.9 288.295V267.438L1006.82 257L988.732 267.438V288.295L1006.82 298.733L1024.9 288.295Z" stroke="#F9F9F9" stroke-opacity="0.2" stroke-miterlimit="10"/>
<path d="M1061.07 288.295V267.438L1042.99 257L1024.9 267.438V288.295L1042.99 298.733L1061.07 288.295Z" stroke="#F9F9F9" stroke-opacity="0.2" stroke-miterlimit="10"/>
<path d="M1097.24 288.295V267.438L1079.16 257L1061.07 267.438V288.295L1079.16 298.733L1097.24 288.295Z" stroke="#F9F9F9" stroke-opacity="0.2" stroke-miterlimit="10"/>
<path d="M1133.41 288.295V267.438L1115.33 257L1097.24 267.438V288.295L1115.33 298.733L1133.41 288.295Z" stroke="#F9F9F9" stroke-opacity="0.2" stroke-miterlimit="10"/>
<path d="M1169.58 288.295V267.438L1151.5 257L1133.41 267.438V288.295L1151.5 298.733L1169.58 288.295Z" stroke="#F9F9F9" stroke-opacity="0.2" stroke-miterlimit="10"/>
<path d="M1205.75 288.295V267.438L1187.67 257L1169.58 267.438V288.295L1187.67 298.733L1205.75 288.295Z" stroke="#F9F9F9" stroke-opacity="0.2" stroke-miterlimit="10"/>
<path d="M1241.92 288.295V267.438L1223.84 257L1205.75 267.438V288.295L1223.84 298.733L1241.92 288.295Z" stroke="#F9F9F9" stroke-opacity="0.2" stroke-miterlimit="10"/>
<path d="M66.4248 319.596V298.739L48.3451 288.301L30.2559 298.739L30.2559 319.596L48.3451 330.034L66.4248 319.596Z" stroke="#F9F9F9" stroke-opacity="0.2" stroke-miterlimit="10"/>
<path d="M102.594 319.596V298.739L84.5141 288.301L66.4248 298.739V319.596L84.5141 330.034L102.594 319.596Z" stroke="#F9F9F9" stroke-opacity="0.2" stroke-miterlimit="10"/>
<path d="M138.762 319.596V298.739L120.682 288.301L102.593 298.739V319.596L120.682 330.034L138.762 319.596Z" stroke="#F9F9F9" stroke-opacity="0.2" stroke-miterlimit="10"/>
<path d="M174.931 319.596V298.739L156.851 288.301L138.762 298.739V319.596L156.851 330.034L174.931 319.596Z" stroke="#F9F9F9" stroke-opacity="0.2" stroke-miterlimit="10"/>
<path d="M211.1 319.596V298.739L193.02 288.301L174.931 298.739V319.596L193.02 330.034L211.1 319.596Z" stroke="#F9F9F9" stroke-opacity="0.2" stroke-miterlimit="10"/>
<path d="M247.269 319.596V298.739L229.189 288.301L211.1 298.739V319.596L229.189 330.034L247.269 319.596Z" stroke="#F9F9F9" stroke-opacity="0.2" stroke-miterlimit="10"/>
<path d="M283.438 319.596V298.739L265.358 288.301L247.269 298.739V319.596L265.358 330.034L283.438 319.596Z" stroke="#F9F9F9" stroke-opacity="0.2" stroke-miterlimit="10"/>
<path d="M319.606 319.596V298.739L301.527 288.301L283.438 298.739V319.596L301.527 330.034L319.606 319.596Z" stroke="#F9F9F9" stroke-opacity="0.2" stroke-miterlimit="10"/>
<path d="M355.775 319.596V298.739L337.696 288.301L319.606 298.739V319.596L337.696 330.034L355.775 319.596Z" stroke="#F9F9F9" stroke-opacity="0.2" stroke-miterlimit="10"/>
<path d="M391.944 319.596V298.739L373.865 288.301L355.775 298.739V319.596L373.865 330.034L391.944 319.596Z" stroke="#F9F9F9" stroke-opacity="0.2" stroke-miterlimit="10"/>
<path d="M428.113 319.596V298.739L410.034 288.301L391.944 298.739V319.596L410.034 330.034L428.113 319.596Z" stroke="#F9F9F9" stroke-opacity="0.2" stroke-miterlimit="10"/>
<path d="M464.282 319.596V298.739L446.203 288.301L428.113 298.739V319.596L446.203 330.034L464.282 319.596Z" stroke="#F9F9F9" stroke-opacity="0.2" stroke-miterlimit="10"/>
<path d="M500.451 319.596V298.739L482.372 288.301L464.282 298.739V319.596L482.372 330.034L500.451 319.596Z" stroke="#F9F9F9" stroke-opacity="0.2" stroke-miterlimit="10"/>
<path d="M536.62 319.596V298.739L518.54 288.301L500.451 298.739V319.596L518.54 330.034L536.62 319.596Z" stroke="#F9F9F9" stroke-opacity="0.2" stroke-miterlimit="10"/>
<path d="M572.789 319.596V298.739L554.709 288.301L536.62 298.739V319.596L554.709 330.034L572.789 319.596Z" stroke="#F9F9F9" stroke-opacity="0.2" stroke-miterlimit="10"/>
<path d="M608.958 319.596V298.739L590.878 288.301L572.789 298.739V319.596L590.878 330.034L608.958 319.596Z" stroke="#F9F9F9" stroke-opacity="0.2" stroke-miterlimit="10"/>
<path d="M645.128 319.596V298.739L627.048 288.301L608.959 298.739V319.596L627.048 330.034L645.128 319.596Z" stroke="#F9F9F9" stroke-opacity="0.2" stroke-miterlimit="10"/>
<path d="M681.297 319.596V298.739L663.217 288.301L645.128 298.739V319.596L663.217 330.034L681.297 319.596Z" stroke="#F9F9F9" stroke-opacity="0.2" stroke-miterlimit="10"/>
<path d="M717.465 319.596V298.739L699.385 288.301L681.296 298.739V319.596L699.385 330.034L717.465 319.596Z" stroke="#F9F9F9" stroke-opacity="0.2" stroke-miterlimit="10"/>
<path d="M753.634 319.596V298.739L735.554 288.301L717.465 298.739V319.596L735.554 330.034L753.634 319.596Z" stroke="#F9F9F9" stroke-opacity="0.2" stroke-miterlimit="10"/>
<path d="M789.803 319.596V298.739L771.723 288.301L753.634 298.739V319.596L771.723 330.034L789.803 319.596Z" stroke="#F9F9F9" stroke-opacity="0.2" stroke-miterlimit="10"/>
<path d="M825.972 319.596V298.739L807.892 288.301L789.803 298.739V319.596L807.892 330.034L825.972 319.596Z" stroke="#F9F9F9" stroke-opacity="0.2" stroke-miterlimit="10"/>
<path d="M862.141 319.596V298.739L844.061 288.301L825.972 298.739V319.596L844.061 330.034L862.141 319.596Z" stroke="#F9F9F9" stroke-opacity="0.2" stroke-miterlimit="10"/>
<path d="M898.31 319.596V298.739L880.23 288.301L862.141 298.739V319.596L880.23 330.034L898.31 319.596Z" stroke="#F9F9F9" stroke-opacity="0.2" stroke-miterlimit="10"/>
<path d="M934.479 319.596V298.739L916.399 288.301L898.31 298.739V319.596L916.399 330.034L934.479 319.596Z" stroke="#F9F9F9" stroke-opacity="0.2" stroke-miterlimit="10"/>
<path d="M970.647 319.596V298.739L952.568 288.301L934.479 298.739V319.596L952.568 330.034L970.647 319.596Z" stroke="#F9F9F9" stroke-opacity="0.2" stroke-miterlimit="10"/>
<path d="M1006.82 319.596V298.739L988.737 288.301L970.647 298.739V319.596L988.737 330.034L1006.82 319.596Z" stroke="#F9F9F9" stroke-opacity="0.2" stroke-miterlimit="10"/>
<path d="M1042.99 319.596V298.739L1024.91 288.301L1006.82 298.739V319.596L1024.91 330.034L1042.99 319.596Z" stroke="#F9F9F9" stroke-opacity="0.2" stroke-miterlimit="10"/>
<path d="M1079.15 319.596V298.739L1061.07 288.301L1042.99 298.739V319.596L1061.07 330.034L1079.15 319.596Z" stroke="#F9F9F9" stroke-opacity="0.2" stroke-miterlimit="10"/>
<path d="M1115.32 319.596V298.739L1097.24 288.301L1079.16 298.739V319.596L1097.24 330.034L1115.32 319.596Z" stroke="#F9F9F9" stroke-opacity="0.2" stroke-miterlimit="10"/>
<path d="M1151.49 319.596V298.739L1133.41 288.301L1115.32 298.739V319.596L1133.41 330.034L1151.49 319.596Z" stroke="#F9F9F9" stroke-opacity="0.2" stroke-miterlimit="10"/>
<path d="M1187.66 319.596V298.739L1169.58 288.301L1151.49 298.739V319.596L1169.58 330.034L1187.66 319.596Z" stroke="#F9F9F9" stroke-opacity="0.2" stroke-miterlimit="10"/>
<path d="M1223.83 319.596V298.739L1205.75 288.301L1187.66 298.739V319.596L1205.75 330.034L1223.83 319.596Z" stroke="#F9F9F9" stroke-opacity="0.2" stroke-miterlimit="10"/>
<path d="M1260 319.596V298.739L1241.92 288.301L1223.83 298.739V319.596L1241.92 330.034L1260 319.596Z" stroke="#F9F9F9" stroke-opacity="0.2" stroke-miterlimit="10"/>
<path d="M48.3399 163.096L48.3399 142.239L30.2602 131.801L12.1709 142.239L12.1709 163.096L30.2602 173.534L48.3399 163.096Z" stroke="#F9F9F9" stroke-opacity="0.2" stroke-miterlimit="10"/>
<path d="M84.5088 163.096V142.239L66.4291 131.801L48.3398 142.239L48.3398 163.096L66.4291 173.534L84.5088 163.096Z" stroke="#F9F9F9" stroke-opacity="0.2" stroke-miterlimit="10"/>
<path d="M120.677 163.096V142.239L102.597 131.801L84.5078 142.239V163.096L102.597 173.534L120.677 163.096Z" stroke="#F9F9F9" stroke-opacity="0.2" stroke-miterlimit="10"/>
<path d="M156.846 163.096V142.239L138.766 131.801L120.677 142.239V163.096L138.766 173.534L156.846 163.096Z" stroke="#F9F9F9" stroke-opacity="0.2" stroke-miterlimit="10"/>
<path d="M193.015 163.096V142.239L174.935 131.801L156.846 142.239V163.096L174.935 173.534L193.015 163.096Z" stroke="#F9F9F9" stroke-opacity="0.2" stroke-miterlimit="10"/>
<path d="M229.184 163.096V142.239L211.104 131.801L193.015 142.239V163.096L211.104 173.534L229.184 163.096Z" stroke="#F9F9F9" stroke-opacity="0.2" stroke-miterlimit="10"/>
<path d="M265.353 163.096V142.239L247.273 131.801L229.184 142.239V163.096L247.273 173.534L265.353 163.096Z" stroke="#F9F9F9" stroke-opacity="0.2" stroke-miterlimit="10"/>
<path d="M301.522 163.096V142.239L283.443 131.801L265.354 142.239V163.096L283.443 173.534L301.522 163.096Z" stroke="#F9F9F9" stroke-opacity="0.2" stroke-miterlimit="10"/>
<path d="M337.691 163.096V142.239L319.612 131.801L301.522 142.239V163.096L319.612 173.534L337.691 163.096Z" stroke="#F9F9F9" stroke-opacity="0.2" stroke-miterlimit="10"/>
<path d="M373.86 163.096V142.239L355.781 131.801L337.691 142.239V163.096L355.781 173.534L373.86 163.096Z" stroke="#F9F9F9" stroke-opacity="0.2" stroke-miterlimit="10"/>
<path d="M410.029 163.096V142.239L391.95 131.801L373.86 142.239V163.096L391.95 173.534L410.029 163.096Z" stroke="#F9F9F9" stroke-opacity="0.2" stroke-miterlimit="10"/>
<path d="M446.198 163.096V142.239L428.119 131.801L410.029 142.239V163.096L428.119 173.534L446.198 163.096Z" stroke="#F9F9F9" stroke-opacity="0.2" stroke-miterlimit="10"/>
<path d="M482.367 163.096V142.239L464.288 131.801L446.198 142.239V163.096L464.288 173.534L482.367 163.096Z" stroke="#F9F9F9" stroke-opacity="0.2" stroke-miterlimit="10"/>
<path d="M518.536 163.096V142.239L500.456 131.801L482.367 142.239V163.096L500.456 173.534L518.536 163.096Z" stroke="#F9F9F9" stroke-opacity="0.2" stroke-miterlimit="10"/>
<path d="M554.705 163.096V142.239L536.625 131.801L518.536 142.239V163.096L536.625 173.534L554.705 163.096Z" stroke="#F9F9F9" stroke-opacity="0.2" stroke-miterlimit="10"/>
<path d="M590.874 163.096V142.239L572.794 131.801L554.705 142.239V163.096L572.794 173.534L590.874 163.096Z" stroke="#F9F9F9" stroke-opacity="0.2" stroke-miterlimit="10"/>
<path d="M627.043 163.096V142.239L608.963 131.801L590.874 142.239V163.096L608.963 173.534L627.043 163.096Z" stroke="#F9F9F9" stroke-opacity="0.2" stroke-miterlimit="10"/>
<path d="M663.212 163.096V142.239L645.132 131.801L627.043 142.239V163.096L645.132 173.534L663.212 163.096Z" stroke="#F9F9F9" stroke-opacity="0.2" stroke-miterlimit="10"/>
<path d="M699.381 163.096V142.239L681.301 131.801L663.212 142.239V163.096L681.301 173.534L699.381 163.096Z" stroke="#F9F9F9" stroke-opacity="0.2" stroke-miterlimit="10"/>
<path d="M735.549 163.096V142.239L717.469 131.801L699.38 142.239V163.096L717.469 173.534L735.549 163.096Z" stroke="#F9F9F9" stroke-opacity="0.2" stroke-miterlimit="10"/>
<path d="M771.718 163.096V142.239L753.638 131.801L735.549 142.239V163.096L753.638 173.534L771.718 163.096Z" stroke="#F9F9F9" stroke-opacity="0.2" stroke-miterlimit="10"/>
<path d="M807.887 163.096V142.239L789.807 131.801L771.718 142.239V163.096L789.807 173.534L807.887 163.096Z" stroke="#F9F9F9" stroke-opacity="0.2" stroke-miterlimit="10"/>
<path d="M844.056 163.096V142.239L825.976 131.801L807.887 142.239V163.096L825.976 173.534L844.056 163.096Z" stroke="#F9F9F9" stroke-opacity="0.2" stroke-miterlimit="10"/>
<path d="M880.225 163.096V142.239L862.145 131.801L844.056 142.239V163.096L862.145 173.534L880.225 163.096Z" stroke="#F9F9F9" stroke-opacity="0.2" stroke-miterlimit="10"/>
<path d="M916.394 163.096V142.239L898.314 131.801L880.225 142.239V163.096L898.314 173.534L916.394 163.096Z" stroke="#F9F9F9" stroke-opacity="0.2" stroke-miterlimit="10"/>
<path d="M952.563 163.096V142.239L934.483 131.801L916.394 142.239V163.096L934.483 173.534L952.563 163.096Z" stroke="#F9F9F9" stroke-opacity="0.2" stroke-miterlimit="10"/>
<path d="M988.731 163.096V142.239L970.652 131.801L952.562 142.239V163.096L970.652 173.534L988.731 163.096Z" stroke="#F9F9F9" stroke-opacity="0.2" stroke-miterlimit="10"/>
<path d="M1024.9 163.096V142.239L1006.82 131.801L988.732 142.239V163.096L1006.82 173.534L1024.9 163.096Z" stroke="#F9F9F9" stroke-opacity="0.2" stroke-miterlimit="10"/>
<path d="M1061.07 163.096V142.239L1042.99 131.801L1024.9 142.239V163.096L1042.99 173.534L1061.07 163.096Z" stroke="#F9F9F9" stroke-opacity="0.2" stroke-miterlimit="10"/>
<path d="M1097.24 163.096V142.239L1079.16 131.801L1061.07 142.239V163.096L1079.16 173.534L1097.24 163.096Z" stroke="#F9F9F9" stroke-opacity="0.2" stroke-miterlimit="10"/>
<path d="M1133.41 163.096V142.239L1115.33 131.801L1097.24 142.239V163.096L1115.33 173.534L1133.41 163.096Z" stroke="#F9F9F9" stroke-opacity="0.2" stroke-miterlimit="10"/>
<path d="M1169.58 163.096V142.239L1151.5 131.801L1133.41 142.239V163.096L1151.5 173.534L1169.58 163.096Z" stroke="#F9F9F9" stroke-opacity="0.2" stroke-miterlimit="10"/>
<path d="M1205.75 163.096V142.239L1187.67 131.801L1169.58 142.239V163.096L1187.67 173.534L1205.75 163.096Z" stroke="#F9F9F9" stroke-opacity="0.2" stroke-miterlimit="10"/>
<path d="M1241.92 163.096V142.239L1223.84 131.801L1205.75 142.239V163.096L1223.84 173.534L1241.92 163.096Z" stroke="#F9F9F9" stroke-opacity="0.2" stroke-miterlimit="10"/>
<path d="M66.4248 194.397V173.54L48.3451 163.102L30.2559 173.54L30.2559 194.397L48.3451 204.835L66.4248 194.397Z" stroke="#F9F9F9" stroke-opacity="0.2" stroke-miterlimit="10"/>
<path d="M102.594 194.397V173.54L84.5141 163.102L66.4248 173.54V194.397L84.5141 204.835L102.594 194.397Z" stroke="#F9F9F9" stroke-opacity="0.2" stroke-miterlimit="10"/>
<path d="M138.762 194.397V173.54L120.682 163.102L102.593 173.54V194.397L120.682 204.835L138.762 194.397Z" stroke="#F9F9F9" stroke-opacity="0.2" stroke-miterlimit="10"/>
<path d="M174.931 194.397V173.54L156.851 163.102L138.762 173.54V194.397L156.851 204.835L174.931 194.397Z" stroke="#F9F9F9" stroke-opacity="0.2" stroke-miterlimit="10"/>
<path d="M211.1 194.397V173.54L193.02 163.102L174.931 173.54V194.397L193.02 204.835L211.1 194.397Z" stroke="#F9F9F9" stroke-opacity="0.2" stroke-miterlimit="10"/>
<path d="M247.269 194.397V173.54L229.189 163.102L211.1 173.54V194.397L229.189 204.835L247.269 194.397Z" stroke="#F9F9F9" stroke-opacity="0.2" stroke-miterlimit="10"/>
<path d="M283.438 194.397V173.54L265.358 163.102L247.269 173.54V194.397L265.358 204.835L283.438 194.397Z" stroke="#F9F9F9" stroke-opacity="0.2" stroke-miterlimit="10"/>
<path d="M319.606 194.397V173.54L301.527 163.102L283.438 173.54V194.397L301.527 204.835L319.606 194.397Z" stroke="#F9F9F9" stroke-opacity="0.2" stroke-miterlimit="10"/>
<path d="M355.775 194.397V173.54L337.696 163.102L319.606 173.54V194.397L337.696 204.835L355.775 194.397Z" stroke="#F9F9F9" stroke-opacity="0.2" stroke-miterlimit="10"/>
<path d="M391.944 194.397V173.54L373.865 163.102L355.775 173.54V194.397L373.865 204.835L391.944 194.397Z" stroke="#F9F9F9" stroke-opacity="0.2" stroke-miterlimit="10"/>
<path d="M428.113 194.397V173.54L410.034 163.102L391.944 173.54V194.397L410.034 204.835L428.113 194.397Z" stroke="#F9F9F9" stroke-opacity="0.2" stroke-miterlimit="10"/>
<path d="M464.282 194.397V173.54L446.203 163.102L428.113 173.54V194.397L446.203 204.835L464.282 194.397Z" stroke="#F9F9F9" stroke-opacity="0.2" stroke-miterlimit="10"/>
<path d="M500.451 194.397V173.54L482.372 163.102L464.282 173.54V194.397L482.372 204.835L500.451 194.397Z" stroke="#F9F9F9" stroke-opacity="0.2" stroke-miterlimit="10"/>
<path d="M536.62 194.397V173.54L518.54 163.102L500.451 173.54V194.397L518.54 204.835L536.62 194.397Z" stroke="#F9F9F9" stroke-opacity="0.2" stroke-miterlimit="10"/>
<path d="M572.789 194.397V173.54L554.709 163.102L536.62 173.54V194.397L554.709 204.835L572.789 194.397Z" stroke="#F9F9F9" stroke-opacity="0.2" stroke-miterlimit="10"/>
<path d="M608.958 194.397V173.54L590.878 163.102L572.789 173.54V194.397L590.878 204.835L608.958 194.397Z" stroke="#F9F9F9" stroke-opacity="0.2" stroke-miterlimit="10"/>
<path d="M645.128 194.397V173.54L627.048 163.102L608.959 173.54V194.397L627.048 204.835L645.128 194.397Z" stroke="#F9F9F9" stroke-opacity="0.2" stroke-miterlimit="10"/>
<path d="M681.297 194.397V173.54L663.217 163.102L645.128 173.54V194.397L663.217 204.835L681.297 194.397Z" stroke="#F9F9F9" stroke-opacity="0.2" stroke-miterlimit="10"/>
<path d="M717.465 194.397V173.54L699.385 163.102L681.296 173.54V194.397L699.385 204.835L717.465 194.397Z" stroke="#F9F9F9" stroke-opacity="0.2" stroke-miterlimit="10"/>
<path d="M753.634 194.397V173.54L735.554 163.102L717.465 173.54V194.397L735.554 204.835L753.634 194.397Z" stroke="#F9F9F9" stroke-opacity="0.2" stroke-miterlimit="10"/>
<path d="M789.803 194.397V173.54L771.723 163.102L753.634 173.54V194.397L771.723 204.835L789.803 194.397Z" stroke="#F9F9F9" stroke-opacity="0.2" stroke-miterlimit="10"/>
<path d="M825.972 194.397V173.54L807.892 163.102L789.803 173.54V194.397L807.892 204.835L825.972 194.397Z" stroke="#F9F9F9" stroke-opacity="0.2" stroke-miterlimit="10"/>
<path d="M862.141 194.397V173.54L844.061 163.102L825.972 173.54V194.397L844.061 204.835L862.141 194.397Z" stroke="#F9F9F9" stroke-opacity="0.2" stroke-miterlimit="10"/>
<path d="M898.31 194.397V173.54L880.23 163.102L862.141 173.54V194.397L880.23 204.835L898.31 194.397Z" stroke="#F9F9F9" stroke-opacity="0.2" stroke-miterlimit="10"/>
<path d="M934.479 194.397V173.54L916.399 163.102L898.31 173.54V194.397L916.399 204.835L934.479 194.397Z" stroke="#F9F9F9" stroke-opacity="0.2" stroke-miterlimit="10"/>
<path d="M970.647 194.397V173.54L952.568 163.102L934.479 173.54V194.397L952.568 204.835L970.647 194.397Z" stroke="#F9F9F9" stroke-opacity="0.2" stroke-miterlimit="10"/>
<path d="M1006.82 194.397V173.54L988.737 163.102L970.647 173.54V194.397L988.737 204.835L1006.82 194.397Z" stroke="#F9F9F9" stroke-opacity="0.2" stroke-miterlimit="10"/>
<path d="M1042.99 194.397V173.54L1024.91 163.102L1006.82 173.54V194.397L1024.91 204.835L1042.99 194.397Z" stroke="#F9F9F9" stroke-opacity="0.2" stroke-miterlimit="10"/>
<path d="M1079.15 194.397V173.54L1061.07 163.102L1042.99 173.54V194.397L1061.07 204.835L1079.15 194.397Z" stroke="#F9F9F9" stroke-opacity="0.2" stroke-miterlimit="10"/>
<path d="M1115.32 194.397V173.54L1097.24 163.102L1079.16 173.54V194.397L1097.24 204.835L1115.32 194.397Z" stroke="#F9F9F9" stroke-opacity="0.2" stroke-miterlimit="10"/>
<path d="M1151.49 194.397V173.54L1133.41 163.102L1115.32 173.54V194.397L1133.41 204.835L1151.49 194.397Z" stroke="#F9F9F9" stroke-opacity="0.2" stroke-miterlimit="10"/>
<path d="M1187.66 194.397V173.54L1169.58 163.102L1151.49 173.54V194.397L1169.58 204.835L1187.66 194.397Z" stroke="#F9F9F9" stroke-opacity="0.2" stroke-miterlimit="10"/>
<path d="M1223.83 194.397V173.54L1205.75 163.102L1187.66 173.54V194.397L1205.75 204.835L1223.83 194.397Z" stroke="#F9F9F9" stroke-opacity="0.2" stroke-miterlimit="10"/>
<path d="M1260 194.397V173.54L1241.92 163.102L1223.83 173.54V194.397L1241.92 204.835L1260 194.397Z" stroke="#F9F9F9" stroke-opacity="0.2" stroke-miterlimit="10"/>
<path d="M48.3399 413.494L48.3399 392.637L30.2602 382.199L12.1709 392.637L12.1709 413.494L30.2602 423.933L48.3399 413.494Z" stroke="#F9F9F9" stroke-opacity="0.2" stroke-miterlimit="10"/>
<path d="M84.5088 413.494V392.637L66.4291 382.199L48.3398 392.637L48.3398 413.494L66.4291 423.933L84.5088 413.494Z" stroke="#F9F9F9" stroke-opacity="0.2" stroke-miterlimit="10"/>
<path d="M120.677 413.494V392.637L102.597 382.199L84.5078 392.637V413.494L102.597 423.933L120.677 413.494Z" stroke="#F9F9F9" stroke-opacity="0.2" stroke-miterlimit="10"/>
<path d="M156.846 413.494V392.637L138.766 382.199L120.677 392.637V413.494L138.766 423.933L156.846 413.494Z" stroke="#F9F9F9" stroke-opacity="0.2" stroke-miterlimit="10"/>
<path d="M193.015 413.494V392.637L174.935 382.199L156.846 392.637V413.494L174.935 423.933L193.015 413.494Z" stroke="#F9F9F9" stroke-opacity="0.2" stroke-miterlimit="10"/>
<path d="M229.184 413.494V392.637L211.104 382.199L193.015 392.637V413.494L211.104 423.933L229.184 413.494Z" stroke="#F9F9F9" stroke-opacity="0.2" stroke-miterlimit="10"/>
<path d="M265.353 413.494V392.637L247.273 382.199L229.184 392.637V413.494L247.273 423.933L265.353 413.494Z" stroke="#F9F9F9" stroke-opacity="0.2" stroke-miterlimit="10"/>
<path d="M301.522 413.494V392.637L283.443 382.199L265.354 392.637V413.494L283.443 423.933L301.522 413.494Z" stroke="#F9F9F9" stroke-opacity="0.2" stroke-miterlimit="10"/>
<path d="M337.691 413.494V392.637L319.612 382.199L301.522 392.637V413.494L319.612 423.933L337.691 413.494Z" stroke="#F9F9F9" stroke-opacity="0.2" stroke-miterlimit="10"/>
<path d="M373.86 413.494V392.637L355.781 382.199L337.691 392.637V413.494L355.781 423.933L373.86 413.494Z" stroke="#F9F9F9" stroke-opacity="0.2" stroke-miterlimit="10"/>
<path d="M410.029 413.494V392.637L391.95 382.199L373.86 392.637V413.494L391.95 423.933L410.029 413.494Z" stroke="#F9F9F9" stroke-opacity="0.2" stroke-miterlimit="10"/>
<path d="M446.198 413.494V392.637L428.119 382.199L410.029 392.637V413.494L428.119 423.933L446.198 413.494Z" stroke="#F9F9F9" stroke-opacity="0.2" stroke-miterlimit="10"/>
<path d="M482.367 413.494V392.637L464.288 382.199L446.198 392.637V413.494L464.288 423.933L482.367 413.494Z" stroke="#F9F9F9" stroke-opacity="0.2" stroke-miterlimit="10"/>
<path d="M518.536 413.494V392.637L500.456 382.199L482.367 392.637V413.494L500.456 423.933L518.536 413.494Z" stroke="#F9F9F9" stroke-opacity="0.2" stroke-miterlimit="10"/>
<path d="M554.705 413.494V392.637L536.625 382.199L518.536 392.637V413.494L536.625 423.933L554.705 413.494Z" stroke="#F9F9F9" stroke-opacity="0.2" stroke-miterlimit="10"/>
<path d="M590.874 413.494V392.637L572.794 382.199L554.705 392.637V413.494L572.794 423.933L590.874 413.494Z" stroke="#F9F9F9" stroke-opacity="0.2" stroke-miterlimit="10"/>
<path d="M627.043 413.494V392.637L608.963 382.199L590.874 392.637V413.494L608.963 423.933L627.043 413.494Z" stroke="#F9F9F9" stroke-opacity="0.2" stroke-miterlimit="10"/>
<path d="M663.212 413.494V392.637L645.132 382.199L627.043 392.637V413.494L645.132 423.933L663.212 413.494Z" stroke="#F9F9F9" stroke-opacity="0.2" stroke-miterlimit="10"/>
<path d="M699.381 413.494V392.637L681.301 382.199L663.212 392.637V413.494L681.301 423.933L699.381 413.494Z" stroke="#F9F9F9" stroke-opacity="0.2" stroke-miterlimit="10"/>
<path d="M735.549 413.494V392.637L717.469 382.199L699.38 392.637V413.494L717.469 423.933L735.549 413.494Z" stroke="#F9F9F9" stroke-opacity="0.2" stroke-miterlimit="10"/>
<path d="M771.718 413.494V392.637L753.638 382.199L735.549 392.637V413.494L753.638 423.933L771.718 413.494Z" stroke="#F9F9F9" stroke-opacity="0.2" stroke-miterlimit="10"/>
<path d="M807.887 413.494V392.637L789.807 382.199L771.718 392.637V413.494L789.807 423.933L807.887 413.494Z" stroke="#F9F9F9" stroke-opacity="0.2" stroke-miterlimit="10"/>
<path d="M844.056 413.494V392.637L825.976 382.199L807.887 392.637V413.494L825.976 423.933L844.056 413.494Z" stroke="#F9F9F9" stroke-opacity="0.2" stroke-miterlimit="10"/>
<path d="M880.225 413.494V392.637L862.145 382.199L844.056 392.637V413.494L862.145 423.933L880.225 413.494Z" stroke="#F9F9F9" stroke-opacity="0.2" stroke-miterlimit="10"/>
<path d="M916.394 413.494V392.637L898.314 382.199L880.225 392.637V413.494L898.314 423.933L916.394 413.494Z" stroke="#F9F9F9" stroke-opacity="0.2" stroke-miterlimit="10"/>
<path d="M952.563 413.494V392.637L934.483 382.199L916.394 392.637V413.494L934.483 423.933L952.563 413.494Z" stroke="#F9F9F9" stroke-opacity="0.2" stroke-miterlimit="10"/>
<path d="M988.731 413.494V392.637L970.652 382.199L952.562 392.637V413.494L970.652 423.933L988.731 413.494Z" stroke="#F9F9F9" stroke-opacity="0.2" stroke-miterlimit="10"/>
<path d="M1024.9 413.494V392.637L1006.82 382.199L988.732 392.637V413.494L1006.82 423.933L1024.9 413.494Z" stroke="#F9F9F9" stroke-opacity="0.2" stroke-miterlimit="10"/>
<path d="M1061.07 413.494V392.637L1042.99 382.199L1024.9 392.637V413.494L1042.99 423.933L1061.07 413.494Z" stroke="#F9F9F9" stroke-opacity="0.2" stroke-miterlimit="10"/>
<path d="M1097.24 413.494V392.637L1079.16 382.199L1061.07 392.637V413.494L1079.16 423.933L1097.24 413.494Z" stroke="#F9F9F9" stroke-opacity="0.2" stroke-miterlimit="10"/>
<path d="M1133.41 413.494V392.637L1115.33 382.199L1097.24 392.637V413.494L1115.33 423.933L1133.41 413.494Z" stroke="#F9F9F9" stroke-opacity="0.2" stroke-miterlimit="10"/>
<path d="M1169.58 413.494V392.637L1151.5 382.199L1133.41 392.637V413.494L1151.5 423.933L1169.58 413.494Z" stroke="#F9F9F9" stroke-opacity="0.2" stroke-miterlimit="10"/>
<path d="M1205.75 413.494V392.637L1187.67 382.199L1169.58 392.637V413.494L1187.67 423.933L1205.75 413.494Z" stroke="#F9F9F9" stroke-opacity="0.2" stroke-miterlimit="10"/>
<path d="M1241.92 413.494V392.637L1223.84 382.199L1205.75 392.637V413.494L1223.84 423.933L1241.92 413.494Z" stroke="#F9F9F9" stroke-opacity="0.2" stroke-miterlimit="10"/>
<path d="M12.1709 37.8968L12.1709 17.0397L-5.90877 6.60156L-23.998 17.0397L-23.998 37.8968L-5.90877 48.335L12.1709 37.8968Z" stroke="#F9F9F9" stroke-opacity="0.2" stroke-miterlimit="10"/>
<path d="M12.1709 100.494L12.1709 79.6374L-5.90877 69.1992L-23.998 79.6374L-23.998 100.494L-5.90877 110.933L12.1709 100.494Z" stroke="#F9F9F9" stroke-opacity="0.2" stroke-miterlimit="10"/>
<path d="M12.1709 163.096L12.1709 142.239L-5.90877 131.801L-23.998 142.239L-23.998 163.096L-5.90877 173.534L12.1709 163.096Z" stroke="#F9F9F9" stroke-opacity="0.2" stroke-miterlimit="10"/>
<path d="M12.1709 225.698L12.1709 204.84L-5.90877 194.402L-23.998 204.84L-23.998 225.698L-5.90877 236.136L12.1709 225.698Z" stroke="#F9F9F9" stroke-opacity="0.2" stroke-miterlimit="10"/>
<path d="M12.1709 288.295L12.1709 267.438L-5.90877 257L-23.998 267.438L-23.998 288.295L-5.90877 298.733L12.1709 288.295Z" stroke="#F9F9F9" stroke-opacity="0.2" stroke-miterlimit="10"/>
<path d="M12.1709 350.897L12.1709 330.04L-5.90877 319.602L-23.998 330.04L-23.998 350.897L-5.90877 361.335L12.1709 350.897Z" stroke="#F9F9F9" stroke-opacity="0.2" stroke-miterlimit="10"/>
<path d="M12.1709 413.494L12.1709 392.637L-5.90877 382.199L-23.998 392.637L-23.998 413.494L-5.90877 423.933L12.1709 413.494Z" stroke="#F9F9F9" stroke-opacity="0.2" stroke-miterlimit="10"/>
</g>
<defs>
<radialGradient id="paint0_radial_7998_138996" cx="0" cy="0" r="1" gradientUnits="userSpaceOnUse" gradientTransform="translate(618 200) rotate(90) scale(200 618)">
<stop stop-color="#C4C4C4"/>
<stop offset="1" stop-color="#C4C4C4" stop-opacity="0"/>
</radialGradient>
</defs>
</svg>
