<svg width="35" height="20" viewBox="0 0 35 20" fill="none" xmlns="http://www.w3.org/2000/svg">
<path d="M10 20C15.5228 20 20 15.5228 20 10C20 4.47715 15.5228 0 10 0C4.47715 0 0 4.47715 0 10C0 15.5228 4.47715 20 10 20Z" fill="#8247E5"/>
<g clip-path="url(#clip0_3885_27973)">
<path d="M13.1901 7.61005C12.9622 7.48319 12.6693 7.48319 12.4089 7.61005L10.5859 8.65669L9.34896 9.32274L7.55859 10.3694C7.33073 10.4962 7.03776 10.4962 6.77734 10.3694L5.3776 9.54475C5.14974 9.41789 4.98698 9.16416 4.98698 8.87871V7.29289C4.98698 7.03916 5.11719 6.78543 5.3776 6.62684L6.77734 5.83393C7.00521 5.70707 7.29818 5.70707 7.55859 5.83393L8.95833 6.65856C9.1862 6.78543 9.34896 7.03916 9.34896 7.3246V8.37125L10.5859 7.67349V6.59513C10.5859 6.3414 10.4557 6.08766 10.1953 5.92908L7.59115 4.43841C7.36328 4.31155 7.07031 4.31155 6.8099 4.43841L4.14062 5.9608C3.88021 6.08766 3.75 6.3414 3.75 6.59513V9.57647C3.75 9.8302 3.88021 10.0839 4.14062 10.2425L6.77734 11.7332C7.00521 11.8601 7.29818 11.8601 7.55859 11.7332L9.34896 10.7183L10.5859 10.0205L12.3763 9.00558C12.6042 8.87871 12.8971 8.87871 13.1576 9.00558L14.5573 9.79849C14.7852 9.92535 14.9479 10.1791 14.9479 10.4645V12.0504C14.9479 12.3041 14.8177 12.5578 14.5573 12.7164L13.1901 13.5093C12.9622 13.6362 12.6693 13.6362 12.4089 13.5093L11.0091 12.7164C10.7812 12.5895 10.6185 12.3358 10.6185 12.0504V11.0354L9.38151 11.7332V12.7798C9.38151 13.0336 9.51172 13.2873 9.77213 13.4459L12.4089 14.9365C12.6367 15.0634 12.9297 15.0634 13.1901 14.9365L15.8268 13.4459C16.0547 13.319 16.2174 13.0653 16.2174 12.7798V9.76677C16.2174 9.51304 16.0872 9.25931 15.8268 9.10072L13.1901 7.61005Z" fill="white"/>
</g>
<g clip-path="url(#clip1_3885_27973)">
<path d="M24.9844 19.9452C30.4683 19.9452 34.9139 15.4996 34.9139 10.0157C34.9139 4.53177 30.4683 0.0861816 24.9844 0.0861816C19.5005 0.0861816 15.0549 4.53177 15.0549 10.0157C15.0549 15.4996 19.5005 19.9452 24.9844 19.9452Z" fill="black"/>
<path d="M30.0461 14.1028L30.9831 13.5623V6.99731L30.0461 7.53931V14.1028Z" fill="url(#paint0_linear_3885_27973)"/>
<path d="M26.8838 15.9273L27.8208 15.3868V8.82178L26.8838 9.36378V15.9273Z" fill="url(#paint1_linear_3885_27973)"/>
<path d="M25.3032 16.8423L26.2397 16.3013V9.73682L25.3032 10.2783V16.8423Z" fill="url(#paint2_linear_3885_27973)"/>
<path d="M28.4644 15.0132L29.4014 14.4727V7.90771L28.4644 8.44972V15.0132Z" fill="url(#paint3_linear_3885_27973)"/>
<path d="M18.9909 12.4668L18.9854 13.5488L24.6544 16.8588L24.6589 15.7768L18.9909 12.4668Z" fill="url(#paint4_linear_3885_27973)"/>
<path d="M19.0099 8.81616L19.0044 9.89766L24.6734 13.2082L24.6779 12.1257L19.0099 8.81616Z" fill="url(#paint5_linear_3885_27973)"/>
<path d="M19.0172 6.98975L19.0112 8.07124L24.6807 11.3817L24.6852 10.2992L19.0172 6.98975Z" fill="url(#paint6_linear_3885_27973)"/>
<path d="M19.0023 10.6418L18.9968 11.7233L24.6658 15.0338L24.6703 13.9513L19.0023 10.6418Z" fill="url(#paint7_linear_3885_27973)"/>
<path d="M25.9224 3.71485L24.9864 3.17285L19.2969 6.44836L20.2339 6.98986L25.9224 3.71485Z" fill="url(#paint8_linear_3885_27973)"/>
<path d="M29.0813 5.54542L28.1453 5.00342L22.4558 8.27842L23.3928 8.82042L29.0813 5.54542Z" fill="url(#paint9_linear_3885_27973)"/>
<path d="M30.6629 6.45875L29.7269 5.91675L24.0374 9.19225L24.9744 9.73375L30.6629 6.45875Z" fill="url(#paint10_linear_3885_27973)"/>
<path d="M27.501 4.63184L26.565 4.08984L20.8755 7.36484L21.8125 7.90684L27.501 4.63184Z" fill="url(#paint11_linear_3885_27973)"/>
</g>
<defs>
<linearGradient id="paint0_linear_3885_27973" x1="29.8392" y1="7.62571" x2="31.3518" y2="14.1753" gradientUnits="userSpaceOnUse">
<stop stop-color="#FF6647"/>
<stop offset="1" stop-color="#FF6647" stop-opacity="0"/>
</linearGradient>
<linearGradient id="paint1_linear_3885_27973" x1="26.677" y1="9.45015" x2="28.1895" y2="15.9997" gradientUnits="userSpaceOnUse">
<stop stop-color="#FF6647"/>
<stop offset="1" stop-color="#FF6647" stop-opacity="0"/>
</linearGradient>
<linearGradient id="paint2_linear_3885_27973" x1="25.0961" y1="10.365" x2="26.6087" y2="16.9146" gradientUnits="userSpaceOnUse">
<stop stop-color="#FF6647"/>
<stop offset="1" stop-color="#FF6647" stop-opacity="0"/>
</linearGradient>
<linearGradient id="paint3_linear_3885_27973" x1="28.2574" y1="8.53595" x2="29.77" y2="15.0855" gradientUnits="userSpaceOnUse">
<stop stop-color="#FF6647"/>
<stop offset="1" stop-color="#FF6647" stop-opacity="0"/>
</linearGradient>
<linearGradient id="paint4_linear_3885_27973" x1="24.675" y1="15.5622" x2="18.2561" y2="13.5661" gradientUnits="userSpaceOnUse">
<stop stop-color="#FF6647"/>
<stop offset="1" stop-color="#FF6647" stop-opacity="0"/>
</linearGradient>
<linearGradient id="paint5_linear_3885_27973" x1="24.6939" y1="11.9111" x2="18.275" y2="9.91504" gradientUnits="userSpaceOnUse">
<stop stop-color="#FF6647"/>
<stop offset="1" stop-color="#FF6647" stop-opacity="0"/>
</linearGradient>
<linearGradient id="paint6_linear_3885_27973" x1="24.7007" y1="10.0848" x2="18.2819" y2="8.08871" gradientUnits="userSpaceOnUse">
<stop stop-color="#FF6647"/>
<stop offset="1" stop-color="#FF6647" stop-opacity="0"/>
</linearGradient>
<linearGradient id="paint7_linear_3885_27973" x1="24.6864" y1="13.737" x2="18.2676" y2="11.741" gradientUnits="userSpaceOnUse">
<stop stop-color="#FF6647"/>
<stop offset="1" stop-color="#FF6647" stop-opacity="0"/>
</linearGradient>
<linearGradient id="paint8_linear_3885_27973" x1="20.4089" y1="7.13886" x2="25.3301" y2="2.56048" gradientUnits="userSpaceOnUse">
<stop stop-color="#FF6647"/>
<stop offset="1" stop-color="#FF6647" stop-opacity="0"/>
</linearGradient>
<linearGradient id="paint9_linear_3885_27973" x1="23.5677" y1="8.96922" x2="28.4889" y2="4.39084" gradientUnits="userSpaceOnUse">
<stop stop-color="#FF6647"/>
<stop offset="1" stop-color="#FF6647" stop-opacity="0"/>
</linearGradient>
<linearGradient id="paint10_linear_3885_27973" x1="25.1491" y1="9.88258" x2="30.0703" y2="5.30419" gradientUnits="userSpaceOnUse">
<stop stop-color="#FF6647"/>
<stop offset="1" stop-color="#FF6647" stop-opacity="0"/>
</linearGradient>
<linearGradient id="paint11_linear_3885_27973" x1="21.9872" y1="8.05566" x2="26.9084" y2="3.47727" gradientUnits="userSpaceOnUse">
<stop stop-color="#FF6647"/>
<stop offset="1" stop-color="#FF6647" stop-opacity="0"/>
</linearGradient>
<clipPath id="clip0_3885_27973">
<rect width="12.5" height="10.625" fill="white" transform="translate(3.75 4.375)"/>
</clipPath>
<clipPath id="clip1_3885_27973">
<rect width="20" height="20" fill="white" transform="translate(15 0.000244141)"/>
</clipPath>
</defs>
</svg>
