<svg width="16" height="20" viewBox="0 0 16 20" fill="none" xmlns="http://www.w3.org/2000/svg">
<g clip-path="url(#clip0_8441_166296)">
<path d="M9.5589 2.44967L11.0493 3.3062L11.7516 2.08993L9.81586 0.97644L9.5589 2.44967Z" fill="#F9F9FA"/>
<path d="M7.07495 2.14133L8.00001 1.61028L8.90793 2.14133L9.18202 0.685225L8.00001 0L6.81799 0.685225L7.07495 2.14133Z" fill="#F9F9FA"/>
<path d="M4.24838 2.08993L4.95074 3.3062L6.4411 2.44967L6.18414 0.97644L4.24838 2.08993Z" fill="#F9F9FA"/>
<path d="M8.87367 17.4047L8.00001 17.9186L7.12634 17.4047L6.86938 18.8779L8.00001 19.5289L9.13063 18.8779L8.87367 17.4047Z" fill="#F9F9FA"/>
<path d="M14.5953 10.4668V13.4989L9.52463 16.4283L9.78159 17.9015L12.2484 16.4796L16 14.3212V5.07065L12.3512 2.98071L11.6488 4.17986L14.5953 5.89292V10.4668Z" fill="#F9F9FA"/>
<path d="M0 14.3212L3.75161 16.4796L6.21842 17.9015L6.47537 16.4283L1.40471 13.4989V5.89292L4.35118 4.17986L3.64882 2.98071L0 5.07065V10.4668V14.3212Z" fill="#F9F9FA"/>
<path d="M11.5461 8.0857V11.3748L12.9508 12.1799V7.26343L11.5461 8.0857Z" fill="#F9F9FA"/>
<path d="M4.45397 11.3748V8.0857L3.04926 7.26343V12.1799L4.45397 11.3748Z" fill="#F9F9FA"/>
<path d="M6.20129 8.68519V10.758L8.00001 11.803L9.79872 10.758V8.68519L8.00001 7.65735L6.20129 8.68519Z" fill="#F9F9FA"/>
</g>
<defs>
<clipPath id="clip0_8441_166296">
<rect width="16" height="19.5289" fill="white"/>
</clipPath>
</defs>
</svg>
