<svg width="80" height="80" viewBox="0 0 80 80" fill="none" xmlns="http://www.w3.org/2000/svg">
    <path d="M39.9377 79.7802C61.8734 79.7802 79.6557 61.9979 79.6557 40.0622C79.6557 18.1266 61.8734 0.344238 39.9377 0.344238C18.0021 0.344238 0.219727 18.1266 0.219727 40.0622C0.219727 61.9979 18.0021 79.7802 39.9377 79.7802Z" fill="black"/>
    <path d="M60.186 56.4098L63.934 54.2478V27.9878L60.186 30.1558V56.4098Z" fill="url(#paint0_linear_3885_32556)"/>
    <path d="M47.5361 63.7079L51.2841 61.5459V35.2859L47.5361 37.4539V63.7079Z" fill="url(#paint1_linear_3885_32556)"/>
    <path d="M41.2141 67.3678L44.9601 65.2038V38.9458L41.2141 41.1118V67.3678Z" fill="url(#paint2_linear_3885_32556)"/>
    <path d="M53.8582 60.0519L57.6062 57.8899V31.6299L53.8582 33.7979V60.0519Z" fill="url(#paint3_linear_3885_32556)"/>
    <path d="M15.9639 49.866L15.9419 54.194L38.6179 67.4339L38.6359 63.1059L15.9639 49.866Z" fill="url(#paint4_linear_3885_32556)"/>
    <path d="M16.0401 35.2639L16.0181 39.5899L38.6941 52.8319L38.7121 48.5019L16.0401 35.2639Z" fill="url(#paint5_linear_3885_32556)"/>
    <path d="M16.0699 27.958L16.0459 32.284L38.7239 45.526L38.7419 41.196L16.0699 27.958Z" fill="url(#paint6_linear_3885_32556)"/>
    <path d="M16.0098 42.5659L15.9878 46.8919L38.6638 60.1339L38.6818 55.8039L16.0098 42.5659Z" fill="url(#paint7_linear_3885_32556)"/>
    <path d="M43.6895 14.8579L39.9455 12.6899L17.1875 25.792L20.9355 27.958L43.6895 14.8579Z" fill="url(#paint8_linear_3885_32556)"/>
    <path d="M56.3255 22.18L52.5815 20.012L29.8235 33.112L33.5715 35.28L56.3255 22.18Z" fill="url(#paint9_linear_3885_32556)"/>
    <path d="M62.6514 25.834L58.9074 23.666L36.1494 36.768L39.8974 38.934L62.6514 25.834Z" fill="url(#paint10_linear_3885_32556)"/>
    <path d="M50.0035 18.5259L46.2595 16.3579L23.5015 29.4579L27.2495 31.6259L50.0035 18.5259Z" fill="url(#paint11_linear_3885_32556)"/>
    <defs>
        <linearGradient id="paint0_linear_3885_32556" x1="59.3583" y1="30.5014" x2="65.4086" y2="56.6997" gradientUnits="userSpaceOnUse">
            <stop stop-color="#FF6647"/>
            <stop offset="1" stop-color="#FF6647" stop-opacity="0"/>
        </linearGradient>
        <linearGradient id="paint1_linear_3885_32556" x1="46.7088" y1="37.7994" x2="52.7591" y2="63.9977" gradientUnits="userSpaceOnUse">
            <stop stop-color="#FF6647"/>
            <stop offset="1" stop-color="#FF6647" stop-opacity="0"/>
        </linearGradient>
        <linearGradient id="paint2_linear_3885_32556" x1="40.3856" y1="41.4584" x2="46.4359" y2="67.6568" gradientUnits="userSpaceOnUse">
            <stop stop-color="#FF6647"/>
            <stop offset="1" stop-color="#FF6647" stop-opacity="0"/>
        </linearGradient>
        <linearGradient id="paint3_linear_3885_32556" x1="53.0303" y1="34.1428" x2="59.0806" y2="60.3412" gradientUnits="userSpaceOnUse">
            <stop stop-color="#FF6647"/>
            <stop offset="1" stop-color="#FF6647" stop-opacity="0"/>
        </linearGradient>
        <linearGradient id="paint4_linear_3885_32556" x1="38.7004" y1="62.2474" x2="13.0249" y2="54.2632" gradientUnits="userSpaceOnUse">
            <stop stop-color="#FF6647"/>
            <stop offset="1" stop-color="#FF6647" stop-opacity="0"/>
        </linearGradient>
        <linearGradient id="paint5_linear_3885_32556" x1="38.776" y1="47.6436" x2="13.1004" y2="39.6594" gradientUnits="userSpaceOnUse">
            <stop stop-color="#FF6647"/>
            <stop offset="1" stop-color="#FF6647" stop-opacity="0"/>
        </linearGradient>
        <linearGradient id="paint6_linear_3885_32556" x1="38.8039" y1="40.3381" x2="13.1284" y2="32.3539" gradientUnits="userSpaceOnUse">
            <stop stop-color="#FF6647"/>
            <stop offset="1" stop-color="#FF6647" stop-opacity="0"/>
        </linearGradient>
        <linearGradient id="paint7_linear_3885_32556" x1="38.7462" y1="54.9465" x2="13.0707" y2="46.9623" gradientUnits="userSpaceOnUse">
            <stop stop-color="#FF6647"/>
            <stop offset="1" stop-color="#FF6647" stop-opacity="0"/>
        </linearGradient>
        <linearGradient id="paint8_linear_3885_32556" x1="21.6356" y1="28.554" x2="41.3206" y2="10.2405" gradientUnits="userSpaceOnUse">
            <stop stop-color="#FF6647"/>
            <stop offset="1" stop-color="#FF6647" stop-opacity="0"/>
        </linearGradient>
        <linearGradient id="paint9_linear_3885_32556" x1="34.2709" y1="35.8752" x2="53.9558" y2="17.5616" gradientUnits="userSpaceOnUse">
            <stop stop-color="#FF6647"/>
            <stop offset="1" stop-color="#FF6647" stop-opacity="0"/>
        </linearGradient>
        <linearGradient id="paint10_linear_3885_32556" x1="40.5963" y1="39.5293" x2="60.2813" y2="21.2158" gradientUnits="userSpaceOnUse">
            <stop stop-color="#FF6647"/>
            <stop offset="1" stop-color="#FF6647" stop-opacity="0"/>
        </linearGradient>
        <linearGradient id="paint11_linear_3885_32556" x1="27.9482" y1="32.2212" x2="47.6333" y2="13.9076" gradientUnits="userSpaceOnUse">
            <stop stop-color="#FF6647"/>
            <stop offset="1" stop-color="#FF6647" stop-opacity="0"/>
        </linearGradient>
    </defs>
</svg>
