<svg width="16" height="20" viewBox="0 0 16 20" fill="none" xmlns="http://www.w3.org/2000/svg">
<g clip-path="url(#clip0_8441_166309)">
<path d="M3.94004 3.68312L5.36188 2.86085L4.88222 1.52466L3.01498 2.60389L3.94004 3.68312Z" fill="#F9F9FA"/>
<path d="M8.34261 1.61028L10.0214 2.58672L10.5011 1.25054L8.34261 0V1.61028Z" fill="#F9F9FA"/>
<path d="M5.97859 2.58672L7.65739 1.61028V0L5.49893 1.25054L5.97859 2.58672Z" fill="#F9F9FA"/>
<path d="M10.6381 2.86085L12.06 3.68312L12.985 2.60389L11.1178 1.52466L10.6381 2.86085Z" fill="#F9F9FA"/>
<path d="M8.87367 17.1991L8.00001 17.713L7.12634 17.1991L6.86938 18.6723L8.00001 19.3233L9.13063 18.6723L8.87367 17.1991Z" fill="#F9F9FA"/>
<path d="M14.5953 10.2612V13.3105L9.52463 16.2398L9.78159 17.6959L13.4647 15.5717L16 14.1156V10.2612V4.88221L13.6017 3.49463L12.6767 4.57386L14.5953 5.68735V10.2612Z" fill="#F9F9FA"/>
<path d="M2.53533 15.5717L6.21842 17.6959L6.47537 16.2398L1.40471 13.3105V10.2612V5.68735L3.32334 4.57386L2.39829 3.49463L0 4.88221V10.2612V14.1156L2.53533 15.5717Z" fill="#F9F9FA"/>
<path d="M11.2034 11.7516L8.34261 13.3961V15.0064L12.6081 12.5567L11.2034 11.7516Z" fill="#F9F9FA"/>
<path d="M7.65739 15.0064V13.3961L4.79657 11.7516L3.39186 12.5567L7.65739 15.0064Z" fill="#F9F9FA"/>
<path d="M4.79657 7.24619L7.65739 5.60165V3.97424L3.39186 6.44105L4.79657 7.24619Z" fill="#F9F9FA"/>
<path d="M8.34261 5.60165L11.2034 7.24619L12.6081 6.44105L8.34261 3.97424V5.60165Z" fill="#F9F9FA"/>
<path d="M6.20128 8.46257V10.5354L7.99999 11.5632L9.79871 10.5354V8.46257L7.99999 7.4176L6.20128 8.46257Z" fill="#F9F9FA"/>
</g>
<defs>
<clipPath id="clip0_8441_166309">
<rect width="16" height="19.3233" fill="white"/>
</clipPath>
</defs>
</svg>
