<svg preserveAspectRatio="xMinYMin meet" viewBox="0 0 25 28" fill="none" xmlns="http://www.w3.org/2000/svg">
<g clip-path="url(#clip0_6625_211053)">
<path d="M23.0889 22.3633L24.9994 21.2518V7.83398L23.0889 8.94552V22.3633Z" fill="url(#paint0_linear_6625_211053)"/>
<path d="M16.7031 26.0947L18.5875 24.9832V11.5654L16.7031 12.677V26.0947Z" fill="url(#paint1_linear_6625_211053)"/>
<path d="M13.5098 27.9736L15.3941 26.8621V13.4443L13.5098 14.5294V27.9736Z" fill="url(#paint2_linear_6625_211053)"/>
<path d="M19.8955 24.2423L21.7799 23.1308V9.68652L19.8955 10.7981V24.2423Z" fill="url(#paint3_linear_6625_211053)"/>
<path d="M0.711914 19.0283V21.2249L12.1752 28L12.2014 25.8034L0.711914 19.0283Z" fill="url(#paint4_linear_6625_211053)"/>
<path d="M0.764453 11.5391L0.738281 13.7621L12.2278 20.5372V18.3141L0.764453 11.5391Z" fill="url(#paint5_linear_6625_211053)"/>
<path d="M0.764648 7.80762V10.0307L12.228 16.8057L12.2541 14.5827L0.764648 7.80762Z" fill="url(#paint6_linear_6625_211053)"/>
<path d="M0.738281 15.2969V17.4935L12.2016 24.2685L12.2278 22.0455L0.738281 15.2969Z" fill="url(#paint7_linear_6625_211053)"/>
<path d="M14.7399 1.11153L12.8555 0L1.33984 6.69565L3.2504 7.80718L14.7399 1.11153Z" fill="url(#paint8_linear_6625_211053)"/>
<path d="M21.1518 4.84288L19.2412 3.75781L7.72559 10.4535L9.63614 11.565L21.1518 4.84288Z" fill="url(#paint9_linear_6625_211053)"/>
<path d="M24.3453 6.72188L22.461 5.61035L10.9453 12.306L12.8297 13.4175L24.3453 6.72188Z" fill="url(#paint10_linear_6625_211053)"/>
<path d="M17.9332 2.99044L16.0489 1.87891L4.5332 8.57456L6.44376 9.68609L17.9332 2.99044Z" fill="url(#paint11_linear_6625_211053)"/>
</g>
<defs>
<linearGradient id="paint0_linear_6625_211053" x1="22.678" y1="9.11304" x2="25.8044" y2="22.501" gradientUnits="userSpaceOnUse">
<stop stop-color="#FF6647"/>
<stop offset="1" stop-color="#FF6647" stop-opacity="0"/>
</linearGradient>
<linearGradient id="paint1_linear_6625_211053" x1="16.2782" y1="12.8466" x2="19.4047" y2="26.2346" gradientUnits="userSpaceOnUse">
<stop stop-color="#FF6647"/>
<stop offset="1" stop-color="#FF6647" stop-opacity="0"/>
</linearGradient>
<linearGradient id="paint2_linear_6625_211053" x1="13.0787" y1="14.7185" x2="16.2052" y2="28.1065" gradientUnits="userSpaceOnUse">
<stop stop-color="#FF6647"/>
<stop offset="1" stop-color="#FF6647" stop-opacity="0"/>
</linearGradient>
<linearGradient id="paint3_linear_6625_211053" x1="19.4759" y1="10.976" x2="22.6024" y2="24.364" gradientUnits="userSpaceOnUse">
<stop stop-color="#FF6647"/>
<stop offset="1" stop-color="#FF6647" stop-opacity="0"/>
</linearGradient>
<linearGradient id="paint4_linear_6625_211053" x1="12.2199" y1="25.4173" x2="-0.795609" y2="21.4147" gradientUnits="userSpaceOnUse">
<stop stop-color="#FF6647"/>
<stop offset="1" stop-color="#FF6647" stop-opacity="0"/>
</linearGradient>
<linearGradient id="paint5_linear_6625_211053" x1="12.2583" y1="17.9463" x2="-0.75726" y2="13.9437" gradientUnits="userSpaceOnUse">
<stop stop-color="#FF6647"/>
<stop offset="1" stop-color="#FF6647" stop-opacity="0"/>
</linearGradient>
<linearGradient id="paint6_linear_6625_211053" x1="12.2728" y1="14.2088" x2="-0.742756" y2="10.2063" gradientUnits="userSpaceOnUse">
<stop stop-color="#FF6647"/>
<stop offset="1" stop-color="#FF6647" stop-opacity="0"/>
</linearGradient>
<linearGradient id="paint7_linear_6625_211053" x1="12.2434" y1="21.6823" x2="-0.772145" y2="17.6797" gradientUnits="userSpaceOnUse">
<stop stop-color="#FF6647"/>
<stop offset="1" stop-color="#FF6647" stop-opacity="0"/>
</linearGradient>
<linearGradient id="paint8_linear_6625_211053" x1="3.6273" y1="8.15421" x2="13.6896" y2="-1.10329" gradientUnits="userSpaceOnUse">
<stop stop-color="#FF6647"/>
<stop offset="1" stop-color="#FF6647" stop-opacity="0"/>
</linearGradient>
<linearGradient id="paint9_linear_6625_211053" x1="10.0198" y1="11.8996" x2="20.082" y2="2.64201" gradientUnits="userSpaceOnUse">
<stop stop-color="#FF6647"/>
<stop offset="1" stop-color="#FF6647" stop-opacity="0"/>
</linearGradient>
<linearGradient id="paint10_linear_6625_211053" x1="13.2208" y1="13.7691" x2="23.283" y2="4.51149" gradientUnits="userSpaceOnUse">
<stop stop-color="#FF6647"/>
<stop offset="1" stop-color="#FF6647" stop-opacity="0"/>
</linearGradient>
<linearGradient id="paint11_linear_6625_211053" x1="6.82158" y1="10.0304" x2="16.8838" y2="0.772751" gradientUnits="userSpaceOnUse">
<stop stop-color="#FF6647"/>
<stop offset="1" stop-color="#FF6647" stop-opacity="0"/>
</linearGradient>
<clipPath id="clip0_6625_211053">
<rect width="24.2876" height="28" fill="white" transform="translate(0.711914)"/>
</clipPath>
</defs>
</svg>
