<svg width="65" height="38" viewBox="0 0 65 38" fill="none" xmlns="http://www.w3.org/2000/svg">
<g clip-path="url(#clip0_5705_351742)">
<path d="M64.3233 15.137H54.7552C58.3486 11.1218 60.5377 5.81453 60.5377 0H52.9719C52.9719 6.91443 48.3373 12.745 42.0049 14.555C43.7295 14.8594 45.4167 15.3612 47.0452 16.05C49.859 17.2407 52.3899 18.9439 54.563 21.117C55.0702 21.6243 55.5561 22.1582 56.0099 22.7028H64.3233V15.137V15.137Z" fill="#00A0F0"/>
<path d="M60.5427 37.8395C60.5427 25.3028 50.3766 15.1367 37.8398 15.1367V22.7025C46.2012 22.7025 52.9768 29.4782 52.9768 37.8395H60.5427Z" fill="#00A0F0"/>
<path d="M0 37.839V30.2305H5.29128V31.4051H1.37755V33.3433H4.98693V34.518H1.37755V36.6537H5.50485V37.839H0Z" fill="#00A0F0"/>
<path d="M8.86876 37.8186C8.59112 37.8934 8.24406 37.9361 7.92904 37.9361C7.40045 37.9361 7.04271 37.8079 6.82914 37.5463C6.60489 37.29 6.5248 36.9109 6.5248 36.4144V33.4831H5.68652V32.4686H6.54616V30.7227H7.79556V32.4686H8.84207V33.4831H7.79556V36.1688C7.79556 36.7187 7.95574 36.9109 8.34551 36.9109C8.49501 36.9109 8.69257 36.8789 8.86342 36.8148V37.8186H8.86876Z" fill="#00A0F0"/>
<path d="M14.171 36.4903C13.7705 37.4621 12.9536 38.0014 11.8324 38.0014C10.1078 38.0014 9.17871 36.8801 9.17871 35.1021C9.17871 33.3241 10.2145 32.3203 11.7736 32.3203C13.4769 32.3203 14.187 33.559 14.1977 35.4759H10.4495C10.4922 36.4049 10.9994 36.9335 11.8484 36.9335C12.3983 36.9335 12.8628 36.7199 13.0551 36.1059L14.1656 36.4957L14.171 36.4903ZM12.9216 34.5735C12.8789 33.7352 12.4357 33.3027 11.7469 33.3027C11.0582 33.3027 10.5509 33.7352 10.4655 34.5735H12.9216V34.5735Z" fill="#00A0F0"/>
<path d="M14.918 37.8397V32.4737H16.1247V33.3013C16.4504 32.7193 16.8668 32.4043 17.6143 32.4043C17.7852 32.4043 17.9187 32.4257 18.0789 32.4684V33.7391C17.876 33.6323 17.7104 33.5896 17.4755 33.5896C17.0537 33.5896 16.7013 33.7712 16.461 34.1182C16.2795 34.3852 16.1834 34.7643 16.1834 35.3356V37.8344H14.9233L14.918 37.8397Z" fill="#00A0F0"/>
<path d="M22.0305 37.84V34.7592C22.0305 34.3374 21.9878 34.0277 21.8383 33.8088C21.6995 33.6059 21.4592 33.5045 21.1175 33.5045C20.7758 33.5045 20.418 33.686 20.1991 33.9797C19.9322 34.3374 19.8841 34.7325 19.8841 35.2504V37.8347H18.624V32.4686H19.8734V33.2642C20.2632 32.7142 20.8986 32.3672 21.6514 32.3672C22.2975 32.3672 22.7193 32.5914 22.9863 33.0026C23.1998 33.3283 23.2906 33.7447 23.2906 34.4709V37.8347H22.0305V37.84Z" fill="#00A0F0"/>
<path d="M27.3211 34.194C27.3211 33.8897 27.2571 33.6868 27.1182 33.548C26.9687 33.3985 26.7071 33.3237 26.3761 33.3237C25.7193 33.3237 25.4257 33.6601 25.3616 34.2528L24.1549 34.146C24.2403 32.982 25.1053 32.3359 26.4722 32.3359C27.2037 32.3359 27.7216 32.5068 28.0793 32.8539C28.4157 33.1689 28.5332 33.6067 28.5332 34.4503V36.4205C28.5332 37.0559 28.5759 37.5845 28.6827 37.8408H27.4653C27.4226 37.6699 27.3585 37.3335 27.3585 37.1734C26.9474 37.6699 26.3654 37.9369 25.6019 37.9369C24.6194 37.9369 23.9307 37.3229 23.9307 36.3618C23.9307 35.673 24.2777 35.2192 24.9131 34.9308C25.4417 34.6959 26.4775 34.5411 27.3265 34.4877V34.194H27.3211ZM27.3211 35.326C26.7071 35.358 25.9863 35.4648 25.6072 35.6517C25.2708 35.8012 25.1427 36.0094 25.1427 36.3084C25.1427 36.6982 25.399 36.9865 25.9596 36.9865C26.4455 36.9865 26.8459 36.7836 27.0809 36.4259C27.2517 36.1803 27.3051 35.8759 27.3158 35.5769V35.3313L27.3211 35.326Z" fill="#00A0F0"/>
<path d="M29.5747 37.841V30.2324H30.9415V36.6556H34.5296V37.841H29.5693H29.5747Z" fill="#00A0F0"/>
<path d="M38.3475 34.194C38.3475 33.8897 38.2834 33.6868 38.1446 33.548C37.9951 33.3985 37.7335 33.3237 37.4024 33.3237C36.7457 33.3237 36.452 33.6601 36.388 34.2528L35.1813 34.146C35.2667 32.982 36.1317 32.3359 37.4986 32.3359C38.23 32.3359 38.748 32.5068 39.1057 32.8539C39.4421 33.1689 39.5595 33.6067 39.5595 34.4503V36.4205C39.5595 37.0559 39.6022 37.5845 39.709 37.8408H38.4917C38.4489 37.6699 38.3849 37.3335 38.3849 37.1734C37.9737 37.6699 37.3918 37.9369 36.6282 37.9369C35.6458 37.9369 34.957 37.3229 34.957 36.3618C34.957 35.673 35.3041 35.2192 35.9395 34.9308C36.4681 34.6959 37.5039 34.5411 38.3528 34.4877V34.194H38.3475ZM38.3475 35.326C37.7335 35.358 37.0127 35.4648 36.6336 35.6517C36.2972 35.8012 36.1691 36.0094 36.1691 36.3084C36.1691 36.6982 36.4253 36.9865 36.986 36.9865C37.4719 36.9865 37.8723 36.7836 38.1072 36.4259C38.2781 36.1803 38.3315 35.8759 38.3422 35.5769V35.3313L38.3475 35.326Z" fill="#00A0F0"/>
<path d="M41.6517 30.2266V33.1899C42.0094 32.7254 42.57 32.3623 43.3336 32.3623C44.5937 32.3623 45.4052 33.4088 45.4052 35.1548C45.4052 36.9007 44.5189 37.9472 43.1947 37.9472C42.4633 37.9472 41.9667 37.6696 41.5983 37.141V37.8404H40.3916V30.2319H41.6517V30.2266ZM42.8797 36.89C43.6219 36.89 44.0864 36.2974 44.0864 35.1548C44.0864 34.0762 43.6433 33.4195 42.9224 33.4195C42.1589 33.4195 41.6196 34.0655 41.6196 35.0907C41.6196 36.2333 42.0842 36.89 42.8797 36.89Z" fill="#00A0F0"/>
</g>
<defs>
<clipPath id="clip0_5705_351742">
<rect width="64.3229" height="38" fill="white"/>
</clipPath>
</defs>
</svg>
