<svg width="72" height="24" viewBox="0 0 72 24" fill="none" xmlns="http://www.w3.org/2000/svg">
<g clip-path="url(#clip0_5705_351677)">
<path d="M5.31535 14.8789H0V16.5576H5.31535V14.8789Z" fill="white"/>
<path d="M5.31535 12.3984H0V14.0771H5.31535V12.3984Z" fill="white"/>
<path d="M19.1292 21.5185V19.8398H0.111328C0.228742 20.4555 0.435009 21.0203 0.717437 21.5185H19.1292Z" fill="white"/>
<path d="M5.31535 18.3412V17.3574H0V18.6141C0 18.7569 0.00634669 18.8965 0.0126934 19.0361H5.5121C5.38199 18.8679 5.31218 18.6395 5.31218 18.338L5.31535 18.3412Z" fill="white"/>
<path d="M19.1317 9.91992H8.74219V11.5986H19.1317V9.91992Z" fill="white"/>
<path d="M17.8312 1.6787C16.8824 0.615629 15.4671 0 13.7471 0H5.34728C3.64637 0 2.23741 0.615629 1.29492 1.6787H17.8312Z" fill="white"/>
<path d="M13.8169 5.65785V6.64159H19.1322V5.38495C19.1322 5.24214 19.1259 5.10252 19.1195 4.96289H13.6201C13.7502 5.13108 13.82 5.36273 13.82 5.66103L13.8169 5.65785Z" fill="white"/>
<path d="M13.8171 17.3574V18.3412C13.8171 18.6395 13.7473 18.8711 13.6172 19.0393H19.1293V17.3606H13.8139L13.8171 17.3574Z" fill="white"/>
<path d="M0.720366 2.47852C0.434765 2.97673 0.228498 3.54159 0.114258 4.15721H19.0179C18.9004 3.54159 18.6942 2.97673 18.4086 2.47852H0.720366Z" fill="white"/>
<path d="M1.29492 22.3184C2.23741 23.3814 3.64637 23.9971 5.35046 23.9971H10.3199C12.0145 23.9971 13.4488 23.3846 14.3786 22.3184H1.29492Z" fill="white"/>
<path d="M14.5117 22.3184L15.2225 24.0002H19.1289V22.3184H14.5117Z" fill="white"/>
<path d="M5.31535 6.6389V5.65517C5.31535 5.35687 5.38516 5.12522 5.51527 4.95703H0.0126934C0.00317334 5.09666 0 5.23629 0 5.37909V6.63573H5.31535V6.6389Z" fill="white"/>
<path d="M19.1317 12.3984H8.74219V14.0771H19.1317V12.3984Z" fill="white"/>
<path d="M5.31535 7.4375H0V9.1162H5.31535V7.4375Z" fill="white"/>
<path d="M19.1318 14.8789H13.8164V16.5576H19.1318V14.8789Z" fill="white"/>
<path d="M5.31535 9.91992H0V11.5986H5.31535V9.91992Z" fill="white"/>
<path d="M22.3622 4.16039H27.6935L27.338 2.47852H21.9561L22.3622 4.16039Z" fill="white"/>
<path d="M33.4621 2.47852L33.0908 4.16039H40.0595L39.6945 2.47852H33.4621Z" fill="white"/>
<path d="M32.9172 4.95898L32.5459 6.63768H40.603L40.2349 4.95898H32.9172Z" fill="white"/>
<path d="M28.7467 9.11937L28.3881 7.4375H23.1553L23.5615 9.11937H28.7467Z" fill="white"/>
<path d="M29.2736 11.5986L28.915 9.91992H23.752L24.1581 11.5986H29.2736Z" fill="white"/>
<path d="M28.2201 6.63768L27.8615 4.95898H22.5557L22.9619 6.63768H28.2201Z" fill="white"/>
<path d="M32.3674 7.4375L31.9961 9.11937H41.1448L40.7767 7.4375H32.3674Z" fill="white"/>
<path d="M31.8215 9.91992L31.4502 11.5986H36.042L36.4355 9.91992H31.8215Z" fill="white"/>
<path d="M35.4654 14.0803L35.8589 12.3984H31.2734L30.9053 14.0803H35.4654Z" fill="white"/>
<path d="M29.8002 14.0803L29.4416 12.3984H24.3516L24.7578 14.0803H29.8002Z" fill="white"/>
<path d="M51.2272 1.6787L51.6302 0H46.353L45.9912 1.6787H51.2272Z" fill="white"/>
<path d="M42.405 14.8789H37.6895L38.0861 16.5576H42.77L42.405 14.8789Z" fill="white"/>
<path d="M36.5215 9.91992L36.915 11.5986H41.6877L41.3196 9.91992H36.5215Z" fill="white"/>
<path d="M34.887 16.5576L35.2773 14.8789H30.7267L30.3555 16.5576H34.887Z" fill="white"/>
<path d="M37.1055 12.3984L37.5021 14.0803H42.2304L41.8623 12.3984H37.1055Z" fill="white"/>
<path d="M45.8195 2.47852L45.4609 4.16039H50.6271L51.0333 2.47852H45.8195Z" fill="white"/>
<path d="M45.2895 4.95898L44.9277 6.63768H50.0273L50.4335 4.95898H45.2895Z" fill="white"/>
<path d="M39.5208 1.6787L39.1527 0H34.0087L33.6406 1.6787H39.5208Z" fill="white"/>
<path d="M27.1666 1.6787L26.8112 0H21.3594L21.7656 1.6787H27.1666Z" fill="white"/>
<path d="M39.4414 22.3184L39.8381 24.0002H45.8389L46.2419 22.3184H39.4414Z" fill="white"/>
<path d="M26.748 22.3184L27.1542 24.0002H33.1519L33.5453 22.3184H26.748Z" fill="white"/>
<path d="M44.7563 7.4375L44.3945 9.11937H49.4306L49.8336 7.4375H44.7563Z" fill="white"/>
<path d="M34.3095 19.0393L34.6998 17.3574H25.5479L25.954 19.0393H34.3095Z" fill="white"/>
<path d="M44.2228 9.91992L43.8643 11.5986H48.8305L49.2367 9.91992H44.2228Z" fill="white"/>
<path d="M46.8416 19.8398H38.8574L39.2541 21.5185H46.4354L46.8416 19.8398Z" fill="white"/>
<path d="M30.3268 16.5576L29.9682 14.8789H24.9512L25.3574 16.5576H30.3268Z" fill="white"/>
<path d="M33.7296 21.5185L34.1231 19.8398H26.1484L26.5546 21.5185H33.7296Z" fill="white"/>
<path d="M43.6938 12.3984L43.332 14.0803H48.2317L48.6379 12.3984H43.6938Z" fill="white"/>
<path d="M43.1603 14.8789L42.8018 16.5576H47.6348L48.0378 14.8789H43.1603Z" fill="white"/>
<path d="M38.2734 17.3574L38.6701 19.0393H47.035L47.4412 17.3574H38.2734Z" fill="white"/>
<path d="M53.7785 11.5986H70.8765C70.264 10.8053 69.4167 10.2246 68.3949 9.91992H53.2549C53.3469 10.5324 53.5278 11.0972 53.7817 11.5986H53.7785Z" fill="white"/>
<path d="M66.6501 17.3574V18.3412C66.6501 18.6395 66.5803 18.8711 66.4502 19.0393H71.9496C71.9591 18.8997 71.9623 18.76 71.9623 18.6172V17.3606H66.6469L66.6501 17.3574Z" fill="white"/>
<path d="M66.6501 15.3232V16.5576H71.9655V15.0503C71.9655 14.9931 71.9655 14.936 71.9623 14.8789H66.5898C66.6311 15.0058 66.6533 15.155 66.6533 15.3263L66.6501 15.3232Z" fill="white"/>
<path d="M70.6645 1.6787C69.7157 0.615629 68.3004 0 66.5804 0H58.5233C56.8224 0 55.4134 0.615629 54.4678 1.6787H70.6645Z" fill="white"/>
<path d="M66.6499 5.65785V6.64159H71.9652V5.38495C71.9652 5.24214 71.9589 5.10252 71.9525 4.96289H66.4531C66.5832 5.13108 66.653 5.36273 66.653 5.66103L66.6499 5.65785Z" fill="white"/>
<path d="M58.4882 18.3412V17.3574H53.1729V18.6141C53.1729 18.7569 53.1792 18.8965 53.1855 19.0361H58.6849C58.5548 18.8679 58.485 18.6395 58.485 18.338L58.4882 18.3412Z" fill="white"/>
<path d="M58.488 6.6389V5.65517C58.488 5.35687 58.5578 5.12522 58.6879 4.95703H53.1885C53.179 5.09666 53.1758 5.23629 53.1758 5.37909V6.63573H58.4911L58.488 6.6389Z" fill="white"/>
<path d="M54.4736 22.3184C55.4225 23.3814 56.8378 23.9971 58.5577 23.9971H66.6148C68.3158 23.9971 69.7247 23.3814 70.6704 22.3184H54.4736Z" fill="white"/>
<path d="M71.2421 21.5185C71.5277 21.0203 71.734 20.4555 71.8482 19.8398H53.2842C53.4016 20.4555 53.6079 21.0203 53.8935 21.5185H71.239H71.2421Z" fill="white"/>
<path d="M53.8961 2.47852C53.6105 2.97673 53.4043 3.54159 53.29 4.15721H71.8509C71.7335 3.54159 71.5272 2.97673 71.2416 2.47852H53.8961Z" fill="white"/>
<path d="M54.2903 12.3984C54.9218 13.2045 55.8008 13.7852 56.8607 14.0771H71.8928C71.804 13.4647 71.6294 12.903 71.3756 12.3984H54.2871H54.2903Z" fill="white"/>
<path d="M58.4882 7.4375H53.1729V8.9131C53.1729 8.98292 53.1729 9.04956 53.176 9.11937H58.5644C58.5136 8.98292 58.485 8.82425 58.485 8.6402V7.44067L58.4882 7.4375Z" fill="white"/>
</g>
<defs>
<clipPath id="clip0_5705_351677">
<rect width="71.9619" height="24" fill="white"/>
</clipPath>
</defs>
</svg>
