<svg width="159" height="32" viewBox="0 0 159 32" fill="none" xmlns="http://www.w3.org/2000/svg">
<g clip-path="url(#clip0_438_7651)">
<path d="M23.1819 14.586H8.1084L10.381 10.6783H11.861L15.9573 3.63605H14.4773L16.5885 0H23.9815L21.8702 3.63605H20.4323L16.3501 10.6574H21.4073L22.8031 8.25424H26.8573L23.1749 14.586H23.1819Z" fill="#FF1E6E"/>
<path d="M41.4956 12.1828C40.7171 13.5202 38.9846 14.586 37.6098 14.586H27.4883C26.1135 14.586 25.6436 13.5202 26.4222 12.1828L33.5065 0H40.2822L38.1569 3.65694H36.3332L32.2369 10.6992H37.3783L41.4746 3.65694H39.672L41.7972 0H48.5729L41.4886 12.1828H41.4956Z" fill="#FF1E6E"/>
<path d="M56.5974 7.81541H61.5494L59.0103 12.1828C58.2317 13.5202 56.4992 14.586 55.1455 14.586H44.7715C43.3967 14.586 42.9268 13.5202 43.7054 12.1828L49.3939 2.40313C50.1724 1.06574 51.8839 0 53.2587 0H63.6327C64.9864 0 65.4774 1.06574 64.6988 2.40313L62.4613 6.24815H57.5093L59.0173 3.65694H53.6164L49.5201 10.6992H54.921L56.5974 7.81541Z" fill="#FF1E6E"/>
<path d="M66.8868 11.953L65.3577 14.586H59.6973L61.9558 10.6992H62.9448L67.0411 3.65694H66.0521L68.1774 0H73.8378L72.2947 2.6539L80.5364 0.0208968H84.4994L80.6697 6.60339H76.6365L77.5343 5.05703L70.5763 7.29299L74.9391 9.52895L75.8369 7.98259H79.87L76.0333 14.586H72.0492L66.8938 11.953H66.8868Z" fill="#FF1E6E"/>
<path d="M102.568 0L100.443 3.65694H98.1912L91.7452 9.31998L90.9526 10.6783H92.7553L90.4827 14.586H81.6729L83.9454 10.6783H85.7481L86.5126 9.36178L86.6319 3.65694H84.212L86.3373 0H91.633L91.647 4.95255L97.3986 0H102.568V0Z" fill="#FF1E6E"/>
<path d="M114.99 7.81541H119.942L117.403 12.1828C116.624 13.5202 114.892 14.586 113.538 14.586H103.164C101.789 14.586 101.319 13.5202 102.098 12.1828L107.786 2.40313C108.565 1.06574 110.276 0 111.651 0H122.025C123.379 0 123.87 1.06574 123.091 2.40313L120.854 6.24815H115.902L117.41 3.65694H112.009L107.913 10.6992H113.314L114.99 7.81541Z" fill="#FF1E6E"/>
<path d="M128.205 14.586L130.464 10.6992H125.385L123.127 14.586H118.133L124.158 4.22116L129.194 2.04789L130.387 0H137.871L136.692 2.02699L139.21 4.22116L133.185 14.586H128.212H128.205ZM132.835 6.62429L131.186 5.03613L127.77 6.60339L127.139 7.69003H132.217L132.835 6.62429Z" fill="#FF1E6E"/>
<path d="M158.857 0L155.02 6.60339H150.987L152.713 3.63605H151.275L147.171 10.6992H148.609L146.351 14.586H138.656L140.915 10.6992H142.374L146.477 3.63605H145.13L143.405 6.60339H139.372L143.208 0H158.857Z" fill="#FF1E6E"/>
<path d="M6.46707 17.4141H21.5546L19.4293 21.071H4.34178L6.46707 17.4141ZM0 32L2.25857 28.1132H9.16052L11.0754 26.3997H1.24151L3.35278 22.7636H18.4473L16.336 26.3997L13.0253 29.6178C11.8119 30.788 10.2477 32 8.12242 32H0Z" fill="#FF1E6E"/>
<path d="M17.1709 28.1129H20.3833L19.9344 28.8861H21.6038L25.9105 27.1934L29.9086 20.3184H33.7874L28.625 29.1995L21.2321 31.9997H14.9053L17.1638 28.1129H17.1709ZM18.2019 26.3366L21.702 20.3184H24.5778L21.0778 26.3366H18.2019ZM25.4336 20.3184H28.3094L24.8093 26.3366H21.9335L25.4336 20.3184Z" fill="#FF1E6E"/>
<path d="M41.2998 32H34.3769L36.6354 28.1132H38.5222V27.0057H31.7676L33.6754 23.7249H39.2938L39.2657 22.5547H34.3558L36.3338 19.1485H40.0443L40.0022 17.4141H44.6947L44.7368 19.1485H51.4283L49.4503 22.5547H44.1967L44.2458 23.7249H48.77L46.8621 27.0057H43.5584V28.1132L41.2998 32Z" fill="#FF1E6E"/>
<path d="M66.3192 23.0771L64.0326 27.0058H48.917L51.2036 23.0771H66.3192Z" fill="#FF1E6E"/>
<path d="M75.627 32H68.704L70.9626 28.1132H72.8494V27.0057H66.0947L68.0026 23.7249H73.6209L73.5929 22.5547H68.683L70.661 19.1485H74.3715L74.3294 17.4141H79.0219L79.0639 19.1485H85.7555L83.7775 22.5547H78.5238L78.5729 23.7249H83.0971L81.1892 27.0057H77.8856V28.1132L75.627 32Z" fill="#FF1E6E"/>
<path d="M84.7807 32.0003H80.8809L85.1595 24.6446H84.3879L86.0784 21.7399H86.8499L87.6636 20.3398H91.5635L90.7498 21.7399H98.1217L96.4313 24.6446L91.7599 28.8449H87.5794L92.2719 24.6446H89.0594L84.7807 32.0003Z" fill="#FF1E6E"/>
<path d="M96.1787 28.1129H99.3912L98.9423 28.8861H100.612L104.918 27.1934L108.916 20.3184H112.795L107.633 29.1995L100.24 31.9997H93.9131L96.1717 28.1129H96.1787ZM97.2097 26.3366L100.71 20.3184H103.586L100.086 26.3366H97.2097ZM104.441 20.3184H107.317L103.817 26.3366H100.941L104.441 20.3184Z" fill="#FF1E6E"/>
<path d="M123.968 23.8294H125.792L123.302 28.1132H121.478L116.21 26.1489L112.809 32H108.004L116.484 17.4141H121.289L118.729 21.8233L123.975 23.8294H123.968Z" fill="#FF1E6E"/>
</g>
<defs>
<clipPath id="clip0_438_7651">
<rect width="158.857" height="32" fill="white"/>
</clipPath>
</defs>
</svg>
