<svg width="50" height="38" viewBox="0 0 50 38" fill="none" xmlns="http://www.w3.org/2000/svg">
<g clip-path="url(#clip0_5705_351675)">
<path d="M0 0V38H49.1789V0H0ZM35.7667 2.23641H36.8834L37.7224 4.33087L38.5615 2.23641H39.6781V5.02797H39.1198V2.23641L38.0032 5.03113H37.4448L36.3282 2.23641V5.02797H35.7699V2.23641H35.7667ZM32.4137 2.23641H35.2084V2.79472H34.0918V5.03113H33.5335V2.79472H32.4169V2.23641H32.4137ZM46.9425 35.7667H20.1182V30.1773C20.1182 29.5622 19.6198 29.0607 19.0016 29.0607H13.4121V15.6485L2.23641 2.23641H10.0591L16.7652 10.0591L23.4712 2.23641H31.2939L20.1182 15.6485V27.9441C20.1182 28.5623 20.6197 29.0607 21.2348 29.0607H46.9425V35.7667Z" fill="#5FBE87"/>
</g>
<defs>
<clipPath id="clip0_5705_351675">
<rect width="49.1789" height="38" fill="white"/>
</clipPath>
</defs>
</svg>
