<svg width="65" height="64" viewBox="0 0 65 64" fill="none" xmlns="http://www.w3.org/2000/svg">
<path d="M60.5447 31.8804C60.58 43.209 53.8393 53.4435 43.393 57.8197C32.9467 62.1959 20.9123 59.8666 12.8658 51.8907C4.81936 43.9148 2.38424 31.8804 6.65452 21.3988C10.9248 10.9172 21.1241 4.07066 32.4174 4.00007C47.9103 3.96478 60.4741 16.4227 60.5447 31.8804Z" fill="#8DC63F"/>
<path d="M58.4636 31.8803C58.4989 42.3619 52.2523 51.8201 42.5824 55.8786C32.9125 59.9371 21.7957 57.749 14.3491 50.4084C6.90262 43.0325 4.64396 31.9156 8.59661 22.2457C12.5493 12.5406 21.9721 6.22337 32.4184 6.15279C46.7468 6.08221 58.393 17.5873 58.4636 31.8803Z" fill="#F9E988"/>
<path d="M33.0508 7.81154C34.7095 7.52921 36.3682 7.52921 38.0269 7.81154C39.6856 8.05858 41.309 8.62325 42.7913 9.39966C44.2735 10.2114 45.544 11.3054 46.8145 12.3289C48.085 13.3523 49.3555 14.4111 50.5554 15.5757C51.7906 16.705 52.8493 18.0108 53.7316 19.4225C54.6492 20.8341 55.3903 22.3517 55.955 23.9045C57.049 27.0807 57.402 30.504 56.8726 33.7508H56.6961C56.1667 30.504 55.4256 27.4336 54.261 24.5044C53.7316 23.0222 53.0611 21.5752 52.3553 20.1989C51.5789 18.8225 50.7671 17.4461 49.8496 16.1756C48.932 14.8699 47.7674 13.7052 46.4616 12.7524C45.1558 11.7995 43.6382 11.1995 42.1913 10.6349C40.7443 10.0702 39.2621 9.47025 37.7446 9.01146C36.227 8.58796 34.6742 8.23504 33.0508 7.91742V7.81154Z" fill="white"/>
<path d="M45.6855 22.7399C43.8151 22.2106 41.874 21.4342 39.8977 20.6577C39.7918 20.1637 39.333 19.5637 38.4508 18.7873C37.1803 17.658 34.7451 17.6933 32.6629 18.1873C30.369 17.658 28.075 17.4462 25.887 17.9756C7.99415 22.9164 18.1228 34.9155 11.5586 47.0205C12.4762 48.9969 22.5696 60.5725 37.145 57.4668C37.145 57.4668 32.1689 45.503 43.4269 39.7505C52.5674 35.092 59.1316 26.4103 45.6855 22.7399Z" fill="#8BC53F"/>
<path d="M32.6641 18.1873C33.9699 18.2932 38.6989 19.8107 39.8988 20.6577C38.8754 17.7285 35.4874 17.3403 32.6641 18.1873Z" fill="#009345"/>
<path d="M47.9113 30.6098C47.9113 31.5627 46.7467 32.0568 46.0761 31.3863C45.4056 30.7157 45.8644 29.5511 46.8172 29.5158C47.4172 29.5511 47.9113 30.0099 47.9113 30.6098ZM33.9005 25.6337C33.9005 27.6454 32.6653 29.4805 30.7949 30.2569C28.9244 31.0333 26.7716 30.6098 25.3247 29.1629C23.8777 27.7159 23.4542 25.5632 24.2306 23.6927C25.0071 21.8222 26.8422 20.587 28.8538 20.587C30.1949 20.587 31.4654 21.1164 32.383 22.034C33.3712 23.0222 33.9005 24.2927 33.9005 25.6337Z" fill="white"/>
<path d="M32.4165 25.6691C32.4165 27.0808 31.5695 28.3866 30.2284 28.9159C28.9226 29.4453 27.4051 29.163 26.3816 28.1395C25.3581 27.1161 25.0758 25.6338 25.6052 24.2927C26.1346 22.987 27.4403 22.1047 28.852 22.1047C30.8283 22.14 32.4165 23.7281 32.4165 25.6691Z" fill="#58595B"/>
<path d="M51.9685 32.8332C47.91 35.6918 43.2868 37.8446 36.7578 37.8446C33.6875 37.8446 33.0875 34.5978 31.0406 36.1859C29.9819 36.9976 26.3115 38.8328 23.3823 38.7269C20.4531 38.5857 15.7241 36.8565 14.4183 30.6451C13.8889 36.8917 13.6419 41.4797 11.2773 46.7381C15.9358 54.2199 27.0527 59.9724 37.1461 57.502C36.052 49.9143 42.6868 42.5031 46.3924 38.7269C47.8394 37.2447 50.5568 34.9154 51.9685 32.8332Z" fill="#8BC53F"/>
<path d="M51.7911 33.0097C50.5206 34.1743 49.0384 35.0213 47.5209 35.7624C45.968 36.5036 44.3799 37.0682 42.7212 37.527C41.0625 37.9505 39.3332 38.2681 37.6039 38.127C35.8394 37.9858 34.0748 37.3859 32.9102 36.0801L32.9807 36.0095C34.3924 36.9271 36.0511 37.2447 37.6745 37.3153C39.3332 37.3506 40.9919 37.2447 42.6153 36.9271C44.2387 36.5742 45.8622 36.0801 47.415 35.4448C48.9678 34.8096 50.4854 34.0685 51.8264 33.0097H51.7911Z" fill="#58595B"/>
</svg>
