<svg width="38" height="37" viewBox="0 0 38 37" fill="none" xmlns="http://www.w3.org/2000/svg">
<path fill-rule="evenodd" clip-rule="evenodd" d="M15.7229 4.18232C13.823 5.17332 12.2616 6.01004 12.2676 6.04564C12.2676 6.13466 16.8331 8.44304 16.9934 8.4371C17.0646 8.4371 17.5989 8.18787 18.1808 7.89116L19.2375 7.35116L20.3893 7.94457L21.5411 8.53799L23.429 7.6894C26.2669 6.41356 26.5637 6.27114 26.5162 6.2296C26.4569 6.16433 25.4357 5.61839 22.6691 4.16452C21.3333 3.46429 20.039 2.77 19.7897 2.63351C19.5403 2.49109 19.3029 2.38428 19.2613 2.38428C19.2197 2.38428 17.6227 3.19132 15.7229 4.18232ZM7.38146 8.50238L5.39852 9.52305V14.0093C5.39852 16.4779 5.42226 18.4955 5.45788 18.4955C5.48757 18.4955 6.46123 18.0742 7.62487 17.5579L9.73249 16.6203V11.8908L10.7596 12.4486C11.5551 12.8818 12.3447 13.309 13.1403 13.7422L14.4939 14.4721L15.0936 14.1992C15.4735 14.0271 15.8475 13.855 16.2216 13.6829C16.5125 13.5464 17.2249 13.226 17.8067 12.9708C18.3886 12.7156 18.9229 12.4545 19.0001 12.3952C19.101 12.318 17.8661 11.6356 14.4346 9.87317C11.846 8.54392 9.64343 7.46391 9.54251 7.46984C9.44158 7.47577 8.46792 7.93863 7.38146 8.50238ZM26.8665 8.78722C25.5188 9.39843 24.4146 9.92064 24.4146 9.95031C24.4146 9.97998 25.1508 10.4191 26.0472 10.9235C26.9496 11.4279 27.6799 11.867 27.6799 11.9026C27.6799 11.9382 26.8843 12.324 25.9107 12.7572C24.937 13.1963 22.4791 14.306 20.4427 15.2258L13.6331 18.3056C11.9173 19.077 10.3737 19.7773 10.2015 19.8544C6.70464 21.4388 5.73692 21.8779 5.60631 21.9551C5.4757 22.0322 5.44601 22.4714 5.42226 24.6848L5.39258 27.3255L7.16179 28.2275L8.931 29.1295L11.3889 28.0198C12.7366 27.4086 13.8468 26.8804 13.8468 26.8389C13.8468 26.7973 13.5974 26.6371 13.2947 26.4769C12.9919 26.3167 12.3626 25.9606 11.8935 25.6877C11.4305 25.4147 10.9674 25.1655 10.8664 25.1299C10.7655 25.0942 10.6824 25.0408 10.6824 24.9993C10.6824 24.9637 11.7629 24.4474 13.0869 23.8599C15.6516 22.7147 17.6108 21.8305 21.8201 19.9256C23.7021 19.077 25.5841 18.2225 27.4721 17.3739C29.1285 16.6262 31.0521 15.7539 31.7467 15.4335L33.0113 14.8519L33.041 12.1815L33.0706 9.51118L31.2777 8.59733C30.2921 8.09292 29.4432 7.67753 29.4016 7.67753C29.3541 7.67753 28.2142 8.18193 26.8665 8.78722ZM32.5363 18.4243C32.2692 18.5548 31.7467 18.7981 31.3727 18.9643C30.9986 19.1304 30.2862 19.4509 29.7934 19.6764L28.897 20.0858L28.8792 22.4298C28.8673 23.7175 28.8198 24.7679 28.7723 24.7619C28.6654 24.7441 26.9853 23.8837 25.2932 22.9758C24.0702 22.323 23.993 22.2933 23.7081 22.4357C23.5418 22.5188 22.5504 22.9639 21.5055 23.4208C20.4606 23.8837 19.57 24.2872 19.5285 24.3287C19.4869 24.3643 21.5886 25.5037 24.2068 26.8626L28.9563 29.3312L30.9868 28.2809C32.1029 27.7053 33.0528 27.1771 33.0944 27.1119C33.1953 26.9635 33.1834 18.1691 33.0885 18.181C33.0469 18.1869 32.7975 18.2937 32.5363 18.4243ZM21.2917 28.7437C20.9415 28.8921 20.5852 29.0464 20.235 29.2007C19.1722 29.6576 19.38 29.6754 18.1155 29.0464C17.2724 28.6251 16.9103 28.5004 16.75 28.5598C16.6312 28.6073 15.616 29.0642 14.488 29.5745C13.3659 30.0849 12.4041 30.5062 12.3566 30.5062C11.8817 30.5062 12.6713 30.975 15.6991 32.5001L19.2494 34.2922L20.7455 33.5563C21.5648 33.1528 23.2272 32.3398 24.4264 31.7524C25.6316 31.1649 26.5994 30.6723 26.5816 30.6486C26.5637 30.6308 25.5545 30.1145 24.3374 29.4974L22.1288 28.3818L21.2917 28.7437Z" fill="#05A3C9"/>
</svg>
