<svg width="56" height="56" viewBox="0 0 56 56" fill="none" xmlns="http://www.w3.org/2000/svg">
<circle cx="28" cy="28" r="28" fill="black"/>
<path d="M46.3871 32.482L38.1701 18.2287C36.3687 15.258 31.9758 15.2264 30.2376 18.3551L21.6098 33.1772C19.998 35.8951 21.989 39.3083 25.2126 39.3083H42.4998C45.755 39.3083 48.1885 35.8003 46.3871 32.482Z" fill="#3156AA"/>
<path d="M34.5359 33.5884L34.0303 32.7035C33.5562 31.8818 32.5133 30.112 32.5133 30.112L25.5605 18.0394C23.7591 15.3531 19.4926 15.1319 17.6912 18.5135L9.6007 32.5139C7.92571 35.453 9.91674 39.277 13.5512 39.3087H30.7435H38.0755H42.4369C37.9807 39.3403 36.5586 37.0331 34.5359 33.5884Z" fill="#1972E2"/>
<path d="M34.536 33.5879L34.0304 32.7031C33.5564 31.8814 32.5134 30.1115 32.5134 30.1115L28.0257 22.2106L21.5786 33.2087C19.9669 35.9266 21.9578 39.3398 25.1815 39.3398H30.712H38.0441H42.437C37.9493 39.3082 36.5587 37.0327 34.536 33.5879Z" fill="url(#paint0_linear_2545_1269)"/>
<defs>
<linearGradient id="paint0_linear_2545_1269" x1="19.2841" y1="28.2115" x2="39.257" y2="35.5923" gradientUnits="userSpaceOnUse">
<stop stop-color="#264CA2" stop-opacity="0"/>
<stop offset="1" stop-color="#234588"/>
</linearGradient>
</defs>
</svg>
