<svg width="27" height="23" viewBox="0 0 27 23" fill="none" xmlns="http://www.w3.org/2000/svg">
<g clip-path="url(#clip0_1287_5111)">
<path d="M25.5947 0.398438C25.5035 0.398438 25.4037 0.41609 25.3081 0.451394L0.646239 9.97467C-0.0485848 10.2439 -0.0312141 11.25 0.672295 11.4927L6.39156 13.4565L9.83962 20.4688C9.83962 20.4688 9.83962 20.4688 9.83962 20.4732L9.84831 20.4909C9.9091 20.6188 10.0394 20.7027 10.1783 20.7027C10.2609 20.7027 10.3434 20.6762 10.4172 20.6144L13.6481 17.8298L10.0394 15.0496L10.3217 18.7036L7.72909 13.2491L21.5127 4.83792L10.0394 15.054L18.9679 21.9427C19.2675 22.1722 19.6106 22.2781 19.945 22.2781C20.6528 22.2781 21.3346 21.8059 21.5257 21.0248L26.3634 1.4046C26.4937 0.875042 26.0855 0.398438 25.5947 0.398438Z" fill="#00AFE5"/>
</g>
<defs>
<clipPath id="clip0_1287_5111">
<rect width="26.2556" height="21.8797" fill="white" transform="translate(0.134766 0.398438)"/>
</clipPath>
</defs>
</svg>
