<svg width="39" height="44" viewBox="0 0 39 44" fill="none" xmlns="http://www.w3.org/2000/svg">
<g clip-path="url(#clip0_1287_5203)">
<path d="M15.7757 10.01C15.303 9.94246 15.2805 9.91995 15.5056 9.89744C15.9333 9.82991 16.9238 9.91995 17.6216 10.0775C19.2424 10.4602 20.7057 11.4507 22.2589 13.1841L22.6641 13.6568L23.2494 13.5668C25.7482 13.1616 28.3145 13.4767 30.453 14.4672C31.0383 14.7374 31.9613 15.2776 32.0738 15.4127C32.1189 15.4577 32.1864 15.7504 32.2314 16.043C32.389 17.101 32.3215 17.8889 31.9838 18.4967C31.8037 18.8344 31.8037 18.9245 31.9163 19.2171C32.0063 19.4422 32.2764 19.5998 32.5241 19.5998C33.0643 19.5998 33.6271 18.7444 33.8973 17.5513L34.0098 17.0785L34.2124 17.3036C35.3605 18.5868 36.2609 20.3652 36.396 21.6258L36.441 21.9635L36.2384 21.6708C35.9008 21.1531 35.5856 20.8154 35.1579 20.5227C34.3925 20.005 33.5821 19.8474 31.4435 19.7349C29.5076 19.6223 28.4045 19.4647 27.324 19.1045C25.478 18.4967 24.5326 17.7088 22.349 14.8049C21.381 13.5218 20.7732 12.8239 20.1654 12.2386C18.8372 10.9555 17.5091 10.2801 15.7757 10.01Z" fill="#FF007A"/>
<path d="M32.5462 12.8687C32.5912 12.0133 32.7038 11.4505 32.9514 10.9327C33.0414 10.7301 33.1315 10.55 33.154 10.55C33.1765 10.55 33.1315 10.7076 33.0639 10.8877C32.8839 11.383 32.8613 12.0808 32.9739 12.8687C33.1315 13.8817 33.199 14.0168 34.2796 15.1198C34.7748 15.6376 35.3601 16.2904 35.5852 16.5606L35.9679 17.0558L35.5852 16.6956C35.1125 16.2454 34.0319 15.39 33.7843 15.2774C33.6267 15.1874 33.6042 15.1874 33.4917 15.2999C33.4016 15.39 33.3791 15.525 33.3791 16.1779C33.3566 17.1909 33.2215 17.8212 32.8839 18.474C32.7038 18.8117 32.6813 18.7441 32.8388 18.3615C32.9514 18.0688 32.9739 17.9337 32.9739 16.9658C32.9739 15.0073 32.7488 14.5345 31.3756 13.7466C31.0379 13.544 30.4526 13.2514 30.115 13.0938C29.7548 12.9362 29.4847 12.8012 29.5072 12.8012C29.5522 12.7562 30.8804 13.1388 31.3981 13.364C32.186 13.6791 32.3211 13.7016 32.4111 13.6791C32.4787 13.6116 32.5237 13.4315 32.5462 12.8687Z" fill="#FF007A"/>
<path d="M16.6987 16.2231C15.7532 14.9174 15.1454 12.8914 15.2805 11.3831L15.3255 10.9104L15.5506 10.9554C15.9558 11.023 16.6536 11.2931 16.9913 11.4957C17.8918 12.036 18.297 12.7788 18.6797 14.6248C18.7922 15.165 18.9498 15.7953 19.0173 15.9979C19.1299 16.3356 19.5576 17.1235 19.9178 17.6188C20.1654 17.9789 20.0078 18.159 19.445 18.114C18.5896 18.024 17.4415 17.2361 16.6987 16.2231Z" fill="#FF007A"/>
<path d="M31.3982 26.0154C26.941 24.2145 25.3652 22.6613 25.3652 20.0274C25.3652 19.6447 25.3877 19.3296 25.3877 19.3296C25.4103 19.3296 25.5678 19.4647 25.7704 19.6222C26.6709 20.3426 27.6839 20.6578 30.4978 21.063C32.1411 21.3106 33.0866 21.4907 33.942 21.7833C36.6659 22.6838 38.3542 24.5297 38.7594 27.0284C38.872 27.7488 38.8044 29.122 38.6244 29.8423C38.4668 30.4051 38.0166 31.4406 37.904 31.4631C37.8815 31.4631 37.8365 31.3506 37.8365 31.1705C37.7914 30.225 37.3187 29.3246 36.5308 28.6267C35.5853 27.8163 34.3697 27.2085 31.3982 26.0154Z" fill="#FF007A"/>
<path d="M28.2471 26.7585C28.2021 26.4208 28.0895 25.9931 28.022 25.813L27.9094 25.4753L28.112 25.723C28.4047 26.0606 28.6298 26.4658 28.8324 27.0286C28.99 27.4563 28.99 27.5914 28.99 28.2892C28.99 28.9646 28.9674 29.1222 28.8324 29.5049C28.6073 30.1127 28.3371 30.5404 27.8869 31.0131C27.0765 31.846 26.0185 32.2962 24.5102 32.4989C24.2401 32.5214 23.4747 32.5889 22.7994 32.6339C21.111 32.724 19.9855 32.9041 18.9725 33.2642C18.8374 33.3093 18.7023 33.3543 18.6798 33.3318C18.6348 33.2867 19.3326 32.8815 19.8954 32.6114C20.6833 32.2287 21.4937 32.0261 23.2721 31.711C24.15 31.5759 25.0505 31.3958 25.2756 31.3058C27.5042 30.6079 28.6073 28.8745 28.2471 26.7585Z" fill="#FF007A"/>
<path d="M30.2953 30.3827C29.71 29.0995 29.5749 27.8839 29.8901 26.7359C29.9351 26.6233 29.9801 26.5107 30.0251 26.5107C30.0702 26.5107 30.2052 26.5783 30.3403 26.6683C30.6104 26.8484 31.1732 27.1636 32.6139 27.9515C34.4373 28.942 35.4729 29.7073 36.1932 30.5853C36.8235 31.3507 37.2062 32.2286 37.3863 33.3091C37.4989 33.9169 37.4313 35.3802 37.2738 35.988C36.7785 37.9014 35.6529 39.4322 34.0096 40.3101C33.762 40.4452 33.5594 40.5352 33.5369 40.5352C33.5144 40.5352 33.6044 40.3101 33.7395 40.04C34.2798 38.8919 34.3473 37.7889 33.9421 36.5508C33.6945 35.7854 33.1767 34.8624 32.1412 33.3091C30.9031 31.5082 30.6104 31.0355 30.2953 30.3827Z" fill="#FF007A"/>
<path d="M13.5255 37.271C15.1913 35.8753 17.2398 34.8848 19.1308 34.5696C19.9412 34.4346 21.2919 34.4796 22.0347 34.6822C23.2278 34.9974 24.3084 35.6727 24.8711 36.5056C25.4114 37.316 25.659 38.0139 25.9067 39.5671C25.9967 40.1749 26.1093 40.8053 26.1318 40.9403C26.3119 41.7507 26.672 42.381 27.1223 42.7187C27.8201 43.2365 29.0357 43.259 30.2288 42.8088C30.4314 42.7412 30.6115 42.6737 30.6115 42.6962C30.6565 42.7412 30.0487 43.1464 29.6435 43.349C29.0807 43.6417 28.6305 43.7317 28.0227 43.7317C26.9422 43.7317 26.0192 43.1689 25.2763 42.0434C25.1188 41.8183 24.8036 41.1654 24.5335 40.5576C23.7456 38.7342 23.3404 38.194 22.4174 37.5861C21.607 37.0684 20.5715 36.9558 19.7836 37.3385C18.7481 37.8338 18.4779 39.1619 19.1983 39.9723C19.491 40.31 20.0312 40.5801 20.4814 40.6477C21.3144 40.7602 22.0347 40.1074 22.0347 39.2745C22.0347 38.7342 21.8321 38.4191 21.2919 38.1714C20.5715 37.8563 19.7836 38.2165 19.8061 38.9143C19.8061 39.207 19.9412 39.387 20.2338 39.5221C20.4139 39.6122 20.4139 39.6122 20.2788 39.5896C19.626 39.4546 19.4684 38.6442 19.9862 38.1264C20.6165 37.4961 21.9447 37.7662 22.3949 38.6442C22.575 39.0044 22.5975 39.7247 22.4399 40.1749C22.0572 41.1654 20.9767 41.6832 19.8736 41.3905C19.1308 41.1879 18.8156 40.9853 17.9152 40.0624C16.3394 38.4416 15.7316 38.1264 13.4804 37.7887L13.0527 37.7212L13.5255 37.271Z" fill="#FF007A"/>
<path fill-rule="evenodd" clip-rule="evenodd" d="M1.68435 1.0505C6.92947 7.42119 15.011 17.3261 15.4162 17.8664C15.7539 18.3166 15.6188 18.7443 15.056 19.0595C14.7409 19.2396 14.088 19.4197 13.7729 19.4197C13.4127 19.4197 12.985 19.2396 12.6924 18.9469C12.4898 18.7443 11.6118 17.4612 9.63082 14.3772C8.12257 12.0135 6.83943 10.055 6.81692 10.0325C6.72687 9.98747 6.72687 9.98747 9.47324 14.8949C11.2066 17.979 11.7694 19.082 11.7694 19.2171C11.7694 19.5097 11.6793 19.6673 11.3192 20.0725C10.7114 20.7478 10.4412 21.5132 10.2386 23.1115C10.0135 24.8899 9.40571 26.1505 7.67234 28.2891C6.65934 29.5497 6.50176 29.7749 6.25414 30.2926C5.93898 30.9229 5.84893 31.2831 5.80391 32.0935C5.75889 32.9489 5.84893 33.4892 6.09656 34.2996C6.32167 35.02 6.56929 35.4927 7.1771 36.4157C7.69486 37.2261 8.01001 37.8339 8.01001 38.059C8.01001 38.2391 8.05504 38.2391 8.86544 38.059C10.8014 37.6088 12.3997 36.8434 13.2776 35.8979C13.8179 35.3126 13.953 34.9975 13.953 34.1871C13.953 33.6693 13.9305 33.5567 13.7954 33.2416C13.5703 32.7463 13.1426 32.3411 12.2196 31.7108C11.004 30.8779 10.4862 30.2026 10.3512 29.3021C10.2386 28.5367 10.3737 28.019 11.049 26.6008C11.7469 25.1375 11.927 24.5297 12.0395 23.044C12.1071 22.0985 12.2196 21.7158 12.4898 21.4232C12.7824 21.108 13.03 20.9955 13.7279 20.9054C14.8759 20.7478 15.6188 20.4552 16.2041 19.8924C16.7219 19.4197 16.947 18.9469 16.9695 18.2491L16.992 17.7313L16.6994 17.4162C15.6413 16.2006 0.986504 0.0825195 0.91897 0.0825195C0.896459 0.0825195 1.25664 0.510233 1.68435 1.0505ZM8.5953 33.0615C8.84293 32.6338 8.70786 32.0935 8.30266 31.8234C7.91997 31.5758 7.33468 31.6883 7.33468 32.026C7.33468 32.116 7.3797 32.2061 7.51477 32.2511C7.71737 32.3636 7.73988 32.4762 7.5823 32.7238C7.42472 32.9715 7.42472 33.1966 7.62732 33.3541C7.94248 33.6018 8.37019 33.4667 8.5953 33.0615Z" fill="#FF007A"/>
<path fill-rule="evenodd" clip-rule="evenodd" d="M17.7127 21.2206C17.1724 21.3781 16.6546 21.9634 16.4971 22.5487C16.407 22.9089 16.452 23.5617 16.6096 23.7643C16.8572 24.0795 17.0824 24.1695 17.7127 24.1695C18.9508 24.1695 20.0088 23.6293 20.1214 22.9764C20.2339 22.4362 19.7612 21.6933 19.1084 21.3556C18.7707 21.1755 18.0729 21.108 17.7127 21.2206ZM19.1534 22.3461C19.3335 22.076 19.2659 21.7833 18.9283 21.5807C18.3205 21.198 17.3975 21.5132 17.3975 22.0985C17.3975 22.3911 17.8703 22.7063 18.3205 22.7063C18.6131 22.7063 19.0183 22.5262 19.1534 22.3461Z" fill="#FF007A"/>
</g>
<defs>
<clipPath id="clip0_1287_5203">
<rect width="37.8864" height="43.6268" fill="white" transform="translate(0.917969 0.0825195)"/>
</clipPath>
</defs>
</svg>
