<svg width="32" height="32" viewBox="0 0 32 32" fill="none" xmlns="http://www.w3.org/2000/svg">
<path d="M10.2857 0H0V10.2857H2.28571V2.28571H10.2857V0Z" fill="#F9F9F9"/>
<path d="M0 21.7144V32.0001H10.2857V29.7144H2.28571V21.7144H0Z" fill="#F9F9F9"/>
<path d="M31.9996 10.2857V0H21.7139V2.28571H29.7139V10.2857H31.9996Z" fill="#F9F9F9"/>
<path d="M21.7139 32.0001H31.9996V21.7144H29.7139V29.7144H21.7139V32.0001Z" fill="#F9F9F9"/>
<path d="M15.9997 29.5199C14.0699 29.5169 12.2199 28.7489 10.8553 27.3843C9.49072 26.0197 8.72275 24.1698 8.71973 22.2399V9.74851C8.71973 7.81773 9.48672 5.96603 10.852 4.60077C12.2173 3.2355 14.0689 2.46851 15.9997 2.46851C17.9305 2.46851 19.7822 3.2355 21.1475 4.60077C22.5127 5.96603 23.2797 7.81773 23.2797 9.74851V22.2399C23.2767 24.1698 22.5087 26.0197 21.1441 27.3843C19.7795 28.7489 17.9296 29.5169 15.9997 29.5199ZM15.9997 4.75422C14.6752 4.75422 13.4048 5.2804 12.4682 6.21701C11.5316 7.15362 11.0054 8.42394 11.0054 9.74851V22.2399C11.0054 23.5645 11.5316 24.8348 12.4682 25.7714C13.4048 26.708 14.6752 27.2342 15.9997 27.2342C17.3243 27.2342 18.5946 26.708 19.5312 25.7714C20.4678 24.8348 20.994 23.5645 20.994 22.2399V9.74851C20.994 9.09265 20.8648 8.44321 20.6138 7.83728C20.3629 7.23134 19.995 6.68077 19.5312 6.21701C19.0675 5.75325 18.5169 5.38537 17.911 5.13439C17.305 4.8834 16.6556 4.75422 15.9997 4.75422Z" fill="#F9F9F9"/>
</svg>
