<svg width="26" height="28" viewBox="0 0 26 28" fill="none" xmlns="http://www.w3.org/2000/svg">
<path d="M23.73 14.42C22.4879 13.1467 20.857 12.3237 19.0949 12.081C17.3327 11.8384 15.54 12.1899 14 13.08V7C14 5.14348 13.2625 3.36301 11.9498 2.05025C10.637 0.737498 8.85652 0 7 0C5.14348 0 3.36301 0.737498 2.05025 2.05025C0.7375 3.36301 0 5.14348 0 7V21C0.00321579 22.4244 0.440889 23.8139 1.25458 24.983C2.06827 26.1521 3.21925 27.0451 4.55383 27.5429C5.88842 28.0406 7.34309 28.1194 8.72362 27.7687C10.1041 27.4179 11.3448 26.6544 12.28 25.58C13.7791 27.008 15.7734 27.7993 17.8437 27.7875C19.9141 27.7756 21.8992 26.9616 23.3818 25.5165C24.8644 24.0715 25.7291 22.1079 25.794 20.0385C25.859 17.9691 25.1191 15.9552 23.73 14.42ZM11.04 23.93C10.414 24.7649 9.54245 25.3831 8.54748 25.6978C7.55251 26.0126 6.484 26.0081 5.4917 25.685C4.4994 25.362 3.63306 24.7366 3.01407 23.8964C2.39508 23.0562 2.05448 22.0435 2.04 21V7C2.04 5.67392 2.56679 4.40215 3.50447 3.46447C4.44215 2.52678 5.71392 2 7.04 2C8.36608 2 9.63786 2.52678 10.5755 3.46447C11.5132 4.40215 12.04 5.67392 12.04 7V14.72L11.81 15C10.7972 16.2378 10.1818 17.7526 10.0444 19.346C9.90706 20.9394 10.2541 22.5371 11.04 23.93ZM18.04 26C16.8533 26 15.6933 25.6481 14.7066 24.9888C13.7199 24.3295 12.9509 23.3925 12.4967 22.2961C12.0426 21.1997 11.9238 19.9933 12.1553 18.8295C12.3868 17.6656 12.9582 16.5965 13.7974 15.7574C14.6365 14.9182 15.7056 14.3468 16.8695 14.1153C18.0333 13.8838 19.2397 14.0026 20.3361 14.4567C21.4325 14.9108 22.3695 15.6799 23.0288 16.6666C23.6881 17.6533 24.04 18.8133 24.04 20C24.04 20.7913 23.8835 21.5748 23.5795 22.3054C23.2755 23.036 22.8299 23.6992 22.2685 24.2568C21.7071 24.8145 21.041 25.2556 20.3084 25.5548C19.5758 25.854 18.7913 26.0053 18 26H18.04Z" fill="#F9F9F9"/>
<path d="M15.4998 22.11L14.0898 20.69L18.0398 16.75L21.9098 20.62L20.4998 22.04L18.0398 19.58L15.4998 22.11Z" fill="#F9F9F9"/>
</svg>
