<svg width="26" height="28" viewBox="0 0 26 28" fill="none" xmlns="http://www.w3.org/2000/svg">
<path d="M21 19H19V17H17V19H15V21H17V23H19V21H21V19Z" fill="#F9F9F9"/>
<path d="M23.73 14.42C22.4879 13.1467 20.857 12.3237 19.0948 12.081C17.3327 11.8384 15.54 12.1899 14 13.08V7C14 5.14348 13.2625 3.36301 11.9497 2.05025C10.637 0.737498 8.85652 0 7 0C5.14348 0 3.36301 0.737498 2.05025 2.05025C0.737498 3.36301 2.76642e-08 5.14348 0 7V21C0.00321579 22.4244 0.440888 23.8139 1.25458 24.983C2.06826 26.1521 3.21924 27.0451 4.55383 27.5429C5.88841 28.0406 7.34309 28.1194 8.72362 27.7687C10.1041 27.4179 11.3448 26.6544 12.28 25.58C13.7791 27.008 15.7734 27.7993 17.8437 27.7875C19.9141 27.7756 21.8992 26.9616 23.3818 25.5165C24.8644 24.0715 25.7291 22.1079 25.794 20.0385C25.859 17.9691 25.1191 15.9552 23.73 14.42ZM11 23.93C10.374 24.7649 9.50244 25.3831 8.50747 25.6978C7.51251 26.0126 6.444 26.0081 5.4517 25.685C4.4594 25.362 3.59305 24.7366 2.97406 23.8964C2.35508 23.0562 2.01448 22.0435 2 21V7C2 5.67392 2.52678 4.40215 3.46447 3.46447C4.40215 2.52678 5.67392 2 7 2C8.32608 2 9.59785 2.52678 10.5355 3.46447C11.4732 4.40215 12 5.67392 12 7V14.72L11.77 15C10.7572 16.2378 10.1418 17.7526 10.0044 19.346C9.86705 20.9394 10.2141 22.5371 11 23.93ZM18 26C16.8133 26 15.6533 25.6481 14.6666 24.9888C13.6799 24.3295 12.9108 23.3925 12.4567 22.2961C12.0026 21.1997 11.8838 19.9933 12.1153 18.8295C12.3468 17.6656 12.9182 16.5965 13.7574 15.7574C14.5965 14.9182 15.6656 14.3468 16.8295 14.1153C17.9933 13.8838 19.1997 14.0026 20.2961 14.4567C21.3925 14.9108 22.3295 15.6799 22.9888 16.6666C23.6481 17.6533 24 18.8133 24 20C24 21.5913 23.3679 23.1174 22.2426 24.2426C21.1174 25.3679 19.5913 26 18 26Z" fill="#F9F9F9"/>
</svg>
