<svg width="32" height="32" viewBox="0 0 32 32" fill="none" xmlns="http://www.w3.org/2000/svg">
<g clip-path="url(#clip0_2298_145132)">
<path d="M15.4 29.9993L5 23.7993C4.70444 23.6222 4.45803 23.3738 4.28333 23.0768C4.10862 22.7798 4.01121 22.4437 4 22.0993V9.89934C3.99948 9.55246 4.09197 9.21177 4.26785 8.91278C4.44373 8.61379 4.69656 8.36742 5 8.19934L15 2.29934C15.297 2.10406 15.6446 2 16 2C16.3554 2 16.703 2.10406 17 2.29934L27 8.19934C27.2956 8.37646 27.542 8.62489 27.7167 8.92189C27.8914 9.21888 27.9888 9.55496 28 9.89934V15.9993H26V9.89934L16 3.99934L6 9.89934V22.0993L16.5 28.2993L15.4 29.9993Z" fill="black"/>
<path d="M25.2002 20.4004V23.4004C24.2002 23.4004 23.2002 21.9004 23.2002 19.4004V16.4004C19.2002 21.4004 18.2002 23.4004 18.2002 25.4004C18.2031 26.3748 18.4879 27.3276 19.0202 28.1438C19.5526 28.9601 20.3096 29.6048 21.2002 30.0004C21.4999 28.6304 22.1954 27.3786 23.2002 26.4004C24.1696 27.4053 24.8591 28.6464 25.2002 30.0004C26.0907 29.6048 26.8478 28.9601 27.3802 28.1438C27.9125 27.3276 28.1973 26.3748 28.2002 25.4004C28.2002 23.4004 27.0002 21.8004 25.2002 20.4004Z" fill="black"/>
</g>
<defs>
<clipPath id="clip0_2298_145132">
<rect width="32" height="32" fill="white"/>
</clipPath>
</defs>
</svg>
