
<svg width="26" height="25" viewBox="0 0 26 25" fill="none" xmlns="http://www.w3.org/2000/svg">
<path d="M25.4473 13.1055L20 10.3818V3.99999C20 3.81428 19.9483 3.63222 19.8507 3.47423C19.7531 3.31625 19.6134 3.18856 19.4473 3.10549L13.4473 0.105491C13.3084 0.0360958 13.1553 -3.05176e-05 13 -3.05176e-05C12.8447 -3.05176e-05 12.6916 0.0360958 12.5527 0.105491L6.5527 3.10549C6.3866 3.18856 6.24691 3.31625 6.14929 3.47423C6.05167 3.63222 5.99998 3.81428 6 3.99999V10.3818L0.5527 13.1055C0.386599 13.1886 0.246913 13.3162 0.149293 13.4742C0.0516737 13.6322 -2.15387e-05 13.8143 6.73197e-09 14V21C-2.15387e-05 21.1857 0.0516737 21.3678 0.149293 21.5257C0.246913 21.6837 0.386599 21.8114 0.5527 21.8945L6.5527 24.8945C6.6916 24.9639 6.84474 25 7 25C7.15526 25 7.3084 24.9639 7.4473 24.8945L13 22.1182L18.5527 24.8945C18.6916 24.9639 18.8447 25 19 25C19.1553 25 19.3084 24.9639 19.4473 24.8945L25.4473 21.8945C25.6134 21.8114 25.7531 21.6837 25.8507 21.5257C25.9483 21.3678 26 21.1857 26 21V14C26 13.8143 25.9483 13.6322 25.8507 13.4742C25.7531 13.3162 25.6134 13.1886 25.4473 13.1055ZM18 10.3818L14 12.3818V7.61819L18 5.61819V10.3818ZM13 2.11819L16.7637 3.99999L13 5.88179L9.2363 3.99999L13 2.11819ZM8 5.61819L12 7.61819V12.3818L8 10.3818V5.61819ZM6 22.3818L2 20.3818V15.6182L6 17.6182V22.3818ZM7 15.8818L3.2363 14L7 12.1182L10.7637 14L7 15.8818ZM8 17.6182L12 15.6182V20.3818L8 22.3818V17.6182ZM18 22.3818L14 20.3818V15.6182L18 17.6182V22.3818ZM19 15.8818L15.2363 14L19 12.1182L22.7637 14L19 15.8818ZM24 20.3818L20 22.3818V17.6182L24 15.6182V20.3818Z" fill="#0C0C0C"/>
</svg>
