<svg width="32" height="32" viewBox="0 0 32 32" fill="none" xmlns="http://www.w3.org/2000/svg">
<g clip-path="url(#clip0_1661_122035)">
<path d="M11 2H2V11H4V4H11V2Z" fill="#0C0C0C"/>
<path d="M2 21V30H11V28H4V21H2Z" fill="#0C0C0C"/>
<path d="M30 11V2H21V4H28V11H30Z" fill="#0C0C0C"/>
<path d="M21 30H30V21H28V28H21V30Z" fill="#0C0C0C"/>
<path d="M25.49 10.13L16.49 5.13001C16.338 5.04224 16.1655 4.99603 15.99 4.99603C15.8145 4.99603 15.642 5.04224 15.49 5.13001L6.48999 10.13C6.33924 10.2194 6.21463 10.3468 6.12863 10.4995C6.04263 10.6522 5.99827 10.8248 5.99999 11V21C6.00029 21.1772 6.04768 21.3511 6.13729 21.504C6.2269 21.6569 6.35552 21.7832 6.50999 21.87L15.51 26.87C15.662 26.9578 15.8345 27.004 16.01 27.004C16.1855 27.004 16.358 26.9578 16.51 26.87L25.51 21.87C25.6607 21.7806 25.7853 21.6532 25.8713 21.5005C25.9573 21.3479 26.0017 21.1752 26 21V11C25.9997 10.8228 25.9523 10.6489 25.8627 10.496C25.7731 10.3431 25.6445 10.2168 25.49 10.13ZM16 7.14001L22.94 11L16 14.86L9.05999 11L16 7.14001ZM7.99999 12.7L15 16.59V24.3L7.99999 20.41V12.7ZM17 24.3V16.59L24 12.7V20.41L17 24.3Z" fill="#0C0C0C"/>
</g>
<defs>
<clipPath id="clip0_1661_122035">
<rect width="32" height="32" fill="white"/>
</clipPath>
</defs>
</svg>
