<svg width="32" height="32" viewBox="0 0 32 32" fill="none" xmlns="http://www.w3.org/2000/svg">
<g clip-path="url(#clip0_888_24466)">
<path d="M26 2H6C5.46957 2 4.96086 2.21071 4.58579 2.58579C4.21071 2.96086 4 3.46957 4 4V8C4 8.53043 4.21071 9.03914 4.58579 9.41421C4.96086 9.78929 5.46957 10 6 10H15V16.17L12.41 13.59L11 15L16 20L21 15L19.59 13.59L17 16.17V10H26C26.5304 10 27.0391 9.78929 27.4142 9.41421C27.7893 9.03914 28 8.53043 28 8V4C28 3.46957 27.7893 2.96086 27.4142 2.58579C27.0391 2.21071 26.5304 2 26 2ZM6 4H10V8H6V4ZM26 8H12V4H26V8Z" fill="#00A0F0"/>
<path d="M26 22H6C5.46957 22 4.96086 22.2107 4.58579 22.5858C4.21071 22.9609 4 23.4696 4 24V28C4 28.5304 4.21071 29.0391 4.58579 29.4142C4.96086 29.7893 5.46957 30 6 30H26C26.5304 30 27.0391 29.7893 27.4142 29.4142C27.7893 29.0391 28 28.5304 28 28V24C28 23.4696 27.7893 22.9609 27.4142 22.5858C27.0391 22.2107 26.5304 22 26 22ZM6 24H20V28H6V24ZM26 28H22V24H26V28Z" fill="#00A0F0"/>
</g>
<defs>
<clipPath id="clip0_888_24466">
<rect width="32" height="32" fill="white"/>
</clipPath>
</defs>
</svg>
