<svg width="32" height="32" viewBox="0 0 32 32" fill="none" xmlns="http://www.w3.org/2000/svg">
<g clip-path="url(#clip0_2050_131978)">
<path d="M23 17L25.23 21.32L30 22L26.5 25.17L28 30L23 27.21L18 30L19.5 25.17L16 22L20.9 21.32L23 17Z" fill="black"/>
<path d="M25 5H22V4C22 3.46957 21.7893 2.96086 21.4142 2.58579C21.0391 2.21071 20.5304 2 20 2H12C11.4696 2 10.9609 2.21071 10.5858 2.58579C10.2107 2.96086 10 3.46957 10 4V5H7C6.46957 5 5.96086 5.21071 5.58579 5.58579C5.21071 5.96086 5 6.46957 5 7V28C5 28.5304 5.21071 29.0391 5.58579 29.4142C5.96086 29.7893 6.46957 30 7 30H14V28H7V7H10V10H22V7H25V14H27V7C27 6.46957 26.7893 5.96086 26.4142 5.58579C26.0391 5.21071 25.5304 5 25 5ZM20 8H12V4H20V8Z" fill="black"/>
</g>
<defs>
<clipPath id="clip0_2050_131978">
<rect width="32" height="32" fill="white"/>
</clipPath>
</defs>
</svg>
