<svg width="32" height="32" viewBox="0 0 32 32" fill="none" xmlns="http://www.w3.org/2000/svg">
<g clip-path="url(#clip0_877_16012)">
<path d="M7 30C6.0111 30 5.0444 29.7068 4.22215 29.1574C3.39991 28.6079 2.75904 27.8271 2.3806 26.9134C2.00217 25.9998 1.90315 24.9945 2.09608 24.0246C2.289 23.0546 2.76521 22.1637 3.46447 21.4645C4.16373 20.7652 5.05465 20.289 6.02455 20.0961C6.99446 19.9031 7.99979 20.0022 8.91342 20.3806C9.82705 20.759 10.6079 21.3999 11.1573 22.2222C11.7068 23.0444 12 24.0111 12 25C11.9984 26.3256 11.4712 27.5965 10.5338 28.5338C9.59647 29.4712 8.32561 29.9984 7 30ZM7 22C6.40666 22 5.82664 22.1759 5.33329 22.5056C4.83994 22.8352 4.45543 23.3038 4.22836 23.852C4.0013 24.4001 3.94189 25.0033 4.05765 25.5853C4.1734 26.1672 4.45912 26.7018 4.87868 27.1213C5.29824 27.5409 5.83279 27.8266 6.41473 27.9424C6.99667 28.0581 7.59987 27.9987 8.14805 27.7716C8.69623 27.5446 9.16477 27.1601 9.49441 26.6667C9.82406 26.1734 10 25.5933 10 25C9.99913 24.2046 9.68278 23.4421 9.12036 22.8796C8.55794 22.3172 7.79538 22.0009 7 22Z" fill="#F9F9F9"/>
<path d="M24 26H14V24H24V17H8C7.46974 16.9994 6.96135 16.7886 6.5864 16.4136C6.21145 16.0386 6.00056 15.5303 6 15V8C6.00056 7.46974 6.21145 6.96135 6.5864 6.5864C6.96135 6.21145 7.46974 6.00056 8 6H18V8H8V15H24C24.5303 15.0006 25.0386 15.2114 25.4136 15.5864C25.7886 15.9614 25.9994 16.4697 26 17V24C25.9994 24.5303 25.7886 25.0386 25.4136 25.4136C25.0386 25.7886 24.5303 25.9994 24 26Z" fill="#F9F9F9"/>
<path d="M28 12H22C21.4698 11.9994 20.9614 11.7885 20.5865 11.4135C20.2115 11.0386 20.0006 10.5302 20 10V4C20.0006 3.46975 20.2115 2.9614 20.5865 2.58646C20.9614 2.21152 21.4698 2.00061 22 2H28C28.5302 2.00061 29.0386 2.21152 29.4135 2.58646C29.7885 2.9614 29.9994 3.46975 30 4V10C29.9994 10.5302 29.7885 11.0386 29.4135 11.4135C29.0386 11.7885 28.5302 11.9994 28 12ZM22 4V10H28V4H22Z" fill="#F9F9F9"/>
</g>
<defs>
<clipPath id="clip0_877_16012">
<rect width="32" height="32" fill="white"/>
</clipPath>
</defs>
</svg>
