<svg width="32" height="32" viewBox="0 0 32 32" fill="none" xmlns="http://www.w3.org/2000/svg">
<g clip-path="url(#clip0_2429_173839)">
<path d="M8.90994 24.5001L13.1699 20.2401L11.7599 18.8301L7.49994 23.0901L6.70994 22.2901C6.61698 22.1964 6.50637 22.122 6.38452 22.0712C6.26266 22.0204 6.13195 21.9943 5.99994 21.9943C5.86793 21.9943 5.73722 22.0204 5.61536 22.0712C5.4935 22.122 5.3829 22.1964 5.28994 22.2901L1.28994 26.2901C1.19621 26.383 1.12182 26.4936 1.07105 26.6155C1.02028 26.7374 0.994141 26.8681 0.994141 27.0001C0.994141 27.1321 1.02028 27.2628 1.07105 27.3847C1.12182 27.5065 1.19621 27.6171 1.28994 27.7101L4.28994 30.7101C4.3829 30.8038 4.4935 30.8782 4.61536 30.929C4.73722 30.9797 4.86793 31.0059 4.99994 31.0059C5.13195 31.0059 5.26266 30.9797 5.38452 30.929C5.50637 30.8782 5.61698 30.8038 5.70994 30.7101L9.70994 26.7101C9.80367 26.6171 9.87806 26.5065 9.92883 26.3847C9.9796 26.2628 10.0057 26.1321 10.0057 26.0001C10.0057 25.8681 9.9796 25.7374 9.92883 25.6155C9.87806 25.4936 9.80367 25.383 9.70994 25.2901L8.90994 24.5001ZM4.99994 28.5901L3.40994 27.0001L5.99994 24.4101L7.58994 26.0001L4.99994 28.5901Z" fill="black"/>
<path d="M24 30.0001C22.4088 30.0001 20.8826 29.368 19.7574 28.2427C18.6322 27.1175 18 25.5914 18 24.0001C18.0003 23.4764 18.071 22.955 18.21 22.4501L9.55005 13.7901C9.04511 13.9292 8.52379 13.9998 8.00005 14.0001C6.41738 14.0002 4.89878 13.3749 3.77499 12.2605C2.6512 11.146 2.01324 9.63272 2.00005 8.0501C1.99693 7.28682 2.13948 6.52995 2.42005 5.8201L3.00005 4.3901L6.29005 7.7101C6.38301 7.80383 6.49361 7.87822 6.61547 7.92899C6.73733 7.97976 6.86804 8.0059 7.00005 8.0059C7.13206 8.0059 7.26277 7.97976 7.38463 7.92899C7.50649 7.87822 7.61709 7.80383 7.71005 7.7101C7.80378 7.61714 7.87817 7.50654 7.92894 7.38468C7.97971 7.26282 8.00585 7.13211 8.00585 7.0001C8.00585 6.86809 7.97971 6.73738 7.92894 6.61552C7.87817 6.49366 7.80378 6.38306 7.71005 6.2901L4.39005 3.0001L5.82005 2.4401C7.29384 1.86172 8.93649 1.88928 10.39 2.51678C11.8436 3.14428 12.9902 4.32086 13.5801 5.7901C13.8561 6.49429 13.9985 7.24374 14.0001 8.0001C13.9998 8.52384 13.9291 9.04516 13.7901 9.5501L22.4501 18.2101C22.955 18.071 23.4763 18.0004 24 18.0001C25.5913 18.0001 27.1175 18.6322 28.2427 19.7575C29.3679 20.8827 30 22.4088 30 24.0001C30.0032 24.7634 29.8606 25.5202 29.58 26.2301L29 27.6101L25.6901 24.2901C25.5971 24.1964 25.4865 24.122 25.3646 24.0712C25.2428 24.0204 25.1121 23.9943 24.98 23.9943C24.848 23.9943 24.7173 24.0204 24.5955 24.0712C24.4736 24.122 24.363 24.1964 24.2701 24.2901C24.1763 24.3831 24.1019 24.4937 24.0512 24.6155C24.0004 24.7374 23.9743 24.8681 23.9743 25.0001C23.9743 25.1321 24.0004 25.2628 24.0512 25.3847C24.1019 25.5065 24.1763 25.6171 24.2701 25.7101L27.6101 29.0001L26.18 29.5601C25.4872 29.8413 24.7478 29.9906 24 30.0001ZM10.0601 11.4801L20.5201 21.9401L20.2801 22.5501C19.8978 23.5294 19.9164 24.6197 20.3319 25.5854C20.7473 26.551 21.5262 27.3143 22.5 27.7101C22.8982 27.8726 23.3207 27.9672 23.75 27.9901L22.88 27.1201C22.3182 26.5576 22.0027 25.7951 22.0027 25.0001C22.0027 24.2051 22.3182 23.4426 22.88 22.8801C23.4523 22.3371 24.2112 22.0344 25 22.0344C25.7889 22.0344 26.5478 22.3371 27.1201 22.8801L27.99 23.7501C27.9255 22.6995 27.4495 21.7166 26.6652 21.0146C25.8808 20.3126 24.8514 19.9481 23.8 20.0001C23.3712 20.0194 22.9486 20.1107 22.55 20.2701L21.9401 20.5101L11.4801 10.0601L11.7201 9.4501C12.1023 8.47084 12.0837 7.38048 11.6682 6.41485C11.2528 5.44922 10.4739 4.68594 9.50005 4.2901C9.10254 4.12419 8.68001 4.02616 8.25005 4.0001L9.12005 4.8701C9.68185 5.4326 9.99741 6.1951 9.99741 6.9901C9.99741 7.7851 9.68185 8.5476 9.12005 9.1101C8.54777 9.65311 7.78895 9.95582 7.00005 9.95582C6.21115 9.95582 5.45233 9.65311 4.88005 9.1101L4.00005 8.2501C4.06453 9.30255 4.54197 10.287 5.3285 10.9892C6.11504 11.6915 7.14705 12.0548 8.20005 12.0001C8.6289 11.9808 9.05146 11.8895 9.45005 11.7301L10.0601 11.4801Z" fill="black"/>
<path d="M29.1204 2.84963C28.5481 2.30662 27.7893 2.00391 27.0004 2.00391C26.2115 2.00391 25.4527 2.30662 24.8804 2.84963L17.4004 10.3296L18.8104 11.7396L26.2904 4.25963C26.3834 4.1659 26.494 4.09151 26.6158 4.04074C26.7377 3.98997 26.8684 3.96383 27.0004 3.96383C27.1324 3.96383 27.2631 3.98997 27.385 4.04074C27.5068 4.09151 27.6174 4.1659 27.7104 4.25963C27.8041 4.35259 27.8785 4.46319 27.9293 4.58505C27.9801 4.70691 28.0062 4.83762 28.0062 4.96963C28.0062 5.10164 27.9801 5.23235 27.9293 5.3542C27.8785 5.47606 27.8041 5.58666 27.7104 5.67963L20.2304 13.1596L21.6404 14.5696L29.1204 7.08963C29.6822 6.52713 29.9978 5.76463 29.9978 4.96963C29.9978 4.17462 29.6822 3.41213 29.1204 2.84963Z" fill="black"/>
</g>
<defs>
<clipPath id="clip0_2429_173839">
<rect width="32" height="32" fill="white"/>
</clipPath>
</defs>
</svg>
