<svg width="27" height="28" viewBox="0 0 27 28" fill="none" xmlns="http://www.w3.org/2000/svg">
<path d="M8.33366 27.3333C9.25413 27.3333 10.0003 26.5871 10.0003 25.6667C10.0003 24.7462 9.25413 24 8.33366 24C7.41318 24 6.66699 24.7462 6.66699 25.6667C6.66699 26.5871 7.41318 27.3333 8.33366 27.3333Z" fill="#0C0C0C"/>
<path d="M21.6667 27.3333C22.5871 27.3333 23.3333 26.5871 23.3333 25.6667C23.3333 24.7462 22.5871 24 21.6667 24C20.7462 24 20 24.7462 20 25.6667C20 26.5871 20.7462 27.3333 21.6667 27.3333Z" fill="#0C0C0C"/>
<path d="M25.7253 5.59134H5.34719L4.59381 1.45506C4.55086 1.22926 4.43539 1.02676 4.26752 0.882799C4.09964 0.738842 3.88999 0.662546 3.67505 0.667193H0V2.63685H2.92166L6.43133 21.5456C6.47429 21.7714 6.58975 21.9739 6.75762 22.1179C6.9255 22.2618 7.13515 22.3381 7.3501 22.3335H23.8878V20.3638H8.10348L7.3501 16.4245H23.8878C24.1002 16.43 24.3078 16.3565 24.4753 16.2165C24.6428 16.0764 24.7599 15.8785 24.8066 15.6563L26.6441 6.79284C26.6749 6.64671 26.6742 6.49499 26.642 6.3492C26.6098 6.20342 26.5471 6.06742 26.4585 5.95157C26.3699 5.83571 26.2578 5.74304 26.1307 5.68062C26.0037 5.6182 25.865 5.58766 25.7253 5.59134ZM23.1528 14.4548H7.00097L5.7147 7.56101H24.5769L23.1528 14.4548Z" fill="#0C0C0C"/>
</svg>
