<svg width="32" height="32" viewBox="0 0 32 32" fill="none" xmlns="http://www.w3.org/2000/svg">
<g clip-path="url(#clip0_1649_132620)">
<path d="M28 23L26.6 24.4L24 21.8V30H22V21.8L19.4 24.4L18 23L23 18L28 23Z" fill="black"/>
<path d="M15.4 30L5 23.7999C4.70444 23.6228 4.45803 23.3744 4.28333 23.0774C4.10862 22.7804 4.01121 22.4443 4 22.1V9.89995C3.99948 9.55307 4.09197 9.21238 4.26785 8.91339C4.44373 8.6144 4.69656 8.36803 5 8.19995L15 2.29995C15.297 2.10467 15.6446 2.00061 16 2.00061C16.3554 2.00061 16.703 2.10467 17 2.29995L27 8.19995C27.2956 8.37707 27.542 8.6255 27.7167 8.9225C27.8914 9.21949 27.9888 9.55557 28 9.89995V16H26V9.89995L16 3.99995L6 9.89995V22.1L16.5 28.2999L15.4 30Z" fill="black"/>
</g>
<defs>
<clipPath id="clip0_1649_132620">
<rect width="32" height="32" fill="white"/>
</clipPath>
</defs>
</svg>
