<svg width="23" height="25" viewBox="0 0 23 25" fill="none" xmlns="http://www.w3.org/2000/svg">
<path d="M6.57203 17.3651L3.91117 19.268L3.8155 18.2864L4.07676 18.0995L3.90324 16.3313L3.64322 16.5172L3.55237 15.6051L4.86237 14.6683L4.95322 15.5804L4.70558 15.7575L4.87769 17.5211L5.77166 16.8818L5.71375 16.2774L6.42818 15.7665L6.57203 17.3651Z" fill="url(#paint0_linear_4333_288)"/>
<path d="M7.45533 19.2425L8.32949 18.6174L8.43657 19.7144C8.45008 19.8855 8.42313 20.0575 8.35791 20.2163C8.29268 20.3751 8.19101 20.5164 8.06111 20.6286L6.22859 21.9392C5.98095 22.1163 5.76744 21.9826 5.73484 21.6465L5.49911 19.1946C5.48523 19.0234 5.51201 18.8514 5.57726 18.6925C5.6425 18.5336 5.74438 18.3924 5.87457 18.2804L7.70708 16.9698C7.94481 16.7998 8.16823 16.9264 8.20084 17.2625L8.29473 18.2286L7.41933 18.8546L7.35608 18.2035L6.40268 18.8854L6.57496 20.6545L7.52836 19.9727L7.45533 19.2425Z" fill="url(#paint1_linear_4333_288)"/>
<path d="M2.53561 11.622L2.53125 11.6206C2.5342 11.622 2.5356 11.6235 2.53849 11.6249C2.53701 11.6235 2.53701 11.622 2.53561 11.622Z" fill="black"/>
<path fill-rule="evenodd" clip-rule="evenodd" d="M22.0396 16.4053C22.0939 16.2116 22.1432 16.0116 22.1849 15.804C22.1876 15.7924 22.19 15.7803 22.1924 15.7681C22.1944 15.7578 22.1965 15.7474 22.1988 15.737C22.3211 15.1347 22.4029 14.5248 22.4438 13.9116C22.4616 13.6268 22.4666 13.3508 22.4603 13.08C22.4578 12.9584 22.454 12.8369 22.4464 12.7154C22.4107 11.9518 22.3187 11.1919 22.171 10.4419C22.1599 10.3835 22.1492 10.3251 22.1384 10.2665C22.1296 10.2184 22.1207 10.1702 22.1116 10.1217C22.08 9.94067 22.0459 9.75712 22.0055 9.56978C21.9765 9.43179 21.9423 9.29127 21.9032 9.14951C21.8728 9.04447 21.8412 8.9533 21.8122 8.87357C21.7933 8.82165 21.7667 8.74825 21.7604 8.71787C21.7566 8.63299 21.7591 8.54794 21.768 8.46344L21.7781 8.31661L21.7789 8.30255C21.8305 7.46008 21.8837 6.59133 21.7781 5.69376C21.6783 4.84185 21.5343 3.85956 21.1022 2.99755C20.9802 2.72999 20.8047 2.49038 20.5865 2.29355C20.3683 2.09671 20.1122 1.94683 19.8339 1.85322C19.8149 1.84689 19.7972 1.84182 19.777 1.83675H19.7757C19.6454 1.79797 19.5124 1.7692 19.3778 1.75068C19.2502 1.73129 19.1215 1.7203 18.9925 1.71777C18.9609 1.71524 18.9306 1.71523 18.899 1.71523C18.8005 1.71523 18.6994 1.71903 18.5958 1.72787H18.5946C18.5049 1.73548 18.4152 1.74561 18.3229 1.75828C18.2774 1.76459 18.2332 1.77219 18.1903 1.77979C18.0589 1.80257 17.9338 1.82918 17.8126 1.86082C17.6475 1.90454 17.4854 1.95908 17.3274 2.02409C16.9337 1.46784 16.4328 0.996142 15.8544 0.636735L15.7798 0.588617L15.7798 0.588612C15.435 0.369622 14.9625 0.0696402 14.3953 0.0088829C14.339 0.00273567 14.2825 -0.000225424 14.226 1.33653e-05C13.5324 1.33653e-05 13.022 0.441792 12.7744 0.656977C12.5879 0.820643 12.4097 0.98667 12.2363 1.1482L12.2173 1.16585C12.0998 1.27726 11.9811 1.38737 11.8598 1.49751L11.7878 1.56334C11.6263 1.72733 11.4441 1.86946 11.2458 1.98611C11.0487 2.05895 10.8433 2.107 10.6343 2.12917C10.5447 2.1431 10.4563 2.15701 10.3615 2.17345C10.2288 2.19879 10.0974 2.22664 9.96605 2.25575C9.74762 2.31296 9.5243 2.34941 9.29904 2.36463C9.28264 2.36586 9.26623 2.36586 9.24976 2.36586C9.03807 2.36765 8.82798 2.32899 8.63074 2.25195C8.49838 2.1952 8.36895 2.13183 8.24293 2.06207C7.62215 1.71464 6.93673 1.49878 6.2292 1.42789C6.1734 1.42184 6.1173 1.41888 6.06117 1.41902C5.14686 1.41902 4.72109 2.11973 4.51638 2.45663L4.51614 2.45703L4.46562 2.54056C3.64569 3.85322 3.06708 5.47731 2.69697 7.50646C2.65021 7.76342 2.58451 8.02544 2.50241 8.33432C2.47083 8.4495 2.44301 8.56725 2.41519 8.6875C2.37422 8.89859 2.31244 9.10508 2.23075 9.30394C2.22193 9.32168 2.20552 9.35333 2.07031 9.41662C2.05385 9.42534 2.03518 9.43333 2.01425 9.4423C2.00787 9.44502 2.00129 9.44784 1.9945 9.4508C1.90104 9.49002 1.80759 9.53053 1.71284 9.57232C1.3933 9.71354 1.09312 9.8952 0.819633 10.1128C0.57338 10.3018 0.372188 10.5433 0.230599 10.8198C0.0890092 11.0963 0.0105704 11.4009 0.00100541 11.7116C-0.0141696 12.2546 0.142512 12.7723 0.465929 13.4685L0.681951 13.8597C0.706957 13.9242 0.735626 13.9871 0.767818 14.0483C0.90164 14.3137 1.07741 14.5556 1.28832 14.7648C1.34137 14.8192 1.39824 14.8736 1.45758 14.9281C1.4674 14.9371 1.4777 14.9456 1.48844 14.9535C1.65941 14.3736 2.03707 13.8528 2.59227 13.5122L3.35703 13.0432C4.54722 12.3131 6.1027 12.6881 6.83126 13.8807L10.2111 19.4131C10.8269 20.421 10.6549 21.6904 9.86836 22.5C9.99375 22.6355 10.1549 22.7348 10.335 22.7851C10.3954 22.8017 10.4571 22.8132 10.5194 22.8193C10.6394 22.8294 10.767 22.8396 10.8971 22.8459C11.4189 22.8763 11.9924 22.8839 12.3638 22.8851C18.9927 22.5065 21.5764 18.4075 22.0396 16.4053Z" fill="url(#paint2_linear_4333_288)"/>
<path d="M7.04374 3.63432C7.04395 3.64152 7.04352 3.64873 7.04244 3.65586V3.65712C7.04123 3.6644 7.03954 3.67158 7.03738 3.67863C7.03362 3.6913 7.02856 3.70268 7.02351 3.71535C7.01715 3.72548 7.01086 3.73686 7.00327 3.74699C7.00328 3.74716 7.00327 3.7473 7.00321 3.74746C7.00315 3.74761 7.00302 3.74777 7.0029 3.74789C7.00279 3.74801 7.00268 3.7481 7.00253 3.74817C7.00238 3.74823 7.0022 3.74826 7.00204 3.74826C6.96705 3.78958 6.92461 3.82394 6.87694 3.84953C6.82136 3.88118 6.76073 3.90522 6.71144 3.92927C6.70488 3.93216 6.69855 3.93555 6.6925 3.9394C6.29204 4.13558 5.88017 4.30268 5.47218 4.47992C5.4633 4.48369 5.45571 4.48752 5.44689 4.49129C5.41517 4.50015 5.38252 4.50526 5.34961 4.5065C5.35175 4.48522 5.35512 4.46409 5.35973 4.4432C5.37255 4.35849 5.39112 4.27476 5.4153 4.19257C5.49723 3.90705 5.6313 3.63922 5.81071 3.40269C5.84476 3.35635 5.8819 3.31236 5.92187 3.27104C5.92413 3.27005 5.92594 3.26824 5.92692 3.26597C5.96126 3.23021 6.00247 3.20179 6.04807 3.18243C6.09367 3.16307 6.14271 3.15317 6.19223 3.15332C6.21594 3.1536 6.2396 3.15571 6.26299 3.15963H6.26804C6.4385 3.19591 6.60277 3.25689 6.75567 3.34066C6.8304 3.37348 6.90049 3.41604 6.9641 3.46725L6.96793 3.47102C6.97298 3.47735 6.97928 3.48242 6.98434 3.48876C6.993 3.49744 7.00102 3.50675 7.00833 3.5166C7.0099 3.51804 7.0112 3.51976 7.01216 3.52167C7.01841 3.53023 7.0235 3.5396 7.02727 3.54951C7.03216 3.5592 7.03599 3.56938 7.03868 3.57989C7.04125 3.59067 7.04251 3.60172 7.04244 3.61281C7.04352 3.61992 7.04395 3.62712 7.04374 3.63432Z" fill="black"/>
<path d="M11.4673 8.73779C11.4574 8.74772 11.4481 8.7583 11.4396 8.76944C11.4484 8.75933 11.4585 8.74793 11.4686 8.73779H11.4673ZM9.45996 9.97452C9.4704 9.97281 9.481 9.97238 9.49154 9.97325C9.5289 9.98116 9.56341 9.99911 9.59135 10.0252C9.56438 9.99818 9.53012 9.97969 9.49278 9.97199C9.48178 9.97078 9.47065 9.97164 9.45996 9.97452Z" fill="black"/>
<path d="M13.4792 9.45456C13.472 9.5491 13.4406 9.64021 13.3882 9.71913C13.3529 9.77496 13.3128 9.8275 13.2681 9.87609C13.2047 9.94559 13.1358 10.0099 13.0622 10.0685C12.5961 10.4394 12.188 10.309 11.7648 10.0824C11.7232 10.0584 11.6802 10.0356 11.6385 10.0115H11.6372C11.5955 9.98624 11.5526 9.96219 11.5096 9.93812H11.5084C11.4881 9.92418 11.4667 9.9128 11.4452 9.90014C11.4452 9.9003 11.4452 9.90048 11.4451 9.90063C11.4451 9.90078 11.4449 9.90091 11.4448 9.90103C11.4447 9.90115 11.4446 9.90125 11.4445 9.90131C11.4443 9.90137 11.4441 9.9014 11.444 9.9014C11.3302 10.0521 11.2368 10.2128 11.1117 10.3508C11.1003 10.3622 11.0889 10.3748 11.0763 10.3875C10.9604 10.5098 10.8131 10.5979 10.6506 10.6419C10.5886 10.6593 10.5252 10.6707 10.4611 10.6761C10.3996 10.6799 10.3381 10.6799 10.2766 10.6761C10.2463 10.6736 10.2172 10.6711 10.1869 10.6672C10.1667 10.6647 10.1478 10.6622 10.1275 10.6584C9.86729 10.6141 9.56916 10.5128 9.44413 10.2596C9.41002 10.1888 9.3569 10.0204 9.43907 9.98114C9.44545 9.97697 9.45291 9.97479 9.46053 9.97483C9.47097 9.97312 9.48158 9.97269 9.49212 9.97357C9.52947 9.98147 9.56398 9.99942 9.59192 10.0255C9.66653 10.0996 9.74677 10.1677 9.83194 10.2293C10.2273 10.4166 10.6329 10.204 10.8527 9.86976C10.8796 9.82842 10.9037 9.78529 10.9247 9.74067C10.9465 9.69665 10.9647 9.65093 10.979 9.60395C10.9908 9.56653 11.0005 9.52849 11.0081 9.49C11.0169 9.45079 11.0233 9.41027 11.0283 9.36976C11.0455 9.2536 11.0233 9.13502 10.9652 9.03305C10.9579 9.02196 10.9498 9.01139 10.9411 9.00141C10.9327 8.99046 10.923 8.98067 10.9121 8.97229C10.8924 8.95167 10.8693 8.93454 10.8439 8.92164C10.7918 8.89415 10.7367 8.8729 10.6796 8.85835C10.5575 8.8388 10.4432 8.7853 10.3499 8.70392C10.3353 8.68745 10.3221 8.66965 10.3107 8.65077C10.2984 8.62929 10.2879 8.60685 10.2792 8.58367C10.2545 8.52364 10.2462 8.4581 10.2552 8.3938C10.2571 8.37573 10.2609 8.35792 10.2665 8.34064C10.2741 8.32024 10.2829 8.30036 10.293 8.28112L10.2943 8.27988C10.3024 8.26449 10.3121 8.25005 10.3234 8.23683C10.3331 8.22355 10.3437 8.21086 10.355 8.19885C10.6152 7.92797 11.2999 7.86468 11.6448 8.02291C11.6746 8.03653 11.7029 8.05306 11.7294 8.07227C11.7676 8.09543 11.7989 8.12844 11.8201 8.16785C11.8412 8.20726 11.8513 8.25163 11.8495 8.29632C11.8484 8.31297 11.8458 8.32949 11.8419 8.34571C11.8401 8.35517 11.8376 8.36447 11.8343 8.37352C11.7951 8.46562 11.7291 8.54372 11.6448 8.59758C11.6031 8.62799 11.5614 8.6571 11.5235 8.68998C11.5046 8.70501 11.4864 8.72107 11.4692 8.7381H11.4679C11.458 8.74803 11.4487 8.7586 11.4401 8.76975C11.4272 8.78493 11.4154 8.80101 11.4047 8.81787C11.3951 8.83278 11.3867 8.84844 11.3795 8.86469C11.2986 9.04823 11.4073 9.23937 11.5614 9.39256C11.5879 9.41784 11.6145 9.44318 11.6435 9.46723C11.6713 9.49127 11.6991 9.51278 11.7282 9.53432C11.7711 9.56597 11.8128 9.59382 11.852 9.61786C12.0393 9.73467 12.2583 9.78999 12.4786 9.77609C12.7944 9.75711 12.9245 9.59127 13.1393 9.39256C13.2341 9.3052 13.3629 9.24444 13.4311 9.29762C13.4378 9.30175 13.4434 9.30738 13.4476 9.31407C13.4744 9.35565 13.4856 9.40545 13.4792 9.45456Z" fill="black"/>
<path d="M15.4715 2.65312C15.4517 2.66912 15.4283 2.67999 15.4033 2.68477C15.3624 2.6925 15.321 2.69758 15.2795 2.69997C15.2631 2.70124 15.2467 2.70377 15.2303 2.70504C15.0724 2.72148 14.9131 2.73669 14.7539 2.74429C14.753 2.7449 14.7519 2.74521 14.7508 2.74521C14.7497 2.74521 14.7486 2.7449 14.7476 2.74429H14.7464C14.7462 2.74446 14.7461 2.7446 14.7459 2.74469C14.7456 2.74478 14.7454 2.74481 14.7452 2.74481C14.7449 2.74481 14.7447 2.74478 14.7444 2.74469C14.7442 2.7446 14.744 2.74446 14.7439 2.74429C14.6997 2.74682 14.6554 2.74933 14.61 2.75186H14.5986C14.343 2.76227 14.0871 2.74785 13.8343 2.70881C13.8272 2.70706 13.82 2.7058 13.8128 2.70504C13.7107 2.69287 13.6115 2.66287 13.5197 2.61641C13.5147 2.61387 13.5109 2.61137 13.5058 2.60883C13.4963 2.60397 13.4874 2.59801 13.4793 2.59109C13.4371 2.56011 13.4078 2.51456 13.3972 2.46324C13.3951 2.45242 13.3942 2.44138 13.3946 2.43036C13.3945 2.42484 13.3949 2.41932 13.3959 2.41389C13.406 2.27337 13.5564 2.1126 13.6422 2.02527C13.7142 1.95006 13.7953 1.88415 13.8836 1.82909C13.8911 1.82402 13.9 1.81895 13.9075 1.81388C14.0006 1.75274 14.1065 1.71395 14.2169 1.70056C14.3273 1.68716 14.4394 1.69952 14.5443 1.73665C14.5632 1.74425 14.5834 1.75186 14.6024 1.76073C14.8581 1.87546 15.0887 2.0398 15.2808 2.24426C15.3565 2.32484 15.4254 2.41164 15.4867 2.50376C15.5008 2.5269 15.507 2.55402 15.5042 2.58099C15.5015 2.60796 15.49 2.6333 15.4715 2.65312Z" fill="black"/>
<path d="M9.10535 7.60675C9.1012 7.61914 9.0957 7.63103 9.08894 7.6422C9.06185 7.68773 9.01924 7.7219 8.96896 7.7384C8.95501 7.74352 8.94062 7.74733 8.92597 7.74978C8.91079 7.75231 8.89439 7.75484 8.87798 7.75611C8.86157 7.75738 8.84516 7.75865 8.82869 7.75865C8.53815 7.75865 8.22991 7.55356 7.97471 7.45739C7.94436 7.44599 7.91278 7.43585 7.8812 7.42575C7.83956 7.41307 7.79786 7.40294 7.75487 7.3928C7.72964 7.38776 7.70435 7.3827 7.67905 7.37889C7.55933 7.35872 7.43783 7.35108 7.31653 7.35612C7.29799 7.35527 7.27943 7.3557 7.26095 7.35739C7.22178 7.35992 7.18137 7.36245 7.14214 7.36752C7.13838 7.36752 7.13585 7.36876 7.13209 7.36876C7.01334 7.38143 6.86172 7.45609 6.74674 7.43965C6.61917 7.42068 6.62546 7.32951 6.69245 7.26875C6.70453 7.25724 6.71812 7.24741 6.73286 7.23961C6.74045 7.23584 6.74927 7.23207 6.75685 7.22827C7.3416 6.97308 7.99835 6.9367 8.60761 7.12573C8.76386 7.16177 8.90961 7.23372 9.03336 7.33588C9.04607 7.34818 9.0575 7.36174 9.06748 7.37636C9.07864 7.39031 9.08799 7.40563 9.0953 7.42194C9.09653 7.42574 9.09906 7.43081 9.10029 7.43585C9.10237 7.44034 9.10407 7.44501 9.10535 7.44979C9.12373 7.50049 9.12372 7.55605 9.10535 7.60675Z" fill="black"/>
<path d="M15.3622 6.34321C15.3621 6.35502 15.3594 6.36667 15.3545 6.37739C15.3486 6.3908 15.34 6.40287 15.3293 6.41284C15.2737 6.46726 15.1663 6.42041 15.1006 6.41538C14.6736 6.37106 14.2933 6.55207 13.9636 6.80143C13.9207 6.83308 13.879 6.86599 13.8385 6.90017C13.812 6.92171 13.7842 6.94576 13.7552 6.97107C13.7413 6.98371 13.7261 6.99636 13.711 7.00775C13.6946 7.02039 13.6794 7.0318 13.663 7.0432C13.6191 7.0852 13.5624 7.11136 13.502 7.11755C13.4416 7.12374 13.3809 7.10961 13.3294 7.07738C13.1779 6.97104 13.2271 6.76345 13.3408 6.64317C13.3491 6.63295 13.3584 6.62362 13.3686 6.61533C13.4159 6.57558 13.4652 6.5384 13.5164 6.50395C13.5919 6.45184 13.6708 6.4049 13.7527 6.36346C13.7994 6.34068 13.8462 6.31914 13.8942 6.30016C14.1579 6.19329 14.4375 6.13126 14.7216 6.11662C14.901 6.10395 15.1158 6.08624 15.2674 6.20269C15.2792 6.21137 15.2902 6.22111 15.3002 6.2318C15.306 6.23697 15.3115 6.24247 15.3166 6.24828C15.3325 6.26366 15.345 6.2822 15.3533 6.3027C15.3592 6.31537 15.3622 6.32921 15.3622 6.34321Z" fill="black"/>
<path d="M18.4588 7.9379C18.445 7.94569 18.4307 7.95247 18.4159 7.95818C18.3706 7.97494 18.3227 7.98309 18.2744 7.98222C18.2106 7.98045 18.1471 7.97239 18.0849 7.95818C18.0217 7.94424 17.9586 7.92906 17.9018 7.92146C17.8512 7.91386 17.8007 7.90753 17.7489 7.90372C17.6897 7.89889 17.6302 7.89719 17.5708 7.89866C17.5413 7.89762 17.5117 7.89846 17.4823 7.90119C17.452 7.90249 17.423 7.90502 17.3926 7.90879C17.3854 7.90862 17.3783 7.90904 17.3711 7.91006C17.3396 7.91259 17.3067 7.91766 17.2739 7.92273C17.2411 7.92779 17.2095 7.93284 17.1779 7.93917C17.1551 7.94423 17.1337 7.94931 17.1109 7.95438C17.0755 7.96325 17.0401 7.97335 17.0036 7.98349C16.8828 8.02566 16.7544 8.04162 16.627 8.03031C16.5664 8.01851 16.5116 7.98637 16.4716 7.93917C16.4616 7.92675 16.4531 7.91314 16.4464 7.89866C16.4439 7.89204 16.4418 7.88528 16.4401 7.87841C16.4351 7.85803 16.4374 7.83657 16.4464 7.81766C16.4552 7.80473 16.4658 7.79321 16.478 7.78348C16.5002 7.76956 16.5245 7.7593 16.55 7.7531C17.0338 7.62651 17.5089 7.47335 18.0142 7.47462C18.0533 7.47462 18.0938 7.47462 18.1367 7.47588C18.1408 7.47461 18.1453 7.47461 18.1494 7.47588C18.1645 7.47588 18.1797 7.47589 18.1948 7.47715C18.2403 7.47818 18.2856 7.4837 18.33 7.49362C18.3918 7.50284 18.4504 7.52718 18.5005 7.56449C18.5046 7.56749 18.5085 7.57088 18.5119 7.57462C18.5155 7.5769 18.5185 7.57993 18.5208 7.58349C18.5455 7.60855 18.5638 7.63917 18.5743 7.67278C18.5848 7.70639 18.5871 7.74202 18.581 7.77671C18.575 7.81139 18.5607 7.84413 18.5395 7.87217C18.5182 7.90021 18.4906 7.92274 18.4588 7.9379Z" fill="black"/>
<path d="M18.7178 8.79664C18.7069 8.8066 18.695 8.81551 18.6824 8.82325C18.6628 8.83572 18.6415 8.84551 18.6193 8.85236C18.6041 8.8574 18.589 8.8612 18.5738 8.865C18.5341 8.87152 18.4937 8.87237 18.4538 8.86754C18.4248 8.86374 18.3969 8.8574 18.3679 8.85236C18.311 8.83969 18.2554 8.82575 18.1986 8.81058C18.0571 8.77261 17.9168 8.72831 17.7729 8.70297C17.5219 8.65451 17.2654 8.64257 17.011 8.66752C17.0035 8.66879 16.9946 8.66879 16.9858 8.67006C16.9791 8.67115 16.9724 8.67158 16.9656 8.67133C16.9202 8.6745 16.8746 8.6745 16.8291 8.67133C16.8079 8.66887 16.7868 8.66508 16.766 8.65995C16.7559 8.65616 16.7445 8.65235 16.7357 8.64855C16.7218 8.64222 16.7089 8.63367 16.6977 8.62324C16.6931 8.6172 16.6889 8.61085 16.6851 8.60423C16.6836 8.60137 16.6824 8.59841 16.6813 8.59536C16.6779 8.58865 16.6758 8.58135 16.675 8.57385V8.57008C16.674 8.55651 16.6763 8.54289 16.6815 8.53034C16.6868 8.5178 16.6949 8.50669 16.7053 8.49792C16.7204 8.48313 16.7379 8.47112 16.7571 8.46248C16.7828 8.44986 16.8094 8.43928 16.8367 8.43083C16.8746 8.41943 16.9112 8.41185 16.9353 8.40679C17.3569 8.30485 17.7946 8.28849 18.2226 8.35867C18.2605 8.365 18.306 8.37261 18.3565 8.38398C18.3805 8.38904 18.4058 8.39411 18.4311 8.40172C18.4449 8.40425 18.4576 8.40802 18.4715 8.41185C18.5217 8.42628 18.5704 8.44578 18.6167 8.47008C18.6388 8.48132 18.6595 8.4949 18.6787 8.51056C18.7055 8.5316 18.7279 8.55787 18.7444 8.58779C18.7481 8.59666 18.7519 8.60549 18.7545 8.6131C18.7687 8.6436 18.7729 8.67788 18.7663 8.71091C18.7597 8.74395 18.7427 8.77399 18.7178 8.79664Z" fill="black"/>
<path d="M5.97606 9.16853L5.97476 9.16976C5.96971 9.18777 5.95854 9.20345 5.94318 9.21408C5.8552 9.24992 5.75963 9.26299 5.66528 9.25206C5.58189 9.25333 5.49849 9.25333 5.41509 9.25586C5.33551 9.25713 5.25471 9.25963 5.17507 9.26724C5.11826 9.27103 5.06138 9.27737 5.00451 9.28498C4.79822 9.32592 4.5961 9.38564 4.40067 9.46345C4.29833 9.49636 4.14548 9.5318 4.07849 9.41786C4.01791 9.31662 4.08231 9.22295 4.16694 9.15459C4.17453 9.14953 4.18212 9.14319 4.18971 9.13812C4.22346 9.11405 4.25892 9.09248 4.29581 9.07359C4.67104 8.88118 5.07909 8.88371 5.48331 8.93307C5.52884 8.93813 5.57553 8.94447 5.62106 8.95078C5.62482 8.95204 5.62864 8.95204 5.6337 8.95331C5.64252 8.95458 5.65387 8.95585 5.66528 8.95838C5.70065 8.96325 5.73566 8.97044 5.77009 8.97989C5.78077 8.98225 5.79132 8.98521 5.80167 8.98876C5.84105 8.9988 5.87859 9.01504 5.91289 9.03688H5.91412C5.92376 9.04301 5.93265 9.05023 5.94065 9.05838C5.94824 9.06471 5.95453 9.07229 5.96212 9.07989V9.08116C5.96806 9.08861 5.97237 9.09724 5.97476 9.10647C5.98219 9.12641 5.98265 9.14829 5.97606 9.16853Z" fill="black"/>
<path d="M5.97253 9.63301C5.96988 9.64215 5.96559 9.65072 5.95989 9.65833C5.94667 9.67813 5.92946 9.69495 5.90936 9.70768C5.86413 9.73726 5.81347 9.75749 5.76033 9.7672C5.68952 9.78111 5.61377 9.78491 5.54172 9.79251C5.53748 9.79224 5.53323 9.79266 5.52914 9.79378C5.50494 9.79574 5.48088 9.79912 5.45709 9.80392C5.44213 9.8055 5.42734 9.80846 5.41292 9.81275C5.38763 9.81908 5.3611 9.82669 5.33581 9.83556C5.16191 9.89364 4.99292 9.96559 4.83049 10.0507C4.70039 10.1153 4.54371 10.2356 4.39215 10.2318C4.28222 10.228 4.15207 10.1204 4.20265 10.0166C4.2077 10.0077 4.21277 10.0001 4.21776 9.99249C4.22473 9.9843 4.23234 9.97669 4.24053 9.96972C4.27593 9.9368 4.31381 9.90643 4.35168 9.87731C4.38962 9.84946 4.42879 9.82288 4.46919 9.79755C4.48937 9.78491 4.51089 9.77227 4.53236 9.76087C4.57276 9.73679 4.61446 9.71528 4.6574 9.69504C4.67886 9.6849 4.70162 9.6748 4.72439 9.66593C4.76862 9.64692 4.81284 9.63048 4.85831 9.61404C4.90253 9.59757 4.948 9.58363 4.99469 9.56972C5.04022 9.55705 5.08697 9.54438 5.13244 9.53428C5.16026 9.52795 5.18801 9.5216 5.21577 9.51657C5.23477 9.51273 5.25373 9.50893 5.27265 9.50516C5.284 9.50263 5.29665 9.50136 5.30929 9.49883C5.3447 9.49249 5.38257 9.48492 5.42174 9.47859C5.44827 9.47352 5.47609 9.46972 5.50261 9.46592C5.57019 9.4546 5.63881 9.45077 5.70722 9.45451C5.73708 9.45554 5.76673 9.45979 5.79568 9.46718C5.81031 9.46963 5.82469 9.47345 5.83861 9.47859C5.85312 9.48293 5.86711 9.48887 5.88031 9.49629C5.89345 9.50174 5.90578 9.50898 5.91695 9.5178C5.92423 9.5226 5.93101 9.52811 5.93719 9.53428C5.95252 9.54507 5.96417 9.56036 5.9705 9.57804C5.97682 9.59571 5.97752 9.61491 5.97253 9.63301Z" fill="black"/>
<path d="M18.2538 9.46123C18.251 9.47629 18.2459 9.49081 18.2387 9.50428C18.236 9.51262 18.2317 9.52035 18.2261 9.52705C18.221 9.53338 18.2147 9.54099 18.2084 9.54859C18.1853 9.57393 18.1589 9.59607 18.13 9.61442C18.0125 9.68908 17.8736 9.60428 17.7687 9.54099C17.7498 9.52959 17.7309 9.51818 17.7132 9.50808C17.6777 9.48654 17.6411 9.4663 17.6058 9.44732H17.6045C17.5691 9.42705 17.5325 9.40934 17.4958 9.3929C17.4387 9.36639 17.3795 9.34438 17.319 9.32707C17.2836 9.31693 16.8351 9.19796 16.7277 9.09795C16.7076 9.07894 16.7 9.0625 16.7063 9.04603C16.7079 9.03966 16.7114 9.03393 16.7164 9.02959C16.7285 9.01982 16.7422 9.01212 16.7568 9.00678C17.0436 8.89793 17.4225 8.98907 17.7157 9.04983C17.7333 9.05363 17.7548 9.05996 17.7801 9.06757C17.8079 9.07644 17.8369 9.08908 17.8698 9.10172C17.8811 9.10555 17.8912 9.11059 17.9026 9.11565H17.9039C17.9329 9.12833 17.9633 9.1435 17.9936 9.15997C18.0087 9.16754 18.0239 9.17641 18.039 9.18528C18.0676 9.20208 18.095 9.22068 18.1212 9.24097C18.2071 9.30553 18.2665 9.38276 18.2538 9.46123Z" fill="black"/>
<path d="M5.9149 10.3586C5.90011 10.3722 5.88452 10.3849 5.86821 10.3966C5.86185 10.4004 5.85556 10.4041 5.8505 10.4079C5.83786 10.4143 5.82521 10.4219 5.81263 10.4282C5.79998 10.4345 5.78733 10.4396 5.77599 10.4459C5.75699 10.4535 5.74058 10.4611 5.7254 10.4674C5.61048 10.5155 5.50056 10.5662 5.39316 10.6231C5.32241 10.6598 5.25425 10.6991 5.18602 10.7421C5.08227 10.8076 4.98268 10.8795 4.88784 10.9573C4.80444 11.0269 4.68822 11.1244 4.57201 11.0624C4.55804 11.0556 4.54525 11.0467 4.53413 11.0358C4.52019 11.023 4.509 11.0075 4.50125 10.9902C4.50002 10.9852 4.49749 10.9788 4.49626 10.9738C4.49436 10.968 4.49308 10.9621 4.49243 10.9561C4.48982 10.8972 4.50819 10.8393 4.54425 10.7928C4.55584 10.7759 4.5685 10.7599 4.58212 10.7447C4.58905 10.7364 4.59667 10.7288 4.60488 10.7219C4.65288 10.6776 4.70216 10.6358 4.75392 10.5965C4.80905 10.5531 4.86641 10.5125 4.92577 10.475C5.07704 10.3792 5.23901 10.3014 5.40834 10.2434C5.45127 10.2282 5.49427 10.2156 5.5385 10.2029C5.56625 10.1953 5.60666 10.1826 5.65218 10.1725L5.68629 10.1649C5.70899 10.1611 5.73299 10.1573 5.75699 10.1548C5.83533 10.1484 5.90985 10.1611 5.94019 10.2282C5.95064 10.2497 5.95382 10.2741 5.94926 10.2976C5.9447 10.3211 5.93264 10.3425 5.9149 10.3586Z" fill="black"/>
<path d="M3.01884 12.6786C2.9896 12.6976 2.95521 12.707 2.92039 12.7057C2.88557 12.7043 2.85202 12.6922 2.82435 12.671C2.79913 12.6556 2.77722 12.6354 2.75989 12.6115C2.69316 12.5226 2.6356 12.4272 2.58809 12.3266C2.4668 12.0821 2.39347 11.8166 2.37207 11.5444C2.37241 11.4941 2.39249 11.446 2.42796 11.4105C2.46342 11.375 2.51142 11.3548 2.56157 11.3545C2.61151 11.3555 2.65912 11.3758 2.69444 11.4112C2.72976 11.4466 2.75006 11.4943 2.75107 11.5444C2.7523 11.5659 2.75483 11.5874 2.75736 11.6089V11.6102C2.75859 11.6165 2.75859 11.6216 2.75989 11.6266C2.76012 11.6318 2.76097 11.6369 2.76242 11.6418C2.76871 11.6861 2.77759 11.7292 2.78771 11.7722C2.80686 11.8528 2.83046 11.9322 2.8584 12.0102C2.86475 12.0254 2.87104 12.0418 2.8774 12.057C2.87739 12.0584 2.87782 12.0597 2.87863 12.0608C2.88368 12.0709 2.89504 12.0963 2.89634 12.1001C2.90139 12.1102 2.90643 12.1203 2.91145 12.1304C2.92286 12.1545 2.93551 12.1785 2.94809 12.2026C2.98593 12.2704 3.0277 12.3359 3.07319 12.3988C3.07709 12.406 3.08175 12.4128 3.08707 12.4191C3.11178 12.4627 3.11844 12.5142 3.1057 12.5627C3.09295 12.6112 3.06179 12.6528 3.01884 12.6786Z" fill="black"/>
<path d="M2.47512 12.876C2.47189 12.9193 2.45355 12.9601 2.4233 12.9912C2.39062 13.0233 2.34755 13.0426 2.30191 13.0456C2.25627 13.0486 2.21107 13.0352 2.17447 13.0077C2.16783 13.0026 2.16151 12.9971 2.15553 12.9912C2.07842 12.9085 2.00985 12.8182 1.95086 12.7216C1.83216 12.5332 1.75147 12.3234 1.71337 12.1039C1.69586 12.0095 1.68655 11.9138 1.68555 11.8178C1.68555 11.7674 1.70553 11.7192 1.74106 11.6836C1.7766 11.6479 1.82479 11.6279 1.87504 11.6279C1.9253 11.6279 1.97349 11.6479 2.00903 11.6836C2.04456 11.7192 2.06454 11.7674 2.06454 11.8178C2.06454 11.8609 2.06707 11.9051 2.07083 11.9482V11.9545C2.07191 11.9603 2.07234 11.9663 2.07213 11.9722C2.07213 11.9722 2.07336 11.9786 2.07466 11.9887C2.07842 12.0115 2.08225 12.0343 2.0873 12.057C2.10602 12.1463 2.13178 12.2339 2.16435 12.3191V12.3203L2.16941 12.3305C2.17007 12.3316 2.17049 12.3329 2.17064 12.3342C2.17317 12.3406 2.17569 12.3469 2.17823 12.352C2.18835 12.3722 2.19846 12.3925 2.20858 12.4127C2.22751 12.4495 2.24768 12.4862 2.26921 12.5216C2.27174 12.5254 2.27298 12.5279 2.27551 12.5317C2.28815 12.5507 2.3008 12.5697 2.31344 12.5887C2.31995 12.5993 2.32712 12.6094 2.33491 12.6191L2.33867 12.6229C2.33867 12.6241 2.33997 12.6241 2.33997 12.6254C2.3412 12.6267 2.3412 12.6267 2.3412 12.6279C2.36773 12.6608 2.39555 12.6912 2.4233 12.7229C2.44599 12.7466 2.46211 12.7758 2.47006 12.8077V12.8089C2.47741 12.8305 2.47915 12.8536 2.47512 12.876Z" fill="black"/>
<path d="M3.63468 12.1344C3.59885 12.1694 3.5508 12.189 3.50076 12.189C3.45073 12.189 3.40267 12.1694 3.36684 12.1344C3.32172 12.0898 3.28491 12.0375 3.25815 11.98C3.25471 11.9739 3.25176 11.9675 3.24933 11.961C3.21466 11.8872 3.18634 11.8105 3.1647 11.7319C3.12872 11.6089 3.10086 11.4838 3.0813 11.3572C3.07035 11.3075 3.07705 11.2556 3.10024 11.2103C3.11901 11.1781 3.1468 11.1522 3.18018 11.1357C3.21356 11.1193 3.25104 11.113 3.28795 11.1177C3.32485 11.1225 3.35958 11.138 3.38775 11.1623C3.41593 11.1867 3.43632 11.2188 3.44642 11.2547V11.2559C3.46546 11.3763 3.49162 11.4955 3.52476 11.6129C3.53487 11.6458 3.54499 11.6787 3.55634 11.7103C3.56139 11.7255 3.56769 11.742 3.57275 11.7585C3.57275 11.7597 3.57398 11.7597 3.57398 11.761C3.57528 11.7622 3.57528 11.7635 3.57657 11.7661C3.57781 11.7698 3.58034 11.7749 3.58163 11.7787C3.58004 11.7773 3.57874 11.7755 3.57781 11.7736C3.58033 11.7774 3.58163 11.7812 3.5841 11.785C3.59169 11.7989 3.59804 11.8116 3.60686 11.8255C3.60932 11.8313 3.61227 11.8368 3.61568 11.842L3.61698 11.8433V11.8445L3.62074 11.8483C3.62074 11.8496 3.62074 11.8496 3.62204 11.8508C3.62204 11.8521 3.62327 11.8521 3.62327 11.8534C3.62709 11.8571 3.63086 11.8622 3.63468 11.866C3.66933 11.9021 3.68866 11.9502 3.68866 12.0002C3.68866 12.0503 3.66932 12.0984 3.63468 12.1344Z" fill="black"/>
<path d="M18.9621 4.81054C18.9136 4.82306 18.8621 4.8162 18.8185 4.79141C18.7749 4.76662 18.7426 4.72584 18.7284 4.67765C18.6791 4.51055 18.6298 4.34219 18.5641 4.17889V4.17762C18.5629 4.17762 18.5629 4.17762 18.5629 4.17635C18.5629 4.17509 18.5616 4.17508 18.5616 4.17382C18.5587 4.17122 18.5569 4.16761 18.5566 4.16371C18.5553 4.16046 18.5544 4.15705 18.554 4.15358C18.5452 4.1346 18.5364 4.11687 18.5275 4.09789C18.5111 4.06244 18.4922 4.02827 18.4732 3.99535C18.453 3.96117 18.4327 3.92825 18.41 3.89661C18.3999 3.88014 18.3886 3.86623 18.3772 3.85102V3.84979C18.3709 3.84218 18.3645 3.83585 18.3582 3.82825C18.3239 3.79206 18.3047 3.74404 18.3047 3.69409C18.3047 3.64414 18.3239 3.59609 18.3582 3.5599C18.3757 3.54216 18.3966 3.52808 18.4196 3.51846C18.4426 3.50885 18.4672 3.50391 18.4922 3.50391C18.5171 3.50391 18.5417 3.50885 18.5647 3.51846C18.5877 3.52808 18.6086 3.54216 18.6261 3.5599C18.7489 3.70762 18.8478 3.87378 18.9191 4.0523C18.9865 4.22375 19.0447 4.39868 19.0935 4.57635C19.1065 4.62484 19.1001 4.67652 19.0755 4.7203C19.051 4.76408 19.0102 4.79647 18.9621 4.81054Z" fill="black"/>
<path d="M19.7866 4.44567C19.7992 4.55074 19.6906 4.63048 19.5971 4.63554C19.5473 4.6341 19.4999 4.61364 19.4647 4.57834C19.4295 4.54304 19.409 4.49557 19.4076 4.44567V4.43553C19.4065 4.42531 19.4048 4.41516 19.4025 4.40515C19.3988 4.38111 19.395 4.35833 19.3899 4.33552C19.381 4.28744 19.3697 4.24059 19.3571 4.19377C19.3333 4.09921 19.3038 4.00621 19.2687 3.91529C19.2636 3.90008 19.2572 3.88364 19.251 3.86843C19.2492 3.86569 19.248 3.8627 19.2472 3.85957C19.2454 3.85685 19.2441 3.85385 19.2434 3.8507C19.2421 3.84946 19.2408 3.84816 19.2408 3.84693L19.2257 3.81275C19.208 3.77477 19.189 3.73678 19.1689 3.70133C19.1511 3.67095 19.1334 3.64311 19.1132 3.614V3.61273L19.112 3.61146C19.1107 3.6102 19.1094 3.60893 19.1094 3.60766C19.1093 3.60766 19.1091 3.60763 19.109 3.60757C19.1088 3.60751 19.1087 3.60741 19.1086 3.60729C19.1085 3.60717 19.1084 3.60704 19.1083 3.60689C19.1083 3.60674 19.1082 3.60656 19.1082 3.6064L19.1006 3.59882C19.0916 3.5877 19.0819 3.57713 19.0716 3.56718C19.0359 3.5316 19.0157 3.48328 19.0156 3.43284C19.0155 3.38239 19.0354 3.33397 19.0709 3.29822C19.1064 3.26246 19.1547 3.24231 19.205 3.24219C19.2553 3.24206 19.3037 3.26196 19.3394 3.29754C19.4705 3.44241 19.5692 3.61377 19.6287 3.80007C19.7089 4.00752 19.762 4.22454 19.7866 4.44567Z" fill="black"/>
<path d="M18.2398 5.02802C18.1913 5.04098 18.1396 5.0343 18.0959 5.00945C18.0521 4.98459 18.0199 4.94353 18.0061 4.8951C17.9923 4.83367 17.9733 4.77353 17.9492 4.71536C17.9341 4.67488 17.9176 4.6331 17.9012 4.59258C17.8987 4.58624 17.8962 4.57994 17.8924 4.57234C17.8915 4.56926 17.8902 4.56629 17.8886 4.56347C17.8882 4.56022 17.8869 4.55716 17.8848 4.5546C17.8785 4.53942 17.8709 4.52295 17.8646 4.50778C17.8073 4.36408 17.7363 4.2263 17.6524 4.09638C17.6397 4.07485 17.6313 4.05102 17.6278 4.02626C17.6243 4.00149 17.6258 3.97627 17.632 3.95206C17.6383 3.92784 17.6492 3.90511 17.6642 3.88515C17.6793 3.86518 17.6981 3.84839 17.7196 3.83573C17.7412 3.82307 17.765 3.81477 17.7897 3.81135C17.8144 3.80793 17.8396 3.80946 17.8637 3.8158C17.8879 3.82214 17.9105 3.83318 17.9304 3.84831C17.9503 3.86344 17.967 3.88236 17.9796 3.90397C18.0656 4.03744 18.1384 4.17906 18.1968 4.32677C18.2704 4.47636 18.3292 4.6328 18.3725 4.79386C18.3847 4.84249 18.3777 4.89398 18.353 4.93759C18.3283 4.98121 18.2878 5.0136 18.2398 5.02802Z" fill="black"/>
<path fill-rule="evenodd" clip-rule="evenodd" d="M9.90313 23.7573C10.6145 23.3219 11.1485 22.6477 11.4103 21.8547C11.5741 21.3649 11.6287 20.8451 11.5704 20.3318C11.5122 19.8185 11.3424 19.3243 11.073 18.8838L7.69362 13.3521C7.3747 12.8356 6.92958 12.4091 6.40038 12.113C5.87118 11.8168 5.27538 11.6608 4.66924 11.6597C4.61613 11.6597 4.56437 11.6609 4.51133 11.6635C4.40899 11.6672 4.30665 11.6774 4.20432 11.6913C4.17105 11.6956 4.13872 11.7008 4.10574 11.7062C4.09988 11.7071 4.09401 11.7081 4.0881 11.709C4.06281 11.7128 4.03881 11.7166 4.01358 11.7217C3.97059 11.7293 3.92766 11.7381 3.88596 11.7483C3.87444 11.7506 3.86305 11.7536 3.85185 11.7571C3.80262 11.7672 3.75457 11.7812 3.70658 11.7951C3.6737 11.804 3.63965 11.8141 3.60677 11.8255L3.60449 11.8261C3.59137 11.8297 3.57819 11.8334 3.56507 11.8381C3.55699 11.841 3.54887 11.8438 3.54074 11.8467C3.50183 11.8603 3.46246 11.8741 3.42486 11.8888C3.36545 11.9103 3.30611 11.9343 3.24924 11.9609C3.21389 11.9749 3.17978 11.9913 3.14567 12.0078C3.07745 12.0394 3.01046 12.0749 2.94482 12.1116L2.91065 12.1306C2.90253 12.1354 2.89453 12.1401 2.88659 12.1447C2.86738 12.156 2.84862 12.167 2.82984 12.1786L2.74897 12.228L2.73256 12.2382L2.58729 12.3268L2.26893 12.5217L2.24494 12.5369L2.10849 12.6217L2.06426 12.6483C2.03138 12.6685 1.99857 12.6888 1.96575 12.7116C1.96319 12.7135 1.96063 12.7151 1.95807 12.7167C1.95557 12.7183 1.95307 12.7198 1.95057 12.7217C1.77223 12.8392 1.60555 12.9735 1.45283 13.123C1.44507 13.1291 1.43786 13.1358 1.43131 13.1432C1.16287 13.407 0.938885 13.7127 0.768064 14.0483C0.489769 14.5894 0.355222 15.1932 0.377348 15.8016C0.399474 16.4099 0.577529 17.0023 0.894396 17.5217L4.27377 23.0548C4.59297 23.5709 5.03814 23.997 5.56732 24.2929C6.09649 24.5888 6.69222 24.7447 7.29821 24.7459C7.94732 24.7459 8.58383 24.5663 9.13755 24.2269L9.90313 23.7573ZM2.59133 13.5122L3.35608 13.0431C4.54627 12.3131 6.10176 12.6881 6.83031 13.8806L10.2102 19.4131C10.9387 20.6057 10.5645 22.1642 9.37429 22.8943L8.60953 23.3633C7.41934 24.0933 5.86386 23.7184 5.1353 22.5258L1.75544 16.9934C1.02688 15.8008 1.40114 14.2422 2.59133 13.5122Z" fill="url(#paint3_linear_4333_288)"/>
<path d="M7.05448 3.73441C7.0547 3.74162 7.05426 3.74883 7.05318 3.75595V3.75722C7.05197 3.76449 7.05028 3.77168 7.04813 3.77873C7.04436 3.7914 7.03931 3.80278 7.03425 3.81544C7.02789 3.82558 7.0216 3.83695 7.01401 3.84709C7.01402 3.84726 7.01401 3.8474 7.01395 3.84755C7.01389 3.84771 7.01376 3.84787 7.01364 3.84799C7.01353 3.84811 7.01343 3.8482 7.01327 3.84827C7.01312 3.84833 7.01295 3.84836 7.01278 3.84836C6.97779 3.88968 6.93535 3.92403 6.88768 3.94963C6.8321 3.98128 6.77147 4.00532 6.72218 4.02936C6.71562 4.03226 6.70929 4.03565 6.70324 4.0395C6.30278 4.23568 5.89091 4.40278 5.48292 4.58002C5.47404 4.58379 5.46645 4.58762 5.45763 4.59139C5.42591 4.60025 5.39326 4.60535 5.36035 4.60659C5.36249 4.58532 5.36587 4.56418 5.37047 4.5433C5.3833 4.45859 5.40187 4.37485 5.42605 4.29267C5.50798 4.00714 5.64204 3.73932 5.82145 3.50279C5.8555 3.45645 5.89264 3.41246 5.93261 3.37113C5.93487 3.37015 5.93668 3.36833 5.93767 3.36607C5.972 3.33031 6.01322 3.30189 6.05882 3.28253C6.10441 3.26317 6.15345 3.25326 6.20297 3.25342C6.22669 3.2537 6.25034 3.25581 6.27373 3.25972H6.27879C6.44924 3.29601 6.61351 3.35699 6.76641 3.44076C6.84115 3.47358 6.91123 3.51614 6.97484 3.56735L6.97867 3.57112C6.98372 3.57744 6.99002 3.58252 6.99508 3.58885C7.00374 3.59754 7.01176 3.60684 7.01907 3.6167C7.02065 3.61814 7.02194 3.61986 7.0229 3.62177C7.02915 3.63033 7.03424 3.63969 7.03801 3.64961C7.04291 3.65929 7.04673 3.66948 7.04942 3.67999C7.05199 3.69077 7.05325 3.70182 7.05318 3.7129C7.05426 3.72002 7.05469 3.72722 7.05448 3.73441Z" fill="#DA8029"/>
<path d="M11.482 8.83789C11.472 8.84782 11.4628 8.85839 11.4542 8.86954C11.463 8.85943 11.4732 8.84803 11.4833 8.83789H11.482ZM9.47461 10.0746C9.48505 10.0729 9.49565 10.0725 9.50619 10.0734C9.54355 10.0813 9.57806 10.0992 9.606 10.1253C9.57903 10.0983 9.54476 10.0798 9.50743 10.0721C9.49643 10.0709 9.48529 10.0717 9.47461 10.0746Z" fill="white"/>
<path d="M13.4938 9.55465C13.4866 9.6492 13.4553 9.74031 13.4028 9.81923C13.3676 9.87506 13.3274 9.92759 13.2828 9.97619C13.2193 10.0457 13.1505 10.11 13.0769 10.1686C12.6107 10.5395 12.2027 10.4091 11.7794 10.1825C11.7378 10.1585 11.6948 10.1357 11.6531 10.1116H11.6519C11.6102 10.0863 11.5672 10.0623 11.5242 10.0382H11.523C11.5028 10.0243 11.4813 10.0129 11.4598 10.0002C11.4599 10.0004 11.4598 10.0006 11.4598 10.0007C11.4597 10.0009 11.4596 10.001 11.4595 10.0011C11.4594 10.0012 11.4593 10.0013 11.4591 10.0014C11.459 10.0015 11.4588 10.0015 11.4586 10.0015C11.3449 10.1522 11.2514 10.3129 11.1263 10.4509C11.115 10.4623 11.1036 10.4749 11.091 10.4876C10.975 10.6099 10.8277 10.698 10.6652 10.742C10.6033 10.7594 10.5398 10.7708 10.4757 10.7762C10.4143 10.78 10.3527 10.78 10.2913 10.7762C10.2609 10.7737 10.2319 10.7711 10.2016 10.7673C10.1814 10.7648 10.1624 10.7623 10.1422 10.7585C9.88194 10.7142 9.58381 10.6129 9.45877 10.3597C9.42466 10.2888 9.37155 10.1205 9.45372 10.0812C9.4601 10.0771 9.46756 10.0749 9.47518 10.0749C9.48562 10.0732 9.49623 10.0728 9.50677 10.0737C9.54412 10.0816 9.57863 10.0995 9.60657 10.1256C9.68118 10.1997 9.76142 10.2678 9.84659 10.3294C10.242 10.5167 10.6475 10.304 10.8674 9.96986C10.8943 9.92852 10.9183 9.88539 10.9393 9.84077C10.9611 9.79675 10.9793 9.75102 10.9937 9.70405C11.0054 9.66662 11.0151 9.62859 11.0227 9.5901C11.0316 9.55089 11.0379 9.51037 11.043 9.46985C11.0602 9.3537 11.0379 9.23511 10.9798 9.13315C10.9725 9.12206 10.9645 9.11149 10.9558 9.1015C10.9474 9.09056 10.9376 9.08077 10.9267 9.07239C10.907 9.05177 10.884 9.03464 10.8585 9.02174C10.8065 8.99424 10.7513 8.973 10.6943 8.95845C10.5721 8.9389 10.4579 8.8854 10.3646 8.80402C10.3499 8.78754 10.3368 8.76975 10.3254 8.75086C10.3131 8.72938 10.3025 8.70694 10.2938 8.68377C10.2691 8.62374 10.2608 8.5582 10.2698 8.49389C10.2718 8.47583 10.2756 8.45802 10.2812 8.44074C10.2887 8.42034 10.2976 8.40046 10.3077 8.38122L10.309 8.37998C10.317 8.36459 10.3268 8.35015 10.338 8.33693C10.3478 8.32364 10.3583 8.31096 10.3696 8.29895C10.6298 8.02807 11.3146 7.96478 11.6595 8.12301C11.6892 8.13663 11.7176 8.15316 11.7441 8.17236C11.7823 8.19553 11.8136 8.22854 11.8347 8.26795C11.8558 8.30736 11.866 8.35173 11.8641 8.39642C11.863 8.41307 11.8605 8.42959 11.8565 8.44581C11.8548 8.45526 11.8522 8.46456 11.849 8.47362C11.8098 8.56572 11.7437 8.64382 11.6595 8.69768C11.6178 8.72809 11.5761 8.7572 11.5382 8.79008C11.5192 8.80511 11.5011 8.82117 11.4838 8.8382H11.4825C11.4726 8.84813 11.4633 8.8587 11.4548 8.86984C11.4419 8.88503 11.43 8.90111 11.4194 8.91796C11.4098 8.93288 11.4013 8.94854 11.3942 8.96478C11.3133 9.14832 11.422 9.33947 11.5761 9.49266C11.6026 9.51794 11.6291 9.54328 11.6582 9.56733C11.686 9.59137 11.7137 9.61288 11.7429 9.63442C11.7858 9.66607 11.8275 9.69391 11.8666 9.71795C12.0539 9.83477 12.273 9.89008 12.4932 9.87618C12.809 9.85721 12.9392 9.69137 13.154 9.49266C13.2487 9.40529 13.3775 9.34454 13.4457 9.39772C13.4524 9.40185 13.4581 9.40748 13.4622 9.41416C13.4891 9.45574 13.5003 9.50555 13.4938 9.55465Z" fill="#DA8029"/>
<path d="M15.4832 2.75322C15.4634 2.76922 15.44 2.78009 15.415 2.78486C15.3741 2.7926 15.3328 2.79768 15.2912 2.80007C15.2748 2.80133 15.2584 2.80387 15.242 2.80514C15.0841 2.82158 14.9249 2.83678 14.7657 2.84439C14.7647 2.845 14.7636 2.84531 14.7625 2.84531C14.7614 2.84531 14.7603 2.845 14.7594 2.84439H14.7581C14.758 2.84455 14.7578 2.8447 14.7576 2.84479C14.7574 2.84488 14.7571 2.84491 14.7569 2.84491C14.7567 2.84491 14.7564 2.84488 14.7562 2.84479C14.7559 2.8447 14.7558 2.84455 14.7556 2.84439C14.7114 2.84692 14.6671 2.84942 14.6217 2.85196H14.6103C14.3548 2.86236 14.0988 2.84795 13.846 2.80891C13.8389 2.80716 13.8318 2.8059 13.8245 2.80514C13.7224 2.79296 13.6232 2.76297 13.5315 2.7165C13.5264 2.71397 13.5226 2.71147 13.5175 2.70893C13.508 2.70406 13.4991 2.69811 13.491 2.69119C13.4488 2.66021 13.4195 2.61466 13.4089 2.56334C13.4068 2.55251 13.4059 2.54148 13.4064 2.53046C13.4062 2.52494 13.4066 2.51942 13.4076 2.51399C13.4177 2.37346 13.5681 2.2127 13.654 2.12537C13.7259 2.05016 13.807 1.98425 13.8953 1.92918C13.9029 1.92412 13.9117 1.91905 13.9193 1.91398C14.0123 1.85284 14.1182 1.81405 14.2286 1.80065C14.3391 1.78726 14.4511 1.79962 14.556 1.83675C14.5749 1.84435 14.5952 1.85195 14.6141 1.86082C14.8699 1.97556 15.1004 2.13989 15.2925 2.34435C15.3683 2.42493 15.4371 2.51173 15.4984 2.60386C15.5125 2.627 15.5187 2.65412 15.5159 2.68109C15.5132 2.70806 15.5017 2.7334 15.4832 2.75322Z" fill="#DA8029"/>
<path d="M9.11805 7.70685C9.11389 7.71923 9.10839 7.73112 9.10164 7.7423C9.07455 7.78783 9.03193 7.822 8.98166 7.8385C8.96771 7.84362 8.95332 7.84743 8.93866 7.84987C8.92349 7.85241 8.90708 7.85494 8.89067 7.85621C8.87426 7.85748 8.85786 7.85874 8.84139 7.85874C8.55085 7.85874 8.2426 7.65366 7.98741 7.55749C7.95706 7.54609 7.92548 7.53595 7.89389 7.52584C7.85226 7.51317 7.81056 7.50304 7.76756 7.4929C7.74233 7.48786 7.71704 7.48279 7.69175 7.47899C7.57202 7.45881 7.45053 7.45118 7.32922 7.45622C7.31069 7.45537 7.29212 7.45579 7.27364 7.45748C7.23447 7.46001 7.19407 7.46255 7.15484 7.46762C7.15107 7.46762 7.14855 7.46886 7.14478 7.46886C7.02604 7.48153 6.87442 7.55619 6.75943 7.53975C6.63187 7.52078 6.63815 7.42961 6.70515 7.36885C6.71722 7.35733 6.73082 7.34751 6.74555 7.33971C6.75314 7.33594 6.76196 7.33217 6.76955 7.32836C7.3543 7.07318 8.01104 7.0368 8.6203 7.22582C8.77656 7.26187 8.92231 7.33381 9.04606 7.43597C9.05877 7.44827 9.0702 7.46184 9.08017 7.47646C9.09134 7.49041 9.10069 7.50572 9.10799 7.52204C9.10922 7.52584 9.11175 7.53091 9.11299 7.53595C9.11507 7.54044 9.11676 7.5451 9.11805 7.54989C9.13643 7.60059 9.13642 7.65614 9.11805 7.70685Z" fill="#DA8029"/>
<path d="M15.3739 6.44331C15.3738 6.45512 15.3712 6.46677 15.3662 6.47749C15.3603 6.4909 15.3517 6.50296 15.341 6.51294C15.2854 6.56736 15.178 6.52051 15.1123 6.51547C14.6853 6.47116 14.3051 6.65216 13.9753 6.90153C13.9324 6.93318 13.8907 6.96609 13.8502 7.00027C13.8237 7.02181 13.796 7.04585 13.7669 7.07116C13.753 7.0838 13.7379 7.09646 13.7227 7.10785C13.7063 7.12049 13.6911 7.1319 13.6747 7.1433C13.6308 7.1853 13.5741 7.21146 13.5138 7.21765C13.4534 7.22384 13.3926 7.20971 13.3412 7.17748C13.1896 7.07113 13.2388 6.86355 13.3526 6.74327C13.3608 6.73305 13.3701 6.72372 13.3803 6.71542C13.4276 6.67568 13.4769 6.6385 13.5281 6.60404C13.6036 6.55194 13.6826 6.505 13.7644 6.46355C13.8111 6.44078 13.8579 6.41924 13.9059 6.40026C14.1696 6.29339 14.4493 6.23136 14.7333 6.21672C14.9127 6.20405 15.1275 6.18634 15.2791 6.30279C15.2909 6.31146 15.3019 6.32121 15.3119 6.3319C15.3177 6.33707 15.3232 6.34257 15.3284 6.34837C15.3442 6.36376 15.3567 6.3823 15.365 6.4028C15.3709 6.41547 15.374 6.42931 15.3739 6.44331Z" fill="#DA8029"/>
<path d="M18.4715 8.03849C18.4577 8.04628 18.4434 8.05305 18.4286 8.05876C18.3833 8.07552 18.3354 8.08368 18.2871 8.08281C18.2233 8.08103 18.1598 8.07298 18.0976 8.05876C18.0344 8.04483 17.9713 8.02964 17.9145 8.02205C17.8639 8.01445 17.8134 8.00811 17.7616 8.00431C17.7024 7.99947 17.6429 7.99778 17.5835 7.99924C17.5539 7.9982 17.5244 7.99905 17.495 8.00178C17.4647 8.00307 17.4357 8.00561 17.4053 8.00938C17.3981 8.00921 17.3909 8.00963 17.3838 8.01065C17.3523 8.01318 17.3194 8.01825 17.2866 8.02332C17.2537 8.02838 17.2222 8.03342 17.1906 8.03976C17.1678 8.04482 17.1464 8.04989 17.1236 8.05496C17.0882 8.06383 17.0528 8.07394 17.0163 8.08407C16.8955 8.12625 16.7671 8.14221 16.6397 8.13089C16.5791 8.1191 16.5243 8.08696 16.4843 8.03976C16.4743 8.02733 16.4658 8.01373 16.4591 7.99924C16.4566 7.99262 16.4545 7.98586 16.4528 7.979C16.4478 7.95862 16.4501 7.93715 16.4591 7.91824C16.4679 7.90532 16.4785 7.89379 16.4907 7.88406C16.5129 7.87014 16.5372 7.85989 16.5627 7.85368C17.0465 7.7271 17.5216 7.57394 18.0269 7.5752C18.066 7.5752 18.1065 7.5752 18.1494 7.57647C18.1535 7.5752 18.1579 7.5752 18.1621 7.57647C18.1772 7.57647 18.1924 7.57647 18.2075 7.57774C18.253 7.57877 18.2983 7.58429 18.3427 7.59421C18.4045 7.60343 18.4631 7.62777 18.5132 7.66507C18.5173 7.66807 18.5211 7.67147 18.5246 7.67521C18.5282 7.67749 18.5312 7.68052 18.5335 7.68408C18.5582 7.70913 18.5765 7.73975 18.587 7.77336C18.5975 7.80697 18.5998 7.84261 18.5937 7.87729C18.5877 7.91198 18.5734 7.94471 18.5522 7.97276C18.5309 8.0008 18.5033 8.02333 18.4715 8.03849Z" fill="#DA8029"/>
<path d="M18.7305 8.89625C18.7196 8.90621 18.7077 8.91512 18.6951 8.92286C18.6754 8.93533 18.6542 8.94512 18.632 8.95197C18.6168 8.95701 18.6017 8.96081 18.5865 8.96461C18.5468 8.97113 18.5064 8.97198 18.4665 8.96715C18.4375 8.96335 18.4096 8.95701 18.3806 8.95197C18.3237 8.9393 18.2681 8.92536 18.2113 8.91019C18.0698 8.87221 17.9295 8.82792 17.7856 8.80258C17.5346 8.75412 17.2781 8.74218 17.0237 8.76713C17.0162 8.7684 17.0073 8.7684 16.9985 8.76967C16.9918 8.77076 16.985 8.77119 16.9783 8.77094C16.9329 8.77411 16.8873 8.77411 16.8418 8.77094C16.8206 8.76848 16.7995 8.76468 16.7787 8.75956C16.7685 8.75577 16.7572 8.75196 16.7484 8.74816C16.7344 8.74183 16.7216 8.73328 16.7104 8.72285C16.7058 8.71681 16.7016 8.71046 16.6978 8.70384C16.6963 8.70098 16.6951 8.69802 16.694 8.69497C16.6906 8.68826 16.6885 8.68096 16.6877 8.67346V8.66969C16.6867 8.65612 16.6889 8.6425 16.6942 8.62995C16.6995 8.61741 16.7076 8.6063 16.718 8.59753C16.7331 8.58274 16.7506 8.57073 16.7698 8.56208C16.7955 8.54947 16.8221 8.53889 16.8494 8.53044C16.8873 8.51903 16.9239 8.51146 16.948 8.50639C17.3696 8.40446 17.8073 8.3881 18.2353 8.45828C18.2732 8.46461 18.3187 8.47222 18.3692 8.48359C18.3932 8.48865 18.4185 8.49372 18.4438 8.50133C18.4576 8.50386 18.4703 8.50763 18.4842 8.51146C18.5344 8.52589 18.5831 8.54539 18.6294 8.56969C18.6514 8.58093 18.6722 8.5945 18.6914 8.61017C18.7182 8.63121 18.7406 8.65748 18.7571 8.6874C18.7608 8.69627 18.7646 8.7051 18.7672 8.71271C18.7814 8.74321 18.7856 8.77749 18.779 8.81052C18.7724 8.84355 18.7554 8.8736 18.7305 8.89625Z" fill="#DA8029"/>
<path d="M5.98875 9.26863L5.98746 9.26986C5.9824 9.28787 5.97123 9.30354 5.95587 9.31418C5.86789 9.35002 5.77232 9.36308 5.67798 9.35216C5.59458 9.35343 5.51118 9.35343 5.42778 9.35596C5.34821 9.35723 5.2674 9.35973 5.18777 9.36733C5.13095 9.37113 5.07408 9.37747 5.01721 9.38507C4.81092 9.42601 4.6088 9.48574 4.41337 9.56355C4.31103 9.59646 4.15818 9.6319 4.09118 9.51796C4.03061 9.41672 4.09501 9.32305 4.17964 9.25469C4.18723 9.24962 4.19481 9.24328 4.2024 9.23822C4.23615 9.21415 4.27161 9.19258 4.3085 9.17369C4.68373 8.98128 5.09178 8.98381 5.49601 9.03317C5.54153 9.03823 5.58823 9.04457 5.63375 9.05087C5.63751 9.05214 5.64134 9.05214 5.6464 9.05341C5.65522 9.05467 5.66657 9.05594 5.67798 9.05848C5.71334 9.06335 5.74835 9.07054 5.78278 9.07999C5.79347 9.08234 5.80401 9.08531 5.81437 9.08886C5.85375 9.0989 5.89129 9.11514 5.92559 9.13697H5.92682C5.93645 9.14311 5.94535 9.15032 5.95334 9.15848C5.96093 9.16481 5.96722 9.17239 5.97481 9.17999V9.18126C5.98076 9.18871 5.98506 9.19733 5.98746 9.20657C5.99489 9.22651 5.99535 9.24839 5.98875 9.26863Z" fill="#DA8029"/>
<path d="M5.98425 9.73311C5.9816 9.74225 5.97731 9.75082 5.9716 9.75842C5.95839 9.77823 5.94118 9.79504 5.92108 9.80778C5.87585 9.83735 5.82519 9.85759 5.77205 9.8673C5.70124 9.8812 5.62549 9.88501 5.55344 9.89261C5.5492 9.89233 5.54495 9.89276 5.54085 9.89388C5.51666 9.89583 5.4926 9.89922 5.46881 9.90401C5.45384 9.90559 5.43906 9.90855 5.42464 9.91285C5.39935 9.91918 5.37282 9.92679 5.34753 9.93566C5.17362 9.99374 5.00464 10.0657 4.8422 10.1508C4.71211 10.2154 4.55543 10.3357 4.40387 10.3319C4.29394 10.3281 4.16379 10.2205 4.21437 10.1167C4.21942 10.1078 4.22449 10.1002 4.22948 10.0926C4.23645 10.0844 4.24406 10.0768 4.25224 10.0698C4.28765 10.0369 4.32553 10.0065 4.3634 9.97741C4.40134 9.94956 4.44051 9.92297 4.48091 9.89765C4.50108 9.88501 4.52261 9.87237 4.54408 9.86096C4.58448 9.83689 4.62618 9.81538 4.66912 9.79514C4.69058 9.785 4.71334 9.7749 4.73611 9.76603C4.78033 9.74702 4.82456 9.73058 4.87002 9.71414C4.91425 9.69766 4.95972 9.68373 5.00641 9.66982C5.05193 9.65715 5.09869 9.64447 5.14415 9.63437C5.17197 9.62804 5.19973 9.6217 5.22749 9.61667C5.24649 9.61283 5.26545 9.60903 5.28437 9.60526C5.29572 9.60273 5.30837 9.60146 5.32101 9.59893C5.35641 9.59259 5.39429 9.58502 5.43346 9.57868C5.45999 9.57362 5.4878 9.56981 5.51433 9.56601C5.58191 9.5547 5.65053 9.55087 5.71894 9.55461C5.74879 9.55564 5.77845 9.55989 5.8074 9.56728C5.82203 9.56973 5.83641 9.57355 5.85033 9.57868C5.86484 9.58302 5.87883 9.58896 5.89203 9.59639C5.90517 9.60184 5.9175 9.60908 5.92867 9.6179C5.93595 9.62269 5.94273 9.62821 5.9489 9.63437C5.96424 9.64517 5.97588 9.66046 5.98221 9.67813C5.98854 9.69581 5.98924 9.71501 5.98425 9.73311Z" fill="#DA8029"/>
<path d="M18.2655 9.56132C18.2628 9.57638 18.2576 9.59091 18.2504 9.60437C18.2477 9.61271 18.2434 9.62045 18.2378 9.62715C18.2327 9.63348 18.2264 9.64109 18.2201 9.64869C18.197 9.67403 18.1707 9.69617 18.1417 9.71452C18.0242 9.78918 17.8853 9.70438 17.7804 9.64109C17.7615 9.62969 17.7426 9.61828 17.7249 9.60818C17.6895 9.58664 17.6528 9.5664 17.6175 9.54742H17.6162C17.5808 9.52714 17.5442 9.50944 17.5076 9.493C17.4504 9.46649 17.3913 9.44448 17.3307 9.42717C17.2954 9.41703 16.8468 9.29805 16.7394 9.19804C16.7193 9.17904 16.7117 9.1626 16.718 9.14612C16.7196 9.13975 16.7232 9.13403 16.7281 9.12968C16.7402 9.11992 16.7539 9.11222 16.7685 9.10688C17.0553 8.99803 17.4343 9.08917 17.7274 9.14993C17.745 9.15372 17.7665 9.16006 17.7918 9.16767C17.8196 9.17653 17.8487 9.18917 17.8815 9.20181C17.8928 9.20565 17.903 9.21068 17.9144 9.21575H17.9156C17.9447 9.22842 17.975 9.2436 18.0053 9.26007C18.0205 9.26764 18.0356 9.2765 18.0508 9.28538C18.0793 9.30218 18.1067 9.32078 18.1329 9.34107C18.2188 9.40563 18.2782 9.48286 18.2655 9.56132Z" fill="#DA8029"/>
<path d="M5.9276 10.4582C5.91281 10.4718 5.89721 10.4845 5.8809 10.4962C5.87455 10.5 5.86825 10.5037 5.8632 10.5075C5.85055 10.5139 5.8379 10.5215 5.82532 10.5278C5.81268 10.5341 5.80002 10.5392 5.78868 10.5455C5.76968 10.5531 5.75327 10.5607 5.7381 10.567C5.62318 10.6152 5.51325 10.6658 5.40586 10.7227C5.33511 10.7594 5.26694 10.7987 5.19872 10.8417C5.09496 10.9072 4.99538 10.9791 4.90053 11.0569C4.81713 11.1266 4.70092 11.224 4.5847 11.162C4.57074 11.1552 4.55795 11.1463 4.54683 11.1354C4.53289 11.1226 4.5217 11.1071 4.51395 11.0898C4.51271 11.0848 4.51019 11.0784 4.50895 11.0734C4.50706 11.0676 4.50578 11.0617 4.50513 11.0557C4.50252 10.9968 4.52088 10.9389 4.55694 10.8924C4.56854 10.8755 4.58119 10.8595 4.59482 10.8443C4.60175 10.8361 4.60936 10.8284 4.61758 10.8215C4.66557 10.7772 4.71486 10.7354 4.76661 10.6962C4.82174 10.6527 4.8791 10.6121 4.93847 10.5746C5.08974 10.4788 5.2517 10.401 5.42103 10.343C5.46397 10.3278 5.50696 10.3152 5.55119 10.3025C5.57895 10.2949 5.61935 10.2822 5.66488 10.2721L5.69899 10.2645C5.72169 10.2607 5.74568 10.2569 5.76968 10.2544C5.84802 10.248 5.92254 10.2607 5.95289 10.3278C5.96334 10.3493 5.96652 10.3737 5.96196 10.3972C5.95739 10.4207 5.94534 10.4421 5.9276 10.4582Z" fill="#DA8029"/>
<path d="M3.03056 12.7787C3.00132 12.7976 2.96693 12.8071 2.93211 12.8058C2.89729 12.8044 2.86374 12.7923 2.83607 12.7711C2.81085 12.7557 2.78894 12.7355 2.77161 12.7116C2.70488 12.6227 2.64732 12.5273 2.59981 12.4267C2.47851 12.1822 2.40518 11.9167 2.38379 11.6445C2.38413 11.5942 2.40421 11.5461 2.43968 11.5106C2.47514 11.4751 2.52313 11.4549 2.57329 11.4546C2.62323 11.4556 2.67083 11.4759 2.70616 11.5113C2.74148 11.5467 2.76178 11.5944 2.76278 11.6445C2.76402 11.666 2.76655 11.6875 2.76908 11.709V11.7103C2.77031 11.7166 2.77031 11.7217 2.77161 11.7267C2.77184 11.7319 2.77269 11.737 2.77413 11.7419C2.78043 11.7862 2.78931 11.8293 2.79943 11.8723C2.81857 11.9529 2.84218 12.0323 2.87012 12.1103C2.87647 12.1255 2.88276 12.1419 2.88912 12.1571C2.88911 12.1585 2.88954 12.1598 2.89035 12.1609C2.8954 12.171 2.90676 12.1964 2.90805 12.2002C2.91311 12.2103 2.91815 12.2204 2.92317 12.2305C2.93458 12.2546 2.94723 12.2786 2.95981 12.3027C2.99765 12.3705 3.03942 12.436 3.08491 12.4989C3.08881 12.5061 3.09346 12.5129 3.09879 12.5192C3.1235 12.5628 3.13016 12.6143 3.11741 12.6628C3.10467 12.7113 3.07351 12.7529 3.03056 12.7787Z" fill="#DA8029"/>
<path d="M2.48684 12.9761C2.48361 13.0194 2.46527 13.0602 2.43502 13.0913C2.40234 13.1234 2.35927 13.1427 2.31363 13.1457C2.26798 13.1487 2.22279 13.1353 2.18618 13.1078C2.17955 13.1027 2.17323 13.0972 2.16725 13.0913C2.09014 13.0086 2.02157 12.9182 1.96257 12.8217C1.84388 12.6333 1.76319 12.4235 1.72509 12.204C1.70758 12.1096 1.69827 12.0139 1.69727 11.9179C1.69727 11.8675 1.71724 11.8193 1.75278 11.7837C1.78832 11.748 1.83651 11.728 1.88676 11.728C1.93702 11.728 1.98521 11.748 2.02074 11.7837C2.05628 11.8193 2.07626 11.8675 2.07626 11.9179C2.07626 11.961 2.07879 12.0052 2.08255 12.0483V12.0546C2.08363 12.0604 2.08406 12.0664 2.08385 12.0723C2.08385 12.0723 2.08508 12.0787 2.08638 12.0888C2.09014 12.1116 2.09396 12.1344 2.09902 12.1571C2.11774 12.2464 2.1435 12.334 2.17607 12.4192V12.4204L2.18113 12.4306C2.18179 12.4317 2.18221 12.433 2.18236 12.4343C2.18489 12.4407 2.18741 12.447 2.18995 12.4521C2.20006 12.4723 2.21018 12.4926 2.2203 12.5128C2.23923 12.5495 2.2594 12.5863 2.28093 12.6217C2.28346 12.6255 2.2847 12.628 2.28723 12.6318C2.29987 12.6508 2.31252 12.6698 2.32516 12.6888C2.33167 12.6994 2.33884 12.7095 2.34663 12.7192L2.35039 12.723C2.35039 12.7242 2.35169 12.7242 2.35169 12.7255C2.35292 12.7268 2.35292 12.7268 2.35292 12.728C2.37945 12.7609 2.40727 12.7913 2.43502 12.823C2.45771 12.8467 2.47383 12.8759 2.48178 12.9078V12.909C2.48913 12.9306 2.49087 12.9537 2.48684 12.9761Z" fill="#DA8029"/>
<path d="M3.64738 12.2345C3.61155 12.2695 3.56349 12.2891 3.51346 12.2891C3.46342 12.2891 3.41537 12.2695 3.37954 12.2345C3.33442 12.1899 3.29761 12.1376 3.27085 12.0801C3.2674 12.074 3.26446 12.0676 3.26203 12.0611C3.22735 11.9873 3.19904 11.9106 3.17739 11.832C3.14141 11.709 3.11355 11.5839 3.094 11.4573C3.08305 11.4076 3.08975 11.3557 3.11293 11.3104C3.13171 11.2782 3.1595 11.2523 3.19288 11.2358C3.22626 11.2194 3.26374 11.2131 3.30064 11.2178C3.33755 11.2226 3.37227 11.2381 3.40045 11.2624C3.42863 11.2867 3.44902 11.3189 3.45911 11.3547V11.356C3.47815 11.4764 3.50431 11.5956 3.53745 11.713C3.54757 11.7459 3.55769 11.7788 3.56904 11.8104C3.57409 11.8256 3.58039 11.8421 3.58544 11.8586C3.58544 11.8598 3.58668 11.8598 3.58668 11.8611C3.58797 11.8623 3.58797 11.8636 3.58927 11.8662C3.5905 11.8699 3.59304 11.875 3.59433 11.8788C3.59274 11.8774 3.59144 11.8756 3.5905 11.8737C3.59303 11.8775 3.59433 11.8813 3.59679 11.8851C3.60438 11.899 3.61074 11.9117 3.61956 11.9256C3.62201 11.9314 3.62496 11.9369 3.62838 11.9421L3.62967 11.9434V11.9446L3.63344 11.9484C3.63344 11.9497 3.63343 11.9497 3.63473 11.9509C3.63473 11.9522 3.63596 11.9522 3.63596 11.9535C3.63979 11.9572 3.64355 11.9623 3.64738 11.9661C3.68202 12.0022 3.70135 12.0503 3.70135 12.1003C3.70135 12.1504 3.68202 12.1985 3.64738 12.2345Z" fill="#DA8029"/>
<path d="M18.9748 4.91064C18.9263 4.92316 18.8748 4.9163 18.8312 4.89151C18.7876 4.86672 18.7553 4.82593 18.7411 4.77775C18.6918 4.61065 18.6425 4.44228 18.5768 4.27899V4.27772C18.5756 4.27772 18.5756 4.27772 18.5756 4.27645C18.5756 4.27519 18.5743 4.27518 18.5743 4.27392C18.5714 4.27132 18.5696 4.2677 18.5692 4.26381C18.568 4.26056 18.5671 4.25715 18.5667 4.25367C18.5579 4.2347 18.5491 4.21696 18.5402 4.19798C18.5238 4.16254 18.5048 4.12836 18.4859 4.09544C18.4657 4.06127 18.4454 4.02835 18.4227 3.99671C18.4126 3.98023 18.4013 3.96633 18.3899 3.95112V3.94989C18.3836 3.94228 18.3772 3.93595 18.3709 3.92834C18.3366 3.89216 18.3174 3.84414 18.3174 3.79419C18.3174 3.74424 18.3366 3.69619 18.3709 3.66C18.3884 3.64225 18.4093 3.62818 18.4323 3.61856C18.4553 3.60894 18.4799 3.604 18.5048 3.604C18.5298 3.604 18.5544 3.60894 18.5774 3.61856C18.6004 3.62818 18.6213 3.64225 18.6388 3.66C18.7616 3.80771 18.8605 3.97388 18.9318 4.1524C18.9992 4.32385 19.0574 4.49878 19.1062 4.67645C19.1192 4.72494 19.1128 4.77662 19.0882 4.8204C19.0637 4.86418 19.0229 4.89657 18.9748 4.91064Z" fill="#DA8029"/>
<path d="M19.7983 4.54576C19.8109 4.65084 19.7023 4.73058 19.6088 4.73564C19.559 4.7342 19.5116 4.71374 19.4764 4.67844C19.4412 4.64314 19.4207 4.59567 19.4193 4.54576V4.53563C19.4182 4.52541 19.4165 4.51526 19.4142 4.50525C19.4105 4.48121 19.4067 4.45842 19.4017 4.43562C19.3928 4.38753 19.3814 4.34068 19.3688 4.29386C19.345 4.1993 19.3155 4.10631 19.2804 4.01538C19.2753 4.00018 19.269 3.98374 19.2627 3.96853C19.261 3.96579 19.2597 3.9628 19.2589 3.95966C19.2571 3.95695 19.2558 3.95395 19.2551 3.95079C19.2539 3.94956 19.2526 3.94826 19.2526 3.94702L19.2374 3.91284C19.2197 3.87487 19.2007 3.83688 19.1806 3.80143C19.1629 3.77105 19.1452 3.7432 19.1249 3.7141V3.71283L19.1237 3.71156C19.1225 3.7103 19.1212 3.70903 19.1212 3.70776C19.121 3.70776 19.1208 3.70773 19.1207 3.70767C19.1205 3.7076 19.1204 3.70751 19.1203 3.70739C19.1202 3.70727 19.1201 3.70714 19.1201 3.70699C19.12 3.70683 19.1199 3.70666 19.1199 3.70649L19.1123 3.69892C19.1033 3.68779 19.0936 3.67723 19.0833 3.66728C19.0476 3.6317 19.0275 3.58338 19.0273 3.53293C19.0272 3.48249 19.0471 3.43407 19.0826 3.39832C19.1181 3.36256 19.1664 3.34241 19.2167 3.34229C19.2671 3.34216 19.3154 3.36206 19.3511 3.39764C19.4822 3.54251 19.5809 3.71387 19.6404 3.90017C19.7206 4.10762 19.7737 4.32464 19.7983 4.54576Z" fill="#DA8029"/>
<path d="M18.2515 5.12812C18.203 5.14107 18.1513 5.1344 18.1076 5.10954C18.0639 5.08469 18.0316 5.04362 18.0178 4.9952C18.004 4.93376 17.985 4.87363 17.9609 4.81546C17.9458 4.77498 17.9294 4.7332 17.913 4.69268C17.9104 4.68634 17.9079 4.68004 17.9041 4.67243C17.9032 4.66936 17.9019 4.66639 17.9004 4.66356C17.8999 4.66032 17.8986 4.65725 17.8965 4.6547C17.8903 4.63952 17.8827 4.62305 17.8763 4.60788C17.819 4.46418 17.748 4.3264 17.6641 4.19648C17.6514 4.17495 17.6431 4.15112 17.6396 4.12636C17.6361 4.10159 17.6375 4.07637 17.6438 4.05215C17.65 4.02794 17.6609 4.00521 17.676 3.98525C17.691 3.96528 17.7098 3.94849 17.7313 3.93583C17.7529 3.92317 17.7767 3.91487 17.8014 3.91145C17.8262 3.90803 17.8513 3.90956 17.8754 3.9159C17.8996 3.92224 17.9223 3.93327 17.9421 3.94841C17.962 3.96354 17.9787 3.98245 17.9913 4.00407C18.0773 4.13754 18.1501 4.27915 18.2086 4.42687C18.2821 4.57646 18.341 4.7329 18.3842 4.89396C18.3964 4.94259 18.3894 4.99408 18.3647 5.03769C18.34 5.08131 18.2995 5.1137 18.2515 5.12812Z" fill="#DA8029"/>
<defs>
<linearGradient id="paint0_linear_4333_288" x1="3.71767" y1="15.4869" x2="5.5722" y2="18.0801" gradientUnits="userSpaceOnUse">
<stop stop-color="#DB832D"/>
<stop offset="1" stop-color="#FEF6B3"/>
</linearGradient>
<linearGradient id="paint1_linear_4333_288" x1="6.04128" y1="18.1612" x2="7.89226" y2="20.7494" gradientUnits="userSpaceOnUse">
<stop stop-color="#DB832D"/>
<stop offset="1" stop-color="#FEF6B3"/>
</linearGradient>
<linearGradient id="paint2_linear_4333_288" x1="11.2314" y1="0" x2="11.2314" y2="22.8851" gradientUnits="userSpaceOnUse">
<stop stop-color="#FEF7B5"/>
<stop offset="1" stop-color="#DA8029"/>
</linearGradient>
<linearGradient id="paint3_linear_4333_288" x1="5.98402" y1="11.6597" x2="5.98402" y2="24.7459" gradientUnits="userSpaceOnUse">
<stop stop-color="#DB832D"/>
<stop offset="1" stop-color="#FEF5B3"/>
</linearGradient>
</defs>
</svg>
