<svg width="64" height="32" viewBox="0 0 64 32" fill="none" xmlns="http://www.w3.org/2000/svg">
<path d="M64 0H0V32H64V0Z" fill="#00A0F0"/>
<path d="M5.84028 19.8405V12.4103H11.0067V13.5583H7.18504V15.4504H10.7091V16.5984H7.18504V18.6819H11.214V19.8405H5.83496H5.84028Z" fill="white"/>
<path d="M14.5041 19.8192C14.233 19.8936 13.8928 19.9362 13.5898 19.9362C13.0743 19.9362 12.7288 19.8086 12.5162 19.5588C12.2929 19.3037 12.2238 18.937 12.2238 18.4533V15.5886H11.4053V14.6H12.2451V12.8939H13.4676V14.6H14.4881V15.5886H13.4676V18.2088C13.4676 18.7456 13.627 18.937 14.0044 18.937C14.1532 18.937 14.3393 18.9051 14.5094 18.8413V19.8192H14.5041Z" fill="white"/>
<path d="M19.6807 18.5277C19.2927 19.4738 18.4901 19.9999 17.3952 19.9999C15.7102 19.9999 14.8066 18.9051 14.8066 17.1671C14.8066 15.4291 15.8165 14.4512 17.342 14.4512C19.0057 14.4512 19.702 15.663 19.7073 17.5338H16.0451C16.0876 18.4374 16.5819 18.9529 17.4111 18.9529C17.948 18.9529 18.3997 18.7403 18.5911 18.145L19.6754 18.5224L19.6807 18.5277ZM18.4582 16.6569C18.4157 15.8384 17.9852 15.4132 17.3101 15.4132C16.6351 15.4132 16.1408 15.8331 16.0557 16.6569H18.4529H18.4582Z" fill="white"/>
<path d="M20.4092 19.8406V14.6001H21.5892V15.408C21.9028 14.8393 22.3173 14.5363 23.0402 14.5363C23.2103 14.5363 23.3326 14.5576 23.492 14.6001V15.8438C23.29 15.7375 23.1359 15.695 22.902 15.695C22.4928 15.695 22.1419 15.8757 21.9134 16.2105C21.7327 16.471 21.6423 16.843 21.6423 17.4011V19.8406H20.4092Z" fill="white"/>
<path d="M27.3508 19.8405V16.8323C27.3508 16.4231 27.3083 16.1148 27.1594 15.9075C27.0212 15.7055 26.7927 15.6152 26.4525 15.6152C26.1123 15.6152 25.7668 15.7959 25.5596 16.0776C25.2991 16.4231 25.2566 16.8164 25.2566 17.3213V19.8459H24.0234V14.6054H25.246V15.3866C25.6233 14.8498 26.2452 14.515 26.984 14.515C27.6166 14.515 28.0258 14.7382 28.2916 15.1368C28.5042 15.4504 28.5839 15.865 28.5839 16.5666V19.8512H27.3508V19.8405Z" fill="white"/>
<path d="M32.5173 16.2849C32.5173 15.9926 32.4536 15.7906 32.3154 15.6525C32.1665 15.5036 31.9167 15.4292 31.5872 15.4292C30.944 15.4292 30.6623 15.7534 30.5985 16.3328L29.4185 16.2265C29.5036 15.0891 30.3434 14.4566 31.6828 14.4566C32.4004 14.4566 32.9054 14.6267 33.2509 14.9615C33.5751 15.2645 33.692 15.7003 33.692 16.5188V18.4428C33.692 19.0646 33.7345 19.5802 33.8408 19.83H32.6502C32.6077 19.6599 32.5439 19.3357 32.5439 19.1762C32.1453 19.6599 31.5765 19.9256 30.8271 19.9256C29.8704 19.9256 29.1953 19.325 29.1953 18.3896C29.1953 17.7146 29.5302 17.2735 30.1521 16.9918C30.6676 16.758 31.6775 16.6144 32.512 16.5613V16.2796L32.5173 16.2849ZM32.5173 17.3904C31.9167 17.4223 31.2098 17.5286 30.843 17.704C30.5188 17.8528 30.3912 18.0495 30.3912 18.3471C30.3912 18.7245 30.6464 19.0115 31.1885 19.0115C31.6616 19.0115 32.0496 18.8095 32.2835 18.464C32.4536 18.2196 32.5067 17.9272 32.5173 17.6349V17.3904Z" fill="white"/>
<path d="M34.7172 19.8405V12.4103H36.0514V18.6819H39.5541V19.8405H34.7119H34.7172Z" fill="white"/>
<path d="M43.2859 16.2849C43.2859 15.9926 43.2221 15.7906 43.0839 15.6525C42.9351 15.5036 42.6853 15.4292 42.3557 15.4292C41.7126 15.4292 41.4309 15.7534 41.3671 16.3328L40.1871 16.2265C40.2721 15.0891 41.112 14.4566 42.4514 14.4566C43.169 14.4566 43.6739 14.6267 44.0194 14.9615C44.3436 15.2645 44.4606 15.7003 44.4606 16.5188V18.4428C44.4606 19.0646 44.5031 19.5802 44.6094 19.83H43.4188C43.3763 19.6599 43.3125 19.3357 43.3125 19.1762C42.9138 19.6599 42.3451 19.9256 41.5956 19.9256C40.6389 19.9256 39.9639 19.325 39.9639 18.3896C39.9639 17.7146 40.2987 17.2735 40.9206 16.9918C41.4362 16.758 42.4461 16.6144 43.2806 16.5613V16.2796L43.2859 16.2849ZM43.2859 17.3904C42.6853 17.4223 41.9783 17.5286 41.6116 17.704C41.2874 17.8528 41.1598 18.0495 41.1598 18.3471C41.1598 18.7245 41.4149 19.0115 41.9571 19.0115C42.4301 19.0115 42.8182 18.8095 43.052 18.464C43.2221 18.2196 43.2753 17.9272 43.2859 17.6349V17.3904Z" fill="white"/>
<path d="M46.5173 12.4157V15.3123C46.8628 14.8606 47.4103 14.5045 48.1597 14.5045C49.3929 14.5045 50.1795 15.5249 50.1795 17.231C50.1795 18.9371 49.3185 19.9576 48.0215 19.9576C47.304 19.9576 46.8203 19.6865 46.4642 19.1709V19.8566H45.2842V12.4263H46.5173V12.4157ZM47.7186 18.9211C48.4468 18.9211 48.8986 18.3418 48.8986 17.2257C48.8986 16.1733 48.468 15.5303 47.7611 15.5303C47.0116 15.5303 46.4854 16.1627 46.4854 17.1619C46.4854 18.278 46.9372 18.9211 47.7186 18.9211Z" fill="white"/>
<path d="M54.7667 20C52.5237 20 50.7803 18.2833 50.7803 16.1042C50.7803 13.9251 52.5077 12.2402 54.7083 12.2402C56.9088 12.2402 58.5831 13.9357 58.5831 16.051C58.5831 18.2833 56.93 20 54.772 20H54.7667ZM54.7136 12.7398C52.8107 12.7398 51.3437 14.2227 51.3437 16.1201C51.3437 18.0175 52.8479 19.511 54.7348 19.511C56.6217 19.511 58.009 18.0281 58.009 16.1626C58.009 14.2067 56.6111 12.7398 54.7136 12.7398ZM55.7341 18.3045L54.6179 16.5878H53.9641V18.3045H53.0924V13.7922H54.6604C55.2929 13.7922 55.6278 13.856 55.9148 13.9941C56.356 14.2067 56.558 14.6373 56.558 15.1315C56.558 15.8278 56.2125 16.3114 55.4949 16.4762L56.7599 18.3098H55.7394L55.7341 18.3045ZM54.7561 15.8225C55.0591 15.8225 55.2717 15.7906 55.4205 15.7055C55.6012 15.5992 55.6756 15.4238 55.6756 15.1687C55.6756 14.9136 55.5799 14.717 55.3195 14.6213C55.1707 14.5682 54.9953 14.5575 54.7401 14.5575H53.9801V15.8225H54.7614H54.7561Z" fill="white"/>
</svg>
