<svg width="64" height="32" viewBox="0 0 64 32" fill="none" xmlns="http://www.w3.org/2000/svg">
<rect width="64" height="32" fill="#FF1E6E"/>
<path d="M11.2782 15.4074H5.77832L6.60753 13.9712H7.14754L8.64217 11.3828H8.10216L8.87251 10.0463H11.57L10.7997 11.3828H10.275L8.78549 13.9635H10.6307L11.14 13.0802H12.6193L11.2757 15.4074H11.2782Z" fill="black"/>
<path d="M17.9601 14.5242C17.676 15.0157 17.0439 15.4074 16.5422 15.4074H12.8492C12.3476 15.4074 12.1761 15.0157 12.4602 14.5242L15.0451 10.0463H17.5173L16.7419 11.3904H16.0765L14.5818 13.9788H16.4578L17.9524 11.3904H17.2947L18.0701 10.0463H20.5424L17.9575 14.5242H17.9601Z" fill="black"/>
<path d="M23.4698 12.9189H25.2767L24.3502 14.5242C24.0661 15.0157 23.434 15.4074 22.94 15.4074H19.1549C18.6532 15.4074 18.4818 15.0157 18.7658 14.5242L20.8414 10.9296C21.1255 10.438 21.75 10.0463 22.2516 10.0463H26.0368C26.5307 10.0463 26.7099 10.438 26.4258 10.9296L25.6094 12.3428H23.8025L24.3528 11.3904H22.3821L20.8875 13.9788H22.8581L23.4698 12.9189Z" fill="black"/>
<path d="M27.2248 14.4397L26.6669 15.4074H24.6016L25.4257 13.9788H25.7865L27.2811 11.3904H26.9203L27.6957 10.0463H29.7611L29.1981 11.0218L32.2052 10.054H33.6512L32.2538 12.4734H30.7823L31.1098 11.9051L28.571 12.7269L30.1629 13.5487L30.4905 12.9803H31.9621L30.5622 15.4074H29.1085L27.2274 14.4397H27.2248Z" fill="black"/>
<path d="M40.2433 10.0463L39.4678 11.3904H38.6463L36.2943 13.4719L36.0051 13.9712H36.6628L35.8336 15.4074H32.6191L33.4484 13.9712H34.1061L34.3851 13.4873L34.4286 11.3904H33.5456L34.3211 10.0463H36.2533L36.2585 11.8666L38.3571 10.0463H40.2433Z" fill="black"/>
<path d="M44.7765 12.9189H46.5833L45.6569 14.5242C45.3728 15.0157 44.7406 15.4074 44.2467 15.4074H40.4615C39.9599 15.4074 39.7884 15.0157 40.0725 14.5242L42.1481 10.9296C42.4321 10.438 43.0566 10.0463 43.5582 10.0463H47.3434C47.8374 10.0463 48.0165 10.438 47.7324 10.9296L46.916 12.3428H45.1092L45.6594 11.3904H43.6888L42.1941 13.9788H44.1648L44.7765 12.9189Z" fill="black"/>
<path d="M49.598 15.4074L50.4221 13.9788H48.5692L47.7451 15.4074H45.9229L48.1213 11.5978L49.9589 10.799L50.3939 10.0463H53.1247L52.6947 10.7914L53.6135 11.5978L51.4151 15.4074H49.6006H49.598ZM51.2871 12.4811L50.6857 11.8974L49.4393 12.4734L49.209 12.8728H51.0619L51.2871 12.4811Z" fill="black"/>
<path d="M60.7819 10.0463L59.382 12.4734H57.9104L58.54 11.3828H58.0153L56.5181 13.9788H57.0428L56.2187 15.4074H53.4111L54.2352 13.9788H54.7676L56.2647 11.3828H55.7734L55.1438 12.4734H53.6722L55.0721 10.0463H60.7819Z" fill="black"/>
<path d="M5.179 16.4468H10.684L9.90858 17.791H4.40354L5.179 16.4468ZM2.81934 21.808L3.64343 20.3793H6.16177L6.86046 19.7495H3.27233L4.04268 18.4131H9.55028L8.77993 19.7495L7.57194 20.9324C7.12919 21.3625 6.55846 21.808 5.783 21.808H2.81934Z" fill="black"/>
<path d="M9.08446 20.3794H10.2566L10.0928 20.6636H10.7019L12.2733 20.0415L13.7321 17.5145H15.1474L13.2638 20.7788L10.5663 21.808H8.25781L9.0819 20.3794H9.08446ZM9.46068 19.7266L10.7378 17.5145H11.7871L10.51 19.7266H9.46068ZM12.0993 17.5145H13.1486L11.8715 19.7266H10.8222L12.0993 17.5145Z" fill="black"/>
<path d="M17.8882 21.808H15.3622L16.1863 20.3793H16.8748V19.9723H14.4102L15.1063 18.7664H17.1563L17.146 18.3363H15.3545L16.0763 17.0843H17.4301L17.4148 16.4468H19.1269L19.1423 17.0843H21.5839L20.8621 18.3363H18.9452L18.9631 18.7664H20.6139L19.9178 19.9723H18.7123V20.3793L17.8882 21.808Z" fill="black"/>
<path d="M27.0176 18.5284L26.1832 19.9723H20.668L21.5023 18.5284H27.0176Z" fill="black"/>
<path d="M30.4136 21.808H27.8876L28.7117 20.3793H29.4001V19.9723H26.9355L27.6317 18.7664H29.6817L29.6714 18.3363H27.8799L28.6016 17.0843H29.9555L29.9402 16.4468H31.6523L31.6677 17.0843H34.1092L33.3875 18.3363H31.4706L31.4885 18.7664H33.1393L32.4431 19.9723H31.2377V20.3793L30.4136 21.808Z" fill="black"/>
<path d="M33.753 21.808H32.3301L33.8912 19.1044H33.6097L34.2265 18.0368H34.508L34.8049 17.5222H36.2279L35.931 18.0368H38.6208L38.004 19.1044L36.2995 20.6482H34.7742L36.4864 19.1044H35.3142L33.753 21.808Z" fill="black"/>
<path d="M37.9126 20.3794H39.0847L38.921 20.6636H39.5301L41.1015 20.0415L42.5603 17.5145H43.9756L42.0919 20.7788L39.3944 21.808H37.0859L37.91 20.3794H37.9126ZM38.2888 19.7266L39.5659 17.5145H40.6152L39.3381 19.7266H38.2888ZM40.9274 17.5145H41.9767L40.6997 19.7266H39.6504L40.9274 17.5145Z" fill="black"/>
<path d="M48.0525 18.8048H48.7179L47.8094 20.3793H47.1439L45.2219 19.6574L43.9807 21.808H42.2275L45.3217 16.4468H47.0748L46.1407 18.0675L48.055 18.8048H48.0525Z" fill="black"/>
</svg>
