<svg width="64" height="32" viewBox="0 0 64 32" fill="none" xmlns="http://www.w3.org/2000/svg">
<rect width="64" height="32" fill="#5FBE87"/>
<path d="M29.1658 24.0625C28.6742 24.0625 28.2779 23.6637 28.2779 23.1746V13.3974L37.1647 2.7323H30.9442L25.6116 8.95279L20.2791 2.7323H14.0586L22.9454 13.3974V24.0625H27.39C27.8791 24.0625 28.2779 24.4614 28.2779 24.9505V29.3951H49.6082V24.0625H29.1658Z" fill="black"/>
<path d="M38.0557 3.17626H38.9436V4.95211H39.3875V3.17626H40.2755V2.7323H38.0557V3.17626Z" fill="black"/>
<path d="M41.1666 2.73224H40.7227V4.95456H41.1666V2.73224Z" fill="black"/>
<path d="M43.8326 2.73224H43.3887V4.95456H43.8326V2.73224Z" fill="black"/>
<path d="M42.2772 4.39772L41.61 2.73224H41.166L42.0539 4.95205H42.4979L43.3883 2.73224H42.9419L42.2772 4.39772Z" fill="black"/>
</svg>
