<svg preserveAspectRatio="xMinYMin meet" viewBox="0 0 40 40" fill="none" xmlns="http://www.w3.org/2000/svg">
<path d="M40 0H0V40H40V0Z" fill="#00A0F0"/>
<path d="M36.6698 16.6698H28.2408C31.4111 13.1326 33.3396 8.45719 33.3396 3.3396H26.6698C26.6698 9.42615 22.587 14.5626 17.0084 16.1618C18.5324 16.4346 20.0094 16.8674 21.4487 17.4788C23.9322 18.5324 26.1618 20.0282 28.0715 21.9473C28.523 22.3989 28.9463 22.8598 29.3509 23.349H36.6792V16.6792L36.6698 16.6698Z" fill="white"/>
<path d="M33.3302 36.6698C33.3302 25.6256 24.3744 16.6698 13.3302 16.6698V23.3396C20.6961 23.3396 26.6604 29.3133 26.6604 36.6698H33.3302V36.6698Z" fill="white"/>
</svg>
