<?xml version="1.0" encoding="UTF-8"?>
<svg width="1024px" height="2px" viewBox="0 0 1024 2" version="1.1" xmlns="http://www.w3.org/2000/svg" xmlns:xlink="http://www.w3.org/1999/xlink">
    <title>decro-b</title>
    <g id="decro-b" stroke="none" stroke-width="1" fill="none" fill-rule="evenodd">
        <path d="M236,0 C236.26522,0 236.51956,0.105310172 236.70709,0.292847172 C236.89463,0.480383172 237,0.734783172 237,1 C237,1.26521417 236.89463,1.51961417 236.70709,1.70715417 C236.51956,1.89469417 236.26522,2 236,2 C235.734783,2 235.480444,1.89469417 235.292908,1.70715417 C235.105371,1.51961417 235,1.26521417 235,1 C235,0.734783172 235.105371,0.480383172 235.292908,0.292846172 C235.480444,0.105310172 235.734784,0 236,0 Z M248,5.245e-07 C248.2652,5.245e-07 248.5196,0.105311172 248.7071,0.292847172 C248.8946,0.480383172 249,0.734784172 249,1.00000052 C249,1.26521417 248.8946,1.51961417 248.7071,1.70715417 C248.5196,1.89469417 248.2652,2.00000052 248,2.00000052 C247.7348,2.00000052 247.4804,1.89469417 247.2929,1.70715417 C247.1054,1.51961417 247,1.26521417 247,1.00000052 C247,0.734784172 247.1054,0.480383172 247.2929,0.292847172 C247.4804,0.105311172 247.7348,5.245e-07 248,5.245e-07 Z M260,1.0491e-06 C260.2652,1.0491e-06 260.5196,0.105311172 260.7071,0.292848172 C260.8946,0.480384172 261,0.734784172 261,1.00000105 C261,1.26521417 260.8946,1.51961417 260.7071,1.70715417 C260.5196,1.89469417 260.2652,2.00000105 260,2.00000105 C259.7348,2.00000105 259.4804,1.89469417 259.2929,1.70715417 C259.1054,1.51961417 259,1.26521417 259,1.00000105 C259,0.734784172 259.1054,0.480384172 259.2929,0.292848172 C259.4804,0.105311172 259.7348,1.0491e-06 260,1.0491e-06 Z M272,1.5736e-06 C272.2652,1.5736e-06 272.5196,0.105312172 272.7071,0.292848172 C272.8946,0.480384172 273,0.734785172 273,1.00000157 C273,1.26521417 272.8946,1.51961417 272.7071,1.70715417 C272.5196,1.89469417 272.2652,2.00000157 272,2.00000157 C271.7348,2.00000157 271.4804,1.89469417 271.2929,1.70715417 C271.1054,1.51961417 271,1.26521417 271,1.00000157 C271,0.734785172 271.1054,0.480384172 271.2929,0.292848172 C271.4804,0.105312172 271.7348,1.5736e-06 272,1.5736e-06 Z M284,2.0981e-06 C284.2652,2.0981e-06 284.5196,0.105312172 284.7071,0.292849172 C284.8946,0.480385172 285,0.734785172 285,1.0000021 C285,1.26521417 284.8946,1.51961417 284.7071,1.70715417 C284.5196,1.89469417 284.2652,2.0000021 284,2.0000021 C283.7348,2.0000021 283.4804,1.89469417 283.2929,1.70715417 C283.1054,1.51961417 283,1.26521417 283,1.0000021 C283,0.734785172 283.1054,0.480385172 283.2929,0.292849172 C283.4804,0.105312172 283.7348,2.0981e-06 284,2.0981e-06 Z M296,2.6227e-06 C296.2652,2.6227e-06 296.5196,0.105313172 296.7071,0.292849172 C296.8946,0.480386172 297,0.734786172 297,1.00000262 C297,1.26521417 296.8946,1.51962417 296.7071,1.70715417 C296.5196,1.89469417 296.2652,2.00000262 296,2.00000262 C295.7348,2.00000262 295.4804,1.89469417 295.2929,1.70715417 C295.1054,1.51962417 295,1.26521417 295,1.00000262 C295,0.734786172 295.1054,0.480385172 295.2929,0.292849172 C295.4804,0.105313172 295.7348,2.6227e-06 296,2.6227e-06 Z M308,3.1472e-06 C308.2652,3.1472e-06 308.5196,0.105313172 308.7071,0.292850172 C308.8946,0.480386172 309,0.734787172 309,1.00000315 C309,1.26522417 308.8946,1.51962417 308.7071,1.70715417 C308.5196,1.89469417 308.2652,2.00000315 308,2.00000315 C307.7348,2.00000315 307.4804,1.89469417 307.2929,1.70715417 C307.1054,1.51962417 307,1.26522417 307,1.00000315 C307,0.734786172 307.1054,0.480386172 307.2929,0.292850172 C307.4804,0.105313172 307.7348,3.1472e-06 308,3.1472e-06 Z M320,3.6718e-06 C320.2652,3.6718e-06 320.5196,0.105314172 320.7071,0.292850172 C320.8946,0.480387172 321,0.734787172 321,1.00000367 C321,1.26522417 320.8946,1.51962417 320.7071,1.70715417 C320.5196,1.89469417 320.2652,2.00000367 320,2.00000367 C319.7348,2.00000367 319.4804,1.89469417 319.2929,1.70715417 C319.1054,1.51962417 319,1.26522417 319,1.00000367 C319,0.734787172 319.1054,0.480387172 319.2929,0.292850172 C319.4804,0.105314172 319.7348,3.6718e-06 320,3.6718e-06 Z M332,4.1963e-06 C332.2652,4.1963e-06 332.5196,0.105314172 332.7071,0.292851172 C332.8946,0.480387172 333,0.734788172 333,1.0000042 C333,1.26522417 332.8946,1.51962417 332.7071,1.70715417 C332.5196,1.89469417 332.2652,2.0000042 332,2.0000042 C331.7348,2.0000042 331.4804,1.89469417 331.2929,1.70715417 C331.1054,1.51962417 331,1.26522417 331,1.0000042 C331,0.734787172 331.1054,0.480387172 331.2929,0.292851172 C331.4804,0.105314172 331.7348,4.1963e-06 332,4.1963e-06 Z M344,4.7208e-06 C344.265,4.7208e-06 344.52,0.105315172 344.707,0.292851172 C344.895,0.480388172 345,0.734788172 345,1.00000472 C345,1.26522417 344.895,1.51962417 344.707,1.70715417 C344.52,1.89469417 344.265,2.00000472 344,2.00000472 C343.735,2.00000472 343.48,1.89469417 343.293,1.70715417 C343.105,1.51962417 343,1.26522417 343,1.00000472 C343,0.734788172 343.105,0.480388172 343.293,0.292851172 C343.48,0.105315172 343.735,4.7208e-06 344,4.7208e-06 Z M356,5.2454e-06 C356.265,5.2454e-06 356.52,0.105315172 356.707,0.292852172 C356.895,0.480388172 357,0.734789172 357,1.00000525 C357,1.26522417 356.895,1.51962417 356.707,1.70715417 C356.52,1.89469417 356.265,2.00000525 356,2.00000525 C355.735,2.00000525 355.48,1.89469417 355.293,1.70715417 C355.105,1.51962417 355,1.26522417 355,1.00000525 C355,0.734789172 355.105,0.480388172 355.293,0.292852172 C355.48,0.105315172 355.735,5.2454e-06 356,5.2454e-06 Z M368,5.7699e-06 C368.265,5.7699e-06 368.52,0.105316172 368.707,0.292852172 C368.895,0.480389172 369,0.734789172 369,1.00000577 C369,1.26522417 368.895,1.51962417 368.707,1.70715417 C368.52,1.89469417 368.265,2.00000577 368,2.00000577 C367.735,2.00000577 367.48,1.89469417 367.293,1.70715417 C367.105,1.51962417 367,1.26522417 367,1.00000577 C367,0.734789172 367.105,0.480389172 367.293,0.292852172 C367.48,0.105316172 367.735,5.7699e-06 368,5.7699e-06 Z M380,6.2944e-06 C380.265,6.2944e-06 380.52,0.105316172 380.707,0.292853172 C380.895,0.480389172 381,0.734790172 381,1.00000629 C381,1.26522417 380.895,1.51962417 380.707,1.70716417 C380.52,1.89469417 380.265,2.00000629 380,2.00000629 C379.735,2.00000629 379.48,1.89469417 379.293,1.70716417 C379.105,1.51962417 379,1.26522417 379,1.00000629 C379,0.734790172 379.105,0.480389172 379.293,0.292853172 C379.48,0.105316172 379.735,6.2944e-06 380,6.2944e-06 Z M392,6.819e-06 C392.265,6.819e-06 392.52,0.105317172 392.707,0.292853172 C392.895,0.480390172 393,0.734790172 393,1.00000682 C393,1.26522417 392.895,1.51962417 392.707,1.70716417 C392.52,1.89469417 392.265,2.00000682 392,2.00000682 C391.735,2.00000682 391.48,1.89469417 391.293,1.70716417 C391.105,1.51962417 391,1.26522417 391,1.00000682 C391,0.734790172 391.105,0.480390172 391.293,0.292853172 C391.48,0.105317172 391.735,6.819e-06 392,6.819e-06 Z M404,7.3435e-06 C404.265,7.3435e-06 404.52,0.105317172 404.707,0.292854172 C404.895,0.480390172 405,0.734791172 405,1.00000734 C405,1.26522417 404.895,1.51962417 404.707,1.70716417 C404.52,1.89469417 404.265,2.00000734 404,2.00000734 C403.735,2.00000734 403.48,1.89469417 403.293,1.70716417 C403.105,1.51962417 403,1.26522417 403,1.00000734 C403,0.734791172 403.105,0.480390172 403.293,0.292854172 C403.48,0.105317172 403.735,7.3435e-06 404,7.3435e-06 Z M416,7.8681e-06 C416.265,7.8681e-06 416.52,0.105318172 416.707,0.292854172 C416.895,0.480391172 417,0.734791172 417,1.00000787 C417,1.26522417 416.895,1.51962417 416.707,1.70716417 C416.52,1.89469417 416.265,2.00000787 416,2.00000787 C415.735,2.00000787 415.48,1.89469417 415.293,1.70716417 C415.105,1.51962417 415,1.26522417 415,1.00000787 C415,0.734791172 415.105,0.480391172 415.293,0.292854172 C415.48,0.105318172 415.735,7.8681e-06 416,7.8681e-06 Z M428,8.3926e-06 C428.265,8.3926e-06 428.52,0.105319172 428.707,0.292855172 C428.895,0.480391172 429,0.734792172 429,1.00000839 C429,1.26522417 428.895,1.51962417 428.707,1.70716417 C428.52,1.89469417 428.265,2.00000839 428,2.00000839 C427.735,2.00000839 427.48,1.89469417 427.293,1.70716417 C427.105,1.51962417 427,1.26522417 427,1.00000839 C427,0.734792172 427.105,0.480391172 427.293,0.292855172 C427.48,0.105319172 427.735,8.3926e-06 428,8.3926e-06 Z M440,8.9171e-06 C440.265,8.9171e-06 440.52,0.105319172 440.707,0.292855172 C440.895,0.480392172 441,0.734792172 441,1.00000892 C441,1.26522417 440.895,1.51962417 440.707,1.70716417 C440.52,1.89469417 440.265,2.00000892 440,2.00000892 C439.735,2.00000892 439.48,1.89469417 439.293,1.70716417 C439.105,1.51962417 439,1.26522417 439,1.00000892 C439,0.734792172 439.105,0.480392172 439.293,0.292855172 C439.48,0.105319172 439.735,8.9171e-06 440,8.9171e-06 Z M452,9.4417e-06 C452.265,9.4417e-06 452.52,0.105320172 452.707,0.292856172 C452.895,0.480392172 453,0.734793172 453,1.00000944 C453,1.26522417 452.895,1.51962417 452.707,1.70716417 C452.52,1.89469417 452.265,2.00000944 452,2.00000944 C451.735,2.00000944 451.48,1.89469417 451.293,1.70716417 C451.105,1.51962417 451,1.26522417 451,1.00000944 C451,0.734793172 451.105,0.480392172 451.293,0.292856172 C451.48,0.105320172 451.735,9.4417e-06 452,9.4417e-06 Z M464,9.9662e-06 C464.265,9.9662e-06 464.52,0.105320172 464.707,0.292857172 C464.895,0.480393172 465,0.734793172 465,1.00000997 C465,1.26522417 464.895,1.51962417 464.707,1.70716417 C464.52,1.89470417 464.265,2.00000997 464,2.00000997 C463.735,2.00000997 463.48,1.89470417 463.293,1.70716417 C463.105,1.51962417 463,1.26522417 463,1.00000997 C463,0.734793172 463.105,0.480393172 463.293,0.292856172 C463.48,0.105320172 463.735,9.9662e-06 464,9.9662e-06 Z M476,1.04907e-05 C476.265,1.04907e-05 476.52,0.105321172 476.707,0.292857172 C476.895,0.480393172 477,0.734794172 477,1.00001049 C477,1.26522417 476.895,1.51962417 476.707,1.70716417 C476.52,1.89470417 476.265,2.00001049 476,2.00001049 C475.735,2.00001049 475.48,1.89470417 475.293,1.70716417 C475.105,1.51962417 475,1.26522417 475,1.00001049 C475,0.734794172 475.105,0.480393172 475.293,0.292857172 C475.48,0.105321172 475.735,1.04907e-05 476,1.04907e-05 Z M488,1.10153e-05 C488.265,1.10153e-05 488.52,0.105321172 488.707,0.292858172 C488.895,0.480394172 489,0.734794172 489,1.00001102 C489,1.26522417 488.895,1.51962417 488.707,1.70716417 C488.52,1.89470417 488.265,2.00001102 488,2.00001102 C487.735,2.00001102 487.48,1.89470417 487.293,1.70716417 C487.105,1.51962417 487,1.26522417 487,1.00001102 C487,0.734794172 487.105,0.480394172 487.293,0.292857172 C487.48,0.105321172 487.735,1.10153e-05 488,1.10153e-05 Z M500,1.15398e-05 C500.265,1.15398e-05 500.52,0.105322172 500.707,0.292858172 C500.895,0.480394172 501,0.734795172 501,1.00001154 C501,1.26522417 500.895,1.51962417 500.707,1.70716417 C500.52,1.89470417 500.265,2.00001154 500,2.00001154 C499.735,2.00001154 499.48,1.89470417 499.293,1.70716417 C499.105,1.51962417 499,1.26522417 499,1.00001154 C499,0.734795172 499.105,0.480394172 499.293,0.292858172 C499.48,0.105322172 499.735,1.15398e-05 500,1.15398e-05 Z M512,1.20643e-05 C512.265,1.20643e-05 512.52,0.105322172 512.707,0.292859172 C512.895,0.480395172 513,0.734795172 513,1.00001206 C513,1.26522417 512.895,1.51962417 512.707,1.70716417 C512.52,1.89470417 512.265,2.00001206 512,2.00001206 C511.735,2.00001206 511.48,1.89470417 511.293,1.70716417 C511.105,1.51962417 511,1.26522417 511,1.00001206 C511,0.734795172 511.105,0.480395172 511.293,0.292859172 C511.48,0.105322172 511.735,1.20643e-05 512,1.20643e-05 Z M524,1.25889e-05 C524.265,1.25889e-05 524.52,0.105323172 524.707,0.292859172 C524.895,0.480396172 525,0.734796172 525,1.00001259 C525,1.26522417 524.895,1.51963417 524.707,1.70716417 C524.52,1.89470417 524.265,2.00001259 524,2.00001259 C523.735,2.00001259 523.48,1.89470417 523.293,1.70716417 C523.105,1.51963417 523,1.26522417 523,1.00001259 C523,0.734796172 523.105,0.480395172 523.293,0.292859172 C523.48,0.105323172 523.735,1.25889e-05 524,1.25889e-05 Z M536,1.31134e-05 C536.265,1.31134e-05 536.52,0.105323172 536.707,0.292860172 C536.895,0.480396172 537,0.734796172 537,1.00001311 C537,1.26523417 536.895,1.51963417 536.707,1.70716417 C536.52,1.89470417 536.265,2.00001311 536,2.00001311 C535.735,2.00001311 535.48,1.89470417 535.293,1.70716417 C535.105,1.51963417 535,1.26523417 535,1.00001311 C535,0.734796172 535.105,0.480396172 535.293,0.292860172 C535.48,0.105323172 535.735,1.31134e-05 536,1.31134e-05 Z M548,1.3638e-05 C548.265,1.3638e-05 548.52,0.105324172 548.707,0.292860172 C548.895,0.480397172 549,0.734797172 549,1.00001364 C549,1.26523417 548.895,1.51963417 548.707,1.70716417 C548.52,1.89470417 548.265,2.00001364 548,2.00001364 C547.735,2.00001364 547.48,1.89470417 547.293,1.70716417 C547.105,1.51963417 547,1.26523417 547,1.00001364 C547,0.734797172 547.105,0.480396172 547.293,0.292860172 C547.48,0.105324172 547.735,1.3638e-05 548,1.3638e-05 Z M560,1.41625e-05 C560.265,1.41625e-05 560.52,0.105324172 560.707,0.292861172 C560.895,0.480397172 561,0.734798172 561,1.00001416 C561,1.26523417 560.895,1.51963417 560.707,1.70716417 C560.52,1.89470417 560.265,2.00001416 560,2.00001416 C559.735,2.00001416 559.48,1.89470417 559.293,1.70716417 C559.105,1.51963417 559,1.26523417 559,1.00001416 C559,0.734797172 559.105,0.480397172 559.293,0.292861172 C559.48,0.105324172 559.735,1.41625e-05 560,1.41625e-05 Z M572,1.468703e-05 C572.265,1.468703e-05 572.52,0.105325172 572.707,0.292861172 C572.895,0.480398172 573,0.734798172 573,1.00001469 C573,1.26523417 572.895,1.51963417 572.707,1.70716417 C572.52,1.89470417 572.265,2.00001469 572,2.00001469 C571.735,2.00001469 571.48,1.89470417 571.293,1.70716417 C571.105,1.51963417 571,1.26523417 571,1.00001469 C571,0.734798172 571.105,0.480398172 571.293,0.292861172 C571.48,0.105325172 571.735,1.468703e-05 572,1.468703e-05 Z M584,1.521157e-05 C584.265,1.521157e-05 584.52,0.105325172 584.707,0.292862172 C584.895,0.480398172 585,0.734799172 585,1.00001521 C585,1.26523417 584.895,1.51963417 584.707,1.70716417 C584.52,1.89470417 584.265,2.00001521 584,2.00001521 C583.735,2.00001521 583.48,1.89470417 583.293,1.70716417 C583.105,1.51963417 583,1.26523417 583,1.00001521 C583,0.734798172 583.105,0.480398172 583.293,0.292862172 C583.48,0.105325172 583.735,1.521157e-05 584,1.521157e-05 Z M596,1.57361e-05 C596.265,1.57361e-05 596.52,0.105326172 596.707,0.292862172 C596.895,0.480399172 597,0.734799172 597,1.00001574 C597,1.26523417 596.895,1.51963417 596.707,1.70716417 C596.52,1.89470417 596.265,2.00001574 596,2.00001574 C595.735,2.00001574 595.48,1.89470417 595.293,1.70716417 C595.105,1.51963417 595,1.26523417 595,1.00001574 C595,0.734799172 595.105,0.480399172 595.293,0.292862172 C595.48,0.105326172 595.735,1.57361e-05 596,1.57361e-05 Z M608,1.626064e-05 C608.265,1.626064e-05 608.52,0.105326172 608.707,0.292863172 C608.895,0.480399172 609,0.734800172 609,1.00001626 C609,1.26523417 608.895,1.51963417 608.707,1.70717417 C608.52,1.89470417 608.265,2.00001626 608,2.00001626 C607.735,2.00001626 607.48,1.89470417 607.293,1.70717417 C607.105,1.51963417 607,1.26523417 607,1.00001626 C607,0.734800172 607.105,0.480399172 607.293,0.292863172 C607.48,0.105326172 607.735,1.626064e-05 608,1.626064e-05 Z M620,1.678518e-05 C620.265,1.678518e-05 620.52,0.105327172 620.707,0.292863172 C620.895,0.480400172 621,0.734800172 621,1.00001679 C621,1.26523417 620.895,1.51963417 620.707,1.70717417 C620.52,1.89470417 620.265,2.00001679 620,2.00001679 C619.735,2.00001679 619.48,1.89470417 619.293,1.70717417 C619.105,1.51963417 619,1.26523417 619,1.00001679 C619,0.734800172 619.105,0.480400172 619.293,0.292863172 C619.48,0.105327172 619.735,1.678518e-05 620,1.678518e-05 Z M632,1.730971e-05 C632.265,1.730971e-05 632.52,0.105327172 632.707,0.292864172 C632.895,0.480400172 633,0.734801172 633,1.00001731 C633,1.26523417 632.895,1.51963417 632.707,1.70717417 C632.52,1.89470417 632.265,2.00001731 632,2.00001731 C631.735,2.00001731 631.48,1.89470417 631.293,1.70717417 C631.105,1.51963417 631,1.26523417 631,1.00001731 C631,0.734801172 631.105,0.480400172 631.293,0.292864172 C631.48,0.105327172 631.735,1.730971e-05 632,1.730971e-05 Z M644,1.783425e-05 C644.265,1.783425e-05 644.52,0.105328172 644.707,0.292864172 C644.895,0.480401172 645,0.734801172 645,1.00001783 C645,1.26523417 644.895,1.51963417 644.707,1.70717417 C644.52,1.89470417 644.265,2.00001783 644,2.00001783 C643.735,2.00001783 643.48,1.89470417 643.293,1.70717417 C643.105,1.51963417 643,1.26523417 643,1.00001783 C643,0.734801172 643.105,0.480401172 643.293,0.292864172 C643.48,0.105328172 643.735,1.783425e-05 644,1.783425e-05 Z M656,1.835879e-05 C656.265,1.835879e-05 656.52,0.105329172 656.707,0.292865172 C656.895,0.480401172 657,0.734802172 657,1.00001836 C657,1.26523417 656.895,1.51963417 656.707,1.70717417 C656.52,1.89470417 656.265,2.00001836 656,2.00001836 C655.735,2.00001836 655.48,1.89470417 655.293,1.70717417 C655.105,1.51963417 655,1.26523417 655,1.00001836 C655,0.734802172 655.105,0.480401172 655.293,0.292865172 C655.48,0.105328172 655.735,1.835879e-05 656,1.835879e-05 Z M668,1.888332e-05 C668.265,1.888332e-05 668.52,0.105329172 668.707,0.292865172 C668.895,0.480402172 669,0.734802172 669,1.00001888 C669,1.26523417 668.895,1.51963417 668.707,1.70717417 C668.52,1.89470417 668.265,2.00001888 668,2.00001888 C667.735,2.00001888 667.48,1.89470417 667.293,1.70717417 C667.105,1.51963417 667,1.26523417 667,1.00001888 C667,0.734802172 667.105,0.480402172 667.293,0.292865172 C667.48,0.105329172 667.735,1.888332e-05 668,1.888332e-05 Z M680,1.940786e-05 C680.265,1.940786e-05 680.52,0.105330172 680.707,0.292866172 C680.895,0.480402172 681,0.734803172 681,1.00001941 C681,1.26523417 680.895,1.51963417 680.707,1.70717417 C680.52,1.89470417 680.265,2.00001941 680,2.00001941 C679.735,2.00001941 679.48,1.89470417 679.293,1.70717417 C679.105,1.51963417 679,1.26523417 679,1.00001941 C679,0.734803172 679.105,0.480402172 679.293,0.292866172 C679.48,0.105330172 679.735,1.940786e-05 680,1.940786e-05 Z M692,1.99324e-05 C692.265,1.99324e-05 692.52,0.105330172 692.707,0.292866172 C692.895,0.480403172 693,0.734803172 693,1.00001993 C693,1.26523417 692.895,1.51963417 692.707,1.70717417 C692.52,1.89471417 692.265,2.00001993 692,2.00001993 C691.735,2.00001993 691.48,1.89471417 691.293,1.70717417 C691.105,1.51963417 691,1.26523417 691,1.00001993 C691,0.734803172 691.105,0.480403172 691.293,0.292866172 C691.48,0.105330172 691.735,1.99324e-05 692,1.99324e-05 Z M704,2.045693e-05 C704.265,2.045693e-05 704.52,0.105331172 704.707,0.292867172 C704.895,0.480403172 705,0.734804172 705,1.00002046 C705,1.26523417 704.895,1.51963417 704.707,1.70717417 C704.52,1.89471417 704.265,2.00002046 704,2.00002046 C703.735,2.00002046 703.48,1.89471417 703.293,1.70717417 C703.105,1.51963417 703,1.26523417 703,1.00002046 C703,0.734804172 703.105,0.480403172 703.293,0.292867172 C703.48,0.105331172 703.735,2.045693e-05 704,2.045693e-05 Z M716,2.098147e-05 C716.265,2.098147e-05 716.52,0.105331172 716.707,0.292868172 C716.895,0.480404172 717,0.734804172 717,1.00002098 C717,1.26523417 716.895,1.51963417 716.707,1.70717417 C716.52,1.89471417 716.265,2.00002098 716,2.00002098 C715.735,2.00002098 715.48,1.89471417 715.293,1.70717417 C715.105,1.51963417 715,1.26523417 715,1.00002098 C715,0.734804172 715.105,0.480404172 715.293,0.292867172 C715.48,0.105331172 715.735,2.098147e-05 716,2.098147e-05 Z M728,2.150601e-05 C728.265,2.150601e-05 728.52,0.105332172 728.707,0.292868172 C728.895,0.480404172 729,0.734805172 729,1.00002151 C729,1.26523417 728.895,1.51963417 728.707,1.70717417 C728.52,1.89471417 728.265,2.00002151 728,2.00002151 C727.735,2.00002151 727.48,1.89471417 727.293,1.70717417 C727.105,1.51963417 727,1.26523417 727,1.00002151 C727,0.734805172 727.105,0.480404172 727.293,0.292868172 C727.48,0.105332172 727.735,2.150601e-05 728,2.150601e-05 Z M740,2.203054e-05 C740.265,2.203054e-05 740.52,0.105332172 740.707,0.292869172 C740.895,0.480405172 741,0.734805172 741,1.00002203 C741,1.26523417 740.895,1.51963417 740.707,1.70717417 C740.52,1.89471417 740.265,2.00002203 740,2.00002203 C739.735,2.00002203 739.48,1.89471417 739.293,1.70717417 C739.105,1.51963417 739,1.26523417 739,1.00002203 C739,0.734805172 739.105,0.480405172 739.293,0.292869172 C739.48,0.105332172 739.735,2.203054e-05 740,2.203054e-05 Z M752,2.255508e-05 C752.265,2.255508e-05 752.52,0.105333172 752.707,0.292869172 C752.895,0.480405172 753,0.734806172 753,1.00002256 C753,1.26523417 752.895,1.51964417 752.707,1.70717417 C752.52,1.89471417 752.265,2.00002256 752,2.00002256 C751.735,2.00002256 751.48,1.89471417 751.293,1.70717417 C751.105,1.51964417 751,1.26523417 751,1.00002256 C751,0.734806172 751.105,0.480405172 751.293,0.292869172 C751.48,0.105333172 751.735,2.255508e-05 752,2.255508e-05 Z M764,2.307962e-05 C764.265,2.307962e-05 764.52,0.105333172 764.707,0.292870172 C764.895,0.480406172 765,0.734806172 765,1.00002308 C765,1.26524417 764.895,1.51964417 764.707,1.70717417 C764.52,1.89471417 764.265,2.00002308 764,2.00002308 C763.735,2.00002308 763.48,1.89471417 763.293,1.70717417 C763.105,1.51964417 763,1.26524417 763,1.00002308 C763,0.734806172 763.105,0.480406172 763.293,0.292870172 C763.48,0.105333172 763.735,2.307962e-05 764,2.307962e-05 Z M776,2.3604152e-05 C776.265,2.3604152e-05 776.52,0.105334172 776.707,0.292870172 C776.895,0.480407172 777,0.734807172 777,1.0000236 C777,1.26524417 776.895,1.51964417 776.707,1.70717417 C776.52,1.89471417 776.265,2.0000236 776,2.0000236 C775.735,2.0000236 775.48,1.89471417 775.293,1.70717417 C775.105,1.51964417 775,1.26524417 775,1.0000236 C775,0.734807172 775.105,0.480406172 775.293,0.292870172 C775.48,0.105334172 775.735,2.3604152e-05 776,2.3604152e-05 Z M788,2.41286886e-05 C788.265,2.41286886e-05 788.52,0.105334172 788.707,0.292871172 C788.895,0.480407172 789,0.734808172 789,1.00002413 C789,1.26524417 788.895,1.51964417 788.707,1.70717417 C788.52,1.89471417 788.265,2.00002413 788,2.00002413 C787.735,2.00002413 787.48,1.89471417 787.293,1.70717417 C787.105,1.51964417 787,1.26524417 787,1.00002413 C787,0.734807172 787.105,0.480407172 787.293,0.292871172 C787.48,0.105334172 787.735,2.41286886e-05 788,2.41286886e-05 Z" id="Shape" fill="#002FA7" fill-rule="nonzero"></path>
    </g>
</svg>