<svg width="221" height="31" viewBox="0 0 221 31" fill="none" xmlns="http://www.w3.org/2000/svg">
<path d="M30.2368 30.1417H31.8181C33.9273 30.1417 35.2458 27.8585 34.1902 26.0316L23.9093 8.2207H17.5818L30.2368 30.1417Z" fill="#F0F0F0"/>
<path d="M17.5825 8.22157L20.7472 2.74084L19.9565 1.37018C18.9009 -0.456727 16.2659 -0.456727 15.2104 1.37018L4.92749 19.1811L8.0922 24.6618L17.5825 8.22157Z" fill="#F0F0F0"/>
<path d="M27.0743 24.6621L23.9096 30.1428H3.34385C1.23469 30.1428 -0.0837775 27.8597 0.971769 26.0328L1.76246 24.6621H27.0743Z" fill="#F0F0F0"/>
<path d="M63.4075 23.8121L61.4724 18.6648H55.1907L53.2556 23.8121H50.562L57.1971 6.33789H59.4887L66.1238 23.8121H63.4075ZM58.3769 9.64408H58.3283L56.0853 16.3278H60.5973L58.3769 9.64408Z" fill="#F0F0F0"/>
<path d="M81.2868 10.8685C81.2868 9.28674 80.2723 8.34351 78.8299 8.34351C77.6014 8.34351 76.4929 9.45205 76.4929 10.7292C76.4929 12.0062 77.3194 12.6642 79.0211 13.2088C82.8006 14.4146 84.1943 15.8311 84.1943 18.852C84.1943 21.873 81.9286 24.1419 78.8331 24.1419C75.7376 24.1419 73.4946 21.9216 73.4492 18.6381H76.0002C76.0229 20.5278 77.1347 21.8017 78.8331 21.8017C80.5316 21.8017 81.6434 20.5732 81.6434 18.8488C81.6434 17.5749 81.0762 16.7711 79.2124 16.1325C74.8916 14.6674 73.9451 13.2509 73.9451 10.7713C73.9451 8.10365 76.1428 6 78.8331 6C81.7147 6 83.7924 7.81841 83.841 10.8653H81.2901L81.2868 10.8685Z" fill="#F0F0F0"/>
<path d="M95.1729 23.8121V8.67491H91.8181V6.33789H101.075V8.67491H97.7239V23.8121H95.1729Z" fill="#F0F0F0"/>
<path d="M117.888 23.8121L112.125 15.7119H112.077V23.8121H109.526V6.33789H115.123C119.328 6.33789 121.191 8.55823 121.191 12.1464C121.191 15.4753 118.64 17.2224 116.187 17.2937L121.075 23.8121H117.885H117.888ZM113.944 15.3586C116.919 15.3586 118.644 14.2014 118.644 11.9357C118.644 9.92932 117.039 8.67816 114.77 8.67816H112.077V15.3619H113.944V15.3586Z" fill="#F0F0F0"/>
<path d="M138.247 24.1423C133.405 24.1423 129.298 19.9868 129.298 15.2642C129.298 9.90296 133.408 6.00684 138.319 6.00684C143.514 6.00684 147.482 10.091 147.482 14.9562C147.482 20.2462 143.398 24.1423 138.247 24.1423ZM144.931 15.1216C144.931 11.5074 142.192 8.34386 138.507 8.34386C133.784 8.34386 131.849 12.4053 131.849 15.0016C131.849 18.5217 134.4 21.802 138.39 21.802C142.38 21.802 144.931 18.3078 144.931 15.1183V15.1216Z" fill="#F0F0F0"/>
<path d="M177.873 19.4903C176.103 22.5371 173.293 24.1416 169.796 24.1416C164.956 24.1416 160.963 19.7982 160.963 15.1436C160.963 9.87636 165.118 6.00293 169.818 6.00293C173.124 6.00293 176.217 7.51341 177.99 10.7969H174.92C173.598 9.2605 172.061 8.33995 170.01 8.33995C166.35 8.33995 163.517 11.4322 163.517 14.9037C163.517 18.5632 166.279 21.7981 169.87 21.7981C171.689 21.7981 173.319 21.0882 174.735 19.4838H177.876L177.873 19.4903Z" fill="#F0F0F0"/>
<path d="M197.947 23.8121L196.012 18.6648H189.73L187.795 23.8121H185.101L191.736 6.33789H194.028L200.663 23.8121H197.947ZM192.916 9.64408H192.868L190.625 16.3278H195.133L192.913 9.64408H192.916Z" fill="#F0F0F0"/>
<path d="M209.094 23.8121V6.33789H214.17C217.923 6.33789 220.309 8.20492 220.309 11.6278C220.309 15.0507 217.972 16.9177 214.192 16.9177H211.642V23.8121H209.091H209.094ZM214.17 14.5774C216.413 14.5774 217.758 13.5143 217.758 11.6246C217.758 9.73484 216.364 8.67167 214.144 8.67167H211.642V14.5742H214.17V14.5774Z" fill="#F0F0F0"/>
</svg>
