<svg width="618" height="104" viewBox="0 0 618 104" fill="none" xmlns="http://www.w3.org/2000/svg">
<path d="M74.5931 47.2807H26.7251L33.9391 34.7658H38.6387L51.645 12.2071H46.9454L53.6565 0.558105H77.1509L70.4362 12.2034H65.8741L52.9076 34.6933H68.9782L73.4173 26.9938H86.2861L74.5931 47.2771V47.2807Z" fill="#FF1E6E"/>
<path d="M132.769 39.5812C130.298 43.864 124.788 47.2807 120.432 47.2807H88.2941C83.9346 47.2807 82.4332 43.8676 84.9006 39.5812L107.396 0.558105H128.916L122.161 12.2723H116.372L103.37 34.8274H119.712L132.714 12.2723H126.994L133.745 0.558105H155.264L132.769 39.5812Z" fill="#FF1E6E"/>
<path d="M180.745 25.5916H196.476L188.411 39.5812C185.94 43.864 180.434 47.2807 176.143 47.2807H143.185C138.825 47.2807 137.324 43.8676 139.791 39.5812L157.848 8.25765C160.319 3.97489 165.756 0.558105 170.116 0.558105H203.075C207.365 0.558105 208.936 3.97127 206.468 8.25765L199.37 20.5733H183.64L188.422 12.2723H171.266L158.264 34.8274H175.42L180.745 25.5916Z" fill="#FF1E6E"/>
<path d="M213.429 38.8455L208.567 47.2805H190.589L197.767 34.8308H200.9L213.903 12.2757H210.77L217.524 0.561523H235.502L230.599 9.06544L256.775 0.626743H269.372L257.216 21.7108H244.416L247.27 16.7577L225.165 23.921L239.011 31.0843L241.865 26.1313H254.665L242.473 47.2842H229.807L213.425 38.8491L213.429 38.8455Z" fill="#FF1E6E"/>
<path d="M326.755 0.558105L320 12.2723H312.851L292.385 30.4106L289.878 34.7622H295.598L288.384 47.2771H260.4L267.614 34.7622H273.334L275.765 30.5447L276.152 12.2723H268.457L275.211 0.558105H292.031L292.078 16.4246L310.344 0.558105H326.755Z" fill="#FF1E6E"/>
<path d="M366.197 25.5916H381.928L373.863 39.5812C371.392 43.864 365.886 47.2807 361.595 47.2807H328.636C324.277 47.2807 322.775 43.8676 325.243 39.5812L343.3 8.25765C345.771 3.97489 351.208 0.558105 355.568 0.558105H388.527C392.817 0.558105 394.388 3.97127 391.92 8.25765L384.822 20.5733H369.091L373.874 12.2723H356.718L343.716 34.8274H360.872L366.197 25.5916Z" fill="#FF1E6E"/>
<path d="M408.182 47.2807L415.36 34.831H399.224L392.046 47.2807H376.182L395.321 14.0803L411.315 7.11993L415.096 0.558105H438.862L435.117 7.05108L443.116 14.0767L423.978 47.2771H408.179L408.182 47.2807ZM422.885 21.7799L417.647 16.6927L406.786 21.711L404.778 25.193H420.913L422.882 21.7799H422.885Z" fill="#FF1E6E"/>
<path d="M505.536 0.558105L493.343 21.711H480.543L486.021 12.2071H481.459L468.416 34.831H472.978L465.801 47.2807H441.355L448.533 34.831H453.163L466.206 12.2071H461.919L456.441 21.711H443.641L455.833 0.558105H505.543H505.536Z" fill="#FF1E6E"/>
<path d="M74.9153 47.8386H25.7593L33.6173 34.2077H38.3169L50.6792 12.7649H45.9795L53.3347 0H78.1134L70.7547 12.7613H66.1926L53.8701 34.1352H68.6527L73.0918 26.4357H87.2486L74.9153 47.8314V47.8386ZM27.6876 46.7226H74.2713L85.3202 27.5553H73.7394L69.3003 35.2549H51.9454L65.5558 11.649H70.118L76.1887 1.1196H53.9823L47.9115 11.649H52.6111L38.9645 35.3237H34.2649L27.6948 46.7226H27.6876Z" fill="#F0F0F0"/>
<path d="M120.432 47.8386H88.2942C86.1597 47.8386 84.5352 47.0596 83.7212 45.6429C82.7806 44.0124 83.0374 41.7007 84.4195 39.3021L107.075 0H129.878L122.483 12.8302H116.694L104.336 34.2729H119.39L131.748 12.8302H126.029L133.423 0H156.227L133.246 39.8601C130.667 44.3349 125.037 47.8386 120.428 47.8386H120.432ZM107.719 1.11598L85.3818 39.8601C84.2024 41.9036 83.9491 43.8095 84.6836 45.0849C85.2914 46.1393 86.5721 46.7226 88.2906 46.7226H120.428C124.607 46.7226 129.925 43.3928 132.284 39.3021L154.299 1.11598H134.067L127.957 11.7142H133.677L120.03 35.3853H102.4L116.047 11.7142H121.835L127.946 1.11598H107.715H107.719Z" fill="#F0F0F0"/>
<path d="M176.139 47.8386H143.181C141.046 47.8386 139.422 47.0596 138.608 45.6429C137.667 44.0124 137.924 41.7007 139.306 39.3021L157.363 7.97854C159.942 3.50374 165.543 0 170.112 0H203.071C205.187 0 206.805 0.782636 207.622 2.2066C208.566 3.84434 208.317 6.14876 206.942 8.53653L199.685 21.1312H182.666L187.449 12.8302H171.577L159.219 34.2729H175.09L180.416 25.0371H197.434L188.885 39.8637C186.349 44.2624 180.629 47.8422 176.136 47.8422L176.139 47.8386ZM170.119 1.11598C165.98 1.11598 160.691 4.44581 158.332 8.53653L140.276 39.8601C139.096 41.9036 138.843 43.8095 139.577 45.0849C140.185 46.1393 141.466 46.7226 143.184 46.7226H176.143C180.282 46.7226 185.571 43.3928 187.93 39.3021L195.513 26.1495H181.071L175.745 35.3853H157.301L170.948 11.7142H189.392L184.609 20.0152H199.051L205.99 7.97854C207.163 5.94948 207.409 4.04724 206.667 2.76459C206.056 1.70296 204.782 1.11598 203.078 1.11598H170.119Z" fill="#F0F0F0"/>
<path d="M242.799 47.8386L229.557 47.777L213.646 39.5847L208.888 47.8386H189.627L197.449 34.2729H200.582L212.94 12.8302H209.807L217.202 0H236.464L231.804 8.08724L256.775 0.068843H270.338L257.542 22.2689H243.454L246.069 17.7361L226.616 24.0407L238.805 30.3453L241.554 25.5734H255.642L242.806 47.8386H242.799ZM229.948 46.7226H242.155L253.703 26.6857H242.187L239.228 31.8199L223.722 23.7979L248.475 15.7759L245.378 21.1493H256.894L268.406 1.1812H256.861L229.395 10.033L234.536 1.11598H217.846L211.736 11.7142H214.869L201.222 35.3853H198.089L191.555 46.719H208.244L213.212 38.1028L229.948 46.719V46.7226Z" fill="#F0F0F0"/>
<path d="M288.702 47.8386H259.43L267.288 34.2077H273.008L275.208 30.3924L275.58 12.8338H267.487L274.886 0H292.584L292.628 15.2034L310.138 0H327.721L320.326 12.8302H313.065L292.823 30.7692L290.841 34.2041H296.56L288.702 47.835V47.8386ZM261.358 46.7226H288.058L294.628 35.3237H288.909L292.013 29.9974L312.638 11.7178H319.675L325.785 1.1196H310.551L291.517 17.6455L291.47 1.1196H275.526L269.415 11.7178H276.716L276.242 30.8272L273.648 35.3237H267.929L261.358 46.7226Z" fill="#F0F0F0"/>
<path d="M361.595 47.8386H328.636C326.502 47.8386 324.877 47.0596 324.063 45.6429C323.123 44.0124 323.379 41.7007 324.762 39.3021L342.818 7.97854C345.398 3.50374 350.998 0 355.568 0H388.526C390.643 0 392.26 0.782636 393.078 2.2066C394.022 3.84434 393.772 6.14876 392.398 8.53653L385.14 21.1312H368.122L372.904 12.8302H357.033L344.674 34.2729H360.546L365.871 25.0371H382.89L374.341 39.8637C371.805 44.2624 366.085 47.8422 361.591 47.8422L361.595 47.8386ZM355.571 1.11598C351.432 1.11598 346.143 4.44581 343.784 8.53653L325.727 39.8601C324.548 41.9036 324.295 43.8095 325.029 45.0849C325.637 46.1393 326.918 46.7226 328.636 46.7226H361.595C365.734 46.7226 371.023 43.3928 373.382 39.3021L380.965 26.1495H366.523L361.197 35.3853H342.753L356.4 11.7142H374.844L370.061 20.0152H384.503L391.442 7.97854C392.615 5.94948 392.861 4.04724 392.119 2.76459C391.508 1.70296 390.234 1.11598 388.53 1.11598H355.571Z" fill="#F0F0F0"/>
<path d="M424.304 47.8386H407.22L414.398 35.3889H399.547L392.369 47.8386H375.217L394.93 13.6418L410.925 6.68139L414.774 0H439.824L435.827 6.93502L443.826 13.9606L424.297 47.8386H424.304ZM409.149 46.7226H423.66L442.411 14.1961L434.412 7.17054L437.9 1.11598H415.422L411.706 7.55823L395.712 14.5186L377.145 46.7226H391.721L398.899 34.2729H416.323L409.145 46.7226H409.149ZM421.239 25.7509H403.816L406.395 21.2797L417.763 16.0259L423.587 21.6819L421.243 25.7509H421.239ZM405.744 24.6349H420.595L422.187 21.8776L417.535 17.3593L407.18 22.1421L405.744 24.6349Z" fill="#F0F0F0"/>
<path d="M466.122 47.8386H440.388L448.21 34.2729H452.841L465.24 12.7649H462.237L456.756 22.2689H442.668L455.508 0H506.501L493.665 22.2653H479.577L485.058 12.7613H481.784L469.386 34.2693H473.948L466.126 47.835L466.122 47.8386ZM442.32 46.7226H465.478L472.012 35.3889H467.45L481.136 11.649H486.987L481.506 21.1529H493.021L504.573 1.11598H456.151L444.6 21.1529H456.115L461.596 11.649H467.172L453.485 35.3889H448.854L442.32 46.7226Z" fill="#F0F0F0"/>
<path d="M21.4975 56.7192H69.4342L62.6797 68.4334H14.7465L21.5011 56.7192H21.4975ZM0.966064 103.442L8.14391 90.9922H30.0682L36.1607 85.5028H4.90592L11.6207 73.8575H59.5574L52.8427 85.5028L42.3364 95.8112C38.4725 99.5577 33.5088 103.442 26.7687 103.442H0.966064Z" fill="#FF1E6E"/>
<path d="M55.5126 90.9922H65.7258L64.2967 93.4706H69.6078L83.2869 88.0501L95.982 66.0276H108.308L91.9083 94.4779L68.4211 103.446H48.3347L55.5126 90.9958V90.9922ZM58.794 85.3036L69.9081 66.0276H79.0323L67.9182 85.3036H58.794ZM81.7566 66.0276H90.8808L79.7667 85.3036H70.6425L81.7566 66.0276Z" fill="#FF1E6E"/>
<path d="M132.135 103.442H110.142L117.32 90.9922H123.311V87.445H101.865L107.925 76.9374H125.764L125.681 73.1909H110.088L116.376 62.2811H128.156L128.022 56.7266H142.935L143.069 62.2811H164.313L158.025 73.1909H141.343L141.498 76.9374H155.865L149.805 87.445H139.317V90.9922L132.139 103.442H132.135Z" fill="#FF1E6E"/>
<path d="M211.609 74.8577L204.355 87.4414H156.35L163.604 74.8577H211.609Z" fill="#FF1E6E"/>
<path d="M241.171 103.442H219.178L226.355 90.9922H232.347V87.445H210.9L216.96 76.9374H234.8L234.716 73.1909H219.123L225.411 62.2811H237.191L237.057 56.7266H251.97L252.104 62.2811H273.348L267.06 73.1909H250.378L250.534 76.9374H264.9L258.84 87.445H248.352V90.9922L241.174 103.442H241.171Z" fill="#FF1E6E"/>
<path d="M270.258 103.442H257.867L271.449 79.8797H268.996L274.361 70.575H276.814L279.401 66.0894H291.792L289.205 70.575H312.627L307.262 79.8797L292.425 93.3331H279.147L294.053 79.8797H283.84L270.258 103.442Z" fill="#FF1E6E"/>
<path d="M306.451 90.9922H316.665L315.235 93.4706H320.546L334.226 88.0501L346.921 66.0276H359.247L342.847 94.4779L319.36 103.446H299.273L306.451 90.9958V90.9922ZM309.733 85.3036L320.847 66.0276H329.971L318.857 85.3036H309.733ZM332.695 66.0276H341.82L330.705 85.3036H321.581L332.695 66.0276Z" fill="#FF1E6E"/>
<path d="M394.724 77.2707H400.512L392.604 90.9922H386.815L370.083 84.7021L359.28 103.442H344.027L370.962 56.7192H386.215L378.071 70.8429L394.727 77.2671L394.724 77.2707Z" fill="#FF1E6E"/>
<path d="M26.7722 104H0L7.82183 90.4343H29.8546L34.7098 86.061H3.93986L11.2986 73.2997H60.5233L53.2333 85.9015L42.727 96.2099C38.9861 99.8368 33.7945 104 26.7722 104ZM1.93194 102.884H26.7722C33.3567 102.884 38.1396 99.1049 41.9528 95.4091L52.4012 85.1551L58.595 74.412H11.9426L5.8718 84.9414H37.6114L30.2779 91.5467H8.46581L1.93194 102.88V102.884ZM63.0052 68.9915H13.7805L21.1754 56.1614H70.4001L63.0052 68.9915ZM15.7124 67.8756H62.3612L68.4718 57.2774H21.8194L15.7088 67.8756H15.7124Z" fill="#F0F0F0"/>
<path d="M68.526 104H47.3723L55.1941 90.4343H66.6953L65.2663 92.9127H69.5064L82.907 87.6009L95.6672 65.4661H109.278L92.2954 94.9236L92.1109 94.9925L68.526 103.996V104ZM49.3006 102.884H68.3198L91.5284 94.0214L107.346 66.582H96.3076L83.674 88.4922L69.6077 94.025H63.3307L64.7598 91.5467H55.8309L49.297 102.88L49.3006 102.884ZM80.0887 85.8581H69.6765L81.4345 65.4661H91.8468L80.0887 85.8581ZM71.6084 84.7421H79.4447L89.9148 66.582H82.0785L71.6084 84.7421ZM68.2402 85.8581H57.828L69.586 65.4661H79.9982L68.2402 85.8581ZM59.7599 84.7421H67.5962L78.0663 66.582H70.23L59.7599 84.7421Z" fill="#F0F0F0"/>
<path d="M132.457 104H109.176L116.998 90.4344H122.754V88.0031H100.902L107.603 76.3795H125.193L125.131 73.749H109.119L116.05 61.7232H127.581L127.447 56.1687H143.474L143.608 61.7232H165.275L158.343 73.749H141.918L142.027 76.3795H156.827L150.127 88.0031H139.874V91.1409L132.461 104H132.457ZM111.105 102.884H131.813L138.756 90.8438V86.8872H149.479L154.895 77.4919H140.959L140.757 72.6294H157.699L163.347 62.8356H142.522L142.388 57.2811H128.59L128.724 62.8356H116.694L111.047 72.6294H126.22L126.329 77.4919H108.243L102.827 86.8872H123.869V91.5504H117.639L111.105 102.884Z" fill="#F0F0F0"/>
<path d="M204.677 87.9996H155.384L163.282 74.2998H212.575L204.677 87.9996ZM157.312 86.8836H204.033L210.643 75.4158H163.922L157.312 86.8836Z" fill="#F0F0F0"/>
<path d="M241.493 104H218.212L226.034 90.4344H231.79V88.0031H209.938L216.638 76.3795H234.228L234.167 73.749H218.154L225.086 61.7232H236.616L236.482 56.1687H252.509L252.643 61.7232H274.31L267.379 73.749H250.954L251.062 76.3795H265.863L259.162 88.0031H248.909V91.1409L241.496 104H241.493ZM220.14 102.884H240.849L247.791 90.8438V86.8872H258.515L263.931 77.4919H249.995L249.792 72.6294H266.735L272.382 62.8356H251.558L251.424 57.2811H237.625L237.759 62.8356H225.73L220.082 72.6294H235.256L235.364 77.4919H217.278L211.862 86.8872H232.904V91.5504H226.674L220.14 102.884Z" fill="#F0F0F0"/>
<path d="M270.581 104H256.901L270.483 80.4376H268.03L274.036 70.0169H276.488L279.072 65.5312H292.751L290.168 70.0169H313.59L307.635 80.2926L292.639 93.8909H277.697L292.602 80.4376H284.162L270.581 104ZM258.83 102.884H269.937L283.518 79.3216H295.504L280.598 92.7749H292.212L306.824 79.5245L311.661 71.1329H288.239L290.822 66.6472H279.716L277.132 71.1329H274.68L269.958 79.3216H272.411L258.83 102.884Z" fill="#F0F0F0"/>
<path d="M319.465 104H298.311L306.133 90.4343H317.634L316.205 92.9127H320.445L333.846 87.6009L346.606 65.4661H360.217L343.234 94.9236L343.05 94.9925L319.465 103.996V104ZM300.24 102.884H319.259L342.467 94.0214L358.285 66.582H347.247L334.613 88.4922L320.55 94.025H314.273L315.702 91.5467H306.773L300.24 102.88V102.884ZM331.028 85.8581H320.615L332.374 65.4661H342.786L331.028 85.8581ZM322.547 84.7421H330.384L340.854 66.582H333.017L322.547 84.7421ZM319.179 85.8581H308.767L320.525 65.4661H330.937L319.179 85.8581ZM310.699 84.7421H318.535L329.005 66.582H321.169L310.699 84.7421Z" fill="#F0F0F0"/>
<path d="M359.598 104H343.057L370.636 56.1614H387.177L378.878 70.5568L394.829 76.7128H401.478L392.926 91.5503L386.62 91.5141L370.329 85.3907L359.602 104H359.598ZM344.985 102.884H358.954L369.833 84.0138L386.913 90.4343H392.278L399.547 77.8288L394.525 77.7926L377.26 71.1329L385.245 57.281H371.277L344.985 102.888V102.884Z" fill="#F0F0F0"/>
<path d="M444.994 81.7382H460.298L452.429 95.6047C450.019 99.8512 444.654 103.235 440.479 103.235H408.417C404.177 103.235 402.719 99.8512 405.129 95.6047L422.748 64.5565C425.157 60.31 430.454 56.9258 434.694 56.9258H466.756C470.931 56.9258 472.454 60.31 470.044 64.5565L463.12 76.7634H447.816L452.483 68.5385H435.79L423.102 90.898H439.795L444.99 81.7419L444.994 81.7382ZM523.969 64.5565L506.349 95.6047C503.94 99.8512 498.575 103.235 494.403 103.235H463.134C458.894 103.235 457.436 99.8512 459.845 95.6047L477.464 64.5565C479.874 60.31 485.171 56.9258 489.411 56.9258H520.68C524.855 56.9258 526.378 60.31 523.969 64.5565ZM506.407 68.5385H490.507L477.819 90.898H493.72L506.407 68.5385ZM535.622 90.8291H539.992L532.952 103.235H509.168L516.208 90.8291H520.781L533.469 68.4697H528.896L535.444 56.9258H559.228L552.68 68.4697H548.31L535.622 90.8291ZM593.746 90.8944H596.727L589.727 103.235H570.646L579.192 88.1769L572.441 78.8215L558.588 103.235H540.169L547.17 90.8944H550.216L562.94 68.4697H559.894L566.442 56.9258H584.861L582.451 61.1723L589.202 70.5277L596.919 56.9258H616L609.452 68.4697H606.47L593.746 90.8944Z" fill="url(#paint0_linear_341_4691)"/>
<path d="M444.994 81.7382H460.298L452.429 95.6047C450.019 99.8512 444.654 103.235 440.479 103.235H408.417C404.177 103.235 402.719 99.8512 405.129 95.6047L422.748 64.5565C425.157 60.31 430.454 56.9258 434.694 56.9258H466.756C470.931 56.9258 472.454 60.31 470.044 64.5565L463.12 76.7634H447.816L452.483 68.5385H435.79L423.102 90.898H439.795L444.99 81.7419L444.994 81.7382Z" stroke="white" stroke-width="1.44657" stroke-miterlimit="10"/>
<path d="M523.969 64.5565L506.35 95.6047C503.94 99.8512 498.575 103.235 494.403 103.235H463.134C458.894 103.235 457.436 99.8512 459.846 95.6047L477.465 64.5565C479.874 60.31 485.171 56.9258 489.411 56.9258H520.68C524.855 56.9258 526.378 60.31 523.969 64.5565ZM506.408 68.5385H490.507L477.819 90.898H493.72L506.408 68.5385Z" stroke="white" stroke-width="1.44657" stroke-miterlimit="10"/>
<path d="M535.622 90.8291H539.992L532.952 103.235H509.168L516.208 90.8291H520.781L533.469 68.4697H528.896L535.445 56.9258H559.228L552.68 68.4697H548.31L535.622 90.8291Z" stroke="white" stroke-width="1.44657" stroke-miterlimit="10"/>
<path d="M593.746 90.8944H596.728L589.727 103.235H570.646L579.192 88.1769L572.441 78.8215L558.588 103.235H540.169L547.17 90.8944H550.216L562.94 68.4697H559.894L566.442 56.9258H584.861L582.451 61.1723L589.202 70.5277L596.919 56.9258H616L609.452 68.4697H606.47L593.746 90.8944Z" stroke="white" stroke-width="1.44657" stroke-miterlimit="10"/>
<defs>
<linearGradient id="paint0_linear_341_4691" x1="517.93" y1="103.235" x2="517.93" y2="56.9258" gradientUnits="userSpaceOnUse">
<stop stop-color="#9148EB"/>
<stop offset="0.5" stop-color="white"/>
<stop offset="1" stop-color="#4F24CC"/>
</linearGradient>
</defs>
</svg>
