<svg width="480" height="228" viewBox="0 0 480 228" fill="none" xmlns="http://www.w3.org/2000/svg">
<g clip-path="url(#clip0_2767_3044)">
<path d="M70.6881 44.7378H25.3237L32.1606 32.893H36.614L48.9372 11.5485H44.4838L50.8507 0.529175H73.1138L66.7511 11.5485H62.4288L50.1395 32.8295H65.3668L69.5705 25.5439H81.7667L70.6881 44.7336V44.7378Z" fill="#FF1E6E"/>
<path d="M125.823 37.4523C123.482 41.5078 118.262 44.7378 114.131 44.7378H83.6718C79.54 44.7378 78.1177 41.5078 80.4587 37.4523L101.778 0.529175H122.17L115.769 11.612H110.282L97.9593 32.9565H113.445L125.768 11.612H120.349L126.75 0.529175H147.142L125.823 37.4565V37.4523Z" fill="#FF1E6E"/>
<path d="M171.285 24.2146H186.19L178.549 37.4522C176.208 41.5077 170.988 44.7378 166.924 44.7378H135.691C131.559 44.7378 130.137 41.5077 132.478 37.4522L149.593 7.81046C151.934 3.75493 157.09 0.524902 161.218 0.524902H192.451C196.515 0.524902 198.005 3.75493 195.664 7.81046L188.938 19.4648H174.032L178.566 11.612H162.306L149.983 32.9564H166.243L171.289 24.2146H171.285Z" fill="#FF1E6E"/>
<path d="M202.26 36.758L197.65 44.7378H180.615L187.418 32.9565H190.386L202.709 11.612H199.741L206.142 0.529175H223.177L218.533 8.5725L243.34 0.592675H255.278L243.759 20.5443H231.627L234.332 15.8581L213.385 22.6356L226.508 29.4132L229.214 24.7269H241.346L229.789 44.742H217.788L202.26 36.7622V36.758Z" fill="#FF1E6E"/>
<path d="M309.655 0.529175L303.254 11.612H296.481L277.084 28.7782L274.705 32.8972H280.124L273.287 44.742H246.765L253.602 32.8972H259.02L261.323 28.9052L261.692 11.6163H254.398L260.798 0.533408H276.737L276.779 15.5448L294.106 0.529175H309.655Z" fill="#FF1E6E"/>
<path d="M347.035 24.2146H361.941L354.3 37.4522C351.959 41.5077 346.739 44.7378 342.675 44.7378H311.442C307.31 44.7378 305.887 41.5077 308.228 37.4522L325.344 7.81046C327.685 3.75493 332.841 0.524902 336.969 0.524902H368.202C372.266 0.524902 373.756 3.75493 371.415 7.81046L364.688 19.4648H349.783L354.317 11.612H338.056L325.733 32.9564H341.993L347.04 24.2146H347.035Z" fill="#FF1E6E"/>
<path d="M386.824 44.7378L393.627 32.9564H378.337L371.534 44.7378H356.497L374.637 13.3222L389.796 6.73519L393.382 0.524902H415.903L412.356 6.66746L419.937 13.318L401.798 44.7335H386.829L386.824 44.7378ZM400.756 20.6078L395.791 15.7945L385.499 20.5443L383.599 23.8378H398.889L400.756 20.6078Z" fill="#FF1E6E"/>
<path d="M479.086 0.529175L467.529 20.5443H455.396L460.59 11.5485H456.268L443.907 32.9565H448.229L441.426 44.7378H418.261L425.064 32.9565H429.45L441.811 11.5485H437.747L432.553 20.5443H420.42L431.977 0.529175H479.086Z" fill="#FF1E6E"/>
<path d="M70.9972 45.267H24.4094L31.8558 32.368H36.3093L48.0229 12.0777H43.5695L50.546 0H74.0282L67.056 12.0777H62.7337L51.054 32.3045H65.0621L69.27 25.019H82.6854L70.9972 45.267ZM26.2425 44.2129H70.3876L80.8566 26.0773H69.8796L65.6717 33.3628H49.2252L62.1241 11.0236H66.4464L72.1995 1.05833H51.1556L45.4025 11.0236H49.856L36.9231 33.4263H32.4697L26.2425 44.2129Z" fill="white"/>
<path d="M114.13 45.267H83.6716C81.6481 45.267 80.1114 44.5304 79.3367 43.1926C78.4477 41.6517 78.689 39.4631 79.9971 37.194L101.469 0H123.08L116.069 12.1412H110.583L98.8693 32.4315H113.136L124.849 12.1412H119.431L126.445 0H148.056L126.28 37.7189C123.837 41.9523 118.499 45.267 114.13 45.267ZM102.082 1.0541L80.9157 37.7147C79.7981 39.6493 79.5568 41.4527 80.2553 42.6592C80.8311 43.6583 82.046 44.2086 83.6758 44.2086H114.135C118.093 44.2086 123.135 41.059 125.37 37.1898L146.227 1.0541H127.055L121.264 11.0828H126.682L113.749 33.4814H97.0447L109.978 11.0828H115.464L121.255 1.0541H102.082Z" fill="white"/>
<path d="M166.924 45.2669H135.691C133.667 45.2669 132.131 44.5303 131.356 43.1926C130.467 41.6517 130.708 39.463 132.016 37.194L149.132 7.55223C151.574 3.31891 156.883 0.00421143 161.214 0.00421143H192.447C194.454 0.00421143 195.986 0.745043 196.761 2.09124C197.654 3.64064 197.421 5.82504 196.117 8.0814L189.238 19.9982H173.114L177.647 12.1454H162.606L150.893 32.4357H165.934L170.98 23.6939H187.105L179.002 37.7232C176.602 41.8845 171.179 45.2712 166.92 45.2712L166.924 45.2669ZM161.218 1.05831C157.294 1.05831 152.281 4.2079 150.046 8.07717L132.931 37.7189C131.813 39.6535 131.572 41.4569 132.27 42.6634C132.846 43.6625 134.061 44.2128 135.691 44.2128H166.924C170.849 44.2128 175.857 41.0632 178.092 37.194L185.276 24.748H171.59L166.543 33.4898H149.064L161.997 11.0913H179.476L174.942 18.9441H188.629L195.203 7.55647C196.312 5.63454 196.545 3.83537 195.846 2.62464C195.267 1.61711 194.06 1.06678 192.447 1.06678H161.214L161.218 1.05831Z" fill="white"/>
<path d="M230.094 45.267L217.547 45.2077L202.467 37.4565L197.959 45.267H179.705L187.117 32.4315H190.085L201.799 12.1412H198.831L205.837 0H224.091L219.672 7.64962L243.336 0.0634999H256.188L244.06 21.0693H230.708L233.184 16.7809L214.748 22.7457L226.297 28.7104L228.9 24.1977H242.252L230.09 45.267H230.094ZM217.915 44.2129H229.485L240.432 25.256H229.518L226.712 30.1159L212.018 22.5255L235.479 14.9352L232.545 20.0194H243.459L254.368 1.12606H243.425L217.394 9.49959L222.267 1.06256H206.451L200.66 11.0913H203.627L190.695 33.4898H187.727L181.534 44.2171H197.349L202.057 36.0637L217.915 44.2171V44.2129Z" fill="white"/>
<path d="M273.596 45.267H245.855L253.301 32.368H258.72L260.807 28.757L261.162 12.1412H253.496L260.506 0H277.279L277.321 14.3848L293.911 0H310.574L303.563 12.1412H296.684L277.503 29.1168L275.628 32.368H281.046L273.6 45.267H273.596ZM247.684 44.2129H272.986L279.213 33.4263H273.795L276.737 28.3845L296.282 11.0871H302.954L308.745 1.05833H294.305L276.267 16.6962L276.22 1.05833H261.112L255.32 11.0871H262.238L261.789 29.1676L259.334 33.4221H253.915L247.688 44.2086L247.684 44.2129Z" fill="white"/>
<path d="M342.675 45.2669H311.442C309.418 45.2669 307.881 44.5303 307.107 43.1926C306.218 41.6517 306.459 39.463 307.767 37.194L324.882 7.55223C327.325 3.31891 332.634 0.00421143 336.964 0.00421143H368.198C370.204 0.00421143 371.737 0.745043 372.512 2.09124C373.405 3.64064 373.172 5.82504 371.868 8.0814L364.989 19.9982H348.864L353.398 12.1454H338.357L326.643 32.4357H341.685L346.731 23.6939H362.855L354.753 37.7232C352.352 41.8845 346.93 45.2712 342.671 45.2712L342.675 45.2669ZM336.969 1.05831C333.044 1.05831 328.032 4.2079 325.797 8.07717L308.681 37.7189C307.564 39.6535 307.323 41.4569 308.021 42.6634C308.597 43.6625 309.812 44.2128 311.442 44.2128H342.675C346.599 44.2128 351.607 41.0632 353.843 37.194L361.027 24.748H347.34L342.294 33.4898H324.815L337.748 11.0913H355.227L350.693 18.9441H364.379L370.954 7.55647C372.063 5.63454 372.296 3.83537 371.597 2.62464C371.017 1.61711 369.811 1.06678 368.198 1.06678H336.964L336.969 1.05831Z" fill="white"/>
<path d="M402.103 45.267H385.91L392.713 33.4856H378.641L371.838 45.267H355.583L374.264 12.9074L389.424 6.32036L393.073 0H416.813L413.025 6.56166L420.606 13.2122L402.098 45.267H402.103ZM387.739 44.2129H401.489L419.26 13.4366L411.678 6.78602L414.985 1.05833H393.682L390.165 7.15432L375.005 13.7414L357.411 44.2171H371.225L378.028 32.4357H394.542L387.739 44.2171V44.2129ZM399.198 24.367H382.684L385.127 20.1337L395.901 15.1638L401.421 20.5147L399.198 24.367ZM384.513 23.3129H398.585L400.092 20.701L395.685 16.4253L385.872 20.9507L384.513 23.3087V23.3129Z" fill="white"/>
<path d="M441.735 45.267H417.347L424.759 32.4315H429.145L440.897 12.0777H438.052L432.858 21.0735H419.506L431.672 0H480L467.833 21.0693H454.481L459.676 12.0734H456.573L444.821 32.4273H449.143L441.731 45.2627L441.735 45.267ZM419.175 44.2129H441.121L447.314 33.4856H442.992L455.963 11.0236H461.505L456.31 20.0194H467.224L478.171 1.06256H432.282L421.334 20.0194H432.248L437.442 11.0236H442.726L429.755 33.4856H425.369L419.175 44.2129Z" fill="white"/>
<path d="M20.3749 53.3103H65.8027L59.402 64.3932H13.9741L20.3749 53.3103ZM0.914307 97.5232L7.71726 85.7418H28.4944L34.2687 80.5475H4.6481L11.0108 69.5282H56.4386L50.0759 80.5475L40.1191 90.3011C36.4573 93.8486 31.7541 97.5232 25.366 97.5232H0.914307Z" fill="#FF1E6E"/>
<path d="M52.6076 85.7418H62.2893L60.9346 88.0871H65.968L78.9305 82.9563L90.9616 62.1156H102.641L87.1008 89.0353L64.842 97.5231H45.8047L52.6076 85.7418ZM55.7149 80.357L66.2474 62.1156H74.8961L64.3636 80.357H55.7149ZM77.4742 62.1156H86.1229L75.5904 80.357H66.9417L77.4742 62.1156Z" fill="#FF1E6E"/>
<path d="M125.222 97.5232H104.377L111.18 85.7418H116.857V82.3848H96.5325L102.273 72.4407H119.177L119.096 68.8932H104.318L110.278 58.5681H121.441L121.314 53.3103H135.445L135.572 58.5681H155.706L149.745 68.8932H133.934L134.082 72.4407H147.696L141.956 82.3848H132.016V85.7418L125.213 97.5232H125.222Z" fill="#FF1E6E"/>
<path d="M200.537 70.4722L193.662 82.3805H148.167L155.041 70.4722H200.537Z" fill="#FF1E6E"/>
<path d="M228.553 97.5232H207.708L214.511 85.7418H220.188V82.3848H199.864L205.604 72.4407H222.508L222.427 68.8932H207.649L213.609 58.5681H224.773L224.646 53.3103H238.777L238.904 58.5681H259.037L253.077 68.8932H237.265L237.413 72.4407H251.028L245.287 82.3848H235.348V85.7418L228.545 97.5232H228.553Z" fill="#FF1E6E"/>
<path d="M256.116 97.5232H244.373L257.247 75.2305H254.922L260.007 66.4251H262.331L264.782 62.1833H276.525L274.074 66.4251H296.274L291.189 75.2305L277.131 87.9601H264.549L278.676 75.2305H268.998L256.125 97.5232H256.116Z" fill="#FF1E6E"/>
<path d="M290.415 85.7418H300.096L298.742 88.0871H303.775L316.738 82.9563L328.769 62.1156H340.448L324.908 89.0353L302.649 97.5231H283.612L290.415 85.7418ZM293.522 80.357L304.055 62.1156H312.703L302.171 80.357H293.522ZM315.281 62.1156H323.93L313.398 80.357H304.749L315.281 62.1156Z" fill="#FF1E6E"/>
<path d="M374.07 72.7582H379.556L372.059 85.7418H366.572L350.714 79.7897L340.474 97.5231H326.017L351.54 53.3145H365.997L358.279 66.6791L374.065 72.7582H374.07Z" fill="#FF1E6E"/>
<path d="M25.3703 98.0481H0L7.41256 85.2126H28.2913L32.893 81.0724H3.73379L10.7061 68.9948H57.3531L50.4443 80.92L40.4875 90.6736C36.9442 94.1069 32.0209 98.0439 25.3661 98.0439L25.3703 98.0481ZM1.8288 96.994H25.3703C31.6103 96.994 36.1441 93.4168 39.7552 89.9201L49.6569 80.2173L55.5243 70.0531H11.3157L5.56259 80.0184H35.6446L28.6977 86.2667H8.02216L1.8288 96.994ZM59.7068 64.9223H13.0598L20.0702 52.7811H66.7172L59.7068 64.9223ZM14.8886 63.8682H59.0973L64.8884 53.8395H20.6798L14.8886 63.8682Z" fill="white"/>
<path d="M64.9392 98.0481H44.8901L52.3027 85.2127H63.2035L61.8488 87.5579H65.8663L78.5663 82.533L90.6566 61.5907H103.556L87.4605 89.4629L87.2869 89.5307L64.9392 98.0523V98.0481ZM46.7189 96.994H64.7444L86.7366 88.6078L101.727 62.6448H91.2662L79.2944 83.3796L65.9636 88.6163H60.0158L61.3705 86.271H52.9081L46.7147 96.9982L46.7189 96.994ZM75.895 80.8862H66.0271L77.1693 61.5907H87.0371L75.895 80.8862ZM67.8559 79.8321H75.2854L85.2083 62.6448H77.7789L67.8559 79.8321ZM64.664 80.8862H54.7961L65.9382 61.5907H75.8061L64.664 80.8862ZM56.6249 79.8321H64.0544L73.9773 62.6448H66.5478L56.6249 79.8321Z" fill="white"/>
<path d="M125.527 98.0481H103.462L110.875 85.2126H116.332V82.9097H95.6223L101.972 71.9115H118.643L118.588 69.4223H103.412L109.982 58.0431H120.908L120.781 52.7853H135.97L136.097 58.0431H156.629L150.059 69.4223H134.493L134.594 71.9115H148.619L142.269 82.9097H132.554V85.8815L125.527 98.0481ZM105.291 96.994H124.917L131.496 85.5979V81.8556H141.66L146.791 72.9656H133.583L133.392 68.364H149.449L154.8 59.0972H135.064L134.937 53.8394H121.86L121.987 59.0972H110.587L105.236 68.364H119.617L119.723 72.9656H102.582L97.4511 81.8556H117.39V86.2667H111.489L105.295 96.994H105.291Z" fill="white"/>
<path d="M193.967 82.9097H147.252L154.736 69.9473H201.451L193.967 82.9097ZM149.081 81.8556H193.357L199.622 71.0056H155.346L149.081 81.8556Z" fill="white"/>
<path d="M228.858 98.0481H206.794L214.206 85.2126H219.663V82.9097H198.954L205.304 71.9115H221.974L221.919 69.4223H206.743L213.313 58.0431H224.239L224.112 52.7853H239.301L239.428 58.0431H259.96L253.39 69.4223H237.824L237.926 71.9115H251.951L245.601 82.9097H235.885V85.8815L228.858 98.0481ZM208.623 96.994H228.248L234.827 85.5979V81.8556H244.991L250.122 72.9656H236.914L236.723 68.364H252.78L258.131 59.0972H238.396L238.269 53.8394H225.192L225.319 59.0972H213.918L208.567 68.364H222.948L223.054 72.9656H205.913L200.782 81.8556H220.721V86.2667H214.82L208.627 96.994H208.623Z" fill="white"/>
<path d="M256.421 98.0481H243.458L256.332 75.7554H254.008L259.702 65.896H262.026L264.477 61.6542H277.439L274.988 65.896H297.188L291.545 75.6199L277.334 88.485H263.173L277.3 75.7554H269.299L256.425 98.0481H256.421ZM245.287 96.994H255.811L268.685 74.7013H280.043L265.916 87.4309H276.923L290.77 74.8918L295.355 66.9501H273.155L275.606 62.7083H265.082L262.631 66.9501H260.307L255.833 74.6971H258.157L245.283 96.9898L245.287 96.994Z" fill="white"/>
<path d="M302.746 98.0481H282.697L290.11 85.2127H301.011L299.656 87.5579H303.673L316.373 82.533L328.464 61.5907H341.363L325.268 89.4629L325.094 89.5307L302.746 98.0523V98.0481ZM284.526 96.994H302.552L324.544 88.6078L339.534 62.6448H329.073L317.102 83.3796L303.775 88.6163H297.827L299.182 86.271H290.719L284.526 96.9982V96.994ZM313.702 80.8862H303.834L314.976 61.5907H324.844L313.702 80.8862ZM305.663 79.8321H313.093L323.015 62.6448H315.586L305.663 79.8321ZM302.471 80.8862H292.603L303.745 61.5907H313.613L302.471 80.8862ZM294.432 79.8321H301.862L311.784 62.6448H304.355L294.432 79.8321Z" fill="white"/>
<path d="M340.783 98.0481H325.107L351.244 52.7811H366.92L359.054 66.404L374.171 72.229H380.47L372.364 86.2667L366.39 86.2329L350.951 80.4374L340.783 98.0481ZM326.936 96.994H340.173L350.486 79.1378L366.674 85.2126H371.758L378.646 73.2831L373.888 73.2493L357.526 66.9458L365.095 53.8395H351.857L326.94 96.994H326.936Z" fill="white"/>
<path d="M156.684 141.165L135.352 128.71C134.92 130.226 134.7 131.415 134.7 132.715C134.7 139.213 143.04 144.517 147.912 147.658C160.257 155.672 177.042 164.659 177.042 181.766C177.042 195.736 165.561 205.481 151.917 207.213V228.003H141.414V207.103C132.317 206.129 123.004 202.878 113.8 196.6L135.564 183.604L158.085 198.547C159.817 195.732 160.358 193.569 160.358 191.401C160.358 184.903 152.561 179.167 147.798 175.59C136.643 167.36 120.078 157.505 120.078 142.13C120.078 129.354 128.74 120.15 141.41 117.551V96.8712H151.913V117.013C161.552 117.771 169.13 122.102 177.685 128.494L156.68 141.165H156.684Z" fill="white"/>
<path d="M281.423 205.16H241.359L250.456 193.141V147.447L225.552 186.973L199.995 146.909V193.146L209.198 205.164H180.285L189.382 193.146V132.397L182.558 125.573L203.242 113.229L232.261 159.249L250.346 130.446L241.359 118.533H281.423L272.22 130.552V193.141L281.423 205.16Z" fill="white"/>
<path d="M327.435 205.16H287.371L296.468 193.141V130.552L287.371 118.533H327.435L318.232 130.552V193.141L327.435 205.16Z" fill="white"/>
<path d="M393.268 205.16H333.387L342.485 193.141V130.552L333.387 118.533H373.451L364.248 130.552V197.688L393.268 184.154V205.16Z" fill="white"/>
<path d="M480 195.199L458.558 208.085L428.997 168.994V193.141L438.2 205.16H398.136L407.233 193.141V130.552L398.136 118.533H438.2L428.997 130.552V162.496L456.395 130.442L447.408 118.529H479.458L446.324 157.509L468.413 186.855L480 195.194V195.199Z" fill="white"/>
<path d="M72.0512 119.126C65.1213 119.126 58.5385 121.899 53.6871 126.75L49.5299 130.907L45.7199 127.097C35.67 116.7 19.0373 116.7 8.9916 126.75L8.64447 127.097C-1.75258 137.494 -1.75258 154.127 8.64447 164.52L49.5342 205.752L90.4239 164.52C100.821 154.123 100.821 137.49 90.4239 127.097C85.5725 121.899 78.9897 119.126 72.0597 119.126H72.0512Z" fill="#FF1E6E"/>
<path d="M49.5299 206.955L8.04332 165.117C2.8575 159.931 0 153.073 0 145.808C0 138.544 2.8575 131.686 8.04332 126.5L8.39045 126.153C13.445 121.099 20.193 118.364 27.4108 118.415C34.6201 118.474 41.3342 121.353 46.3253 126.513L49.5299 129.718L53.0902 126.157C58.1659 121.082 64.9011 118.288 72.0512 118.288C79.2013 118.288 86.0762 121.213 91.0335 126.526C96.2024 131.69 99.0556 138.548 99.0556 145.813C99.0556 153.077 96.1981 159.935 91.0123 165.121L49.5257 206.959L49.5299 206.955ZM27.178 120.099C20.502 120.099 14.2663 122.669 9.58849 127.347L9.24135 127.694C4.37303 132.562 1.69333 138.997 1.69333 145.808C1.69333 152.62 4.37303 159.055 9.24135 163.923L49.5299 204.554L89.8185 163.923C94.6911 159.05 97.3707 152.62 97.3707 145.808C97.3707 138.997 94.6911 132.562 89.8227 127.694C85.1661 122.707 78.8626 119.972 72.0555 119.972C65.2483 119.972 59.0422 122.593 54.2882 127.347L49.5342 132.101L45.123 127.69C40.441 122.847 34.1502 120.154 27.4023 120.099C27.3304 120.099 27.2542 120.099 27.1822 120.099H27.178Z" fill="white"/>
</g>
<defs>
<clipPath id="clip0_2767_3044">
<rect width="480" height="228.007" fill="white"/>
</clipPath>
</defs>
</svg>
