<svg width="157" height="32" viewBox="0 0 157 32" fill="none" xmlns="http://www.w3.org/2000/svg">
<path d="M22.8072 14.586H7.97815L10.2139 10.6783H11.6699L15.6998 3.63604H14.2438L16.3208 0H23.5939L21.5168 3.63604H20.1023L16.0862 10.6574H21.0614L22.4346 8.25423H26.4231L22.8003 14.586H22.8072Z" fill="white"/>
<path d="M40.8233 12.1828C40.0573 13.5202 38.3529 14.586 37.0004 14.586H27.0431C25.6906 14.586 25.2283 13.5202 25.9942 12.1828L32.9637 0H39.6295L37.5387 3.65694H35.7446L31.7147 10.6992H36.7727L40.8026 3.65694H39.0292L41.12 0H47.7858L40.8164 12.1828H40.8233Z" fill="white"/>
<path d="M55.6804 7.8154H60.5521L58.0541 12.1828C57.2882 13.5202 55.5838 14.586 54.252 14.586H44.0462C42.6937 14.586 42.2314 13.5202 42.9973 12.1828L48.5936 2.40313C49.3595 1.06573 51.0432 0 52.3957 0H62.6015C63.9333 0 64.4163 1.06573 63.6504 2.40313L61.4491 6.24814H56.5774L58.061 3.65694H52.7477L48.7178 10.6992H54.0311L55.6804 7.8154Z" fill="white"/>
<path d="M65.8026 11.953L64.2983 14.586H58.7297L60.9516 10.6992H61.9246L65.9545 3.65694H64.9815L67.0723 0H72.641L71.1229 2.65389L79.2309 0.0208959H83.1297L79.362 6.60338H75.3943L76.2775 5.05702L69.4323 7.29298L73.7244 9.52893L74.6076 7.98257H78.5754L74.8008 14.586H70.8814L65.8095 11.953H65.8026Z" fill="white"/>
<path d="M100.906 0L98.8156 3.65694H96.6006L90.259 9.31997L89.4793 10.6783H91.2527L89.0169 14.586H80.35L82.5857 10.6783H84.3591L85.1113 9.36176L85.2286 3.65694H82.8479L84.9388 0H90.1486L90.1624 4.95254L95.8208 0H100.906Z" fill="white"/>
<path d="M113.126 7.8154H117.997L115.499 12.1828C114.733 13.5202 113.029 14.586 111.697 14.586H101.492C100.139 14.586 99.6767 13.5202 100.443 12.1828L106.039 2.40313C106.805 1.06573 108.489 0 109.841 0H120.047C121.379 0 121.862 1.06573 121.096 2.40313L118.894 6.24814H114.023L115.506 3.65694H110.193L106.163 10.6992H111.476L113.126 7.8154Z" fill="white"/>
<path d="M126.126 14.586L128.348 10.6992H123.352L121.13 14.586H116.217L122.145 4.22115L127.099 2.04789L128.272 0H135.635L134.476 2.02699L136.953 4.22115L131.026 14.586H126.133H126.126ZM130.681 6.62427L129.059 5.03612L125.698 6.60338L125.077 7.69001H130.073L130.681 6.62427Z" fill="white"/>
<path d="M156.283 0L152.508 6.60338H148.54L150.238 3.63604H148.823L144.787 10.6992H146.201L143.979 14.586H136.409L138.631 10.6992H140.067L144.103 3.63604H142.778L141.081 6.60338H137.113L140.888 0H156.283Z" fill="white"/>
<path d="M6.36222 17.4139H21.212L19.1212 21.0709H4.27138L6.36222 17.4139ZM0 31.9999L2.22195 28.1131H9.012L10.8958 26.3996H1.22138L3.29842 22.7635H18.1482L16.0712 26.3996L12.8141 29.6177C11.6204 30.7879 10.0816 31.9999 7.99073 31.9999H0Z" fill="white"/>
<path d="M16.8929 28.1131H20.0533L19.6117 28.8863H21.254L25.4909 27.1936L29.4241 20.3186H33.2401L28.1614 29.1997L20.8883 31.9999H14.6641L16.886 28.1131H16.8929ZM17.9073 26.3369L21.3506 20.3186H24.1798L20.7365 26.3369H17.9073ZM25.0216 20.3186H27.8508L24.4075 26.3369H21.5783L25.0216 20.3186Z" fill="white"/>
<path d="M40.6293 31.9999H33.8186L36.0405 28.1131H37.8967V27.0056H31.2516L33.1285 23.7248H38.6558L38.6282 22.5546H33.7979L35.7438 19.1484H39.3941L39.3527 17.4139H43.9691L44.0105 19.1484H50.5936L48.6476 22.5546H43.4792L43.5275 23.7248H47.9783L46.1014 27.0056H42.8513V28.1131L40.6293 31.9999Z" fill="white"/>
<path d="M65.2434 23.077L62.9939 27.0056H48.1234L50.373 23.077H65.2434Z" fill="white"/>
<path d="M74.3996 31.9999H67.5888L69.8108 28.1131H71.667V27.0056H65.0219L66.8988 23.7248H72.426L72.3984 22.5546H67.5681L69.514 19.1484H73.1644L73.123 17.4139H77.7394L77.7808 19.1484H84.3638L82.4179 22.5546H77.2495L77.2978 23.7248H81.7486L79.8716 27.0056H76.6215V28.1131L74.3996 31.9999Z" fill="white"/>
<path d="M83.4054 32H79.5687L83.778 24.6443H83.019L84.682 21.7397H85.441L86.2415 20.3396H90.0781L89.2777 21.7397H96.53L94.867 24.6443L90.2713 28.8446H86.1587L90.7751 24.6443H87.6147L83.4054 32Z" fill="white"/>
<path d="M94.6195 28.1131H97.7799L97.3383 28.8863H98.9806L103.217 27.1936L107.151 20.3186H110.967L105.888 29.1997L98.6148 31.9999H92.3906L94.6126 28.1131H94.6195ZM95.6338 26.3369L99.0772 20.3186H101.906L98.463 26.3369H95.6338ZM102.748 20.3186H105.577L102.134 26.3369H99.3049L102.748 20.3186Z" fill="white"/>
<path d="M121.959 23.8293H123.753L121.303 28.1131H119.509L114.327 26.1488L110.98 31.9999H106.253L114.596 17.4139H119.323L116.804 21.8232L121.965 23.8293H121.959Z" fill="white"/>
</svg>
