<svg width="1080" height="1080" viewBox="0 0 1080 1080" fill="none" xmlns="http://www.w3.org/2000/svg">
<circle cx="540" cy="540" r="540" fill="#692BA9"/>
<path d="M539.398 979.159C323.759 979.159 148.375 825.325 148.375 636.251C148.375 617.683 150.137 598.843 153.661 580.139C167.621 479.3 241.488 101.288 347.207 101.288C391.527 101.288 435.035 167.43 476.644 297.816C497.652 294.835 518.661 293.344 539.262 293.344C559.864 293.344 581.007 294.835 601.88 297.816C643.49 167.43 686.998 101.288 731.318 101.288C837.037 101.288 910.904 479.3 925 580.546C928.523 598.979 930.286 617.818 930.286 636.387C930.286 825.46 754.901 979.294 539.262 979.294L539.398 979.159Z" fill="white"/>
<path d="M732.205 107.154C823.015 107.154 899.187 435.965 919.111 580.447C922.499 598.338 924.261 616.636 924.261 635.34C924.261 821.025 752.265 971.47 540.014 971.47C327.764 971.47 155.769 821.025 155.769 635.34C155.769 616.636 157.531 598.338 160.919 580.447C180.978 435.965 257.014 107.154 347.824 107.154C395.397 107.154 439.04 197.692 472.517 304.495C494.339 301.106 516.838 299.209 539.879 299.209C562.92 299.209 585.419 301.106 607.241 304.495C640.854 197.692 684.361 107.154 731.935 107.154M731.935 93.5999C684.361 93.5999 640.447 157.708 597.753 289.45C578.371 286.875 558.854 285.655 539.879 285.655C520.904 285.655 501.387 286.875 482.005 289.45C439.447 157.708 395.397 93.5999 347.824 93.5999C220.284 93.5999 148.179 573.806 147.501 578.685C143.977 597.118 142.215 616.5 142.215 635.475C142.215 828.343 320.581 985.159 540.014 985.159C759.448 985.159 937.815 828.208 937.815 635.475C937.815 616.5 936.053 597.254 932.393 578.007C931.851 573.806 859.61 93.5999 732.205 93.5999H731.935Z" fill="white"/>
<path d="M853.942 441.655C847.571 413.87 840.387 385.001 832.119 355.996C784.682 187.524 742.937 146.592 732.094 145.644C722.2 146.592 687.096 180.612 645.215 312.218C730.603 333.497 803.928 379.85 853.806 441.791L853.942 441.655Z" fill="black"/>
<path d="M434.864 312.086C392.983 180.48 357.879 146.46 348.121 145.511C337.278 146.596 295.532 187.392 248.095 355.864C239.962 384.869 232.644 413.874 226.273 441.523C276.286 379.583 349.476 333.23 434.864 311.95V312.086Z" fill="black"/>
<path d="M864.776 814.928L540.03 533.69L215.285 814.928C283.325 908.991 403.274 971.609 540.03 971.609C676.787 971.609 796.737 909.126 864.776 814.928Z" fill="black"/>
<path d="M463.162 681.472C463.162 745.175 411.523 796.679 347.956 796.679C284.389 796.679 232.75 681.472 232.75 681.472C232.75 681.472 284.389 566.266 347.956 566.266C411.523 566.266 463.162 617.906 463.162 681.472Z" fill="black" stroke="white" stroke-width="2.93812" stroke-miterlimit="10"/>
<path d="M847.428 681.472C847.428 681.472 795.788 796.679 732.222 796.679C668.655 796.679 617.016 745.039 617.016 681.472C617.016 617.906 668.655 566.266 732.222 566.266C795.788 566.266 847.428 681.472 847.428 681.472Z" fill="black" stroke="white" stroke-width="2.93812" stroke-miterlimit="10"/>
<path d="M655.369 512.459C655.369 512.459 603.73 598.931 540.163 598.931C476.596 598.931 424.957 512.459 424.957 512.459C424.957 512.459 476.596 425.986 540.163 425.986C603.73 425.986 655.369 512.459 655.369 512.459Z" fill="black" stroke="white" stroke-width="2.93812" stroke-miterlimit="10"/>
<path d="M405.562 683.097C405.562 736.091 347.959 779.192 347.959 779.192C347.959 779.192 290.355 736.227 290.355 683.097C290.355 629.966 347.959 587.001 347.959 587.001C347.959 587.001 405.562 629.966 405.562 683.097Z" fill="white"/>
<path d="M789.827 683.097C789.827 736.091 732.224 779.192 732.224 779.192C732.224 779.192 674.621 736.227 674.621 683.097C674.621 629.966 732.224 587.001 732.224 587.001C732.224 587.001 789.827 629.966 789.827 683.097Z" fill="white"/>
<path d="M578.534 512.458C578.534 549.595 540.177 579.684 540.177 579.684C540.177 579.684 501.82 549.595 501.82 512.458C501.82 475.321 540.177 445.231 540.177 445.231C540.177 445.231 578.534 475.321 578.534 512.458Z" fill="white"/>
<path d="M539.651 826.889L592.782 780.942H486.656L539.651 826.889Z" fill="white"/>
</svg>
