<svg width="1080" height="188" viewBox="0 0 1080 188" fill="none" xmlns="http://www.w3.org/2000/svg">
<path d="M74.7123 181.955H0L16.9617 159.541V42.8082L0 20.3945H74.7123L57.5487 42.8082V159.521L74.7123 181.935V181.955Z" fill="white"/>
<path d="M159.521 181.955H84.8086L101.77 159.541V44.8274L88.8471 31.9042L142.357 0V159.521L159.521 181.935V181.955Z" fill="white"/>
<path d="M242.314 181.955H167.602L184.563 159.541V44.8274L171.64 31.9042L225.15 0V159.521L242.314 181.935V181.955Z" fill="white"/>
<path d="M375.779 165.397L338.827 187.407L326.913 167.416L294.201 187.205C270.374 182.157 254.22 161.157 254.22 138.541V113.502L241.297 100.579L294.807 68.6748V133.897C294.807 147.426 306.923 158.531 322.471 158.531H322.875V113.502L309.951 100.579L363.462 68.6748V153.079L375.779 165.397Z" fill="white"/>
<path d="M586.792 181.955H528.839V122.387C528.839 108.858 519.147 97.5501 504.002 97.5501V159.541L521.166 181.955H463.214V122.387C463.214 108.858 453.521 97.5501 438.377 97.5501V159.541L455.54 181.955H380.828L397.79 159.541V103.204L385.472 90.8865L422.425 68.8767L434.338 88.6654L467.252 69.0786C479.973 72.5114 490.07 80.7903 496.329 91.0885L532.878 69.0786C555.089 75.1364 569.628 95.9347 569.628 117.541V159.541L586.792 181.955Z" fill="white"/>
<path d="M671.521 181.955H596.809L613.77 159.541V113.098L600.847 99.973L654.357 68.2708V159.541L671.521 181.955ZM654.357 51.3091H613.77V20.4146H654.357V51.3091Z" fill="white"/>
<path d="M746.434 119.338C736.944 106.415 724.223 95.5108 706.857 89.0492C705.847 93.4915 705.242 98.1358 705.242 102.578C705.242 136.3 735.53 163.156 769.858 170.021C758.954 179.31 746.232 184.56 731.694 184.56C700.193 184.56 675.559 159.319 675.559 128.021C675.559 96.7223 700.193 71.4817 731.694 71.4817C752.896 71.4817 770.665 82.5876 780.762 99.9531L746.434 119.338Z" fill="white"/>
<path d="M907.778 165.195L870.825 187.205L857.498 164.589L819.738 187.205C799.748 172.06 788.844 147.829 788.844 125.415C788.844 96.944 806.411 71.5015 845.383 71.5015C862.546 71.5015 880.518 76.5496 895.46 85.0304V152.877L907.778 165.195ZM854.873 107.242L818.729 89.6747C816.911 94.5209 816.104 99.1652 816.104 103.608C816.104 125.617 834.075 145.406 854.873 154.291V107.242Z" fill="white"/>
<path d="M997.227 97.9338H974.813V152.05L987.736 164.771L950.178 187.185C939.678 171.838 934.226 160.329 934.226 140.944V97.9338H911.812V78.9529H934.226V64.8181L921.303 51.693L974.813 19.9907V78.9529H997.227V97.9338Z" fill="white"/>
<path d="M1080 181.955H1005.29L1022.25 159.541V113.098L1009.32 99.973L1062.83 68.2708V159.541L1080 181.955ZM1062.83 51.3091H1022.25V20.4146H1062.83V51.3091Z" fill="white"/>
</svg>
