<svg width="637" height="721" viewBox="0 0 637 721" fill="none" xmlns="http://www.w3.org/2000/svg">
<path fill-rule="evenodd" clip-rule="evenodd" d="M637 202.899V239.099C637 246.199 633.2 252.799 627.1 256.299L510.5 323.599L614.6 383.499C628.5 391.499 637 406.299 637 422.299V518.699C637 534.699 628.4 549.499 614.5 557.499L340.7 714.599C326.9 722.499 309.9 722.499 296 714.499L206.4 662.699C199.8 658.899 199.8 649.299 206.4 645.499L502.3 475.199C505.6 473.299 505.6 468.499 502.3 466.599L392.4 403.099C386.3 399.499 378.7 399.499 372.5 403.099L71.9 576.299C67.3 578.899 61.6 578.999 57 576.299L23 556.799C9.1 548.799 0.5 533.999 0.5 517.899V478.399C0.5 473.099 3.4 468.099 8 465.499L438.9 217.899C442.2 215.999 442.2 211.199 438.9 209.299L328.9 145.599C322.8 141.999 315.2 141.999 309 145.599L15.4 314.499C8.80002 318.299 0.5 313.499 0.5 305.899V202.399C0.5 186.399 9.1 171.599 23 163.599L296.8 6.49922C310.6 -1.40078 327.6 -1.40078 341.4 6.49922L614.6 164.099C628.5 172.199 637 186.899 637 202.899Z" fill="#7524F9"/>
</svg>
