<svg width="21" height="21" viewBox="0 0 21 21" fill="white" xmlns="http://www.w3.org/2000/svg">
<path d="M10.5 1.5C12.28 1.5 14.0201 2.02784 15.5001 3.01677C16.9802 4.00571 18.1337 5.41131 18.8149 7.05585C19.4961 8.70038 19.6743 10.51 19.3271 12.2558C18.9798 14.0016 18.1226 15.6053 16.864 16.864C15.6053 18.1226 14.0016 18.9798 12.2558 19.3271C10.51 19.6743 8.70039 19.4961 7.05585 18.8149C5.41132 18.1337 4.00571 16.9802 3.01678 15.5001C2.02785 14.0201 1.5 12.28 1.5 10.5C1.50699 8.1152 2.45744 5.83007 4.14376 4.14375C5.83008 2.45744 8.1152 1.50698 10.5 1.5V1.5ZM10.5 0C8.4233 0 6.39323 0.615814 4.66652 1.76957C2.9398 2.92332 1.59399 4.5632 0.79927 6.48182C0.00454947 8.40045 -0.203386 10.5116 0.201759 12.5484C0.606904 14.5852 1.60693 16.4562 3.07538 17.9246C4.54383 19.3931 6.41476 20.3931 8.45156 20.7982C10.4884 21.2034 12.5996 20.9955 14.5182 20.2007C16.4368 19.406 18.0767 18.0602 19.2304 16.3335C20.3842 14.6068 21 12.5767 21 10.5C20.9919 7.71773 19.883 5.05175 17.9156 3.08438C15.9483 1.11702 13.2823 0.00815188 10.5 0V0Z" />
<path d="M14.25 7.5V6H11.25V3.75H9.75V6H8.25C7.8523 6.0004 7.471 6.15856 7.18978 6.43978C6.90856 6.721 6.7504 7.1023 6.75 7.5V9.75C6.7504 10.1477 6.90856 10.529 7.18978 10.8102C7.471 11.0914 7.8523 11.2496 8.25 11.25H12.75V13.5H6.75V15H9.75V17.25H11.25V15H12.75C13.1477 14.9995 13.529 14.8414 13.8102 14.5602C14.0914 14.279 14.2495 13.8977 14.25 13.5V11.25C14.2496 10.8523 14.0914 10.471 13.8102 10.1898C13.529 9.90856 13.1477 9.7504 12.75 9.75H8.25V7.5H14.25Z"/>
</svg>
