<svg width="22" height="14" viewBox="0 0 22 14" fill="none" xmlns="http://www.w3.org/2000/svg">
<path d="M14 0V1.5H18.9394L12.5 7.93942L9.28025 4.71975C9.21064 4.65008 9.12798 4.59481 9.037 4.55709C8.94601 4.51938 8.84849 4.49997 8.75 4.49997C8.65151 4.49997 8.55399 4.51938 8.463 4.55709C8.37202 4.59481 8.28936 4.65008 8.21975 4.71975L0.5 12.4394L1.56057 13.5L8.75 6.31058L11.9697 9.53025C12.0394 9.59992 12.122 9.65519 12.213 9.69291C12.304 9.73062 12.4015 9.75003 12.5 9.75003C12.5985 9.75003 12.696 9.73062 12.787 9.69291C12.878 9.65519 12.9606 9.59992 13.0303 9.53025L20 2.56057V7.5H21.5V0H14Z"/>
</svg>
