<svg width="16" height="22" viewBox="0 0 16 22" fill="none" xmlns="http://www.w3.org/2000/svg">
<path d="M15.275 5.97502L10.025 0.725022C9.95901 0.651733 9.87788 0.593655 9.78724 0.554806C9.69659 0.515957 9.59858 0.497265 9.5 0.500022H2C1.60253 0.501189 1.22168 0.659599 0.940629 0.940651C0.659577 1.2217 0.501167 1.60256 0.5 2.00002V20C0.501167 20.3975 0.659577 20.7783 0.940629 21.0594C1.22168 21.3404 1.60253 21.4989 2 21.5H14C14.3975 21.4989 14.7783 21.3404 15.0594 21.0594C15.3404 20.7783 15.4988 20.3975 15.5 20V6.50002C15.5028 6.40144 15.4841 6.30343 15.4452 6.21279C15.4064 6.12214 15.3483 6.04101 15.275 5.97502ZM9.5 2.30002L13.7 6.50002H9.5V2.30002ZM14 20H2V2.00002H8V6.50002C8.00117 6.89749 8.15958 7.27834 8.44063 7.55939C8.72168 7.84044 9.10253 7.99886 9.5 8.00002H14V20Z" />
</svg>
