<svg width="24" height="24" viewBox="0 0 24 24" fill="none" xmlns="http://www.w3.org/2000/svg">
<g clip-path="url(#clip0_5087_34063)">
<path d="M21.3355 12.0791L17.25 10.0364V5.25002C17.25 5.11073 17.2112 4.97419 17.138 4.8557C17.0648 4.73721 16.9601 4.64144 16.8355 4.57914L12.3355 2.32914C12.2313 2.27709 12.1165 2.25 12 2.25C11.8835 2.25 11.7687 2.27709 11.6645 2.32914L7.16453 4.57914C7.03995 4.64144 6.93518 4.73721 6.86197 4.8557C6.78875 4.97419 6.74998 5.11073 6.75 5.25002V10.0364L2.66453 12.0791C2.53995 12.1414 2.43518 12.2372 2.36197 12.3557C2.28876 12.4742 2.24998 12.6107 2.25 12.75V18C2.24998 18.1393 2.28876 18.2758 2.36197 18.3943C2.43518 18.5128 2.53995 18.6086 2.66453 18.6709L7.16453 20.9209C7.2687 20.9729 7.38355 21 7.5 21C7.61645 21 7.7313 20.9729 7.83547 20.9209L12 18.8387L16.1645 20.9209C16.2687 20.9729 16.3836 21 16.5 21C16.6164 21 16.7313 20.9729 16.8355 20.9209L21.3355 18.6709C21.4601 18.6086 21.5648 18.5128 21.638 18.3943C21.7112 18.2758 21.75 18.1393 21.75 18V12.75C21.75 12.6107 21.7112 12.4742 21.638 12.3557C21.5648 12.2372 21.4601 12.1414 21.3355 12.0791ZM15.75 10.0364L12.75 11.5364V7.96367L15.75 6.46367V10.0364ZM12 3.83867L14.8228 5.25002L12 6.66137L9.17723 5.25002L12 3.83867ZM8.25 6.46367L11.25 7.96367V11.5364L8.25 10.0364V6.46367ZM6.75 19.0364L3.75 17.5364V13.9637L6.75 15.4637V19.0364ZM7.5 14.1614L4.67723 12.75L7.5 11.3387L10.3228 12.75L7.5 14.1614ZM8.25 15.4637L11.25 13.9637V17.5364L8.25 19.0364V15.4637ZM15.75 19.0364L12.75 17.5364V13.9637L15.75 15.4637V19.0364ZM16.5 14.1614L13.6772 12.75L16.5 11.3387L19.3228 12.75L16.5 14.1614ZM20.25 17.5364L17.25 19.0364V15.4637L20.25 13.9637V17.5364Z"/>
</g>
<defs>
<clipPath id="clip0_5087_34063">
<rect width="24" height="24" fill="white"/>
</clipPath>
</defs>
</svg>
