<svg width="20" height="24" viewBox="0 0 20 24" fill="none" xmlns="http://www.w3.org/2000/svg">
<path fill-rule="evenodd" clip-rule="evenodd" d="M0.25 6.75003V17.25C0.249996 17.3811 0.284347 17.5099 0.34963 17.6236C0.414914 17.7372 0.50885 17.8318 0.622075 17.8979L9.62207 23.1479C9.73678 23.2148 9.8672 23.2501 10 23.2501C10.1328 23.2501 10.2632 23.2148 10.3779 23.1479L19.3779 17.8979C19.4911 17.8318 19.5851 17.7373 19.6504 17.6236C19.7157 17.5099 19.75 17.3811 19.75 17.25V6.75003C19.75 6.61895 19.7157 6.49015 19.6504 6.37648C19.5851 6.26281 19.4911 6.16823 19.3779 6.10218L10.3779 0.852179C10.2632 0.785261 10.1328 0.75 10 0.75C9.8672 0.75 9.73678 0.785261 9.62208 0.852178L0.622076 6.10218C0.508851 6.16823 0.414914 6.26281 0.349631 6.37648C0.284347 6.49015 0.249996 6.61894 0.25 6.75003ZM1.75 15.8637L1.75 8.05519L8.44303 11.9595L1.75 15.8637ZM2.41935 17.2098L9.25 21.1943V13.2253L2.41935 17.2098ZM11.42 11.9595L18.25 15.9436V7.97528L11.42 11.9595ZM17.4426 6.70971L10.75 2.80579V10.6137L17.4426 6.70971ZM9.25 10.6936L2.4889 6.74966L9.25 2.80579V10.6936ZM10.75 21.1943V13.3052L17.5122 17.2498L10.75 21.1943Z"/>
</svg>
