<svg width="22" height="22" viewBox="0 0 22 22" fill="none" xmlns="http://www.w3.org/2000/svg">
<path d="M21.3267 3.58012C21.2138 3.38781 21.0521 3.22879 20.8579 3.11918L16.4985 0.662184C16.3084 0.556199 16.0944 0.500399 15.8767 0.500049C15.659 0.499699 15.4449 0.55481 15.2544 0.660183L10.9999 3.05825L6.74902 0.662132C6.55871 0.556146 6.34455 0.500352 6.12672 0.500002C5.90889 0.499652 5.69455 0.554759 5.5039 0.660133L1.13965 3.12013C0.945731 3.23022 0.784404 3.38967 0.672058 3.58229C0.559711 3.7749 0.500349 3.99382 0.500001 4.21681V9.32423C0.499764 9.54776 0.559137 9.76731 0.672 9.96025C0.784864 10.1532 0.947135 10.3125 1.14209 10.4219L5.375 12.8079V17.7774C5.37528 18.0008 5.43486 18.2202 5.54767 18.4131C5.66047 18.6059 5.82245 18.7654 6.01706 18.8751L10.3764 21.3321C10.5659 21.44 10.7802 21.4968 10.9982 21.4972C11.2163 21.4975 11.4307 21.4414 11.6206 21.3341L15.9848 18.8741C16.1789 18.7643 16.3404 18.6048 16.4528 18.4122C16.5652 18.2195 16.6244 18.0005 16.6245 17.7774V12.8092L20.854 10.4239C21.0498 10.3147 21.213 10.1553 21.3267 9.96197C21.4403 9.76867 21.5003 9.54854 21.5005 9.3243V4.21688C21.5006 3.9929 21.4406 3.77298 21.3267 3.58012ZM2 4.35746L6.125 2.03227L10.2495 4.35691V9.18422L6.12598 11.5099L1.99998 9.18367L2 4.35746ZM15.1245 17.6368L11.0005 19.962L6.87502 17.6368V12.8106L10.9995 10.4845L15.1245 12.8106L15.1245 17.6368ZM20.0005 9.18363L15.8755 11.5098L11.7505 9.18418V4.35695L15.8745 2.03231L20.0005 4.3575V9.18363Z"/>
</svg>
