<svg viewBox="0 0 1033 1033" fill="none" preserveAspectRatio="xMidYMid slice" xmlns="http://www.w3.org/2000/svg"><g fill="#FF6647" fill-opacity=".2"><path d="M614 648H446l-46 46v69a3 3 0 1 0 2 0v-69l45-44h168l88-87h329v-2H702l-88 87Z"/><path d="M618 657H449l-40 40v43a3 3 0 1 0 3 0v-42l38-38h169l88-88h325v-2H706l-88 87Z"/><path d="M622 666H453l-34 35v62a3 3 0 1 0 2 0v-61l33-33h169l88-88h321v-2H710l-88 87Z"/><path d="M626 676H457l-29 29v35a3 3 0 1 0 2 0v-34l28-28h169l87-88h318v-2H714l-88 88Z"/><path d="M630 685H461l-19 18h-1a3 3 0 1 0 3 2l18-18h169l87-87h314v-3H717l-87 88ZM769 1032h3V861h260v-2H769v173Z"/><path d="M779 1032h2V870h251v-2H779v164Z"/><path d="M788 1032h2V879h242v-2H788v155Z"/><path d="M797 1032h2V889h233v-3H797v146Z"/><path d="M806 1032h2V898h224v-3H806v137ZM812 214a3 3 0 0 0-2 5 3 3 0 1 0 4-5v-40l-42-42V0h-3v133l43 42v39Z"/><path d="M821 214a3 3 0 0 0-2 5 3 3 0 1 0 4-5v-44l-42-42V0h-2v129l42 42v43Z"/><path d="M830 214a3 3 0 0 0-1 5 3 3 0 1 0 3-5v-48l-42-42V0h-2v125l42 42v47Z"/><path d="M839 214a3 3 0 0 0-1 5 3 3 0 1 0 3-5v-52l-42-42V0h-2v121l42 42v51Z"/><path d="M848 214a3 3 0 0 0-1 5 3 3 0 1 0 4-5v-55l-43-43V0h-2v117l42 42v55ZM951 405h-46a3 3 0 1 0 0 2h45l29 29h53v-2h-52l-29-29Z"/><path d="M947 414h-42a3 3 0 1 0 0 2h41l29 29h57v-2h-56l-29-29Z"/><path d="M943 423h-38a3 3 0 1 0 0 3h37l29 28h61v-2h-60l-29-29ZM973 55l22-22V0h-2v32l-21 21h-73l-17-17V0h-3v37l19 18h75Z"/><path d="m969 46 17-17V0h-2v28l-16 16h-66l-11-12V0h-3v33l14 13h67Z"/><path d="m965 37 12-12V0h-2v24l-11 11h-58l-6-7V0h-2v29l7 8h60ZM898 977l-19 18v37h3v-36l17-17h73l21 22v31h2v-32l-22-23h-75Z"/><path d="m902 986-14 13v33h3v-32l11-12h66l16 16v28h2v-29l-17-17h-67Z"/><path d="m905 995-7 8v29h2v-28l6-6h58l11 10v24h2v-25l-12-12h-60ZM284 203v-93a3 3 0 1 0-2 0v93l-65 64H0v2h218l66-66Z"/><path d="M275 200v-67a3 3 0 1 0-2 0v66l-60 59H0v2h214l61-60Z"/><path d="M266 196v-86a3 3 0 1 0-3 0v85l-53 54H0v2h210l56-55Z"/><path d="M256 192v-59a3 3 0 1 0-2 0v58l-48 49H0v2h207l49-50Z"/><path d="M247 188v-78a3 3 0 1 0-2 0v77l-43 43H0v3h203l44-45Z"/><path d="M238 184v-51a3 3 0 1 0-2 0v51l-38 37H0v3h199l39-40Z"/><path d="M229 181v-71a3 3 0 1 0-2 0v70l-33 32H0v2h195l34-33ZM920 204a4 4 0 0 0 0-3 3 3 0 1 0-2 5l64 63h50v-2h-49l-63-63Z"/><path d="M927 199v-49a3 3 0 1 0-2 0v50l60 60h47v-2h-46l-59-59Z"/><path d="M938 197a3 3 0 1 0-1 2l52 52h43v-2h-42l-52-52Z"/><path d="M946 191v-41a3 3 0 1 0-3 0v42l50 50h39v-2h-38l-48-49Z"/><path d="M957 189a3 3 0 1 0-2 2l42 42h35v-3h-34l-41-41Z"/><path d="M964 184v-34a3 3 0 1 0-2 0v34l39 39h31v-2h-30l-38-37Z"/><path d="m1005 212-30-30v-2a3 3 0 1 0-2 3l31 31h28v-2h-27ZM297 763a3 3 0 1 0 2 0V561H0v2h297v200Z"/><path d="M288 740a3 3 0 1 0 2 0V570H0v2h288v168Z"/><path d="M279 763a3 3 0 1 0 2 0V579H0v2h279v182Z"/><path d="M269 740a3 3 0 1 0 3 0V588H0v2h269v150Z"/><path d="M260 763a3 3 0 1 0 3 0V597H0v3h260v163ZM850 470V287l-33-33H648a3 3 0 0 0-5-2 3 3 0 0 0 4 5l1-1h168l32 32v183l28 29h156v-3H877l-27-27Z"/><path d="M841 474V291l-28-28H580a3 3 0 0 0-6-2 3 3 0 0 0 4 6l2-2h232l27 27v183l33 34h160v-2H873l-32-33Z"/><path d="M832 478V295l-23-23H648a3 3 0 0 0-3-2 3 3 0 1 0 2 6l1-2h160l21 22v183l39 39h164v-2H869l-37-38Z"/><path d="M822 482V298l-17-17H580a3 3 0 0 0-6-1 3 3 0 0 0 4 5l2-2h224l16 16v184l45 44h167v-2H865l-43-43Z"/><path d="M813 486V302l-12-12H648a3 3 0 0 0-5-1 3 3 0 0 0 4 5l1-1h152l11 10v184l50 49h171v-2H862l-49-48Z"/><path d="M804 490V306l-6-7H580a3 3 0 0 0-6-1 3 3 0 0 0 4 5l2-1h217l5 5v183l55 56h175v-3H858l-54-53ZM82 407h46a3 3 0 1 0 0-2H81l-28 29H0v2h54l28-29Z"/><path d="M86 416h42a3 3 0 1 0 0-2H85l-28 29H0v2h57l29-29Z"/><path d="M90 426h38a3 3 0 1 0 0-3H89l-29 29H0v2h61l29-28Z"/><path d="M185 471V359a3 3 0 1 0-3 0v111l-26 27H0v3h156l29-29Z"/><path d="M194 475v-70a3 3 0 1 0-2 0v69l-33 32H0v3h160l34-34Z"/><path d="M203 479V359a3 3 0 1 0-2 0v119l-38 38H0v2h164l39-39Z"/><path d="M212 483v-78a3 3 0 1 0-2 0v77l-43 43H0v2h168l44-44Z"/><path d="M221 487V359a3 3 0 1 0-2 0v127l-48 48H0v2h172l49-49Z"/><path d="M231 490v-62a3 3 0 1 0-3 0v62l-53 53H0v3h175l56-56ZM302 872h109a3 3 0 1 0 0-2H303l-42-43h-40a3 3 0 1 0 0 3h39l42 42ZM601 845a3 3 0 0 0-6-1 3 3 0 1 0 6 3h69l27 27v158h2V873l-28-28h-70Z"/><path d="M555 836a3 3 0 0 0-6-2 3 3 0 1 0 6 4h119l32 32v162h2V869l-33-33H555Z"/><path d="M509 817a3 3 0 0 0-6-1 3 3 0 1 0 6 4h172l43 43v169h3V862l-45-45H509Z"/><path d="M601 808a3 3 0 0 0-6-1 3 3 0 1 0 6 4h84l49 48v173h2V858l-50-50h-85Z"/><path d="M463 799a3 3 0 0 0-5-1 3 3 0 1 0 5 3h226l54 54v177h2V854l-55-55H463ZM943 247h-22a3 3 0 1 0 0 2h21l35 34h55v-2h-54l-35-34Z"/><path d="M940 256h-37a3 3 0 1 0 0 2h36l34 35h59v-3h-58l-34-34Z"/><path d="M936 265h-24a3 3 0 1 0 0 2h23l34 35h63v-3h-62l-34-34Z"/><path d="M932 274h-11a3 3 0 1 0 0 2h10l34 35h67v-2h-66l-34-35ZM89 345h22a3 3 0 1 0 0-2H90l-34-34H0v2h55l34 34Z"/><path d="M93 336h37a3 3 0 1 0 0-2H94l-35-35H0v3h58l35 34Z"/><path d="M97 327h24a3 3 0 1 0 0-2H98l-35-35H0v3h62l35 34Z"/><path d="M100 318h11a3 3 0 1 0 0-3h-10l-34-34H0v2h66l34 35ZM907 946h-50a3 3 0 1 0 0 3h51l39-39h75v122h2V907h-78l-39 39Z"/><path d="M911 956h-77a3 3 0 1 0 0 2h78l39-39h62v113h2V917h-65l-39 39Z"/><path d="M915 965h-58a3 3 0 1 0 0 2h59l39-39h49v104h2V926h-52l-39 39ZM908 83h-51a3 3 0 1 0 0 2h50l39 39h78V0h-2v122h-75l-39-39Z"/><path d="M912 74h-78a3 3 0 1 0 0 2h77l39 39h65V0h-2v113h-62l-39-39ZM850 795V684a3 3 0 1 0-4-1l1 1v112l54 54h131v-2H902l-52-53Z"/><path d="M859 792v-85a3 3 0 1 0-2 0v85l48 49h127v-2H906l-47-47Z"/><path d="M868 788v-58a3 3 0 1 0-2 0v59l43 43h123v-3H910l-42-41Z"/><path d="M877 784V684a3 3 0 1 0-2 0v101l38 38h119v-3H914l-37-36Z"/><path d="M886 780v-73a3 3 0 1 0-2 0v74l32 32h116v-2H917l-31-31Z"/><path d="M896 776v-46a3 3 0 1 0-3 0v47l27 27h112v-2H921l-25-26Z"/><path d="M905 772v-88a3 3 0 1 0-3 0v89l22 22h108v-2H925l-20-21Z"/><path d="M972 707h-35a3 3 0 1 0 0 2h34l40 40h21v-2h-20l-40-40Z"/><path d="M968 716h-31a3 3 0 1 0 0 2h30l41 40h24v-2h-24l-40-40Z"/><path d="M964 725h-9a3 3 0 1 0 0 2h9l40 40h28v-2h-27l-41-40Z"/><path d="M964 738a3 3 0 1 0-1 1l37 38h32v-3h-31l-37-36ZM0 861h262v171h2V859H0v2Z"/><path d="M0 870h253v162h2V868H0v2Z"/><path d="M0 879h244v153h2V877H0v2Z"/><path d="M0 889h235v143h2V886H0v3Z"/><path d="M0 898h225v134h3V895H0v3ZM186 796V684a3 3 0 1 0-2 0v111l-52 53H0v2h133l53-54Z"/><path d="M177 792v-85a3 3 0 1 0-2 0v85l-47 47H0v2h129l48-49Z"/><path d="M168 789v-59a3 3 0 1 0-2 0v58l-42 41H0v3h125l43-43Z"/><path d="M159 785V684a3 3 0 1 0-2 0v100l-37 36H0v2h121l38-37Z"/><path d="M150 781v-74a3 3 0 1 0-3 0v73l-31 31H0v2h117l33-32Z"/><path d="M141 777v-47a3 3 0 1 0-3 0v46l-25 26H0v2h114l27-27Z"/><path d="M131 773v-89a3 3 0 1 0-2 0v88l-20 21H0v2h110l21-22Z"/><path d="M63 709h34a3 3 0 1 0 0-2H62l-41 40H0v2h22l41-40Z"/><path d="M66 718h31a3 3 0 1 0 0-2H65l-40 40H0v2h26l40-40Z"/><path d="M70 727h8a3 3 0 1 0 0-2h-9l-40 40H0v2h30l40-40Z"/><path d="m71 739 1 1a3 3 0 1 0-3-2l-36 36H0v3h34l37-38ZM832 933a3 3 0 1 0 0 3h51l24-25 2 1a3 3 0 1 0-3-2l-24 23h-50ZM523 289H400l-46-46h-9a3 3 0 1 0 0 2h8l46 46h125l55-54h166V0h-2v234H578l-55 55Z"/><path d="M520 280H404l-46-46h-36a3 3 0 1 0 0 2h35l46 46h118l54-54h161V0h-2v225H574l-54 55Z"/><path d="M516 270H408l-46-45h-17a3 3 0 1 0 0 2h16l46 46h110l54-55h156V0h-3v216H570l-54 54Z"/><path d="M508 252h-93l-46-46h-24a3 3 0 1 0 0 2h23l46 46h95l55-54h144V0h-2v198H563l-55 54Z"/><path d="M504 243h-85l-46-46h-50a3 3 0 1 0 0 2h49l46 46h87l55-54h139V0h-2v189H559l-55 54Z"/><path d="M538 123a3 3 0 1 0 2 0V91l-26-26V0h-3v66l27 26v31Z"/><path d="M547 114a3 3 0 1 0 2 0V87l-26-26V0h-3v62l27 26v26Z"/><path d="M556 105a3 3 0 1 0 2 0V84l-26-27V0h-2v58l26 27v20Z"/><path d="M565 123a3 3 0 1 0 2 0V80l-26-27V0h-2v54l26 27v42ZM540 909a3 3 0 1 0-2 0v31l-27 27v65h3v-64l26-27v-32Z"/><path d="M549 932a3 3 0 1 0-2 0v12l-27 26v62h3v-61l26-26v-13Z"/><path d="M558 909a3 3 0 1 0-2 0v39l-26 26v58h2v-57l26-26v-40Z"/><path d="M567 932a3 3 0 1 0-2 0v20l-26 26v54h2v-53l26-26v-21ZM507 762l-1-1a3 3 0 1 0 3 2l51-51h88l84-83h33a3 3 0 1 0 0-3h-34l-84 84h-88l-52 52Z"/><path d="M739 647h26a3 3 0 1 0 0-2h-26l-84 83h-88l-15 15a3 3 0 1 0 1 2l15-14h88l83-84Z"/><path d="M788 656a3 3 0 1 0 0-2h-46l-82 83v26a5 5 0 1 0 2 0v-25l81-82h45ZM663 767a2 2 0 1 1-5 0 2 2 0 0 1 5 0ZM81 367h69v-41l33-33h106a3 3 0 0 0 6 1 3 3 0 0 0-5-5l-1 1H182l-35 35v40H82l-31-31H0v2h50l31 31Z"/><path d="M77 376h82v-46l28-28h157a3 3 0 0 0 3 2 3 3 0 1 0-2-6l-1 2H186l-29 29v45H78l-31-31H0v2h46l31 31Z"/><path d="M73 385h95v-51l23-23h153a3 3 0 0 0 3 2 3 3 0 1 0-2-6l-1 2H190l-24 24v50H74l-30-31H0v2h43l30 31Z"/><path d="M70 394h107v-56l18-18h94a3 3 0 0 0 5 2 3 3 0 0 0-4-6l-1 2h-95l-19 19v55H70l-30-31H0v3h39l31 30ZM951 365h-46a3 3 0 1 0 0 2h47l30-31h50v-2h-51l-30 31Z"/><path d="M954 374h-78v-41a3 3 0 0 0 1-6 3 3 0 1 0-3 6v43h81l31-31h46v-2h-47l-31 31Z"/><path d="M958 383h-89a3 3 0 1 0 0 2h90l31-31h42v-2h-43l-31 31Z"/><path d="M962 392h-57a3 3 0 1 0 0 2h58l31-30h38v-3h-39l-31 31ZM57 147h104l20 20v1a3 3 0 1 0 2-3l-21-21H56l-28 29v14a3 3 0 1 0 2 0v-13l27-27Z"/><path d="M61 156h96l15 14a4 4 0 0 0 0 4 3 3 0 1 0 1-5l-15-15H60l-23 23v19a3 3 0 1 0 2 0v-19l22-21ZM621 180l64-64V0h-3v115l-62 63H501l-37-37V0h-2v142l38 38h121Z"/><path d="m617 171 58-58V0h-2v112l-57 57H505l-32-32V0h-2v138l33 33h113Z"/><path d="m613 162 53-53V0h-2v108l-51 51H509l-27-26V0h-2v134l28 28h105Z"/><path d="m610 152 47-47V0h-2v104l-46 46h-97l-20-21V0h-3v130l22 22h99Z"/><path d="m606 143 42-42V0h-2v100l-41 41h-89l-15-15V0h-3v127l17 16h91ZM542 852a3 3 0 0 0-6-1 3 3 0 1 0 6 4h78l62 62v115h3V916l-64-64h-79Z"/><path d="M565 861a3 3 0 0 0-6-1 3 3 0 1 0 6 4h51l57 57v111h2V920l-58-59h-52Z"/><path d="M542 871a3 3 0 0 0-6-2 3 3 0 1 0 6 4h71l51 52v107h2V924l-52-53h-72Z"/><path d="M565 880a3 3 0 0 0-6-1 3 3 0 1 0 6 3h44l46 46v104h2V927l-47-47h-45Z"/><path d="M542 889a3 3 0 0 0-6-1 3 3 0 1 0 6 3h63l41 41v100h2V931l-42-42h-64ZM374 1016h54l15-16v-19a3 3 0 0 0 1-5 3 3 0 0 0-5 4l2 1v18l-14 14h-52l-14-14v-18a3 3 0 0 0 1-5 3 3 0 0 0-5 4l1 1v19l16 16ZM901 439h-23a3 3 0 1 0 0 2h22l45 45h87v-2h-86l-45-45ZM133 441h21a3 3 0 1 0 0-2h-22l-45 45H0v2h88l45-45ZM310 327a3 3 0 1 0 0 2h383v164a3 3 0 1 0 2 0V327H310ZM696 545a4 4 0 0 0 4 0 3 3 0 1 0-5-1l-88 87H411l-35 35v134a3 3 0 1 0 2 0V667l34-34h196l88-88Z"/><path d="M408 624h197l78-79a4 4 0 0 0 4 0 3 3 0 1 0-5-2l-78 78H407l-40 41v127a3 3 0 1 0 2 0V663l39-39ZM374 336a3 3 0 1 0 0 2h310v132a3 3 0 1 0 2 0V336H374Z"/><path d="M400 605h197l63-63 1 1a3 3 0 1 0-3-2l-62 62H399l-51 51v146a3 3 0 1 0 3 0V655l49-50ZM374 354a3 3 0 1 0 0 3h291v113a3 3 0 1 0 3 0V354H374Z"/><path d="M342 585a3 3 0 1 0 0 2h247l44-43a3 3 0 1 0-2-2l-43 43H342Z"/><path d="M342 566a3 3 0 1 0 0 3h240l26-27a3 3 0 1 0-2-1l-25 25H342Z"/><path d="m577 546 43-44v-74a3 3 0 1 0-2 0v73l-42 42H299l-56-59v-33a3 3 0 1 0-2 0v34l57 61h279Z"/><path d="M302 536h271l38-38v-47a3 3 0 1 0-2 0v46l-37 37H303l-51-53v-53a3 3 0 1 0-2 0v54l52 54Z"/><path d="M280 451a3 3 0 1 0-2 0v20l35 38h249l21-22v-59a3 3 0 1 0-2 0v58l-20 21H314l-34-37v-19ZM752 788h-29a3 3 0 1 0 0 2h30l77-77v-30a3 3 0 1 0-2 0v29l-76 76Z"/><path d="M748 779h-16a3 3 0 1 0 0 2h17l72-72v-35a3 3 0 0 0 1-5 3 3 0 0 0-5 4l1 1v34l-70 71Z"/><path d="M744 769h-21a3 3 0 1 0 0 3h22l67-67v-22a3 3 0 1 0-3 0v21l-65 65ZM797 819l15 15h25a3 3 0 0 0 6 1 3 3 0 0 0-5-5l-1 2h-24l-14-14v-34l28-28h2a3 3 0 1 0-3-2l-29 29v36ZM491 817h-37a3 3 0 1 0 0 2h36l29 29v44a3 3 0 1 0 2 0v-45l-30-30ZM718 481l58 58v1a3 3 0 1 0 2-3l-58-57V331h56a3 3 0 0 0 3 2 3 3 0 1 0-3-5h-58v153Z"/><path d="M760 358a3 3 0 0 0 3 3 3 3 0 1 0-3-5h-15v113l21 21a3 3 0 1 0 1-2l-20-20V358h13ZM319 104h-18a3 3 0 1 0 0 2h18l68 69h58a3 3 0 0 0 4 2 3 3 0 1 0-2-6l-2 1h-57l-69-68ZM212 762a3 3 0 1 0 2 0v-85l22-22 1 1a3 3 0 1 0-3-2l-22 22v86ZM461 729l20-19h20a3 3 0 1 0 0-3h-21l-21 21v45l-18 18v7a3 3 0 1 0 2 0v-6l18-18v-45Z"/><path d="m470 733 14-14h26a3 3 0 1 0 0-2h-26l-16 15v44l-2 3h-2a3 3 0 1 0 3 2l4-4-1-44ZM850 66a3 3 0 0 0 7 1h58l39 39h52V0h-2v104h-49l-39-39h-59a3 3 0 0 0-7 1ZM902 208a3 3 0 0 0-5-3l-29-28v-65a3 3 0 1 0-2 0v66l29 29a3 3 0 1 0 7 1ZM929 292a3 3 0 0 0-3 2h-21l-48-49v-1a3 3 0 1 0-2 3l49 49h22a3 3 0 1 0 3-4ZM617 107a3 3 0 0 0 1-7V0h-2v100a3 3 0 0 0 1 7ZM608 98a3 3 0 0 0 1-7V0h-2v91a3 3 0 0 0 1 7ZM599 98a3 3 0 0 0 1-7V0h-2v91a3 3 0 0 0 1 7ZM590 112a3 3 0 0 0 1-7V0h-3v105a3 3 0 0 0 2 7ZM362 19a3 3 0 0 0 3-3h52l17 17a3 3 0 1 0 2-1l-18-18h-53a3 3 0 0 0-5-1 3 3 0 0 0 2 6Z"/><path d="M383 36a3 3 0 1 0-4-5h-43V0h-3v33h46a3 3 0 0 0 4 3Z"/><path d="M406 45a3 3 0 1 0-4-5h-75V0h-3v42h78a3 3 0 0 0 4 3Z"/><path d="M401 54a3 3 0 1 0-3-5h-81V0h-2v52h83a3 3 0 0 0 3 2Z"/><path d="M428 63a3 3 0 1 0-3-4H308V0h-2v61h119a3 3 0 0 0 3 2Z"/><path d="M419 72a3 3 0 1 0-3-4H299V0h-2v70h119a3 3 0 0 0 3 2Z"/><path d="M428 81a3 3 0 1 0-3-4H290V0h-2v79h137a3 3 0 0 0 3 2Z"/><path d="M438 91a3 3 0 1 0-4-5H281V0h-3v88h156a3 3 0 0 0 4 3ZM361 292a3 3 0 1 0-1-7l-21-20h-81l-9-9 1-1a3 3 0 1 0-2 3l9 9h81l20 20a3 3 0 0 0 3 5ZM307 343a3 3 0 1 0 3 5h365v145a3 3 0 1 0 2 0V345H310a3 3 0 0 0-3-2Z"/><path d="M307 368a3 3 0 0 0 3-2h346v127a3 3 0 1 0 2 0V364H310a3 3 0 1 0-3 4Z"/><path d="M307 387a3 3 0 0 0 3-3h328v109a3 3 0 1 0 2 0V382H310a3 3 0 1 0-3 5ZM257 335a3 3 0 1 0-4 3v38h22a3 3 0 0 0 6 1 3 3 0 1 0-6-3h-20v-36a3 3 0 0 0 2-3Z"/><path d="M224 334a3 3 0 1 0 1 7l13 13v49h32a3 3 0 0 0 6 2 3 3 0 0 0-4-6l-2 2h-30v-48l-13-14v-1a3 3 0 0 0-3-4ZM264 448a3 3 0 1 0-5 3v27l47 49h263l33-32v-67a3 3 0 1 0-3 0v66l-31 31H307l-45-48v-26a3 3 0 0 0 2-3Z"/><path d="M273 425a3 3 0 1 0-5 3v46l42 44h255l28-27v-40a3 3 0 1 0-3 0v39l-26 26H311l-40-43v-45a3 3 0 0 0 2-3Z"/><path d="M291 425a3 3 0 1 0-4 3v39l30 33h241l16-17v-32a3 3 0 1 0-2 0v31l-15 15H318l-29-31v-38a3 3 0 0 0 2-3Z"/><path d="M301 448a3 3 0 1 0-5 3v12l25 28h233l11-11v-52a3 3 0 1 0-2 0v50l-10 10H322l-24-26v-11a3 3 0 0 0 3-3Z"/><path d="M356 419h17l17 17h113a3 3 0 1 0 0-2H391l-17-17h-18a3 3 0 1 0 0 2ZM542 418a5 5 0 1 0-4-6H411a5 5 0 1 0 0 2h127a5 5 0 0 0 4 4Zm0-7a2 2 0 1 1 0 5 2 2 0 0 1 0-5Zm-135 5Z"/><path d="M529 447a3 3 0 1 0-3-4H387l-17-17h-48a3 3 0 1 0 0 2h47l17 17h140a3 3 0 0 0 3 2Z"/><path d="M507 457a3 3 0 1 0-4-5H383l-17-17h-10a3 3 0 1 0 0 2h9l17 17h121a3 3 0 0 0 4 3ZM770 502l-1 1-31-31V349h38a3 3 0 0 0 3 2 3 3 0 1 0-3-4h-40v126l31 31a3 3 0 1 0 3-2Z"/><path d="M770 522a3 3 0 1 0-2-7l-39-39V340h31a3 3 0 0 0 3 2 3 3 0 1 0-3-4h-33v139l40 40-1 1a3 3 0 0 0 4 4ZM810 609a3 3 0 1 0 3 5h219v-3H813a3 3 0 0 0-3-2ZM865 618a3 3 0 1 0 3 5h164v-2H868a3 3 0 0 0-3-3ZM819 627a3 3 0 0 0-3 6 3 3 0 0 0 6-1h210v-2H822a3 3 0 0 0-3-3ZM865 637a3 3 0 1 0 3 4h164v-2H868a3 3 0 0 0-3-2ZM792 633a3 3 0 0 0-4 3h-53l-84 83h-88l-33 34a3 3 0 1 0 1 1l33-32h88l84-84h52a3 3 0 1 0 4-5ZM934 653a3 3 0 1 0 3 4h95v-2h-95a3 3 0 0 0-3-2ZM925 662a3 3 0 1 0 3 4h104v-2H928a3 3 0 0 0-3-2ZM934 671a3 3 0 0 0-2 7 3 3 0 0 0 5-2h95v-3h-95a3 3 0 0 0-3-2ZM925 680a3 3 0 1 0 3 5h104v-2H928a3 3 0 0 0-3-3ZM830 722a3 3 0 0 0-3 5l-48 48v52l26 26h32a3 3 0 0 0 3 2 3 3 0 1 0-2-6l-1 1h-32l-24-24v-50l48-48h1a3 3 0 0 0 0-6Z"/><path d="M831 733a3 3 0 0 0-3 5l-40 41v44l20 20h20a3 3 0 0 0 3 3 3 3 0 1 0-2-7l-1 2h-19l-19-19v-42l40-40h1a3 3 0 0 0 0-7ZM772 700a3 3 0 1 0-3-2l-40 40a3 3 0 1 0 2 2l40-40h1ZM728 725a3 3 0 1 0 3 2l24-24a3 3 0 1 0-2-2l-24 24h-1ZM715 732a3 3 0 0 0 3-5l40-40h1a3 3 0 1 0-3-2l-40 40h-1a3 3 0 0 0 0 7Z"/><path d="M864 833a3 3 0 1 0-2-7l-21-21h-31a3 3 0 1 0 0 2h30l21 21-1 1a3 3 0 0 0 4 4ZM840 1019v-14l-17-16v-9a3 3 0 0 0 2-6 3 3 0 1 0-4 6v9l17 17v13a3 3 0 1 0 2 0ZM617 925a3 3 0 0 0-1 7v100h2V932a3 3 0 0 0-1-7ZM608 902a3 3 0 0 0-1 7v123h2V909a3 3 0 0 0-1-7ZM599 925a3 3 0 0 0-1 7v100h2V932a3 3 0 0 0-1-7ZM590 902a3 3 0 0 0-2 7v123h3V909a3 3 0 0 0-1-7ZM500 925a3 3 0 0 0-2 7v100h3V932a3 3 0 0 0-1-7ZM490 902a3 3 0 0 0-1 7v123h3V909a3 3 0 0 0-2-7ZM481 925a3 3 0 0 0-1 7v100h2V932a3 3 0 0 0-1-7ZM472 902a3 3 0 0 0-1 7v123h2V909a3 3 0 0 0-1-7ZM463 925a3 3 0 0 0-1 7v100h2V932a3 3 0 0 0-1-7ZM503 892v-37l-20-20h-29a3 3 0 1 0 0 2h28l19 19v36a3 3 0 1 0 2 0Z"/><path d="M514 881a3 3 0 0 0-2-3v-27l-25-25h-24a3 3 0 1 0 0 2h23l24 24v26a3 3 0 1 0 5 3h-1ZM605 696a3 3 0 0 0-3 2H476l-26 26v45l-29 28h-1a3 3 0 1 0 3 2l29-29v-45l25-24h125a3 3 0 1 0 3-5ZM411 833h-92l-43-42h-55a3 3 0 1 0 0 2h55l42 42h93a3 3 0 1 0 0-2Z"/><path d="M415 840a3 3 0 0 0-4 2h-96l-42-42h-52a3 3 0 1 0 0 2h51l42 42h97a3 3 0 1 0 4-4Z"/><path d="M415 849a3 3 0 0 0-4 2H311l-42-42h-48a3 3 0 1 0 0 2h47l42 42h101a3 3 0 1 0 4-4Z"/><path d="M415 858a3 3 0 0 0-4 2H307l-42-42h-44a3 3 0 1 0 0 2h43l42 43h105a3 3 0 1 0 4-5ZM438 906a3 3 0 1 0-4-5H278v131h3V904h153a3 3 0 0 0 4 2Z"/><path d="M428 915a3 3 0 1 0-3-5H288v122h2V913h135a3 3 0 0 0 3 2Z"/><path d="M419 924a3 3 0 1 0-3-4H297v112h2V922h117a3 3 0 0 0 3 2Z"/><path d="M428 933a3 3 0 1 0-3-4H306v103h2V931h117a3 3 0 0 0 3 2Z"/><path d="M401 943a3 3 0 1 0-3-5h-83v94h2v-92h81a3 3 0 0 0 3 3Z"/><path d="M428 952a3 3 0 1 0-3-5H324v85h3v-83h98a3 3 0 0 0 3 3Z"/><path d="M383 961a3 3 0 1 0-4-5h-46v76h3v-73h43a3 3 0 0 0 4 2Z"/><path d="M372 969a3 3 0 1 0-6 2l2 1v24l10 11h46l10-10v-6a3 3 0 0 0 1-6 3 3 0 0 0-5 4l1 2v5l-8 8h-44l-9-9v-23a3 3 0 0 0 2-3Z"/><path d="M451 984a3 3 0 0 0-3 5l2 2v12l-20 20h-59l-19-20v-31a3 3 0 0 0 2-3 3 3 0 1 0-6 2l1 1v32l21 21h61l21-21v-13a3 3 0 0 0 2-4 3 3 0 0 0-3-3ZM171 954a5 5 0 0 0-2 9v69h3v-69a5 5 0 0 0-1-9Zm0 7a2 2 0 1 1 0-4 2 2 0 0 1 0 4ZM161 936a3 3 0 0 0-1 6v90h3v-90a3 3 0 0 0-2-6ZM152 959a3 3 0 0 0-1 6v67h2v-67a3 3 0 0 0-1-6ZM143 936a3 3 0 0 0-1 6v90h2v-90a3 3 0 0 0-1-6ZM134 959a3 3 0 0 0-1 6v67h2v-67a3 3 0 0 0-1-6ZM49 910a3 3 0 0 0-1 7v37l-25 25v24a3 3 0 0 0-2 4 3 3 0 0 0 3 3 3 3 0 0 0 4-3 3 3 0 0 0-2-4v-24l24-24v-38a3 3 0 0 0-1-7ZM109 687a3 3 0 1 0-3-4H0v2h106a3 3 0 0 0 3 2ZM100 678a3 3 0 1 0-3-5H0v3h97a3 3 0 0 0 3 2ZM109 669a3 3 0 1 0-3-5H0v2h106a3 3 0 0 0 3 3ZM100 660a3 3 0 0 0 3-4 3 3 0 0 0-6-1H0v2h97a3 3 0 0 0 3 3ZM169 644a3 3 0 1 0-3-5H0v2h166a3 3 0 0 0 3 3ZM215 634a3 3 0 1 0-4-4H0v2h211a3 3 0 0 0 4 2ZM169 625a3 3 0 1 0-3-4H0v2h166a3 3 0 0 0 3 2ZM224 616a3 3 0 1 0-3-5H0v3h221a3 3 0 0 0 3 2ZM55 180a3 3 0 0 0 3-2h36l27 26h47l21-21a3 3 0 1 0-2-1l-20 20h-45l-27-26H58a3 3 0 1 0-3 4Z"/><path d="M197 164a3 3 0 0 0-5-3l-26-26H52l-34 34v27a3 3 0 1 0 3 0v-26l32-32h112l25 25a3 3 0 1 0 7 1ZM10 136a3 3 0 0 0 3-5l18-18h159l16-17h2a3 3 0 1 0-3-2l-16 16H30l-19 19h-1a3 3 0 0 0 0 7ZM323 599a3 3 0 0 0 3-3h267l68-68h2a3 3 0 1 0-3-2l-68 68H326a3 3 0 1 0-3 5Z"/><path d="M323 573a3 3 0 1 0 3 5h260l51-52h2a3 3 0 1 0-3-2l-51 52H326a3 3 0 0 0-3-3ZM171 26a5 5 0 0 0 1-9V0h-3v17a5 5 0 0 0 2 9Zm0-6a2 2 0 1 1 0 4 2 2 0 0 1 0-4ZM161 31a3 3 0 0 0 2-7V0h-3v24a3 3 0 0 0 1 7ZM152 22a3 3 0 0 0 1-7V0h-2v15a3 3 0 0 0 1 7ZM143 31a3 3 0 0 0 1-7V0h-2v24a3 3 0 0 0 1 7ZM134 22a3 3 0 0 0 1-7V0h-2v15a3 3 0 0 0 1 7ZM15 26a3 3 0 0 0 3-2h52a3 3 0 1 0 0-2H18a3 3 0 1 0-3 4ZM24 385a3 3 0 1 0-3-4H0v2h21a3 3 0 0 0 3 2ZM38 395a3 3 0 1 0-3-5H0v2h35a3 3 0 0 0 3 3ZM38 404a3 3 0 1 0-3-5H0v2h35a3 3 0 0 0 3 3ZM24 419a3 3 0 1 0-3-4H0v2h21a3 3 0 0 0 3 2ZM47 428a3 3 0 1 0-3-4H0v2h44a3 3 0 0 0 3 2ZM1008 379a3 3 0 1 0 4 4h20v-2h-20l-2-2h-2ZM995 388a3 3 0 0 0-4 3 3 3 0 0 0 7 1h34v-2h-34a3 3 0 0 0-3-2ZM995 397a3 3 0 1 0 3 4h34v-2h-34a3 3 0 0 0-3-2ZM1008 412a3 3 0 1 0 4 5h20v-2h-20l-2-2-2-1ZM985 422a3 3 0 1 0 4 4h43v-2h-43a3 3 0 0 0-4-2ZM958 1016a4 4 0 0 0-4 2h-36l-1-2a3 3 0 0 0-4 1 3 3 0 0 0 2 6 3 3 0 0 0 3-3h36a3 3 0 0 0 5 2 3 3 0 0 0 2-4 3 3 0 0 0-3-2ZM395 145l9 10v1a3 3 0 1 0 2-3l-9-8v-31l10-9a4 4 0 0 0 3-1 3 3 0 1 0-5-1l-10 10v32Z"/><path d="m404 142 13 12-1 2a3 3 0 1 0 2-3l-12-12v-23l14-14 1 1a3 3 0 1 0-3-2l-14 14v25ZM311 131a5 5 0 1 0 0 10l2-1 24 24v3a5 5 0 1 0 2-4l-24-25a5 5 0 0 0-4-7Zm0 7a2 2 0 1 1 0-4 2 2 0 0 1 0 4Zm30 26a2 2 0 1 1 0 5 2 2 0 0 1 0-5Z"/><path d="M299 142a5 5 0 0 0 5 5l2-1 25 25-1 2a5 5 0 1 0 5-4h-3l-24-24 1-2a5 5 0 0 0-10 0v-1Zm36 29a2 2 0 1 1 0 4 2 2 0 0 1 0-4Zm-29-29a2 2 0 1 1-4 0 2 2 0 0 1 4 0ZM756 247a5 5 0 0 0 1-9v-28h24v-33l4-4h1a3 3 0 1 0-3-2l-4 5v31h-24v31a5 5 0 0 0 1 9Zm0-7a2 2 0 1 1 0 4 2 2 0 0 1 0-4ZM833 56a3 3 0 0 0-1 5 3 3 0 1 0 3-5v-8l-12-13V0h-2v36l12 13v7ZM845 42a3 3 0 1 0 2-4l-7-7V0h-2v32l7 8v2ZM548 295a5 5 0 0 0-4 6l-10 10H400l-9-9v-2a5 5 0 1 0-4 4h2l10 9h136l11-10 2 1a5 5 0 1 0 0-9Zm-161 7a2 2 0 1 1 0-5 2 2 0 0 1 0 5Zm161-1a2 2 0 1 1 0-4 2 2 0 0 1 0 4ZM486 185h-49l-18 18v14a3 3 0 0 0-2 3 3 3 0 1 0 4-3v-13l17-17h47l17 18v23a3 3 0 0 0-1 6 3 3 0 0 0 5-2 3 3 0 0 0-2-4v-24l-18-19Z"/><path d="M481 232a3 3 0 1 0 5-4v-17l-8-7h-33l-8 7v6a3 3 0 0 0-2 3 3 3 0 1 0 4-3v-5l7-6h31l7 6v16a3 3 0 0 0-3 4Z"/><path d="M490 232a3 3 0 1 0 5-4v-21l-13-13h-41l-13 13v10a3 3 0 0 0-2 3 3 3 0 1 0 4-3v-9l12-11h39l12 11v20a3 3 0 0 0-3 4ZM1015 206a5 5 0 0 0 5-4 5 5 0 0 0-5-5l-2 1-14-14v-29l13-12a5 5 0 0 0 7-5 5 5 0 0 0-4-4 5 5 0 0 0-5 7l-13 13v31l14 15-1 2a5 5 0 0 0 5 4Zm0-6h1a2 2 0 0 1 1 2 2 2 0 0 1-1 2 2 2 0 0 1-3-1 2 2 0 0 1 2-3Zm-1-64a2 2 0 0 1 2 2v1a2 2 0 0 1-1 2h-2a2 2 0 0 1 1-5ZM916 154v-46l-13-12h-14a3 3 0 1 0 0 2h13l11 11v44l-10 11h-14a3 3 0 1 0 0 2h15l12-12Z"/><path d="M889 146a3 3 0 1 0 0 2h7l1-1v-31l-1-2h-7a3 3 0 1 0 0 2h6v30h-6Z"/><path d="M886 159a3 3 0 0 0 3-2h11l6-6v-39l-7-7h-10a3 3 0 1 0 0 2h9l6 6v37l-5 5h-10a3 3 0 1 0-3 4ZM967 336a5 5 0 1 0-3-9l-7-6h-63l-12-13 1-2a5 5 0 1 0-3 4l13 13h63l7 6-1 2a5 5 0 0 0 5 5Zm0-7a2 2 0 1 1 0 5 2 2 0 0 1 0-5Zm-89-21a2 2 0 1 1 0-4 2 2 0 0 1 0 4ZM941 338h-41a5 5 0 1 0 0 2h41a5 5 0 1 0 0-2Zm-45 3a2 2 0 1 1 0-5 2 2 0 0 1 0 5Zm52-2a2 2 0 1 1-5 0 2 2 0 0 1 5 0ZM788 502a3 3 0 1 0 5-3v-30h-13l-18-18v-49l16-15h1a3 3 0 1 0-3-2l-16 16v51l19 19h12v28a3 3 0 0 0-3 3ZM777 308a3 3 0 1 0 2 7l12 12v104a3 3 0 1 0 2 0V326l-13-13v-2a3 3 0 0 0-3-3ZM929 59a3 3 0 1 0 2 6l12 12h46a3 3 0 0 0 6 1 3 3 0 0 0-4-5l-2 2h-45l-11-11v-2a3 3 0 0 0-4-3ZM326 446a3 3 0 1 0 2 7l24 23h118a3 3 0 0 0 5 2 3 3 0 1 0-5-4H352l-23-23 1-1a3 3 0 0 0-4-4ZM166 454a3 3 0 1 0-3-2l-31 31a3 3 0 1 0 2 2l31-31h1ZM155 453a3 3 0 1 0-4-2l-32 32h-1a3 3 0 1 0 3 2l32-32h2ZM78 467H25a5 5 0 1 0 0 3h53a5 5 0 1 0 0-3Zm-57 4a2 2 0 1 1 0-5 2 2 0 0 1 0 5Zm64-3a2 2 0 1 1-4 0 2 2 0 0 1 4 0ZM145 292h-30l-11-11H89a5 5 0 1 0 0 2h14l12 12h30a5 5 0 1 0 0-3Zm-60-8a2 2 0 1 1 0-4 2 2 0 0 1 0 4Zm67 10a2 2 0 1 1-5 0 2 2 0 0 1 5 0ZM153 176h-37a5 5 0 1 0 0 2h37a5 5 0 1 0 0-2Zm-41 3a2 2 0 1 1 1 0h-1Zm48-2a2 2 0 1 1-2-2 2 2 0 0 1 2 2ZM236 502l1 1a3 3 0 1 0-3-2l-25 25v15a3 3 0 1 0 3 0v-14l24-25ZM265 546a5 5 0 1 0 0-3h-25v-22a5 5 0 1 0-2 0v25h27Zm5-4a2 2 0 1 1 0 5 2 2 0 0 1 0-5Zm-33-25a2 2 0 1 1 4 0 2 2 0 0 1-4 0ZM355 613a3 3 0 1 0 0-3h-47v130a3 3 0 1 0 2 0V613h45Z"/><path d="M355 622a3 3 0 1 0 0-3h-38v144a3 3 0 1 0 3 0V622h35ZM711 493a3 3 0 1 0-4 3v18l32 33h17a3 3 0 1 0 0-2h-16l-31-32v-17a3 3 0 0 0 2-3ZM809 514a5 5 0 1 0-6 4v29h21a5 5 0 1 0 0-2h-18v-27a5 5 0 0 0 3-4Zm19 29a2 2 0 1 1 0 5 2 2 0 0 1 0-5Zm-24-27a2 2 0 1 1 0-5 2 2 0 0 1 0 5ZM865 463a3 3 0 1 0 2 6l14 15h21v-22a3 3 0 1 0-2 0v19h-18l-14-13a3 3 0 0 0-1-5h-2ZM927 433a3 3 0 1 0 2 7l24 24a3 3 0 1 0 2-2l-25-24a3 3 0 0 0-3-5ZM57 775a3 3 0 1 0 3 5h33l24-24h1a3 3 0 1 0-3-2l-23 23H60a3 3 0 0 0-3-2Z"/><path d="M83 759a3 3 0 1 0 3 2l18-18a4 4 0 0 0 4 0 3 3 0 1 0-5-2l-19 19-1-1ZM623 786a3 3 0 1 0 5-3v-25h-48l-6 7-1-1a3 3 0 1 0 3 2l5-5h44v22a3 3 0 0 0-2 3Z"/><path d="M632 786a3 3 0 0 0 4 3 3 3 0 0 0 1-6v-34h-60l-25 25-1-1a3 3 0 1 0 3 2l24-24h57v32a3 3 0 0 0-3 3Z"/><path d="M642 786a3 3 0 1 0 4-3v-43h-73l-43 43h-2a3 3 0 1 0 4 2l42-43h70v41a3 3 0 0 0-2 3ZM233 755a3 3 0 1 0 3 0v-69l11-12a4 4 0 0 0 4 0 3 3 0 1 0-5-1l-13 12v70ZM145 666a5 5 0 1 0 0 2h52l17-17h3a5 5 0 1 0-5-4l1 2-17 17h-51Zm-4 3a2 2 0 1 1 0-4 2 2 0 0 1 0 4Zm76-24a2 2 0 1 1 0 4 2 2 0 0 1 0-4ZM231 851a5 5 0 1 0 0-2h-44v-22a5 5 0 1 0-2 0v24h46Zm5-3a2 2 0 1 1-3 2 2 2 0 0 1 3-2Zm-52-25a2 2 0 1 1 4 0 2 2 0 0 1-4 0ZM23 698a5 5 0 1 0-5 5v19a5 5 0 1 0 2 0v-19a5 5 0 0 0 3-5Zm-2 29a2 2 0 1 1-4 0 2 2 0 0 1 4 0Zm-2-26a2 2 0 1 1 0-5 2 2 0 0 1 0 5ZM300 784a5 5 0 0 0 5 4h2l15 15-1 2a5 5 0 1 0 5-5l-3 1-14-15v-2a5 5 0 1 0-9 0Zm26 19a2 2 0 0 1 2 2 2 2 0 1 1-2-2Zm-21-21a2 2 0 0 1 2 2 2 2 0 1 1-2-2ZM215 987l-1 1-16-16v-44l-19-19a4 4 0 0 0 0-4 3 3 0 1 0-1 6l18 18v44l16 16v2a3 3 0 1 0 3-4ZM210 1009a5 5 0 0 0-4 3h-21v-33a5 5 0 1 0-3 0v35h24a5 5 0 1 0 4-5Zm-29-35a2 2 0 1 1 5 0 2 2 0 0 1-5 0Zm29 42a2 2 0 0 1-2-3 2 2 0 0 1 5 0l-1 2-2 1ZM63 946a3 3 0 1 0 5-3v-26a3 3 0 1 0-3 0v26a3 3 0 0 0-2 3ZM644 690a5 5 0 1 0 4 5l-1-3 73-72 2 1a5 5 0 1 0-4-5v2l-72 73-2-1Zm0 7a2 2 0 0 1-2-4 2 2 0 1 1 2 4Zm78-83a2 2 0 1 1 0 4 2 2 0 0 1 0-4ZM689 737a5 5 0 1 0-5 4v31a5 5 0 1 0 2 0v-31a5 5 0 0 0 3-4Zm-2 39a2 2 0 1 1-4 0 2 2 0 0 1 4 0Zm-2-37a2 2 0 1 1 0-4 2 2 0 0 1 0 4ZM473 868a3 3 0 0 0-3 2h-24l-21 22H324l-9-10v-1a3 3 0 1 0-2 3l10 10h103l21-21h23a3 3 0 1 0 3-5ZM417 969a3 3 0 1 0 0-3h-19v26a3 3 0 1 0 3 0v-23h16ZM575 958a3 3 0 0 0-3 5l-13 13v33a3 3 0 1 0 2 0v-32l13-13 1 1a3 3 0 1 0 0-7ZM425 648a3 3 0 1 0-3-2l-28 28a3 3 0 1 0 1 2l29-29 1 1ZM921 738a3 3 0 1 0 2 6l16 16h25v22h21a3 3 0 1 0 0-2h-19v-22h-26l-16-15a3 3 0 0 0-3-5ZM988 691a3 3 0 1 0 2 7l23 23-1 1a3 3 0 0 0 4 4 3 3 0 0 0 3-3 3 3 0 0 0-1-4 3 3 0 0 0-4 0l-23-23 1-1a3 3 0 0 0-4-4ZM962 948l-8 7h-1a3 3 0 1 0 3 2l7-7h19v5a3 3 0 0 0-1 6 3 3 0 0 0 5-5l-2-1v-7h-22Z"/><path d="M994 964v-26h-36l-26 26h-1a3 3 0 1 0 3 2l25-25h32v23a3 3 0 0 0-1 6 3 3 0 0 0 6-2 3 3 0 0 0-2-4ZM763 834h-1l-30-30v-1a3 3 0 1 0-2 3l30 30v1a3 3 0 1 0 3-3ZM150 97H66a5 5 0 1 0 0 2h84a5 5 0 1 0 0-2Zm-89 3a2 2 0 1 1 0-4 2 2 0 0 1 0 4Zm95-2a2 2 0 1 1-4 0 2 2 0 0 1 4 0ZM691 526a3 3 0 1 0-6 1l-85 85H403l-46 46v131a3 3 0 1 0 3 0V659l44-44h197l85-86h2a3 3 0 0 0 3-3ZM626 473a3 3 0 1 0 5-3v-79H374a3 3 0 1 0 0 2h255v77a3 3 0 0 0-3 3Z"/><path d="M645 473a3 3 0 0 0 3 4 3 3 0 0 0 1-7v-97H374a3 3 0 1 0 0 2h273v95a3 3 0 0 0-2 3ZM70 43a3 3 0 1 0 3 4h155V0h-3v45H73a3 3 0 0 0-3-2Z"/><path d="M69 61a3 3 0 1 0 3 4h174V0h-2v63H72a3 3 0 0 0-3-2Z"/><path d="M69 79a3 3 0 1 0 3 5h192V0h-2v81H72a3 3 0 0 0-3-2Z"/><path d="M23 70a3 3 0 1 0 3 5h229V0h-2v72H26a3 3 0 0 0-3-2Z"/><path d="M23 52a3 3 0 1 0 3 4h211V0h-2v54H26a3 3 0 0 0-3-2ZM125 910a3 3 0 0 0-1 7v47l-12 12v25a3 3 0 0 0-2 4 3 3 0 0 0 3 3 3 3 0 0 0 1-7v-24l12-12v-48a3 3 0 0 0-1-7ZM59 1001v-20l30-31v-33a3 3 0 1 0-2 0v32l-31 31v21l-1 1-1 2a3 3 0 0 0 2 3 3 3 0 0 0 3 0 3 3 0 0 0 1-5l-1-1Z"/><path d="M68 994v-9l31-31v-14a3 3 0 1 0-3 0v13l-31 31v10a3 3 0 0 0-1 6 3 3 0 1 0 4-6Z"/><path d="M77 1001v-12l31-31v-41a3 3 0 1 0-2 0v40l-31 31v13a3 3 0 0 0-2 6 3 3 0 0 0 5 0 3 3 0 0 0-1-6Z"/><path d="M92 994v-8l25-25v-21a3 3 0 1 0-2 0v20l-25 25v9a3 3 0 1 0 2 0Z"/></g><defs></defs></svg>