<svg width="652" height="364" xmlns="http://www.w3.org/2000/svg"><g fill="#FF6647" fill-rule="nonzero" fill-opacity=".2"><path d="M284 18.48v-93.06a3.44 3.44 0 1 0-2.29 0v92.11l-64.56 64.59H0v2.3h218.1L284 18.46Z"/><path d="M274.83 14.6v-66.23a3.44 3.44 0 1 0-2.3 0v65.36l-59.16 59.21H0v2.3h214.28l60.55-60.64Z"/><path d="M265.65 10.88v-85.46a3.43 3.43 0 1 0-2.3 0v84.59l-53.82 53.75H0v2.3h210.5l55.15-55.18Z"/><path d="M256.48 7.08v-58.71a3.44 3.44 0 1 0-2.3 0V6.14l-48.43 48.45H0v2.3h206.69l49.79-49.81Z"/><path d="M247.3 3.29v-77.87a3.43 3.43 0 1 0-2.3 0v76.9l-43.1 43.09H0v2.3h202.88L247.3 3.28Z"/><path d="M238.12-.52v-51.11a3.44 3.44 0 1 0-2.3 0v50.17l-37.69 37.7H0v2.29h199.1L238.12-.52Z"/><path d="M228.94-4.33v-70.25a3.43 3.43 0 1 0-2.29 0v69.31l-32.3 32.33H0v2.29h195.29l33.65-33.68ZM850.02 285.48V101.94L816.6 68.51H648.4a3.4 3.4 0 0 0-5.64-1.28 3.44 3.44 0 0 0 4.4 5.24c.58-.41 1.01-1 1.24-1.66h167.23l32.12 32.12v183.54l28.2 28.2h156.47v-2.3H876.89l-26.87-26.89Z"/><path d="M840.85 289.3V105.74L812.79 77.7H579.58a3.4 3.4 0 0 0-5.65-1.28 3.44 3.44 0 0 0 4.4 5.24c.58-.41 1.02-1 1.25-1.66h232.27l26.7 26.7v183.54l33.59 33.6h160.28v-2.3H873.08l-32.23-32.24Z"/><path d="M831.67 293.1V109.56l-22.7-22.69H648.39a3.39 3.39 0 0 0-3.21-2.3 3.44 3.44 0 1 0 1.97 6.26c.58-.41 1.01-1 1.24-1.66h159.66l21.34 21.33v183.54l39 39h164.04v-2.29H869.27l-37.6-37.65Z"/><path d="M822.5 296.8V113.24l-17.22-17.2h-225.7a3.4 3.4 0 0 0-5.65-1.3 3.44 3.44 0 0 0 4.4 5.25c.58-.41 1.02-1 1.25-1.66h224.65l16.06 16.06v183.54l44.32 44.32h167.81v-2.29H865.49l-43-43.18Z"/><path d="M813.32 300.7V117.14l-11.94-11.93H648.4a3.4 3.4 0 0 0-5.64-1.28 3.44 3.44 0 0 0 4.4 5.24c.58-.41 1.01-1 1.24-1.66h152.04l10.58 10.58v183.54l49.72 49.69h171.68v-2.3H861.68l-48.36-48.33Z"/><path d="M804.14 304.5V120.98l-6.56-6.57H579.62a3.4 3.4 0 0 0-5.64-1.28 3.44 3.44 0 0 0 4.4 5.24c.58-.41 1.01-1 1.24-1.66h217.06l5.2 5.2v183.55l55.07 55.06h175.47v-2.3H857.87l-53.73-53.7ZM82.34 222.16h45.5a3.45 3.45 0 1 0 0-2.3H81.4l-28.63 28.76H0v2.29h53.66l28.68-28.75Z"/><path d="M86.15 231.34h41.69a3.45 3.45 0 1 0 0-2.3H85.19L56.5 257.8H0v2.3h57.47l28.68-28.75Z"/><path d="M89.96 240.51h37.88a3.44 3.44 0 1 0 0-2.29H88.99l-28.67 28.75H0v2.3h61.28l28.68-28.76Z"/><path d="M184.69 286.45V174.49a3.44 3.44 0 1 0-2.3 0v111l-26.86 26.86H0v2.3h156.5l28.19-28.2Z"/><path d="M193.87 290.23v-69.86a3.44 3.44 0 1 0-2.3 0v68.83l-32.12 32.24H0v2.29h160.28l33.59-33.5Z"/><path d="M203.04 294.04V174.5a3.44 3.44 0 1 0-2.3 0V293.1l-37.6 37.6H0v2.3h164.09l38.95-38.96Z"/><path d="M212.22 297.85v-77.48a3.44 3.44 0 1 0-2.3 0v76.43l-42.99 43.08H0v2.3h167.9l44.32-44.33Z"/><path d="M221.4 301.66V174.49a3.44 3.44 0 1 0-2.3 0v126.18l-48.36 48.39H0v2.3h171.68l49.72-49.7Z"/><path d="M230.57 305.44v-62.13a3.45 3.45 0 1 0-2.3 0v61.2l-53.72 53.72H0v2.3h175.49l55.08-55.09ZM89 160.29h22.48a3.44 3.44 0 1 0 0-2.3H89.96l-34.42-34.41H0v2.3h54.58l34.41 34.4Z"/><path d="M92.8 151.1h37.03a3.45 3.45 0 1 0 0-2.29H93.74L59.33 114.4H0v2.3h58.39l34.41 34.4Z"/><path d="M96.61 141.94h24.05a3.45 3.45 0 1 0 0-2.3h-23.1l-34.42-34.41H0v2.3h62.2l34.41 34.4Z"/><path d="M100.4 132.75h11.08a3.45 3.45 0 1 0 0-2.29h-10.12L66.95 96.05H0v2.3h65.98l34.42 34.4ZM523.48 103.78H399.93l-45.88-45.89h-8.6a3.44 3.44 0 1 0 0 2.3h7.66l45.88 45.88h125.48l54.3-54.28h166.27V-185h-2.3V49.5H577.8l-54.3 54.28Z"/><path d="M519.7 94.6H403.79L357.9 48.72h-35.46a3.45 3.45 0 1 0 0 2.29h34.4l45.9 45.89h117.85l54.35-54.29h160.9V-185h-2.3V40.32H574L519.7 94.6Z"/><path d="M515.89 85.42H407.53l-45.89-45.88h-16.22a3.44 3.44 0 1 0 0 2.3h15.26l45.89 45.88H516.8l54.31-54.28h155.53V-185h-2.3V31.14H570.17l-54.28 54.28Z"/><path d="M508.3 67.07h-93.04l-45.88-45.88h-24a3.45 3.45 0 1 0 0 2.29h22.94l45.89 45.88h95.12l54.3-54.28H708.4V-185h-2.3V12.79H562.58l-54.29 54.28Z"/><path d="M504.48 57.9h-85.55L373.05 12h-50.48a3.44 3.44 0 1 0 0 2.3h49.6l45.89 45.89h87.37L559.8 5.9h139.4V-185h-2.3V3.61H558.8l-54.3 54.28ZM80.94 181.87h68.83v-40.6l33.47-33.48h105.68a3.4 3.4 0 0 0 5.64 1.29 3.44 3.44 0 0 0-4.4-5.24c-.58.4-1.01.99-1.24 1.66H182.19l-34.8 34.8v39.28h-65.5L51.11 148.8H0v2.3h50.18l30.76 30.76Z"/><path d="M77.13 191.05h81.72v-45.88l28.09-28.08h156.95a3.39 3.39 0 0 0 3.2 2.29 3.44 3.44 0 1 0-1.96-6.25c-.58.41-1.01 1-1.24 1.66h-157.9l-29.43 29.32v44.65H78l-30.7-30.77H0v2.3h46.37l30.76 30.76Z"/><path d="M73.42 200.23h94.61v-51.37l22.72-22.71h153.14a3.39 3.39 0 0 0 3.2 2.3 3.44 3.44 0 1 0-1.96-6.26c-.58.41-1.01 1-1.24 1.66H189.8l-24.06 24.07v50.02H74.29l-30.7-30.77H0v2.3h42.56l30.86 30.76Z"/><path d="M69.54 209.4H177.2v-56.73l17.34-17.35h94.27a3.4 3.4 0 0 0 5.65 1.29 3.44 3.44 0 0 0-4.4-5.24c-.58.4-1.02.99-1.25 1.66H193.6l-18.68 18.67v55.41H70.48l-30.77-30.77H0v2.3h38.77l30.77 30.77ZM56.78-38.3h104.2l19.92 19.89a3.44 3.44 0 1 0 1.63-1.6l-20.65-20.66H55.82L27.53-12.3V2.07a3.44 3.44 0 1 0 2.3 0v-13.42L56.78-38.3Z"/><path d="M60.57-29.13h96.63l14.53 14.52a3.54 3.54 0 0 0 .33 3.58 3.49 3.49 0 1 0 1.3-5.2l-15.22-15.2H59.65L36.71-8.47v19.75a3.44 3.44 0 1 0 2.3 0v-18.8l21.56-21.6ZM132.68 256.05h21.8a3.45 3.45 0 1 0 0-2.3h-22.74L86.9 298.58H0v2.3h87.85l44.83-44.83ZM310.25 141.93a3.44 3.44 0 1 0 0 2.3h382.62V307.9a3.44 3.44 0 1 0 2.29 0V141.93h-384.9Z"/><path d="M374.5 151.1a3.44 3.44 0 1 0 0 2.3h309.19v131.55a3.45 3.45 0 1 0 2.3 0V151.11h-311.5Z"/><path d="M374.5 169.46a3.44 3.44 0 1 0 0 2.3h290.84v113.2a3.44 3.44 0 1 0 2.29 0v-115.5H374.49Z"/><path d="m576.82 360.53 43.3-43.3v-73.92a3.45 3.45 0 1 0-2.3 0v72.96l-41.96 41.96H298.6l-55.4-58.96v-33.01a3.44 3.44 0 1 0-2.3 0v33.93l56.71 60.34h279.21Z"/><path d="M301.56 351.35h271.48l37.9-37.92v-47.17a3.44 3.44 0 1 0-2.3 0v46.23l-36.57 36.57h-269.5l-50.2-53.41v-52.33a3.45 3.45 0 1 0-2.3 0v53.22l51.49 54.81Z"/><path d="M279.9 266.26a3.44 3.44 0 1 0-2.3 0v19.38l35.89 38.18h248.14l21.78-21.8v-58.7a3.45 3.45 0 1 0-2.3 0v57.76l-20.44 20.45H314.45l-34.57-36.71.02-18.56ZM361.14 106.78a3.44 3.44 0 1 0-1.47-6.54L339.34 79.9h-81.33l-8.76-8.76a3.44 3.44 0 1 0-1.6 1.63l9.42 9.43h81.31l19.66 19.68a3.42 3.42 0 0 0 3.1 4.91Z"/><path d="M307.02 158a3.44 3.44 0 1 0 3.23 4.58h364.26V307.9a3.44 3.44 0 1 0 2.3 0V160.29H310.25a3.46 3.46 0 0 0-3.23-2.3Z"/><path d="M307.02 183.23a3.47 3.47 0 0 0 3.23-2.3h345.9V307.9a3.44 3.44 0 1 0 2.3 0V178.64h-348.2a3.43 3.43 0 1 0-3.23 4.59Z"/><path d="M307.02 201.58a3.47 3.47 0 0 0 3.23-2.3H637.8V307.9a3.44 3.44 0 1 0 2.3 0V197H310.25a3.43 3.43 0 1 0-3.23 4.58ZM257.46 149.96a3.43 3.43 0 1 0-4.59 3.24v37.85h22.63a3.42 3.42 0 0 0 5.66 1.29 3.44 3.44 0 1 0-5.67-3.58h-20.32V153.2a3.47 3.47 0 0 0 2.3-3.24Z"/><path d="M223.85 149.41a3.44 3.44 0 1 0 1.5 6.54l12.68 12.71v49.63h32.44a3.4 3.4 0 0 0 5.64 1.28 3.44 3.44 0 0 0-4.4-5.24c-.58.41-1.01 1-1.24 1.66h-30.15v-48.3l-13.37-13.34a3.44 3.44 0 0 0-3.1-4.93ZM263.84 263.02a3.44 3.44 0 1 0-4.59 3.24v26.66l46.3 49.25h263.68l32.53-32.55v-66.3a3.44 3.44 0 1 0-2.3 0v65.36l-31.17 31.2H306.54l-45-47.88v-25.74a3.46 3.46 0 0 0 2.3-3.24Z"/><path d="M273.02 240.08a3.46 3.46 0 0 0-3.68-3.44 3.44 3.44 0 0 0-.91 6.68v45.88l41.09 43.73h255.9l27.16-27.17v-39.5a3.44 3.44 0 1 0-2.29 0v38.61l-25.9 25.83H310.5l-39.79-42.33v-45.06a3.46 3.46 0 0 0 2.3-3.23Z"/><path d="M291.37 240.08a3.44 3.44 0 1 0-4.59 3.23V282l30.68 32.64h240.37l16.4-16.42v-31.96a3.44 3.44 0 1 0-2.3 0v31.02l-15.07 15.07H318.42l-29.34-31.25v-37.79a3.47 3.47 0 0 0 2.3-3.23Z"/><path d="M300.55 263.02a3.44 3.44 0 1 0-4.6 3.24v12.18l25.48 27.1h232.59l11.03-11.04v-51.19a3.45 3.45 0 1 0-2.3 0v50.16l-9.67 9.7h-230.7l-24.13-25.72v-11.2a3.46 3.46 0 0 0 2.3-3.23Z"/><path d="M356.14 234.03h16.75l16.81 16.79h113.6a3.45 3.45 0 1 0 0-2.3H390.63l-16.68-16.79h-17.7a3.43 3.43 0 1 0 0 2.3h-.12ZM542.36 232.88a4.58 4.58 0 1 0-4.4-5.74H411.47a4.59 4.59 0 1 0 0 2.3h126.49a4.58 4.58 0 0 0 4.4 3.44Zm0-6.89a2.3 2.3 0 1 1 0 4.6 2.3 2.3 0 0 1 0-4.6ZM407 230.6a2.3 2.3 0 1 1 .05 0H407Z"/><path d="M529.47 262.38a3.44 3.44 0 1 0-3.24-4.59h-139.4L370.04 241h-47.79a3.44 3.44 0 1 0 0 2.3h46.85l16.8 16.8h140.33a3.46 3.46 0 0 0 3.24 2.29Z"/><path d="M506.53 271.56a3.44 3.44 0 1 0-3.24-4.6H383.14l-16.82-16.79h-10.1a3.44 3.44 0 1 0 0 2.3h9.19l16.79 16.8h121.2a3.46 3.46 0 0 0 3.13 2.29ZM55.06-4.8a3.46 3.46 0 0 0 3.24-2.3h36.09l26.52 26.5h46.94l21.22-21.2a3.44 3.44 0 1 0-1.63-1.63L166.8 17.22h-44.94L95.35-9.4H58.3a3.44 3.44 0 1 0-3.24 4.6Z"/><path d="M196.62-20.73a3.43 3.43 0 0 0-4.91-3.1l-25.97-25.95H52.04L18.34-16.1v27.35a3.44 3.44 0 1 0 2.3 0v-26.48l32.32-32.25H164.8l25.23 25.23a3.45 3.45 0 1 0 6.54 1.47l.05.05ZM322.8 388.3a3.44 3.44 0 1 0 3.24 4.58h259.52l51.9-51.92c.45.23.96.35 1.47.35a3.44 3.44 0 1 0-3.1-1.95l-51.23 51.22H326.04a3.42 3.42 0 0 0-3.24-2.29ZM547.87 109.58a4.58 4.58 0 0 0-3.95 6.89l-9.5 9.5h-134.9l-9-9c.42-.7.64-1.49.65-2.3a4.6 4.6 0 1 0-4.59 4.6c.81-.02 1.6-.24 2.3-.65l9.66 9.66h136.82l10.17-10.16a4.59 4.59 0 1 0 2.3-8.54h.04Zm-161.29 7.39a2.3 2.3 0 1 1 0-4.6 2.3 2.3 0 0 1 0 4.6Zm161.29-.5a2.3 2.3 0 1 1 0-4.6 2.3 2.3 0 0 1 0 4.6ZM485.76.17h-48.75l-18.2 18.2v13.49a3.4 3.4 0 0 0-2.29 3.23 3.44 3.44 0 1 0 4.6-3.23V19.3l16.83-16.84h46.85l17.1 17.09v23.77a3.42 3.42 0 0 0-1.3 5.66 3.44 3.44 0 0 0 5.88-2.43 3.37 3.37 0 0 0-2.3-3.23V18.6L485.77.16Z"/><path d="M481.24 46.56a3.44 3.44 0 1 0 4.6-3.24V26.21l-7.7-7.69H444.6l-7.43 7.55v5.9a3.37 3.37 0 0 0-2.3 3.23 3.44 3.44 0 1 0 4.6-3.23v-5.05l6.1-6.1h31.64l6.33 6.33v16.06a3.41 3.41 0 0 0-2.3 3.35Z"/><path d="M490.42 46.56a3.44 3.44 0 1 0 4.59-3.23V22.4L481.95 9.35h-41.13l-12.83 12.82v9.68a3.38 3.38 0 0 0-2.3 3.24 3.45 3.45 0 1 0 4.6-3.24v-8.74l11.47-11.47H481l11.7 11.7v19.99a3.42 3.42 0 0 0-2.29 3.23ZM326.24 261.14a3.44 3.44 0 1 0 1.47 6.54l23.8 23.8h118.24a3.42 3.42 0 0 0 5.67 1.28 3.44 3.44 0 1 0-5.67-3.58h-117.3l-23.1-23.1a3.44 3.44 0 0 0-3.1-4.93ZM166.24 269.27a3.44 3.44 0 1 0-3.1-1.95l-30.85 30.72a3.44 3.44 0 1 0 1.63 1.62l30.85-30.85c.45.27.95.42 1.47.46ZM154.52 267.91a3.44 3.44 0 1 0-3.1-1.97l-32.12 32.12a3.43 3.43 0 1 0 1.6 1.6l32.13-32.12c.46.23.97.36 1.49.37ZM145.32 107.45h-29.83l-11.47-11.47H89.48a4.6 4.6 0 1 0 0 2.3h13.76l11.47 11.47h30.6a4.6 4.6 0 1 0 0-2.3Zm-60.2-7.96a2.3 2.3 0 1 1 0-4.59 2.3 2.3 0 0 1 0 4.6Zm66.92 9.18a2.3 2.3 0 1 1-4.59 0 2.3 2.3 0 0 1 4.6 0ZM235.92 317.44c.45.23.96.35 1.47.35a3.44 3.44 0 1 0-3.1-1.96L209.3 340.8v15.34a3.45 3.45 0 1 0 2.29 0v-14.4l24.32-24.3ZM265.13 360.53a4.59 4.59 0 1 0 0-2.3h-25.24v-21.95a4.6 4.6 0 1 0-2.3 0v24.25h27.53Zm4.42-3.44a2.3 2.3 0 1 1 0 4.58 2.3 2.3 0 0 1 0-4.58Zm-33.04-25.24a2.3 2.3 0 1 1 4.6 0 2.3 2.3 0 0 1-4.6 0ZM626.33 288.19a3.44 3.44 0 1 0 4.6-3.24v-78.78H374.48a3.44 3.44 0 1 0 0 2.3h254.14v76.48a3.45 3.45 0 0 0-2.3 3.24Z"/><path d="M644.69 288.2a3.46 3.46 0 0 0 3.67 3.44 3.44 3.44 0 0 0 .91-6.68v-97.14H374.5a3.44 3.44 0 1 0 0 2.3H647v94.84a3.43 3.43 0 0 0-2.3 3.23ZM24.09 200.44a3.44 3.44 0 1 0-3.24-4.6H0v2.3h20.85a3.46 3.46 0 0 0 3.24 2.3ZM37.86 209.61a3.44 3.44 0 1 0-3.24-4.59H0v2.3h34.62a3.46 3.46 0 0 0 3.24 2.3ZM37.86 218.79a3.44 3.44 0 1 0-3.24-4.59H0v2.3h34.62a3.47 3.47 0 0 0 3.24 2.29ZM24.09 234.2a3.44 3.44 0 1 0-3.24-4.58H0v2.3h20.85a3.46 3.46 0 0 0 3.24 2.29ZM47.03 243.38a3.44 3.44 0 1 0-3.23-4.59H0v2.3h43.8a3.46 3.46 0 0 0 3.23 2.3ZM78.44 282.27H25.08a4.59 4.59 0 1 0 0 2.3h53.36a4.59 4.59 0 1 0 0-2.3Zm-57.8 3.44a2.3 2.3 0 1 1 .01-4.59 2.3 2.3 0 0 1 0 4.6Zm64.52-2.3a2.3 2.3 0 1 1-4.59 0 2.3 2.3 0 0 1 4.6 0Z"/></g></svg>