<svg width="752" height="18" viewBox="0 0 752 18" fill="none" xmlns="http://www.w3.org/2000/svg">
<rect y="0.949219" width="752" height="16.1012" fill="#00EF91"/>
<rect x="337.758" y="3.14453" width="76.4808" height="12.0759" rx="6.03796" fill="#020202"/>
<path d="M345.832 11.7132H347.463L347.413 7.55224L349.834 11.7132H351.182L353.644 7.55224L353.561 11.7132H355.209V6.32414H352.546L350.533 9.9034L348.511 6.32414H345.832V11.7132Z" fill="#00EF91"/>
<path d="M356.571 11.7132H358.26V6.32414H356.571V11.7132Z" fill="#00EF91"/>
<path d="M359.624 11.7132H361.247L361.205 7.65727L364.516 11.7132H367.229V6.32414H365.631L365.673 10.4205L362.312 6.32414H359.624V11.7132Z" fill="#00EF91"/>
<path d="M370.686 11.7132H372.375V7.65727H374.846V6.32414H368.215V7.65727H370.686V11.7132Z" fill="#00EF91"/>
<path d="M377.696 11.7132H379.319L379.277 7.65727L382.588 11.7132H385.301V6.32414H383.703L383.745 10.4205L380.384 6.32414H377.696V11.7132Z" fill="#00EF91"/>
<path d="M390.2 6.26758C388.736 6.26758 388.229 6.2999 387.763 6.42917C387.139 6.60692 386.814 6.91395 386.656 7.4876C386.556 7.85118 386.54 8.07741 386.54 8.98233C386.54 10.1619 386.59 10.5579 386.806 10.9538C387.014 11.3497 387.372 11.5759 387.987 11.6809C388.32 11.7456 388.994 11.7698 390.317 11.7698C390.858 11.7698 391.598 11.7617 391.898 11.7456C392.705 11.7132 393.171 11.584 393.503 11.3093C393.978 10.9295 394.119 10.4043 394.119 9.10352C394.119 8.44907 394.102 8.01277 394.069 7.79462C393.953 6.93011 393.537 6.50189 392.68 6.34837C392.289 6.28374 391.798 6.26758 390.2 6.26758ZM390.333 7.58455C392.413 7.58455 392.438 7.60071 392.438 8.95809C392.438 9.67717 392.397 9.95188 392.239 10.1458C392.047 10.4043 391.748 10.4528 390.292 10.4528C389.019 10.4528 388.744 10.4205 388.52 10.2427C388.312 10.0731 388.245 9.78221 388.245 8.99041C388.245 8.21476 388.312 7.94814 388.536 7.77847C388.753 7.62495 389.094 7.58455 390.333 7.58455Z" fill="#00EF91"/>
<path d="M394.792 6.32414L397.03 11.7132H399.276L400.566 7.83502L401.797 11.7132H404.06L406.356 6.32414H404.642L402.979 10.4286L401.589 6.32414H399.551L398.12 10.4286L396.506 6.32414H394.792Z" fill="#00EF91"/>
<path d="M434.939 9.98456C434.939 10.5115 434.818 10.742 434.5 10.8738C434.192 11.0055 433.951 11.0165 432.293 11.0165C430.153 11.0165 429.988 10.8848 429.988 9.12827C429.988 7.94263 430.043 7.64622 430.306 7.4047C430.581 7.16319 430.91 7.11927 432.732 7.11927C434.665 7.11927 434.829 7.18514 434.873 7.98654H437.003V7.74502C437.003 6.66917 436.728 6.02146 436.136 5.72505C435.51 5.41767 434.917 5.36278 432.183 5.36278C430.131 5.36278 429.428 5.46158 428.769 5.84581C428.001 6.28494 427.781 6.97656 427.781 8.9087C427.781 11.0824 427.99 11.8508 428.714 12.3119C429.307 12.6961 429.988 12.795 432.096 12.795C433.556 12.795 434.434 12.784 434.884 12.7401C436.026 12.6632 436.619 12.3668 436.904 11.7411C437.058 11.4117 437.091 11.0494 437.102 9.98456H434.939Z" fill="black"/>
<path d="M437.882 12.7401H440.407L441.11 11.4337H445.83L446.555 12.7401H448.992L444.985 5.41767H441.999L437.882 12.7401ZM441.911 9.90771L443.47 6.98754L445.051 9.90771H441.911Z" fill="black"/>
<path d="M449.907 12.7401H452.125V10.8957H455.539C456.538 10.8738 456.758 11.0385 456.769 11.8289V12.7401H459.03V11.5874C459.052 10.4786 458.778 10.0943 457.867 9.94064C458.8 9.73206 459.129 9.19413 459.129 7.83285C459.129 6.84482 458.931 6.21907 458.503 5.87875C458.086 5.52745 457.515 5.41767 456.22 5.41767H449.907V12.7401ZM452.125 9.10631V7.21808H455.682C456.352 7.21808 456.538 7.25101 456.703 7.42666C456.846 7.58035 456.89 7.77796 456.89 8.25002C456.89 8.97457 456.681 9.10631 455.605 9.10631H452.125Z" fill="black"/>
<path d="M470.173 7.89872C470.183 6.36178 469.821 5.79092 468.69 5.50549C468.229 5.39571 467.593 5.36278 465.595 5.36278C464.2 5.36278 463.311 5.39571 462.806 5.46158C461.862 5.59332 461.346 5.88973 461.017 6.46059C460.731 6.97656 460.644 7.60231 460.644 9.17218C460.644 10.5335 460.698 11.0494 460.918 11.5434C461.17 12.1472 461.643 12.4876 462.444 12.6632C462.905 12.762 463.553 12.795 465.232 12.795C467.395 12.795 468.065 12.784 468.295 12.762C469.217 12.6632 469.733 12.3339 469.986 11.6532C470.129 11.258 470.173 10.8299 470.173 9.62228V8.61229H465.177V9.97358H467.999V10.1492C467.999 10.3688 467.988 10.4676 467.966 10.5554C467.779 11.0385 467.505 11.1153 466.045 11.1043C464.672 11.1043 464.672 11.1043 464.431 11.0933C463.849 11.0824 463.542 11.0165 463.289 10.8518C462.982 10.6432 462.883 10.248 462.883 9.26C462.883 8.78794 462.905 8.11828 462.938 7.92067C462.993 7.45959 463.168 7.25101 463.575 7.15221C463.838 7.08634 463.838 7.08634 464.903 7.08634L465.715 7.07536L466.506 7.08634H467.066C467.735 7.10829 467.988 7.32786 467.988 7.89872H470.173Z" fill="black"/>
<path d="M476.503 5.34082C474.571 5.34082 473.901 5.38473 473.286 5.56038C472.463 5.8019 472.035 6.21907 471.826 6.99851C471.695 7.49253 471.673 7.79992 471.673 9.02946C471.673 10.6323 471.739 11.1702 472.024 11.7081C472.298 12.246 472.77 12.5534 473.583 12.6961C474.022 12.784 474.911 12.8169 476.657 12.8169C477.37 12.8169 478.347 12.8059 478.743 12.784C479.807 12.7401 480.422 12.5644 480.861 12.1912C481.487 11.6752 481.674 10.9616 481.674 9.19413C481.674 8.30491 481.652 7.71209 481.608 7.41568C481.454 6.24102 480.905 5.65919 479.774 5.4506C479.259 5.36278 478.611 5.34082 476.503 5.34082ZM476.679 7.13025C479.423 7.13025 479.456 7.15221 479.456 8.99653C479.456 9.97358 479.401 10.3468 479.193 10.6103C478.94 10.9616 478.545 11.0275 476.624 11.0275C474.944 11.0275 474.582 10.9836 474.285 10.742C474.011 10.5115 473.923 10.1163 473.923 9.04044C473.923 7.98654 474.011 7.62427 474.307 7.39373C474.593 7.18514 475.043 7.13025 476.679 7.13025Z" fill="black"/>
<path d="M485.951 12.7401H492.571C493.35 12.7401 493.68 12.7181 494.097 12.6303C494.898 12.4766 495.513 11.7959 495.634 10.9177C495.7 10.5005 495.744 9.74304 495.744 9.08435C495.744 8.73305 495.722 8.22806 495.7 7.88774C495.623 6.9546 495.458 6.49352 495.052 6.09831C494.547 5.59332 493.823 5.41767 492.275 5.41767H485.951V12.7401ZM488.18 10.9945V7.24003H491.956C493.241 7.24003 493.504 7.5584 493.504 9.09533C493.504 10.3578 493.361 10.742 492.824 10.9067C492.56 10.9945 492.516 10.9945 491.912 10.9945H488.18Z" fill="black"/>
<path d="M497.398 12.7401H499.616V10.8957H503.03C504.029 10.8738 504.249 11.0385 504.26 11.8289V12.7401H506.521V11.5874C506.543 10.4786 506.269 10.0943 505.358 9.94064C506.291 9.73206 506.62 9.19413 506.62 7.83285C506.62 6.84482 506.422 6.21907 505.994 5.87875C505.577 5.52745 505.006 5.41767 503.711 5.41767H497.398V12.7401ZM499.616 9.10631V7.21808H503.173C503.843 7.21808 504.029 7.25101 504.194 7.42666C504.337 7.58035 504.381 7.77796 504.381 8.25002C504.381 8.97457 504.172 9.10631 503.096 9.10631H499.616Z" fill="black"/>
<path d="M512.976 5.34082C511.043 5.34082 510.374 5.38473 509.759 5.56038C508.936 5.8019 508.508 6.21907 508.299 6.99851C508.167 7.49253 508.145 7.79992 508.145 9.02946C508.145 10.6323 508.211 11.1702 508.497 11.7081C508.771 12.246 509.243 12.5534 510.055 12.6961C510.495 12.784 511.384 12.8169 513.129 12.8169C513.843 12.8169 514.82 12.8059 515.215 12.784C516.28 12.7401 516.895 12.5644 517.334 12.1912C517.96 11.6752 518.146 10.9616 518.146 9.19413C518.146 8.30491 518.124 7.71209 518.08 7.41568C517.927 6.24102 517.378 5.65919 516.247 5.4506C515.731 5.36278 515.083 5.34082 512.976 5.34082ZM513.151 7.13025C515.896 7.13025 515.929 7.15221 515.929 8.99653C515.929 9.97358 515.874 10.3468 515.665 10.6103C515.413 10.9616 515.018 11.0275 513.096 11.0275C511.417 11.0275 511.054 10.9836 510.758 10.742C510.484 10.5115 510.396 10.1163 510.396 9.04044C510.396 7.98654 510.484 7.62427 510.78 7.39373C511.065 7.18514 511.516 7.13025 513.151 7.13025Z" fill="black"/>
<path d="M519.789 12.7401H522.007V10.9397H525.586C526.859 10.9397 527.353 10.8628 527.781 10.5993C528.385 10.2261 528.637 9.50152 528.637 8.1073C528.637 6.72406 528.363 6.0544 527.627 5.69212C527.166 5.46158 526.804 5.41767 525.388 5.41767H519.789V12.7401ZM522.007 9.1612V7.19612H525.245C526.2 7.19612 526.42 7.39373 526.42 8.27197C526.42 8.96359 526.156 9.1612 525.245 9.1612H522.007Z" fill="black"/>
<path d="M534.755 7.87676C534.744 7.76698 534.733 7.66818 534.733 7.59133C534.733 7.29492 534.875 7.09732 535.15 6.99851C535.402 6.89971 535.402 6.89971 536.961 6.87775C538.476 6.92167 538.476 6.92167 538.74 7.02047C538.981 7.11927 539.113 7.33883 539.113 7.64622C539.113 7.95361 539.014 8.14024 538.817 8.25002C538.685 8.31589 538.246 8.37078 537.785 8.37078H536.138V9.75402H537.883C538.487 9.75402 538.784 9.78695 538.937 9.8638C539.157 9.97358 539.278 10.2041 539.278 10.5335C539.278 10.8957 539.146 11.1153 538.86 11.1921C538.641 11.247 538.048 11.28 536.939 11.28C534.766 11.28 534.645 11.2251 534.645 10.1602H532.625C532.614 10.3468 532.603 10.5554 532.603 10.6213C532.603 11.5654 532.877 12.1692 533.426 12.4656C533.931 12.7181 534.524 12.773 537.027 12.773C538.948 12.773 539.662 12.7401 540.167 12.6083C540.99 12.4107 541.374 11.8289 541.374 10.775C541.374 9.62228 541.177 9.33685 540.156 9.0624C541.012 8.84283 541.221 8.52447 541.221 7.44862C541.221 5.69212 540.617 5.38473 537.137 5.38473C536.215 5.38473 535.534 5.39571 535.062 5.43962C534.118 5.49451 533.558 5.67016 533.207 5.97755C532.822 6.31787 532.735 6.61428 532.691 7.87676H534.755Z" fill="black"/>
<path d="M220.865 9.98456C220.865 10.5115 220.744 10.742 220.426 10.8738C220.118 11.0055 219.877 11.0165 218.219 11.0165C216.078 11.0165 215.914 10.8848 215.914 9.12827C215.914 7.94263 215.969 7.64622 216.232 7.4047C216.506 7.16319 216.836 7.11927 218.658 7.11927C220.59 7.11927 220.755 7.18514 220.799 7.98654H222.929V7.74502C222.929 6.66917 222.654 6.02146 222.061 5.72505C221.436 5.41767 220.843 5.36278 218.109 5.36278C216.056 5.36278 215.354 5.46158 214.695 5.84581C213.927 6.28494 213.707 6.97656 213.707 8.9087C213.707 11.0824 213.916 11.8508 214.64 12.3119C215.233 12.6961 215.914 12.795 218.021 12.795C219.482 12.795 220.36 12.784 220.81 12.7401C221.952 12.6632 222.544 12.3668 222.83 11.7411C222.984 11.4117 223.016 11.0494 223.027 9.98456H220.865Z" fill="black"/>
<path d="M223.808 12.7401H226.333L227.035 11.4337H231.756L232.481 12.7401H234.918L230.911 5.41767H227.925L223.808 12.7401ZM227.837 9.90771L229.396 6.98754L230.977 9.90771H227.837Z" fill="black"/>
<path d="M235.833 12.7401H238.051V10.8957H241.465C242.464 10.8738 242.684 11.0385 242.695 11.8289V12.7401H244.956V11.5874C244.978 10.4786 244.704 10.0943 243.792 9.94064C244.725 9.73206 245.055 9.19413 245.055 7.83285C245.055 6.84482 244.857 6.21907 244.429 5.87875C244.012 5.52745 243.441 5.41767 242.146 5.41767H235.833V12.7401ZM238.051 9.10631V7.21808H241.608C242.277 7.21808 242.464 7.25101 242.629 7.42666C242.771 7.58035 242.815 7.77796 242.815 8.25002C242.815 8.97457 242.607 9.10631 241.531 9.10631H238.051Z" fill="black"/>
<path d="M256.098 7.89872C256.109 6.36178 255.747 5.79092 254.616 5.50549C254.155 5.39571 253.518 5.36278 251.52 5.36278C250.126 5.36278 249.237 5.39571 248.732 5.46158C247.788 5.59332 247.272 5.88973 246.943 6.46059C246.657 6.97656 246.569 7.60231 246.569 9.17218C246.569 10.5335 246.624 11.0494 246.844 11.5434C247.096 12.1472 247.568 12.4876 248.37 12.6632C248.831 12.762 249.478 12.795 251.158 12.795C253.321 12.795 253.99 12.784 254.221 12.762C255.143 12.6632 255.659 12.3339 255.912 11.6532C256.054 11.258 256.098 10.8299 256.098 9.62228V8.61229H251.103V9.97358H253.925V10.1492C253.925 10.3688 253.914 10.4676 253.892 10.5554C253.705 11.0385 253.431 11.1153 251.971 11.1043C250.598 11.1043 250.598 11.1043 250.357 11.0933C249.775 11.0824 249.468 11.0165 249.215 10.8518C248.908 10.6432 248.809 10.248 248.809 9.26C248.809 8.78794 248.831 8.11828 248.864 7.92067C248.919 7.45959 249.094 7.25101 249.5 7.15221C249.764 7.08634 249.764 7.08634 250.829 7.08634L251.641 7.07536L252.432 7.08634H252.991C253.661 7.10829 253.914 7.32786 253.914 7.89872H256.098Z" fill="black"/>
<path d="M262.429 5.34082C260.497 5.34082 259.827 5.38473 259.212 5.56038C258.389 5.8019 257.961 6.21907 257.752 6.99851C257.62 7.49253 257.598 7.79992 257.598 9.02946C257.598 10.6323 257.664 11.1702 257.95 11.7081C258.224 12.246 258.696 12.5534 259.509 12.6961C259.948 12.784 260.837 12.8169 262.582 12.8169C263.296 12.8169 264.273 12.8059 264.668 12.784C265.733 12.7401 266.348 12.5644 266.787 12.1912C267.413 11.6752 267.599 10.9616 267.599 9.19413C267.599 8.30491 267.578 7.71209 267.534 7.41568C267.38 6.24102 266.831 5.65919 265.7 5.4506C265.184 5.36278 264.537 5.34082 262.429 5.34082ZM262.604 7.13025C265.349 7.13025 265.382 7.15221 265.382 8.99653C265.382 9.97358 265.327 10.3468 265.118 10.6103C264.866 10.9616 264.471 11.0275 262.55 11.0275C260.87 11.0275 260.508 10.9836 260.211 10.742C259.937 10.5115 259.849 10.1163 259.849 9.04044C259.849 7.98654 259.937 7.62427 260.233 7.39373C260.519 7.18514 260.969 7.13025 262.604 7.13025Z" fill="black"/>
<path d="M271.877 12.7401H278.497C279.276 12.7401 279.606 12.7181 280.023 12.6303C280.824 12.4766 281.439 11.7959 281.56 10.9177C281.626 10.5005 281.669 9.74304 281.669 9.08435C281.669 8.73305 281.647 8.22806 281.626 7.88774C281.549 6.9546 281.384 6.49352 280.978 6.09831C280.473 5.59332 279.748 5.41767 278.2 5.41767H271.877V12.7401ZM274.106 10.9945V7.24003H277.882C279.166 7.24003 279.43 7.5584 279.43 9.09533C279.43 10.3578 279.287 10.742 278.749 10.9067C278.486 10.9945 278.442 10.9945 277.838 10.9945H274.106Z" fill="black"/>
<path d="M283.324 12.7401H285.542V10.8957H288.956C289.955 10.8738 290.175 11.0385 290.186 11.8289V12.7401H292.447V11.5874C292.469 10.4786 292.195 10.0943 291.283 9.94064C292.216 9.73206 292.546 9.19413 292.546 7.83285C292.546 6.84482 292.348 6.21907 291.92 5.87875C291.503 5.52745 290.932 5.41767 289.637 5.41767H283.324V12.7401ZM285.542 9.10631V7.21808H289.099C289.768 7.21808 289.955 7.25101 290.12 7.42666C290.262 7.58035 290.306 7.77796 290.306 8.25002C290.306 8.97457 290.098 9.10631 289.022 9.10631H285.542Z" fill="black"/>
<path d="M298.901 5.34082C296.969 5.34082 296.3 5.38473 295.685 5.56038C294.861 5.8019 294.433 6.21907 294.225 6.99851C294.093 7.49253 294.071 7.79992 294.071 9.02946C294.071 10.6323 294.137 11.1702 294.422 11.7081C294.697 12.246 295.169 12.5534 295.981 12.6961C296.42 12.784 297.31 12.8169 299.055 12.8169C299.769 12.8169 300.746 12.8059 301.141 12.784C302.206 12.7401 302.821 12.5644 303.26 12.1912C303.885 11.6752 304.072 10.9616 304.072 9.19413C304.072 8.30491 304.05 7.71209 304.006 7.41568C303.853 6.24102 303.304 5.65919 302.173 5.4506C301.657 5.36278 301.009 5.34082 298.901 5.34082ZM299.077 7.13025C301.822 7.13025 301.854 7.15221 301.854 8.99653C301.854 9.97358 301.8 10.3468 301.591 10.6103C301.339 10.9616 300.943 11.0275 299.022 11.0275C297.342 11.0275 296.98 10.9836 296.684 10.742C296.409 10.5115 296.322 10.1163 296.322 9.04044C296.322 7.98654 296.409 7.62427 296.706 7.39373C296.991 7.18514 297.441 7.13025 299.077 7.13025Z" fill="black"/>
<path d="M305.715 12.7401H307.932V10.9397H311.511C312.785 10.9397 313.279 10.8628 313.707 10.5993C314.311 10.2261 314.563 9.50152 314.563 8.1073C314.563 6.72406 314.289 6.0544 313.553 5.69212C313.092 5.46158 312.73 5.41767 311.314 5.41767H305.715V12.7401ZM307.932 9.1612V7.19612H311.171C312.126 7.19612 312.346 7.39373 312.346 8.27197C312.346 8.96359 312.082 9.1612 311.171 9.1612H307.932Z" fill="black"/>
<path d="M320.68 7.87676C320.669 7.76698 320.658 7.66818 320.658 7.59133C320.658 7.29492 320.801 7.09732 321.076 6.99851C321.328 6.89971 321.328 6.89971 322.887 6.87775C324.402 6.92167 324.402 6.92167 324.665 7.02047C324.907 7.11927 325.039 7.33883 325.039 7.64622C325.039 7.95361 324.94 8.14024 324.742 8.25002C324.611 8.31589 324.171 8.37078 323.71 8.37078H322.064V9.75402H323.809C324.413 9.75402 324.709 9.78695 324.863 9.8638C325.083 9.97358 325.203 10.2041 325.203 10.5335C325.203 10.8957 325.072 11.1153 324.786 11.1921C324.567 11.247 323.974 11.28 322.865 11.28C320.691 11.28 320.571 11.2251 320.571 10.1602H318.551C318.54 10.3468 318.529 10.5554 318.529 10.6213C318.529 11.5654 318.803 12.1692 319.352 12.4656C319.857 12.7181 320.45 12.773 322.953 12.773C324.874 12.773 325.588 12.7401 326.093 12.6083C326.916 12.4107 327.3 11.8289 327.3 10.775C327.3 9.62228 327.103 9.33685 326.082 9.0624C326.938 8.84283 327.146 8.52447 327.146 7.44862C327.146 5.69212 326.543 5.38473 323.063 5.38473C322.14 5.38473 321.46 5.39571 320.988 5.43962C320.044 5.49451 319.484 5.67016 319.132 5.97755C318.748 6.31787 318.66 6.61428 318.617 7.87676H320.68Z" fill="black"/>
</svg>
