<svg viewBox="0 0 145 16" fill="none" xmlns="http://www.w3.org/2000/svg">
<g clip-path="url(#clip0_2609_44703)">
<path d="M1.73346 14.2743L1.83673 14.9677L1.98427 14.3407L3.017 10.6523H3.59976L4.61774 14.3407L4.7579 14.9751L4.86855 14.2743L5.68736 10.6819H6.38076L5.11198 15.9267H4.47758L3.40059 12.1055L3.31207 11.7072L3.23093 12.1055L2.10967 15.9267H1.47528L0.213867 10.6819H0.907274L1.73346 14.2743Z" fill="#FF6647" fill-opacity="0.6"/>
<path d="M7.14844 15.9268V10.682H8.62377C9.04657 10.675 9.46377 10.7793 9.83355 10.9844C10.1801 11.1897 10.4615 11.4889 10.645 11.8475C10.8427 12.246 10.9414 12.6863 10.9327 13.131V13.463C10.942 13.9093 10.846 14.3516 10.6524 14.7539C10.4702 15.114 10.1852 15.4118 9.83355 15.6096C9.45647 15.8165 9.03167 15.9208 8.60164 15.912L7.14844 15.9268ZM7.84184 11.25V15.3662H8.57951C8.81142 15.3794 9.04339 15.3413 9.25888 15.2546C9.47437 15.1679 9.66807 15.0347 9.82617 14.8645C10.144 14.4636 10.3018 13.9589 10.2688 13.4482V13.1458C10.2998 12.6457 10.1507 12.1511 9.8483 11.7516C9.70121 11.5835 9.5179 11.4511 9.31217 11.3642C9.10644 11.2773 8.88367 11.2382 8.66066 11.25H7.84184Z" fill="#FF6647" fill-opacity="0.6"/>
<path d="M18.5303 13.5795H13.7207V13.041H18.5303V13.5795Z" fill="#FF6647" fill-opacity="0.6"/>
<path d="M22.5284 14.2743L22.6317 14.9677L22.7792 14.3407L23.8119 10.6523H24.3947L25.4127 14.3407L25.5528 14.9751L25.6635 14.2743L26.4823 10.6819H27.1757L25.8995 15.9267H25.2725L24.1955 12.1055L24.107 11.7072L24.0258 12.1055L22.9046 15.9267H22.2776L21.0088 10.6819H21.7022L22.5284 14.2743Z" fill="#FF6647" fill-opacity="0.6"/>
<path d="M31.8011 14.267C31.7647 14.7563 31.5463 15.2143 31.1889 15.5505C30.8006 15.8661 30.3091 16.0264 29.8094 16.0005C29.5294 16.0082 29.2512 15.9524 28.9957 15.8375C28.7403 15.7225 28.5141 15.5513 28.3341 15.3366C27.9421 14.8265 27.7435 14.194 27.7735 13.5514V13.0498C27.7612 12.6056 27.8495 12.1643 28.0316 11.7589C28.188 11.4093 28.4448 11.114 28.7693 10.9106C29.1049 10.7082 29.4914 10.6058 29.8832 10.6155C30.3716 10.5917 30.8503 10.7583 31.2184 11.0803C31.5705 11.421 31.7812 11.8819 31.8085 12.3712H31.1151C31.0873 12.032 30.9501 11.711 30.7241 11.4565C30.4438 11.2419 30.0912 11.1443 29.7405 11.1842C29.3897 11.2241 29.0681 11.3984 28.8431 11.6704C28.5653 12.08 28.4329 12.5709 28.4669 13.0646V13.5736C28.4427 14.0516 28.5664 14.5255 28.8209 14.9309C28.9308 15.092 29.0799 15.2226 29.2541 15.3104C29.4283 15.3981 29.6219 15.4401 29.8168 15.4325C30.1333 15.4556 30.4475 15.3639 30.702 15.1743C30.9408 14.929 31.0868 14.6082 31.1151 14.267H31.8011Z" fill="#FF6647" fill-opacity="0.6"/>
<path d="M35.6367 14.5544H33.4237L32.9369 15.9265H32.1992L34.1983 10.6816H34.8032L36.8834 15.9265H36.1457L35.6367 14.5544ZM33.6524 14.0159H35.4081L34.5155 11.5595L33.6524 14.0159Z" fill="#FF6647" fill-opacity="0.6"/>
<path d="M41.5823 15.9265H40.8889L38.2481 11.884V15.9265H37.5547V10.6816H38.2481L40.8963 14.7536V10.6816H41.5823V15.9265Z" fill="#FF6647" fill-opacity="0.6"/>
<path d="M43.7072 10.6816L45.4186 14.9601L47.1374 10.6816H48.03V15.9265H47.3439V13.8831L47.403 11.6701L45.6842 15.9117H45.1531L43.4343 11.6775L43.5081 13.8905V15.9338H42.7852V10.6816H43.7072Z" fill="#FF6647" fill-opacity="0.6"/>
<path d="M52.5143 15.9256H49.0841V15.4462L50.8988 13.4323C51.1087 13.2066 51.2941 12.9593 51.452 12.6947C51.552 12.5139 51.6053 12.3111 51.6069 12.1045C51.6118 11.9805 51.5922 11.8567 51.5491 11.7402C51.5061 11.6238 51.4405 11.5169 51.3561 11.4259C51.2697 11.3388 51.1659 11.2709 51.0516 11.2264C50.9372 11.1819 50.8148 11.1619 50.6922 11.1677C50.5568 11.163 50.4218 11.1853 50.2951 11.2335C50.1685 11.2816 50.0527 11.3545 49.9546 11.448C49.8579 11.5544 49.7833 11.679 49.7351 11.8145C49.687 11.95 49.6663 12.0937 49.6743 12.2373H49.0104C48.994 12.0238 49.0223 11.8093 49.0934 11.6074C49.1645 11.4054 49.2769 11.2205 49.4235 11.0644C49.7646 10.7586 50.2125 10.5996 50.6701 10.6218C51.0896 10.5982 51.5027 10.7324 51.8283 10.998C51.9694 11.1279 52.0807 11.2868 52.1546 11.4638C52.2284 11.6408 52.2631 11.8317 52.2561 12.0234C52.1571 12.7363 51.8065 13.3904 51.2676 13.8675L49.8587 15.3945H52.4922L52.5143 15.9256Z" fill="#FF6647" fill-opacity="0.6"/>
<path d="M55.4132 15.9267H54.742V11.5007L53.3994 11.9949V11.39L55.31 10.6523H55.4132V15.9267Z" fill="#FF6647" fill-opacity="0.6"/>
<path d="M60.7542 11.0657L58.5412 15.9343H57.8036L59.9723 11.2427H57.2061V10.6895H60.7542V11.0657Z" fill="#FF6647" fill-opacity="0.6"/>
<path d="M64.059 13.624C63.9203 13.7862 63.7527 13.9212 63.5647 14.0223C63.3663 14.1237 63.1458 14.1744 62.923 14.1699C62.6448 14.1785 62.3706 14.1018 62.1373 13.9502C61.9039 13.7986 61.7225 13.5792 61.6173 13.3215C61.4913 13.0411 61.4283 12.7364 61.4329 12.429C61.4279 12.1009 61.4959 11.7759 61.632 11.4774C61.7537 11.212 61.9514 10.9886 62.2 10.8356C62.4593 10.6841 62.7555 10.6075 63.0557 10.6143C63.2909 10.6056 63.5248 10.6532 63.7378 10.7533C63.9509 10.8534 64.1369 11.003 64.2803 11.1897C64.6031 11.6533 64.7615 12.2116 64.7302 12.7757V12.9748C64.7923 13.7604 64.5784 14.543 64.1254 15.1878C63.8931 15.4353 63.6099 15.6294 63.2953 15.7567C62.9808 15.8841 62.6423 15.9417 62.3033 15.9255H62.1705V15.3575H62.3107C62.7724 15.3796 63.2255 15.2268 63.5795 14.9296C63.905 14.5745 64.0773 14.1054 64.059 13.624ZM63.0336 13.624C63.2566 13.6209 63.4731 13.5488 63.6532 13.4174C63.832 13.2857 63.9742 13.1105 64.0663 12.9084V12.6429C64.0818 12.2653 63.9814 11.8921 63.7786 11.5733C63.7022 11.4468 63.5937 11.3427 63.4642 11.2714C63.3347 11.2002 63.1887 11.1644 63.041 11.1675C62.9003 11.1584 62.7594 11.1839 62.6309 11.2417C62.5023 11.2996 62.3898 11.3881 62.3033 11.4995C62.1162 11.7583 62.0226 12.073 62.0378 12.3921C62.0238 12.7075 62.1146 13.0188 62.2959 13.2773C62.3774 13.395 62.4885 13.4891 62.6181 13.55C62.7476 13.6109 62.891 13.6364 63.0336 13.624Z" fill="#FF6647" fill-opacity="0.6"/>
<path d="M69.0384 11.0657L66.8254 15.9343H66.0877L68.2565 11.2427H65.4902V10.6895H69.0384V11.0657Z" fill="#FF6647" fill-opacity="0.6"/>
<path d="M71.9816 15.9267H71.3103V11.5007L69.9678 11.9949V11.39L71.8783 10.6523H71.9816V15.9267Z" fill="#FF6647" fill-opacity="0.6"/>
<path d="M74.2391 13.2789L74.5047 10.6602H77.1971V11.2798H75.0727L74.9104 12.7109C75.1764 12.5553 75.4801 12.4762 75.7882 12.4822C76.0007 12.4715 76.213 12.5083 76.4095 12.59C76.606 12.6716 76.7819 12.7961 76.9242 12.9543C77.2249 13.3121 77.378 13.7711 77.3521 14.2378C77.3782 14.7049 77.2191 15.1634 76.9095 15.514C76.7499 15.6738 76.5583 15.7979 76.3472 15.878C76.136 15.9581 75.9103 15.9925 75.6849 15.9787C75.2739 15.9972 74.871 15.8603 74.5563 15.5951C74.4055 15.4594 74.2834 15.2948 74.1973 15.1111C74.1111 14.9274 74.0627 14.7283 74.0547 14.5255H74.6817C74.7014 14.7843 74.8172 15.0264 75.0063 15.2042C75.1949 15.3645 75.4378 15.4464 75.6849 15.4329C75.8241 15.4413 75.9633 15.417 76.0914 15.3619C76.2196 15.3068 76.333 15.2225 76.4226 15.1157C76.6126 14.8668 76.7069 14.5578 76.6882 14.2452C76.7036 13.9362 76.6007 13.6328 76.4005 13.3969C76.3081 13.2935 76.1942 13.2115 76.0667 13.1567C75.9393 13.1019 75.8014 13.0756 75.6628 13.0797C75.4194 13.0679 75.1787 13.1352 74.9768 13.2715L74.7997 13.4117L74.2391 13.2789Z" fill="#FF6647" fill-opacity="0.6"/>
<path d="M0 0H2.00645V6.25542C1.35731 6.25542 0.671277 6.25542 0 6.25542V0Z" fill="#FF6647" fill-opacity="0.6"/>
<path d="M102.292 6.26279H98.4492V0H102.27H102.307V6.17427C102.307 6.17427 102.307 6.24066 102.292 6.26279Z" fill="#FF6647" fill-opacity="0.6"/>
<path d="M82.5521 0H86.3511C86.4543 0.11065 86.4986 5.98986 86.3953 6.25542H82.6185H82.5447H82.5078C82.5078 4.18995 82.5078 2.1294 82.5078 0.0737667C82.5078 0.0737667 82.5373 0 82.5521 0Z" fill="#FF6647" fill-opacity="0.6"/>
<path d="M72.5864 6.26279H69.7316C69.5856 4.17835 69.5635 2.08707 69.6652 0C70.1226 0 70.5947 0 71.0594 0H72.5347H72.5716V6.15214C72.5811 6.18827 72.5861 6.22544 72.5864 6.26279Z" fill="#FF6647" fill-opacity="0.6"/>
<path d="M11.0646 0H13.9563V6.26279C13.5063 6.26279 13.0342 6.26279 12.5695 6.26279H11.1679H11.0868H11.0499V0.0811434C11.0499 0.0811434 11.013 0 11.0646 0Z" fill="#FF6647" fill-opacity="0.6"/>
<path d="M45.8244 0H48.6866C48.8255 2.08231 48.8452 4.17086 48.7456 6.25542C48.2956 6.25542 47.8161 6.25542 47.3514 6.25542H45.9498H45.8687H45.8318C45.8318 4.2047 45.8318 2.15399 45.8318 0.103273C45.8259 0.069183 45.8234 0.0345847 45.8244 0V0Z" fill="#FF6647" fill-opacity="0.6"/>
<path d="M81.4832 6.26279H78.6284C78.4852 4.17819 78.4655 2.08693 78.5694 0C79.0194 0 79.4989 0 79.9636 0H81.439V6.15214C81.4586 6.1869 81.4734 6.22411 81.4832 6.26279Z" fill="#FF6647" fill-opacity="0.6"/>
<path d="M93.3882 6.26279H90.5039V0H93.3734V6.17427C93.3734 6.17427 93.4029 6.24066 93.3882 6.26279Z" fill="#FF6647" fill-opacity="0.6"/>
<path d="M129.166 6.26279H126.311C126.164 4.17834 126.144 2.08686 126.252 0C126.702 0 127.174 0 127.639 0H129.114V6.15214C129.136 6.18651 129.154 6.22374 129.166 6.26279Z" fill="#FF6647" fill-opacity="0.6"/>
<path d="M136.254 0H139.109C139.251 2.08217 139.271 4.17093 139.168 6.25542C138.718 6.25542 138.246 6.25542 137.781 6.25542H136.379H136.291V0.103273C136.275 0.0702557 136.263 0.0356361 136.254 0V0Z" fill="#FF6647" fill-opacity="0.6"/>
<path d="M56.8008 0H59.4859C59.6388 2.0817 59.661 4.17094 59.5523 6.25542C59.1023 6.25542 58.6302 6.25542 58.1655 6.25542H56.8008V0Z" fill="#FF6647" fill-opacity="0.6"/>
<path d="M114.22 6.26279H111.528C111.385 4.17819 111.365 2.08693 111.469 0C111.897 0 112.339 0 112.782 0H114.191V6.15214C114.21 6.1858 114.22 6.22396 114.22 6.26279Z" fill="#FF6647" fill-opacity="0.6"/>
<path d="M38.8379 0H40.7263C40.8791 2.07924 40.9013 4.16602 40.7927 6.24804C40.1583 6.24804 39.5092 6.24804 38.8379 6.24804V0Z" fill="#FF6647" fill-opacity="0.6"/>
<path d="M53.6142 6.26279H51.77C51.6228 4.17834 51.6031 2.08685 51.711 0C52.3232 0 52.9503 0 53.5551 0H53.6363H53.6732V6.13739C53.6732 6.13739 53.7322 6.22591 53.6142 6.26279Z" fill="#FF6647" fill-opacity="0.6"/>
<path d="M97.3715 6.26279H95.5938V0H97.3715V6.17427C97.3715 6.17427 97.3715 6.24066 97.3715 6.26279Z" fill="#FF6647" fill-opacity="0.6"/>
<path d="M18.9804 0H20.7508V6.25542C20.5 6.25542 20.2049 6.25542 19.9246 6.25542H19.0763H18.9951H18.9582C18.9582 4.18995 18.9582 2.1294 18.9582 0.0737667C18.9565 0.0473211 18.9644 0.0211456 18.9804 0V0Z" fill="#FF6647" fill-opacity="0.6"/>
<path d="M29.9346 0H31.7197V6.26279C31.1665 6.26279 30.5911 6.26279 30.0305 6.26279H29.9641V0.0958967C29.9459 0.0671157 29.9357 0.0340175 29.9346 0V0Z" fill="#FF6647" fill-opacity="0.6"/>
<path d="M62.5536 6.26279H60.7832V0H62.5388C62.5388 2.06055 62.5388 4.11864 62.5388 6.17427C62.5388 6.17427 62.5684 6.24066 62.5536 6.26279Z" fill="#FF6647" fill-opacity="0.6"/>
<path d="M67.5183 6.26279H65.7553C65.6082 4.17834 65.5885 2.08685 65.6963 0C66.2569 0 66.8323 0 67.3855 0H67.4593V6.13739L67.5183 6.26279Z" fill="#FF6647" fill-opacity="0.6"/>
<path d="M116.404 0H118.181V6.25542C117.923 6.25542 117.628 6.25542 117.348 6.25542H116.499H116.418V0.0737667C116.418 0.0737667 116.389 0 116.404 0Z" fill="#FF6647" fill-opacity="0.6"/>
<path d="M122.157 0V6.26279H120.439C120.309 4.17966 120.309 2.09051 120.439 0.00737667L122.157 0Z" fill="#FF6647" fill-opacity="0.6"/>
<path d="M131.342 0H133.119V6.26279H131.43H131.364H131.305V0.0811434C131.305 0.0811434 131.305 0 131.342 0Z" fill="#FF6647" fill-opacity="0.6"/>
<path d="M144.088 6.26279H142.311V0H144.074H144.11C144.11 2.05809 144.11 4.11618 144.11 6.17427C144.125 6.22591 144.103 6.24066 144.088 6.26279Z" fill="#FF6647" fill-opacity="0.6"/>
<path d="M32.8039 0H33.785V6.25542C33.6402 6.26713 33.4946 6.26713 33.3498 6.25542H32.8998H32.8187V0.0811434C32.8187 0.0811434 32.7892 0 32.8039 0Z" fill="#FF6647" fill-opacity="0.6"/>
<path d="M43.7737 0H44.7548V6.26279C44.4671 6.26279 44.1499 6.26279 43.8474 6.26279H43.7884C43.7884 4.19733 43.7884 2.13678 43.7884 0.0811434C43.7884 0.0811434 43.7589 0 43.7737 0Z" fill="#FF6647" fill-opacity="0.6"/>
<path d="M88.4763 6.26279H87.4805V0C87.7608 0 88.078 0 88.3731 0H88.4468C88.4468 2.05071 88.4468 4.10881 88.4468 6.1669C88.459 6.19809 88.4689 6.23014 88.4763 6.26279Z" fill="#FF6647" fill-opacity="0.6"/>
<path d="M74.5933 0C74.9179 0 75.1539 0 75.4269 0V6.25542C75.2056 6.25542 74.94 6.25542 74.6892 6.25542H74.5859V0.0885201C74.5859 0.0885201 74.5859 0.0368834 74.5933 0Z" fill="#FF6647" fill-opacity="0.6"/>
<path d="M103.532 0C103.842 0 104.078 0 104.351 0V6.25542C104.129 6.25542 103.864 6.25542 103.613 6.25542H103.51C103.51 4.18995 103.51 2.13186 103.51 0.0737667C103.495 0.0516367 103.517 0 103.532 0Z" fill="#FF6647" fill-opacity="0.6"/>
<path d="M105.428 0H106.224C106.37 2.07955 106.392 4.16587 106.291 6.24804C106.008 6.26301 105.725 6.26301 105.442 6.24804L105.428 0Z" fill="#FF6647" fill-opacity="0.6"/>
<path d="M110.237 6.26279H109.411V0C109.64 0 109.905 0 110.149 0H110.208H110.245V6.17427C110.245 6.17427 110.252 6.24066 110.237 6.26279Z" fill="#FF6647" fill-opacity="0.6"/>
<path d="M3.91755 6.25542C3.63989 6.27027 3.36164 6.27027 3.08398 6.25542V0C3.31266 0 3.57822 0 3.82165 0H3.88804V6.17427C3.88804 6.17427 3.92493 6.24066 3.91755 6.25542Z" fill="#FF6647" fill-opacity="0.6"/>
<path d="M6.9341 6.26279C6.6169 6.26279 6.38822 6.26279 6.15217 6.26279C6.01256 4.17805 5.99285 2.087 6.09316 0C6.35872 0 6.63903 0 6.9341 0V6.26279Z" fill="#FF6647" fill-opacity="0.6"/>
<path d="M15.8379 6.26279H15.0117V0C15.233 0 15.4986 0 15.7494 0H15.8158H15.8527V6.1669C15.8547 6.19955 15.8496 6.23225 15.8379 6.26279Z" fill="#FF6647" fill-opacity="0.6"/>
<path d="M125.189 6.26197H124.4C124.257 4.17738 124.237 2.0861 124.341 -0.000822782C124.587 -0.0153507 124.833 -0.0153507 125.079 -0.000822782H125.145H125.182C125.182 2.04989 125.182 4.10061 125.182 6.15132C125.189 6.18776 125.192 6.22492 125.189 6.26197Z" fill="#FF6647" fill-opacity="0.6"/>
<path d="M26.0174 0C26.283 0 26.519 0 26.7551 0C26.8903 2.07752 26.91 4.16095 26.8141 6.24066C26.5781 6.24066 26.3125 6.24066 26.0764 6.24066H25.9879C25.9879 4.18995 25.9879 2.13923 25.9879 0.0885201C25.9879 0.0885201 25.8994 0.04426 26.0174 0Z" fill="#FF6647" fill-opacity="0.6"/>
<path d="M34.8698 0C35.1428 0 35.401 0 35.696 0V6.25542C35.4673 6.25542 35.2018 6.25542 34.9584 6.25542H34.8698V0.0737667C34.8698 0.0737667 34.8551 0 34.8698 0Z" fill="#FF6647" fill-opacity="0.6"/>
<path d="M21.9902 0H22.7722C22.9313 2.08125 22.9633 4.17027 22.8681 6.25542C22.6099 6.25542 22.3296 6.25542 22.0271 6.25542L21.9902 0Z" fill="#FF6647" fill-opacity="0.6"/>
<path d="M141.079 6.26279H140.297C140.143 4.17866 140.121 2.08692 140.23 0C140.496 0 140.769 0 141.079 0V6.26279Z" fill="#FF6647" fill-opacity="0.6"/>
<path d="M54.7275 0H55.5095C55.6623 2.07924 55.6845 4.16602 55.5759 6.24804C55.2933 6.26301 55.0101 6.26301 54.7275 6.24804V0Z" fill="#FF6647" fill-opacity="0.6"/>
<path d="M77.4992 6.26279H76.7615C76.5956 4.17944 76.5611 2.0877 76.6583 0C76.9165 0 77.1968 0 77.4992 0V6.26279Z" fill="#FF6647" fill-opacity="0.6"/>
</g>
<defs>
<clipPath id="clip0_2609_44703">
<rect width="144.125" height="16" fill="white"/>
</clipPath>
</defs>
</svg>
