<svg width="28" height="28" viewBox="0 0 28 28" fill="none" xmlns="http://www.w3.org/2000/svg">
<g clip-path="url(#clip0_6448_28703)">
<path d="M4.61786 9.31028C6.34162 5.8677 9.89286 3.50185 14.0022 3.50185C18.1116 3.50185 21.6628 5.8677 23.3866 9.31028L26.523 7.73964C24.2263 3.15117 19.4797 0 14.0022 0C8.52472 0 3.7782 3.15117 1.47656 7.73964L4.61292 9.31028H4.61786Z" fill="#F9F9F9" fill-opacity="0.8"/>
<path d="M23.3865 18.6953C21.6628 22.1379 18.1115 24.5037 14.0022 24.5037C9.89281 24.5037 6.34156 22.1379 4.6178 18.6953L1.48145 20.266C3.77815 24.8544 8.52466 28.0056 14.0022 28.0056C19.4797 28.0056 24.2262 24.8544 26.5229 20.266L23.3865 18.6953Z" fill="#F9F9F9" fill-opacity="0.8"/>
</g>
<defs>
<clipPath id="clip0_6448_28703">
<rect width="28" height="28" fill="white"/>
</clipPath>
</defs>
</svg>
