<svg width="24" height="24" viewBox="0 0 24 24" xmlns="http://www.w3.org/2000/svg">
<g clip-path="url(#clip0_6375_379615)">
<path d="M12 15.75C11.7775 15.75 11.56 15.816 11.375 15.9396C11.19 16.0632 11.0458 16.2389 10.9606 16.4445C10.8755 16.65 10.8532 16.8762 10.8966 17.0945C10.94 17.3127 11.0472 17.5132 11.2045 17.6705C11.3618 17.8278 11.5623 17.935 11.7805 17.9784C11.9988 18.0218 12.225 17.9995 12.4305 17.9144C12.6361 17.8292 12.8118 17.685 12.9354 17.5C13.059 17.315 13.125 17.0975 13.125 16.875C13.125 16.5766 13.0065 16.2905 12.7955 16.0795C12.5845 15.8685 12.2984 15.75 12 15.75Z" />
<path d="M12.75 6H11.25V13.5H12.75V6Z" />
<path d="M2.25 17.25L2.25 6.75003C2.24999 6.61894 2.28435 6.49015 2.34963 6.37648C2.41491 6.26281 2.50885 6.16823 2.62207 6.10218L11.6221 0.852178C11.7368 0.78526 11.8672 0.75 12 0.75C12.1328 0.75 12.2632 0.78526 12.3779 0.852178L21.3779 6.10218C21.4912 6.16823 21.5851 6.26281 21.6504 6.37648C21.7157 6.49015 21.75 6.61894 21.75 6.75003L21.75 17.25C21.75 17.3811 21.7157 17.5099 21.6504 17.6236C21.5851 17.7372 21.4911 17.8318 21.3779 17.8979L12.3779 23.1479C12.2632 23.2148 12.1328 23.2501 12 23.2501C11.8672 23.2501 11.7368 23.2148 11.6221 23.1479L2.62207 17.8979C2.50885 17.8318 2.41491 17.7372 2.34963 17.6236C2.28434 17.5099 2.24999 17.3811 2.25 17.25ZM3.75 7.18068L3.75 16.8194L12 21.6318L20.25 16.8194L20.25 7.18068L12 2.3683L3.75 7.18068Z"/>
</g>
<defs>
<clipPath id="clip0_6375_379615">
<rect width="24" height="24"/>
</clipPath>
</defs>
</svg>
