<svg viewBox="0 0 126 120" preserveAspectRatio="xMinYMin meet" fill="none" xmlns="http://www.w3.org/2000/svg">
<path d="M104.032 34.6096V11.5321L84.0364 0L64.041 11.5321V34.6096L84.0364 46.1417L104.032 34.6096Z" fill="#00FFB6"/>
<path opacity="0.2" d="M125.401 71.4573V48.3797L105.406 36.8477L85.4238 48.3797V71.4573L105.406 83.0027L125.401 71.4573Z" fill="#00FFB6"/>
<path opacity="0.2" d="M61.2802 34.6096V11.5321L41.2848 0L21.3027 11.5321V34.6096L41.2848 46.1417L61.2802 34.6096Z" fill="#00FFB6"/>
<path opacity="0.1" d="M82.6494 71.4573V48.3797L62.6673 36.8477L42.6719 48.3797V71.4573L62.6673 83.0027L82.6494 71.4573Z" fill="#00FFB6"/>
<path opacity="0.3" d="M39.9775 71.4573V48.3797L19.9954 36.8477L0 48.3797V71.4573L19.9954 83.0027L39.9775 71.4573Z" fill="#00FFB6"/>
<path opacity="0.2" d="M61.2802 108.282V85.204L41.2848 73.6719L21.3027 85.204V108.282L41.2848 119.814L61.2802 108.282Z" fill="#00FFB6"/>
<path opacity="0.1" d="M104.032 108.282V85.204L84.0364 73.6719L64.041 85.204V108.282L84.0364 119.814L104.032 108.282Z" fill="#00FFB6"/>
</svg>
