<svg width="264" height="16" viewBox="0 0 264 16" fill="none" xmlns="http://www.w3.org/2000/svg">
<rect width="264" height="16" fill="#00EF91"/>
<rect x="156.051" y="2.19531" width="76.4808" height="12.0759" rx="6.03796" fill="#020202"/>
<path d="M164.125 10.764H165.756L165.706 6.60302L168.127 10.764H169.475L171.937 6.60302L171.854 10.764H173.502V5.37492H170.839L168.826 8.95418L166.804 5.37492H164.125V10.764Z" fill="#00EF91"/>
<path d="M174.864 10.764H176.553V5.37492H174.864V10.764Z" fill="#00EF91"/>
<path d="M177.917 10.764H179.54L179.498 6.70805L182.809 10.764H185.522V5.37492H183.924L183.966 9.47128L180.605 5.37492H177.917V10.764Z" fill="#00EF91"/>
<path d="M188.979 10.764H190.668V6.70805H193.139V5.37492H186.508V6.70805H188.979V10.764Z" fill="#00EF91"/>
<path d="M195.989 10.764H197.612L197.57 6.70805L200.881 10.764H203.594V5.37492H201.996L202.038 9.47128L198.677 5.37492H195.989V10.764Z" fill="#00EF91"/>
<path d="M208.493 5.31836C207.029 5.31836 206.522 5.35068 206.056 5.47995C205.432 5.6577 205.107 5.96473 204.949 6.53838C204.849 6.90196 204.833 7.12819 204.833 8.03311C204.833 9.21273 204.883 9.60863 205.099 10.0045C205.307 10.4004 205.665 10.6267 206.28 10.7317C206.613 10.7963 207.287 10.8206 208.61 10.8206C209.151 10.8206 209.891 10.8125 210.191 10.7963C210.998 10.764 211.464 10.6347 211.796 10.36C212.271 9.98029 212.412 9.45512 212.412 8.1543C212.412 7.49985 212.395 7.06355 212.362 6.84541C212.246 5.98089 211.83 5.55267 210.973 5.39916C210.582 5.33452 210.091 5.31836 208.493 5.31836ZM208.626 6.63534C210.706 6.63534 210.731 6.65149 210.731 8.00887C210.731 8.72795 210.69 9.00266 210.532 9.19657C210.34 9.45512 210.041 9.5036 208.585 9.5036C207.312 9.5036 207.037 9.47128 206.813 9.29353C206.605 9.12386 206.538 8.83299 206.538 8.04119C206.538 7.26555 206.605 6.99892 206.829 6.82925C207.046 6.67573 207.387 6.63534 208.626 6.63534Z" fill="#00EF91"/>
<path d="M213.085 5.37492L215.323 10.764H217.569L218.859 6.8858L220.09 10.764H222.353L224.649 5.37492H222.935L221.271 9.47936L219.882 5.37492H217.844L216.413 9.47936L214.799 5.37492H213.085Z" fill="#00EF91"/>
<path d="M39.1577 9.03534C39.1577 9.56229 39.037 9.79283 38.7186 9.92457C38.4112 10.0563 38.1697 10.0673 36.512 10.0673C34.3713 10.0673 34.2066 9.93554 34.2066 8.17905C34.2066 6.99341 34.2615 6.697 34.525 6.45548C34.7994 6.21397 35.1288 6.17005 36.9511 6.17005C38.8833 6.17005 39.0479 6.23592 39.0919 7.03732H41.2216V6.79581C41.2216 5.71995 40.9472 5.07224 40.3543 4.77583C39.7286 4.46845 39.1358 4.41356 36.4022 4.41356C34.3493 4.41356 33.6467 4.51236 32.988 4.89659C32.2196 5.33572 32 6.02734 32 7.95948C32 10.1331 32.2086 10.9016 32.9331 11.3627C33.526 11.7469 34.2066 11.8457 36.3144 11.8457C37.7745 11.8457 38.6527 11.8348 39.1028 11.7908C40.2446 11.714 40.8374 11.4176 41.1228 10.7918C41.2765 10.4625 41.3094 10.1002 41.3204 9.03534H39.1577Z" fill="black"/>
<path d="M42.1009 11.7908H44.6258L45.3284 10.4844H50.049L50.7736 11.7908H53.2107L49.2037 4.46845H46.2177L42.1009 11.7908ZM46.1298 8.95849L47.6887 6.03832L49.2696 8.95849H46.1298Z" fill="black"/>
<path d="M54.1262 11.7908H56.3438V9.94652H59.758C60.757 9.92457 60.9765 10.0892 60.9875 10.8797V11.7908H63.249V10.6381C63.271 9.52935 62.9965 9.14512 62.0853 8.99143C63.0185 8.78284 63.3478 8.24492 63.3478 6.88363C63.3478 5.8956 63.1502 5.26985 62.722 4.92953C62.3049 4.57823 61.734 4.46845 60.4386 4.46845H54.1262V11.7908ZM56.3438 8.15709V6.26886H59.9007C60.5703 6.26886 60.757 6.30179 60.9216 6.47744C61.0644 6.63113 61.1083 6.82874 61.1083 7.3008C61.1083 8.02535 60.8997 8.15709 59.8238 8.15709H56.3438Z" fill="black"/>
<path d="M74.3913 6.9495C74.4022 5.41257 74.04 4.8417 72.9092 4.55627C72.4481 4.44649 71.8114 4.41356 69.8134 4.41356C68.4192 4.41356 67.5299 4.44649 67.0249 4.51236C66.0808 4.6441 65.5649 4.94051 65.2355 5.51137C64.9501 6.02734 64.8623 6.65309 64.8623 8.22296C64.8623 9.58424 64.9172 10.1002 65.1367 10.5942C65.3892 11.198 65.8613 11.5383 66.6627 11.714C67.1237 11.8128 67.7715 11.8457 69.4511 11.8457C71.6138 11.8457 72.2835 11.8348 72.514 11.8128C73.4362 11.714 73.9521 11.3847 74.2046 10.704C74.3473 10.3088 74.3913 9.88065 74.3913 8.67306V7.66308H69.3962V9.02436H72.2176V9.20001C72.2176 9.41957 72.2066 9.51838 72.1847 9.6062C71.998 10.0892 71.7236 10.1661 70.2635 10.1551C68.8912 10.1551 68.8912 10.1551 68.6497 10.1441C68.0679 10.1331 67.7605 10.0673 67.508 9.90261C67.2006 9.69402 67.1018 9.29881 67.1018 8.31078C67.1018 7.83873 67.1237 7.16906 67.1567 6.97146C67.2116 6.51038 67.3872 6.30179 67.7934 6.20299C68.0569 6.13712 68.0569 6.13712 69.1218 6.13712L69.9341 6.12614L70.7246 6.13712H71.2845C71.9541 6.15908 72.2066 6.37864 72.2066 6.9495H74.3913Z" fill="black"/>
<path d="M80.7218 4.3916C78.7896 4.3916 78.12 4.43551 77.5052 4.61116C76.6818 4.85268 76.2537 5.26985 76.0451 6.0493C75.9134 6.54331 75.8914 6.8507 75.8914 8.08024C75.8914 9.68305 75.9573 10.221 76.2427 10.7589C76.5171 11.2968 76.9892 11.6042 77.8016 11.7469C78.2407 11.8348 79.1299 11.8677 80.8755 11.8677C81.589 11.8677 82.5661 11.8567 82.9613 11.8348C84.0262 11.7908 84.6409 11.6152 85.0801 11.2419C85.7058 10.726 85.8924 10.0124 85.8924 8.24492C85.8924 7.35569 85.8705 6.76287 85.8266 6.46646C85.6729 5.29181 85.124 4.70997 83.9932 4.50138C83.4773 4.41356 82.8296 4.3916 80.7218 4.3916ZM80.8974 6.18103C83.6419 6.18103 83.6749 6.20299 83.6749 8.04731C83.6749 9.02436 83.62 9.39762 83.4114 9.66109C83.1589 10.0124 82.7637 10.0783 80.8425 10.0783C79.1629 10.0783 78.8006 10.0343 78.5042 9.79283C78.2297 9.56229 78.1419 9.16708 78.1419 8.09122C78.1419 7.03732 78.2297 6.67505 78.5261 6.44451C78.8116 6.23592 79.2617 6.18103 80.8974 6.18103Z" fill="black"/>
<path d="M90.17 11.7908H96.7898C97.5692 11.7908 97.8985 11.7689 98.3157 11.6811C99.1171 11.5274 99.7319 10.8467 99.8526 9.96848C99.9185 9.55131 99.9624 8.79382 99.9624 8.13513C99.9624 7.78384 99.9405 7.27884 99.9185 6.93852C99.8417 6.00538 99.677 5.5443 99.2708 5.14909C98.7658 4.6441 98.0413 4.46845 96.4933 4.46845H90.17V11.7908ZM92.3985 10.0453V6.29081H96.175C97.4594 6.29081 97.7229 6.60918 97.7229 8.14611C97.7229 9.40859 97.5802 9.79283 97.0422 9.9575C96.7788 10.0453 96.7349 10.0453 96.1311 10.0453H92.3985Z" fill="black"/>
<path d="M101.617 11.7908H103.835V9.94652H107.249C108.248 9.92457 108.468 10.0892 108.479 10.8797V11.7908H110.74V10.6381C110.762 9.52935 110.488 9.14512 109.576 8.99143C110.509 8.78284 110.839 8.24492 110.839 6.88363C110.839 5.8956 110.641 5.26985 110.213 4.92953C109.796 4.57823 109.225 4.46845 107.93 4.46845H101.617V11.7908ZM103.835 8.15709V6.26886H107.392C108.061 6.26886 108.248 6.30179 108.413 6.47744C108.555 6.63113 108.599 6.82874 108.599 7.3008C108.599 8.02535 108.391 8.15709 107.315 8.15709H103.835Z" fill="black"/>
<path d="M117.194 4.3916C115.262 4.3916 114.593 4.43551 113.978 4.61116C113.154 4.85268 112.726 5.26985 112.518 6.0493C112.386 6.54331 112.364 6.8507 112.364 8.08024C112.364 9.68305 112.43 10.221 112.715 10.7589C112.99 11.2968 113.462 11.6042 114.274 11.7469C114.713 11.8348 115.603 11.8677 117.348 11.8677C118.062 11.8677 119.039 11.8567 119.434 11.8348C120.499 11.7908 121.114 11.6152 121.553 11.2419C122.178 10.726 122.365 10.0124 122.365 8.24492C122.365 7.35569 122.343 6.76287 122.299 6.46646C122.145 5.29181 121.597 4.70997 120.466 4.50138C119.95 4.41356 119.302 4.3916 117.194 4.3916ZM117.37 6.18103C120.115 6.18103 120.147 6.20299 120.147 8.04731C120.147 9.02436 120.093 9.39762 119.884 9.66109C119.632 10.0124 119.236 10.0783 117.315 10.0783C115.635 10.0783 115.273 10.0343 114.977 9.79283C114.702 9.56229 114.615 9.16708 114.615 8.09122C114.615 7.03732 114.702 6.67505 114.999 6.44451C115.284 6.23592 115.734 6.18103 117.37 6.18103Z" fill="black"/>
<path d="M124.008 11.7908H126.225V9.99043H129.804C131.078 9.99043 131.572 9.91359 132 9.65011C132.604 9.27686 132.856 8.5523 132.856 7.15808C132.856 5.77484 132.582 5.10518 131.846 4.7429C131.385 4.51236 131.023 4.46845 129.607 4.46845H124.008V11.7908ZM126.225 8.21198V6.2469H129.464C130.419 6.2469 130.639 6.44451 130.639 7.32275C130.639 8.01438 130.375 8.21198 129.464 8.21198H126.225Z" fill="black"/>
<path d="M138.973 6.92754C138.962 6.81776 138.951 6.71896 138.951 6.64211C138.951 6.3457 139.094 6.1481 139.369 6.0493C139.621 5.95049 139.621 5.95049 141.18 5.92854C142.695 5.97245 142.695 5.97245 142.958 6.07125C143.2 6.17005 143.332 6.38962 143.332 6.697C143.332 7.00439 143.233 7.19102 143.035 7.3008C142.904 7.36667 142.464 7.42156 142.003 7.42156H140.357V8.8048H142.102C142.706 8.8048 143.002 8.83773 143.156 8.91458C143.376 9.02436 143.496 9.2549 143.496 9.58424C143.496 9.94652 143.365 10.1661 143.079 10.2429C142.86 10.2978 142.267 10.3308 141.158 10.3308C138.984 10.3308 138.864 10.2759 138.864 9.21099H136.844C136.833 9.39762 136.822 9.6062 136.822 9.67207C136.822 10.6162 137.096 11.22 137.645 11.5164C138.15 11.7689 138.743 11.8238 141.246 11.8238C143.167 11.8238 143.881 11.7908 144.386 11.6591C145.209 11.4615 145.593 10.8797 145.593 9.82576C145.593 8.67306 145.396 8.38763 144.375 8.11318C145.231 7.89362 145.439 7.57525 145.439 6.4994C145.439 4.7429 144.836 4.43551 141.356 4.43551C140.433 4.43551 139.753 4.44649 139.281 4.4904C138.337 4.54529 137.777 4.72094 137.425 5.02833C137.041 5.36865 136.953 5.66506 136.909 6.92754H138.973Z" fill="black"/>
</svg>
