<?xml version="1.0" encoding="UTF-8"?>
<svg viewBox="0 0 20 22" preserveAspectRatio="xMinYMin meet" version="1.1" xmlns="http://www.w3.org/2000/svg" xmlns:xlink="http://www.w3.org/1999/xlink">
    <title>notification</title>
    <g id="Page-1" stroke="none" stroke-width="1" fill="none" fill-rule="evenodd">
        <g id="notification" transform="translate(0.440432, 0.000000)" fill="#FF6647" fill-rule="nonzero">
            <path d="M19.2803,13.7197 L17.25,11.6894 L17.25,9 C17.2476,7.14146 16.5561,5.34983 15.3093,3.97154 C14.0626,2.59326 12.349,1.72622 10.5,1.5381 L10.5,0 L9,0 L9,1.5381 C7.15101,1.72622 5.43744,2.59326 4.19065,3.97154 C2.94386,5.34983 2.25241,7.14146 2.25,9 L2.25,11.6894 L0.21968,13.7197 C0.07904,13.8604 0,14.0511 0,14.25 L0,16.5 C0,16.6989 0.07902,16.8897 0.21967,17.0303 C0.36032,17.171 0.55109,17.25 0.75,17.25 L6,17.25 L6,17.8326 C5.98374,18.784 6.31913,19.708 6.94191,20.4275 C7.56469,21.147 8.4311,21.6113 9.375,21.7316 C9.8964,21.7834 10.4228,21.7254 10.9204,21.5615 C11.418,21.3975 11.8758,21.1313 12.2643,20.7798 C12.6529,20.4283 12.9635,19.9994 13.1763,19.5207 C13.3891,19.0419 13.4994,18.5239 13.5,18 L13.5,17.25 L18.75,17.25 C18.9489,17.25 19.1397,17.171 19.2803,17.0303 C19.421,16.8897 19.5,16.6989 19.5,16.5 L19.5,14.25 C19.5,14.0511 19.421,13.8604 19.2803,13.7197 Z M12,18 C12,18.5967 11.7629,19.169 11.341,19.591 C10.919,20.0129 10.3467,20.25 9.75,20.25 C9.1533,20.25 8.581,20.0129 8.159,19.591 C7.73705,19.169 7.5,18.5967 7.5,18 L7.5,17.25 L12,17.25 L12,18 Z M18,15.75 L1.5,15.75 L1.5,14.5606 L3.53025,12.5302 C3.67091,12.3896 3.74996,12.1989 3.75,12 L3.75,9 C3.75,7.4087 4.38214,5.88258 5.50736,4.75736 C6.63258,3.63214 8.1587,3 9.75,3 C11.3413,3 12.8674,3.63214 13.9926,4.75736 C15.1179,5.88258 15.75,7.4087 15.75,9 L15.75,12 C15.75,12.1989 15.8291,12.3896 15.9697,12.5302 L18,14.5606 L18,15.75 Z" id="Shape"></path>
        </g>
    </g>
</svg>