<?xml version="1.0" encoding="UTF-8"?>
<svg viewBox="0 0 21 21" preserveAspectRatio="xMinYMin meet" version="1.1" xmlns="http://www.w3.org/2000/svg" xmlns:xlink="http://www.w3.org/1999/xlink">
    <title>settings</title>
    <g id="Page-1" stroke="none" stroke-width="1" fill-rule="evenodd">
        <g id="settings" transform="translate(-0.000000, 0.000000)" fill-rule="nonzero">
            <path d="M18.4403319,11.0403052 C18.4403319,10.8528052 18.4403319,10.6653052 18.4403319,10.4703052 C18.4403319,10.2753052 18.4403319,10.0878052 18.4403319,9.89280515 L19.8803319,8.63280515 C20.1458319,8.39881515 20.3200319,8.07854515 20.3721319,7.72857515 C20.4243319,7.37860515 20.3510319,7.02146515 20.1653319,6.72027515 L18.3953319,3.72027515 C18.2638319,3.49247515 18.0747319,3.30326515 17.8470319,3.17162515 C17.6192319,3.03998515 17.3609319,2.97054515 17.0978319,2.97027515 C16.9348319,2.96902515 16.7727319,2.99436515 16.6178319,3.04527515 L14.7953319,3.66027515 C14.4807319,3.45118515 14.1525319,3.26326515 13.8128319,3.09777515 L13.4303319,1.20777515 C13.3618319,0.862485155 13.1739319,0.552305155 12.8997319,0.331555155 C12.6255319,0.110805155 12.2823319,-0.00646484504 11.9303319,0.00027515496 L8.42033191,0.00027515496 C8.06840191,-0.00646484504 7.72526191,0.110805155 7.45103191,0.331555155 C7.17681191,0.552305155 6.98896191,0.862485155 6.92038191,1.20777515 L6.53788191,3.09777515 C6.19583191,3.26322515 5.86510191,3.45113515 5.54788191,3.66027515 L3.76288191,3.01527515 C3.60635191,2.97449515 3.44426191,2.95929515 3.28288191,2.97027515 C3.01983191,2.97054515 2.76148191,3.03998515 2.53375191,3.17162515 C2.30601191,3.30326515 2.11690191,3.49247515 1.98538191,3.72027515 L0.215381908,6.72027515 C0.0403219084,7.02101515 -0.0247380916,7.37327515 0.0313619084,7.71670515 C0.0874619084,8.06013515 0.261221908,8.37337515 0.522881908,8.60280515 L1.94038191,9.90030515 C1.94038191,10.0878052 1.94038191,10.2753052 1.94038191,10.4703052 C1.94038191,10.6653052 1.94038191,10.8528052 1.94038191,11.0478052 L0.522881908,12.3078052 C0.253831908,12.5388052 0.0753219084,12.8576052 0.0190219084,13.2077052 C-0.0372680916,13.5578052 0.0323019084,13.9166052 0.215381908,14.2203052 L1.98538191,17.2203052 C2.11690191,17.4481052 2.30601191,17.6373052 2.53375191,17.7689052 C2.76148191,17.9006052 3.01983191,17.9700052 3.28288191,17.9703052 C3.44589191,17.9715052 3.60801191,17.9462052 3.76288191,17.8953052 L5.58538191,17.2803052 C5.90003191,17.4894052 6.22826191,17.6773052 6.56788191,17.8428052 L6.95038191,19.7328052 C7.01896191,20.0781052 7.20681191,20.3882052 7.48103191,20.6090052 C7.75526191,20.8298052 8.09840191,20.9470052 8.45033191,20.9403052 L11.9903319,20.9403052 C12.3423319,20.9470052 12.6855319,20.8298052 12.9597319,20.6090052 C13.2339319,20.3882052 13.4218319,20.0781052 13.4903319,19.7328052 L13.8728319,17.8428052 C14.2149319,17.6773052 14.5456319,17.4894052 14.8628319,17.2803052 L16.6778319,17.8953052 C16.8327319,17.9462052 16.9948319,17.9715052 17.1578319,17.9703052 C17.4209319,17.9700052 17.6792319,17.9006052 17.9070319,17.7689052 C18.1347319,17.6373052 18.3238319,17.4481052 18.4553319,17.2203052 L20.1653319,14.2203052 C20.3404319,13.9195052 20.4055319,13.5673052 20.3494319,13.2239052 C20.2933319,12.8804052 20.1195319,12.5672052 19.8578319,12.3378052 L18.4403319,11.0403052 Z M17.0978319,16.4703052 L14.5253319,15.6003052 C13.9231319,16.1104052 13.2349319,16.5091052 12.4928319,16.7778052 L11.9603319,19.4703052 L8.42033191,19.4703052 L7.88788191,16.8078052 C7.15169191,16.5315052 6.46716191,16.1334052 5.86288191,15.6303052 L3.28288191,16.4703052 L1.51288191,13.4703052 L3.55288191,11.6703052 C3.41420191,10.8939052 3.41420191,10.0991052 3.55288191,9.32280515 L1.51288191,7.47027515 L3.28288191,4.47027515 L5.85538191,5.34027515 C6.45758191,4.83019515 7.14583191,4.43146515 7.88788191,4.16277515 L8.42033191,1.47027515 L11.9603319,1.47027515 L12.4928319,4.13277515 C13.2290319,4.40909515 13.9136319,4.80713515 14.5178319,5.31027515 L17.0978319,4.47027515 L18.8678319,7.47027515 L16.8278319,9.27030515 C16.9665319,10.0466052 16.9665319,10.8414052 16.8278319,11.6178052 L18.8678319,13.4703052 L17.0978319,16.4703052 Z" id="Shape"></path>
            <path d="M10.1904302,14.9707034 C9.30043191,14.9707034 8.43043191,14.7068052 7.69037191,14.2123052 C6.95034191,13.7178052 6.37357191,13.0150052 6.03297191,12.1928052 C5.69238191,11.3705052 5.60326191,10.4657052 5.77690191,9.59280515 C5.95053191,8.71990515 6.37911191,7.91806515 7.00845191,7.28872515 C7.63779191,6.65938515 8.43963191,6.23080515 9.31253191,6.05717515 C10.1854319,5.88353515 11.0902319,5.97265515 11.9125319,6.31324515 C12.7347319,6.65384515 13.4375319,7.23061515 13.9320319,7.97064515 C14.4265319,8.71070515 14.6904302,9.58070515 14.6904302,10.4707034 C14.6964319,11.0633052 14.5841319,11.6512052 14.3601319,12.1999052 C14.1361319,12.7486052 13.8049319,13.2470052 13.3858319,13.6661052 C12.9667319,14.0852052 12.4683319,14.4164052 11.9196319,14.6404052 C11.3709319,14.8644052 10.7830319,14.9767052 10.1904302,14.9707034 Z M10.1904319,7.47070515 C9.79393191,7.46147515 9.39973191,7.53275515 9.03153191,7.68024515 C8.66343191,7.82774515 8.32903191,8.04838515 8.04855191,8.32882515 C7.76811191,8.60930515 7.54747191,8.94370515 7.39997191,9.31180515 C7.25248191,9.68000515 7.18120191,10.0742052 7.19043191,10.4707052 C7.18120191,10.8672052 7.25248191,11.2614052 7.39997191,11.6296052 C7.54747191,11.9977052 7.76811191,12.3322052 8.04855191,12.6126052 C8.32903191,12.8930052 8.66343191,13.1137052 9.03153191,13.2612052 C9.39973191,13.4087052 9.79393191,13.4799052 10.1904319,13.4707052 C10.5869319,13.4799052 10.9811319,13.4087052 11.3493319,13.2612052 C11.7174319,13.1137052 12.0519319,12.8930052 12.3323319,12.6126052 C12.6127319,12.3322052 12.8334319,11.9977052 12.9809319,11.6296052 C13.1284319,11.2614052 13.1996319,10.8672052 13.1904319,10.4707052 C13.1996319,10.0742052 13.1284319,9.68000515 12.9809319,9.31180515 C12.8334319,8.94370515 12.6127319,8.60930515 12.3323319,8.32882515 C12.0519319,8.04838515 11.7174319,7.82774515 11.3493319,7.68024515 C10.9811319,7.53275515 10.5869319,7.46147515 10.1904319,7.47070515 Z" id="Shape"></path>
        </g>
    </g>
</svg>