<svg preserveAspectRatio="xMinYMin meet" fill="none" viewBox="0 0 10 10" xmlns="http://www.w3.org/2000/svg">
<path d="M4.99999 2.0375L5.86249 3.78125L6.00624 4.09375L6.31874 4.14062L8.24374 4.41875L6.87499 5.7625L6.64062 5.99062L6.69687 6.30312L7.02499 8.21875L5.30312 7.31563L4.99999 7.1875L4.70937 7.34062L2.98749 8.23125L3.29999 6.31562L3.35624 6.00312L3.12499 5.7625L1.74374 4.40313L3.66874 4.125L3.98124 4.07812L4.12499 3.76562L4.99999 2.0375ZM4.99999 0.625L3.57812 3.50625L0.399994 3.96562L2.69999 6.20938L2.15624 9.375L4.99999 7.88125L7.84374 9.375L7.29999 6.20938L9.59999 3.96875L6.42187 3.50625L4.99999 0.625Z" fill="#FF1E6E"/>
</svg>
