<svg width="16" height="16" viewBox="0 0 16 16" fill="none" xmlns="http://www.w3.org/2000/svg">
<path d="M4.62567 1.49403V2.58849H15.7411V1.49403H4.62567ZM4.43581 11.4137V12.4734H15.8447V11.4137H4.43581ZM6.74865 5.19435H13.4628V7.01846H6.74865V5.19435ZM5.59223 4.2215V8.00869H14.6882V4.2215H5.59223ZM5.17799 9.17264V10.215H15.1197V9.17264H5.17799ZM9.40669 4.7253V9.22476C9.40669 11.3094 8.95793 13.7068 4.07335 14.9924C4.34951 15.253 4.69471 15.7047 4.85005 16C9.95901 14.4539 10.6667 11.7611 10.6667 9.24213V4.7253H9.40669ZM10.9256 11.7611L9.85545 12.0565C10.7702 14.0717 12.6343 15.4093 15.1715 15.9826C15.3614 15.6526 15.7066 15.1488 16 14.9055C13.5663 14.4886 11.7368 13.4115 10.9256 11.7611ZM7.40453 0V3.85668H8.61273V0H7.40453ZM11.4779 0V3.85668H12.6861V0H11.4779ZM0.897519 1.09446C1.93312 1.59826 3.21036 2.43214 3.81446 3.05755L4.57389 1.99783C3.95254 1.38979 2.6753 0.608035 1.62244 0.13898L0.897519 1.09446ZM0 5.78502C1.07012 6.25407 2.34736 7.01846 2.96872 7.60912L3.72816 6.53203C3.07228 5.95874 1.77778 5.2291 0.724919 4.79479L0 5.78502ZM0.466019 14.9403L1.62244 15.7394C2.5027 14.1238 3.5383 11.9696 4.29773 10.1281L3.2794 9.34636C2.43366 11.3268 1.2945 13.6026 0.466019 14.9403Z"/>
</svg>
