<svg width="24" height="24" viewBox="0 0 24 24" fill="none" xmlns="http://www.w3.org/2000/svg">
<g clip-path="url(#clip0_3750_33096)">
<path d="M10.2353 11.1797C10.0173 11.1612 9.7989 11.209 9.60856 11.3167C9.41821 11.4245 9.26483 11.5872 9.1685 11.7836C9.07217 11.98 9.03738 12.2008 9.06867 12.4173C9.09996 12.6338 9.19589 12.8358 9.34388 12.9968C9.49188 13.1579 9.68506 13.2705 9.89813 13.32C10.1112 13.3694 10.3342 13.3534 10.538 13.274C10.7418 13.1945 10.9169 13.0554 11.0403 12.8748C11.1638 12.6943 11.2298 12.4806 11.2298 12.2619C11.2356 12.1255 11.2145 11.9893 11.1677 11.8611C11.1209 11.7329 11.0492 11.6152 10.9569 11.5147C10.8645 11.4141 10.7532 11.3328 10.6294 11.2753C10.5056 11.2179 10.3717 11.1853 10.2353 11.1797ZM13.794 11.1797C13.5761 11.1612 13.3577 11.209 13.1673 11.3167C12.977 11.4245 12.8236 11.5872 12.7273 11.7836C12.6309 11.98 12.5961 12.2008 12.6274 12.4173C12.6587 12.6338 12.7546 12.8358 12.9026 12.9968C13.0506 13.1579 13.2438 13.2705 13.4569 13.32C13.6699 13.3694 13.893 13.3534 14.0968 13.274C14.3006 13.1945 14.4757 13.0554 14.5991 12.8748C14.7225 12.6943 14.7886 12.4806 14.7885 12.2619C14.7944 12.1255 14.7733 11.9893 14.7264 11.8611C14.6796 11.7329 14.608 11.6152 14.5156 11.5147C14.4232 11.4141 14.312 11.3328 14.1882 11.2753C14.0644 11.2179 13.9304 11.1853 13.794 11.1797Z"/>
<path d="M18.5325 3H5.46751C5.20438 3.00063 4.94396 3.05308 4.70111 3.15436C4.45826 3.25564 4.23774 3.40376 4.05213 3.59027C3.86653 3.77678 3.71948 3.99802 3.61939 4.24136C3.51929 4.4847 3.46811 4.74538 3.46876 5.0085V18.1905C3.46811 18.4536 3.51929 18.7143 3.61939 18.9576C3.71948 19.201 3.86653 19.4222 4.05213 19.6087C4.23774 19.7952 4.45826 19.9434 4.70111 20.0446C4.94396 20.1459 5.20438 20.1984 5.46751 20.199H16.524L16.0073 18.3953L17.2553 19.5555L18.435 20.6475L20.5313 22.5V5.0085C20.5319 4.74538 20.4807 4.4847 20.3806 4.24136C20.2805 3.99802 20.1335 3.77678 19.9479 3.59027C19.7623 3.40376 19.5418 3.25564 19.2989 3.15436C19.0561 3.05308 18.7956 3.00063 18.5325 3ZM14.769 15.7335C14.769 15.7335 14.418 15.3142 14.1255 14.9437C14.8322 14.7774 15.4573 14.3664 15.8903 13.7835C15.5394 14.017 15.1633 14.21 14.769 14.3588C14.3154 14.5524 13.8411 14.693 13.3553 14.778C12.5202 14.9317 11.6638 14.9284 10.83 14.7682C10.3405 14.6725 9.86073 14.5321 9.39676 14.349C9.15219 14.255 8.91437 14.1442 8.68501 14.0175C8.65576 13.998 8.62651 13.9882 8.59726 13.9688C8.58259 13.9614 8.56937 13.9515 8.55826 13.9395C8.38276 13.842 8.28526 13.7738 8.28526 13.7738C8.70251 14.3444 9.30604 14.7514 9.99151 14.9242C9.69901 15.2948 9.33826 15.7335 9.33826 15.7335C8.75909 15.7491 8.18497 15.6221 7.66642 15.3636C7.14787 15.1052 6.70078 14.7233 6.36451 14.2515C6.39616 12.2749 6.87623 10.3313 7.76851 8.56725C8.55372 7.95055 9.51103 7.59283 10.5083 7.5435L10.6058 7.6605C9.66755 7.89268 8.79203 8.32877 8.04151 8.93775C8.04151 8.93775 8.25601 8.82075 8.61676 8.655C9.3176 8.33509 10.0645 8.12779 10.83 8.04075C10.8846 8.02945 10.94 8.02293 10.9958 8.02125C11.6491 7.93613 12.3103 7.92958 12.9653 8.00175C13.9952 8.11938 14.9922 8.43735 15.9 8.93775C15.1875 8.3578 14.36 7.93574 13.4723 7.6995L13.6088 7.5435C14.606 7.59283 15.5633 7.95055 16.3485 8.56725C17.2408 10.3313 17.7209 12.2749 17.7525 14.2515C17.4135 14.7229 16.9645 15.1043 16.4446 15.3625C15.9246 15.6208 15.3494 15.7482 14.769 15.7335Z"/>
</g>
<defs>
<clipPath id="clip0_3750_33096">
<rect width="24" height="24"/>
</clipPath>
</defs>
</svg>
