<svg width="24" height="24" viewBox="0 0 24 24" fill="none" xmlns="http://www.w3.org/2000/svg">
<g clip-path="url(#clip0_3750_33091)">
<path d="M7.93585 21.7018H7.6502C5.06588 21.671 2.54109 20.9214 0.35868 19.537C0.210418 19.446 0.0982778 19.3065 0.0413737 19.1421C-0.0155305 18.9778 -0.0136887 18.7987 0.046604 18.6356C0.106897 18.4724 0.221965 18.3353 0.372077 18.2474C0.522189 18.1596 0.698106 18.1265 0.869875 18.1539C1.20357 18.2015 1.54006 18.2266 1.87712 18.229C3.20544 18.2217 4.51342 17.9024 5.69572 17.2969C4.98996 16.9923 4.35694 16.5413 3.83859 15.9737C3.32023 15.4061 2.92837 14.7349 2.68893 14.0045C2.64514 13.882 2.63606 13.7498 2.66259 13.6225C2.68912 13.4951 2.75027 13.3777 2.83932 13.2829C2.25928 12.7718 1.79545 12.1424 1.47907 11.437C1.16269 10.7317 1.00107 9.96664 1.00513 9.19358C1.0048 9.06015 1.03932 8.92898 1.10524 8.81296C1.17116 8.69695 1.26619 8.60011 1.38098 8.53208C1.45563 8.47548 1.54376 8.4392 1.63662 8.42684C1.1971 7.62499 0.966681 6.72534 0.966681 5.81094C0.966681 4.89654 1.1971 3.99689 1.63662 3.19505C1.70189 3.09099 1.78984 3.00313 1.89401 2.93803C1.99817 2.87292 2.11578 2.83227 2.23792 2.8192C2.36069 2.81146 2.48355 2.83335 2.59606 2.88306C2.70858 2.93278 2.80744 3.00887 2.88437 3.10485C4.89033 5.59642 7.78423 7.21313 10.9576 7.61503C10.9115 6.55088 11.1822 5.49699 11.7355 4.58677C12.2887 3.67655 13.0996 2.95092 14.0654 2.5018C15.0313 2.05269 16.1086 1.90028 17.1611 2.06383C18.2136 2.22738 19.194 2.69958 19.978 3.42059C20.7874 3.21352 21.5624 2.88936 22.2782 2.4584C22.4048 2.37308 22.554 2.32746 22.7066 2.32746C22.8593 2.32746 23.0086 2.37308 23.1352 2.4584C23.2551 2.55498 23.3426 2.68608 23.3856 2.83397C23.4286 2.98186 23.4251 3.13938 23.3757 3.28525C23.2765 3.59849 23.1455 3.90071 22.9848 4.18725C23.1312 4.12512 23.2938 4.11206 23.4482 4.14999C23.6027 4.18793 23.7407 4.27486 23.8417 4.39775C23.9442 4.52574 24 4.68479 24 4.84875C24 5.0127 23.9442 5.17185 23.8417 5.29984C23.2499 6.19217 22.519 6.98396 21.6768 7.64513V8.03594C21.6297 11.6587 20.1645 15.1187 17.5956 17.6736C15.0267 20.2284 11.5588 21.6746 7.93585 21.7018ZM7.93585 20.1984C8.00515 20.1829 8.07696 20.1829 8.14626 20.1984C11.3781 20.1592 14.4657 18.8538 16.7455 16.5627C19.0253 14.2717 20.3155 11.1777 20.3389 7.94574V7.17908C20.3394 7.06087 20.3682 6.94451 20.4232 6.83985C20.4781 6.73518 20.5575 6.64524 20.6545 6.57769L21.0906 6.23194H20.8349C20.6661 6.24998 20.4962 6.21032 20.3527 6.11944C20.2093 6.02856 20.1008 5.89176 20.0451 5.73139C19.9893 5.57101 19.9894 5.39652 20.0455 5.23625C20.1016 5.07598 20.2102 4.93937 20.3538 4.84875L20.6545 4.63834L19.993 4.78864C19.8681 4.81265 19.7391 4.80459 19.6182 4.76515C19.4972 4.72571 19.3883 4.65614 19.3015 4.5631C18.7256 3.88639 17.9348 3.42794 17.0614 3.26442C16.188 3.1009 15.2849 3.24223 14.5032 3.66477C13.7215 4.08731 13.1085 4.76546 12.7669 5.58576C12.4253 6.40606 12.3757 7.31879 12.6264 8.17128C12.6483 8.28456 12.6448 8.40132 12.6162 8.51309C12.5876 8.62486 12.5346 8.72886 12.461 8.81773C12.3889 8.91055 12.2947 8.98391 12.1871 9.03117C12.0795 9.07842 11.9618 9.09806 11.8446 9.08833C8.34697 8.91929 5.04321 7.43134 2.59872 4.92399C2.41526 5.69273 2.47099 6.49915 2.75848 7.23533C3.04597 7.97152 3.5515 8.60231 4.20737 9.04328C4.34602 9.13199 4.451 9.26454 4.5055 9.41986C4.56 9.57518 4.56089 9.74433 4.50807 9.90023C4.46567 10.0619 4.3662 10.2027 4.22802 10.2966C4.08983 10.3906 3.92228 10.4313 3.75637 10.4113C3.38634 10.3992 3.01858 10.3489 2.65892 10.261C2.85292 10.9296 3.22325 11.5336 3.73113 12.0098C4.23902 12.4859 4.86571 12.8166 5.54541 12.9671C5.7087 13.0066 5.85452 13.0985 5.96044 13.2289C6.06637 13.3593 6.12658 13.5208 6.13176 13.6887C6.13416 13.8559 6.08073 14.0191 5.97999 14.1525C5.87925 14.2859 5.73695 14.3819 5.57551 14.4254C5.25197 14.5173 4.9191 14.5729 4.58322 14.5908C4.92873 15.0703 5.37923 15.4644 5.90034 15.7432C6.42145 16.022 6.99939 16.1781 7.59001 16.1995C7.74317 16.2058 7.89094 16.2578 8.01422 16.3489C8.13749 16.44 8.23064 16.566 8.2816 16.7106C8.33105 16.8564 8.33445 17.0139 8.29142 17.1618C8.2484 17.3097 8.16099 17.4408 8.04101 17.5374C6.79536 18.5343 5.33286 19.2244 3.77142 19.552C5.07733 19.9795 6.44148 20.2027 7.81556 20.2135L7.93585 20.1984Z" fill="#F9F9F9"/>
</g>
<defs>
<clipPath id="clip0_3750_33091">
<rect width="24" height="24" fill="white"/>
</clipPath>
</defs>
</svg>
