<svg width="391" height="390" viewBox="0 0 391 390" fill="none" xmlns="http://www.w3.org/2000/svg">
<path d="M324.701 231.52C320.933 237.695 313.9 238.598 303.299 239.853C300.033 240.305 296.316 240.707 292.095 241.359C291.416 241.451 290.762 241.681 290.174 242.035C289.587 242.389 289.078 242.86 288.679 243.418C288.315 243.975 288.065 244.599 287.944 245.254C287.823 245.909 287.834 246.582 287.976 247.233C288.302 250.427 289.676 253.425 291.884 255.758C294.092 258.092 297.01 259.63 300.184 260.134C302.883 261.039 305.322 262.585 307.291 264.64C309.26 266.695 310.701 269.197 311.488 271.931C312.263 274.652 312.357 277.522 311.761 280.288C311.165 283.054 309.898 285.632 308.072 287.794C300.435 296.579 285.916 307.02 259.942 307.02C257.53 307.02 254.918 307.02 252.607 306.719C247.583 306.368 242.056 305.765 236.731 305.012H236.48H235.877L225.176 303.406C212.379 301.143 199.432 299.835 186.441 299.49C179.027 299.414 171.629 300.172 164.385 301.749C155.442 303.49 147.443 308.435 141.892 315.655C136.341 322.875 133.62 331.872 134.241 340.955C134.307 350.325 137.785 359.351 144.026 366.345C150.268 373.338 158.844 377.822 168.153 378.956C168.153 378.956 169.007 388.394 166.797 388.092L164.285 387.691C137.624 383.474 112.141 373.728 89.4775 359.077C75.5243 350.053 62.7635 339.309 51.4961 327.1C49.6372 325.042 47.8285 322.984 46.0199 320.875C13.1313 282.073 -3.2625 231.956 0.342522 181.235C3.94755 130.515 27.2654 83.2152 65.3121 49.4466L66.0154 48.794C66.0154 48.543 66.97 49.3462 67.171 49.1956C68.7786 47.79 72.6973 55.0689 72.6973 55.0689C71.6378 55.984 70.8757 57.1942 70.5087 58.5446C70.1417 59.8951 70.1866 61.3242 70.6375 62.6491C71.0453 64.0083 71.8525 65.2138 72.9544 66.1089C74.0563 67.0041 75.4021 67.5476 76.817 67.669H78.1735C82.155 60.716 87.246 54.4591 93.2455 49.1454C98.0012 44.9165 104.162 42.608 110.528 42.6697C117.097 42.6572 123.409 45.2161 128.112 49.798C132.031 53.7166 135.41 58.1396 138.16 62.9503C142.183 62.5392 146.224 62.3381 150.268 62.3479C160.498 62.4228 170.709 63.2618 180.814 64.8578C185.154 59.972 190.241 55.8039 195.886 52.5088C199.15 50.4986 202.904 49.4221 206.738 49.3964C211.201 49.6545 215.514 51.0979 219.232 53.5776C222.95 56.0573 225.938 59.4834 227.889 63.5025C232.704 71.4962 236.263 80.1816 238.439 89.2548C263.559 110.69 302.847 159.534 303.751 174.594C305.853 180.397 308.618 185.939 311.991 191.11C317.218 199.734 321.706 208.786 325.405 218.167C326.324 220.297 326.739 222.61 326.617 224.926C326.495 227.242 325.84 229.499 324.701 231.52Z" fill="white"/>
<path d="M311.89 278.005C311.89 304.309 279.987 319.47 233.716 314.701C202.668 311.438 160.115 313.446 151.976 329.359C138.11 356.467 173.68 387.339 172.072 387.239C169.258 386.938 169.51 388.394 166.746 387.992L164.234 387.59C137.573 383.374 112.091 373.627 89.4271 358.977C86.4629 357.019 83.4987 355.061 80.6351 352.953C59.8247 338.05 43.1568 318.096 32.2037 294.972C-0.753756 223.388 46.5723 174.494 78.525 163.55C30.1439 204.362 53.204 273.487 101.987 286.137C117.003 290.133 132.85 289.75 147.655 285.033C157.555 282.67 166.849 278.258 174.936 272.081C174.936 272.081 250.296 294.872 276.621 289.952C278.179 289.601 279.686 289.099 281.042 288.647C296.717 283.627 304.103 273.587 292.648 267.112H292.296L293.251 266.409C297.27 263.698 311.89 255.265 311.89 278.005Z" fill="#DFE3E4"/>
<path d="M390.315 192.214C391.072 239.764 374.34 285.938 343.29 321.98C341.08 324.54 338.819 327 336.508 329.409C318.292 348.46 296.398 363.621 272.149 373.975C247.901 384.329 221.803 389.661 195.434 389.649C185.97 389.644 176.518 388.973 167.149 387.641C113.995 379.91 110.277 303.858 162.677 292.262C188.601 286.589 213.721 292.262 237.434 295.424H238.339C243.463 296.127 248.487 296.679 253.411 297.081C280.942 299.039 294.859 288.597 301.139 281.368C301.983 280.353 302.565 279.148 302.836 277.856C303.106 276.564 303.055 275.226 302.688 273.958C302.322 272.691 301.65 271.532 300.732 270.583C299.814 269.635 298.677 268.926 297.421 268.517C292.686 267.495 288.379 265.046 285.081 261.5C281.784 257.954 279.655 253.482 278.983 248.688C278.585 246.798 278.579 244.846 278.965 242.952C279.351 241.059 280.121 239.265 281.227 237.68C282.333 236.095 283.752 234.753 285.396 233.737C287.041 232.721 288.876 232.052 290.789 231.771C312.493 228.508 320.029 230.014 316.663 220.778C310.182 202.806 294.959 183.279 294.457 174.694C293.804 164.654 255.822 114.455 229.949 93.823C228.197 84.5889 224.793 75.7461 219.901 67.7192C215.329 60.0387 208.245 55.4706 200.508 60.0387C194.308 63.8501 188.818 68.7079 184.281 74.3958C167.339 71.2151 150.02 70.5554 132.885 72.438C130.12 66.3009 126.254 60.7207 121.481 55.9725C118.556 53.147 114.665 51.5386 110.598 51.4733C106.53 51.4081 102.59 52.8909 99.5759 55.6211C92.8876 61.5934 87.5448 68.9167 83.901 77.1065L76.2142 76.4037C73.0242 76.0873 69.9958 74.8481 67.5 72.8378C65.0042 70.8275 63.1494 68.1335 62.1629 65.0858C61.1764 62.0381 61.101 58.769 61.9459 55.6791C62.7909 52.5892 64.5194 49.8127 66.9198 47.6896C94.9705 23.2138 129.443 7.26727 166.27 1.73211C203.096 -3.80305 240.739 1.30426 274.754 16.4512C308.77 31.5982 337.739 56.1525 358.242 87.216C378.745 118.279 389.926 154.555 390.466 191.762L390.315 192.214Z" fill="#FF4F24"/>
<path d="M187.897 177.505C199.352 200.095 211.159 197.585 224.673 192.565C224.673 192.565 216.735 153.46 187.897 177.505Z" fill="#FF4F24"/>
<path opacity="0.1" d="M343.139 322.181C340.735 324.448 338.548 326.935 336.608 329.61C318.392 348.661 296.498 363.822 272.25 374.176C248.002 384.53 221.904 389.862 195.534 389.85C186.07 389.845 176.619 389.174 167.249 387.842C114.095 380.111 110.377 304.059 162.778 292.462C188.702 286.79 213.822 292.462 237.535 295.625C100.782 276.549 208.948 444.667 343.139 322.181Z" fill="black"/>
<path d="M122.937 81.3232C113.191 82.8291 102.841 84.6865 94.1499 86.7447C96.2362 79.6209 100.15 73.1659 105.504 68.0203C106.523 67.3162 107.721 66.9183 108.959 66.8738C110.197 66.8293 111.421 67.1401 112.488 67.7693C116.893 71.4956 120.456 76.1158 122.937 81.3232Z" fill="#DFE3E4"/>
</svg>
