<svg width="24" height="24" viewBox="0 0 24 24" fill="none" xmlns="http://www.w3.org/2000/svg">
<g clip-path="url(#clip0_5087_34033)">
<mask id="mask0_5087_34033" style="mask-type:luminance" maskUnits="userSpaceOnUse" x="0" y="0" width="24" height="24">
<path d="M24 0H0V24H24V0Z" fill="white"/>
</mask>
<g mask="url(#mask0_5087_34033)">
<path d="M8.25 1.5H1.5V8.25H3V3H8.25V1.5Z"/>
<path d="M1.5 15.75V22.5H8.25V21H3V15.75H1.5Z"/>
<path d="M22.5 8.25V1.5H15.75V3H21V8.25H22.5Z"/>
<path d="M15.75 22.5H22.5V15.75H21V21H15.75V22.5Z"/>
<path d="M19.1175 7.59755L12.3675 3.84756C12.2535 3.78173 12.1242 3.74707 11.9925 3.74707C11.8609 3.74707 11.7315 3.78173 11.6175 3.84756L4.86754 7.59755C4.75447 7.6646 4.66102 7.76015 4.59652 7.87467C4.53202 7.9892 4.49875 8.11865 4.50004 8.25005V15.75C4.50026 15.8829 4.5358 16.0134 4.60301 16.128C4.67022 16.2427 4.76668 16.3374 4.88254 16.4025L11.6325 20.1525C11.7465 20.2184 11.8759 20.253 12.0075 20.253C12.1392 20.253 12.2685 20.2184 12.3825 20.1525L19.1325 16.4025C19.2456 16.3355 19.339 16.2399 19.4035 16.1254C19.468 16.011 19.5013 15.8814 19.5 15.75V8.25005C19.4998 8.11715 19.4643 7.98672 19.3971 7.87205C19.3299 7.75737 19.2334 7.66265 19.1175 7.59755ZM12 5.35506L17.205 8.25005L12 11.145L6.79504 8.25005L12 5.35506ZM6.00004 9.52505L11.25 12.4425V18.225L6.00004 15.3075V9.52505ZM12.75 18.225V12.4425L18 9.52505V15.3075L12.75 18.225Z"/>
</g>
</g>
<defs>
<clipPath id="clip0_5087_34033">
<rect width="24" height="24" fill="white"/>
</clipPath>
</defs>
</svg>
