<svg width="15" height="22" viewBox="0 0 15 22" fill="none" xmlns="http://www.w3.org/2000/svg">
<path d="M3.70716 21.4403C3.55368 21.3755 3.42614 21.2614 3.34465 21.1161C3.26317 20.9708 3.23239 20.8025 3.25716 20.6378L4.62216 11.7503H0.999663C0.88482 11.7534 0.770801 11.73 0.666404 11.6821C0.562008 11.6341 0.470025 11.5628 0.397552 11.4737C0.325078 11.3845 0.274052 11.2799 0.248411 11.1679C0.22277 11.0559 0.223198 10.9396 0.249663 10.8278L2.49966 1.07777C2.53926 0.90997 2.63545 0.760936 2.77205 0.655753C2.90865 0.55057 3.07732 0.495661 3.24966 0.500268H10.7497C10.8617 0.499887 10.9724 0.524616 11.0737 0.572637C11.1749 0.620659 11.2641 0.690753 11.3347 0.777768C11.4062 0.865767 11.4569 0.968857 11.4829 1.07928C11.5089 1.1897 11.5095 1.30458 11.4847 1.41527L10.1872 7.25027H13.7497C13.8902 7.24999 14.028 7.28921 14.1474 7.36347C14.2667 7.43774 14.3628 7.54404 14.4247 7.67027C14.4784 7.79142 14.4991 7.92465 14.4846 8.0564C14.4701 8.18814 14.421 8.31369 14.3422 8.42027L4.59216 21.1703C4.52627 21.2679 4.43828 21.3487 4.33534 21.4061C4.2324 21.4634 4.1174 21.4957 3.99966 21.5003C3.89931 21.4984 3.80015 21.4781 3.70716 21.4403ZM8.31216 8.75027L9.81216 2.00027H3.84966L1.94466 10.2503H6.37716L5.18466 17.9603L12.2497 8.75027H8.31216Z"/>
</svg>
