<svg width="24" height="24" viewBox="0 0 24 24" fill="none" xmlns="http://www.w3.org/2000/svg">
<g clip-path="url(#clip0_3750_27144)">
<path d="M12 18.0001C11.8758 18.0001 11.7536 17.9692 11.6444 17.9101L1.89441 12.6601L2.60556 11.3401L12 16.3983L21.3944 11.3401L22.1056 12.6606L12.3556 17.9106C12.2463 17.9695 12.1241 18.0002 12 18.0001Z"/>
<path d="M12 22.5001C11.8758 22.5001 11.7536 22.4692 11.6444 22.4101L1.89441 17.1601L2.60556 15.8401L12 20.8983L21.3944 15.8401L22.1056 17.1606L12.3556 22.4106C12.2463 22.4695 12.1241 22.5002 12 22.5001Z"/>
<path d="M12 13.5001C11.8759 13.5001 11.7537 13.4692 11.6444 13.4101L1.89444 8.16011C1.77525 8.09589 1.67566 8.0006 1.60625 7.88436C1.53683 7.76811 1.50018 7.63524 1.50018 7.49985C1.50018 7.36446 1.53683 7.23159 1.60625 7.11534C1.67566 6.99909 1.77525 6.90381 1.89444 6.83959L11.6444 1.58959C11.7537 1.53063 11.8759 1.49976 12 1.49976C12.1242 1.49976 12.2463 1.53063 12.3556 1.58959L22.1056 6.83959C22.2248 6.90381 22.3244 6.99909 22.3938 7.11534C22.4632 7.23159 22.4998 7.36446 22.4998 7.49985C22.4998 7.63524 22.4632 7.76811 22.3938 7.88436C22.3244 8.0006 22.2248 8.09589 22.1056 8.16011L12.3556 13.4101C12.2464 13.4692 12.1242 13.5001 12 13.5001ZM3.83206 7.50011L12 11.8983L20.168 7.50011L12 3.10196L3.83206 7.50011Z"/>
</g>
<defs>
<clipPath id="clip0_3750_27144">
<rect width="24" height="24" />
</clipPath>
</defs>
</svg>
