<svg width="33" height="36" viewBox="0 0 33 36" fill="none" xmlns="http://www.w3.org/2000/svg">
  <path d="M9.55718 25.2629L5.68622 28.0313L5.54703 26.6032L5.92711 26.3314L5.67467 23.759L5.2964 24.0295L5.16424 22.7026L7.07 21.3397L7.20216 22.6666L6.8419 22.9242L7.09228 25.49L8.3928 24.5599L8.30856 23.6807L9.3479 22.9374L9.55718 25.2629Z" fill="#FF1E6E"/>
  <path d="M10.8452 27.9944L12.117 27.0849L12.2727 28.6808C12.2924 28.9298 12.2532 29.18 12.1583 29.411C12.0634 29.6421 11.9155 29.8476 11.7265 30.0109L9.06061 31.9174C8.70036 32.1751 8.38975 31.9806 8.34231 31.4917L7.99939 27.9247C7.97919 27.6757 8.01814 27.4253 8.11306 27.1942C8.20799 26.9631 8.35619 26.7576 8.54559 26.5947L11.2115 24.6881C11.5573 24.4408 11.8824 24.625 11.9298 25.1139L12.0664 26.5193L10.7929 27.43L10.7009 26.4829L9.31387 27.4748L9.5645 30.0485L10.9515 29.0566L10.8452 27.9944Z" fill="#FF1E6E"/>
  <path d="M3.68657 16.9076L3.67969 16.9053C3.68435 16.9076 3.68657 16.9098 3.69112 16.9121C3.68879 16.9098 3.68879 16.9076 3.68657 16.9076Z" fill="#FF1E6E"/>
  <path fill-rule="evenodd" clip-rule="evenodd" d="M32.0628 23.8661C32.1417 23.5844 32.2134 23.2934 32.2741 22.9914C32.2781 22.9744 32.2815 22.9568 32.285 22.939C32.288 22.9241 32.2909 22.9089 32.2943 22.8938C32.4722 22.0176 32.5913 21.1304 32.6508 20.2383C32.6766 19.8239 32.6839 19.4225 32.6747 19.0284C32.6711 18.8516 32.6655 18.6749 32.6545 18.4981C32.6027 17.3872 32.4688 16.2817 32.2539 15.1907C32.2377 15.1057 32.2221 15.0207 32.2065 14.9354C32.1936 14.8655 32.1807 14.7953 32.1675 14.7248C32.1215 14.4615 32.0719 14.1944 32.0131 13.9219C31.9709 13.7212 31.9212 13.5167 31.8643 13.3105C31.8201 13.1577 31.7742 13.0251 31.7319 12.9091C31.7043 12.8335 31.6658 12.7268 31.6566 12.6826C31.651 12.5591 31.6547 12.4354 31.6676 12.3124L31.6823 12.0988L31.6835 12.0784V12.0783C31.7585 10.8527 31.8359 9.58891 31.6823 8.28316C31.5372 7.04382 31.3276 5.6148 30.699 4.36076C30.5215 3.97153 30.2662 3.62295 29.9488 3.3366C29.6314 3.05025 29.2588 2.83221 28.8539 2.69603C28.8263 2.68681 28.8006 2.67944 28.7711 2.67206H28.7693C28.5798 2.61565 28.3862 2.57379 28.1904 2.54685C28.0048 2.51864 27.8175 2.50265 27.6299 2.49897C27.5839 2.49529 27.5398 2.49528 27.4939 2.49528C27.3505 2.49528 27.2035 2.50081 27.0527 2.51367H27.0509C26.9205 2.52473 26.79 2.53948 26.6557 2.55791C26.5896 2.56708 26.5253 2.57814 26.4628 2.5892C26.2717 2.62234 26.0898 2.66105 25.9133 2.70709C25.6731 2.77068 25.4374 2.85002 25.2075 2.9446C24.6347 2.13539 23.9061 1.44917 23.0647 0.926308L22.9562 0.856307C22.4544 0.537724 21.7671 0.101312 20.9419 0.0129227C20.8601 0.00397979 20.7779 -0.000327942 20.6957 1.94436e-05C19.6866 1.94436e-05 18.9441 0.642709 18.5839 0.955756C18.3127 1.19386 18.0533 1.4354 17.801 1.67038L17.801 1.67041L17.7735 1.69605C17.6025 1.85813 17.4298 2.01831 17.2534 2.17855L17.1486 2.27431C16.9137 2.51289 16.6486 2.71965 16.3602 2.88935C16.0734 2.99531 15.7746 3.06522 15.4706 3.09746C15.3401 3.11774 15.2115 3.13798 15.0737 3.16189C14.8807 3.19876 14.6895 3.23926 14.4984 3.28162C14.1806 3.36484 13.8557 3.41788 13.528 3.44001C13.5042 3.4418 13.4803 3.4418 13.4563 3.4418C13.1484 3.4444 12.8428 3.38816 12.5558 3.27609C12.3633 3.19353 12.175 3.10134 11.9916 2.99986C11.0885 2.49442 10.0914 2.18039 9.06211 2.07726C8.98092 2.06846 8.89932 2.06415 8.81766 2.06435C7.48754 2.06435 6.86813 3.08374 6.57033 3.57385L6.56998 3.57443L6.49648 3.69596C5.30367 5.60559 4.46192 7.96827 3.92349 10.9202C3.85547 11.2941 3.75989 11.6752 3.64046 12.1246C3.59451 12.2921 3.55404 12.4634 3.51357 12.6384C3.45397 12.9455 3.36409 13.2459 3.24525 13.5352C3.23241 13.561 3.20854 13.607 3.01184 13.6991C2.98789 13.7118 2.96073 13.7234 2.93027 13.7365C2.921 13.7404 2.91143 13.7445 2.90155 13.7488C2.76559 13.8059 2.62964 13.8648 2.4918 13.9256C2.02694 14.1311 1.59025 14.3953 1.19238 14.7119C0.83414 14.9868 0.541452 15.3381 0.33547 15.7404C0.129489 16.1427 0.0153776 16.5858 0.00146265 17.0377C-0.0206136 17.8278 0.207323 18.5809 0.677823 19.5937L0.992088 20.1628C1.02847 20.2566 1.07017 20.3482 1.117 20.4372C1.31169 20.8232 1.56739 21.1752 1.87422 21.4795C1.95139 21.5587 2.03413 21.6379 2.12046 21.7171C2.13483 21.7303 2.1499 21.7427 2.16562 21.7542C2.41416 20.9101 2.96372 20.1518 3.77185 19.6561L4.8844 18.9738C6.61586 17.9118 8.87874 18.4572 9.93863 20.1922L14.8556 28.2407C15.7516 29.7073 15.501 31.5545 14.3561 32.7323C14.5385 32.9295 14.773 33.074 15.0351 33.1473C15.123 33.1715 15.2127 33.1881 15.3034 33.197C15.478 33.2118 15.6637 33.2265 15.8529 33.2357C16.6119 33.2799 17.4463 33.2909 17.9866 33.2928C27.6302 32.7419 31.3889 26.7788 32.0628 23.8661Z" fill="#FF1E6E"/>
  <path d="M10.2478 5.28666C10.2481 5.29714 10.2475 5.30762 10.2459 5.31799V5.31984C10.2441 5.33042 10.2417 5.34087 10.2385 5.35113C10.2331 5.36956 10.2257 5.38611 10.2184 5.40454C10.2091 5.41929 10.2 5.43583 10.1889 5.45058C10.1889 5.45082 10.1889 5.45103 10.1888 5.45125C10.1887 5.45147 10.1885 5.45171 10.1884 5.45188C10.1882 5.45205 10.1881 5.45219 10.1878 5.45228C10.1876 5.45238 10.1874 5.45242 10.1871 5.45242C10.1362 5.51253 10.0745 5.56251 10.0051 5.59975C9.92428 5.64579 9.83606 5.68077 9.76436 5.71574C9.75482 5.71995 9.74561 5.72488 9.73681 5.73049C9.15423 6.01589 8.55505 6.25898 7.96151 6.51682C7.94859 6.5223 7.93755 6.52788 7.92472 6.53337C7.87857 6.54626 7.83108 6.55368 7.7832 6.55549C7.78631 6.52453 7.79122 6.49379 7.79792 6.46341C7.81658 6.34017 7.8436 6.21835 7.87877 6.09879C7.99796 5.68342 8.193 5.2938 8.454 4.94969C8.50354 4.88228 8.55756 4.81828 8.61571 4.75816C8.619 4.75673 8.62163 4.75409 8.62307 4.75079C8.67302 4.69877 8.73298 4.65743 8.79931 4.62927C8.86565 4.6011 8.93699 4.58669 9.00903 4.58692C9.04353 4.58733 9.07794 4.59039 9.11196 4.59609H9.11932C9.3673 4.64887 9.60627 4.73759 9.82871 4.85946C9.93743 4.9072 10.0394 4.96911 10.1319 5.04361L10.1375 5.04909C10.1448 5.0583 10.154 5.06568 10.1614 5.0749C10.174 5.08754 10.1856 5.10107 10.1963 5.11541C10.1986 5.1175 10.2004 5.12001 10.2018 5.12278C10.2109 5.13524 10.2183 5.14886 10.2238 5.16329C10.2309 5.17737 10.2365 5.19219 10.2404 5.20748C10.2442 5.22317 10.246 5.23924 10.2459 5.25536C10.2475 5.26572 10.2481 5.27619 10.2478 5.28666Z" fill="#FF1E6E"/>
  <path d="M16.682 12.709C16.6675 12.7234 16.6541 12.7388 16.6416 12.755C16.6544 12.7403 16.6692 12.7237 16.6839 12.709H16.682ZM13.7617 14.5082C13.7769 14.5057 13.7923 14.505 13.8077 14.5063C13.862 14.5178 13.9122 14.5439 13.9529 14.5818C13.9136 14.5426 13.8638 14.5157 13.8095 14.5045C13.7935 14.5027 13.7773 14.504 13.7617 14.5082Z" fill="#FF1E6E"/>
  <path d="M19.6068 13.7519C19.5963 13.8894 19.5508 14.022 19.4744 14.1368C19.4232 14.218 19.3648 14.2944 19.2998 14.3651C19.2075 14.4662 19.1074 14.5598 19.0003 14.6451C18.3221 15.1846 17.7285 14.9949 17.1128 14.6653C17.0522 14.6303 16.9897 14.5972 16.929 14.5622H16.9272C16.8666 14.5254 16.8041 14.4904 16.7415 14.4554H16.7398C16.7103 14.4351 16.6791 14.4185 16.6479 14.4001C16.6479 14.4004 16.6479 14.4006 16.6478 14.4008C16.6477 14.4011 16.6475 14.4013 16.6473 14.4014C16.6472 14.4016 16.647 14.4017 16.6468 14.4018C16.6466 14.4019 16.6463 14.402 16.6461 14.402C16.4806 14.6211 16.3446 14.855 16.1626 15.0557C16.1461 15.0723 16.1295 15.0907 16.1112 15.1091C15.9426 15.2871 15.7283 15.4152 15.4919 15.4793C15.4017 15.5045 15.3094 15.5212 15.2162 15.529C15.1268 15.5345 15.0372 15.5345 14.9479 15.529C14.9037 15.5253 14.8614 15.5216 14.8174 15.5161C14.7879 15.5124 14.7604 15.5087 14.731 15.5032C14.3523 15.4388 13.9186 15.2914 13.7367 14.9231C13.6871 14.82 13.6098 14.5751 13.7294 14.518C13.7387 14.5119 13.7495 14.5087 13.7606 14.5088C13.7758 14.5063 13.7912 14.5057 13.8066 14.5069C13.8609 14.5184 13.9111 14.5446 13.9518 14.5825C14.0603 14.6902 14.177 14.7893 14.3009 14.8789C14.8762 15.1515 15.4661 14.8421 15.7859 14.3559C15.8251 14.2958 15.8601 14.233 15.8906 14.1681C15.9223 14.1041 15.9488 14.0376 15.9697 13.9692C15.9868 13.9148 16.0009 13.8595 16.012 13.8035C16.0248 13.7464 16.0341 13.6875 16.0414 13.6285C16.0665 13.4596 16.0341 13.287 15.9495 13.1387C15.9389 13.1226 15.9272 13.1072 15.9145 13.0927C15.9024 13.0767 15.8881 13.0625 15.8723 13.0503C15.8436 13.0203 15.8101 12.9954 15.7731 12.9766C15.6973 12.9366 15.6171 12.9057 15.5341 12.8846C15.3564 12.8561 15.1902 12.7783 15.0545 12.6599C15.0331 12.6359 15.0141 12.61 14.9975 12.5826C14.9796 12.5513 14.9642 12.5187 14.9515 12.485C14.9156 12.3976 14.9035 12.3023 14.9166 12.2087C14.9194 12.1825 14.925 12.1565 14.9331 12.1314C14.9441 12.1017 14.957 12.0728 14.9717 12.0448L14.9736 12.043C14.9853 12.0206 14.9995 11.9996 15.0159 11.9804C15.0301 11.9611 15.0454 11.9426 15.0618 11.9251C15.4403 11.5311 16.4365 11.439 16.9383 11.6692C16.9816 11.689 17.0228 11.713 17.0614 11.741C17.1169 11.7747 17.1625 11.8227 17.1932 11.88C17.2239 11.9374 17.2387 12.0019 17.236 12.0669C17.2344 12.0911 17.2307 12.1152 17.225 12.1388C17.2224 12.1525 17.2187 12.1661 17.2139 12.1792C17.1569 12.3132 17.0608 12.4268 16.9383 12.5052C16.8776 12.5494 16.8169 12.5918 16.7618 12.6396C16.7342 12.6615 16.7078 12.6848 16.6828 12.7096H16.6809C16.6664 12.7241 16.6529 12.7394 16.6405 12.7557C16.6217 12.7777 16.6045 12.8011 16.589 12.8257C16.575 12.8474 16.5627 12.8701 16.5523 12.8938C16.4346 13.1608 16.5928 13.4389 16.8169 13.6617C16.8555 13.6985 16.8941 13.7354 16.9364 13.7703C16.9768 13.8053 17.0172 13.8366 17.0596 13.8679C17.122 13.914 17.1827 13.9545 17.2396 13.9895C17.5121 14.1594 17.8308 14.2399 18.1512 14.2197C18.6106 14.1921 18.8 13.9508 19.1124 13.6617C19.2503 13.5346 19.4377 13.4462 19.5369 13.5236C19.5466 13.5296 19.5548 13.5378 19.5609 13.5475C19.5999 13.608 19.6162 13.6805 19.6068 13.7519Z" fill="#FF1E6E"/>
  <path d="M22.5059 3.85824C22.4771 3.88152 22.443 3.89733 22.4067 3.90428C22.3472 3.91553 22.287 3.92292 22.2266 3.9264C22.2027 3.92824 22.1788 3.93193 22.155 3.93377C21.9252 3.95769 21.6936 3.97981 21.462 3.99087C21.4606 3.99177 21.4591 3.99222 21.4574 3.99222C21.4558 3.99222 21.4542 3.99177 21.4529 3.99087H21.4511C21.4508 3.99111 21.4506 3.99132 21.4503 3.99145C21.4499 3.99159 21.4496 3.99163 21.4493 3.99163C21.4489 3.99163 21.4485 3.99159 21.4482 3.99145C21.4479 3.99132 21.4476 3.99111 21.4474 3.99087C21.383 3.99455 21.3187 3.9982 21.2526 4.00188H21.236C20.8642 4.01702 20.4919 3.99605 20.1241 3.93926C20.1138 3.93672 20.1034 3.93488 20.0929 3.93377C19.9443 3.91606 19.8 3.87242 19.6665 3.80483C19.6592 3.80115 19.6536 3.7975 19.6462 3.79381C19.6324 3.78673 19.6195 3.77807 19.6076 3.76801C19.5463 3.72293 19.5037 3.65667 19.4882 3.58201C19.4852 3.56626 19.4839 3.55021 19.4845 3.53418C19.4843 3.52615 19.4849 3.51812 19.4863 3.51021C19.501 3.30578 19.7198 3.07191 19.8447 2.94486C19.9494 2.83544 20.0674 2.73957 20.1958 2.65946C20.2068 2.65209 20.2197 2.64471 20.2307 2.63734C20.366 2.54839 20.5201 2.49196 20.6807 2.47247C20.8414 2.45298 21.0044 2.47096 21.157 2.52498C21.1845 2.53604 21.214 2.5471 21.2415 2.56001C21.6136 2.72692 21.949 2.96599 22.2285 3.26343C22.3387 3.38066 22.4389 3.50694 22.528 3.64095C22.5485 3.67462 22.5575 3.71407 22.5535 3.75331C22.5495 3.79254 22.5328 3.8294 22.5059 3.85824Z" fill="#FF1E6E"/>
  <path d="M13.2445 11.0649C13.2385 11.0829 13.2305 11.1002 13.2207 11.1164C13.1813 11.1827 13.1193 11.2324 13.0461 11.2564C13.0258 11.2638 13.0049 11.2694 12.9836 11.2729C12.9615 11.2766 12.9376 11.2803 12.9138 11.2821C12.8899 11.284 12.866 11.2858 12.8421 11.2858C12.4194 11.2858 11.971 10.9875 11.5997 10.8476C11.5556 10.831 11.5096 10.8162 11.4637 10.8015C11.4031 10.7831 11.3424 10.7684 11.2799 10.7536C11.2432 10.7463 11.2064 10.7389 11.1696 10.7334C10.9954 10.704 10.8187 10.6929 10.6422 10.7002C10.6152 10.699 10.5882 10.6996 10.5613 10.7021C10.5044 10.7058 10.4456 10.7095 10.3885 10.7168C10.383 10.7168 10.3794 10.7186 10.3739 10.7186C10.2011 10.7371 9.98056 10.8457 9.81328 10.8218C9.6277 10.7942 9.63685 10.6615 9.73431 10.5731C9.75187 10.5564 9.77165 10.5421 9.79309 10.5307C9.80413 10.5253 9.81696 10.5198 9.828 10.5142C10.6787 10.143 11.6341 10.0901 12.5204 10.3651C12.7477 10.4175 12.9598 10.5222 13.1398 10.6708C13.1583 10.6887 13.1749 10.7084 13.1894 10.7297C13.2057 10.75 13.2193 10.7723 13.2299 10.796C13.2317 10.8015 13.2354 10.8089 13.2372 10.8162C13.2402 10.8228 13.2427 10.8296 13.2445 10.8365C13.2713 10.9103 13.2713 10.9911 13.2445 11.0649Z" fill="#FF1E6E"/>
  <path d="M22.3455 9.22681C22.3453 9.24399 22.3415 9.26094 22.3343 9.27654C22.3257 9.29604 22.3132 9.31359 22.2976 9.32811C22.2168 9.40728 22.0605 9.33912 21.965 9.33179C21.3438 9.26732 20.7906 9.53065 20.3109 9.89342C20.2484 9.93946 20.1878 9.98734 20.1289 10.0371C20.0903 10.0684 20.0499 10.1034 20.0077 10.1402C19.9875 10.1586 19.9654 10.177 19.9433 10.1936C19.9195 10.212 19.8974 10.2286 19.8735 10.2451C19.8096 10.3062 19.7272 10.3443 19.6394 10.3533C19.5515 10.3623 19.4632 10.3417 19.3883 10.2949C19.1678 10.1402 19.2394 9.83816 19.4049 9.66319C19.4169 9.64831 19.4304 9.63474 19.4453 9.62268C19.514 9.56486 19.5858 9.51077 19.6603 9.46065C19.7701 9.38484 19.885 9.31656 20.004 9.25626C20.072 9.22313 20.14 9.19179 20.2099 9.16419C20.5935 9.00871 21.0003 8.91847 21.4136 8.89717C21.6746 8.87874 21.987 8.85298 22.2076 9.02238C22.2248 9.03501 22.2408 9.04918 22.2554 9.06474C22.2638 9.07226 22.2717 9.08026 22.2792 9.0887C22.3023 9.11109 22.3205 9.13805 22.3325 9.16787C22.3412 9.18631 22.3456 9.20645 22.3455 9.22681Z" fill="#FF1E6E"/>
  <path d="M26.8508 11.547C26.8307 11.5584 26.8098 11.5682 26.7883 11.5765C26.7225 11.6009 26.6526 11.6128 26.5824 11.6115C26.4896 11.6089 26.3973 11.5972 26.3068 11.5765C26.2149 11.5563 26.123 11.5342 26.0403 11.5231C25.9668 11.5121 25.8933 11.5028 25.818 11.4973C25.7318 11.4903 25.6453 11.4878 25.5588 11.4899C25.5159 11.4884 25.4729 11.4897 25.4301 11.4936C25.3861 11.4955 25.3438 11.4992 25.2996 11.5047C25.2892 11.5044 25.2787 11.5051 25.2684 11.5065C25.2225 11.5102 25.1747 11.5176 25.1269 11.525C25.0791 11.5323 25.0332 11.5397 24.9873 11.5489C24.9541 11.5562 24.9229 11.5636 24.8898 11.571C24.8384 11.5839 24.7869 11.5986 24.7337 11.6134C24.5579 11.6747 24.3712 11.6979 24.1859 11.6815C24.0977 11.6643 24.0179 11.6175 23.9598 11.5489C23.9452 11.5308 23.9329 11.511 23.9231 11.4899C23.9195 11.4803 23.9164 11.4705 23.9139 11.4605C23.9067 11.4308 23.91 11.3996 23.9231 11.3721C23.9359 11.3533 23.9513 11.3365 23.9691 11.3224C24.0014 11.3021 24.0368 11.2872 24.0738 11.2782C24.7777 11.094 25.4688 10.8712 26.2039 10.8731C26.2608 10.8731 26.3197 10.8731 26.3822 10.8749C26.3881 10.873 26.3946 10.873 26.4005 10.8749C26.4225 10.8749 26.4446 10.8749 26.4667 10.8767C26.5329 10.8782 26.5988 10.8863 26.6634 10.9007C26.7533 10.9141 26.8385 10.9495 26.9114 11.0038C26.9174 11.0082 26.9229 11.0131 26.9279 11.0185C26.9331 11.0219 26.9375 11.0263 26.9409 11.0314C26.9768 11.0679 27.0035 11.1124 27.0188 11.1613C27.034 11.2102 27.0374 11.2621 27.0285 11.3125C27.0197 11.363 26.999 11.4106 26.9681 11.4514C26.9371 11.4922 26.8969 11.525 26.8508 11.547Z" fill="#FF1E6E"/>
  <path d="M27.228 12.7951C27.2121 12.8095 27.1948 12.8225 27.1765 12.8338C27.1479 12.8519 27.117 12.8661 27.0846 12.8761C27.0626 12.8834 27.0405 12.889 27.0185 12.8945C26.9607 12.904 26.9019 12.9052 26.8438 12.8982C26.8017 12.8927 26.7612 12.8834 26.7189 12.8761C26.6362 12.8577 26.5553 12.8374 26.4727 12.8153C26.2668 12.7601 26.0627 12.6956 25.8533 12.6588C25.4883 12.5883 25.115 12.5709 24.745 12.6072C24.7341 12.6091 24.7211 12.6091 24.7083 12.6109C24.6986 12.6125 24.6887 12.6131 24.6789 12.6127C24.6128 12.6174 24.5465 12.6174 24.4804 12.6127C24.4494 12.6092 24.4187 12.6036 24.3885 12.5962C24.3738 12.5907 24.3573 12.5851 24.3444 12.5796C24.3242 12.5704 24.3055 12.558 24.2892 12.5428C24.2825 12.534 24.2763 12.5248 24.2708 12.5151C24.2687 12.511 24.2669 12.5067 24.2654 12.5022C24.2604 12.4925 24.2573 12.4819 24.2562 12.4709V12.4655C24.2547 12.4457 24.258 12.4259 24.2656 12.4076C24.2733 12.3894 24.2852 12.3732 24.3003 12.3605C24.3221 12.339 24.3477 12.3215 24.3756 12.3089C24.413 12.2906 24.4517 12.2752 24.4914 12.2629C24.5465 12.2463 24.5998 12.2353 24.6348 12.2279C25.2482 12.0796 25.8849 12.0558 26.5076 12.1579C26.5627 12.1671 26.6288 12.1782 26.7024 12.1947C26.7373 12.2021 26.774 12.2095 26.8108 12.2205C26.831 12.2242 26.8494 12.2297 26.8696 12.2353C26.9427 12.2563 27.0135 12.2846 27.0809 12.32C27.113 12.3363 27.1432 12.3561 27.171 12.3789C27.2101 12.4095 27.2426 12.4477 27.2666 12.4912C27.2721 12.5041 27.2776 12.517 27.2813 12.528C27.3021 12.5724 27.3081 12.6223 27.2985 12.6703C27.289 12.7184 27.2642 12.7621 27.228 12.7951Z" fill="#FF1E6E"/>
  <path d="M8.69165 13.3368L8.68976 13.3386C8.68241 13.3648 8.66616 13.3876 8.64382 13.4031C8.51583 13.4552 8.3768 13.4742 8.23955 13.4583C8.11822 13.4602 7.99689 13.4602 7.87557 13.4639C7.7598 13.4657 7.64224 13.4694 7.52639 13.4804C7.44374 13.4859 7.361 13.4952 7.27826 13.5062C6.97816 13.5658 6.68413 13.6527 6.39981 13.7659C6.25094 13.8137 6.02857 13.8653 5.93111 13.6995C5.84298 13.5523 5.93667 13.416 6.05979 13.3165C6.07083 13.3092 6.08187 13.2999 6.09291 13.2926C6.14201 13.2576 6.1936 13.2262 6.24726 13.1987C6.79314 12.9188 7.38676 12.9225 7.97482 12.9943C8.04105 13.0016 8.10898 13.0109 8.1752 13.02C8.18068 13.0219 8.18624 13.0219 8.1936 13.0237C8.20643 13.0256 8.22294 13.0274 8.23955 13.0311C8.29099 13.0382 8.34192 13.0486 8.39201 13.0624C8.40756 13.0658 8.4229 13.0701 8.43796 13.0753C8.49525 13.0899 8.54986 13.1135 8.59976 13.1453H8.60155C8.61556 13.1542 8.62851 13.1647 8.64014 13.1766C8.65118 13.1858 8.66033 13.1968 8.67137 13.2079V13.2097C8.68002 13.2206 8.68629 13.2331 8.68976 13.2465C8.70057 13.2755 8.70124 13.3074 8.69165 13.3368Z" fill="#FF1E6E"/>
  <path d="M8.68684 14.0127C8.68298 14.026 8.67675 14.0384 8.66845 14.0495C8.64923 14.0783 8.62419 14.1028 8.59495 14.1213C8.52915 14.1643 8.45544 14.1938 8.37814 14.2079C8.27512 14.2281 8.16492 14.2336 8.06011 14.2447C8.05395 14.2443 8.04776 14.2449 8.0418 14.2466C8.0066 14.2494 7.97161 14.2543 7.93699 14.2613C7.91522 14.2636 7.89371 14.2679 7.87273 14.2742C7.83594 14.2834 7.79735 14.2944 7.76056 14.3073C7.50756 14.3918 7.26173 14.4965 7.02542 14.6203C6.83616 14.7143 6.60823 14.8892 6.38774 14.8837C6.22782 14.8782 6.03847 14.7217 6.11206 14.5707C6.11941 14.5578 6.12678 14.5467 6.13405 14.5356C6.14418 14.5237 6.15526 14.5126 6.16716 14.5025C6.21867 14.4546 6.27377 14.4104 6.32887 14.3681C6.38406 14.3276 6.44104 14.2889 6.49982 14.252C6.52917 14.2336 6.56049 14.2153 6.59171 14.1987C6.65049 14.1636 6.71116 14.1324 6.77362 14.1029C6.80485 14.0882 6.83796 14.0735 6.87107 14.0606C6.93541 14.0329 6.99976 14.009 7.06589 13.9851C7.13024 13.9611 7.19638 13.9408 7.26431 13.9206C7.33053 13.9022 7.39856 13.8837 7.46469 13.869C7.50516 13.8598 7.54555 13.8506 7.58593 13.8433C7.61357 13.8377 7.64115 13.8322 7.66867 13.8267C7.68518 13.823 7.70358 13.8211 7.72197 13.8175C7.77348 13.8082 7.82858 13.7972 7.88557 13.788C7.92416 13.7807 7.96463 13.7751 8.00321 13.7696C8.10153 13.7531 8.20135 13.7476 8.30088 13.753C8.34431 13.7545 8.38745 13.7607 8.42956 13.7714C8.45085 13.775 8.47177 13.7805 8.49202 13.788C8.51313 13.7943 8.53347 13.803 8.55268 13.8138C8.5718 13.8217 8.58974 13.8322 8.60599 13.8451C8.61658 13.852 8.62644 13.8601 8.63542 13.869C8.65773 13.8847 8.67467 13.907 8.68388 13.9327C8.69309 13.9584 8.6941 13.9863 8.68684 14.0127Z" fill="#FF1E6E"/>
  <path d="M26.5533 13.7623C26.5493 13.7842 26.5418 13.8053 26.5313 13.8249C26.5274 13.837 26.5211 13.8483 26.5129 13.858C26.5056 13.8672 26.4963 13.8783 26.4872 13.8894C26.4536 13.9262 26.4153 13.9584 26.3732 13.9851C26.2023 14.0937 26.0002 13.9704 25.8476 13.8783C25.8201 13.8617 25.7925 13.8451 25.7668 13.8304C25.7153 13.7991 25.662 13.7696 25.6105 13.742H25.6087C25.5572 13.7125 25.5039 13.6868 25.4506 13.6629C25.3675 13.6243 25.2814 13.5923 25.1933 13.5671C25.1419 13.5523 24.4894 13.3793 24.3332 13.2338C24.3038 13.2061 24.2928 13.1822 24.302 13.1582C24.3044 13.149 24.3095 13.1406 24.3167 13.1343C24.3343 13.1201 24.3542 13.1089 24.3755 13.1011C24.7927 12.9428 25.344 13.0754 25.7704 13.1638C25.7961 13.1693 25.8273 13.1785 25.8641 13.1896C25.9046 13.2025 25.9469 13.2209 25.9946 13.2392C26.0111 13.2448 26.0258 13.2522 26.0424 13.2595H26.0442C26.0865 13.278 26.1307 13.3 26.1747 13.324C26.1968 13.335 26.2189 13.3479 26.2409 13.3608C26.2824 13.3853 26.3223 13.4123 26.3604 13.4418C26.4853 13.5358 26.5717 13.6481 26.5533 13.7623Z" fill="#FF1E6E"/>
  <path d="M8.60294 15.0662C8.58142 15.086 8.55873 15.1044 8.535 15.1214C8.52576 15.127 8.51661 15.1325 8.50925 15.138C8.49085 15.1472 8.47245 15.1583 8.45415 15.1675C8.43575 15.1767 8.41735 15.184 8.40084 15.1932C8.3732 15.2043 8.34933 15.2154 8.32726 15.2245C8.16007 15.2945 8.00016 15.3682 7.84392 15.451C7.74099 15.5044 7.64183 15.5615 7.54258 15.6242C7.39164 15.7194 7.24676 15.824 7.10878 15.9372C6.98746 16.0385 6.81839 16.1803 6.64932 16.0901C6.629 16.0802 6.6104 16.0672 6.59422 16.0514C6.57394 16.0328 6.55767 16.0102 6.54639 15.9851C6.5446 15.9777 6.54092 15.9685 6.53912 15.9611C6.53637 15.9528 6.5345 15.9441 6.53356 15.9354C6.52976 15.8497 6.55648 15.7655 6.60894 15.6978C6.62581 15.6734 6.64421 15.65 6.66404 15.6279C6.67412 15.6159 6.6852 15.6048 6.69715 15.5947C6.76697 15.5303 6.83867 15.4695 6.91396 15.4124C6.99416 15.3491 7.07761 15.2901 7.16397 15.2356C7.38404 15.0962 7.61966 14.9831 7.866 14.8986C7.92846 14.8765 7.99101 14.8581 8.05535 14.8397C8.09573 14.8286 8.15451 14.8102 8.22074 14.7955L8.27036 14.7844C8.30339 14.7789 8.33829 14.7734 8.3732 14.7697C8.48717 14.7605 8.59558 14.7789 8.63973 14.8765C8.65493 14.9078 8.65955 14.9433 8.65292 14.9775C8.64629 15.0117 8.62875 15.0428 8.60294 15.0662Z" fill="#FF1E6E"/>
  <path d="M4.38622 18.4448C4.34368 18.4724 4.29366 18.4862 4.243 18.4842C4.19234 18.4822 4.14354 18.4646 4.10328 18.4337C4.0666 18.4114 4.03472 18.382 4.0095 18.3472C3.91242 18.2179 3.82869 18.0791 3.75958 17.9328C3.58312 17.5771 3.47644 17.1908 3.44531 16.7948C3.44581 16.7217 3.47502 16.6517 3.52662 16.6C3.57821 16.5483 3.64803 16.5191 3.72099 16.5186C3.79365 16.52 3.8629 16.5496 3.91429 16.6011C3.96567 16.6525 3.99521 16.722 3.99667 16.7948C3.99846 16.8261 4.00214 16.8574 4.00582 16.8887V16.8905C4.00762 16.8997 4.00762 16.9071 4.0095 16.9145C4.00984 16.9219 4.01108 16.9294 4.01318 16.9365C4.02233 17.001 4.03526 17.0636 4.04997 17.1262C4.07783 17.2434 4.11216 17.359 4.15281 17.4724C4.16206 17.4945 4.17121 17.5185 4.18045 17.5406C4.18044 17.5425 4.18107 17.5445 4.18225 17.5461C4.1896 17.5608 4.20612 17.5977 4.208 17.6032C4.21536 17.6179 4.22269 17.6326 4.22999 17.6474C4.24659 17.6824 4.26499 17.7173 4.28329 17.7523C4.33835 17.851 4.39911 17.9463 4.46528 18.0378C4.47097 18.0483 4.47773 18.0582 4.48547 18.0673C4.52143 18.1307 4.53112 18.2057 4.51257 18.2763C4.49403 18.3468 4.44871 18.4073 4.38622 18.4448Z" fill="#FF1E6E"/>
  <path d="M3.59787 18.7327C3.59318 18.7957 3.56649 18.855 3.52249 18.9003C3.47494 18.9469 3.41228 18.975 3.34589 18.9794C3.27949 18.9838 3.21374 18.9642 3.16049 18.9242C3.15084 18.9168 3.14164 18.9088 3.13294 18.9003C3.02076 18.7799 2.92101 18.6485 2.83518 18.508C2.66251 18.234 2.54513 17.9287 2.48969 17.6094C2.46423 17.4721 2.45068 17.3329 2.44922 17.1932C2.44922 17.12 2.47828 17.0497 2.52998 16.9979C2.58168 16.9461 2.65178 16.917 2.7249 16.917C2.79801 16.917 2.86811 16.9461 2.91981 16.9979C2.97151 17.0497 3.00057 17.12 3.00057 17.1932C3.00057 17.2558 3.00425 17.3203 3.00973 17.3829V17.3921C3.01129 17.4006 3.01192 17.4092 3.01161 17.4179C3.01161 17.4179 3.01341 17.4271 3.01529 17.4418C3.02076 17.475 3.02633 17.5081 3.03369 17.5412C3.06091 17.6711 3.09839 17.7986 3.14577 17.9224V17.9243L3.15313 17.939C3.15409 17.9407 3.1547 17.9426 3.15492 17.9445C3.1586 17.9537 3.16227 17.963 3.16596 17.9703C3.18068 17.9998 3.19539 18.0292 3.21011 18.0587C3.23766 18.1121 3.267 18.1655 3.29833 18.2171C3.302 18.2226 3.3038 18.2263 3.30748 18.2318C3.32588 18.2594 3.34427 18.287 3.36267 18.3147C3.37213 18.3301 3.38256 18.3448 3.3939 18.3589L3.39937 18.3644C3.39937 18.3662 3.40126 18.3662 3.40126 18.3681C3.40305 18.3699 3.40305 18.3699 3.40305 18.3718C3.44164 18.4196 3.48211 18.4638 3.52249 18.5099C3.5555 18.5444 3.57895 18.5869 3.59051 18.6333V18.635C3.60121 18.6664 3.60374 18.7001 3.59787 18.7327Z" fill="#FF1E6E"/>
  <path d="M5.28712 17.6521C5.235 17.7031 5.16508 17.7315 5.09229 17.7315C5.0195 17.7315 4.94959 17.7031 4.89747 17.6521C4.83183 17.5873 4.77828 17.5112 4.73935 17.4275C4.73434 17.4186 4.73005 17.4094 4.72652 17.3998C4.67608 17.2925 4.63488 17.181 4.6034 17.0666C4.55105 16.8877 4.51052 16.7056 4.48207 16.5214C4.46615 16.4492 4.47589 16.3736 4.50962 16.3078C4.53693 16.261 4.57736 16.2232 4.62592 16.1993C4.67448 16.1753 4.72901 16.1663 4.7827 16.1731C4.83638 16.18 4.8869 16.2025 4.92789 16.238C4.96888 16.2734 4.99855 16.3201 5.01323 16.3723V16.3741C5.04093 16.5493 5.07899 16.7227 5.1272 16.8934C5.14192 16.9413 5.15664 16.9892 5.17315 17.0352C5.1805 17.0573 5.18966 17.0813 5.19702 17.1052C5.19702 17.107 5.19881 17.107 5.19881 17.1089C5.2007 17.1107 5.2007 17.1126 5.20258 17.1163C5.20438 17.1218 5.20806 17.1291 5.20994 17.1347C5.20763 17.1326 5.20574 17.1301 5.20438 17.1273C5.20805 17.1328 5.20994 17.1384 5.21353 17.1439C5.22457 17.1641 5.23381 17.1826 5.24664 17.2028C5.25022 17.2111 5.25451 17.2191 5.25948 17.2267L5.26136 17.2286V17.2304L5.26684 17.236C5.26684 17.2378 5.26683 17.2378 5.26872 17.2396C5.26872 17.2414 5.27051 17.2414 5.27051 17.2433C5.27608 17.2488 5.28155 17.2561 5.28712 17.2617C5.33752 17.3141 5.36564 17.3841 5.36564 17.4569C5.36564 17.5297 5.33752 17.5997 5.28712 17.6521Z" fill="#FF1E6E"/>
  <path d="M27.5814 6.99754C27.5108 7.01576 27.4359 7.00578 27.3724 6.96971C27.309 6.93365 27.262 6.87432 27.2414 6.80422C27.1697 6.56113 27.098 6.31619 27.0024 6.07863V6.07678C27.0007 6.07678 27.0006 6.07678 27.0006 6.07494C27.0006 6.0731 26.9988 6.0731 26.9988 6.07125C26.9945 6.06748 26.9919 6.06222 26.9914 6.05655C26.9896 6.05182 26.9883 6.04686 26.9877 6.04181C26.9749 6.0142 26.9621 5.9884 26.9491 5.96079C26.9253 5.90923 26.8977 5.85951 26.8702 5.81162C26.8407 5.7619 26.8113 5.71401 26.7783 5.66797C26.7636 5.64401 26.747 5.62378 26.7304 5.60166V5.59986C26.7213 5.5888 26.712 5.57958 26.7029 5.56852C26.6529 5.51588 26.625 5.44602 26.625 5.37336C26.625 5.30069 26.6529 5.23079 26.7029 5.17815C26.7284 5.15233 26.7587 5.13185 26.7922 5.11786C26.8256 5.10387 26.8615 5.09668 26.8977 5.09668C26.934 5.09668 26.9698 5.10387 27.0033 5.11786C27.0367 5.13185 27.0671 5.15233 27.0925 5.17815C27.2713 5.39303 27.4152 5.63477 27.5189 5.89448C27.6169 6.1439 27.7016 6.39838 27.7725 6.65684C27.7914 6.72739 27.7821 6.80258 27.7464 6.86626C27.7107 6.92995 27.6514 6.97708 27.5814 6.99754Z" fill="#FF1E6E"/>
  <path d="M28.7798 6.46759C28.7982 6.62045 28.6401 6.73645 28.5041 6.74382C28.4316 6.74172 28.3628 6.71196 28.3115 6.6606C28.2602 6.60925 28.2305 6.54019 28.2284 6.46759V6.45285C28.2269 6.43797 28.2244 6.42322 28.221 6.40865C28.2156 6.37367 28.2101 6.34053 28.2027 6.30736C28.1898 6.2374 28.1733 6.16924 28.1549 6.10113C28.1204 5.96357 28.0774 5.82828 28.0263 5.69601C28.019 5.67389 28.0097 5.64997 28.0006 5.62785C27.9981 5.62386 27.9962 5.61951 27.9951 5.61494C27.9925 5.611 27.9906 5.60663 27.9895 5.60204C27.9877 5.60024 27.9858 5.59836 27.9858 5.59656L27.9638 5.54683C27.938 5.49159 27.9105 5.43632 27.8811 5.38475C27.8554 5.34056 27.8296 5.30004 27.8002 5.2577V5.25586L27.7984 5.25401C27.7966 5.25217 27.7947 5.25032 27.7947 5.24848C27.7945 5.24848 27.7942 5.24844 27.794 5.24835C27.7938 5.24826 27.7936 5.24812 27.7934 5.24794C27.7933 5.24777 27.7932 5.24758 27.7931 5.24736C27.793 5.24714 27.7929 5.24688 27.7929 5.24664L27.7819 5.23562C27.7687 5.21943 27.7546 5.20406 27.7396 5.18959C27.6877 5.13783 27.6584 5.06753 27.6582 4.99415C27.658 4.92077 27.687 4.85033 27.7386 4.79831C27.7903 4.74629 27.8605 4.71698 27.9337 4.7168C28.0069 4.71662 28.0772 4.74556 28.1292 4.79732C28.32 5.00808 28.4635 5.25737 28.55 5.5284C28.6668 5.83019 28.744 6.1459 28.7798 6.46759Z" fill="#FF1E6E"/>
  <path d="M26.5336 7.31554C26.463 7.33439 26.3878 7.32469 26.3242 7.28852C26.2606 7.25236 26.2137 7.19262 26.1936 7.12218C26.1736 7.0328 26.1459 6.94532 26.1109 6.86069C26.0889 6.8018 26.0649 6.74102 26.0411 6.68207C26.0374 6.67286 26.0337 6.66368 26.0282 6.65262C26.0268 6.64815 26.025 6.64383 26.0228 6.63972C26.0221 6.635 26.0202 6.63054 26.0172 6.62682C26.008 6.60474 25.997 6.58078 25.9878 6.55871C25.9045 6.34966 25.8011 6.14922 25.6791 5.96021C25.6606 5.92889 25.6484 5.89423 25.6433 5.8582C25.6382 5.82217 25.6403 5.78548 25.6494 5.75025C25.6585 5.71503 25.6744 5.68196 25.6963 5.65292C25.7182 5.62388 25.7455 5.59945 25.7769 5.58103C25.8082 5.56261 25.8428 5.55053 25.8788 5.54556C25.9148 5.54058 25.9514 5.54281 25.9865 5.55203C26.0216 5.56125 26.0546 5.57731 26.0835 5.59933C26.1124 5.62134 26.1368 5.64886 26.155 5.6803C26.2802 5.87447 26.3861 6.08049 26.4711 6.29538C26.5782 6.513 26.6637 6.74059 26.7266 6.97489C26.7444 7.04564 26.7343 7.12054 26.6983 7.18399C26.6624 7.24744 26.6034 7.29456 26.5336 7.31554Z" fill="#FF1E6E"/>
  <path fill-rule="evenodd" clip-rule="evenodd" d="M14.4004 34.5613C15.4352 33.9278 16.2121 32.947 16.593 31.7934C16.8312 31.0809 16.9107 30.3246 16.8259 29.5779C16.7411 28.8312 16.4942 28.1122 16.1023 27.4715L11.186 19.424C10.7221 18.6726 10.0745 18.0522 9.30465 17.6214C8.53478 17.1906 7.66802 16.9636 6.78623 16.9619C6.70896 16.9619 6.63367 16.9638 6.5565 16.9674C6.40762 16.9729 6.25874 16.9877 6.10987 17.008C6.06148 17.0142 6.01444 17.0218 5.96646 17.0296C5.95794 17.0309 5.94939 17.0323 5.9408 17.0337C5.90401 17.0392 5.8691 17.0448 5.8324 17.0521C5.76985 17.0632 5.70739 17.0761 5.64673 17.0908C5.62997 17.0942 5.61341 17.0986 5.5971 17.1037C5.52549 17.1184 5.45558 17.1387 5.38577 17.159C5.33794 17.1718 5.2884 17.1866 5.24057 17.2031L5.23725 17.204C5.21816 17.2093 5.19899 17.2146 5.1799 17.2216C5.16816 17.2257 5.15635 17.2298 5.14451 17.234C5.0879 17.2538 5.03063 17.2739 4.97593 17.2952C4.88951 17.3265 4.80318 17.3615 4.72044 17.4002C4.66902 17.4205 4.61939 17.4444 4.56977 17.4683C4.47052 17.5144 4.37307 17.5659 4.27758 17.6193L4.22787 17.647C4.21606 17.6539 4.20441 17.6608 4.19287 17.6676C4.16493 17.684 4.13762 17.7 4.11031 17.7169L3.99266 17.7888L3.96879 17.8035L3.75746 17.9324L3.29432 18.216L3.25941 18.2381L3.06091 18.3614L2.99656 18.4001C2.94873 18.4296 2.90099 18.459 2.85325 18.4922C2.84953 18.495 2.8458 18.4973 2.84207 18.4997C2.83844 18.5019 2.8348 18.5042 2.83117 18.5069C2.57172 18.6778 2.32924 18.8733 2.10707 19.0907C2.09577 19.0995 2.08529 19.1094 2.07575 19.1202C1.68524 19.5039 1.35939 19.9486 1.11088 20.4368C0.706026 21.2241 0.51029 22.1025 0.542479 22.9875C0.574667 23.8725 0.833697 24.7343 1.29467 25.4899L6.21091 33.5392C6.67528 34.2901 7.3229 34.9101 8.09273 35.3405C8.86257 35.771 9.72921 35.9978 10.6108 35.9995C11.5551 35.9995 12.4811 35.7382 13.2866 35.2445L14.4004 34.5613ZM3.76396 19.6573L4.87651 18.9749C6.60797 17.9129 8.87086 18.4584 9.93074 20.1933L14.8477 28.2418C15.9076 29.9767 15.3631 32.2441 13.6317 33.3061L12.5191 33.9885C10.7877 35.0505 8.52477 34.505 7.46488 32.7701L2.54793 24.7216C1.48804 22.9867 2.0325 20.7193 3.76396 19.6573Z" fill="#FF1E6E"/>
  <path d="M10.2654 5.43021C10.2657 5.44069 10.265 5.45118 10.2635 5.46155V5.46339C10.2617 5.47397 10.2593 5.48442 10.2561 5.49468C10.2506 5.51312 10.2433 5.52967 10.2359 5.54809C10.2267 5.56284 10.2175 5.57938 10.2065 5.59413C10.2065 5.59437 10.2065 5.59458 10.2064 5.59481C10.2063 5.59503 10.2061 5.59526 10.206 5.59543C10.2058 5.59561 10.2056 5.59575 10.2054 5.59584C10.2052 5.59593 10.2049 5.59598 10.2047 5.59597C10.1538 5.65609 10.0921 5.70607 10.0227 5.7433C9.94185 5.78934 9.85364 5.82432 9.78194 5.8593C9.7724 5.86351 9.76319 5.86844 9.75439 5.87404C9.17181 6.15944 8.57262 6.40254 7.97909 6.66037C7.96617 6.66586 7.95513 6.67144 7.9423 6.67692C7.89615 6.68981 7.84865 6.69723 7.80078 6.69904C7.80389 6.66809 7.8088 6.63734 7.8155 6.60696C7.83416 6.48373 7.86118 6.36191 7.89635 6.24235C8.01554 5.82697 8.21058 5.43735 8.47158 5.09324C8.52112 5.02583 8.57514 4.96184 8.63329 4.90172C8.63658 4.90028 8.63921 4.89764 8.64064 4.89435C8.69059 4.84232 8.75055 4.80099 8.81689 4.77282C8.88323 4.74466 8.95456 4.73025 9.02661 4.73047C9.0611 4.73088 9.09552 4.73395 9.12954 4.73964H9.1369C9.38488 4.79242 9.62385 4.88115 9.84628 5.00301C9.95501 5.05075 10.057 5.11267 10.1495 5.18716L10.1551 5.19265C10.1624 5.20186 10.1716 5.20924 10.1789 5.21845C10.1915 5.23109 10.2032 5.24463 10.2139 5.25896C10.2161 5.26106 10.218 5.26356 10.2194 5.26634C10.2285 5.2788 10.2359 5.29242 10.2414 5.30684C10.2485 5.32093 10.2541 5.33574 10.258 5.35104C10.2617 5.36672 10.2636 5.3828 10.2635 5.39892C10.265 5.40927 10.2657 5.41974 10.2654 5.43021Z" fill="black"/>
  <path d="M16.7054 12.8555C16.691 12.8699 16.6775 12.8853 16.665 12.9015C16.6779 12.8868 16.6926 12.8702 16.7073 12.8555H16.7054ZM13.7852 14.6546C13.8003 14.6521 13.8158 14.6515 13.8311 14.6528C13.8854 14.6643 13.9356 14.6904 13.9763 14.7283C13.9371 14.689 13.8872 14.6621 13.8329 14.6509C13.8169 14.6492 13.8007 14.6504 13.7852 14.6546Z" fill="black"/>
  <path d="M19.6302 13.8984C19.6198 14.0359 19.5742 14.1685 19.4979 14.2833C19.4467 14.3645 19.3882 14.4409 19.3233 14.5116C19.231 14.6127 19.1308 14.7063 19.0237 14.7915C18.3456 15.3311 17.7519 15.1414 17.1362 14.8118C17.0757 14.7768 17.0131 14.7437 16.9525 14.7087H16.9507C16.89 14.6719 16.8275 14.6369 16.765 14.6019H16.7632C16.7338 14.5816 16.7025 14.565 16.6713 14.5466C16.6713 14.5468 16.6713 14.5471 16.6712 14.5473C16.6711 14.5475 16.6709 14.5477 16.6708 14.5479C16.6706 14.5481 16.6704 14.5482 16.6702 14.5483C16.67 14.5484 16.6697 14.5485 16.6695 14.5484C16.504 14.7676 16.3681 15.0015 16.1861 15.2022C16.1696 15.2188 16.153 15.2372 16.1347 15.2556C15.966 15.4336 15.7517 15.5616 15.5153 15.6258C15.4252 15.651 15.3329 15.6677 15.2396 15.6755C15.1503 15.681 15.0606 15.681 14.9713 15.6755C14.9271 15.6718 14.8849 15.6681 14.8408 15.6626C14.8114 15.6589 14.7838 15.6552 14.7544 15.6497C14.3758 15.5852 13.9421 15.4379 13.7602 15.0696C13.7106 14.9665 13.6333 14.7216 13.7528 14.6644C13.7621 14.6584 13.773 14.6552 13.7841 14.6553C13.7992 14.6528 13.8147 14.6522 13.83 14.6534C13.8843 14.6649 13.9345 14.691 13.9752 14.729C14.0837 14.8367 14.2005 14.9358 14.3244 15.0254C14.8996 15.298 15.4895 14.9886 15.8094 14.5024C15.8485 14.4423 15.8835 14.3795 15.9141 14.3146C15.9458 14.2506 15.9722 14.1841 15.9931 14.1157C16.0102 14.0613 16.0243 14.0059 16.0354 13.95C16.0482 13.8929 16.0575 13.834 16.0648 13.775C16.0899 13.606 16.0575 13.4335 15.973 13.2852C15.9624 13.2691 15.9507 13.2537 15.938 13.2392C15.9258 13.2232 15.9116 13.209 15.8957 13.1968C15.867 13.1668 15.8335 13.1419 15.7965 13.1231C15.7208 13.0831 15.6405 13.0522 15.5576 13.031C15.3798 13.0026 15.2137 12.9248 15.0779 12.8064C15.0566 12.7824 15.0375 12.7565 15.0209 12.729C15.003 12.6978 14.9877 12.6652 14.975 12.6314C14.939 12.5441 14.927 12.4488 14.9401 12.3552C14.9429 12.3289 14.9484 12.303 14.9566 12.2779C14.9676 12.2482 14.9804 12.2193 14.9952 12.1913L14.997 12.1895C15.0088 12.1671 15.0229 12.1461 15.0393 12.1269C15.0535 12.1075 15.0688 12.0891 15.0853 12.0716C15.4638 11.6775 16.46 11.5855 16.9617 11.8157C17.005 11.8355 17.0462 11.8595 17.0848 11.8875C17.1404 11.9212 17.1859 11.9692 17.2166 12.0265C17.2474 12.0839 17.2621 12.1484 17.2594 12.2134C17.2578 12.2376 17.2541 12.2617 17.2484 12.2853C17.2458 12.299 17.2421 12.3125 17.2374 12.3257C17.1803 12.4597 17.0842 12.5733 16.9617 12.6517C16.901 12.6959 16.8404 12.7383 16.7853 12.7861C16.7577 12.808 16.7313 12.8313 16.7062 12.8561H16.7043C16.6899 12.8706 16.6764 12.8859 16.6639 12.9021C16.6452 12.9242 16.6279 12.9476 16.6124 12.9721C16.5984 12.9938 16.5862 13.0166 16.5757 13.0403C16.4581 13.3073 16.6162 13.5853 16.8404 13.8082C16.879 13.845 16.9175 13.8818 16.9598 13.9168C17.0003 13.9518 17.0407 13.9831 17.083 14.0144C17.1455 14.0605 17.2061 14.101 17.263 14.136C17.5356 14.3059 17.8542 14.3864 18.1746 14.3661C18.6341 14.3385 18.8234 14.0973 19.1359 13.8082C19.2737 13.6811 19.4611 13.5927 19.5603 13.6701C19.5701 13.6761 19.5783 13.6843 19.5843 13.694C19.6234 13.7545 19.6397 13.827 19.6302 13.8984Z" fill="black"/>
  <path d="M22.5294 4.00277C22.5006 4.02605 22.4665 4.04186 22.4301 4.04881C22.3706 4.06006 22.3105 4.06745 22.25 4.07093C22.2261 4.07277 22.2023 4.07646 22.1784 4.0783C21.9487 4.10222 21.7171 4.12434 21.4854 4.1354C21.4841 4.1363 21.4825 4.13675 21.4809 4.13675C21.4792 4.13675 21.4776 4.1363 21.4763 4.1354H21.4745C21.4743 4.13565 21.474 4.13585 21.4737 4.13599C21.4734 4.13612 21.473 4.13617 21.4727 4.13617C21.4724 4.13617 21.4719 4.13612 21.4716 4.13599C21.4713 4.13585 21.4711 4.13565 21.4708 4.1354C21.4065 4.13908 21.3421 4.14273 21.276 4.14642H21.2595C20.8877 4.16155 20.5153 4.14058 20.1475 4.08379C20.1373 4.08125 20.1268 4.07942 20.1163 4.0783C19.9678 4.06059 19.8235 4.01695 19.69 3.94936C19.6826 3.94568 19.677 3.94203 19.6697 3.93835C19.6559 3.93126 19.6429 3.9226 19.6311 3.91254C19.5697 3.86747 19.5271 3.8012 19.5116 3.72654C19.5086 3.71079 19.5074 3.69474 19.508 3.67871C19.5077 3.67068 19.5083 3.66265 19.5098 3.65474C19.5245 3.45032 19.7433 3.21644 19.8682 3.08939C19.9729 2.97997 20.0908 2.8841 20.2192 2.80399C20.2303 2.79662 20.2431 2.78924 20.2541 2.78187C20.3895 2.69292 20.5435 2.63649 20.7042 2.617C20.8649 2.59751 21.0278 2.61549 21.1804 2.66951C21.208 2.68057 21.2374 2.69163 21.265 2.70454C21.637 2.87145 21.9725 3.11052 22.2519 3.40797C22.3621 3.52519 22.4623 3.65147 22.5514 3.78549C22.5719 3.81915 22.5809 3.8586 22.5769 3.89784C22.5729 3.93707 22.5562 3.97393 22.5294 4.00277Z" fill="black"/>
  <path d="M13.268 11.2094C13.2619 11.2274 13.2539 11.2447 13.2441 11.261C13.2047 11.3272 13.1427 11.3769 13.0696 11.4009C13.0493 11.4084 13.0283 11.4139 13.007 11.4175C12.9849 11.4211 12.9611 11.4248 12.9372 11.4267C12.9133 11.4285 12.8895 11.4304 12.8655 11.4304C12.4428 11.4304 11.9944 11.132 11.6232 10.9921C11.579 10.9755 11.5331 10.9608 11.4871 10.9461C11.4265 10.9276 11.3659 10.9129 11.3033 10.8981C11.2666 10.8908 11.2298 10.8834 11.193 10.8779C11.0189 10.8486 10.8421 10.8375 10.6656 10.8448C10.6387 10.8435 10.6117 10.8442 10.5848 10.8466C10.5278 10.8503 10.469 10.854 10.4119 10.8614C10.4065 10.8614 10.4028 10.8632 10.3973 10.8632C10.2246 10.8816 10.004 10.9902 9.83672 10.9663C9.65114 10.9387 9.66029 10.8061 9.75775 10.7177C9.77531 10.7009 9.79509 10.6866 9.81653 10.6753C9.82757 10.6698 9.8404 10.6643 9.85144 10.6588C10.7021 10.2875 11.6575 10.2346 12.5439 10.5096C12.7712 10.562 12.9832 10.6667 13.1633 10.8153C13.1817 10.8332 13.1984 10.853 13.2129 10.8742C13.2291 10.8945 13.2427 10.9168 13.2534 10.9405C13.2551 10.9461 13.2588 10.9534 13.2606 10.9608C13.2636 10.9673 13.2661 10.9741 13.268 10.981C13.2947 11.0548 13.2947 11.1356 13.268 11.2094Z" fill="black"/>
  <path d="M22.3689 9.37134C22.3687 9.38852 22.3649 9.40547 22.3578 9.42107C22.3492 9.44058 22.3367 9.45813 22.3211 9.47264C22.2402 9.55181 22.084 9.48366 21.9884 9.47632C21.3672 9.41185 20.814 9.67518 20.3343 10.038C20.2719 10.084 20.2112 10.1319 20.1523 10.1816C20.1138 10.2129 20.0734 10.2479 20.0311 10.2847C20.0109 10.3031 19.9888 10.3215 19.9668 10.3381C19.9429 10.3565 19.9208 10.3731 19.8969 10.3897C19.8331 10.4508 19.7507 10.4888 19.6628 10.4978C19.575 10.5068 19.4866 10.4863 19.4117 10.4394C19.1912 10.2847 19.2629 9.98269 19.4283 9.80772C19.4404 9.79284 19.4539 9.77927 19.4687 9.76721C19.5374 9.70939 19.6092 9.6553 19.6837 9.60518C19.7936 9.52938 19.9084 9.46109 20.0274 9.40079C20.0955 9.36766 20.1635 9.33632 20.2333 9.30872C20.6169 9.15324 21.0238 9.06301 21.437 9.04171C21.698 9.02327 22.0105 8.99751 22.2311 9.16692C22.2482 9.17954 22.2642 9.19371 22.2788 9.20927C22.2872 9.21679 22.2952 9.22479 22.3027 9.23323C22.3257 9.25562 22.3439 9.28258 22.356 9.3124C22.3646 9.33084 22.369 9.35098 22.3689 9.37134Z" fill="black"/>
  <path d="M26.8742 11.6916C26.8541 11.7029 26.8332 11.7128 26.8117 11.7211C26.7459 11.7454 26.6761 11.7573 26.6059 11.756C26.5131 11.7535 26.4207 11.7417 26.3302 11.7211C26.2383 11.7008 26.1464 11.6787 26.0638 11.6677C25.9903 11.6566 25.9167 11.6474 25.8414 11.6418C25.7552 11.6348 25.6687 11.6323 25.5822 11.6345C25.5393 11.633 25.4963 11.6342 25.4536 11.6382C25.4095 11.64 25.3672 11.6437 25.3231 11.6492C25.3126 11.649 25.3022 11.6496 25.2918 11.6511C25.2459 11.6547 25.1982 11.6621 25.1503 11.6695C25.1026 11.6769 25.0566 11.6842 25.0107 11.6934C24.9776 11.7008 24.9463 11.7082 24.9132 11.7155C24.8618 11.7284 24.8103 11.7431 24.7571 11.7579C24.5814 11.8192 24.3947 11.8425 24.2093 11.826C24.1211 11.8088 24.0414 11.7621 23.9833 11.6934C23.9687 11.6753 23.9564 11.6555 23.9466 11.6345C23.9429 11.6248 23.9398 11.615 23.9373 11.605C23.9301 11.5754 23.9334 11.5441 23.9466 11.5166C23.9593 11.4978 23.9748 11.4811 23.9925 11.4669C24.0248 11.4467 24.0602 11.4317 24.0972 11.4227C24.8011 11.2386 25.4922 11.0157 26.2274 11.0176C26.2843 11.0176 26.3431 11.0176 26.4056 11.0194C26.4116 11.0176 26.418 11.0176 26.424 11.0194C26.446 11.0194 26.468 11.0194 26.4901 11.0213C26.5563 11.0228 26.6222 11.0308 26.6868 11.0452C26.7767 11.0586 26.8619 11.0941 26.9349 11.1483C26.9408 11.1527 26.9464 11.1576 26.9514 11.1631C26.9566 11.1664 26.961 11.1708 26.9643 11.176C27.0002 11.2124 27.0269 11.257 27.0422 11.3059C27.0574 11.3548 27.0608 11.4066 27.052 11.4571C27.0432 11.5075 27.0224 11.5551 26.9915 11.5959C26.9606 11.6367 26.9204 11.6695 26.8742 11.6916Z" fill="black"/>
  <path d="M27.2514 12.9396C27.2355 12.9541 27.2183 12.967 27.1999 12.9783C27.1713 12.9964 27.1404 13.0107 27.108 13.0206C27.0861 13.028 27.064 13.0335 27.0419 13.039C26.9842 13.0485 26.9254 13.0498 26.8673 13.0427C26.8251 13.0372 26.7846 13.028 26.7424 13.0206C26.6596 13.0022 26.5788 12.9819 26.4961 12.9599C26.2903 12.9046 26.0862 12.8402 25.8767 12.8033C25.5117 12.7328 25.1384 12.7154 24.7685 12.7517C24.7575 12.7536 24.7446 12.7536 24.7317 12.7554C24.722 12.757 24.7122 12.7576 24.7023 12.7573C24.6362 12.7619 24.5699 12.7619 24.5038 12.7573C24.4729 12.7537 24.4422 12.7482 24.4119 12.7407C24.3972 12.7352 24.3807 12.7297 24.3679 12.7241C24.3476 12.7149 24.329 12.7025 24.3127 12.6873C24.3059 12.6785 24.2998 12.6693 24.2943 12.6597C24.2921 12.6555 24.2903 12.6512 24.2888 12.6468C24.2838 12.637 24.2807 12.6264 24.2796 12.6155V12.61C24.2782 12.5902 24.2814 12.5704 24.2891 12.5522C24.2967 12.5339 24.3086 12.5178 24.3237 12.505C24.3456 12.4835 24.3711 12.466 24.3991 12.4534C24.4364 12.4351 24.4751 12.4197 24.5148 12.4074C24.57 12.3908 24.6233 12.3798 24.6583 12.3724C25.2716 12.2241 25.9084 12.2003 26.531 12.3024C26.5861 12.3116 26.6523 12.3227 26.7258 12.3392C26.7608 12.3466 26.7975 12.354 26.8343 12.3651C26.8544 12.3687 26.8728 12.3742 26.893 12.3798C26.9662 12.4008 27.037 12.4292 27.1044 12.4645C27.1364 12.4809 27.1666 12.5006 27.1945 12.5234C27.2336 12.554 27.2661 12.5922 27.29 12.6358C27.2955 12.6487 27.3011 12.6615 27.3048 12.6726C27.3255 12.7169 27.3316 12.7668 27.322 12.8149C27.3124 12.8629 27.2877 12.9066 27.2514 12.9396Z" fill="black"/>
  <path d="M8.71509 13.4813L8.7132 13.4831C8.70585 13.5093 8.6896 13.5321 8.66726 13.5476C8.53927 13.5997 8.40023 13.6188 8.26298 13.6029C8.14166 13.6047 8.02033 13.6047 7.899 13.6084C7.78324 13.6102 7.66568 13.6139 7.54983 13.6249C7.46718 13.6305 7.38444 13.6397 7.3017 13.6507C7.0016 13.7103 6.70756 13.7972 6.42325 13.9104C6.27437 13.9583 6.052 14.0098 5.95455 13.8441C5.86642 13.6968 5.96011 13.5605 6.08323 13.4611C6.09427 13.4537 6.10531 13.4445 6.11634 13.4371C6.16544 13.4021 6.21703 13.3707 6.27069 13.3432C6.81658 13.0633 7.4102 13.067 7.99825 13.1388C8.06448 13.1462 8.13242 13.1554 8.19864 13.1646C8.20411 13.1664 8.20968 13.1664 8.21704 13.1682C8.22987 13.1701 8.24638 13.1719 8.26298 13.1756C8.31443 13.1827 8.36536 13.1932 8.41545 13.2069C8.43099 13.2103 8.44633 13.2147 8.4614 13.2198C8.51868 13.2344 8.5733 13.2581 8.62319 13.2898H8.62499C8.639 13.2987 8.65194 13.3092 8.66358 13.3211C8.67461 13.3303 8.68377 13.3413 8.69481 13.3524V13.3542C8.70346 13.3651 8.70972 13.3776 8.7132 13.3911C8.72401 13.4201 8.72468 13.4519 8.71509 13.4813Z" fill="black"/>
  <path d="M8.71028 14.1572C8.70642 14.1705 8.70019 14.183 8.69188 14.194C8.67266 14.2228 8.64763 14.2473 8.61839 14.2658C8.55259 14.3089 8.47888 14.3383 8.40158 14.3524C8.29856 14.3726 8.18836 14.3782 8.08355 14.3892C8.07738 14.3888 8.0712 14.3895 8.06524 14.3911C8.03004 14.3939 7.99504 14.3989 7.96042 14.4058C7.93866 14.4081 7.91715 14.4124 7.89617 14.4187C7.85938 14.4279 7.82079 14.439 7.784 14.4519C7.531 14.5364 7.28517 14.641 7.04886 14.7649C6.8596 14.8588 6.63167 15.0338 6.41118 15.0282C6.25126 15.0227 6.06191 14.8662 6.1355 14.7152C6.14285 14.7023 6.15022 14.6912 6.15749 14.6802C6.16762 14.6683 6.17869 14.6572 6.1906 14.647C6.24211 14.5992 6.29721 14.555 6.35231 14.5126C6.4075 14.4721 6.46448 14.4334 6.52326 14.3966C6.5526 14.3782 6.58392 14.3598 6.61515 14.3432C6.67393 14.3082 6.7346 14.2769 6.79705 14.2474C6.82828 14.2327 6.86139 14.218 6.89451 14.2051C6.95885 14.1774 7.02319 14.1535 7.08933 14.1296C7.15367 14.1056 7.21982 14.0854 7.28774 14.0651C7.35397 14.0467 7.42199 14.0283 7.48813 14.0136C7.5286 14.0044 7.56898 13.9951 7.60937 13.9878C7.63701 13.9822 7.66459 13.9767 7.69211 13.9712C7.70862 13.9675 7.72702 13.9657 7.74541 13.962C7.79692 13.9528 7.85202 13.9418 7.909 13.9325C7.9476 13.9252 7.98806 13.9196 8.02665 13.9141C8.12496 13.8977 8.22479 13.8921 8.32431 13.8975C8.36775 13.899 8.41089 13.9052 8.453 13.916C8.47429 13.9195 8.4952 13.9251 8.51546 13.9325C8.53657 13.9389 8.55691 13.9475 8.57612 13.9583C8.59524 13.9662 8.61318 13.9768 8.62943 13.9896C8.64002 13.9966 8.64988 14.0046 8.65886 14.0136C8.68117 14.0293 8.69811 14.0515 8.70732 14.0772C8.71653 14.1029 8.71754 14.1309 8.71028 14.1572Z" fill="black"/>
  <path d="M26.5768 13.9068C26.5727 13.9287 26.5653 13.9498 26.5547 13.9694C26.5508 13.9815 26.5446 13.9928 26.5364 14.0026C26.529 14.0118 26.5198 14.0228 26.5106 14.0339C26.4771 14.0708 26.4387 14.103 26.3967 14.1297C26.2257 14.2383 26.0236 14.1149 25.8711 14.0228C25.8435 14.0062 25.816 13.9896 25.7902 13.9749C25.7387 13.9436 25.6854 13.9142 25.634 13.8866H25.6322C25.5807 13.8571 25.5274 13.8313 25.4741 13.8074C25.3909 13.7688 25.3049 13.7368 25.2168 13.7116C25.1654 13.6969 24.5129 13.5238 24.3566 13.3783C24.3273 13.3506 24.3162 13.3267 24.3254 13.3028C24.3278 13.2935 24.3329 13.2852 24.3401 13.2788C24.3578 13.2646 24.3776 13.2534 24.3989 13.2457C24.8161 13.0873 25.3674 13.2199 25.7939 13.3083C25.8196 13.3138 25.8508 13.323 25.8876 13.3341C25.928 13.347 25.9703 13.3654 26.0181 13.3838C26.0346 13.3894 26.0493 13.3967 26.0659 13.4041H26.0677C26.11 13.4225 26.1541 13.4446 26.1982 13.4685C26.2202 13.4795 26.2423 13.4924 26.2643 13.5053C26.3058 13.5298 26.3457 13.5568 26.3838 13.5864C26.5087 13.6803 26.5952 13.7926 26.5768 13.9068Z" fill="black"/>
  <path d="M8.62637 15.2107C8.60486 15.2305 8.58217 15.2489 8.55844 15.266C8.5492 15.2715 8.54004 15.277 8.53269 15.2825C8.51429 15.2917 8.49589 15.3028 8.47759 15.312C8.45919 15.3212 8.44078 15.3286 8.42428 15.3378C8.39664 15.3488 8.37277 15.3599 8.3507 15.3691C8.18351 15.4391 8.0236 15.5127 7.86736 15.5956C7.76443 15.649 7.66527 15.7061 7.56602 15.7687C7.41508 15.8639 7.2702 15.9685 7.13222 16.0818C7.0109 16.183 6.84183 16.3248 6.67276 16.2346C6.65244 16.2248 6.63384 16.2117 6.61766 16.1959C6.59738 16.1773 6.5811 16.1548 6.56983 16.1296C6.56803 16.1223 6.56435 16.113 6.56256 16.1057C6.55981 16.0973 6.55794 16.0887 6.557 16.0799C6.5532 15.9943 6.57992 15.9101 6.63238 15.8423C6.64925 15.8179 6.66765 15.7945 6.68748 15.7724C6.69756 15.7604 6.70864 15.7493 6.72059 15.7393C6.79041 15.6748 6.86211 15.614 6.9374 15.5569C7.0176 15.4936 7.10105 15.4346 7.18741 15.3801C7.40747 15.2407 7.6431 15.1276 7.88944 15.0431C7.95189 15.021 8.01445 15.0026 8.07879 14.9842C8.11917 14.9732 8.17795 14.9547 8.24418 14.94L8.2938 14.929C8.32682 14.9234 8.36173 14.9179 8.39664 14.9142C8.51061 14.905 8.61902 14.9234 8.66317 15.021C8.67837 15.0524 8.68299 15.0878 8.67636 15.122C8.66972 15.1562 8.65219 15.1874 8.62637 15.2107Z" fill="black"/>
  <path d="M4.40966 18.5883C4.36712 18.616 4.31709 18.6297 4.26644 18.6278C4.21578 18.6258 4.16697 18.6081 4.12671 18.5773C4.09003 18.5549 4.05816 18.5255 4.03294 18.4907C3.93586 18.3614 3.85212 18.2226 3.78301 18.0764C3.60655 17.7207 3.49987 17.3343 3.46875 16.9383C3.46925 16.8652 3.49846 16.7953 3.55005 16.7436C3.60165 16.6919 3.67147 16.6626 3.74443 16.6621C3.81708 16.6636 3.88634 16.6931 3.93772 16.7446C3.98911 16.7961 4.01864 16.8655 4.0201 16.9383C4.0219 16.9696 4.02558 17.0009 4.02926 17.0322V17.0341C4.03105 17.0433 4.03106 17.0506 4.03294 17.058C4.03328 17.0655 4.03452 17.0729 4.03662 17.0801C4.04577 17.1446 4.05869 17.2072 4.07341 17.2698C4.10127 17.387 4.1356 17.5026 4.17625 17.616C4.18549 17.6381 4.19464 17.662 4.20389 17.6841C4.20388 17.6861 4.20451 17.688 4.20568 17.6896C4.21304 17.7044 4.22955 17.7412 4.23144 17.7467C4.2388 17.7614 4.24613 17.7762 4.25342 17.7909C4.27003 17.8259 4.28843 17.8609 4.30673 17.8959C4.36178 17.9945 4.42255 18.0898 4.48872 18.1814C4.4944 18.1919 4.50117 18.2017 4.50891 18.2108C4.54487 18.2743 4.55456 18.3493 4.53601 18.4198C4.51747 18.4904 4.47214 18.5509 4.40966 18.5883Z" fill="black"/>
  <path d="M3.62131 18.8763C3.61661 18.9393 3.58993 18.9986 3.54593 19.0439C3.49838 19.0905 3.43572 19.1186 3.36932 19.1229C3.30293 19.1273 3.23717 19.1078 3.18392 19.0678C3.17427 19.0604 3.16508 19.0524 3.15637 19.0439C3.0442 18.9235 2.94444 18.7921 2.85862 18.6516C2.68594 18.3776 2.56857 18.0722 2.51313 17.753C2.48766 17.6157 2.47412 17.4764 2.47266 17.3368C2.47266 17.2635 2.50172 17.1933 2.55342 17.1415C2.60512 17.0897 2.67522 17.0605 2.74833 17.0605C2.82145 17.0605 2.89155 17.0897 2.94325 17.1415C2.99494 17.1933 3.02401 17.2635 3.02401 17.3368C3.02401 17.3994 3.02769 17.4638 3.03316 17.5265V17.5356C3.03473 17.5441 3.03536 17.5528 3.03505 17.5614C3.03505 17.5614 3.03685 17.5706 3.03873 17.5854C3.0442 17.6185 3.04976 17.6517 3.05712 17.6848C3.08435 17.8146 3.12183 17.9421 3.16921 18.066V18.0678L3.17657 18.0826C3.17752 18.0843 3.17814 18.0861 3.17836 18.0881C3.18204 18.0973 3.18571 18.1065 3.1894 18.1139C3.20412 18.1433 3.21883 18.1728 3.23355 18.2023C3.2611 18.2557 3.29044 18.3091 3.32176 18.3606C3.32544 18.3662 3.32724 18.3698 3.33092 18.3754C3.34931 18.403 3.36771 18.4306 3.38611 18.4583C3.39557 18.4736 3.406 18.4884 3.41733 18.5024L3.42281 18.5079C3.42281 18.5098 3.42469 18.5098 3.42469 18.5116C3.42649 18.5135 3.42649 18.5135 3.42649 18.5153C3.46508 18.5632 3.50555 18.6074 3.54593 18.6534C3.57894 18.6879 3.60238 18.7305 3.61395 18.7768V18.7786C3.62465 18.81 3.62717 18.8436 3.62131 18.8763Z" fill="black"/>
  <path d="M5.31055 17.7957C5.25843 17.8466 5.18852 17.8751 5.11573 17.8751C5.04294 17.8751 4.97303 17.8466 4.92091 17.7957C4.85527 17.7308 4.80172 17.6548 4.76279 17.571C4.75778 17.5622 4.75349 17.5529 4.74996 17.5434C4.69951 17.436 4.65832 17.3245 4.62683 17.2101C4.57449 17.0313 4.53396 16.8492 4.50551 16.665C4.48958 16.5927 4.49933 16.5172 4.53306 16.4514C4.56037 16.4046 4.6008 16.3668 4.64936 16.3429C4.69792 16.3189 4.75245 16.3098 4.80613 16.3167C4.85982 16.3236 4.91034 16.3461 4.95133 16.3815C4.99232 16.4169 5.02199 16.4637 5.03667 16.5159V16.5177C5.06437 16.6929 5.10243 16.8663 5.15064 17.037C5.16536 17.0849 5.18007 17.1327 5.19659 17.1788C5.20394 17.2009 5.2131 17.2248 5.22046 17.2488C5.22046 17.2506 5.22225 17.2506 5.22225 17.2525C5.22413 17.2543 5.22414 17.2562 5.22602 17.2598C5.22782 17.2653 5.2315 17.2727 5.23338 17.2782C5.23107 17.2762 5.22918 17.2736 5.22781 17.2709C5.23149 17.2764 5.23338 17.2819 5.23697 17.2874C5.24801 17.3077 5.25725 17.3261 5.27008 17.3463C5.27365 17.3547 5.27795 17.3627 5.28291 17.3703L5.2848 17.3721V17.374L5.29027 17.3795C5.29027 17.3814 5.29027 17.3813 5.29216 17.3832C5.29216 17.385 5.29395 17.385 5.29395 17.3868C5.29952 17.3923 5.30499 17.3997 5.31055 17.4052C5.36095 17.4577 5.38907 17.5277 5.38908 17.6005C5.38908 17.6733 5.36095 17.7433 5.31055 17.7957Z" fill="black"/>
  <path d="M27.6049 7.1411C27.5343 7.15932 27.4593 7.14933 27.3959 7.11327C27.3324 7.0772 27.2855 7.01787 27.2649 6.94777C27.1932 6.70468 27.1215 6.45975 27.0259 6.22218V6.22034C27.0241 6.22034 27.0241 6.22034 27.0241 6.2185C27.0241 6.21665 27.0222 6.21665 27.0222 6.21481C27.018 6.21103 27.0153 6.20577 27.0148 6.20011C27.013 6.19537 27.0117 6.19041 27.0112 6.18536C26.9983 6.15776 26.9855 6.13196 26.9726 6.10434C26.9487 6.05278 26.9212 6.00306 26.8936 5.95517C26.8642 5.90545 26.8347 5.85757 26.8017 5.81153C26.787 5.78756 26.7705 5.76733 26.7539 5.74521V5.74341C26.7447 5.73235 26.7355 5.72314 26.7263 5.71208C26.6763 5.65944 26.6484 5.58958 26.6484 5.51691C26.6484 5.44425 26.6763 5.37434 26.7263 5.3217C26.7518 5.29588 26.7822 5.2754 26.8156 5.26141C26.8491 5.24742 26.8849 5.24023 26.9212 5.24023C26.9574 5.24023 26.9932 5.24742 27.0267 5.26141C27.0601 5.2754 27.0905 5.29588 27.116 5.3217C27.2947 5.53659 27.4386 5.77832 27.5423 6.03803C27.6403 6.28745 27.725 6.54194 27.7959 6.8004C27.8149 6.87094 27.8055 6.94613 27.7698 7.00982C27.7341 7.0735 27.6749 7.12063 27.6049 7.1411Z" fill="black"/>
  <path d="M28.8032 6.61115C28.8216 6.76401 28.6636 6.88001 28.5275 6.88738C28.4551 6.88527 28.3862 6.85551 28.3349 6.80416C28.2837 6.7528 28.2539 6.68374 28.2518 6.61115V6.5964C28.2503 6.58153 28.2478 6.56677 28.2445 6.55221C28.239 6.51723 28.2335 6.48408 28.2262 6.45091C28.2133 6.38096 28.1967 6.3128 28.1783 6.24469C28.1438 6.10712 28.1009 5.97183 28.0497 5.83956C28.0424 5.81744 28.0331 5.79352 28.024 5.7714C28.0215 5.76741 28.0197 5.76306 28.0185 5.7585C28.0159 5.75455 28.0141 5.75019 28.013 5.7456C28.0112 5.7438 28.0093 5.74191 28.0093 5.74011L27.9872 5.69039C27.9614 5.63514 27.9339 5.57988 27.9046 5.52831C27.8788 5.48411 27.853 5.4436 27.8236 5.40125V5.39941L27.8218 5.39757C27.82 5.39573 27.8181 5.39388 27.8181 5.39204C27.8179 5.39204 27.8176 5.392 27.8174 5.3919C27.8172 5.39181 27.817 5.39167 27.8169 5.3915C27.8167 5.39133 27.8166 5.39114 27.8165 5.39091C27.8164 5.39069 27.8163 5.39043 27.8163 5.39019L27.8053 5.37918C27.7922 5.36299 27.778 5.34762 27.763 5.33314C27.7111 5.28138 27.6818 5.21109 27.6816 5.1377C27.6815 5.06432 27.7104 4.99388 27.762 4.94186C27.8137 4.88985 27.8839 4.86053 27.9571 4.86035C28.0304 4.86017 28.1007 4.88911 28.1526 4.94087C28.3434 5.15164 28.4869 5.40093 28.5735 5.67195C28.6902 5.97375 28.7675 6.28946 28.8032 6.61115Z" fill="black"/>
  <path d="M26.5571 7.4591C26.4864 7.47794 26.4112 7.46824 26.3476 7.43208C26.284 7.39592 26.2371 7.33618 26.2171 7.26573C26.197 7.17636 26.1693 7.08887 26.1343 7.00425C26.1123 6.94535 26.0884 6.88457 26.0645 6.82563C26.0608 6.81641 26.0571 6.80724 26.0517 6.79618C26.0503 6.7917 26.0484 6.78738 26.0462 6.78328C26.0455 6.77855 26.0436 6.7741 26.0406 6.77037C26.0315 6.7483 26.0204 6.72433 26.0112 6.70226C25.9279 6.49321 25.8245 6.29277 25.7025 6.10377C25.684 6.07245 25.6719 6.03778 25.6668 6.00176C25.6617 5.96573 25.6638 5.92904 25.6729 5.89381C25.682 5.85858 25.6978 5.82552 25.7197 5.79647C25.7416 5.76743 25.769 5.743 25.8003 5.72458C25.8316 5.70617 25.8663 5.69409 25.9022 5.68911C25.9382 5.68413 25.9748 5.68636 26.0099 5.69559C26.0451 5.70481 26.078 5.72087 26.1069 5.74288C26.1359 5.7649 26.1602 5.79241 26.1785 5.82385C26.3037 6.01803 26.4095 6.22404 26.4945 6.43894C26.6016 6.65655 26.6872 6.88414 26.75 7.11844C26.7678 7.18919 26.7577 7.2641 26.7218 7.32755C26.6858 7.391 26.6268 7.43812 26.5571 7.4591Z" fill="black"/>
</svg>
