<svg width="106" height="34" viewBox="0 0 106 34" fill="none" xmlns="http://www.w3.org/2000/svg">
  <path d="M1.296 8V2.864C1.296 1.328 2.568 0.248 4.128 0.248H18.168V4.424H7.176C6.84 4.424 6.576 4.712 6.576 5.048V5.48C6.576 5.816 6.84 6.08 7.176 6.08H15.384C16.92 6.104 18.168 7.208 18.168 8.72V14.216C18.168 15.752 16.896 17 15.336 17H1.296V12.488H12.192C12.528 12.488 12.792 12.224 12.792 11.888V11.456C12.792 11.12 12.528 10.832 12.192 10.832H4.128C2.568 10.832 1.296 9.536 1.296 8ZM33.1811 9.584H37.6691V17H20.7731V12.512H21.8771V4.424H20.7731V0.248H37.6691V0.271999V7.856H33.1811V5.072H27.4451V6.32H31.6211V10.448H27.4451V11.744H33.1811V9.584ZM47.352 4.424V12.512H48.936V17H40.32V12.512H41.976V4.424H40.32V0.248H48.936V4.424H47.352ZM68.4186 4.424V12.536H69.4986V17H62.5866V11.552L58.2186 8.168V17H51.5466V12.536H52.6506V4.424H51.5466V0.248H58.2186V1.784L62.5866 5.168V0.248H69.4986V4.424H68.4186ZM88.7801 17H83.2121V12.536H77.5241V17H71.9321V5.096L76.1561 2.6V0.248H84.5321V2.576L88.7801 5.096V17ZM83.2121 9.08V7.856L80.3321 6.032L77.5241 7.832V9.08H83.2121Z" fill="#FF1E6E"/>
  <path d="M10.24 22.832C11.28 22.832 12.128 23.552 12.128 24.576V29.168C12.128 30.176 11.28 31.008 10.24 31.008H5.328V34H0.88V31.008H1.616V25.616H0.88V22.832H10.24ZM8.608 27.728V26.464C8.608 26.24 8.432 26.048 8.208 26.048H5.328V28.128H8.208C8.432 28.128 8.608 27.952 8.608 27.728ZM24.7218 24.576V28.192C24.7218 29.216 23.8738 30.032 22.8338 30.032H17.9218L21.7138 31.568V30.592H24.7218V34H21.7138L17.9378 32.448V34H13.4738V31.008H14.2098V25.616H13.4738V22.832H22.8338C23.8738 22.832 24.7218 23.552 24.7218 24.576ZM21.2018 26.752V26.464C21.2018 26.24 21.0258 26.048 20.8018 26.048H17.9218V27.152H20.8018C21.0258 27.152 21.2018 26.976 21.2018 26.752ZM26.2981 32.16V25.984L29.1141 24.416V22.832H34.6981V24.4L37.5461 25.984V32.16C37.5461 33.184 36.7301 34 35.7381 34H28.1061C27.0981 34 26.2981 33.184 26.2981 32.16ZM33.9141 31.024V27.92L31.8981 26.8L29.9301 27.904V31.024H33.9141ZM52.9376 22.832V25.744L53.6096 30.992H54.7136V34H50.5056L49.7216 27.696L48.4896 34H45.2096L43.9616 27.696L43.1776 34H38.9856V30.992H40.0896L40.7456 25.76V22.832H46.3936V26.512L46.8416 28.336L47.2896 26.512V22.832H52.9376ZM56.1575 32.16V25.984L58.9735 24.416V22.832H64.5575V24.4L67.4055 25.984V32.16C67.4055 33.184 66.5895 34 65.5975 34H57.9655C56.9575 34 56.1575 33.184 56.1575 32.16ZM63.7735 31.024V27.92L61.7575 26.8L59.7895 27.904V31.024H63.7735ZM68.717 22.832H80.397V27.888H77.389V25.616H76.317V31.024H77.389V34H71.645V31.024H72.733V25.616H71.725V27.888H68.717V22.832ZM89.3688 26L85.2728 27.536H88.3768V30.016H85.3208V31.008H88.9848C89.2088 31.008 89.3848 30.816 89.3848 30.592V29.12H92.8408V32.16C92.8408 33.12 92.1048 33.92 91.1448 34H81.6088V25.872L89.4648 22.832H92.8568V26.928H89.3688V26ZM105.831 24.576V28.192C105.831 29.216 104.983 30.032 103.943 30.032H99.0311L102.823 31.568V30.592H105.831V34H102.823L99.0471 32.448V34H94.5831V31.008H95.3191V25.616H94.5831V22.832H103.943C104.983 22.832 105.831 23.552 105.831 24.576ZM102.311 26.752V26.464C102.311 26.24 102.135 26.048 101.911 26.048H99.0311V27.152H101.911C102.135 27.152 102.311 26.976 102.311 26.752Z" fill="#FF1E6E" fill-opacity="0.1"/>
  <path d="M5.328 31.008V30.008H4.328V31.008H5.328ZM5.328 34V35H6.328V34H5.328ZM0.88 34H-0.12V35H0.88V34ZM0.88 31.008V30.008H-0.12V31.008H0.88ZM1.616 31.008V32.008H2.616V31.008H1.616ZM1.616 25.616H2.616V24.616H1.616V25.616ZM0.88 25.616H-0.12V26.616H0.88V25.616ZM0.88 22.832V21.832H-0.12V22.832H0.88ZM5.328 26.048V25.048H4.328V26.048H5.328ZM5.328 28.128H4.328V29.128H5.328V28.128ZM10.24 23.832C10.8288 23.832 11.128 24.2002 11.128 24.576H13.128C13.128 22.9038 11.7312 21.832 10.24 21.832V23.832ZM11.128 24.576V29.168H13.128V24.576H11.128ZM11.128 29.168C11.128 29.6015 10.7502 30.008 10.24 30.008V32.008C11.8098 32.008 13.128 30.7505 13.128 29.168H11.128ZM10.24 30.008H5.328V32.008H10.24V30.008ZM4.328 31.008V34H6.328V31.008H4.328ZM5.328 33H0.88V35H5.328V33ZM1.88 34V31.008H-0.12V34H1.88ZM0.88 32.008H1.616V30.008H0.88V32.008ZM2.616 31.008V25.616H0.616V31.008H2.616ZM1.616 24.616H0.88V26.616H1.616V24.616ZM1.88 25.616V22.832H-0.12V25.616H1.88ZM0.88 23.832H10.24V21.832H0.88V23.832ZM9.608 27.728V26.464H7.608V27.728H9.608ZM9.608 26.464C9.608 25.7393 9.03454 25.048 8.208 25.048V27.048C7.82946 27.048 7.608 26.7407 7.608 26.464H9.608ZM8.208 25.048H5.328V27.048H8.208V25.048ZM4.328 26.048V28.128H6.328V26.048H4.328ZM5.328 29.128H8.208V27.128H5.328V29.128ZM8.208 29.128C8.98428 29.128 9.608 28.5043 9.608 27.728H7.608C7.608 27.3997 7.87972 27.128 8.208 27.128V29.128ZM17.9217 30.032V29.032L17.5463 30.9588L17.9217 30.032ZM21.7138 31.568L21.3383 32.4948L22.7138 33.052V31.568H21.7138ZM21.7138 30.592V29.592H20.7138V30.592H21.7138ZM24.7218 30.592H25.7218V29.592H24.7218V30.592ZM24.7218 34V35H25.7218V34H24.7218ZM21.7138 34L21.3336 34.9249L21.5163 35H21.7138V34ZM17.9377 32.448L18.3179 31.5231L16.9377 30.9558V32.448H17.9377ZM17.9377 34V35H18.9377V34H17.9377ZM13.4738 34H12.4738V35H13.4738V34ZM13.4738 31.008V30.008H12.4738V31.008H13.4738ZM14.2098 31.008V32.008H15.2098V31.008H14.2098ZM14.2098 25.616H15.2098V24.616H14.2098V25.616ZM13.4738 25.616H12.4738V26.616H13.4738V25.616ZM13.4738 22.832V21.832H12.4738V22.832H13.4738ZM17.9217 26.048V25.048H16.9217V26.048H17.9217ZM17.9217 27.152H16.9217V28.152H17.9217V27.152ZM23.7218 24.576V28.192H25.7218V24.576H23.7218ZM23.7218 28.192C23.7218 28.6359 23.3496 29.032 22.8338 29.032V31.032C24.3979 31.032 25.7218 29.7961 25.7218 28.192H23.7218ZM22.8338 29.032H17.9217V31.032H22.8338V29.032ZM17.5463 30.9588L21.3383 32.4948L22.0892 30.6412L18.2972 29.1052L17.5463 30.9588ZM22.7138 31.568V30.592H20.7138V31.568H22.7138ZM21.7138 31.592H24.7218V29.592H21.7138V31.592ZM23.7218 30.592V34H25.7218V30.592H23.7218ZM24.7218 33H21.7138V35H24.7218V33ZM22.0939 33.0751L18.3179 31.5231L17.5576 33.3729L21.3336 34.9249L22.0939 33.0751ZM16.9377 32.448V34H18.9377V32.448H16.9377ZM17.9377 33H13.4738V35H17.9377V33ZM14.4738 34V31.008H12.4738V34H14.4738ZM13.4738 32.008H14.2098V30.008H13.4738V32.008ZM15.2098 31.008V25.616H13.2098V31.008H15.2098ZM14.2098 24.616H13.4738V26.616H14.2098V24.616ZM14.4738 25.616V22.832H12.4738V25.616H14.4738ZM13.4738 23.832H22.8338V21.832H13.4738V23.832ZM22.8338 23.832C23.4225 23.832 23.7218 24.2002 23.7218 24.576H25.7218C25.7218 22.9038 24.325 21.832 22.8338 21.832V23.832ZM22.2018 26.752V26.464H20.2018V26.752H22.2018ZM22.2018 26.464C22.2018 25.7393 21.6283 25.048 20.8018 25.048V27.048C20.4232 27.048 20.2018 26.7407 20.2018 26.464H22.2018ZM20.8018 25.048H17.9217V27.048H20.8018V25.048ZM16.9217 26.048V27.152H18.9217V26.048H16.9217ZM17.9217 28.152H20.8018V26.152H17.9217V28.152ZM20.8018 28.152C21.578 28.152 22.2018 27.5283 22.2018 26.752H20.2018C20.2018 26.4237 20.4735 26.152 20.8018 26.152V28.152ZM26.2981 25.984L25.8116 25.1103L25.2981 25.3962V25.984H26.2981ZM29.1141 24.416L29.6006 25.2897L30.1141 25.0038V24.416H29.1141ZM29.1141 22.832V21.832H28.1141V22.832H29.1141ZM34.6981 22.832H35.6981V21.832H34.6981V22.832ZM34.6981 24.4H33.6981V24.9881L34.2121 25.2739L34.6981 24.4ZM37.5461 25.984H38.5461V25.3959L38.0322 25.1101L37.5461 25.984ZM33.9141 31.024V32.024H34.9141V31.024H33.9141ZM33.9141 27.92H34.9141V27.3316L34.3998 27.0458L33.9141 27.92ZM31.8981 26.8L32.3838 25.9258L31.8958 25.6547L31.4089 25.9279L31.8981 26.8ZM29.9301 27.904L29.4409 27.0319L28.9301 27.3184V27.904H29.9301ZM29.9301 31.024H28.9301V32.024H29.9301V31.024ZM27.2981 32.16V25.984H25.2981V32.16H27.2981ZM26.7846 26.8577L29.6006 25.2897L28.6276 23.5423L25.8116 25.1103L26.7846 26.8577ZM30.1141 24.416V22.832H28.1141V24.416H30.1141ZM29.1141 23.832H34.6981V21.832H29.1141V23.832ZM33.6981 22.832V24.4H35.6981V22.832H33.6981ZM34.2121 25.2739L37.0601 26.8579L38.0322 25.1101L35.1842 23.5261L34.2121 25.2739ZM36.5461 25.984V32.16H38.5461V25.984H36.5461ZM36.5461 32.16C36.5461 32.6432 36.1664 33 35.7381 33V35C37.2938 35 38.5461 33.7248 38.5461 32.16H36.5461ZM35.7381 33H28.1061V35H35.7381V33ZM28.1061 33C27.6675 33 27.2981 32.649 27.2981 32.16H25.2981C25.2981 33.719 26.5287 35 28.1061 35V33ZM34.9141 31.024V27.92H32.9141V31.024H34.9141ZM34.3998 27.0458L32.3838 25.9258L31.4125 27.6742L33.4285 28.7942L34.3998 27.0458ZM31.4089 25.9279L29.4409 27.0319L30.4194 28.7761L32.3874 27.6721L31.4089 25.9279ZM28.9301 27.904V31.024H30.9301V27.904H28.9301ZM29.9301 32.024H33.9141V30.024H29.9301V32.024ZM52.9376 22.832H53.9376V21.832H52.9376V22.832ZM52.9376 25.744H51.9376V25.8078L51.9457 25.871L52.9376 25.744ZM53.6096 30.992L52.6177 31.119L52.7295 31.992H53.6096V30.992ZM54.7136 30.992H55.7136V29.992H54.7136V30.992ZM54.7136 34V35H55.7136V34H54.7136ZM50.5056 34L49.5133 34.1234L49.6223 35H50.5056V34ZM49.7216 27.696L50.714 27.5726L48.7402 27.5042L49.7216 27.696ZM48.4896 34V35H49.3131L49.4711 34.1918L48.4896 34ZM45.2096 34L44.2287 34.1942L44.3882 35H45.2096V34ZM43.9616 27.696L44.9426 27.5018L42.9693 27.5726L43.9616 27.696ZM43.1776 34V35H44.061L44.17 34.1234L43.1776 34ZM38.9856 34H37.9856V35H38.9856V34ZM38.9856 30.992V29.992H37.9856V30.992H38.9856ZM40.0896 30.992V31.992H40.9721L41.0819 31.1164L40.0896 30.992ZM40.7456 25.76L41.7379 25.8844L41.7456 25.8224V25.76H40.7456ZM40.7456 22.832V21.832H39.7456V22.832H40.7456ZM46.3936 22.832H47.3936V21.832H46.3936V22.832ZM46.3936 26.512H45.3936V26.633L45.4225 26.7505L46.3936 26.512ZM46.8416 28.336L45.8705 28.5745H47.8128L46.8416 28.336ZM47.2896 26.512L48.2608 26.7505L48.2896 26.633V26.512H47.2896ZM47.2896 22.832V21.832H46.2896V22.832H47.2896ZM51.9376 22.832V25.744H53.9376V22.832H51.9376ZM51.9457 25.871L52.6177 31.119L54.6015 30.865L53.9295 25.617L51.9457 25.871ZM53.6096 31.992H54.7136V29.992H53.6096V31.992ZM53.7136 30.992V34H55.7136V30.992H53.7136ZM54.7136 33H50.5056V35H54.7136V33ZM51.498 33.8766L50.714 27.5726L48.7293 27.8194L49.5133 34.1234L51.498 33.8766ZM48.7402 27.5042L47.5082 33.8082L49.4711 34.1918L50.7031 27.8878L48.7402 27.5042ZM48.4896 33H45.2096V35H48.4896V33ZM46.1906 33.8058L44.9426 27.5018L42.9807 27.8902L44.2287 34.1942L46.1906 33.8058ZM42.9693 27.5726L42.1853 33.8766L44.17 34.1234L44.954 27.8194L42.9693 27.5726ZM43.1776 33H38.9856V35H43.1776V33ZM39.9856 34V30.992H37.9856V34H39.9856ZM38.9856 31.992H40.0896V29.992H38.9856V31.992ZM41.0819 31.1164L41.7379 25.8844L39.7534 25.6356L39.0974 30.8676L41.0819 31.1164ZM41.7456 25.76V22.832H39.7456V25.76H41.7456ZM40.7456 23.832H46.3936V21.832H40.7456V23.832ZM45.3936 22.832V26.512H47.3936V22.832H45.3936ZM45.4225 26.7505L45.8705 28.5745L47.8128 28.0975L47.3648 26.2735L45.4225 26.7505ZM47.8128 28.5745L48.2608 26.7505L46.3185 26.2735L45.8705 28.0975L47.8128 28.5745ZM48.2896 26.512V22.832H46.2896V26.512H48.2896ZM47.2896 23.832H52.9376V21.832H47.2896V23.832ZM56.1575 25.984L55.671 25.1103L55.1575 25.3962V25.984H56.1575ZM58.9735 24.416L59.46 25.2897L59.9735 25.0038V24.416H58.9735ZM58.9735 22.832V21.832H57.9735V22.832H58.9735ZM64.5575 22.832H65.5575V21.832H64.5575V22.832ZM64.5575 24.4H63.5575V24.9881L64.0714 25.2739L64.5575 24.4ZM67.4055 25.984H68.4055V25.3959L67.8916 25.1101L67.4055 25.984ZM63.7735 31.024V32.024H64.7735V31.024H63.7735ZM63.7735 27.92H64.7735V27.3316L64.2591 27.0458L63.7735 27.92ZM61.7575 26.8L62.2431 25.9258L61.7551 25.6547L61.2682 25.9279L61.7575 26.8ZM59.7895 27.904L59.3003 27.0319L58.7895 27.3184V27.904H59.7895ZM59.7895 31.024H58.7895V32.024H59.7895V31.024ZM57.1575 32.16V25.984H55.1575V32.16H57.1575ZM56.644 26.8577L59.46 25.2897L58.487 23.5423L55.671 25.1103L56.644 26.8577ZM59.9735 24.416V22.832H57.9735V24.416H59.9735ZM58.9735 23.832H64.5575V21.832H58.9735V23.832ZM63.5575 22.832V24.4H65.5575V22.832H63.5575ZM64.0714 25.2739L66.9194 26.8579L67.8916 25.1101L65.0436 23.5261L64.0714 25.2739ZM66.4055 25.984V32.16H68.4055V25.984H66.4055ZM66.4055 32.16C66.4055 32.6432 66.0258 33 65.5975 33V35C67.1532 35 68.4055 33.7248 68.4055 32.16H66.4055ZM65.5975 33H57.9655V35H65.5975V33ZM57.9655 33C57.5269 33 57.1575 32.649 57.1575 32.16H55.1575C55.1575 33.719 56.3881 35 57.9655 35V33ZM64.7735 31.024V27.92H62.7735V31.024H64.7735ZM64.2591 27.0458L62.2431 25.9258L61.2719 27.6742L63.2879 28.7942L64.2591 27.0458ZM61.2682 25.9279L59.3003 27.0319L60.2788 28.7761L62.2467 27.6721L61.2682 25.9279ZM58.7895 27.904V31.024H60.7895V27.904H58.7895ZM59.7895 32.024H63.7735V30.024H59.7895V32.024ZM68.717 22.832V21.832H67.717V22.832H68.717ZM80.397 22.832H81.397V21.832H80.397V22.832ZM80.397 27.888V28.888H81.397V27.888H80.397ZM77.389 27.888H76.389V28.888H77.389V27.888ZM77.389 25.616H78.389V24.616H77.389V25.616ZM76.317 25.616V24.616H75.317V25.616H76.317ZM76.317 31.024H75.317V32.024H76.317V31.024ZM77.389 31.024H78.389V30.024H77.389V31.024ZM77.389 34V35H78.389V34H77.389ZM71.645 34H70.645V35H71.645V34ZM71.645 31.024V30.024H70.645V31.024H71.645ZM72.733 31.024V32.024H73.733V31.024H72.733ZM72.733 25.616H73.733V24.616H72.733V25.616ZM71.725 25.616V24.616H70.725V25.616H71.725ZM71.725 27.888V28.888H72.725V27.888H71.725ZM68.717 27.888H67.717V28.888H68.717V27.888ZM68.717 23.832H80.397V21.832H68.717V23.832ZM79.397 22.832V27.888H81.397V22.832H79.397ZM80.397 26.888H77.389V28.888H80.397V26.888ZM78.389 27.888V25.616H76.389V27.888H78.389ZM77.389 24.616H76.317V26.616H77.389V24.616ZM75.317 25.616V31.024H77.317V25.616H75.317ZM76.317 32.024H77.389V30.024H76.317V32.024ZM76.389 31.024V34H78.389V31.024H76.389ZM77.389 33H71.645V35H77.389V33ZM72.645 34V31.024H70.645V34H72.645ZM71.645 32.024H72.733V30.024H71.645V32.024ZM73.733 31.024V25.616H71.733V31.024H73.733ZM72.733 24.616H71.725V26.616H72.733V24.616ZM70.725 25.616V27.888H72.725V25.616H70.725ZM71.725 26.888H68.717V28.888H71.725V26.888ZM69.717 27.888V22.832H67.717V27.888H69.717ZM89.3688 26H90.3688V24.557L89.0176 25.0637L89.3688 26ZM85.2728 27.536L84.9216 26.5997L85.2728 28.536V27.536ZM88.3767 27.536H89.3767V26.536H88.3767V27.536ZM88.3767 30.016V31.016H89.3767V30.016H88.3767ZM85.3207 30.016V29.016H84.3207V30.016H85.3207ZM85.3207 31.008H84.3207V32.008H85.3207V31.008ZM89.3848 29.12V28.12H88.3848V29.12H89.3848ZM92.8408 29.12H93.8408V28.12H92.8408V29.12ZM91.1448 34V35H91.1863L91.2278 34.9965L91.1448 34ZM81.6087 34H80.6087V35H81.6087V34ZM81.6087 25.872L81.2479 24.9394L80.6087 25.1867V25.872H81.6087ZM89.4648 22.832V21.832H89.278L89.1039 21.8994L89.4648 22.832ZM92.8568 22.832H93.8568V21.832H92.8568V22.832ZM92.8568 26.928V27.928H93.8568V26.928H92.8568ZM89.3688 26.928H88.3688V27.928H89.3688V26.928ZM89.0176 25.0637L84.9216 26.5997L85.6239 28.4723L89.7199 26.9363L89.0176 25.0637ZM85.2728 28.536H88.3767V26.536H85.2728V28.536ZM87.3767 27.536V30.016H89.3767V27.536H87.3767ZM88.3767 29.016H85.3207V31.016H88.3767V29.016ZM84.3207 30.016V31.008H86.3207V30.016H84.3207ZM85.3207 32.008H88.9847V30.008H85.3207V32.008ZM88.9847 32.008C89.8113 32.008 90.3848 31.3167 90.3848 30.592H88.3848C88.3848 30.3153 88.6062 30.008 88.9847 30.008V32.008ZM90.3848 30.592V29.12H88.3848V30.592H90.3848ZM89.3848 30.12H92.8408V28.12H89.3848V30.12ZM91.8408 29.12V32.16H93.8408V29.12H91.8408ZM91.8408 32.16C91.8408 32.5989 91.5045 32.9666 91.0617 33.0035L91.2278 34.9965C92.705 34.8734 93.8408 33.6411 93.8408 32.16H91.8408ZM91.1448 33H81.6087V35H91.1448V33ZM82.6087 34V25.872H80.6087V34H82.6087ZM81.9696 26.8046L89.8256 23.7646L89.1039 21.8994L81.2479 24.9394L81.9696 26.8046ZM89.4648 23.832H92.8568V21.832H89.4648V23.832ZM91.8568 22.832V26.928H93.8568V22.832H91.8568ZM92.8568 25.928H89.3688V27.928H92.8568V25.928ZM90.3688 26.928V26H88.3688V26.928H90.3688ZM99.0311 30.032V29.032L98.6557 30.9588L99.0311 30.032ZM102.823 31.568L102.448 32.4948L103.823 33.052V31.568H102.823ZM102.823 30.592V29.592H101.823V30.592H102.823ZM105.831 30.592H106.831V29.592H105.831V30.592ZM105.831 34V35H106.831V34H105.831ZM102.823 34L102.443 34.9249L102.626 35H102.823V34ZM99.0471 32.448L99.4273 31.5231L98.0471 30.9558V32.448H99.0471ZM99.0471 34V35H100.047V34H99.0471ZM94.5831 34H93.5831V35H94.5831V34ZM94.5831 31.008V30.008H93.5831V31.008H94.5831ZM95.3191 31.008V32.008H96.3191V31.008H95.3191ZM95.3191 25.616H96.3191V24.616H95.3191V25.616ZM94.5831 25.616H93.5831V26.616H94.5831V25.616ZM94.5831 22.832V21.832H93.5831V22.832H94.5831ZM99.0311 26.048V25.048H98.0311V26.048H99.0311ZM99.0311 27.152H98.0311V28.152H99.0311V27.152ZM104.831 24.576V28.192H106.831V24.576H104.831ZM104.831 28.192C104.831 28.6359 104.459 29.032 103.943 29.032V31.032C105.507 31.032 106.831 29.7961 106.831 28.192H104.831ZM103.943 29.032H99.0311V31.032H103.943V29.032ZM98.6557 30.9588L102.448 32.4948L103.199 30.6412L99.4066 29.1052L98.6557 30.9588ZM103.823 31.568V30.592H101.823V31.568H103.823ZM102.823 31.592H105.831V29.592H102.823V31.592ZM104.831 30.592V34H106.831V30.592H104.831ZM105.831 33H102.823V35H105.831V33ZM103.203 33.0751L99.4273 31.5231L98.667 33.3729L102.443 34.9249L103.203 33.0751ZM98.0471 32.448V34H100.047V32.448H98.0471ZM99.0471 33H94.5831V35H99.0471V33ZM95.5831 34V31.008H93.5831V34H95.5831ZM94.5831 32.008H95.3191V30.008H94.5831V32.008ZM96.3191 31.008V25.616H94.3191V31.008H96.3191ZM95.3191 24.616H94.5831V26.616H95.3191V24.616ZM95.5831 25.616V22.832H93.5831V25.616H95.5831ZM94.5831 23.832H103.943V21.832H94.5831V23.832ZM103.943 23.832C104.532 23.832 104.831 24.2002 104.831 24.576H106.831C106.831 22.9038 105.434 21.832 103.943 21.832V23.832ZM103.311 26.752V26.464H101.311V26.752H103.311ZM103.311 26.464C103.311 25.7393 102.738 25.048 101.911 25.048V27.048C101.533 27.048 101.311 26.7407 101.311 26.464H103.311ZM101.911 25.048H99.0311V27.048H101.911V25.048ZM98.0311 26.048V27.152H100.031V26.048H98.0311ZM99.0311 28.152H101.911V26.152H99.0311V28.152ZM101.911 28.152C102.687 28.152 103.311 27.5283 103.311 26.752H101.311C101.311 26.4237 101.583 26.152 101.911 26.152V28.152Z" fill="#FF1E6E"/>
</svg>
