<svg width="1376" height="338" viewBox="0 0 1376 338" fill="none" xmlns="http://www.w3.org/2000/svg">
  <g filter="url(#filter0_b_1352_11755)">
    <path d="M9 23.7723L171.54 23.7723C174.189 23.7723 176.729 22.7212 178.604 20.8497L187.548 11.9225C189.422 10.0511 191.963 9 194.612 9L489.719 9C492.368 9 494.909 10.0511 496.784 11.9225L505.727 20.8497C507.602 22.7212 510.143 23.7723 512.792 23.7723L712.075 23.7723C714.724 23.7723 717.265 22.7212 719.14 20.8497L728.083 11.9225C729.958 10.0511 732.499 9 735.148 9L983.268 9C985.917 9 988.457 10.0511 990.332 11.9225L999.276 20.8497C1001.15 22.7212 1003.69 23.7723 1006.34 23.7723L1112.76 23.7723C1115.41 23.7723 1117.95 22.7212 1119.82 20.8497L1128.77 11.9225C1130.64 10.0511 1133.18 9 1135.83 9L1357 9C1362.52 9 1367 13.4772 1367 19V318.772C1367 324.295 1362.52 328.772 1357 328.772H1317.86C1315.21 328.772 1312.67 327.721 1310.8 325.85L1301.85 316.923C1299.98 315.051 1297.44 314 1294.79 314L1067.76 314C1065.11 314 1062.57 315.051 1060.69 316.923L1051.75 325.85C1049.87 327.721 1047.33 328.772 1044.68 328.772L884.248 328.772C881.599 328.772 879.058 327.721 877.183 325.85L868.24 316.923C866.365 315.051 863.824 314 861.175 314H650.423C647.774 314 645.233 315.051 643.358 316.923L634.415 325.85C632.54 327.721 629.999 328.772 627.35 328.772L494.293 328.772C491.644 328.772 489.103 327.721 487.228 325.85L478.285 316.923C476.41 315.051 473.869 314 471.22 314L157.615 314C154.966 314 152.425 315.051 150.55 316.923L141.607 325.85C139.732 327.721 137.191 328.772 134.542 328.772H9L9 23.7723Z" fill="black"/>
    <path d="M9 19.2723H4.5L4.5 23.7723L4.5 328.772L4.5 333.272H9H134.542C138.383 333.272 142.067 331.748 144.786 329.035L153.729 320.107C154.76 319.078 156.158 318.5 157.615 318.5L471.22 318.5C472.677 318.5 474.075 319.078 475.106 320.107L484.049 329.035C486.768 331.748 490.452 333.272 494.293 333.272L627.35 333.272C631.191 333.272 634.876 331.748 637.594 329.035L646.537 320.107C647.569 319.078 648.966 318.5 650.423 318.5H861.175C862.632 318.5 864.03 319.078 865.061 320.107L874.004 329.035C876.723 331.748 880.407 333.272 884.248 333.272L1044.68 333.272C1048.52 333.272 1052.21 331.748 1054.93 329.035L1063.87 320.107C1064.9 319.078 1066.3 318.5 1067.76 318.5L1294.79 318.5C1296.24 318.5 1297.64 319.078 1298.67 320.107L1307.62 329.035C1310.34 331.748 1314.02 333.272 1317.86 333.272H1357C1365.01 333.272 1371.5 326.78 1371.5 318.772V19C1371.5 10.9919 1365.01 4.5 1357 4.5L1135.83 4.5C1131.99 4.5 1128.31 6.02408 1125.59 8.73763L1116.64 17.6649C1115.61 18.6942 1114.22 19.2723 1112.76 19.2723L1006.34 19.2723C1004.88 19.2723 1003.49 18.6942 1002.45 17.6649L993.511 8.7377L993.511 8.73766C990.793 6.02409 987.109 4.5 983.268 4.5L735.148 4.5C731.307 4.5 727.622 6.02408 724.904 8.73763L715.961 17.6649C714.929 18.6942 713.532 19.2723 712.075 19.2723L512.792 19.2723C511.335 19.2723 509.937 18.6942 508.906 17.6649L499.963 8.73766L496.794 11.9119L499.963 8.73766C497.244 6.02407 493.56 4.5 489.719 4.5L194.612 4.5C190.771 4.5 187.087 6.02407 184.368 8.73768L175.425 17.6649L178.604 20.8497L175.425 17.6649C174.394 18.6942 172.997 19.2723 171.54 19.2723L9 19.2723Z" stroke="#FF1E6E" stroke-width="9"/>
  </g>
  <defs>
    <filter id="filter0_b_1352_11755" x="-16" y="-16" width="1408" height="369.772" filterUnits="userSpaceOnUse" color-interpolation-filters="sRGB">
      <feFlood flood-opacity="0" result="BackgroundImageFix"/>
      <feGaussianBlur in="BackgroundImageFix" stdDeviation="8"/>
      <feComposite in2="SourceAlpha" operator="in" result="effect1_backgroundBlur_1352_11755"/>
      <feBlend mode="normal" in="SourceGraphic" in2="effect1_backgroundBlur_1352_11755" result="shape"/>
    </filter>
  </defs>
</svg>
