<svg width="170" height="14" viewBox="0 0 170 14" fill="none" xmlns="http://www.w3.org/2000/svg">
  <path d="M0 0.454976C0 0.419976 0 0.419976 0.0347023 0.384976C0.0694045 0.349976 0.0694045 0.349976 0.104107 0.349976H15.3037C16.3448 0.349976 17.247 0.734976 18.0105 1.46998C18.7392 2.23998 19.1209 3.14998 19.1209 4.19998V5.56498C19.1209 6.64998 18.7392 7.55998 18.0105 8.29498C17.2817 9.02998 16.3795 9.41498 15.3037 9.41498H2.67207V13.72C2.67207 13.755 2.67207 13.79 2.63737 13.825C2.60267 13.86 2.60267 13.86 2.53326 13.86H0.104107C0.0694045 13.86 0.0694045 13.86 0.0347023 13.825C0 13.79 0 13.755 0 13.72V0.454976ZM15.3037 7.10498C15.616 7.10498 15.8936 6.99998 16.1018 6.75498C16.3101 6.50998 16.4489 6.26498 16.4489 5.94998V3.81498C16.4489 3.49998 16.3448 3.21998 16.1018 2.97498C15.8589 2.72998 15.616 2.62498 15.3037 2.62498H2.67207V7.06998H15.3037V7.10498Z" fill="#F9F9F9"/>
  <path d="M42.2327 13.72C42.2327 13.755 42.2327 13.755 42.198 13.79C42.1633 13.825 42.1633 13.825 42.1286 13.825H26.9637C25.888 13.825 24.9857 13.44 24.257 12.705C23.5282 11.97 23.1465 11.06 23.1465 9.97498V0.454976C23.1465 0.419976 23.1465 0.384976 23.1812 0.349976H23.2159H25.6797C25.7145 0.349976 25.7492 0.349976 25.7839 0.384976C25.8186 0.419976 25.8186 0.419976 25.8186 0.489976V10.395C25.8186 10.71 25.9227 10.99 26.1656 11.2C26.4085 11.41 26.6514 11.55 26.9984 11.55H42.1633C42.198 11.55 42.198 11.55 42.2327 11.585C42.2674 11.62 42.2674 11.62 42.2674 11.655V13.72H42.2327Z" fill="#F9F9F9"/>
  <path d="M46.2583 4.19998C46.2583 3.14998 46.6401 2.23998 47.3688 1.46998C48.0976 0.734976 48.9998 0.349976 50.0756 0.349976H61.5273C62.5684 0.349976 63.4707 0.734976 64.2341 1.46998C64.9976 2.20498 65.3446 3.11498 65.3446 4.19998V13.72C65.3446 13.755 65.3446 13.79 65.3099 13.825C65.2752 13.86 65.2752 13.86 65.2058 13.86H62.8113C62.7766 13.86 62.7766 13.86 62.7419 13.825C62.7072 13.79 62.7072 13.79 62.7072 13.72V9.41498H48.9304V13.72C48.9304 13.755 48.9304 13.79 48.8957 13.825C48.861 13.86 48.861 13.86 48.8263 13.86H46.3624C46.3277 13.86 46.293 13.86 46.2583 13.825C46.2236 13.79 46.2236 13.79 46.2236 13.72V4.19998H46.2583ZM62.6725 7.10498V3.81498C62.6725 3.49998 62.5684 3.21998 62.3255 2.97498C62.0826 2.76498 61.8397 2.62498 61.5273 2.62498H50.0756C49.7633 2.62498 49.4856 2.72998 49.2427 2.97498C48.9998 3.21998 48.8957 3.46498 48.8957 3.81498V7.10498H62.6725Z" fill="#F9F9F9"/>
  <path d="M85.819 0.455002C85.819 0.420002 85.819 0.385002 85.8537 0.350002C85.8884 0.315002 85.8884 0.315002 85.9578 0.315002H88.4217C88.4564 0.315002 88.4564 0.315002 88.4911 0.350002C88.5258 0.385002 88.5258 0.385002 88.5258 0.455002V13.72C88.5258 13.755 88.5258 13.755 88.4911 13.79C88.4564 13.825 88.4564 13.825 88.4217 13.825H83.4592H83.4245C82.3835 13.79 81.5853 13.37 80.9954 12.53L74.749 3.185C74.5061 2.835 74.159 2.66 73.7773 2.66H72.0769V13.72C72.0769 13.755 72.0769 13.755 72.0422 13.79C72.0075 13.825 72.0075 13.825 71.9381 13.825H69.4742C69.4395 13.825 69.4395 13.825 69.4048 13.79C69.3701 13.755 69.3701 13.755 69.3701 13.72V0.455002C69.3701 0.420002 69.3701 0.385002 69.4048 0.350002C69.4395 0.315002 69.4395 0.315002 69.4742 0.315002H74.4366H74.4714C75.5124 0.350002 76.3106 0.805002 76.9005 1.645L83.1122 10.99C83.3551 11.34 83.6675 11.515 84.0839 11.515H85.7843V0.455002H85.819Z" fill="#F9F9F9"/>
  <path d="M95.1881 5.94998H109.59C109.624 5.94998 109.659 5.94998 109.694 5.98498C109.728 6.01998 109.728 6.01998 109.728 6.08998V8.15498C109.728 8.18998 109.728 8.22498 109.694 8.25998C109.659 8.29498 109.659 8.29498 109.59 8.29498H95.1881V10.43C95.1881 10.745 95.2922 11.025 95.5352 11.235C95.7781 11.445 96.021 11.585 96.368 11.585H111.533C111.568 11.585 111.602 11.585 111.637 11.62C111.672 11.655 111.672 11.655 111.672 11.69V13.755C111.672 13.79 111.672 13.825 111.637 13.86C111.602 13.895 111.602 13.895 111.533 13.895H96.368C95.2923 13.895 94.39 13.51 93.6612 12.775C92.9325 12.04 92.5508 11.13 92.5508 10.045V4.19998C92.5508 3.11498 92.9325 2.20498 93.6612 1.46998C94.39 0.734976 95.2923 0.349976 96.368 0.349976H111.533C111.568 0.349976 111.602 0.349976 111.637 0.384976C111.672 0.419976 111.672 0.419976 111.672 0.489976V2.55498C111.672 2.58998 111.672 2.58998 111.637 2.62498C111.602 2.65998 111.602 2.65998 111.533 2.65998H96.368C96.0557 2.65998 95.7781 2.76498 95.5352 3.00998C95.327 3.25498 95.1881 3.49998 95.1881 3.81498V5.94998Z" fill="#F9F9F9"/>
  <path d="M115.627 0.455002C115.627 0.420002 115.627 0.385002 115.662 0.350002C115.697 0.315002 115.697 0.315002 115.732 0.315002H134.644C134.679 0.315002 134.679 0.315002 134.714 0.350002C134.748 0.385002 134.748 0.385002 134.748 0.455002V2.52C134.748 2.555 134.748 2.555 134.714 2.59C134.679 2.625 134.679 2.625 134.644 2.625H126.524V13.685C126.524 13.72 126.524 13.755 126.489 13.79C126.455 13.825 126.455 13.825 126.42 13.825H123.956C123.921 13.825 123.887 13.825 123.852 13.79C123.817 13.755 123.817 13.755 123.817 13.685V2.66H115.697C115.662 2.66 115.662 2.66 115.627 2.625C115.593 2.59 115.593 2.59 115.593 2.555V0.455002H115.627Z" fill="#F9F9F9"/>
  <path d="M145.958 13.72C145.958 13.755 145.958 13.755 145.923 13.79C145.888 13.825 145.888 13.825 145.819 13.825H143.355C143.32 13.825 143.32 13.825 143.286 13.79C143.251 13.755 143.251 13.755 143.251 13.72V0.454976C143.251 0.419976 143.251 0.384976 143.286 0.349976C143.32 0.349976 143.355 0.349976 143.39 0.349976H145.854C145.888 0.349976 145.923 0.349976 145.958 0.384976C145.992 0.419976 145.992 0.419976 145.992 0.489976V13.72H145.958ZM165.218 2.65998C164.871 2.65998 164.558 2.79998 164.315 3.07998L161.088 7.10498L164.315 11.13C164.558 11.41 164.871 11.55 165.218 11.55H168.965C169 11.55 169 11.55 169.035 11.585C169.069 11.62 169.069 11.62 169.069 11.69V13.755C169.069 13.79 169.069 13.825 169.035 13.86C169 13.895 169 13.895 168.965 13.895H165.009C163.968 13.895 163.066 13.475 162.337 12.6L159.526 9.09998L156.715 12.6C155.952 13.44 155.084 13.895 154.043 13.895H150.087C150.053 13.895 150.053 13.895 150.018 13.86C149.983 13.825 149.983 13.825 149.983 13.755V11.69C149.983 11.655 149.983 11.62 150.018 11.585C150.053 11.55 150.053 11.55 150.087 11.55H153.835C154.182 11.55 154.495 11.41 154.737 11.13L157.965 7.10498L154.737 3.07998C154.495 2.79998 154.182 2.65998 153.87 2.65998H150.122C150.087 2.65998 150.087 2.65998 150.053 2.62498C150.018 2.58998 150.018 2.58998 150.018 2.55498V0.454976C150.018 0.419976 150.018 0.419976 150.053 0.384976C150.087 0.349976 150.087 0.349976 150.122 0.349976H154.078C155.119 0.349976 156.021 0.769976 156.75 1.64498L159.561 5.14498L162.372 1.64498C163.101 0.804976 164.003 0.349976 165.044 0.349976H169C169.035 0.349976 169.035 0.349976 169.069 0.384976C169.104 0.419976 169.104 0.419976 169.104 0.454976V2.55498C169.104 2.58998 169.104 2.58998 169.069 2.62498C169.035 2.65998 169.035 2.65998 169 2.65998H165.218Z" fill="#141414"/>
</svg>
